ISO-10303-21;
HEADER;
FILE_DESCRIPTION (( 'STEP AP214' ),
    '1' );
FILE_NAME ('Fork Arm.STEP',
    '2025-08-10T22:19:53',
    ( '' ),
    ( '' ),
    'SwSTEP 2.0',
    'SolidWorks 2024',
    '' );
FILE_SCHEMA (( 'AUTOMOTIVE_DESIGN' ));
ENDSEC;

DATA;
#1 = CYLINDRICAL_SURFACE ( 'NONE', #703, 4.500000000000000000 ) ;
#2 = CIRCLE ( 'NONE', #500, 4.500000000000000000 ) ;
#3 =( GEOMETRIC_REPRESENTATION_CONTEXT ( 3 ) GLOBAL_UNCERTAINTY_ASSIGNED_CONTEXT ( ( #177 ) ) GLOBAL_UNIT_ASSIGNED_CONTEXT ( ( #472, #363, #428 ) ) REPRESENTATION_CONTEXT ( 'NONE', 'WORKASPACE' ) );
#4 = VECTOR ( 'NONE', #175, 1000.000000000000000 ) ;
#5 = ORIENTED_EDGE ( 'NONE', *, *, #223, .T. ) ;
#6 = FACE_BOUND ( 'NONE', #563, .T. ) ;
#7 = CARTESIAN_POINT ( 'NONE',  ( 0.000000000000000000, 0.000000000000000000, 0.000000000000000000 ) ) ;
#8 = EDGE_CURVE ( 'NONE', #566, #602, #239, .T. ) ;
#9 = ORIENTED_EDGE ( 'NONE', *, *, #306, .T. ) ;
#10 = CARTESIAN_POINT ( 'NONE',  ( -3.877454756943544467, -14.49018097222584167, 9.000000000000000000 ) ) ;
#11 = PRODUCT_DEFINITION ( 'UNKNOWN', '', #548, #541 ) ;
#12 = CARTESIAN_POINT ( 'NONE',  ( -3.877454756943534253, 14.49018097222584522, 0.000000000000000000 ) ) ;
#13 = ORIENTED_EDGE ( 'NONE', *, *, #518, .F. ) ;
#14 = CARTESIAN_POINT ( 'NONE',  ( -18.57000000000000028, -3.469446951953614189E-15, 13.49999999999999822 ) ) ;
#15 = CARTESIAN_POINT ( 'NONE',  ( -30.00000000000000000, -7.499999999999987566, 9.000000000000000000 ) ) ;
#16 = DIRECTION ( 'NONE',  ( -1.000000000000000000, 0.000000000000000000, 0.000000000000000000 ) ) ;
#17 = DIRECTION ( 'NONE',  ( 0.000000000000000000, 0.000000000000000000, -1.000000000000000000 ) ) ;
#18 = CARTESIAN_POINT ( 'NONE',  ( 0.000000000000000000, 0.000000000000000000, 0.000000000000000000 ) ) ;
#19 = DIRECTION ( 'NONE',  ( 0.000000000000000000, 0.000000000000000000, 1.000000000000000000 ) ) ;
#20 = DIRECTION ( 'NONE',  ( 0.9660120648150561928, -0.2584969837962363126, 0.000000000000000000 ) ) ;
#21 = EDGE_LOOP ( 'NONE', ( #200, #153, #476, #269 ) ) ;
#22 = CYLINDRICAL_SURFACE ( 'NONE', #123, 4.500000000000000000 ) ;
#23 = CARTESIAN_POINT ( 'NONE',  ( 0.000000000000000000, 0.000000000000000000, 24.99999999999999289 ) ) ;
#24 = ORIENTED_EDGE ( 'NONE', *, *, #396, .F. ) ;
#25 = DIRECTION ( 'NONE',  ( 1.000000000000000000, 0.000000000000000000, 0.000000000000000000 ) ) ;
#26 = VECTOR ( 'NONE', #195, 1000.000000000000000 ) ;
#27 = DIRECTION ( 'NONE',  ( 0.000000000000000000, 0.000000000000000000, 1.000000000000000000 ) ) ;
#28 = AXIS2_PLACEMENT_3D ( 'NONE', #457, #286, #510 ) ;
#29 = AXIS2_PLACEMENT_3D ( 'NONE', #7, #665, #710 ) ;
#30 = LINE ( 'NONE', #293, #355 ) ;
#31 = APPLICATION_CONTEXT ( 'automotive_design' ) ;
#32 = EDGE_CURVE ( 'NONE', #489, #698, #192, .T. ) ;
#33 = VERTEX_POINT ( 'NONE', #124 ) ;
#34 = CARTESIAN_POINT ( 'NONE',  ( 4.500000000000000000, 0.000000000000000000, 26.99999999999999645 ) ) ;
#35 = FACE_OUTER_BOUND ( 'NONE', #294, .T. ) ;
#36 = EDGE_LOOP ( 'NONE', ( #113, #595, #387, #317, #188, #210, #561, #5 ) ) ;
#37 = CARTESIAN_POINT ( 'NONE',  ( 0.000000000000000000, 0.000000000000000000, 0.000000000000000000 ) ) ;
#38 = ADVANCED_FACE ( 'NONE', ( #299 ), #345, .F. ) ;
#39 = DIRECTION ( 'NONE',  ( 1.000000000000000000, 0.000000000000000000, 0.000000000000000000 ) ) ;
#40 = ORIENTED_EDGE ( 'NONE', *, *, #255, .T. ) ;
#41 = ORIENTED_EDGE ( 'NONE', *, *, #488, .F. ) ;
#42 = AXIS2_PLACEMENT_3D ( 'NONE', #458, #404, #353 ) ;
#43 = VECTOR ( 'NONE', #685, 1000.000000000000000 ) ;
#44 = DIRECTION ( 'NONE',  ( -0.000000000000000000, -0.000000000000000000, 1.000000000000000000 ) ) ;
#45 = ADVANCED_FACE ( 'NONE', ( #615 ), #127, .F. ) ;
#46 = VECTOR ( 'NONE', #583, 1000.000000000000000 ) ;
#47 = CARTESIAN_POINT ( 'NONE',  ( 0.000000000000000000, 0.000000000000000000, 58.11269837220808654 ) ) ;
#48 = EDGE_CURVE ( 'NONE', #499, #248, #673, .T. ) ;
#49 = DIRECTION ( 'NONE',  ( -0.000000000000000000, -0.000000000000000000, -1.000000000000000000 ) ) ;
#50 = EDGE_LOOP ( 'NONE', ( #91, #279, #320, #545 ) ) ;
#51 = DIRECTION ( 'NONE',  ( 1.000000000000000000, 0.000000000000000000, 0.000000000000000000 ) ) ;
#52 = CIRCLE ( 'NONE', #275, 15.00000000000000000 ) ;
#53 = EDGE_LOOP ( 'NONE', ( #323, #690, #203, #24, #549, #372, #686, #73 ) ) ;
#54 = DIRECTION ( 'NONE',  ( -0.000000000000000000, -0.000000000000000000, 1.000000000000000000 ) ) ;
#55 = ORIENTED_EDGE ( 'NONE', *, *, #518, .T. ) ;
#56 = DIRECTION ( 'NONE',  ( -1.000000000000000000, 0.000000000000000000, 0.000000000000000000 ) ) ;
#57 = FACE_BOUND ( 'NONE', #516, .T. ) ;
#58 = ORIENTED_EDGE ( 'NONE', *, *, #422, .T. ) ;
#59 = CARTESIAN_POINT ( 'NONE',  ( 11.00000000000000000, 0.000000000000000000, 2.000000000000001776 ) ) ;
#60 = VECTOR ( 'NONE', #263, 1000.000000000000000 ) ;
#61 = EDGE_CURVE ( 'NONE', #552, #248, #229, .T. ) ;
#62 = AXIS2_PLACEMENT_3D ( 'NONE', #258, #587, #641 ) ;
#63 = AXIS2_PLACEMENT_3D ( 'NONE', #142, #668, #616 ) ;
#64 = ORIENTED_EDGE ( 'NONE', *, *, #488, .T. ) ;
#65 = CARTESIAN_POINT ( 'NONE',  ( 0.000000000000000000, 0.000000000000000000, 17.99999999999999645 ) ) ;
#66 = EDGE_CURVE ( 'NONE', #329, #312, #181, .T. ) ;
#67 = EDGE_LOOP ( 'NONE', ( #110, #467, #55, #338 ) ) ;
#68 = CARTESIAN_POINT ( 'NONE',  ( 0.000000000000000000, 0.000000000000000000, 2.000000000000000000 ) ) ;
#69 = PLANE ( 'NONE',  #627 ) ;
#70 = ORIENTED_EDGE ( 'NONE', *, *, #496, .F. ) ;
#71 = DIRECTION ( 'NONE',  ( -0.000000000000000000, 0.000000000000000000, 1.000000000000000000 ) ) ;
#72 = CARTESIAN_POINT ( 'NONE',  ( -3.877454756943544467, -14.49018097222584167, 0.000000000000000000 ) ) ;
#73 = ORIENTED_EDGE ( 'NONE', *, *, #586, .T. ) ;
#74 = VECTOR ( 'NONE', #446, 1000.000000000000000 ) ;
#75 = DIRECTION ( 'NONE',  ( -0.000000000000000000, -0.000000000000000000, 1.000000000000000000 ) ) ;
#76 = ORIENTED_EDGE ( 'NONE', *, *, #143, .F. ) ;
#77 = PLANE ( 'NONE',  #395 ) ;
#78 = CARTESIAN_POINT ( 'NONE',  ( -3.877454756943532921, 14.49018097222584522, 9.000000000000000000 ) ) ;
#79 = ADVANCED_BREP_SHAPE_REPRESENTATION ( 'Fork Arm', ( #228, #111 ), #3 ) ;
#80 = ORIENTED_EDGE ( 'NONE', *, *, #325, .F. ) ;
#81 = CARTESIAN_POINT ( 'NONE',  ( -18.57000000000000028, 0.000000000000000000, 0.000000000000000000 ) ) ;
#82 = PLANE ( 'NONE',  #406 ) ;
#83 = PRODUCT_DEFINITION_SHAPE ( 'NONE', 'NONE',  #11 ) ;
#84 = CIRCLE ( 'NONE', #29, 4.500000000000000000 ) ;
#85 = VECTOR ( 'NONE', #347, 1000.000000000000000 ) ;
#86 = ORIENTED_EDGE ( 'NONE', *, *, #666, .T. ) ;
#87 = LINE ( 'NONE', #190, #85 ) ;
#88 =( LENGTH_UNIT ( ) NAMED_UNIT ( * ) SI_UNIT ( .MILLI., .METRE. ) );
#89 = ORIENTED_EDGE ( 'NONE', *, *, #689, .T. ) ;
#90 = ADVANCED_FACE ( 'NONE', ( #407, #618 ), #182, .T. ) ;
#91 = ORIENTED_EDGE ( 'NONE', *, *, #422, .F. ) ;
#92 = LINE ( 'NONE', #469, #705 ) ;
#93 = CARTESIAN_POINT ( 'NONE',  ( -17.29999999999999716, -10.89841686639877061, 27.00199999999999179 ) ) ;
#94 = VERTEX_POINT ( 'NONE', #243 ) ;
#95 = DIRECTION ( 'NONE',  ( -0.000000000000000000, 0.000000000000000000, 1.000000000000000000 ) ) ;
#96 = DIRECTION ( 'NONE',  ( 0.000000000000000000, 0.000000000000000000, -1.000000000000000000 ) ) ;
#97 = VERTEX_POINT ( 'NONE', #167 ) ;
#98 = MECHANICAL_DESIGN_GEOMETRIC_PRESENTATION_REPRESENTATION (  '', ( #593 ), #120 ) ;
#99 = EDGE_LOOP ( 'NONE', ( #105, #613, #709, #694 ) ) ;
#100 = CARTESIAN_POINT ( 'NONE',  ( 0.000000000000000000, 0.000000000000000000, -31.11269837220809364 ) ) ;
#101 = ADVANCED_FACE ( 'NONE', ( #380 ), #108, .T. ) ;
#102 = DIRECTION ( 'NONE',  ( 1.000000000000000000, 0.000000000000000000, 0.000000000000000000 ) ) ;
#103 = UNCERTAINTY_MEASURE_WITH_UNIT (LENGTH_MEASURE( 1.000000000000000082E-05 ), #88, 'distance_accuracy_value', 'NONE');
#104 = CARTESIAN_POINT ( 'NONE',  ( -18.57000000000000028, -3.469446951953614189E-15, 13.49999999999999822 ) ) ;
#105 = ORIENTED_EDGE ( 'NONE', *, *, #656, .T. ) ;
#106 = VERTEX_POINT ( 'NONE', #444 ) ;
#107 = LINE ( 'NONE', #311, #560 ) ;
#108 = CYLINDRICAL_SURFACE ( 'NONE', #581, 15.00000000000000000 ) ;
#109 = ADVANCED_FACE ( 'NONE', ( #6, #118 ), #664, .F. ) ;
#110 = ORIENTED_EDGE ( 'NONE', *, *, #544, .F. ) ;
#111 = AXIS2_PLACEMENT_3D ( 'NONE', #37, #368, #148 ) ;
#112 = LINE ( 'NONE', #324, #370 ) ;
#113 = ORIENTED_EDGE ( 'NONE', *, *, #61, .T. ) ;
#114 = DIRECTION ( 'NONE',  ( 0.000000000000000000, 0.000000000000000000, 1.000000000000000000 ) ) ;
#115 = VERTEX_POINT ( 'NONE', #350 ) ;
#116 = DIRECTION ( 'NONE',  ( -0.000000000000000000, -0.000000000000000000, 1.000000000000000000 ) ) ;
#117 = EDGE_LOOP ( 'NONE', ( #41, #130, #174, #260 ) ) ;
#118 = FACE_OUTER_BOUND ( 'NONE', #410, .T. ) ;
#119 = DIRECTION ( 'NONE',  ( -0.000000000000000000, -0.000000000000000000, 1.000000000000000000 ) ) ;
#120 =( GEOMETRIC_REPRESENTATION_CONTEXT ( 3 ) GLOBAL_UNCERTAINTY_ASSIGNED_CONTEXT ( ( #103 ) ) GLOBAL_UNIT_ASSIGNED_CONTEXT ( ( #88, #524, #620 ) ) REPRESENTATION_CONTEXT ( 'NONE', 'WORKASPACE' ) );
#121 = ADVANCED_FACE ( 'NONE', ( #128 ), #346, .F. ) ;
#122 = CIRCLE ( 'NONE', #569, 4.500000000000000000 ) ;
#123 = AXIS2_PLACEMENT_3D ( 'NONE', #287, #75, #138 ) ;
#124 = CARTESIAN_POINT ( 'NONE',  ( -17.29999999999999716, -10.89841686639877061, 17.99999999999999645 ) ) ;
#125 = DIRECTION ( 'NONE',  ( 1.000000000000000000, 0.000000000000000000, 0.000000000000000000 ) ) ;
#126 = DIRECTION ( 'NONE',  ( 1.000000000000000000, 0.000000000000000000, 0.000000000000000000 ) ) ;
#127 = CYLINDRICAL_SURFACE ( 'NONE', #257, 4.500000000000000000 ) ;
#128 = FACE_OUTER_BOUND ( 'NONE', #53, .T. ) ;
#129 = FACE_OUTER_BOUND ( 'NONE', #639, .T. ) ;
#130 = ORIENTED_EDGE ( 'NONE', *, *, #8, .T. ) ;
#131 = EDGE_CURVE ( 'NONE', #326, #106, #427, .T. ) ;
#132 = FACE_OUTER_BOUND ( 'NONE', #21, .T. ) ;
#133 = LINE ( 'NONE', #568, #26 ) ;
#134 = DIRECTION ( 'NONE',  ( 0.000000000000000000, 0.000000000000000000, 1.000000000000000000 ) ) ;
#135 = CARTESIAN_POINT ( 'NONE',  ( 0.000000000000000000, 0.000000000000000000, 26.99999999999999645 ) ) ;
#136 = AXIS2_PLACEMENT_3D ( 'NONE', #386, #605, #114 ) ;
#137 = DIRECTION ( 'NONE',  ( -0.000000000000000000, -0.000000000000000000, 1.000000000000000000 ) ) ;
#138 = DIRECTION ( 'NONE',  ( 1.000000000000000000, 0.000000000000000000, 0.000000000000000000 ) ) ;
#139 = SURFACE_STYLE_FILL_AREA ( #199 ) ;
#140 = CARTESIAN_POINT ( 'NONE',  ( 0.000000000000000000, 0.000000000000000000, 2.000000000000000000 ) ) ;
#141 = CARTESIAN_POINT ( 'NONE',  ( 0.000000000000000000, 0.000000000000000000, 2.000000000000000000 ) ) ;
#142 = CARTESIAN_POINT ( 'NONE',  ( -30.00000000000000000, 0.000000000000000000, 9.000000000000000000 ) ) ;
#143 = EDGE_CURVE ( 'NONE', #154, #302, #122, .T. ) ;
#144 = LINE ( 'NONE', #245, #646 ) ;
#145 = CARTESIAN_POINT ( 'NONE',  ( -30.00000000000000000, 7.500000000000009770, 0.000000000000000000 ) ) ;
#146 = ADVANCED_FACE ( 'NONE', ( #132 ), #629, .F. ) ;
#147 = ORIENTED_EDGE ( 'NONE', *, *, #607, .F. ) ;
#148 = DIRECTION ( 'NONE',  ( 1.000000000000000000, 0.000000000000000000, 0.000000000000000000 ) ) ;
#149 = CARTESIAN_POINT ( 'NONE',  ( -17.29999999999999716, -2.753676658022292203E-15, 27.00199999999999179 ) ) ;
#150 = ORIENTED_EDGE ( 'NONE', *, *, #677, .T. ) ;
#151 = DIRECTION ( 'NONE',  ( 0.9660120648150561928, -0.2584969837962363126, 0.000000000000000000 ) ) ;
#152 = DIRECTION ( 'NONE',  ( 0.000000000000000000, 0.000000000000000000, -1.000000000000000000 ) ) ;
#153 = ORIENTED_EDGE ( 'NONE', *, *, #453, .T. ) ;
#154 = VERTEX_POINT ( 'NONE', #506 ) ;
#155 = DIRECTION ( 'NONE',  ( -0.000000000000000000, 0.000000000000000000, 1.000000000000000000 ) ) ;
#156 = ORIENTED_EDGE ( 'NONE', *, *, #306, .F. ) ;
#157 = CIRCLE ( 'NONE', #590, 11.00000000000000000 ) ;
#158 = ORIENTED_EDGE ( 'NONE', *, *, #198, .T. ) ;
#159 = DIRECTION ( 'NONE',  ( 1.000000000000000000, 0.000000000000000000, 0.000000000000000000 ) ) ;
#160 = VECTOR ( 'NONE', #151, 1000.000000000000000 ) ;
#161 = AXIS2_PLACEMENT_3D ( 'NONE', #18, #71, #125 ) ;
#162 = CARTESIAN_POINT ( 'NONE',  ( -3.877454756943534253, 14.49018097222584522, 17.99999999999999645 ) ) ;
#163 = AXIS2_PLACEMENT_3D ( 'NONE', #47, #364, #708 ) ;
#164 = VERTEX_POINT ( 'NONE', #403 ) ;
#165 = DIRECTION ( 'NONE',  ( -1.591720611573579547E-16, 1.000000000000000000, 0.000000000000000000 ) ) ;
#166 = LINE ( 'NONE', #93, #332 ) ;
#167 = CARTESIAN_POINT ( 'NONE',  ( 11.00000000000000000, 0.000000000000000000, 24.99999999999999289 ) ) ;
#168 = EDGE_CURVE ( 'NONE', #302, #154, #267, .T. ) ;
#169 = ORIENTED_EDGE ( 'NONE', *, *, #586, .F. ) ;
#170 = DIRECTION ( 'NONE',  ( 0.000000000000000000, 0.000000000000000000, -1.000000000000000000 ) ) ;
#171 = EDGE_LOOP ( 'NONE', ( #251, #534, #365, #431 ) ) ;
#172 = CARTESIAN_POINT ( 'NONE',  ( -30.00000000000000000, 7.500000000000009770, 26.99999999999999645 ) ) ;
#173 = AXIS2_PLACEMENT_3D ( 'NONE', #667, #399, #571 ) ;
#174 = ORIENTED_EDGE ( 'NONE', *, *, #666, .F. ) ;
#175 = DIRECTION ( 'NONE',  ( -0.000000000000000000, -0.000000000000000000, 1.000000000000000000 ) ) ;
#176 = EDGE_LOOP ( 'NONE', ( #252, #658, #503, #691 ) ) ;
#177 = UNCERTAINTY_MEASURE_WITH_UNIT (LENGTH_MEASURE( 1.000000000000000082E-05 ), #472, 'distance_accuracy_value', 'NONE');
#178 = DIRECTION ( 'NONE',  ( 0.000000000000000000, -1.000000000000000000, 0.000000000000000000 ) ) ;
#179 = ORIENTED_EDGE ( 'NONE', *, *, #168, .T. ) ;
#180 = FACE_OUTER_BOUND ( 'NONE', #381, .T. ) ;
#181 = CIRCLE ( 'NONE', #173, 11.00000000000000000 ) ;
#182 = PLANE ( 'NONE',  #461 ) ;
#183 = FACE_OUTER_BOUND ( 'NONE', #117, .T. ) ;
#184 = ADVANCED_FACE ( 'NONE', ( #576 ), #77, .T. ) ;
#185 = CARTESIAN_POINT ( 'NONE',  ( 0.000000000000000000, 0.000000000000000000, 27.00099999999999767 ) ) ;
#186 = CARTESIAN_POINT ( 'NONE',  ( -18.57000000000000028, -3.469446951953614189E-15, 13.49999999999999822 ) ) ;
#187 = DIRECTION ( 'NONE',  ( 1.000000000000000000, 0.000000000000000000, 0.000000000000000000 ) ) ;
#188 = ORIENTED_EDGE ( 'NONE', *, *, #663, .T. ) ;
#189 = DIRECTION ( 'NONE',  ( 0.000000000000000000, 0.000000000000000000, 1.000000000000000000 ) ) ;
#190 = CARTESIAN_POINT ( 'NONE',  ( -3.877454756943532921, 14.49018097222584522, 26.99999999999999645 ) ) ;
#191 = AXIS2_PLACEMENT_3D ( 'NONE', #642, #152, #268 ) ;
#192 = CIRCLE ( 'NONE', #559, 4.500000000000000000 ) ;
#193 = ORIENTED_EDGE ( 'NONE', *, *, #701, .T. ) ;
#194 = VECTOR ( 'NONE', #625, 1000.000000000000000 ) ;
#195 = DIRECTION ( 'NONE',  ( -0.000000000000000000, -0.000000000000000000, 1.000000000000000000 ) ) ;
#196 = APPLICATION_CONTEXT ( 'automotive_design' ) ;
#197 = DIRECTION ( 'NONE',  ( -0.000000000000000000, -0.000000000000000000, -1.000000000000000000 ) ) ;
#198 = EDGE_CURVE ( 'NONE', #115, #361, #357, .T. ) ;
#199 = FILL_AREA_STYLE ('',( #515 ) ) ;
#200 = ORIENTED_EDGE ( 'NONE', *, *, #213, .F. ) ;
#201 = PRODUCT_CONTEXT ( 'NONE', #31, 'mechanical' ) ;
#202 = ORIENTED_EDGE ( 'NONE', *, *, #336, .F. ) ;
#203 = ORIENTED_EDGE ( 'NONE', *, *, #383, .F. ) ;
#204 = DIRECTION ( 'NONE',  ( 0.000000000000000000, 0.000000000000000000, 1.000000000000000000 ) ) ;
#205 = DIRECTION ( 'NONE',  ( 1.000000000000000000, 0.000000000000000000, 0.000000000000000000 ) ) ;
#206 = ORIENTED_EDGE ( 'NONE', *, *, #281, .T. ) ;
#207 = ORIENTED_EDGE ( 'NONE', *, *, #433, .T. ) ;
#208 = DIRECTION ( 'NONE',  ( 1.000000000000000000, 0.000000000000000000, 0.000000000000000000 ) ) ;
#209 = EDGE_LOOP ( 'NONE', ( #707, #169, #653, #651 ) ) ;
#210 = ORIENTED_EDGE ( 'NONE', *, *, #297, .T. ) ;
#211 = CARTESIAN_POINT ( 'NONE',  ( -17.29999999999999716, -2.753676658022292203E-15, 17.99999999999999645 ) ) ;
#212 = CARTESIAN_POINT ( 'NONE',  ( -4.500000000000000000, -5.510910596163088569E-16, 24.99999999999999289 ) ) ;
#213 = EDGE_CURVE ( 'NONE', #164, #302, #246, .T. ) ;
#214 = AXIS2_PLACEMENT_3D ( 'NONE', #683, #284, #520 ) ;
#215 = CARTESIAN_POINT ( 'NONE',  ( 4.500000000000000000, 0.000000000000000000, -0.001000000000000132727 ) ) ;
#216 = VERTEX_POINT ( 'NONE', #241 ) ;
#217 = CARTESIAN_POINT ( 'NONE',  ( -17.30000000000000426, 10.89841686639878127, 17.99999999999999645 ) ) ;
#218 = EDGE_LOOP ( 'NONE', ( #305, #309 ) ) ;
#219 = DIRECTION ( 'NONE',  ( 0.000000000000000000, 0.000000000000000000, -1.000000000000000000 ) ) ;
#220 = ORIENTED_EDGE ( 'NONE', *, *, #356, .T. ) ;
#221 = AXIS2_PLACEMENT_3D ( 'NONE', #149, #254, #416 ) ;
#222 = DIRECTION ( 'NONE',  ( 1.000000000000000000, 0.000000000000000000, 0.000000000000000000 ) ) ;
#223 = EDGE_CURVE ( 'NONE', #670, #552, #466, .T. ) ;
#224 = ORIENTED_EDGE ( 'NONE', *, *, #697, .T. ) ;
#225 = LINE ( 'NONE', #283, #4 ) ;
#226 = ORIENTED_EDGE ( 'NONE', *, *, #669, .F. ) ;
#227 = LINE ( 'NONE', #270, #344 ) ;
#228 = MANIFOLD_SOLID_BREP ( 'Cut-Extrude3', #371 ) ;
#229 = LINE ( 'NONE', #508, #74 ) ;
#230 = EDGE_CURVE ( 'NONE', #529, #589, #30, .T. ) ;
#231 = DIRECTION ( 'NONE',  ( 0.000000000000000000, 0.000000000000000000, 1.000000000000000000 ) ) ;
#232 = CYLINDRICAL_SURFACE ( 'NONE', #612, 11.00000000000000000 ) ;
#233 = CIRCLE ( 'NONE', #523, 11.00000000000000000 ) ;
#234 = ORIENTED_EDGE ( 'NONE', *, *, #255, .F. ) ;
#235 = DIRECTION ( 'NONE',  ( 0.9660120648150561928, -0.2584969837962363126, 0.000000000000000000 ) ) ;
#236 = DIRECTION ( 'NONE',  ( 1.000000000000000000, 0.000000000000000000, 0.000000000000000000 ) ) ;
#237 = DIRECTION ( 'NONE',  ( 1.000000000000000000, 0.000000000000000000, 0.000000000000000000 ) ) ;
#238 = FACE_BOUND ( 'NONE', #484, .T. ) ;
#239 = LINE ( 'NONE', #505, #385 ) ;
#240 = PLANE ( 'NONE',  #63 ) ;
#241 = CARTESIAN_POINT ( 'NONE',  ( -17.30000000000000426, 10.89841686639878127, 9.000000000000000000 ) ) ;
#242 = VERTEX_POINT ( 'NONE', #352 ) ;
#243 = CARTESIAN_POINT ( 'NONE',  ( -3.877454756943544467, -14.49018097222584167, 26.99999999999999645 ) ) ;
#244 = VECTOR ( 'NONE', #539, 1000.000000000000000 ) ;
#245 = CARTESIAN_POINT ( 'NONE',  ( -3.877454756943544467, -14.49018097222584167, 17.99999999999999645 ) ) ;
#246 = LINE ( 'NONE', #452, #43 ) ;
#247 = ORIENTED_EDGE ( 'NONE', *, *, #650, .T. ) ;
#248 = VERTEX_POINT ( 'NONE', #145 ) ;
#249 = LINE ( 'NONE', #418, #393 ) ;
#250 = PLANE ( 'NONE',  #462 ) ;
#251 = ORIENTED_EDGE ( 'NONE', *, *, #131, .F. ) ;
#252 = ORIENTED_EDGE ( 'NONE', *, *, #669, .T. ) ;
#253 = APPLICATION_PROTOCOL_DEFINITION ( 'draft international standard', 'automotive_design', 1998, #196 ) ;
#254 = DIRECTION ( 'NONE',  ( 1.000000000000000000, 1.591720611573579547E-16, -0.000000000000000000 ) ) ;
#255 = EDGE_CURVE ( 'NONE', #216, #606, #401, .T. ) ;
#256 = EDGE_LOOP ( 'NONE', ( #637, #660, #224, #582 ) ) ;
#257 = AXIS2_PLACEMENT_3D ( 'NONE', #185, #391, #236 ) ;
#258 = CARTESIAN_POINT ( 'NONE',  ( 0.000000000000000000, 0.000000000000000000, 0.000000000000000000 ) ) ;
#259 = DIRECTION ( 'NONE',  ( 0.000000000000000000, -0.000000000000000000, -1.000000000000000000 ) ) ;
#260 = ORIENTED_EDGE ( 'NONE', *, *, #697, .F. ) ;
#261 = LINE ( 'NONE', #318, #475 ) ;
#262 = CARTESIAN_POINT ( 'NONE',  ( -18.57000000000000028, -2.853296531132601397E-15, 8.468749999999994671 ) ) ;
#263 = DIRECTION ( 'NONE',  ( 0.000000000000000000, -1.000000000000000000, 0.000000000000000000 ) ) ;
#264 = CIRCLE ( 'NONE', #497, 11.00000000000000000 ) ;
#265 = ORIENTED_EDGE ( 'NONE', *, *, #433, .F. ) ;
#266 = ADVANCED_FACE ( 'NONE', ( #238, #35 ), #250, .T. ) ;
#267 = CIRCLE ( 'NONE', #706, 4.500000000000000000 ) ;
#268 = DIRECTION ( 'NONE',  ( 1.000000000000000000, 0.000000000000000000, 0.000000000000000000 ) ) ;
#269 = ORIENTED_EDGE ( 'NONE', *, *, #143, .T. ) ;
#270 = CARTESIAN_POINT ( 'NONE',  ( 11.00000000000000000, 0.000000000000000000, -31.11269837220809364 ) ) ;
#271 = ORIENTED_EDGE ( 'NONE', *, *, #434, .T. ) ;
#272 = FACE_OUTER_BOUND ( 'NONE', #99, .T. ) ;
#273 = ORIENTED_EDGE ( 'NONE', *, *, #383, .T. ) ;
#274 = AXIS2_PLACEMENT_3D ( 'NONE', #504, #54, #652 ) ;
#275 = AXIS2_PLACEMENT_3D ( 'NONE', #514, #671, #304 ) ;
#276 = DIRECTION ( 'NONE',  ( 0.000000000000000000, -0.000000000000000000, -1.000000000000000000 ) ) ;
#277 = PRESENTATION_LAYER_ASSIGNMENT (  '', '', ( #593 ) ) ;
#278 = VECTOR ( 'NONE', #674, 1000.000000000000000 ) ;
#279 = ORIENTED_EDGE ( 'NONE', *, *, #316, .T. ) ;
#280 = DIRECTION ( 'NONE',  ( 1.000000000000000000, 0.000000000000000000, 0.000000000000000000 ) ) ;
#281 = EDGE_CURVE ( 'NONE', #602, #530, #374, .T. ) ;
#282 = EDGE_LOOP ( 'NONE', ( #70, #202, #193, #89 ) ) ;
#283 = CARTESIAN_POINT ( 'NONE',  ( -3.877454756943534253, 14.49018097222584522, 17.99999999999999645 ) ) ;
#284 = DIRECTION ( 'NONE',  ( -1.000000000000000000, -0.000000000000000000, -0.000000000000000000 ) ) ;
#285 = ADVANCED_FACE ( 'NONE', ( #369 ), #319, .F. ) ;
#286 = DIRECTION ( 'NONE',  ( 0.2584969837962362571, 0.9660120648150561928, -0.000000000000000000 ) ) ;
#287 = CARTESIAN_POINT ( 'NONE',  ( 0.000000000000000000, 0.000000000000000000, -0.001000000000000132727 ) ) ;
#288 = CARTESIAN_POINT ( 'NONE',  ( -3.877454756943534253, 14.49018097222584522, 9.000000000000000000 ) ) ;
#289 = ORIENTED_EDGE ( 'NONE', *, *, #663, .F. ) ;
#290 = DIRECTION ( 'NONE',  ( 1.000000000000000000, 0.000000000000000000, 0.000000000000000000 ) ) ;
#291 = CARTESIAN_POINT ( 'NONE',  ( 0.000000000000000000, 0.000000000000000000, 9.000000000000000000 ) ) ;
#292 = ADVANCED_FACE ( 'NONE', ( #638 ), #600, .T. ) ;
#293 = CARTESIAN_POINT ( 'NONE',  ( -3.877454756943544467, -14.49018097222584167, 0.000000000000000000 ) ) ;
#294 = EDGE_LOOP ( 'NONE', ( #367, #40, #273, #150 ) ) ;
#295 = DIRECTION ( 'NONE',  ( 0.2584969837962355355, -0.9660120648150564149, 0.000000000000000000 ) ) ;
#296 = PRESENTATION_STYLE_ASSIGNMENT (( #672 ) ) ;
#297 = EDGE_CURVE ( 'NONE', #481, #216, #107, .T. ) ;
#298 = VERTEX_POINT ( 'NONE', #315 ) ;
#299 = FACE_OUTER_BOUND ( 'NONE', #171, .T. ) ;
#300 = FACE_OUTER_BOUND ( 'NONE', #282, .T. ) ;
#301 = CIRCLE ( 'NONE', #337, 15.00000000000000000 ) ;
#302 = VERTEX_POINT ( 'NONE', #536 ) ;
#303 = ORIENTED_EDGE ( 'NONE', *, *, #230, .F. ) ;
#304 = DIRECTION ( 'NONE',  ( 1.000000000000000000, 0.000000000000000000, 0.000000000000000000 ) ) ;
#305 = ORIENTED_EDGE ( 'NONE', *, *, #336, .T. ) ;
#306 = EDGE_CURVE ( 'NONE', #298, #164, #2, .T. ) ;
#307 = DIRECTION ( 'NONE',  ( 1.000000000000000000, 0.000000000000000000, 0.000000000000000000 ) ) ;
#308 = DIRECTION ( 'NONE',  ( -0.000000000000000000, -0.000000000000000000, -1.000000000000000000 ) ) ;
#309 = ORIENTED_EDGE ( 'NONE', *, *, #131, .T. ) ;
#310 = FACE_BOUND ( 'NONE', #513, .T. ) ;
#311 = CARTESIAN_POINT ( 'NONE',  ( -17.30000000000000426, 10.89841686639878127, 27.00199999999999179 ) ) ;
#312 = VERTEX_POINT ( 'NONE', #413 ) ;
#313 = COLOUR_RGB ( '',0.7921568627450980005, 0.8196078431372548767, 0.9333333333333333481 ) ;
#314 = ORIENTED_EDGE ( 'NONE', *, *, #297, .F. ) ;
#315 = CARTESIAN_POINT ( 'NONE',  ( 4.500000000000000000, 0.000000000000000000, 0.000000000000000000 ) ) ;
#316 = EDGE_CURVE ( 'NONE', #558, #420, #157, .T. ) ;
#317 = ORIENTED_EDGE ( 'NONE', *, *, #470, .F. ) ;
#318 = CARTESIAN_POINT ( 'NONE',  ( 11.00000000000000000, 0.000000000000000000, 58.11269837220808654 ) ) ;
#319 = CYLINDRICAL_SURFACE ( 'NONE', #522, 11.00000000000000000 ) ;
#320 = ORIENTED_EDGE ( 'NONE', *, *, #412, .T. ) ;
#321 = DIRECTION ( 'NONE',  ( 1.000000000000000000, 0.000000000000000000, 0.000000000000000000 ) ) ;
#322 = CARTESIAN_POINT ( 'NONE',  ( 0.000000000000000000, 0.000000000000000000, 17.99999999999999645 ) ) ;
#323 = ORIENTED_EDGE ( 'NONE', *, *, #230, .T. ) ;
#324 = CARTESIAN_POINT ( 'NONE',  ( -18.57000000000000028, -2.853296531132601397E-15, 8.468749999999994671 ) ) ;
#325 = EDGE_CURVE ( 'NONE', #298, #154, #478, .T. ) ;
#326 = VERTEX_POINT ( 'NONE', #262 ) ;
#327 = ADVANCED_FACE ( 'NONE', ( #532 ), #360, .F. ) ;
#328 = FACE_OUTER_BOUND ( 'NONE', #67, .T. ) ;
#329 = VERTEX_POINT ( 'NONE', #696 ) ;
#330 = CARTESIAN_POINT ( 'NONE',  ( 0.000000000000000000, 0.000000000000000000, 2.000000000000001776 ) ) ;
#331 = ORIENTED_EDGE ( 'NONE', *, *, #443, .F. ) ;
#332 = VECTOR ( 'NONE', #308, 1000.000000000000000 ) ;
#333 = VECTOR ( 'NONE', #197, 1000.000000000000000 ) ;
#334 = CARTESIAN_POINT ( 'NONE',  ( 4.500000000000000000, 0.000000000000000000, 27.00099999999999767 ) ) ;
#335 = VECTOR ( 'NONE', #676, 1000.000000000000000 ) ;
#336 = EDGE_CURVE ( 'NONE', #106, #326, #644, .T. ) ;
#337 = AXIS2_PLACEMENT_3D ( 'NONE', #65, #116, #280 ) ;
#338 = ORIENTED_EDGE ( 'NONE', *, *, #434, .F. ) ;
#339 = DIRECTION ( 'NONE',  ( -1.000000000000000000, 0.000000000000000000, 0.000000000000000000 ) ) ;
#340 = CARTESIAN_POINT ( 'NONE',  ( -3.877454756943544467, -14.49018097222584167, 9.000000000000000000 ) ) ;
#341 = CARTESIAN_POINT ( 'NONE',  ( -11.00000000000000000, 1.347111479062088207E-15, 2.000000000000001776 ) ) ;
#342 = EDGE_LOOP ( 'NONE', ( #207, #58, #575, #519 ) ) ;
#343 = FACE_OUTER_BOUND ( 'NONE', #209, .T. ) ;
#344 = VECTOR ( 'NONE', #610, 1000.000000000000000 ) ;
#345 = CYLINDRICAL_SURFACE ( 'NONE', #214, 5.031250000000000888 ) ;
#346 = PLANE ( 'NONE',  #28 ) ;
#347 = DIRECTION ( 'NONE',  ( -0.9660120648150564149, -0.2584969837962355355, -0.000000000000000000 ) ) ;
#348 = EDGE_CURVE ( 'NONE', #499, #362, #419, .T. ) ;
#349 = DIRECTION ( 'NONE',  ( 1.000000000000000000, 0.000000000000000000, 0.000000000000000000 ) ) ;
#350 = CARTESIAN_POINT ( 'NONE',  ( 4.500000000000000000, 0.000000000000000000, 24.99999999999999289 ) ) ;
#351 = CARTESIAN_POINT ( 'NONE',  ( -30.00000000000000000, -7.499999999999987566, 0.000000000000000000 ) ) ;
#352 = CARTESIAN_POINT ( 'NONE',  ( -30.00000000000000000, -2.853296531132601397E-15, 8.468749999999994671 ) ) ;
#353 = DIRECTION ( 'NONE',  ( 1.000000000000000000, 0.000000000000000000, 0.000000000000000000 ) ) ;
#354 = CARTESIAN_POINT ( 'NONE',  ( -17.29999999999999716, -2.753676658022292203E-15, 9.000000000000000000 ) ) ;
#355 = VECTOR ( 'NONE', #20, 1000.000000000000000 ) ;
#356 = EDGE_CURVE ( 'NONE', #97, #566, #657, .T. ) ;
#357 = CIRCLE ( 'NONE', #655, 4.500000000000000000 ) ;
#358 = ORIENTED_EDGE ( 'NONE', *, *, #631, .F. ) ;
#359 = ORIENTED_EDGE ( 'NONE', *, *, #573, .F. ) ;
#360 = CYLINDRICAL_SURFACE ( 'NONE', #163, 11.00000000000000000 ) ;
#361 = VERTEX_POINT ( 'NONE', #212 ) ;
#362 = VERTEX_POINT ( 'NONE', #424 ) ;
#363 =( NAMED_UNIT ( * ) PLANE_ANGLE_UNIT ( ) SI_UNIT ( $, .RADIAN. ) );
#364 = DIRECTION ( 'NONE',  ( 0.000000000000000000, 0.000000000000000000, -1.000000000000000000 ) ) ;
#365 = ORIENTED_EDGE ( 'NONE', *, *, #502, .T. ) ;
#366 = ADVANCED_FACE ( 'NONE', ( #490 ), #430, .T. ) ;
#367 = ORIENTED_EDGE ( 'NONE', *, *, #543, .T. ) ;
#368 = DIRECTION ( 'NONE',  ( 0.000000000000000000, 0.000000000000000000, 1.000000000000000000 ) ) ;
#369 = FACE_OUTER_BOUND ( 'NONE', #342, .T. ) ;
#370 = VECTOR ( 'NONE', #551, 1000.000000000000000 ) ;
#371 = CLOSED_SHELL ( 'NONE', ( #38, #45, #623, #556, #285, #266, #121, #366, #526, #564, #109, #617, #90, #146, #292, #101, #464, #479, #327, #687, #512, #550, #184 ) ) ;
#372 = ORIENTED_EDGE ( 'NONE', *, *, #631, .T. ) ;
#373 = DIRECTION ( 'NONE',  ( 0.000000000000000000, 0.000000000000000000, -1.000000000000000000 ) ) ;
#374 = CIRCLE ( 'NONE', #675, 11.00000000000000000 ) ;
#375 = LINE ( 'NONE', #542, #46 ) ;
#376 = EDGE_CURVE ( 'NONE', #698, #489, #594, .T. ) ;
#377 = VERTEX_POINT ( 'NONE', #162 ) ;
#378 = DIRECTION ( 'NONE',  ( -0.9660120648150564149, -0.2584969837962355355, -0.000000000000000000 ) ) ;
#379 = DIRECTION ( 'NONE',  ( -0.000000000000000000, -0.000000000000000000, 1.000000000000000000 ) ) ;
#380 = FACE_OUTER_BOUND ( 'NONE', #584, .T. ) ;
#381 = EDGE_LOOP ( 'NONE', ( #359, #247, #289, #331 ) ) ;
#382 = CARTESIAN_POINT ( 'NONE',  ( -30.00000000000000000, 0.000000000000000000, 0.000000000000000000 ) ) ;
#383 = EDGE_CURVE ( 'NONE', #606, #402, #375, .T. ) ;
#384 = PRODUCT_RELATED_PRODUCT_CATEGORY ( 'part', '', ( #473 ) ) ;
#385 = VECTOR ( 'NONE', #622, 1000.000000000000000 ) ;
#386 = CARTESIAN_POINT ( 'NONE',  ( -30.00000000000000000, -3.469446951953614189E-15, 13.49999999999999822 ) ) ;
#387 = ORIENTED_EDGE ( 'NONE', *, *, #601, .F. ) ;
#388 = DIRECTION ( 'NONE',  ( 0.000000000000000000, 0.000000000000000000, -1.000000000000000000 ) ) ;
#389 = VERTEX_POINT ( 'NONE', #597 ) ;
#390 = DIRECTION ( 'NONE',  ( 0.000000000000000000, 0.000000000000000000, -1.000000000000000000 ) ) ;
#391 = DIRECTION ( 'NONE',  ( 0.000000000000000000, 0.000000000000000000, -1.000000000000000000 ) ) ;
#392 = CIRCLE ( 'NONE', #274, 4.500000000000000000 ) ;
#393 = VECTOR ( 'NONE', #535, 1000.000000000000000 ) ;
#394 = LINE ( 'NONE', #562, #525 ) ;
#395 = AXIS2_PLACEMENT_3D ( 'NONE', #81, #16, #134 ) ;
#396 = EDGE_CURVE ( 'NONE', #33, #606, #166, .T. ) ;
#397 = DIRECTION ( 'NONE',  ( -0.000000000000000000, 0.000000000000000000, 1.000000000000000000 ) ) ;
#398 = CARTESIAN_POINT ( 'NONE',  ( 0.000000000000000000, 0.000000000000000000, 58.11269837220808654 ) ) ;
#399 = DIRECTION ( 'NONE',  ( 0.000000000000000000, 0.000000000000000000, 1.000000000000000000 ) ) ;
#400 = CYLINDRICAL_SURFACE ( 'NONE', #42, 11.00000000000000000 ) ;
#401 = LINE ( 'NONE', #354, #425 ) ;
#402 = VERTEX_POINT ( 'NONE', #340 ) ;
#403 = CARTESIAN_POINT ( 'NONE',  ( -4.500000000000000000, 5.510910596163088569E-16, 0.000000000000000000 ) ) ;
#404 = DIRECTION ( 'NONE',  ( -0.000000000000000000, -0.000000000000000000, 1.000000000000000000 ) ) ;
#405 = AXIS2_PLACEMENT_3D ( 'NONE', #567, #137, #290 ) ;
#406 = AXIS2_PLACEMENT_3D ( 'NONE', #78, #295, #630 ) ;
#407 = FACE_BOUND ( 'NONE', #421, .T. ) ;
#408 = LINE ( 'NONE', #211, #592 ) ;
#409 = DIRECTION ( 'NONE',  ( -0.000000000000000000, -0.000000000000000000, 1.000000000000000000 ) ) ;
#410 = EDGE_LOOP ( 'NONE', ( #303, #454, #417, #226 ) ) ;
#411 = FACE_OUTER_BOUND ( 'NONE', #50, .T. ) ;
#412 = EDGE_CURVE ( 'NONE', #420, #312, #227, .T. ) ;
#413 = CARTESIAN_POINT ( 'NONE',  ( 11.00000000000000000, 0.000000000000000000, 9.000000000000000000 ) ) ;
#414 = EDGE_CURVE ( 'NONE', #402, #589, #555, .T. ) ;
#415 = ORIENTED_EDGE ( 'NONE', *, *, #636, .F. ) ;
#416 = DIRECTION ( 'NONE',  ( -1.591720611573579547E-16, 1.000000000000000000, 0.000000000000000000 ) ) ;
#417 = ORIENTED_EDGE ( 'NONE', *, *, #61, .F. ) ;
#418 = CARTESIAN_POINT ( 'NONE',  ( -18.57000000000000028, -3.469446951953614189E-15, 18.53125000000000000 ) ) ;
#419 = LINE ( 'NONE', #485, #60 ) ;
#420 = VERTEX_POINT ( 'NONE', #59 ) ;
#421 = EDGE_LOOP ( 'NONE', ( #76, #628 ) ) ;
#422 = EDGE_CURVE ( 'NONE', #558, #329, #394, .T. ) ;
#423 = LINE ( 'NONE', #596, #160 ) ;
#424 = CARTESIAN_POINT ( 'NONE',  ( -30.00000000000000000, -7.499999999999987566, 26.99999999999999645 ) ) ;
#425 = VECTOR ( 'NONE', #580, 1000.000000000000000 ) ;
#426 = CIRCLE ( 'NONE', #487, 5.031250000000000888 ) ;
#427 = CIRCLE ( 'NONE', #570, 5.031250000000000888 ) ;
#428 =( NAMED_UNIT ( * ) SI_UNIT ( $, .STERADIAN. ) SOLID_ANGLE_UNIT ( ) );
#429 = AXIS2_PLACEMENT_3D ( 'NONE', #436, #170, #654 ) ;
#430 = CYLINDRICAL_SURFACE ( 'NONE', #486, 15.00000000000000000 ) ;
#431 = ORIENTED_EDGE ( 'NONE', *, *, #701, .F. ) ;
#432 = CARTESIAN_POINT ( 'NONE',  ( -4.500000000000000000, -5.510910596163088569E-16, 26.99999999999999645 ) ) ;
#433 = EDGE_CURVE ( 'NONE', #420, #558, #264, .T. ) ;
#434 = EDGE_CURVE ( 'NONE', #361, #115, #392, .T. ) ;
#435 = ORIENTED_EDGE ( 'NONE', *, *, #544, .T. ) ;
#436 = CARTESIAN_POINT ( 'NONE',  ( 0.000000000000000000, 0.000000000000000000, 24.99999999999999289 ) ) ;
#437 = AXIS2_PLACEMENT_3D ( 'NONE', #702, #95, #307 ) ;
#438 = EDGE_LOOP ( 'NONE', ( #480, #585 ) ) ;
#439 = AXIS2_PLACEMENT_3D ( 'NONE', #659, #507, #608 ) ;
#440 = LINE ( 'NONE', #334, #459 ) ;
#441 = EDGE_LOOP ( 'NONE', ( #265, #682 ) ) ;
#442 = ORIENTED_EDGE ( 'NONE', *, *, #66, .F. ) ;
#443 = EDGE_CURVE ( 'NONE', #711, #377, #301, .T. ) ;
#444 = CARTESIAN_POINT ( 'NONE',  ( -18.57000000000000028, -3.469446951953614189E-15, 18.53125000000000000 ) ) ;
#445 = DIRECTION ( 'NONE',  ( -0.000000000000000000, -0.000000000000000000, -1.000000000000000000 ) ) ;
#446 = DIRECTION ( 'NONE',  ( -0.9660120648150564149, -0.2584969837962355355, 0.000000000000000000 ) ) ;
#447 = CIRCLE ( 'NONE', #437, 15.00000000000000000 ) ;
#448 = LINE ( 'NONE', #578, #194 ) ;
#449 = VERTEX_POINT ( 'NONE', #492 ) ;
#450 = DIRECTION ( 'NONE',  ( 0.000000000000000000, 0.000000000000000000, 1.000000000000000000 ) ) ;
#451 = CARTESIAN_POINT ( 'NONE',  ( -17.29999999999999716, -10.89841686639877061, 9.000000000000000000 ) ) ;
#452 = CARTESIAN_POINT ( 'NONE',  ( -4.500000000000000000, 5.510910596163088569E-16, -0.001000000000000132727 ) ) ;
#453 = EDGE_CURVE ( 'NONE', #164, #298, #84, .T. ) ;
#454 = ORIENTED_EDGE ( 'NONE', *, *, #493, .F. ) ;
#455 = FACE_OUTER_BOUND ( 'NONE', #36, .T. ) ;
#456 = ORIENTED_EDGE ( 'NONE', *, *, #443, .T. ) ;
#457 = CARTESIAN_POINT ( 'NONE',  ( -3.877454756943544467, -14.49018097222584167, 9.000000000000000000 ) ) ;
#458 = CARTESIAN_POINT ( 'NONE',  ( 0.000000000000000000, 0.000000000000000000, -31.11269837220809364 ) ) ;
#459 = VECTOR ( 'NONE', #388, 1000.000000000000000 ) ;
#460 = AXIS2_PLACEMENT_3D ( 'NONE', #291, #19, #237 ) ;
#461 = AXIS2_PLACEMENT_3D ( 'NONE', #140, #397, #349 ) ;
#462 = AXIS2_PLACEMENT_3D ( 'NONE', #688, #155, #208 ) ;
#463 = CARTESIAN_POINT ( 'NONE',  ( -30.00000000000000000, 7.500000000000009770, 9.000000000000000000 ) ) ;
#464 = ADVANCED_FACE ( 'NONE', ( #661, #180 ), #69, .T. ) ;
#465 = CARTESIAN_POINT ( 'NONE',  ( -11.00000000000000000, -1.347111479062088207E-15, 17.99999999999999645 ) ) ;
#466 = LINE ( 'NONE', #288, #626 ) ;
#467 = ORIENTED_EDGE ( 'NONE', *, *, #376, .F. ) ;
#468 = ORIENTED_EDGE ( 'NONE', *, *, #396, .T. ) ;
#469 = CARTESIAN_POINT ( 'NONE',  ( -3.877454756943532921, 14.49018097222584522, 17.99999999999999645 ) ) ;
#470 = EDGE_CURVE ( 'NONE', #377, #389, #225, .T. ) ;
#471 = EDGE_LOOP ( 'NONE', ( #86, #206 ) ) ;
#472 =( LENGTH_UNIT ( ) NAMED_UNIT ( * ) SI_UNIT ( .MILLI., .METRE. ) );
#473 = PRODUCT ( 'Fork Arm', 'Fork Arm', '', ( #201 ) ) ;
#474 = DIRECTION ( 'NONE',  ( 1.000000000000000000, 0.000000000000000000, 0.000000000000000000 ) ) ;
#475 = VECTOR ( 'NONE', #634, 1000.000000000000000 ) ;
#476 = ORIENTED_EDGE ( 'NONE', *, *, #325, .T. ) ;
#477 = DIRECTION ( 'NONE',  ( -1.000000000000000000, 0.000000000000000000, 0.000000000000000000 ) ) ;
#478 = LINE ( 'NONE', #215, #244 ) ;
#479 = ADVANCED_FACE ( 'NONE', ( #57, #272 ), #603, .F. ) ;
#480 = ORIENTED_EDGE ( 'NONE', *, *, #689, .F. ) ;
#481 = VERTEX_POINT ( 'NONE', #217 ) ;
#482 = DIRECTION ( 'NONE',  ( -0.000000000000000000, -0.000000000000000000, 1.000000000000000000 ) ) ;
#483 = DIRECTION ( 'NONE',  ( -1.000000000000000000, 0.000000000000000000, 0.000000000000000000 ) ) ;
#484 = EDGE_LOOP ( 'NONE', ( #415, #442 ) ) ;
#485 = CARTESIAN_POINT ( 'NONE',  ( -30.00000000000000000, 0.000000000000000000, 26.99999999999999645 ) ) ;
#486 = AXIS2_PLACEMENT_3D ( 'NONE', #645, #588, #635 ) ;
#487 = AXIS2_PLACEMENT_3D ( 'NONE', #648, #477, #204 ) ;
#488 = EDGE_CURVE ( 'NONE', #566, #97, #611, .T. ) ;
#489 = VERTEX_POINT ( 'NONE', #432 ) ;
#490 = FACE_OUTER_BOUND ( 'NONE', #176, .T. ) ;
#491 = ORIENTED_EDGE ( 'NONE', *, *, #376, .T. ) ;
#492 = CARTESIAN_POINT ( 'NONE',  ( -30.00000000000000000, -3.469446951953614189E-15, 18.53125000000000000 ) ) ;
#493 = EDGE_CURVE ( 'NONE', #248, #529, #495, .T. ) ;
#494 = ORIENTED_EDGE ( 'NONE', *, *, #198, .F. ) ;
#495 = LINE ( 'NONE', #382, #537 ) ;
#496 = EDGE_CURVE ( 'NONE', #326, #242, #112, .T. ) ;
#497 = AXIS2_PLACEMENT_3D ( 'NONE', #330, #276, #501 ) ;
#498 = CIRCLE ( 'NONE', #460, 11.00000000000000000 ) ;
#499 = VERTEX_POINT ( 'NONE', #172 ) ;
#500 = AXIS2_PLACEMENT_3D ( 'NONE', #649, #259, #474 ) ;
#501 = DIRECTION ( 'NONE',  ( 1.000000000000000000, 0.000000000000000000, 0.000000000000000000 ) ) ;
#502 = EDGE_CURVE ( 'NONE', #242, #449, #579, .T. ) ;
#503 = ORIENTED_EDGE ( 'NONE', *, *, #677, .F. ) ;
#504 = CARTESIAN_POINT ( 'NONE',  ( 0.000000000000000000, 0.000000000000000000, 24.99999999999999289 ) ) ;
#505 = CARTESIAN_POINT ( 'NONE',  ( -11.00000000000000000, -1.347111479062088207E-15, 58.11269837220808654 ) ) ;
#506 = CARTESIAN_POINT ( 'NONE',  ( 4.500000000000000000, 0.000000000000000000, 2.000000000000000000 ) ) ;
#507 = DIRECTION ( 'NONE',  ( 0.000000000000000000, 0.000000000000000000, -1.000000000000000000 ) ) ;
#508 = CARTESIAN_POINT ( 'NONE',  ( -3.877454756943532921, 14.49018097222584522, 0.000000000000000000 ) ) ;
#509 = AXIS2_PLACEMENT_3D ( 'NONE', #528, #373, #102 ) ;
#510 = DIRECTION ( 'NONE',  ( -0.9660120648150561928, 0.2584969837962362571, 0.000000000000000000 ) ) ;
#511 = CARTESIAN_POINT ( 'NONE',  ( -11.00000000000000000, -1.347111479062088207E-15, 24.99999999999999289 ) ) ;
#512 = ADVANCED_FACE ( 'NONE', ( #328 ), #1, .F. ) ;
#513 = EDGE_LOOP ( 'NONE', ( #158, #271 ) ) ;
#514 = CARTESIAN_POINT ( 'NONE',  ( 0.000000000000000000, 0.000000000000000000, 26.99999999999999645 ) ) ;
#515 = FILL_AREA_STYLE_COLOUR ( '', #313 ) ;
#516 = EDGE_LOOP ( 'NONE', ( #491, #598 ) ) ;
#517 = DIRECTION ( 'NONE',  ( -1.000000000000000000, -0.000000000000000000, -0.000000000000000000 ) ) ;
#518 = EDGE_CURVE ( 'NONE', #698, #115, #440, .T. ) ;
#519 = ORIENTED_EDGE ( 'NONE', *, *, #412, .F. ) ;
#520 = DIRECTION ( 'NONE',  ( 0.000000000000000000, 0.000000000000000000, 1.000000000000000000 ) ) ;
#521 = CYLINDRICAL_SURFACE ( 'NONE', #681, 5.031250000000000888 ) ;
#522 = AXIS2_PLACEMENT_3D ( 'NONE', #100, #44, #321 ) ;
#523 = AXIS2_PLACEMENT_3D ( 'NONE', #643, #482, #159 ) ;
#524 =( NAMED_UNIT ( * ) PLANE_ANGLE_UNIT ( ) SI_UNIT ( $, .RADIAN. ) );
#525 = VECTOR ( 'NONE', #119, 1000.000000000000000 ) ;
#526 = ADVANCED_FACE ( 'NONE', ( #455 ), #82, .F. ) ;
#527 = ORIENTED_EDGE ( 'NONE', *, *, #470, .T. ) ;
#528 = CARTESIAN_POINT ( 'NONE',  ( 0.000000000000000000, 0.000000000000000000, 24.99999999999999289 ) ) ;
#529 = VERTEX_POINT ( 'NONE', #351 ) ;
#530 = VERTEX_POINT ( 'NONE', #684 ) ;
#531 = PLANE ( 'NONE',  #509 ) ;
#532 = FACE_OUTER_BOUND ( 'NONE', #256, .T. ) ;
#533 = ORIENTED_EDGE ( 'NONE', *, *, #213, .T. ) ;
#534 = ORIENTED_EDGE ( 'NONE', *, *, #496, .T. ) ;
#535 = DIRECTION ( 'NONE',  ( -1.000000000000000000, -0.000000000000000000, -0.000000000000000000 ) ) ;
#536 = CARTESIAN_POINT ( 'NONE',  ( -4.500000000000000000, 5.510910596163088569E-16, 2.000000000000000000 ) ) ;
#537 = VECTOR ( 'NONE', #178, 1000.000000000000000 ) ;
#538 = ORIENTED_EDGE ( 'NONE', *, *, #650, .F. ) ;
#539 = DIRECTION ( 'NONE',  ( -0.000000000000000000, -0.000000000000000000, 1.000000000000000000 ) ) ;
#540 = CARTESIAN_POINT ( 'NONE',  ( -3.877454756943544467, -14.49018097222584167, 17.99999999999999645 ) ) ;
#541 = PRODUCT_DEFINITION_CONTEXT ( 'detailed design', #196, 'design' ) ;
#542 = CARTESIAN_POINT ( 'NONE',  ( -3.877454756943544467, -14.49018097222584167, 9.000000000000000000 ) ) ;
#543 = EDGE_CURVE ( 'NONE', #670, #216, #448, .T. ) ;
#544 = EDGE_CURVE ( 'NONE', #489, #361, #572, .T. ) ;
#545 = ORIENTED_EDGE ( 'NONE', *, *, #636, .T. ) ;
#546 = CARTESIAN_POINT ( 'NONE',  ( 0.000000000000000000, 0.000000000000000000, 26.99999999999999645 ) ) ;
#547 = DIRECTION ( 'NONE',  ( -0.000000000000000000, -0.000000000000000000, 1.000000000000000000 ) ) ;
#548 = PRODUCT_DEFINITION_FORMATION_WITH_SPECIFIED_SOURCE ( 'ANY', '', #473, .NOT_KNOWN. ) ;
#549 = ORIENTED_EDGE ( 'NONE', *, *, #573, .T. ) ;
#550 = ADVANCED_FACE ( 'NONE', ( #300 ), #521, .F. ) ;
#551 = DIRECTION ( 'NONE',  ( -1.000000000000000000, -0.000000000000000000, -0.000000000000000000 ) ) ;
#552 = VERTEX_POINT ( 'NONE', #12 ) ;
#553 = CARTESIAN_POINT ( 'NONE',  ( 0.000000000000000000, 0.000000000000000000, 27.00099999999999767 ) ) ;
#554 = ORIENTED_EDGE ( 'NONE', *, *, #453, .F. ) ;
#555 = LINE ( 'NONE', #10, #647 ) ;
#556 = ADVANCED_FACE ( 'NONE', ( #129 ), #22, .F. ) ;
#557 = AXIS2_PLACEMENT_3D ( 'NONE', #546, #96, #51 ) ;
#558 = VERTEX_POINT ( 'NONE', #341 ) ;
#559 = AXIS2_PLACEMENT_3D ( 'NONE', #135, #17, #25 ) ;
#560 = VECTOR ( 'NONE', #49, 1000.000000000000000 ) ;
#561 = ORIENTED_EDGE ( 'NONE', *, *, #543, .F. ) ;
#562 = CARTESIAN_POINT ( 'NONE',  ( -11.00000000000000000, 1.347111479062088207E-15, -31.11269837220809364 ) ) ;
#563 = EDGE_LOOP ( 'NONE', ( #156, #554 ) ) ;
#564 = ADVANCED_FACE ( 'NONE', ( #633, #343 ), #240, .F. ) ;
#565 = LINE ( 'NONE', #15, #333 ) ;
#566 = VERTEX_POINT ( 'NONE', #511 ) ;
#567 = CARTESIAN_POINT ( 'NONE',  ( 0.000000000000000000, 0.000000000000000000, -0.001000000000000132727 ) ) ;
#568 = CARTESIAN_POINT ( 'NONE',  ( -3.877454756943544467, -14.49018097222584167, 17.99999999999999645 ) ) ;
#569 = AXIS2_PLACEMENT_3D ( 'NONE', #68, #450, #679 ) ;
#570 = AXIS2_PLACEMENT_3D ( 'NONE', #14, #339, #189 ) ;
#571 = DIRECTION ( 'NONE',  ( 1.000000000000000000, 0.000000000000000000, 0.000000000000000000 ) ) ;
#572 = LINE ( 'NONE', #577, #278 ) ;
#573 = EDGE_CURVE ( 'NONE', #33, #711, #144, .T. ) ;
#574 = SURFACE_SIDE_STYLE ('',( #139 ) ) ;
#575 = ORIENTED_EDGE ( 'NONE', *, *, #66, .T. ) ;
#576 = FACE_OUTER_BOUND ( 'NONE', #218, .T. ) ;
#577 = CARTESIAN_POINT ( 'NONE',  ( -4.500000000000000000, -5.510910596163088569E-16, 27.00099999999999767 ) ) ;
#578 = CARTESIAN_POINT ( 'NONE',  ( -3.877454756943532921, 14.49018097222584522, 9.000000000000000000 ) ) ;
#579 = CIRCLE ( 'NONE', #136, 5.031250000000000888 ) ;
#580 = DIRECTION ( 'NONE',  ( 1.591720611573579547E-16, -1.000000000000000000, 0.000000000000000000 ) ) ;
#581 = AXIS2_PLACEMENT_3D ( 'NONE', #322, #547, #56 ) ;
#582 = ORIENTED_EDGE ( 'NONE', *, *, #281, .F. ) ;
#583 = DIRECTION ( 'NONE',  ( 0.9660120648150561928, -0.2584969837962363126, 0.000000000000000000 ) ) ;
#584 = EDGE_LOOP ( 'NONE', ( #147, #358, #456, #527 ) ) ;
#585 = ORIENTED_EDGE ( 'NONE', *, *, #502, .F. ) ;
#586 = EDGE_CURVE ( 'NONE', #362, #529, #565, .T. ) ;
#587 = DIRECTION ( 'NONE',  ( -0.000000000000000000, 0.000000000000000000, 1.000000000000000000 ) ) ;
#588 = DIRECTION ( 'NONE',  ( -0.000000000000000000, -0.000000000000000000, -1.000000000000000000 ) ) ;
#589 = VERTEX_POINT ( 'NONE', #72 ) ;
#590 = AXIS2_PLACEMENT_3D ( 'NONE', #693, #704, #39 ) ;
#591 = CARTESIAN_POINT ( 'NONE',  ( 0.000000000000000000, 0.000000000000000000, 17.99999999999999645 ) ) ;
#592 = VECTOR ( 'NONE', #165, 1000.000000000000000 ) ;
#593 = STYLED_ITEM ( 'NONE', ( #296 ), #228 ) ;
#594 = CIRCLE ( 'NONE', #557, 4.500000000000000000 ) ;
#595 = ORIENTED_EDGE ( 'NONE', *, *, #48, .F. ) ;
#596 = CARTESIAN_POINT ( 'NONE',  ( -3.877454756943544467, -14.49018097222584167, 26.99999999999999645 ) ) ;
#597 = CARTESIAN_POINT ( 'NONE',  ( -3.877454756943534253, 14.49018097222584522, 26.99999999999999645 ) ) ;
#598 = ORIENTED_EDGE ( 'NONE', *, *, #32, .T. ) ;
#599 = APPLICATION_PROTOCOL_DEFINITION ( 'draft international standard', 'automotive_design', 1998, #31 ) ;
#600 = PLANE ( 'NONE',  #221 ) ;
#601 = EDGE_CURVE ( 'NONE', #389, #499, #87, .T. ) ;
#602 = VERTEX_POINT ( 'NONE', #465 ) ;
#603 = PLANE ( 'NONE',  #439 ) ;
#604 = ORIENTED_EDGE ( 'NONE', *, *, #32, .F. ) ;
#605 = DIRECTION ( 'NONE',  ( -1.000000000000000000, 0.000000000000000000, 0.000000000000000000 ) ) ;
#606 = VERTEX_POINT ( 'NONE', #451 ) ;
#607 = EDGE_CURVE ( 'NONE', #94, #389, #52, .T. ) ;
#608 = DIRECTION ( 'NONE',  ( 1.000000000000000000, 0.000000000000000000, 0.000000000000000000 ) ) ;
#609 = EDGE_LOOP ( 'NONE', ( #604, #435, #494, #13 ) ) ;
#610 = DIRECTION ( 'NONE',  ( -0.000000000000000000, -0.000000000000000000, 1.000000000000000000 ) ) ;
#611 = CIRCLE ( 'NONE', #429, 11.00000000000000000 ) ;
#612 = AXIS2_PLACEMENT_3D ( 'NONE', #398, #619, #680 ) ;
#613 = ORIENTED_EDGE ( 'NONE', *, *, #607, .T. ) ;
#614 = CARTESIAN_POINT ( 'NONE',  ( 0.000000000000000000, 0.000000000000000000, 17.99999999999999645 ) ) ;
#615 = FACE_OUTER_BOUND ( 'NONE', #609, .T. ) ;
#616 = DIRECTION ( 'NONE',  ( -0.000000000000000000, 0.000000000000000000, -1.000000000000000000 ) ) ;
#617 = ADVANCED_FACE ( 'NONE', ( #411 ), #400, .F. ) ;
#618 = FACE_OUTER_BOUND ( 'NONE', #441, .T. ) ;
#619 = DIRECTION ( 'NONE',  ( 0.000000000000000000, 0.000000000000000000, -1.000000000000000000 ) ) ;
#620 =( NAMED_UNIT ( * ) SI_UNIT ( $, .STERADIAN. ) SOLID_ANGLE_UNIT ( ) );
#621 = AXIS2_PLACEMENT_3D ( 'NONE', #104, #483, #700 ) ;
#622 = DIRECTION ( 'NONE',  ( 0.000000000000000000, 0.000000000000000000, -1.000000000000000000 ) ) ;
#623 = ADVANCED_FACE ( 'NONE', ( #183 ), #232, .F. ) ;
#624 = DIRECTION ( 'NONE',  ( 1.000000000000000000, 0.000000000000000000, 0.000000000000000000 ) ) ;
#625 = DIRECTION ( 'NONE',  ( -0.9660120648150564149, -0.2584969837962355355, 0.000000000000000000 ) ) ;
#626 = VECTOR ( 'NONE', #632, 1000.000000000000000 ) ;
#627 = AXIS2_PLACEMENT_3D ( 'NONE', #614, #219, #126 ) ;
#628 = ORIENTED_EDGE ( 'NONE', *, *, #168, .F. ) ;
#629 = CYLINDRICAL_SURFACE ( 'NONE', #405, 4.500000000000000000 ) ;
#630 = DIRECTION ( 'NONE',  ( 0.9660120648150564149, 0.2584969837962355355, 0.000000000000000000 ) ) ;
#631 = EDGE_CURVE ( 'NONE', #711, #94, #133, .T. ) ;
#632 = DIRECTION ( 'NONE',  ( -0.000000000000000000, -0.000000000000000000, -1.000000000000000000 ) ) ;
#633 = FACE_BOUND ( 'NONE', #438, .T. ) ;
#634 = DIRECTION ( 'NONE',  ( 0.000000000000000000, 0.000000000000000000, -1.000000000000000000 ) ) ;
#635 = DIRECTION ( 'NONE',  ( -1.000000000000000000, 0.000000000000000000, 0.000000000000000000 ) ) ;
#636 = EDGE_CURVE ( 'NONE', #312, #329, #498, .T. ) ;
#637 = ORIENTED_EDGE ( 'NONE', *, *, #8, .F. ) ;
#638 = FACE_OUTER_BOUND ( 'NONE', #640, .T. ) ;
#639 = EDGE_LOOP ( 'NONE', ( #9, #533, #179, #80 ) ) ;
#640 = EDGE_LOOP ( 'NONE', ( #538, #468, #234, #314 ) ) ;
#641 = DIRECTION ( 'NONE',  ( 1.000000000000000000, 0.000000000000000000, 0.000000000000000000 ) ) ;
#642 = CARTESIAN_POINT ( 'NONE',  ( 0.000000000000000000, 0.000000000000000000, 24.99999999999999289 ) ) ;
#643 = CARTESIAN_POINT ( 'NONE',  ( 0.000000000000000000, 0.000000000000000000, 17.99999999999999645 ) ) ;
#644 = CIRCLE ( 'NONE', #621, 5.031250000000000888 ) ;
#645 = CARTESIAN_POINT ( 'NONE',  ( 0.000000000000000000, 0.000000000000000000, 9.000000000000000000 ) ) ;
#646 = VECTOR ( 'NONE', #235, 1000.000000000000000 ) ;
#647 = VECTOR ( 'NONE', #445, 1000.000000000000000 ) ;
#648 = CARTESIAN_POINT ( 'NONE',  ( -30.00000000000000000, -3.469446951953614189E-15, 13.49999999999999822 ) ) ;
#649 = CARTESIAN_POINT ( 'NONE',  ( 0.000000000000000000, 0.000000000000000000, 0.000000000000000000 ) ) ;
#650 = EDGE_CURVE ( 'NONE', #33, #481, #408, .T. ) ;
#651 = ORIENTED_EDGE ( 'NONE', *, *, #48, .T. ) ;
#652 = DIRECTION ( 'NONE',  ( 1.000000000000000000, 0.000000000000000000, 0.000000000000000000 ) ) ;
#653 = ORIENTED_EDGE ( 'NONE', *, *, #348, .F. ) ;
#654 = DIRECTION ( 'NONE',  ( 1.000000000000000000, 0.000000000000000000, 0.000000000000000000 ) ) ;
#655 = AXIS2_PLACEMENT_3D ( 'NONE', #23, #409, #187 ) ;
#656 = EDGE_CURVE ( 'NONE', #362, #94, #423, .T. ) ;
#657 = CIRCLE ( 'NONE', #191, 11.00000000000000000 ) ;
#658 = ORIENTED_EDGE ( 'NONE', *, *, #223, .F. ) ;
#659 = CARTESIAN_POINT ( 'NONE',  ( 0.000000000000000000, 0.000000000000000000, 26.99999999999999645 ) ) ;
#660 = ORIENTED_EDGE ( 'NONE', *, *, #356, .F. ) ;
#661 = FACE_BOUND ( 'NONE', #471, .T. ) ;
#662 = EDGE_LOOP ( 'NONE', ( #220, #64 ) ) ;
#663 = EDGE_CURVE ( 'NONE', #377, #481, #92, .T. ) ;
#664 = PLANE ( 'NONE',  #161 ) ;
#665 = DIRECTION ( 'NONE',  ( 0.000000000000000000, -0.000000000000000000, -1.000000000000000000 ) ) ;
#666 = EDGE_CURVE ( 'NONE', #530, #602, #233, .T. ) ;
#667 = CARTESIAN_POINT ( 'NONE',  ( 0.000000000000000000, 0.000000000000000000, 9.000000000000000000 ) ) ;
#668 = DIRECTION ( 'NONE',  ( 1.000000000000000000, 0.000000000000000000, -0.000000000000000000 ) ) ;
#669 = EDGE_CURVE ( 'NONE', #589, #552, #678, .T. ) ;
#670 = VERTEX_POINT ( 'NONE', #699 ) ;
#671 = DIRECTION ( 'NONE',  ( -0.000000000000000000, -0.000000000000000000, 1.000000000000000000 ) ) ;
#672 = SURFACE_STYLE_USAGE ( .BOTH. , #574 ) ;
#673 = LINE ( 'NONE', #463, #335 ) ;
#674 = DIRECTION ( 'NONE',  ( 0.000000000000000000, 0.000000000000000000, -1.000000000000000000 ) ) ;
#675 = AXIS2_PLACEMENT_3D ( 'NONE', #591, #379, #205 ) ;
#676 = DIRECTION ( 'NONE',  ( -0.000000000000000000, -0.000000000000000000, -1.000000000000000000 ) ) ;
#677 = EDGE_CURVE ( 'NONE', #402, #670, #447, .T. ) ;
#678 = CIRCLE ( 'NONE', #62, 15.00000000000000000 ) ;
#679 = DIRECTION ( 'NONE',  ( 1.000000000000000000, 0.000000000000000000, 0.000000000000000000 ) ) ;
#680 = DIRECTION ( 'NONE',  ( 1.000000000000000000, 0.000000000000000000, 0.000000000000000000 ) ) ;
#681 = AXIS2_PLACEMENT_3D ( 'NONE', #186, #517, #27 ) ;
#682 = ORIENTED_EDGE ( 'NONE', *, *, #316, .F. ) ;
#683 = CARTESIAN_POINT ( 'NONE',  ( -18.57000000000000028, -3.469446951953614189E-15, 13.49999999999999822 ) ) ;
#684 = CARTESIAN_POINT ( 'NONE',  ( 11.00000000000000000, 0.000000000000000000, 17.99999999999999645 ) ) ;
#685 = DIRECTION ( 'NONE',  ( -0.000000000000000000, -0.000000000000000000, 1.000000000000000000 ) ) ;
#686 = ORIENTED_EDGE ( 'NONE', *, *, #656, .F. ) ;
#687 = ADVANCED_FACE ( 'NONE', ( #310, #695 ), #531, .T. ) ;
#688 = CARTESIAN_POINT ( 'NONE',  ( 0.000000000000000000, 0.000000000000000000, 9.000000000000000000 ) ) ;
#689 = EDGE_CURVE ( 'NONE', #449, #242, #426, .T. ) ;
#690 = ORIENTED_EDGE ( 'NONE', *, *, #414, .F. ) ;
#691 = ORIENTED_EDGE ( 'NONE', *, *, #414, .T. ) ;
#692 = SHAPE_DEFINITION_REPRESENTATION ( #83, #79 ) ;
#693 = CARTESIAN_POINT ( 'NONE',  ( 0.000000000000000000, 0.000000000000000000, 2.000000000000001776 ) ) ;
#694 = ORIENTED_EDGE ( 'NONE', *, *, #348, .T. ) ;
#695 = FACE_OUTER_BOUND ( 'NONE', #662, .T. ) ;
#696 = CARTESIAN_POINT ( 'NONE',  ( -11.00000000000000000, 1.347111479062088207E-15, 9.000000000000000000 ) ) ;
#697 = EDGE_CURVE ( 'NONE', #97, #530, #261, .T. ) ;
#698 = VERTEX_POINT ( 'NONE', #34 ) ;
#699 = CARTESIAN_POINT ( 'NONE',  ( -3.877454756943534253, 14.49018097222584522, 9.000000000000000000 ) ) ;
#700 = DIRECTION ( 'NONE',  ( 0.000000000000000000, 0.000000000000000000, 1.000000000000000000 ) ) ;
#701 = EDGE_CURVE ( 'NONE', #106, #449, #249, .T. ) ;
#702 = CARTESIAN_POINT ( 'NONE',  ( 0.000000000000000000, 0.000000000000000000, 9.000000000000000000 ) ) ;
#703 = AXIS2_PLACEMENT_3D ( 'NONE', #553, #390, #222 ) ;
#704 = DIRECTION ( 'NONE',  ( 0.000000000000000000, -0.000000000000000000, -1.000000000000000000 ) ) ;
#705 = VECTOR ( 'NONE', #378, 1000.000000000000000 ) ;
#706 = AXIS2_PLACEMENT_3D ( 'NONE', #141, #231, #624 ) ;
#707 = ORIENTED_EDGE ( 'NONE', *, *, #493, .T. ) ;
#708 = DIRECTION ( 'NONE',  ( 1.000000000000000000, 0.000000000000000000, 0.000000000000000000 ) ) ;
#709 = ORIENTED_EDGE ( 'NONE', *, *, #601, .T. ) ;
#710 = DIRECTION ( 'NONE',  ( 1.000000000000000000, 0.000000000000000000, 0.000000000000000000 ) ) ;
#711 = VERTEX_POINT ( 'NONE', #540 ) ;
ENDSEC;
END-ISO-10303-21;
