ISO-10303-21;
HEADER;
FILE_DESCRIPTION (( 'STEP AP214' ),
    '1' );
FILE_NAME ('PinPinPinPin.STEP',
    '2025-08-10T21:50:49',
    ( '' ),
    ( '' ),
    'SwSTEP 2.0',
    'SolidWorks 2024',
    '' );
FILE_SCHEMA (( 'AUTOMOTIVE_DESIGN' ));
ENDSEC;

DATA;
#1 =( NAMED_UNIT ( * ) SI_UNIT ( $, .STERADIAN. ) SOLID_ANGLE_UNIT ( ) );
#2 = SURFACE_SIDE_STYLE ('',( #68 ) ) ;
#3 = AXIS2_PLACEMENT_3D ( 'NONE', #111, #60, #35 ) ;
#4 = DIRECTION ( 'NONE',  ( 0.000000000000000000, 1.000000000000000000, 0.000000000000000000 ) ) ;
#5 = DIRECTION ( 'NONE',  ( 1.000000000000000000, 0.000000000000000000, 0.000000000000000000 ) ) ;
#6 = ORIENTED_EDGE ( 'NONE', *, *, #58, .T. ) ;
#7 = SHAPE_DEFINITION_REPRESENTATION ( #11, #85 ) ;
#8 = CARTESIAN_POINT ( 'NONE',  ( 0.000000000000000000, 27.00000000000000000, 0.000000000000000000 ) ) ;
#9 =( NAMED_UNIT ( * ) SI_UNIT ( $, .STERADIAN. ) SOLID_ANGLE_UNIT ( ) );
#10 = DIRECTION ( 'NONE',  ( 0.000000000000000000, 0.000000000000000000, 1.000000000000000000 ) ) ;
#11 = PRODUCT_DEFINITION_SHAPE ( 'NONE', 'NONE',  #65 ) ;
#12 = CARTESIAN_POINT ( 'NONE',  ( 0.000000000000000000, 27.00000000000000000, 0.000000000000000000 ) ) ;
#13 = ORIENTED_EDGE ( 'NONE', *, *, #91, .F. ) ;
#14 = PRODUCT_CONTEXT ( 'NONE', #87, 'mechanical' ) ;
#15 = AXIS2_PLACEMENT_3D ( 'NONE', #50, #16, #24 ) ;
#16 = DIRECTION ( 'NONE',  ( -0.000000000000000000, -1.000000000000000000, -0.000000000000000000 ) ) ;
#17 = PRODUCT_RELATED_PRODUCT_CATEGORY ( 'part', '', ( #117 ) ) ;
#18 = FACE_OUTER_BOUND ( 'NONE', #23, .T. ) ;
#19 = DIRECTION ( 'NONE',  ( -0.000000000000000000, -1.000000000000000000, -0.000000000000000000 ) ) ;
#20 = AXIS2_PLACEMENT_3D ( 'NONE', #104, #43, #5 ) ;
#21 = ORIENTED_EDGE ( 'NONE', *, *, #122, .T. ) ;
#22 = SURFACE_STYLE_USAGE ( .BOTH. , #2 ) ;
#23 = EDGE_LOOP ( 'NONE', ( #92, #110, #21, #124 ) ) ;
#24 = DIRECTION ( 'NONE',  ( 0.000000000000000000, 0.000000000000000000, -1.000000000000000000 ) ) ;
#25 =( GEOMETRIC_REPRESENTATION_CONTEXT ( 3 ) GLOBAL_UNCERTAINTY_ASSIGNED_CONTEXT ( ( #97 ) ) GLOBAL_UNIT_ASSIGNED_CONTEXT ( ( #113, #73, #9 ) ) REPRESENTATION_CONTEXT ( 'NONE', 'WORKASPACE' ) );
#26 = ADVANCED_FACE ( 'NONE', ( #105 ), #55, .T. ) ;
#27 = CIRCLE ( 'NONE', #80, 4.025000000000000355 ) ;
#28 = VERTEX_POINT ( 'NONE', #75 ) ;
#29 = EDGE_LOOP ( 'NONE', ( #103, #6 ) ) ;
#30 = FACE_OUTER_BOUND ( 'NONE', #88, .T. ) ;
#31 = DIRECTION ( 'NONE',  ( 0.000000000000000000, 0.000000000000000000, 1.000000000000000000 ) ) ;
#32 = ORIENTED_EDGE ( 'NONE', *, *, #51, .F. ) ;
#33 = DIRECTION ( 'NONE',  ( 0.000000000000000000, -0.000000000000000000, 1.000000000000000000 ) ) ;
#34 = CLOSED_SHELL ( 'NONE', ( #99, #102, #26, #86 ) ) ;
#35 = DIRECTION ( 'NONE',  ( 0.000000000000000000, 0.000000000000000000, 1.000000000000000000 ) ) ;
#36 = CARTESIAN_POINT ( 'NONE',  ( 0.000000000000000000, 27.00000000000000000, -4.025000000000000355 ) ) ;
#37 = AXIS2_PLACEMENT_3D ( 'NONE', #61, #115, #106 ) ;
#38 = PRODUCT_DEFINITION_CONTEXT ( 'detailed design', #45, 'design' ) ;
#39 = DIRECTION ( 'NONE',  ( -0.000000000000000000, -1.000000000000000000, -0.000000000000000000 ) ) ;
#40 = AXIS2_PLACEMENT_3D ( 'NONE', #8, #19, #47 ) ;
#41 = MANIFOLD_SOLID_BREP ( 'Boss-Extrude1', #34 ) ;
#42 = CIRCLE ( 'NONE', #37, 4.025000000000000355 ) ;
#43 = DIRECTION ( 'NONE',  ( 0.000000000000000000, 0.000000000000000000, 1.000000000000000000 ) ) ;
#44 = FILL_AREA_STYLE_COLOUR ( '', #52 ) ;
#45 = APPLICATION_CONTEXT ( 'automotive_design' ) ;
#46 = FACE_OUTER_BOUND ( 'NONE', #66, .T. ) ;
#47 = DIRECTION ( 'NONE',  ( 0.000000000000000000, 0.000000000000000000, -1.000000000000000000 ) ) ;
#48 = CARTESIAN_POINT ( 'NONE',  ( 0.000000000000000000, 0.000000000000000000, -4.025000000000000355 ) ) ;
#49 = CARTESIAN_POINT ( 'NONE',  ( 4.929203366568097207E-16, 0.000000000000000000, 4.025000000000000355 ) ) ;
#50 = CARTESIAN_POINT ( 'NONE',  ( 0.000000000000000000, 27.00000000000000000, 0.000000000000000000 ) ) ;
#51 = EDGE_CURVE ( 'NONE', #112, #54, #84, .T. ) ;
#52 = COLOUR_RGB ( '',0.7921568627450980005, 0.8196078431372548767, 0.9333333333333333481 ) ;
#53 = UNCERTAINTY_MEASURE_WITH_UNIT (LENGTH_MEASURE( 1.000000000000000082E-05 ), #98, 'distance_accuracy_value', 'NONE');
#54 = VERTEX_POINT ( 'NONE', #49 ) ;
#55 = PLANE ( 'NONE',  #57 ) ;
#56 = ORIENTED_EDGE ( 'NONE', *, *, #107, .T. ) ;
#57 = AXIS2_PLACEMENT_3D ( 'NONE', #12, #4, #33 ) ;
#58 = EDGE_CURVE ( 'NONE', #28, #67, #109, .T. ) ;
#59 = DIRECTION ( 'NONE',  ( 0.000000000000000000, 1.000000000000000000, 0.000000000000000000 ) ) ;
#60 = DIRECTION ( 'NONE',  ( 0.000000000000000000, 1.000000000000000000, 0.000000000000000000 ) ) ;
#61 = CARTESIAN_POINT ( 'NONE',  ( 0.000000000000000000, 0.000000000000000000, 0.000000000000000000 ) ) ;
#62 = CARTESIAN_POINT ( 'NONE',  ( 0.000000000000000000, 0.000000000000000000, 0.000000000000000000 ) ) ;
#63 = MECHANICAL_DESIGN_GEOMETRIC_PRESENTATION_REPRESENTATION (  '', ( #74 ), #25 ) ;
#64 = AXIS2_PLACEMENT_3D ( 'NONE', #62, #119, #120 ) ;
#65 = PRODUCT_DEFINITION ( 'UNKNOWN', '', #89, #38 ) ;
#66 = EDGE_LOOP ( 'NONE', ( #90, #13, #56, #78 ) ) ;
#67 = VERTEX_POINT ( 'NONE', #83 ) ;
#68 = SURFACE_STYLE_FILL_AREA ( #76 ) ;
#69 =( GEOMETRIC_REPRESENTATION_CONTEXT ( 3 ) GLOBAL_UNCERTAINTY_ASSIGNED_CONTEXT ( ( #53 ) ) GLOBAL_UNIT_ASSIGNED_CONTEXT ( ( #98, #72, #1 ) ) REPRESENTATION_CONTEXT ( 'NONE', 'WORKASPACE' ) );
#70 = LINE ( 'NONE', #36, #121 ) ;
#71 = CARTESIAN_POINT ( 'NONE',  ( 4.929203366568097207E-16, 27.00000000000000000, 4.025000000000000355 ) ) ;
#72 =( NAMED_UNIT ( * ) PLANE_ANGLE_UNIT ( ) SI_UNIT ( $, .RADIAN. ) );
#73 =( NAMED_UNIT ( * ) PLANE_ANGLE_UNIT ( ) SI_UNIT ( $, .RADIAN. ) );
#74 = STYLED_ITEM ( 'NONE', ( #114 ), #41 ) ;
#75 = CARTESIAN_POINT ( 'NONE',  ( 4.929203366568097207E-16, 27.00000000000000000, 4.025000000000000355 ) ) ;
#76 = FILL_AREA_STYLE ('',( #44 ) ) ;
#77 = APPLICATION_PROTOCOL_DEFINITION ( 'draft international standard', 'automotive_design', 1998, #87 ) ;
#78 = ORIENTED_EDGE ( 'NONE', *, *, #51, .T. ) ;
#79 = CARTESIAN_POINT ( 'NONE',  ( 0.000000000000000000, 27.00000000000000000, 0.000000000000000000 ) ) ;
#80 = AXIS2_PLACEMENT_3D ( 'NONE', #82, #59, #31 ) ;
#81 = LINE ( 'NONE', #71, #94 ) ;
#82 = CARTESIAN_POINT ( 'NONE',  ( 0.000000000000000000, 27.00000000000000000, 0.000000000000000000 ) ) ;
#83 = CARTESIAN_POINT ( 'NONE',  ( 0.000000000000000000, 27.00000000000000000, -4.025000000000000355 ) ) ;
#84 = CIRCLE ( 'NONE', #3, 4.025000000000000355 ) ;
#85 = ADVANCED_BREP_SHAPE_REPRESENTATION ( 'PinPinPinPin', ( #41, #20 ), #69 ) ;
#86 = ADVANCED_FACE ( 'NONE', ( #30 ), #116, .F. ) ;
#87 = APPLICATION_CONTEXT ( 'automotive_design' ) ;
#88 = EDGE_LOOP ( 'NONE', ( #32, #93 ) ) ;
#89 = PRODUCT_DEFINITION_FORMATION_WITH_SPECIFIED_SOURCE ( 'ANY', '', #117, .NOT_KNOWN. ) ;
#90 = ORIENTED_EDGE ( 'NONE', *, *, #118, .F. ) ;
#91 = EDGE_CURVE ( 'NONE', #67, #28, #27, .T. ) ;
#92 = ORIENTED_EDGE ( 'NONE', *, *, #58, .F. ) ;
#93 = ORIENTED_EDGE ( 'NONE', *, *, #122, .F. ) ;
#94 = VECTOR ( 'NONE', #39, 1000.000000000000000 ) ;
#95 = APPLICATION_PROTOCOL_DEFINITION ( 'draft international standard', 'automotive_design', 1998, #45 ) ;
#96 = DIRECTION ( 'NONE',  ( -0.000000000000000000, -1.000000000000000000, -0.000000000000000000 ) ) ;
#97 = UNCERTAINTY_MEASURE_WITH_UNIT (LENGTH_MEASURE( 1.000000000000000082E-05 ), #113, 'distance_accuracy_value', 'NONE');
#98 =( LENGTH_UNIT ( ) NAMED_UNIT ( * ) SI_UNIT ( .MILLI., .METRE. ) );
#99 = ADVANCED_FACE ( 'NONE', ( #18 ), #125, .T. ) ;
#100 = DIRECTION ( 'NONE',  ( 0.000000000000000000, 1.000000000000000000, 0.000000000000000000 ) ) ;
#101 = CYLINDRICAL_SURFACE ( 'NONE', #40, 4.025000000000000355 ) ;
#102 = ADVANCED_FACE ( 'NONE', ( #46 ), #101, .T. ) ;
#103 = ORIENTED_EDGE ( 'NONE', *, *, #91, .T. ) ;
#104 = CARTESIAN_POINT ( 'NONE',  ( 0.000000000000000000, 0.000000000000000000, 0.000000000000000000 ) ) ;
#105 = FACE_OUTER_BOUND ( 'NONE', #29, .T. ) ;
#106 = DIRECTION ( 'NONE',  ( 0.000000000000000000, 0.000000000000000000, 1.000000000000000000 ) ) ;
#107 = EDGE_CURVE ( 'NONE', #67, #112, #70, .T. ) ;
#108 = PRESENTATION_LAYER_ASSIGNMENT (  '', '', ( #74 ) ) ;
#109 = CIRCLE ( 'NONE', #123, 4.025000000000000355 ) ;
#110 = ORIENTED_EDGE ( 'NONE', *, *, #118, .T. ) ;
#111 = CARTESIAN_POINT ( 'NONE',  ( 0.000000000000000000, 0.000000000000000000, 0.000000000000000000 ) ) ;
#112 = VERTEX_POINT ( 'NONE', #48 ) ;
#113 =( LENGTH_UNIT ( ) NAMED_UNIT ( * ) SI_UNIT ( .MILLI., .METRE. ) );
#114 = PRESENTATION_STYLE_ASSIGNMENT (( #22 ) ) ;
#115 = DIRECTION ( 'NONE',  ( 0.000000000000000000, 1.000000000000000000, 0.000000000000000000 ) ) ;
#116 = PLANE ( 'NONE',  #64 ) ;
#117 = PRODUCT ( 'PinPinPinPin', 'PinPinPinPin', '', ( #14 ) ) ;
#118 = EDGE_CURVE ( 'NONE', #28, #54, #81, .T. ) ;
#119 = DIRECTION ( 'NONE',  ( 0.000000000000000000, 1.000000000000000000, 0.000000000000000000 ) ) ;
#120 = DIRECTION ( 'NONE',  ( 0.000000000000000000, -0.000000000000000000, 1.000000000000000000 ) ) ;
#121 = VECTOR ( 'NONE', #96, 1000.000000000000000 ) ;
#122 = EDGE_CURVE ( 'NONE', #54, #112, #42, .T. ) ;
#123 = AXIS2_PLACEMENT_3D ( 'NONE', #79, #100, #10 ) ;
#124 = ORIENTED_EDGE ( 'NONE', *, *, #107, .F. ) ;
#125 = CYLINDRICAL_SURFACE ( 'NONE', #15, 4.025000000000000355 ) ;
ENDSEC;
END-ISO-10303-21;
