ISO-10303-21;
HEADER;
FILE_DESCRIPTION (( 'STEP AP214' ),
    '1' );
FILE_NAME ('Spoon Joint.STEP',
    '2025-08-10T23:09:52',
    ( '' ),
    ( '' ),
    'SwSTEP 2.0',
    'SolidWorks 2024',
    '' );
FILE_SCHEMA (( 'AUTOMOTIVE_DESIGN' ));
ENDSEC;

DATA;
#1 = CARTESIAN_POINT ( 'NONE',  ( 46.24923855164035302, -5.943713055717101845, -7.206697430525351500 ) ) ;
#2 = ORIENTED_EDGE ( 'NONE', *, *, #979, .T. ) ;
#3 = DIRECTION ( 'NONE',  ( -0.000000000000000000, -1.000000000000000000, 0.000000000000000000 ) ) ;
#4 = EDGE_LOOP ( 'NONE', ( #929, #147, #797, #1025 ) ) ;
#5 = EDGE_CURVE ( 'NONE', #928, #1072, #837, .T. ) ;
#6 = EDGE_CURVE ( 'NONE', #129, #472, #660, .T. ) ;
#7 = ORIENTED_EDGE ( 'NONE', *, *, #559, .F. ) ;
#8 = CARTESIAN_POINT ( 'NONE',  ( 40.15085337780993768, 4.000000000000000000, 96.75568918539943297 ) ) ;
#9 = AXIS2_PLACEMENT_3D ( 'NONE', #202, #26, #30 ) ;
#10 = DIRECTION ( 'NONE',  ( 0.000000000000000000, 1.000000000000000000, -0.000000000000000000 ) ) ;
#11 = CARTESIAN_POINT ( 'NONE',  ( 40.15085337780993768, 4.000000000000000000, 96.75568918539943297 ) ) ;
#12 = ORIENTED_EDGE ( 'NONE', *, *, #517, .T. ) ;
#13 = AXIS2_PLACEMENT_3D ( 'NONE', #293, #1067, #379 ) ;
#14 = ORIENTED_EDGE ( 'NONE', *, *, #514, .F. ) ;
#15 = DIRECTION ( 'NONE',  ( 0.000000000000000000, 1.000000000000000000, -0.000000000000000000 ) ) ;
#16 = CARTESIAN_POINT ( 'NONE',  ( 48.44326216139354102, 6.902930426863593816, -7.383663858731257967 ) ) ;
#17 = CARTESIAN_POINT ( 'NONE',  ( 56.95970545353752357, 7.000000000000000000, -0.7499999999999996669 ) ) ;
#18 = DIRECTION ( 'NONE',  ( 0.000000000000000000, 0.000000000000000000, 1.000000000000000000 ) ) ;
#19 = LINE ( 'NONE', #884, #314 ) ;
#20 = EDGE_CURVE ( 'NONE', #439, #620, #207, .T. ) ;
#21 = CARTESIAN_POINT ( 'NONE',  ( 50.00000000000000000, -6.999999999999999112, -7.500000000000000000 ) ) ;
#22 = DIRECTION ( 'NONE',  ( 0.000000000000000000, 0.000000000000000000, 1.000000000000000000 ) ) ;
#23 = ORIENTED_EDGE ( 'NONE', *, *, #723, .T. ) ;
#24 = ADVANCED_BREP_SHAPE_REPRESENTATION ( 'Spoon Joint', ( #1027, #153 ), #210 ) ;
#25 = ORIENTED_EDGE ( 'NONE', *, *, #959, .T. ) ;
#26 = DIRECTION ( 'NONE',  ( -0.000000000000000000, -1.000000000000000000, 0.000000000000000000 ) ) ;
#27 = CARTESIAN_POINT ( 'NONE',  ( 50.00000000000000000, 7.000000000000000000, -4.000000000000003553 ) ) ;
#28 = CARTESIAN_POINT ( 'NONE',  ( 56.95970545353752357, -7.000000000000000000, -0.2499999999999996669 ) ) ;
#29 = VECTOR ( 'NONE', #966, 1000.000000000000000 ) ;
#30 = DIRECTION ( 'NONE',  ( -1.734723475976805517E-15, 0.000000000000000000, 1.000000000000000000 ) ) ;
#31 = CARTESIAN_POINT ( 'NONE',  ( 5.749213291902921519, 4.000000000000000000, -13.85447749011875196 ) ) ;
#32 = DIRECTION ( 'NONE',  ( -1.734723475976805517E-15, 0.000000000000000000, 1.000000000000000000 ) ) ;
#33 = EDGE_CURVE ( 'NONE', #548, #251, #170, .T. ) ;
#34 = EDGE_LOOP ( 'NONE', ( #972, #856, #1066, #73 ) ) ;
#35 = EDGE_CURVE ( 'NONE', #984, #715, #796, .T. ) ;
#36 = DIRECTION ( 'NONE',  ( -0.000000000000000000, 0.000000000000000000, 1.000000000000000000 ) ) ;
#37 = DIRECTION ( 'NONE',  ( 0.000000000000000000, 0.000000000000000000, 1.000000000000000000 ) ) ;
#38 = DIRECTION ( 'NONE',  ( 0.000000000000000000, 0.000000000000000000, 1.000000000000000000 ) ) ;
#39 = ORIENTED_EDGE ( 'NONE', *, *, #514, .T. ) ;
#40 = LINE ( 'NONE', #990, #631 ) ;
#41 = DIRECTION ( 'NONE',  ( 3.556199305878151094E-15, 0.000000000000000000, 1.000000000000000000 ) ) ;
#42 = ORIENTED_EDGE ( 'NONE', *, *, #405, .F. ) ;
#43 = VECTOR ( 'NONE', #734, 1000.000000000000000 ) ;
#44 = EDGE_LOOP ( 'NONE', ( #512, #855, #412, #721, #373, #42, #103 ) ) ;
#45 = VECTOR ( 'NONE', #704, 1000.000000000000000 ) ;
#46 = CARTESIAN_POINT ( 'NONE',  ( 47.67475864657223639, -6.650691314249094432, 7.315085038703852405 ) ) ;
#47 = ADVANCED_FACE ( 'NONE', ( #243 ), #658, .T. ) ;
#48 = DIRECTION ( 'NONE',  ( -0.000000000000000000, -1.000000000000000000, -0.000000000000000000 ) ) ;
#49 = PRODUCT_DEFINITION ( 'UNKNOWN', '', #473, #411 ) ;
#50 = ORIENTED_EDGE ( 'NONE', *, *, #979, .F. ) ;
#51 = CARTESIAN_POINT ( 'NONE',  ( 49.03734849355885217, -6.999999999998090416, 7.440765283351653991 ) ) ;
#52 = EDGE_CURVE ( 'NONE', #431, #502, #255, .T. ) ;
#53 = CARTESIAN_POINT ( 'NONE',  ( 0.000000000000000000, 4.000000000000000000, 0.000000000000000000 ) ) ;
#54 = DIRECTION ( 'NONE',  ( 0.000000000000000000, 0.000000000000000000, -1.000000000000000000 ) ) ;
#55 = ADVANCED_FACE ( 'NONE', ( #579, #932 ), #755, .T. ) ;
#56 = B_SPLINE_CURVE_WITH_KNOTS ( 'NONE', 3,
 ( #300, #115, #451, #792, #446, #374, #713, #275, #637, #964, #879, #292, #798, #460, #616, #974 ),
 .UNSPECIFIED., .F., .F.,
 ( 4, 2, 2, 2, 2, 2, 2, 4 ),
 ( 0.000000000000000000, 0.001193210829820473291, 0.002386421659640946581, 0.003579632489461419438, 0.004772843319281893162, 0.007159264978922839744, 0.008352475808743315203, 0.009545686638563788060 ),
 .UNSPECIFIED. ) ;
#57 = ORIENTED_EDGE ( 'NONE', *, *, #203, .T. ) ;
#58 =( LENGTH_UNIT ( ) NAMED_UNIT ( * ) SI_UNIT ( .MILLI., .METRE. ) );
#59 = DIRECTION ( 'NONE',  ( 0.000000000000000000, 0.000000000000000000, -1.000000000000000000 ) ) ;
#60 = LINE ( 'NONE', #392, #43 ) ;
#61 = ORIENTED_EDGE ( 'NONE', *, *, #396, .T. ) ;
#62 = CIRCLE ( 'NONE', #554, 5.500000000000003553 ) ;
#63 = ORIENTED_EDGE ( 'NONE', *, *, #87, .T. ) ;
#64 = VECTOR ( 'NONE', #584, 1000.000000000000000 ) ;
#65 = CYLINDRICAL_SURFACE ( 'NONE', #779, 0.5000000000000001110 ) ;
#66 = DIRECTION ( 'NONE',  ( 0.000000000000000000, 1.000000000000000000, 0.000000000000000000 ) ) ;
#67 = ORIENTED_EDGE ( 'NONE', *, *, #218, .T. ) ;
#68 = ADVANCED_FACE ( 'NONE', ( #667 ), #172, .F. ) ;
#69 = CARTESIAN_POINT ( 'NONE',  ( 47.31023178875955182, -6.480839291032346239, 7.285259076319812621 ) ) ;
#70 = CARTESIAN_POINT ( 'NONE',  ( 50.00000000000000000, 7.000000000000000000, 0.000000000000000000 ) ) ;
#71 = DIRECTION ( 'NONE',  ( 0.000000000000000000, 0.000000000000000000, 1.000000000000000000 ) ) ;
#72 = ORIENTED_EDGE ( 'NONE', *, *, #517, .F. ) ;
#73 = ORIENTED_EDGE ( 'NONE', *, *, #447, .F. ) ;
#74 = DIRECTION ( 'NONE',  ( -0.000000000000000000, -1.000000000000000000, -0.000000000000000000 ) ) ;
#75 = LINE ( 'NONE', #410, #277 ) ;
#76 = ORIENTED_EDGE ( 'NONE', *, *, #959, .F. ) ;
#77 = ORIENTED_EDGE ( 'NONE', *, *, #677, .F. ) ;
#78 = VECTOR ( 'NONE', #793, 1000.000000000000000 ) ;
#79 = EDGE_CURVE ( 'NONE', #893, #401, #663, .T. ) ;
#80 = DIRECTION ( 'NONE',  ( 0.000000000000000000, 0.000000000000000000, 1.000000000000000000 ) ) ;
#81 = LINE ( 'NONE', #1095, #735 ) ;
#82 = DIRECTION ( 'NONE',  ( -0.000000000000000000, -1.000000000000000000, 0.000000000000000000 ) ) ;
#83 = CIRCLE ( 'NONE', #703, 7.500000000000000000 ) ;
#84 = ORIENTED_EDGE ( 'NONE', *, *, #104, .F. ) ;
#85 = ORIENTED_EDGE ( 'NONE', *, *, #904, .F. ) ;
#86 = CARTESIAN_POINT ( 'NONE',  ( 56.95970545353752357, 7.000000000000000000, 0.2500000000000003331 ) ) ;
#87 = EDGE_CURVE ( 'NONE', #209, #299, #75, .T. ) ;
#88 = DIRECTION ( 'NONE',  ( 0.000000000000000000, 1.000000000000000000, -0.000000000000000000 ) ) ;
#89 = CARTESIAN_POINT ( 'NONE',  ( 40.15085337780993768, -4.000000000000000000, -96.75568918539943297 ) ) ;
#90 = EDGE_CURVE ( 'NONE', #586, #817, #814, .T. ) ;
#91 = ORIENTED_EDGE ( 'NONE', *, *, #201, .F. ) ;
#92 = ORIENTED_EDGE ( 'NONE', *, *, #910, .F. ) ;
#93 = DIRECTION ( 'NONE',  ( 0.000000000000000000, 0.000000000000000000, 1.000000000000000000 ) ) ;
#94 = CARTESIAN_POINT ( 'NONE',  ( 40.15171916698771071, -4.000000000000000000, 7.000000004175735313 ) ) ;
#95 = DIRECTION ( 'NONE',  ( 0.000000000000000000, 1.000000000000000000, 0.000000000000000000 ) ) ;
#96 = ORIENTED_EDGE ( 'NONE', *, *, #1098, .T. ) ;
#97 = ORIENTED_EDGE ( 'NONE', *, *, #197, .T. ) ;
#98 = CYLINDRICAL_SURFACE ( 'NONE', #913, 89.75568918539943297 ) ;
#99 = TOROIDAL_SURFACE ( 'NONE', #733, 12.08257569495584072, 5.000000000000000000 ) ;
#100 = CARTESIAN_POINT ( 'NONE',  ( 0.000000000000000000, -7.000000000000000000, 0.2500000000000003331 ) ) ;
#101 = DIRECTION ( 'NONE',  ( 0.000000000000000000, 0.000000000000000000, 1.000000000000000000 ) ) ;
#102 = VECTOR ( 'NONE', #1034, 1000.000000000000000 ) ;
#103 = ORIENTED_EDGE ( 'NONE', *, *, #1098, .F. ) ;
#104 = EDGE_CURVE ( 'NONE', #1054, #217, #81, .T. ) ;
#105 = CARTESIAN_POINT ( 'NONE',  ( 0.000000000000000000, 4.000000000000000000, 0.000000000000000000 ) ) ;
#106 = CIRCLE ( 'NONE', #1093, 0.4999999999999998890 ) ;
#107 = DIRECTION ( 'NONE',  ( 3.556199305878151094E-15, 0.000000000000000000, 1.000000000000000000 ) ) ;
#108 = DIRECTION ( 'NONE',  ( 0.000000000000000000, 0.000000000000000000, 1.000000000000000000 ) ) ;
#109 = ADVANCED_FACE ( 'NONE', ( #1008 ), #509, .F. ) ;
#110 = ORIENTED_EDGE ( 'NONE', *, *, #1020, .F. ) ;
#111 = DIRECTION ( 'NONE',  ( 0.000000000000000000, 0.000000000000000000, 1.000000000000000000 ) ) ;
#112 = LINE ( 'NONE', #31, #915 ) ;
#113 = DIRECTION ( 'NONE',  ( 0.000000000000000000, 0.000000000000000000, -1.000000000000000000 ) ) ;
#114 = VERTEX_POINT ( 'NONE', #422 ) ;
#115 = CARTESIAN_POINT ( 'NONE',  ( 48.83531482376694299, 7.000000000000000888, 7.420199472150769360 ) ) ;
#116 = CARTESIAN_POINT ( 'NONE',  ( 40.15085337780993768, -4.000000000000000000, 96.75568918539943297 ) ) ;
#117 = DIRECTION ( 'NONE',  ( -0.000000000000000000, -1.000000000000000000, 0.000000000000000000 ) ) ;
#118 = VECTOR ( 'NONE', #400, 1000.000000000000000 ) ;
#119 = ADVANCED_FACE ( 'NONE', ( #770 ), #599, .F. ) ;
#120 = DIRECTION ( 'NONE',  ( -0.000000000000000000, -1.000000000000000000, 0.000000000000000000 ) ) ;
#121 = DIRECTION ( 'NONE',  ( 0.000000000000000000, 1.000000000000000000, 0.000000000000000000 ) ) ;
#122 = EDGE_CURVE ( 'NONE', #497, #942, #112, .T. ) ;
#123 = CARTESIAN_POINT ( 'NONE',  ( 45.17474932794220877, -5.390936356325208401, -7.139971585798843279 ) ) ;
#124 = CARTESIAN_POINT ( 'NONE',  ( 40.15085337780993768, 4.000000000000000000, 96.75568918539943297 ) ) ;
#125 = ORIENTED_EDGE ( 'NONE', *, *, #710, .F. ) ;
#126 = ORIENTED_EDGE ( 'NONE', *, *, #188, .T. ) ;
#127 = PLANE ( 'NONE',  #795 ) ;
#128 = DIRECTION ( 'NONE',  ( 0.000000000000000000, 1.000000000000000000, 0.000000000000000000 ) ) ;
#129 = VERTEX_POINT ( 'NONE', #863 ) ;
#130 = AXIS2_PLACEMENT_3D ( 'NONE', #105, #666, #80 ) ;
#131 = AXIS2_PLACEMENT_3D ( 'NONE', #763, #1082, #344 ) ;
#132 = EDGE_CURVE ( 'NONE', #712, #919, #1039, .T. ) ;
#133 = VECTOR ( 'NONE', #95, 1000.000000000000000 ) ;
#134 = CARTESIAN_POINT ( 'NONE',  ( 48.44326216139354813, -6.902930426863589375, 7.383663858731259744 ) ) ;
#135 = EDGE_CURVE ( 'NONE', #248, #129, #556, .T. ) ;
#136 = DIRECTION ( 'NONE',  ( 3.469446951953611033E-15, 0.000000000000000000, 1.000000000000000000 ) ) ;
#137 = CARTESIAN_POINT ( 'NONE',  ( 50.00000000000000000, -9.000000000000001776, 0.000000000000000000 ) ) ;
#138 = VERTEX_POINT ( 'NONE', #21 ) ;
#139 = PRESENTATION_LAYER_ASSIGNMENT (  '', '', ( #1001 ) ) ;
#140 = DIRECTION ( 'NONE',  ( 0.000000000000000000, 1.000000000000000000, 0.000000000000000000 ) ) ;
#141 = ORIENTED_EDGE ( 'NONE', *, *, #529, .T. ) ;
#142 = DIRECTION ( 'NONE',  ( 0.000000000000000000, 0.000000000000000000, 1.000000000000000000 ) ) ;
#143 = LINE ( 'NONE', #555, #118 ) ;
#144 = ORIENTED_EDGE ( 'NONE', *, *, #197, .F. ) ;
#145 = ORIENTED_EDGE ( 'NONE', *, *, #970, .T. ) ;
#146 = CIRCLE ( 'NONE', #395, 7.500000000000000000 ) ;
#147 = ORIENTED_EDGE ( 'NONE', *, *, #494, .T. ) ;
#148 =( NAMED_UNIT ( * ) PLANE_ANGLE_UNIT ( ) SI_UNIT ( $, .RADIAN. ) );
#149 = AXIS2_PLACEMENT_3D ( 'NONE', #335, #66, #588 ) ;
#150 = AXIS2_PLACEMENT_3D ( 'NONE', #279, #600, #108 ) ;
#151 = FACE_OUTER_BOUND ( 'NONE', #918, .T. ) ;
#152 = DIRECTION ( 'NONE',  ( 0.000000000000000000, 0.000000000000000000, 1.000000000000000000 ) ) ;
#153 = AXIS2_PLACEMENT_3D ( 'NONE', #603, #1006, #252 ) ;
#154 = ORIENTED_EDGE ( 'NONE', *, *, #135, .T. ) ;
#155 = ORIENTED_EDGE ( 'NONE', *, *, #201, .T. ) ;
#156 = FACE_OUTER_BOUND ( 'NONE', #182, .T. ) ;
#157 = DIRECTION ( 'NONE',  ( -0.000000000000000000, -1.000000000000000000, -0.000000000000000000 ) ) ;
#158 = CARTESIAN_POINT ( 'NONE',  ( 0.000000000000000000, 4.500000000000000888, 0.000000000000000000 ) ) ;
#159 = ORIENTED_EDGE ( 'NONE', *, *, #723, .F. ) ;
#160 = ORIENTED_EDGE ( 'NONE', *, *, #541, .T. ) ;
#161 = PRODUCT_RELATED_PRODUCT_CATEGORY ( 'part', '', ( #1031 ) ) ;
#162 = CARTESIAN_POINT ( 'NONE',  ( 5.749213291902921519, 4.000000000000000000, 13.85447749011875196 ) ) ;
#163 = CARTESIAN_POINT ( 'NONE',  ( 0.000000000000000000, 4.000000000000000000, 0.000000000000000000 ) ) ;
#164 = CARTESIAN_POINT ( 'NONE',  ( 56.95970545353752357, 7.000000000000000000, 0.7500000000000003331 ) ) ;
#165 = ORIENTED_EDGE ( 'NONE', *, *, #287, .F. ) ;
#166 = ORIENTED_EDGE ( 'NONE', *, *, #1070, .T. ) ;
#167 = EDGE_CURVE ( 'NONE', #407, #398, #333, .T. ) ;
#168 = CIRCLE ( 'NONE', #700, 7.500000000000000000 ) ;
#169 = EDGE_CURVE ( 'NONE', #549, #407, #527, .T. ) ;
#170 = CIRCLE ( 'NONE', #149, 0.4999999999999998890 ) ;
#171 = CARTESIAN_POINT ( 'NONE',  ( 49.24047014333928729, -6.999999999999999112, -7.461441844364998133 ) ) ;
#172 = CYLINDRICAL_SURFACE ( 'NONE', #934, 4.000000000000006217 ) ;
#173 = CARTESIAN_POINT ( 'NONE',  ( 56.95970545353752357, 7.000000000000000000, -0.2499999999999996669 ) ) ;
#174 = ORIENTED_EDGE ( 'NONE', *, *, #33, .T. ) ;
#175 = VERTEX_POINT ( 'NONE', #94 ) ;
#176 = PRODUCT_DEFINITION_SHAPE ( 'NONE', 'NONE',  #49 ) ;
#177 =( LENGTH_UNIT ( ) NAMED_UNIT ( * ) SI_UNIT ( .MILLI., .METRE. ) );
#178 = CIRCLE ( 'NONE', #440, 12.08257569495584072 ) ;
#179 = CARTESIAN_POINT ( 'NONE',  ( 0.000000000000000000, -4.000000000000000000, 0.000000000000000000 ) ) ;
#180 = CARTESIAN_POINT ( 'NONE',  ( 54.43705983732471765, -7.945100745943896925, -0.2499999999999996669 ) ) ;
#181 = CARTESIAN_POINT ( 'NONE',  ( 54.43705983732471765, -7.000000000000000000, -0.2499999999999996669 ) ) ;
#182 = EDGE_LOOP ( 'NONE', ( #322, #183, #1065, #788 ) ) ;
#183 = ORIENTED_EDGE ( 'NONE', *, *, #910, .T. ) ;
#184 = SHAPE_DEFINITION_REPRESENTATION ( #176, #24 ) ;
#185 = DIRECTION ( 'NONE',  ( 0.000000000000000000, 1.000000000000000000, -0.000000000000000000 ) ) ;
#186 = DIRECTION ( 'NONE',  ( 0.000000000000000000, 0.000000000000000000, 1.000000000000000000 ) ) ;
#187 = CARTESIAN_POINT ( 'NONE',  ( 53.94405318873309341, 4.000000000000000000, -0.6666666666666670737 ) ) ;
#188 = EDGE_CURVE ( 'NONE', #760, #820, #951, .T. ) ;
#189 = DIRECTION ( 'NONE',  ( 0.000000000000000000, 1.000000000000000000, 0.000000000000000000 ) ) ;
#190 = CIRCLE ( 'NONE', #813, 7.500000000000000000 ) ;
#191 = DIRECTION ( 'NONE',  ( 0.000000000000000000, 1.000000000000000000, 0.000000000000000000 ) ) ;
#192 = FACE_OUTER_BOUND ( 'NONE', #751, .T. ) ;
#193 = AXIS2_PLACEMENT_3D ( 'NONE', #522, #82, #864 ) ;
#194 = CARTESIAN_POINT ( 'NONE',  ( 44.08366982545221902, -4.874657164359705419, -7.083245162792652927 ) ) ;
#195 = DIRECTION ( 'NONE',  ( -0.000000000000000000, -1.000000000000000000, 0.000000000000000000 ) ) ;
#196 = CARTESIAN_POINT ( 'NONE',  ( 0.000000000000000000, 4.000000000000000000, 0.000000000000000000 ) ) ;
#197 = EDGE_CURVE ( 'NONE', #757, #592, #443, .T. ) ;
#198 = DIRECTION ( 'NONE',  ( -0.000000000000000000, -1.000000000000000000, 0.000000000000000000 ) ) ;
#199 = ADVANCED_FACE ( 'NONE', ( #1028 ), #685, .F. ) ;
#200 = DIRECTION ( 'NONE',  ( 0.000000000000000000, 0.000000000000000000, 1.000000000000000000 ) ) ;
#201 = EDGE_CURVE ( 'NONE', #757, #548, #521, .T. ) ;
#202 = CARTESIAN_POINT ( 'NONE',  ( 50.00000000000000000, -6.999999999999999112, 0.000000000000000000 ) ) ;
#203 = EDGE_CURVE ( 'NONE', #639, #984, #698, .T. ) ;
#204 = CARTESIAN_POINT ( 'NONE',  ( 54.43705983732471765, 7.000000000000000000, -0.7499999999999996669 ) ) ;
#205 = FACE_OUTER_BOUND ( 'NONE', #809, .T. ) ;
#206 = AXIS2_PLACEMENT_3D ( 'NONE', #827, #157, #495 ) ;
#207 = CIRCLE ( 'NONE', #1088, 5.500000000000003553 ) ;
#208 = CIRCLE ( 'NONE', #507, 89.75568918539943297 ) ;
#209 = VERTEX_POINT ( 'NONE', #27 ) ;
#210 =( GEOMETRIC_REPRESENTATION_CONTEXT ( 3 ) GLOBAL_UNCERTAINTY_ASSIGNED_CONTEXT ( ( #963 ) ) GLOBAL_UNIT_ASSIGNED_CONTEXT ( ( #177, #593, #266 ) ) REPRESENTATION_CONTEXT ( 'NONE', 'WORKASPACE' ) );
#211 = DIRECTION ( 'NONE',  ( -0.000000000000000000, -1.000000000000000000, -0.000000000000000000 ) ) ;
#212 = CARTESIAN_POINT ( 'NONE',  ( 0.000000000000000000, 4.500000000000000888, -4.000000000000003553 ) ) ;
#213 = ORIENTED_EDGE ( 'NONE', *, *, #801, .F. ) ;
#214 = CARTESIAN_POINT ( 'NONE',  ( 50.00000000000000000, 7.000000000000000000, -7.500000000000000000 ) ) ;
#215 = CARTESIAN_POINT ( 'NONE',  ( 50.00000000000000000, -6.999999999999999112, 0.000000000000000000 ) ) ;
#216 = CARTESIAN_POINT ( 'NONE',  ( 0.000000000000000000, 4.500000000000000888, 0.000000000000000000 ) ) ;
#217 = VERTEX_POINT ( 'NONE', #881 ) ;
#218 = EDGE_CURVE ( 'NONE', #745, #888, #701, .T. ) ;
#219 = ORIENTED_EDGE ( 'NONE', *, *, #908, .F. ) ;
#220 = FILL_AREA_STYLE_COLOUR ( '', #621 ) ;
#221 = DIRECTION ( 'NONE',  ( -0.000000000000000000, -1.000000000000000000, 0.000000000000000000 ) ) ;
#222 = CYLINDRICAL_SURFACE ( 'NONE', #206, 4.000000000000003553 ) ;
#223 = ORIENTED_EDGE ( 'NONE', *, *, #985, .T. ) ;
#224 = CIRCLE ( 'NONE', #9, 4.000000000000003553 ) ;
#225 = CIRCLE ( 'NONE', #575, 15.00000000000001421 ) ;
#226 = EDGE_LOOP ( 'NONE', ( #696, #7, #490, #92 ) ) ;
#227 = AXIS2_PLACEMENT_3D ( 'NONE', #380, #800, #32 ) ;
#228 = DIRECTION ( 'NONE',  ( 0.000000000000000000, 1.000000000000000000, -0.000000000000000000 ) ) ;
#229 = CARTESIAN_POINT ( 'NONE',  ( 4.898587196589417759E-16, 4.500000000000000888, 4.000000000000003553 ) ) ;
#230 = DIRECTION ( 'NONE',  ( 0.000000000000000000, 1.000000000000000000, 0.000000000000000000 ) ) ;
#231 = ORIENTED_EDGE ( 'NONE', *, *, #122, .F. ) ;
#232 = LINE ( 'NONE', #811, #668 ) ;
#233 = DIRECTION ( 'NONE',  ( 0.000000000000000000, 0.000000000000000000, 1.000000000000000000 ) ) ;
#234 = ORIENTED_EDGE ( 'NONE', *, *, #923, .T. ) ;
#235 = ORIENTED_EDGE ( 'NONE', *, *, #1036, .T. ) ;
#236 = DIRECTION ( 'NONE',  ( 0.000000000000000000, 0.000000000000000000, -1.000000000000000000 ) ) ;
#237 = FACE_OUTER_BOUND ( 'NONE', #34, .T. ) ;
#238 = DIRECTION ( 'NONE',  ( 0.000000000000000000, 1.000000000000000000, -0.000000000000000000 ) ) ;
#239 = ORIENTED_EDGE ( 'NONE', *, *, #167, .T. ) ;
#240 = AXIS2_PLACEMENT_3D ( 'NONE', #179, #185, #862 ) ;
#241 = CIRCLE ( 'NONE', #383, 0.5000000000000000000 ) ;
#242 = DIRECTION ( 'NONE',  ( 0.000000000000000000, 1.000000000000000000, -0.000000000000000000 ) ) ;
#243 = FACE_OUTER_BOUND ( 'NONE', #989, .T. ) ;
#244 = ORIENTED_EDGE ( 'NONE', *, *, #405, .T. ) ;
#245 = CARTESIAN_POINT ( 'NONE',  ( 46.99999999999999289, 4.000000000000000000, 2.645751311064580502 ) ) ;
#246 = CYLINDRICAL_SURFACE ( 'NONE', #950, 5.500000000000003553 ) ;
#247 = DIRECTION ( 'NONE',  ( -0.000000000000000000, -1.000000000000000000, -0.000000000000000000 ) ) ;
#248 = VERTEX_POINT ( 'NONE', #708 ) ;
#249 = EDGE_CURVE ( 'NONE', #773, #620, #532, .T. ) ;
#250 = ADVANCED_FACE ( 'NONE', ( #694, #948 ), #790, .T. ) ;
#251 = VERTEX_POINT ( 'NONE', #355 ) ;
#252 = DIRECTION ( 'NONE',  ( 1.000000000000000000, 0.000000000000000000, 0.000000000000000000 ) ) ;
#253 = CARTESIAN_POINT ( 'NONE',  ( 47.69342146405697491, -6.658242507723077352, -7.316676318533610335 ) ) ;
#254 = B_SPLINE_CURVE_WITH_KNOTS ( 'NONE', 3,
 ( #171, #674, #1007, #253, #508, #851, #1, #886, #123, #194, #531, #544, #456, #630, #464, #707 ),
 .UNSPECIFIED., .F., .F.,
 ( 4, 2, 2, 2, 2, 2, 2, 4 ),
 ( 0.000000000000000000, 0.001193210829820473291, 0.002386421659640946581, 0.003579632489461419872, 0.004772843319281893162, 0.007159264978922839744, 0.008352475808743313468, 0.009545686638563786325 ),
 .UNSPECIFIED. ) ;
#255 = LINE ( 'NONE', #992, #504 ) ;
#256 = DIRECTION ( 'NONE',  ( -0.000000000000000000, -1.000000000000000000, -0.000000000000000000 ) ) ;
#257 = ORIENTED_EDGE ( 'NONE', *, *, #33, .F. ) ;
#258 = ORIENTED_EDGE ( 'NONE', *, *, #169, .T. ) ;
#259 = PRODUCT_CONTEXT ( 'NONE', #784, 'mechanical' ) ;
#260 = AXIS2_PLACEMENT_3D ( 'NONE', #742, #914, #982 ) ;
#261 = AXIS2_PLACEMENT_3D ( 'NONE', #204, #618, #609 ) ;
#262 = DIRECTION ( 'NONE',  ( 0.000000000000000000, 1.000000000000000000, 0.000000000000000000 ) ) ;
#263 = VECTOR ( 'NONE', #875, 1000.000000000000000 ) ;
#264 = CARTESIAN_POINT ( 'NONE',  ( 54.43705983732471765, 4.000000000000000000, 0.7500000000000003331 ) ) ;
#265 = ORIENTED_EDGE ( 'NONE', *, *, #559, .T. ) ;
#266 =( NAMED_UNIT ( * ) SI_UNIT ( $, .STERADIAN. ) SOLID_ANGLE_UNIT ( ) );
#267 = DIRECTION ( 'NONE',  ( -0.000000000000000000, -1.000000000000000000, -0.000000000000000000 ) ) ;
#268 = EDGE_CURVE ( 'NONE', #432, #519, #364, .T. ) ;
#269 = DIRECTION ( 'NONE',  ( -0.000000000000000000, -1.000000000000000000, 0.000000000000000000 ) ) ;
#270 = DIRECTION ( 'NONE',  ( 0.000000000000000000, 1.000000000000000000, 0.000000000000000000 ) ) ;
#271 = ORIENTED_EDGE ( 'NONE', *, *, #494, .F. ) ;
#272 = CARTESIAN_POINT ( 'NONE',  ( 49.24047014333928729, 7.000000000000000000, -7.461441844364998133 ) ) ;
#273 = DIRECTION ( 'NONE',  ( 0.000000000000000000, 0.000000000000000000, -1.000000000000000000 ) ) ;
#274 = DIRECTION ( 'NONE',  ( 0.000000000000000000, 1.000000000000000000, 0.000000000000000000 ) ) ;
#275 = CARTESIAN_POINT ( 'NONE',  ( 45.53381057013470468, 5.573322605752294656, 7.160845595444436995 ) ) ;
#276 = VECTOR ( 'NONE', #362, 1000.000000000000000 ) ;
#277 = VECTOR ( 'NONE', #1089, 1000.000000000000000 ) ;
#278 = CARTESIAN_POINT ( 'NONE',  ( 54.43705983732471765, 7.000000000000000000, 0.2500000000000003331 ) ) ;
#279 = CARTESIAN_POINT ( 'NONE',  ( 0.000000000000000000, -4.000000000000000000, 0.000000000000000000 ) ) ;
#280 = CIRCLE ( 'NONE', #436, 0.4999999999999998890 ) ;
#281 = VECTOR ( 'NONE', #764, 1000.000000000000000 ) ;
#282 = EDGE_CURVE ( 'NONE', #1072, #138, #634, .T. ) ;
#283 = CARTESIAN_POINT ( 'NONE',  ( 6.735557395310445967E-16, 4.500000000000000888, -5.500000000000003553 ) ) ;
#284 = CIRCLE ( 'NONE', #543, 5.500000000000003553 ) ;
#285 = DIRECTION ( 'NONE',  ( 0.000000000000000000, 0.000000000000000000, 1.000000000000000000 ) ) ;
#286 = CARTESIAN_POINT ( 'NONE',  ( 49.24047014333928729, 7.000000000000000000, 7.461441844364998133 ) ) ;
#287 = EDGE_CURVE ( 'NONE', #497, #432, #225, .T. ) ;
#288 = EDGE_CURVE ( 'NONE', #586, #1052, #945, .T. ) ;
#289 = DIRECTION ( 'NONE',  ( 0.000000000000000000, 0.000000000000000000, 1.000000000000000000 ) ) ;
#290 = DIRECTION ( 'NONE',  ( 0.000000000000000000, -0.000000000000000000, 1.000000000000000000 ) ) ;
#291 = CARTESIAN_POINT ( 'NONE',  ( 50.00000000000000000, 4.000000000000000000, 0.000000000000000000 ) ) ;
#292 = CARTESIAN_POINT ( 'NONE',  ( 42.16346051728290689, 4.241557474609256140, 7.021712721919089795 ) ) ;
#293 = CARTESIAN_POINT ( 'NONE',  ( 54.43705983732471765, 4.000000000000000000, -0.7499999999999996669 ) ) ;
#294 = LINE ( 'NONE', #1064, #594 ) ;
#295 = AXIS2_PLACEMENT_3D ( 'NONE', #520, #262, #441 ) ;
#296 = EDGE_LOOP ( 'NONE', ( #144, #155, #235, #265 ) ) ;
#297 = AXIS2_PLACEMENT_3D ( 'NONE', #163, #1003, #152 ) ;
#298 = VECTOR ( 'NONE', #672, 1000.000000000000000 ) ;
#299 = VERTEX_POINT ( 'NONE', #981 ) ;
#300 = CARTESIAN_POINT ( 'NONE',  ( 49.24047014333928729, 7.000000000000000000, 7.461441844364998133 ) ) ;
#301 = EDGE_CURVE ( 'NONE', #639, #321, #471, .T. ) ;
#302 = CARTESIAN_POINT ( 'NONE',  ( 5.749213291902921519, 4.000000000000000000, -13.85447749011875196 ) ) ;
#303 = VECTOR ( 'NONE', #1092, 1000.000000000000000 ) ;
#304 = EDGE_CURVE ( 'NONE', #114, #401, #307, .T. ) ;
#305 = ORIENTED_EDGE ( 'NONE', *, *, #529, .F. ) ;
#306 = DIRECTION ( 'NONE',  ( -0.000000000000000000, -1.000000000000000000, 0.000000000000000000 ) ) ;
#307 = LINE ( 'NONE', #898, #935 ) ;
#308 = DIRECTION ( 'NONE',  ( 0.000000000000000000, 1.000000000000000000, -0.000000000000000000 ) ) ;
#309 = ORIENTED_EDGE ( 'NONE', *, *, #132, .F. ) ;
#310 = SURFACE_STYLE_USAGE ( .BOTH. , #912 ) ;
#311 = CARTESIAN_POINT ( 'NONE',  ( 0.000000000000000000, 4.500000000000000888, 0.000000000000000000 ) ) ;
#312 = DIRECTION ( 'NONE',  ( 0.000000000000000000, 0.000000000000000000, 1.000000000000000000 ) ) ;
#313 = ORIENTED_EDGE ( 'NONE', *, *, #595, .T. ) ;
#314 = VECTOR ( 'NONE', #211, 1000.000000000000000 ) ;
#315 = CIRCLE ( 'NONE', #664, 89.75568918539943297 ) ;
#316 = ADVANCED_FACE ( 'NONE', ( #546 ), #465, .T. ) ;
#317 = ADVANCED_FACE ( 'NONE', ( #632 ), #461, .F. ) ;
#318 = FILL_AREA_STYLE ('',( #220 ) ) ;
#319 = DIRECTION ( 'NONE',  ( 0.000000000000000000, 1.000000000000000000, 0.000000000000000000 ) ) ;
#320 = DIRECTION ( 'NONE',  ( 0.000000000000000000, 1.000000000000000000, 0.000000000000000000 ) ) ;
#321 = VERTEX_POINT ( 'NONE', #229 ) ;
#322 = ORIENTED_EDGE ( 'NONE', *, *, #188, .F. ) ;
#323 = DIRECTION ( 'NONE',  ( 0.000000000000000000, 1.000000000000000000, 0.000000000000000000 ) ) ;
#324 = EDGE_CURVE ( 'NONE', #502, #299, #366, .T. ) ;
#325 = CARTESIAN_POINT ( 'NONE',  ( 40.15171916698771071, 4.000000000000000000, 7.000000004175735313 ) ) ;
#326 = VERTEX_POINT ( 'NONE', #475 ) ;
#327 = DIRECTION ( 'NONE',  ( 0.000000000000000000, 1.000000000000000000, -0.000000000000000000 ) ) ;
#328 = CARTESIAN_POINT ( 'NONE',  ( 4.898587196589417759E-16, -4.500000000000000888, 4.000000000000003553 ) ) ;
#329 = DIRECTION ( 'NONE',  ( 0.000000000000000000, 0.000000000000000000, -1.000000000000000000 ) ) ;
#330 = ADVANCED_FACE ( 'NONE', ( #819 ), #562, .T. ) ;
#331 = CIRCLE ( 'NONE', #413, 4.000000000000003553 ) ;
#332 = ORIENTED_EDGE ( 'NONE', *, *, #6, .T. ) ;
#333 = CIRCLE ( 'NONE', #434, 0.5000000000000000000 ) ;
#334 = EDGE_CURVE ( 'NONE', #129, #407, #729, .T. ) ;
#335 = CARTESIAN_POINT ( 'NONE',  ( 54.43705983732471765, 7.000000000000000000, 0.7500000000000003331 ) ) ;
#336 = AXIS2_PLACEMENT_3D ( 'NONE', #1000, #1019, #936 ) ;
#337 = EDGE_CURVE ( 'NONE', #472, #1005, #241, .T. ) ;
#338 = ORIENTED_EDGE ( 'NONE', *, *, #5, .F. ) ;
#339 = CARTESIAN_POINT ( 'NONE',  ( 40.15085337780993768, -4.000000000000000000, 7.000000000000006217 ) ) ;
#340 = DIRECTION ( 'NONE',  ( -0.000000000000000000, -1.000000000000000000, -0.000000000000000000 ) ) ;
#341 = DIRECTION ( 'NONE',  ( 0.000000000000000000, 0.000000000000000000, 1.000000000000000000 ) ) ;
#342 = ORIENTED_EDGE ( 'NONE', *, *, #122, .T. ) ;
#343 = CARTESIAN_POINT ( 'NONE',  ( 47.67475864657223639, 6.650691314249093544, -7.315085038703852405 ) ) ;
#344 = DIRECTION ( 'NONE',  ( 0.000000000000000000, 0.000000000000000000, 1.000000000000000000 ) ) ;
#345 = CYLINDRICAL_SURFACE ( 'NONE', #759, 15.00000000000001421 ) ;
#346 = ORIENTED_EDGE ( 'NONE', *, *, #304, .F. ) ;
#347 = EDGE_LOOP ( 'NONE', ( #85, #213, #636, #567 ) ) ;
#348 = CIRCLE ( 'NONE', #130, 5.500000000000003553 ) ;
#349 = CARTESIAN_POINT ( 'NONE',  ( 46.99999999999999289, 4.000000000000000000, -2.645751311064580502 ) ) ;
#350 = VECTOR ( 'NONE', #371, 1000.000000000000000 ) ;
#351 = CARTESIAN_POINT ( 'NONE',  ( 0.000000000000000000, 4.000000000000000000, -4.000000000000003553 ) ) ;
#352 = DIRECTION ( 'NONE',  ( -0.000000000000000000, -1.000000000000000000, -0.000000000000000000 ) ) ;
#353 = ORIENTED_EDGE ( 'NONE', *, *, #970, .F. ) ;
#354 = DIRECTION ( 'NONE',  ( -0.000000000000000000, -1.000000000000000000, -0.000000000000000000 ) ) ;
#355 = CARTESIAN_POINT ( 'NONE',  ( 53.94405318873308630, 7.000000000000000000, 0.6666666666666672958 ) ) ;
#356 = DIRECTION ( 'NONE',  ( 0.000000000000000000, 1.000000000000000000, -0.000000000000000000 ) ) ;
#357 = DIRECTION ( 'NONE',  ( 0.000000000000000000, 1.000000000000000000, 0.000000000000000000 ) ) ;
#358 = DIRECTION ( 'NONE',  ( -0.000000000000000000, -1.000000000000000000, 0.000000000000000000 ) ) ;
#359 = CARTESIAN_POINT ( 'NONE',  ( 0.000000000000000000, 4.000000000000000000, 0.000000000000000000 ) ) ;
#360 = ADVANCED_FACE ( 'NONE', ( #192 ), #345, .T. ) ;
#361 = ORIENTED_EDGE ( 'NONE', *, *, #923, .F. ) ;
#362 = DIRECTION ( 'NONE',  ( -0.000000000000000000, -1.000000000000000000, -0.000000000000000000 ) ) ;
#363 = AXIS2_PLACEMENT_3D ( 'NONE', #845, #492, #927 ) ;
#364 = LINE ( 'NONE', #869, #45 ) ;
#365 = CARTESIAN_POINT ( 'NONE',  ( 1.836970198721031561E-15, 4.000000000000000000, 15.00000000000001421 ) ) ;
#366 = CIRCLE ( 'NONE', #758, 4.000000000000003553 ) ;
#367 = ADVANCED_FACE ( 'NONE', ( #786 ), #1035, .T. ) ;
#368 = CIRCLE ( 'NONE', #848, 5.500000000000003553 ) ;
#369 = EDGE_CURVE ( 'NONE', #655, #820, #1024, .T. ) ;
#370 = CARTESIAN_POINT ( 'NONE',  ( 50.00000000000000000, -6.999999999999999112, 0.000000000000000000 ) ) ;
#371 = DIRECTION ( 'NONE',  ( -0.000000000000000000, -1.000000000000000000, -0.000000000000000000 ) ) ;
#372 = CARTESIAN_POINT ( 'NONE',  ( 50.00000000000000000, 4.000000000000000000, 0.000000000000000000 ) ) ;
#373 = ORIENTED_EDGE ( 'NONE', *, *, #484, .F. ) ;
#374 = CARTESIAN_POINT ( 'NONE',  ( 46.60542775973515717, 6.132123892658812636, 7.231653541556857689 ) ) ;
#375 = CYLINDRICAL_SURFACE ( 'NONE', #826, 7.500000000000000000 ) ;
#376 = VERTEX_POINT ( 'NONE', #1029 ) ;
#377 = EDGE_LOOP ( 'NONE', ( #1078, #231, #234, #1018, #1086, #602 ) ) ;
#378 = LINE ( 'NONE', #1043, #276 ) ;
#379 = DIRECTION ( 'NONE',  ( 0.000000000000000000, 0.000000000000000000, -1.000000000000000000 ) ) ;
#380 = CARTESIAN_POINT ( 'NONE',  ( 50.00000000000000000, -6.999999999999999112, 0.000000000000000000 ) ) ;
#381 = AXIS2_PLACEMENT_3D ( 'NONE', #624, #962, #200 ) ;
#382 = ORIENTED_EDGE ( 'NONE', *, *, #889, .F. ) ;
#383 = AXIS2_PLACEMENT_3D ( 'NONE', #771, #3, #619 ) ;
#384 = CARTESIAN_POINT ( 'NONE',  ( 0.000000000000000000, 4.000000000000000000, 0.000000000000000000 ) ) ;
#385 = DIRECTION ( 'NONE',  ( 0.000000000000000000, 0.000000000000000000, -1.000000000000000000 ) ) ;
#386 = ORIENTED_EDGE ( 'NONE', *, *, #1036, .F. ) ;
#387 = CARTESIAN_POINT ( 'NONE',  ( 49.24047014333928729, -6.999999999999999112, 7.461441844364998133 ) ) ;
#388 = DIRECTION ( 'NONE',  ( -0.000000000000000000, -1.000000000000000000, -0.000000000000000000 ) ) ;
#389 = CARTESIAN_POINT ( 'NONE',  ( 57.45682727164735581, -6.999999999999999112, 0.8035714285714296023 ) ) ;
#390 = VERTEX_POINT ( 'NONE', #870 ) ;
#391 = CARTESIAN_POINT ( 'NONE',  ( 53.11001693982867522, 7.000000000000000000, -0.2499999999999996669 ) ) ;
#392 = CARTESIAN_POINT ( 'NONE',  ( 53.94405318873309341, 4.000000000000000000, 0.6666666666666677399 ) ) ;
#393 = ORIENTED_EDGE ( 'NONE', *, *, #530, .T. ) ;
#394 = ADVANCED_FACE ( 'NONE', ( #699 ), #444, .T. ) ;
#395 = AXIS2_PLACEMENT_3D ( 'NONE', #657, #230, #753 ) ;
#396 = EDGE_CURVE ( 'NONE', #750, #871, #280, .T. ) ;
#397 = VECTOR ( 'NONE', #776, 1000.000000000000000 ) ;
#398 = VERTEX_POINT ( 'NONE', #695 ) ;
#399 = CARTESIAN_POINT ( 'NONE',  ( 45.51672952182422449, -5.564582838075653015, 7.159820041953334879 ) ) ;
#400 = DIRECTION ( 'NONE',  ( -0.000000000000000000, -1.000000000000000000, -0.000000000000000000 ) ) ;
#401 = VERTEX_POINT ( 'NONE', #777 ) ;
#402 = ORIENTED_EDGE ( 'NONE', *, *, #952, .F. ) ;
#403 = ORIENTED_EDGE ( 'NONE', *, *, #810, .F. ) ;
#404 = DIRECTION ( 'NONE',  ( 0.000000000000000000, 0.000000000000000000, 1.000000000000000000 ) ) ;
#405 = EDGE_CURVE ( 'NONE', #519, #1052, #719, .T. ) ;
#406 = CARTESIAN_POINT ( 'NONE',  ( 40.15085337780993768, 4.000000000000000000, -96.75568918539943297 ) ) ;
#407 = VERTEX_POINT ( 'NONE', #173 ) ;
#408 = EDGE_CURVE ( 'NONE', #592, #760, #650, .T. ) ;
#409 = CARTESIAN_POINT ( 'NONE',  ( 57.45682727164735581, 7.000000000000000000, 0.8035714285714296023 ) ) ;
#410 = CARTESIAN_POINT ( 'NONE',  ( 50.00000000000000000, 4.000000000000000000, -4.000000000000006217 ) ) ;
#411 = PRODUCT_DEFINITION_CONTEXT ( 'detailed design', #1073, 'design' ) ;
#412 = ORIENTED_EDGE ( 'NONE', *, *, #458, .F. ) ;
#413 = AXIS2_PLACEMENT_3D ( 'NONE', #955, #198, #111 ) ;
#414 = ORIENTED_EDGE ( 'NONE', *, *, #35, .F. ) ;
#415 = AXIS2_PLACEMENT_3D ( 'NONE', #1096, #854, #341 ) ;
#416 = CARTESIAN_POINT ( 'NONE',  ( 53.11001693982867522, -7.945100745943896925, 0.2500000000000003331 ) ) ;
#417 = CARTESIAN_POINT ( 'NONE',  ( 0.000000000000000000, -4.000000000000000000, 0.000000000000000000 ) ) ;
#418 = LINE ( 'NONE', #949, #281 ) ;
#419 = EDGE_LOOP ( 'NONE', ( #478, #309, #353, #402 ) ) ;
#420 = ORIENTED_EDGE ( 'NONE', *, *, #458, .T. ) ;
#421 = CARTESIAN_POINT ( 'NONE',  ( 48.24778681562214899, 6.847678706713978158, -7.365755860007804579 ) ) ;
#422 = CARTESIAN_POINT ( 'NONE',  ( 0.000000000000000000, 4.000000000000000000, 5.500000000000003553 ) ) ;
#423 = DIRECTION ( 'NONE',  ( 0.000000000000000000, 0.000000000000000000, 1.000000000000000000 ) ) ;
#424 = EDGE_CURVE ( 'NONE', #1005, #248, #528, .T. ) ;
#425 = ORIENTED_EDGE ( 'NONE', *, *, #1071, .T. ) ;
#426 = VERTEX_POINT ( 'NONE', #430 ) ;
#427 = DIRECTION ( 'NONE',  ( -0.000000000000000000, -1.000000000000000000, -0.000000000000000000 ) ) ;
#428 = CARTESIAN_POINT ( 'NONE',  ( 45.15740958010900385, 5.382347915924375670, -7.139000489618429590 ) ) ;
#429 = DIRECTION ( 'NONE',  ( 0.000000000000000000, 0.000000000000000000, 1.000000000000000000 ) ) ;
#430 = CARTESIAN_POINT ( 'NONE',  ( 40.15171916698771071, -4.000000000000000000, -7.000000004175735313 ) ) ;
#431 = VERTEX_POINT ( 'NONE', #516 ) ;
#432 = VERTEX_POINT ( 'NONE', #438 ) ;
#433 = AXIS2_PLACEMENT_3D ( 'NONE', #551, #885, #705 ) ;
#434 = AXIS2_PLACEMENT_3D ( 'NONE', #17, #448, #429 ) ;
#435 = CARTESIAN_POINT ( 'NONE',  ( 44.06579924211664689, 4.866996633716060394, -7.082460367347708008 ) ) ;
#436 = AXIS2_PLACEMENT_3D ( 'NONE', #164, #270, #501 ) ;
#437 = DIRECTION ( 'NONE',  ( 0.000000000000000000, 0.000000000000000000, 1.000000000000000000 ) ) ;
#438 = CARTESIAN_POINT ( 'NONE',  ( 0.000000000000000000, 4.000000000000000000, -15.00000000000001421 ) ) ;
#439 = VERTEX_POINT ( 'NONE', #791 ) ;
#440 = AXIS2_PLACEMENT_3D ( 'NONE', #722, #228, #404 ) ;
#441 = DIRECTION ( 'NONE',  ( 0.000000000000000000, 0.000000000000000000, 1.000000000000000000 ) ) ;
#442 = EDGE_CURVE ( 'NONE', #942, #426, #315, .T. ) ;
#443 = LINE ( 'NONE', #100, #397 ) ;
#444 = CYLINDRICAL_SURFACE ( 'NONE', #617, 5.500000000000003553 ) ;
#445 = EDGE_CURVE ( 'NONE', #1016, #712, #997, .T. ) ;
#446 = CARTESIAN_POINT ( 'NONE',  ( 47.32651989392916647, 6.488495449943532556, 7.286564351961798636 ) ) ;
#447 = EDGE_CURVE ( 'NONE', #817, #745, #940, .T. ) ;
#448 = DIRECTION ( 'NONE',  ( 0.000000000000000000, 1.000000000000000000, 0.000000000000000000 ) ) ;
#449 = CARTESIAN_POINT ( 'NONE',  ( 50.00000000000000000, 7.000000000000000000, 0.000000000000000000 ) ) ;
#450 = EDGE_LOOP ( 'NONE', ( #727, #332, #223, #258 ) ) ;
#451 = CARTESIAN_POINT ( 'NONE',  ( 48.44839578895035714, 6.915462372279391090, 7.383556247495413061 ) ) ;
#452 = AXIS2_PLACEMENT_3D ( 'NONE', #965, #358, #535 ) ;
#453 = CARTESIAN_POINT ( 'NONE',  ( 0.000000000000000000, 4.000000000000000000, 0.000000000000000000 ) ) ;
#454 = CARTESIAN_POINT ( 'NONE',  ( 46.99999999999999289, -6.999999999999999112, -2.645751311064580502 ) ) ;
#455 = CIRCLE ( 'NONE', #193, 89.75568918539943297 ) ;
#456 = CARTESIAN_POINT ( 'NONE',  ( 41.76526722227299615, -4.153546461376359744, -7.013626832060823268 ) ) ;
#457 = DIRECTION ( 'NONE',  ( 0.000000000000000000, 0.000000000000000000, 1.000000000000000000 ) ) ;
#458 = EDGE_CURVE ( 'NONE', #888, #175, #455, .T. ) ;
#459 = ORIENTED_EDGE ( 'NONE', *, *, #1038, .T. ) ;
#460 = CARTESIAN_POINT ( 'NONE',  ( 40.96447508758857481, 4.033053934391021222, 7.002794484420090448 ) ) ;
#461 = CYLINDRICAL_SURFACE ( 'NONE', #1055, 4.000000000000006217 ) ;
#462 = CYLINDRICAL_SURFACE ( 'NONE', #1041, 4.000000000000006217 ) ;
#463 = ORIENTED_EDGE ( 'NONE', *, *, #424, .F. ) ;
#464 = CARTESIAN_POINT ( 'NONE',  ( 40.56035687340841633, -4.000000000000002665, -7.000003945921450033 ) ) ;
#465 = CYLINDRICAL_SURFACE ( 'NONE', #13, 0.5000000000000001110 ) ;
#466 = AXIS2_PLACEMENT_3D ( 'NONE', #449, #128, #892 ) ;
#467 = CYLINDRICAL_SURFACE ( 'NONE', #1037, 0.5000000000000000000 ) ;
#468 = CIRCLE ( 'NONE', #381, 5.500000000000003553 ) ;
#469 = EDGE_LOOP ( 'NONE', ( #125, #860, #986, #338 ) ) ;
#470 = AXIS2_PLACEMENT_3D ( 'NONE', #785, #623, #961 ) ;
#471 = CIRCLE ( 'NONE', #1090, 4.000000000000003553 ) ;
#472 = VERTEX_POINT ( 'NONE', #181 ) ;
#473 = PRODUCT_DEFINITION_FORMATION_WITH_SPECIFIED_SOURCE ( 'ANY', '', #1031, .NOT_KNOWN. ) ;
#474 = CARTESIAN_POINT ( 'NONE',  ( 48.83753345787084044, -6.979010642545200760, 7.421123962237659910 ) ) ;
#475 = CARTESIAN_POINT ( 'NONE',  ( 53.94405318873308630, -6.999999999999999112, 0.6666666666666672958 ) ) ;
#476 = DIRECTION ( 'NONE',  ( 0.000000000000000000, 1.000000000000000000, 0.000000000000000000 ) ) ;
#477 = AXIS2_PLACEMENT_3D ( 'NONE', #560, #903, #480 ) ;
#478 = ORIENTED_EDGE ( 'NONE', *, *, #842, .F. ) ;
#479 = ORIENTED_EDGE ( 'NONE', *, *, #1038, .F. ) ;
#480 = DIRECTION ( 'NONE',  ( 0.000000000000000000, 0.000000000000000000, 1.000000000000000000 ) ) ;
#481 = EDGE_CURVE ( 'NONE', #321, #715, #418, .T. ) ;
#482 = DIRECTION ( 'NONE',  ( 0.000000000000000000, 1.000000000000000000, 0.000000000000000000 ) ) ;
#483 = DIRECTION ( 'NONE',  ( 0.000000000000000000, 0.000000000000000000, 1.000000000000000000 ) ) ;
#484 = EDGE_CURVE ( 'NONE', #1052, #745, #897, .T. ) ;
#485 = EDGE_LOOP ( 'NONE', ( #585, #607 ) ) ;
#486 = CARTESIAN_POINT ( 'NONE',  ( 44.06579924211664689, -4.866996633716060394, 7.082460367347708008 ) ) ;
#487 = ORIENTED_EDGE ( 'NONE', *, *, #424, .T. ) ;
#488 = AXIS2_PLACEMENT_3D ( 'NONE', #891, #120, #534 ) ;
#489 = AXIS2_PLACEMENT_3D ( 'NONE', #676, #606, #18 ) ;
#490 = ORIENTED_EDGE ( 'NONE', *, *, #396, .F. ) ;
#491 = CARTESIAN_POINT ( 'NONE',  ( 46.58892357854620769, -6.123555358061812726, 7.230464721982063026 ) ) ;
#492 = DIRECTION ( 'NONE',  ( 1.000000000000000000, 0.000000000000000000, 0.000000000000000000 ) ) ;
#493 = ORIENTED_EDGE ( 'NONE', *, *, #985, .F. ) ;
#494 = EDGE_CURVE ( 'NONE', #209, #1054, #1076, .T. ) ;
#495 = DIRECTION ( 'NONE',  ( 0.000000000000000000, 0.000000000000000000, -1.000000000000000000 ) ) ;
#496 = DIRECTION ( 'NONE',  ( 0.000000000000000000, 1.000000000000000000, 0.000000000000000000 ) ) ;
#497 = VERTEX_POINT ( 'NONE', #302 ) ;
#498 = EDGE_LOOP ( 'NONE', ( #382, #518, #479, #673 ) ) ;
#499 = CARTESIAN_POINT ( 'NONE',  ( 48.83753345787084044, 6.979010642545205201, -7.421123962237659910 ) ) ;
#500 = EDGE_LOOP ( 'NONE', ( #720, #165, #342, #96 ) ) ;
#501 = DIRECTION ( 'NONE',  ( 0.000000000000000000, 0.000000000000000000, 1.000000000000000000 ) ) ;
#502 = VERTEX_POINT ( 'NONE', #454 ) ;
#503 = AXIS2_PLACEMENT_3D ( 'NONE', #1077, #320, #857 ) ;
#504 = VECTOR ( 'NONE', #681, 1000.000000000000000 ) ;
#505 = ORIENTED_EDGE ( 'NONE', *, *, #740, .T. ) ;
#506 = CARTESIAN_POINT ( 'NONE',  ( 49.24047014333928729, -6.999999999999999112, -7.461441844364998133 ) ) ;
#507 = AXIS2_PLACEMENT_3D ( 'NONE', #124, #117, #41 ) ;
#508 = CARTESIAN_POINT ( 'NONE',  ( 47.32651989392915937, -6.488495449943532556, -7.286564351961798636 ) ) ;
#509 = PLANE ( 'NONE',  #756 ) ;
#510 = CARTESIAN_POINT ( 'NONE',  ( 0.000000000000000000, -20.55634918610405393, 0.000000000000000000 ) ) ;
#511 = VERTEX_POINT ( 'NONE', #1048 ) ;
#512 = ORIENTED_EDGE ( 'NONE', *, *, #442, .T. ) ;
#513 = CARTESIAN_POINT ( 'NONE',  ( 41.75827927324567668, 4.129187114227810262, -7.011003797620283251 ) ) ;
#514 = EDGE_CURVE ( 'NONE', #511, #439, #294, .T. ) ;
#515 = ORIENTED_EDGE ( 'NONE', *, *, #693, .T. ) ;
#516 = CARTESIAN_POINT ( 'NONE',  ( 46.99999999999998579, -6.999999999999999112, 2.645751311064583611 ) ) ;
#517 = EDGE_CURVE ( 'NONE', #817, #1016, #208, .T. ) ;
#518 = ORIENTED_EDGE ( 'NONE', *, *, #939, .F. ) ;
#519 = VERTEX_POINT ( 'NONE', #1051 ) ;
#520 = CARTESIAN_POINT ( 'NONE',  ( 0.000000000000000000, -20.55634918610405393, 0.000000000000000000 ) ) ;
#521 = LINE ( 'NONE', #278, #613 ) ;
#522 = CARTESIAN_POINT ( 'NONE',  ( 40.15085337780993768, -4.000000000000000000, 96.75568918539943297 ) ) ;
#523 = ORIENTED_EDGE ( 'NONE', *, *, #1071, .F. ) ;
#524 = CIRCLE ( 'NONE', #503, 7.500000000000000000 ) ;
#525 = FACE_OUTER_BOUND ( 'NONE', #1042, .T. ) ;
#526 = VECTOR ( 'NONE', #846, 1000.000000000000000 ) ;
#527 = LINE ( 'NONE', #858, #102 ) ;
#528 = LINE ( 'NONE', #187, #133 ) ;
#529 = EDGE_CURVE ( 'NONE', #326, #431, #900, .T. ) ;
#530 = EDGE_CURVE ( 'NONE', #390, #114, #368, .T. ) ;
#531 = CARTESIAN_POINT ( 'NONE',  ( 43.33794523556855438, -4.571225964309099332, -7.053182532366991886 ) ) ;
#532 = LINE ( 'NONE', #1023, #263 ) ;
#533 = FACE_BOUND ( 'NONE', #739, .T. ) ;
#534 = DIRECTION ( 'NONE',  ( 0.000000000000000000, 0.000000000000000000, 1.000000000000000000 ) ) ;
#535 = DIRECTION ( 'NONE',  ( 1.148578594347898068E-15, 0.000000000000000000, 1.000000000000000000 ) ) ;
#536 = CARTESIAN_POINT ( 'NONE',  ( 56.95970545353752357, 4.000000000000000000, 0.7500000000000003331 ) ) ;
#537 = DIRECTION ( 'NONE',  ( -0.000000000000000000, -1.000000000000000000, 0.000000000000000000 ) ) ;
#538 = AXIS2_PLACEMENT_3D ( 'NONE', #988, #74, #909 ) ;
#539 = CARTESIAN_POINT ( 'NONE',  ( 56.95970545353752357, -7.000000000000000000, 0.2500000000000003331 ) ) ;
#540 = VECTOR ( 'NONE', #256, 1000.000000000000000 ) ;
#541 = EDGE_CURVE ( 'NONE', #655, #750, #83, .T. ) ;
#542 = ORIENTED_EDGE ( 'NONE', *, *, #132, .T. ) ;
#543 = AXIS2_PLACEMENT_3D ( 'NONE', #821, #323, #640 ) ;
#544 = CARTESIAN_POINT ( 'NONE',  ( 42.16346051728290689, -4.241557474609256140, -7.021712721919087130 ) ) ;
#545 = VECTOR ( 'NONE', #427, 1000.000000000000000 ) ;
#546 = FACE_OUTER_BOUND ( 'NONE', #999, .T. ) ;
#547 = DIRECTION ( 'NONE',  ( -0.000000000000000000, -1.000000000000000000, -0.000000000000000000 ) ) ;
#548 = VERTEX_POINT ( 'NONE', #975 ) ;
#549 = VERTEX_POINT ( 'NONE', #28 ) ;
#550 = CARTESIAN_POINT ( 'NONE',  ( 40.15171916698771071, 4.000000000000000000, -7.000000004175735313 ) ) ;
#551 = CARTESIAN_POINT ( 'NONE',  ( 50.00000000000000000, -6.999999999999999112, 0.000000000000000000 ) ) ;
#552 = ORIENTED_EDGE ( 'NONE', *, *, #924, .T. ) ;
#553 = DIRECTION ( 'NONE',  ( 1.000000000000000000, 0.000000000000000000, 0.000000000000000000 ) ) ;
#554 = AXIS2_PLACEMENT_3D ( 'NONE', #680, #604, #93 ) ;
#555 = CARTESIAN_POINT ( 'NONE',  ( 40.15085337780993768, 4.000000000000000000, 7.000000000000006217 ) ) ;
#556 = CIRCLE ( 'NONE', #261, 0.5000000000000000000 ) ;
#557 = ORIENTED_EDGE ( 'NONE', *, *, #287, .T. ) ;
#558 = CIRCLE ( 'NONE', #983, 4.000000000000003553 ) ;
#559 = EDGE_CURVE ( 'NONE', #871, #592, #633, .T. ) ;
#560 = CARTESIAN_POINT ( 'NONE',  ( 0.000000000000000000, -20.55634918610405393, 0.000000000000000000 ) ) ;
#561 = ADVANCED_FACE ( 'NONE', ( #205 ), #462, .F. ) ;
#562 = CYLINDRICAL_SURFACE ( 'NONE', #1017, 15.00000000000001421 ) ;
#563 = CARTESIAN_POINT ( 'NONE',  ( 6.735557395310445967E-16, -4.500000000000000888, -5.500000000000003553 ) ) ;
#564 = ORIENTED_EDGE ( 'NONE', *, *, #987, .T. ) ;
#565 = CARTESIAN_POINT ( 'NONE',  ( 43.31802494998294151, -4.564302714991244514, 7.052504194044766805 ) ) ;
#566 = CARTESIAN_POINT ( 'NONE',  ( 0.000000000000000000, -4.000000000000000000, 0.000000000000000000 ) ) ;
#567 = ORIENTED_EDGE ( 'NONE', *, *, #595, .F. ) ;
#568 = ORIENTED_EDGE ( 'NONE', *, *, #104, .T. ) ;
#569 = ORIENTED_EDGE ( 'NONE', *, *, #167, .F. ) ;
#570 = SURFACE_STYLE_FILL_AREA ( #318 ) ;
#571 = DIRECTION ( 'NONE',  ( 0.000000000000000000, 0.000000000000000000, 1.000000000000000000 ) ) ;
#572 = EDGE_CURVE ( 'NONE', #321, #639, #558, .T. ) ;
#573 = AXIS2_PLACEMENT_3D ( 'NONE', #971, #628, #38 ) ;
#574 = EDGE_LOOP ( 'NONE', ( #523, #393, #731, #662 ) ) ;
#575 = AXIS2_PLACEMENT_3D ( 'NONE', #453, #605, #437 ) ;
#576 = ORIENTED_EDGE ( 'NONE', *, *, #823, .F. ) ;
#577 =( NAMED_UNIT ( * ) SI_UNIT ( $, .STERADIAN. ) SOLID_ANGLE_UNIT ( ) );
#578 = CARTESIAN_POINT ( 'NONE',  ( 50.00000000000000000, 7.000000000000000000, 0.000000000000000000 ) ) ;
#579 = FACE_OUTER_BOUND ( 'NONE', #1059, .T. ) ;
#580 = ORIENTED_EDGE ( 'NONE', *, *, #20, .T. ) ;
#581 = ORIENTED_EDGE ( 'NONE', *, *, #52, .F. ) ;
#582 = FACE_OUTER_BOUND ( 'NONE', #954, .T. ) ;
#583 = PLANE ( 'NONE',  #931 ) ;
#584 = DIRECTION ( 'NONE',  ( 0.000000000000000000, -1.000000000000000000, 0.000000000000000000 ) ) ;
#585 = ORIENTED_EDGE ( 'NONE', *, *, #878, .F. ) ;
#586 = VERTEX_POINT ( 'NONE', #365 ) ;
#587 = CARTESIAN_POINT ( 'NONE',  ( 46.58892357854620769, 6.123555358061812726, -7.230464721982063026 ) ) ;
#588 = DIRECTION ( 'NONE',  ( 0.000000000000000000, 0.000000000000000000, 1.000000000000000000 ) ) ;
#589 = DIRECTION ( 'NONE',  ( 0.000000000000000000, 0.000000000000000000, 1.000000000000000000 ) ) ;
#590 = ORIENTED_EDGE ( 'NONE', *, *, #740, .F. ) ;
#591 = AXIS2_PLACEMENT_3D ( 'NONE', #748, #1085, #54 ) ;
#592 = VERTEX_POINT ( 'NONE', #539 ) ;
#593 =( NAMED_UNIT ( * ) PLANE_ANGLE_UNIT ( ) SI_UNIT ( $, .RADIAN. ) );
#594 = VECTOR ( 'NONE', #887, 1000.000000000000000 ) ;
#595 = EDGE_CURVE ( 'NONE', #138, #376, #883, .T. ) ;
#596 = ADVANCED_FACE ( 'NONE', ( #805, #533 ), #709, .F. ) ;
#597 = DIRECTION ( 'NONE',  ( 0.000000000000000000, 0.000000000000000000, -1.000000000000000000 ) ) ;
#598 = CIRCLE ( 'NONE', #787, 15.00000000000001421 ) ;
#599 = CYLINDRICAL_SURFACE ( 'NONE', #896, 89.75568918539943297 ) ;
#600 = DIRECTION ( 'NONE',  ( 0.000000000000000000, 1.000000000000000000, -0.000000000000000000 ) ) ;
#601 = ORIENTED_EDGE ( 'NONE', *, *, #1020, .T. ) ;
#602 = ORIENTED_EDGE ( 'NONE', *, *, #889, .T. ) ;
#603 = CARTESIAN_POINT ( 'NONE',  ( 0.000000000000000000, 0.000000000000000000, 0.000000000000000000 ) ) ;
#604 = DIRECTION ( 'NONE',  ( -0.000000000000000000, -1.000000000000000000, 0.000000000000000000 ) ) ;
#605 = DIRECTION ( 'NONE',  ( 0.000000000000000000, 1.000000000000000000, -0.000000000000000000 ) ) ;
#606 = DIRECTION ( 'NONE',  ( -0.000000000000000000, -1.000000000000000000, 0.000000000000000000 ) ) ;
#607 = ORIENTED_EDGE ( 'NONE', *, *, #530, .F. ) ;
#608 = CARTESIAN_POINT ( 'NONE',  ( 49.24047014333928729, -6.999999999999999112, 7.461441844364998133 ) ) ;
#609 = DIRECTION ( 'NONE',  ( 0.000000000000000000, 0.000000000000000000, 1.000000000000000000 ) ) ;
#610 = DIRECTION ( 'NONE',  ( -0.000000000000000000, -1.000000000000000000, 0.000000000000000000 ) ) ;
#611 = ADVANCED_FACE ( 'NONE', ( #1045 ), #375, .T. ) ;
#612 = AXIS2_PLACEMENT_3D ( 'NONE', #578, #476, #920 ) ;
#613 = VECTOR ( 'NONE', #956, 1000.000000000000000 ) ;
#614 = ORIENTED_EDGE ( 'NONE', *, *, #79, .T. ) ;
#615 = AXIS2_PLACEMENT_3D ( 'NONE', #689, #10, #186 ) ;
#616 = CARTESIAN_POINT ( 'NONE',  ( 40.56035687340841633, 4.000000000000002665, 7.000003945921450033 ) ) ;
#617 = AXIS2_PLACEMENT_3D ( 'NONE', #510, #274, #101 ) ;
#618 = DIRECTION ( 'NONE',  ( 0.000000000000000000, 1.000000000000000000, 0.000000000000000000 ) ) ;
#619 = DIRECTION ( 'NONE',  ( 0.000000000000000000, 0.000000000000000000, 1.000000000000000000 ) ) ;
#620 = VERTEX_POINT ( 'NONE', #1058 ) ;
#621 = COLOUR_RGB ( '',0.7921568627450980005, 0.8196078431372548767, 0.9333333333333333481 ) ;
#622 = CARTESIAN_POINT ( 'NONE',  ( 50.00000000000000000, 7.000000000000000000, 0.000000000000000000 ) ) ;
#623 = DIRECTION ( 'NONE',  ( -0.000000000000000000, -1.000000000000000000, 0.000000000000000000 ) ) ;
#624 = CARTESIAN_POINT ( 'NONE',  ( 0.000000000000000000, -4.500000000000000888, 0.000000000000000000 ) ) ;
#625 = ORIENTED_EDGE ( 'NONE', *, *, #710, .T. ) ;
#626 = FACE_OUTER_BOUND ( 'NONE', #450, .T. ) ;
#627 = DIRECTION ( 'NONE',  ( -0.000000000000000000, -1.000000000000000000, -0.000000000000000000 ) ) ;
#628 = DIRECTION ( 'NONE',  ( 0.000000000000000000, 1.000000000000000000, -0.000000000000000000 ) ) ;
#629 = ORIENTED_EDGE ( 'NONE', *, *, #774, .T. ) ;
#630 = CARTESIAN_POINT ( 'NONE',  ( 40.96447508758856770, -4.033053934391021222, -7.002794484420090448 ) ) ;
#631 = VECTOR ( 'NONE', #1083, 1000.000000000000000 ) ;
#632 = FACE_OUTER_BOUND ( 'NONE', #4, .T. ) ;
#633 = LINE ( 'NONE', #882, #29 ) ;
#634 = CIRCLE ( 'NONE', #866, 7.500000000000000000 ) ;
#635 = ORIENTED_EDGE ( 'NONE', *, *, #169, .F. ) ;
#636 = ORIENTED_EDGE ( 'NONE', *, *, #908, .T. ) ;
#637 = CARTESIAN_POINT ( 'NONE',  ( 45.17474932794220877, 5.390936356325210177, 7.139971585798843279 ) ) ;
#638 = PLANE ( 'NONE',  #466 ) ;
#639 = VERTEX_POINT ( 'NONE', #212 ) ;
#640 = DIRECTION ( 'NONE',  ( 0.000000000000000000, 0.000000000000000000, 1.000000000000000000 ) ) ;
#641 = DIRECTION ( 'NONE',  ( -0.000000000000000000, -1.000000000000000000, -0.000000000000000000 ) ) ;
#642 = FACE_OUTER_BOUND ( 'NONE', #1099, .T. ) ;
#643 = ORIENTED_EDGE ( 'NONE', *, *, #249, .F. ) ;
#644 = ADVANCED_FACE ( 'NONE', ( #815 ), #638, .T. ) ;
#645 = ADVANCED_FACE ( 'NONE', ( #794 ), #467, .T. ) ;
#646 = CARTESIAN_POINT ( 'NONE',  ( 41.75827927324567668, -4.129187114227810262, 7.011003797620283251 ) ) ;
#647 = AXIS2_PLACEMENT_3D ( 'NONE', #566, #242, #233 ) ;
#648 = CYLINDRICAL_SURFACE ( 'NONE', #260, 15.00000000000001421 ) ;
#649 = EDGE_LOOP ( 'NONE', ( #386, #174, #835, #84, #271, #159, #154, #828, #239, #691, #625, #683, #160, #61 ) ) ;
#650 = CIRCLE ( 'NONE', #489, 0.4999999999999998890 ) ;
#651 = DIRECTION ( 'NONE',  ( -0.000000000000000000, -1.000000000000000000, -0.000000000000000000 ) ) ;
#652 = FACE_OUTER_BOUND ( 'NONE', #772, .T. ) ;
#653 = EDGE_LOOP ( 'NONE', ( #1079, #781 ) ) ;
#654 = ORIENTED_EDGE ( 'NONE', *, *, #135, .F. ) ;
#655 = VERTEX_POINT ( 'NONE', #286 ) ;
#656 = CARTESIAN_POINT ( 'NONE',  ( 50.00000000000000000, 4.000000000000000000, 0.000000000000000000 ) ) ;
#657 = CARTESIAN_POINT ( 'NONE',  ( 50.00000000000000000, 7.000000000000000000, 0.000000000000000000 ) ) ;
#658 = PLANE ( 'NONE',  #363 ) ;
#659 = PRESENTATION_STYLE_ASSIGNMENT (( #310 ) ) ;
#660 = LINE ( 'NONE', #180, #64 ) ;
#661 = VECTOR ( 'NONE', #357, 1000.000000000000000 ) ;
#662 = ORIENTED_EDGE ( 'NONE', *, *, #79, .F. ) ;
#663 = CIRCLE ( 'NONE', #780, 5.500000000000003553 ) ;
#664 = AXIS2_PLACEMENT_3D ( 'NONE', #89, #356, #423 ) ;
#665 = CYLINDRICAL_SURFACE ( 'NONE', #336, 89.75568918539943297 ) ;
#666 = DIRECTION ( 'NONE',  ( 0.000000000000000000, 1.000000000000000000, -0.000000000000000000 ) ) ;
#667 = FACE_OUTER_BOUND ( 'NONE', #706, .T. ) ;
#668 = VECTOR ( 'NONE', #553, 1000.000000000000000 ) ;
#669 = EDGE_CURVE ( 'NONE', #773, #511, #468, .T. ) ;
#670 = ORIENTED_EDGE ( 'NONE', *, *, #288, .F. ) ;
#671 = ADVANCED_FACE ( 'NONE', ( #642 ), #832, .F. ) ;
#672 = DIRECTION ( 'NONE',  ( 1.000000000000000000, 0.000000000000000000, 0.000000000000000000 ) ) ;
#673 = ORIENTED_EDGE ( 'NONE', *, *, #998, .F. ) ;
#674 = CARTESIAN_POINT ( 'NONE',  ( 48.83531482376692878, -6.999999999999999112, -7.420199472150768472 ) ) ;
#675 = DIRECTION ( 'NONE',  ( -1.311327688828621993E-15, 0.000000000000000000, 1.000000000000000000 ) ) ;
#676 = CARTESIAN_POINT ( 'NONE',  ( 56.95970545353752357, -6.999999999999999112, 0.7500000000000003331 ) ) ;
#677 = EDGE_CURVE ( 'NONE', #620, #439, #844, .T. ) ;
#678 = ORIENTED_EDGE ( 'NONE', *, *, #1011, .F. ) ;
#679 = LINE ( 'NONE', #245, #545 ) ;
#680 = CARTESIAN_POINT ( 'NONE',  ( 0.000000000000000000, -4.500000000000000888, 0.000000000000000000 ) ) ;
#681 = DIRECTION ( 'NONE',  ( 1.311327688828621993E-15, -0.000000000000000000, -1.000000000000000000 ) ) ;
#682 = CARTESIAN_POINT ( 'NONE',  ( 49.24047014333928729, 4.000000000000000000, 7.461441844364998133 ) ) ;
#683 = ORIENTED_EDGE ( 'NONE', *, *, #952, .T. ) ;
#684 = AXIS2_PLACEMENT_3D ( 'NONE', #697, #717, #289 ) ;
#685 = TOROIDAL_SURFACE ( 'NONE', #615, 12.08257569495584072, 5.000000000000000000 ) ;
#686 = EDGE_LOOP ( 'NONE', ( #778, #425, #678, #346 ) ) ;
#687 = AXIS2_PLACEMENT_3D ( 'NONE', #1009, #1015, #589 ) ;
#688 = FACE_OUTER_BOUND ( 'NONE', #1091, .T. ) ;
#689 = CARTESIAN_POINT ( 'NONE',  ( 50.00000000000000000, 9.000000000000001776, 0.000000000000000000 ) ) ;
#690 = DIRECTION ( 'NONE',  ( 0.000000000000000000, 0.000000000000000000, -1.000000000000000000 ) ) ;
#691 = ORIENTED_EDGE ( 'NONE', *, *, #801, .T. ) ;
#692 = CARTESIAN_POINT ( 'NONE',  ( 40.96487041854283007, 4.000000000000000888, -7.000007847885256318 ) ) ;
#693 = EDGE_CURVE ( 'NONE', #217, #251, #754, .T. ) ;
#694 = FACE_OUTER_BOUND ( 'NONE', #716, .T. ) ;
#695 = CARTESIAN_POINT ( 'NONE',  ( 57.45682727164735581, 7.000000000000000000, -0.8035714285714289362 ) ) ;
#696 = ORIENTED_EDGE ( 'NONE', *, *, #408, .F. ) ;
#697 = CARTESIAN_POINT ( 'NONE',  ( 40.15085337780993768, 4.000000000000000000, -96.75568918539943297 ) ) ;
#698 = LINE ( 'NONE', #351, #78 ) ;
#699 = FACE_OUTER_BOUND ( 'NONE', #574, .T. ) ;
#700 = AXIS2_PLACEMENT_3D ( 'NONE', #370, #537, #1046 ) ;
#701 = CIRCLE ( 'NONE', #737, 89.75568918539943297 ) ;
#702 = DIRECTION ( 'NONE',  ( 1.000000000000000000, 0.000000000000000000, 0.000000000000000000 ) ) ;
#703 = AXIS2_PLACEMENT_3D ( 'NONE', #876, #724, #714 ) ;
#704 = DIRECTION ( 'NONE',  ( -0.000000000000000000, -1.000000000000000000, -0.000000000000000000 ) ) ;
#705 = DIRECTION ( 'NONE',  ( 9.251858538542971828E-16, 0.000000000000000000, 1.000000000000000000 ) ) ;
#706 = EDGE_LOOP ( 'NONE', ( #23, #63, #2, #487 ) ) ;
#707 = CARTESIAN_POINT ( 'NONE',  ( 40.15171916698771071, -4.000000000000000000, -7.000000004175735313 ) ) ;
#708 = CARTESIAN_POINT ( 'NONE',  ( 53.94405318873308630, 7.000000000000000000, -0.6666666666666666297 ) ) ;
#709 = PLANE ( 'NONE',  #573 ) ;
#710 = EDGE_CURVE ( 'NONE', #890, #928, #146, .T. ) ;
#711 = ADVANCED_FACE ( 'NONE', ( #652 ), #65, .T. ) ;
#712 = VERTEX_POINT ( 'NONE', #325 ) ;
#713 = CARTESIAN_POINT ( 'NONE',  ( 46.24923855164034592, 5.943713055717100957, 7.206697430525349723 ) ) ;
#714 = DIRECTION ( 'NONE',  ( 0.000000000000000000, 0.000000000000000000, 1.000000000000000000 ) ) ;
#715 = VERTEX_POINT ( 'NONE', #328 ) ;
#716 = EDGE_LOOP ( 'NONE', ( #922, #614 ) ) ;
#717 = DIRECTION ( 'NONE',  ( 0.000000000000000000, 1.000000000000000000, -0.000000000000000000 ) ) ;
#718 = DIRECTION ( 'NONE',  ( 0.000000000000000000, 0.000000000000000000, 1.000000000000000000 ) ) ;
#719 = CIRCLE ( 'NONE', #150, 15.00000000000001421 ) ;
#720 = ORIENTED_EDGE ( 'NONE', *, *, #268, .F. ) ;
#721 = ORIENTED_EDGE ( 'NONE', *, *, #218, .F. ) ;
#722 = CARTESIAN_POINT ( 'NONE',  ( 50.00000000000000000, -4.000000000000000000, 0.000000000000000000 ) ) ;
#723 = EDGE_CURVE ( 'NONE', #248, #209, #1053, .T. ) ;
#724 = DIRECTION ( 'NONE',  ( 0.000000000000000000, 1.000000000000000000, 0.000000000000000000 ) ) ;
#725 = ADVANCED_FACE ( 'NONE', ( #151 ), #222, .F. ) ;
#726 = ORIENTED_EDGE ( 'NONE', *, *, #249, .T. ) ;
#727 = ORIENTED_EDGE ( 'NONE', *, *, #334, .F. ) ;
#728 = CARTESIAN_POINT ( 'NONE',  ( 1.836970198721031561E-15, -4.000000000000000000, 15.00000000000001421 ) ) ;
#729 = LINE ( 'NONE', #391, #298 ) ;
#730 = FACE_OUTER_BOUND ( 'NONE', #498, .T. ) ;
#731 = ORIENTED_EDGE ( 'NONE', *, *, #304, .T. ) ;
#732 = FACE_OUTER_BOUND ( 'NONE', #1087, .T. ) ;
#733 = AXIS2_PLACEMENT_3D ( 'NONE', #137, #1068, #312 ) ;
#734 = DIRECTION ( 'NONE',  ( -0.000000000000000000, -1.000000000000000000, -0.000000000000000000 ) ) ;
#735 = VECTOR ( 'NONE', #675, 1000.000000000000000 ) ;
#736 = ORIENTED_EDGE ( 'NONE', *, *, #572, .T. ) ;
#737 = AXIS2_PLACEMENT_3D ( 'NONE', #116, #195, #107 ) ;
#738 = ADVANCED_FACE ( 'NONE', ( #836 ), #991, .T. ) ;
#739 = EDGE_LOOP ( 'NONE', ( #414, #76 ) ) ;
#740 = EDGE_CURVE ( 'NONE', #1016, #888, #143, .T. ) ;
#741 = CARTESIAN_POINT ( 'NONE',  ( 40.96487041854283007, -4.000000000000000888, 7.000007847885256318 ) ) ;
#742 = CARTESIAN_POINT ( 'NONE',  ( 0.000000000000000000, 4.000000000000000000, 0.000000000000000000 ) ) ;
#743 =( GEOMETRIC_REPRESENTATION_CONTEXT ( 3 ) GLOBAL_UNCERTAINTY_ASSIGNED_CONTEXT ( ( #1060 ) ) GLOBAL_UNIT_ASSIGNED_CONTEXT ( ( #58, #148, #577 ) ) REPRESENTATION_CONTEXT ( 'NONE', 'WORKASPACE' ) );
#744 = ORIENTED_EDGE ( 'NONE', *, *, #408, .T. ) ;
#745 = VERTEX_POINT ( 'NONE', #899 ) ;
#746 = ORIENTED_EDGE ( 'NONE', *, *, #203, .F. ) ;
#747 = CARTESIAN_POINT ( 'NONE',  ( 40.15085337780993768, 4.000000000000000000, 7.000000000000006217 ) ) ;
#748 = CARTESIAN_POINT ( 'NONE',  ( 0.000000000000000000, 4.000000000000000000, 0.000000000000000000 ) ) ;
#749 = DIRECTION ( 'NONE',  ( -0.000000000000000000, -1.000000000000000000, -0.000000000000000000 ) ) ;
#750 = VERTEX_POINT ( 'NONE', #409 ) ;
#751 = EDGE_LOOP ( 'NONE', ( #670, #829, #1069, #244 ) ) ;
#752 = LINE ( 'NONE', #1100, #303 ) ;
#753 = DIRECTION ( 'NONE',  ( 0.000000000000000000, 0.000000000000000000, 1.000000000000000000 ) ) ;
#754 = CIRCLE ( 'NONE', #1013, 4.000000000000003553 ) ;
#755 = PLANE ( 'NONE',  #1075 ) ;
#756 = AXIS2_PLACEMENT_3D ( 'NONE', #852, #88, #71 ) ;
#757 = VERTEX_POINT ( 'NONE', #905 ) ;
#758 = AXIS2_PLACEMENT_3D ( 'NONE', #215, #221, #136 ) ;
#759 = AXIS2_PLACEMENT_3D ( 'NONE', #359, #352, #859 ) ;
#760 = VERTEX_POINT ( 'NONE', #389 ) ;
#761 = DIRECTION ( 'NONE',  ( -0.000000000000000000, 0.000000000000000000, 1.000000000000000000 ) ) ;
#762 = ADVANCED_FACE ( 'NONE', ( #730 ), #99, .F. ) ;
#763 = CARTESIAN_POINT ( 'NONE',  ( 0.000000000000000000, -4.500000000000000888, 0.000000000000000000 ) ) ;
#764 = DIRECTION ( 'NONE',  ( -0.000000000000000000, -1.000000000000000000, -0.000000000000000000 ) ) ;
#765 = ADVANCED_FACE ( 'NONE', ( #237 ), #648, .T. ) ;
#766 = ORIENTED_EDGE ( 'NONE', *, *, #6, .F. ) ;
#767 = ORIENTED_EDGE ( 'NONE', *, *, #337, .F. ) ;
#768 = CARTESIAN_POINT ( 'NONE',  ( 0.000000000000000000, -4.000000000000000000, 0.000000000000000000 ) ) ;
#769 = FACE_OUTER_BOUND ( 'NONE', #686, .T. ) ;
#770 = FACE_OUTER_BOUND ( 'NONE', #377, .T. ) ;
#771 = CARTESIAN_POINT ( 'NONE',  ( 54.43705983732471765, -6.999999999999999112, -0.7499999999999996669 ) ) ;
#772 = EDGE_LOOP ( 'NONE', ( #976, #219, #569, #635 ) ) ;
#773 = VERTEX_POINT ( 'NONE', #563 ) ;
#774 = EDGE_CURVE ( 'NONE', #251, #326, #60, .T. ) ;
#775 = CARTESIAN_POINT ( 'NONE',  ( 45.51672952182422449, 5.564582838075653015, -7.159820041953334879 ) ) ;
#776 = DIRECTION ( 'NONE',  ( 1.000000000000000000, 0.000000000000000000, 0.000000000000000000 ) ) ;
#777 = CARTESIAN_POINT ( 'NONE',  ( 0.000000000000000000, 4.500000000000000888, 5.500000000000003553 ) ) ;
#778 = ORIENTED_EDGE ( 'NONE', *, *, #878, .T. ) ;
#779 = AXIS2_PLACEMENT_3D ( 'NONE', #1081, #978, #994 ) ;
#780 = AXIS2_PLACEMENT_3D ( 'NONE', #158, #496, #833 ) ;
#781 = ORIENTED_EDGE ( 'NONE', *, *, #572, .F. ) ;
#782 = CARTESIAN_POINT ( 'NONE',  ( 46.99999999999998579, 7.000000000000000000, -2.645751311064580502 ) ) ;
#783 = CARTESIAN_POINT ( 'NONE',  ( 46.23263458186128361, 5.935018169416350631, -7.205567288506036228 ) ) ;
#784 = APPLICATION_CONTEXT ( 'automotive_design' ) ;
#785 = CARTESIAN_POINT ( 'NONE',  ( 50.00000000000000000, -6.999999999999999112, 0.000000000000000000 ) ) ;
#786 = FACE_OUTER_BOUND ( 'NONE', #1010, .T. ) ;
#787 = AXIS2_PLACEMENT_3D ( 'NONE', #768, #15, #840 ) ;
#788 = ORIENTED_EDGE ( 'NONE', *, *, #369, .T. ) ;
#789 = FACE_BOUND ( 'NONE', #1049, .T. ) ;
#790 = PLANE ( 'NONE',  #953 ) ;
#791 = CARTESIAN_POINT ( 'NONE',  ( 0.000000000000000000, -4.000000000000000000, 5.500000000000003553 ) ) ;
#792 = CARTESIAN_POINT ( 'NONE',  ( 47.69342146405699623, 6.658242507723079129, 7.316676318533612999 ) ) ;
#793 = DIRECTION ( 'NONE',  ( -0.000000000000000000, -1.000000000000000000, -0.000000000000000000 ) ) ;
#794 = FACE_OUTER_BOUND ( 'NONE', #226, .T. ) ;
#795 = AXIS2_PLACEMENT_3D ( 'NONE', #1050, #36, #702 ) ;
#796 = CIRCLE ( 'NONE', #131, 4.000000000000003553 ) ;
#797 = ORIENTED_EDGE ( 'NONE', *, *, #810, .T. ) ;
#798 = CARTESIAN_POINT ( 'NONE',  ( 41.76526722227300326, 4.153546461376359744, 7.013626832060823268 ) ) ;
#799 = CARTESIAN_POINT ( 'NONE',  ( 1.836970198721031561E-15, 4.000000000000000000, 15.00000000000001421 ) ) ;
#800 = DIRECTION ( 'NONE',  ( -0.000000000000000000, -1.000000000000000000, 0.000000000000000000 ) ) ;
#801 = EDGE_CURVE ( 'NONE', #398, #890, #524, .T. ) ;
#802 = ADVANCED_FACE ( 'NONE', ( #525 ), #98, .F. ) ;
#803 = MECHANICAL_DESIGN_GEOMETRIC_PRESENTATION_REPRESENTATION (  '', ( #1001 ), #743 ) ;
#804 = LINE ( 'NONE', #874, #661 ) ;
#805 = FACE_OUTER_BOUND ( 'NONE', #806, .T. ) ;
#806 = EDGE_LOOP ( 'NONE', ( #973, #1032 ) ) ;
#807 = CARTESIAN_POINT ( 'NONE',  ( 0.000000000000000000, -4.500000000000000888, -4.000000000000003553 ) ) ;
#808 = DIRECTION ( 'NONE',  ( -0.000000000000000000, -1.000000000000000000, -0.000000000000000000 ) ) ;
#809 = EDGE_LOOP ( 'NONE', ( #515, #629, #141, #906 ) ) ;
#810 = EDGE_CURVE ( 'NONE', #1054, #502, #937, .T. ) ;
#811 = CARTESIAN_POINT ( 'NONE',  ( 53.11001693982867522, 7.000000000000000000, 0.2500000000000003331 ) ) ;
#812 = ADVANCED_FACE ( 'NONE', ( #688 ), #843, .T. ) ;
#813 = AXIS2_PLACEMENT_3D ( 'NONE', #622, #960, #1033 ) ;
#814 = CIRCLE ( 'NONE', #297, 15.00000000000001421 ) ;
#815 = FACE_OUTER_BOUND ( 'NONE', #649, .T. ) ;
#816 = ORIENTED_EDGE ( 'NONE', *, *, #445, .T. ) ;
#817 = VERTEX_POINT ( 'NONE', #162 ) ;
#818 = CYLINDRICAL_SURFACE ( 'NONE', #477, 5.500000000000003553 ) ;
#819 = FACE_OUTER_BOUND ( 'NONE', #500, .T. ) ;
#820 = VERTEX_POINT ( 'NONE', #608 ) ;
#821 = CARTESIAN_POINT ( 'NONE',  ( 0.000000000000000000, 4.500000000000000888, 0.000000000000000000 ) ) ;
#822 = CARTESIAN_POINT ( 'NONE',  ( 50.00000000000000000, 4.000000000000000000, 0.000000000000000000 ) ) ;
#823 = EDGE_CURVE ( 'NONE', #511, #773, #62, .T. ) ;
#824 = ORIENTED_EDGE ( 'NONE', *, *, #774, .F. ) ;
#825 = CARTESIAN_POINT ( 'NONE',  ( 45.15740958010900385, -5.382347915924375670, 7.139000489618429590 ) ) ;
#826 = AXIS2_PLACEMENT_3D ( 'NONE', #291, #547, #113 ) ;
#827 = CARTESIAN_POINT ( 'NONE',  ( 0.000000000000000000, 4.000000000000000000, 0.000000000000000000 ) ) ;
#828 = ORIENTED_EDGE ( 'NONE', *, *, #334, .T. ) ;
#829 = ORIENTED_EDGE ( 'NONE', *, *, #987, .F. ) ;
#830 = CARTESIAN_POINT ( 'NONE',  ( 48.24778681562215610, -6.847678706713980823, 7.365755860007806355 ) ) ;
#831 = AXIS2_PLACEMENT_3D ( 'NONE', #656, #651, #236 ) ;
#832 = CYLINDRICAL_SURFACE ( 'NONE', #591, 4.000000000000003553 ) ;
#833 = DIRECTION ( 'NONE',  ( 0.000000000000000000, 0.000000000000000000, 1.000000000000000000 ) ) ;
#834 = ORIENTED_EDGE ( 'NONE', *, *, #369, .F. ) ;
#835 = ORIENTED_EDGE ( 'NONE', *, *, #693, .F. ) ;
#836 = FACE_OUTER_BOUND ( 'NONE', #469, .T. ) ;
#837 = LINE ( 'NONE', #938, #968 ) ;
#838 = ORIENTED_EDGE ( 'NONE', *, *, #677, .T. ) ;
#839 = ORIENTED_EDGE ( 'NONE', *, *, #90, .T. ) ;
#840 = DIRECTION ( 'NONE',  ( 0.000000000000000000, 0.000000000000000000, 1.000000000000000000 ) ) ;
#841 = ADVANCED_FACE ( 'NONE', ( #789, #1021 ), #944, .F. ) ;
#842 = EDGE_CURVE ( 'NONE', #919, #928, #867, .T. ) ;
#843 = CYLINDRICAL_SURFACE ( 'NONE', #295, 5.500000000000003553 ) ;
#844 = CIRCLE ( 'NONE', #647, 5.500000000000003553 ) ;
#845 = CARTESIAN_POINT ( 'NONE',  ( 46.99999999999999289, 4.000000000000000000, 0.000000000000000000 ) ) ;
#846 = DIRECTION ( 'NONE',  ( -0.000000000000000000, -1.000000000000000000, -0.000000000000000000 ) ) ;
#847 = ORIENTED_EDGE ( 'NONE', *, *, #324, .F. ) ;
#848 = AXIS2_PLACEMENT_3D ( 'NONE', #196, #308, #457 ) ;
#849 = ORIENTED_EDGE ( 'NONE', *, *, #447, .T. ) ;
#850 = APPLICATION_PROTOCOL_DEFINITION ( 'draft international standard', 'automotive_design', 1998, #784 ) ;
#851 = CARTESIAN_POINT ( 'NONE',  ( 46.60542775973515006, -6.132123892658813524, -7.231653541556858578 ) ) ;
#852 = CARTESIAN_POINT ( 'NONE',  ( 0.000000000000000000, -7.000000000000000000, 0.000000000000000000 ) ) ;
#853 = CIRCLE ( 'NONE', #1022, 15.00000000000001421 ) ;
#854 = DIRECTION ( 'NONE',  ( 0.000000000000000000, 1.000000000000000000, -0.000000000000000000 ) ) ;
#855 = ORIENTED_EDGE ( 'NONE', *, *, #998, .T. ) ;
#856 = ORIENTED_EDGE ( 'NONE', *, *, #288, .T. ) ;
#857 = DIRECTION ( 'NONE',  ( 0.000000000000000000, 0.000000000000000000, 1.000000000000000000 ) ) ;
#858 = CARTESIAN_POINT ( 'NONE',  ( 56.95970545353752357, 7.000000000000000000, -0.2499999999999996669 ) ) ;
#859 = DIRECTION ( 'NONE',  ( 0.000000000000000000, 0.000000000000000000, -1.000000000000000000 ) ) ;
#860 = ORIENTED_EDGE ( 'NONE', *, *, #904, .T. ) ;
#861 = ORIENTED_EDGE ( 'NONE', *, *, #52, .T. ) ;
#862 = DIRECTION ( 'NONE',  ( 0.000000000000000000, 0.000000000000000000, 1.000000000000000000 ) ) ;
#863 = CARTESIAN_POINT ( 'NONE',  ( 54.43705983732471765, 7.000000000000000000, -0.2499999999999996669 ) ) ;
#864 = DIRECTION ( 'NONE',  ( 0.000000000000000000, 0.000000000000000000, 1.000000000000000000 ) ) ;
#865 = CLOSED_SHELL ( 'NONE', ( #671, #995, #872, #765, #360, #802, #68, #738, #611, #644, #109, #317, #1084, #119, #330, #841, #55, #1030, #394, #250, #812, #596, #725, #561, #47, #762, #199, #880, #958, #367, #316, #645, #711 ) ) ;
#866 = AXIS2_PLACEMENT_3D ( 'NONE', #1044, #269, #285 ) ;
#867 = B_SPLINE_CURVE_WITH_KNOTS ( 'NONE', 3,
 ( #926, #692, #513, #1012, #435, #428, #775, #783, #587, #930, #343, #421, #16, #499, #1026, #272 ),
 .UNSPECIFIED., .F., .F.,
 ( 4, 2, 2, 2, 2, 2, 2, 4 ),
 ( 0.000000000000000000, 0.002411654382854068815, 0.004823308765708137630, 0.006029135957135180711, 0.007234963148562225527, 0.008440790339989269475, 0.009043703935702791449, 0.009646617531416313424 ),
 .UNSPECIFIED. ) ;
#868 = DIRECTION ( 'NONE',  ( 0.000000000000000000, 0.000000000000000000, 1.000000000000000000 ) ) ;
#869 = CARTESIAN_POINT ( 'NONE',  ( 0.000000000000000000, 4.000000000000000000, -15.00000000000001421 ) ) ;
#870 = CARTESIAN_POINT ( 'NONE',  ( 6.735557395310445967E-16, 4.000000000000000000, -5.500000000000003553 ) ) ;
#871 = VERTEX_POINT ( 'NONE', #86 ) ;
#872 = ADVANCED_FACE ( 'NONE', ( #769 ), #246, .T. ) ;
#873 = ORIENTED_EDGE ( 'NONE', *, *, #35, .T. ) ;
#874 = CARTESIAN_POINT ( 'NONE',  ( 57.45682727164735581, 4.000000000000000000, 0.8035714285714293803 ) ) ;
#875 = DIRECTION ( 'NONE',  ( 0.000000000000000000, 1.000000000000000000, 0.000000000000000000 ) ) ;
#876 = CARTESIAN_POINT ( 'NONE',  ( 50.00000000000000000, 7.000000000000000000, 0.000000000000000000 ) ) ;
#877 = ORIENTED_EDGE ( 'NONE', *, *, #481, .F. ) ;
#878 = EDGE_CURVE ( 'NONE', #114, #390, #348, .T. ) ;
#879 = CARTESIAN_POINT ( 'NONE',  ( 43.33794523556854017, 4.571225964309098444, 7.053182532366990998 ) ) ;
#880 = ADVANCED_FACE ( 'NONE', ( #1002 ), #583, .F. ) ;
#881 = CARTESIAN_POINT ( 'NONE',  ( 46.99999999999998579, 7.000000000000000000, 2.645751311064583167 ) ) ;
#882 = CARTESIAN_POINT ( 'NONE',  ( 56.95970545353752357, -7.945100745943896925, 0.2500000000000003331 ) ) ;
#883 = CIRCLE ( 'NONE', #433, 7.500000000000000000 ) ;
#884 = CARTESIAN_POINT ( 'NONE',  ( 57.45682727164735581, 4.000000000000000000, -0.8035714285714287142 ) ) ;
#885 = DIRECTION ( 'NONE',  ( -0.000000000000000000, -1.000000000000000000, 0.000000000000000000 ) ) ;
#886 = CARTESIAN_POINT ( 'NONE',  ( 45.53381057013470468, -5.573322605752296433, -7.160845595444436995 ) ) ;
#887 = DIRECTION ( 'NONE',  ( 0.000000000000000000, 1.000000000000000000, 0.000000000000000000 ) ) ;
#888 = VERTEX_POINT ( 'NONE', #339 ) ;
#889 = EDGE_CURVE ( 'NONE', #1072, #426, #254, .T. ) ;
#890 = VERTEX_POINT ( 'NONE', #214 ) ;
#891 = CARTESIAN_POINT ( 'NONE',  ( 56.95970545353752357, -6.999999999999999112, -0.7499999999999996669 ) ) ;
#892 = DIRECTION ( 'NONE',  ( 0.000000000000000000, -0.000000000000000000, 1.000000000000000000 ) ) ;
#893 = VERTEX_POINT ( 'NONE', #283 ) ;
#894 = CIRCLE ( 'NONE', #488, 0.5000000000000000000 ) ;
#895 = CARTESIAN_POINT ( 'NONE',  ( 46.23263458186128361, -5.935018169416350631, 7.205567288506036228 ) ) ;
#896 = AXIS2_PLACEMENT_3D ( 'NONE', #406, #749, #273 ) ;
#897 = CIRCLE ( 'NONE', #415, 15.00000000000001421 ) ;
#898 = CARTESIAN_POINT ( 'NONE',  ( 0.000000000000000000, -20.55634918610405393, 5.500000000000003553 ) ) ;
#899 = CARTESIAN_POINT ( 'NONE',  ( 5.749213291902921519, -4.000000000000000000, 13.85447749011875196 ) ) ;
#900 = CIRCLE ( 'NONE', #227, 4.000000000000003553 ) ;
#901 = ORIENTED_EDGE ( 'NONE', *, *, #301, .T. ) ;
#902 = ORIENTED_EDGE ( 'NONE', *, *, #669, .F. ) ;
#903 = DIRECTION ( 'NONE',  ( 0.000000000000000000, 1.000000000000000000, 0.000000000000000000 ) ) ;
#904 = EDGE_CURVE ( 'NONE', #890, #138, #378, .T. ) ;
#905 = CARTESIAN_POINT ( 'NONE',  ( 54.43705983732471765, -7.000000000000000000, 0.2500000000000003331 ) ) ;
#906 = ORIENTED_EDGE ( 'NONE', *, *, #1070, .F. ) ;
#907 = DIRECTION ( 'NONE',  ( 0.000000000000000000, 0.000000000000000000, 1.000000000000000000 ) ) ;
#908 = EDGE_CURVE ( 'NONE', #398, #376, #19, .T. ) ;
#909 = DIRECTION ( 'NONE',  ( 0.000000000000000000, 0.000000000000000000, -1.000000000000000000 ) ) ;
#910 = EDGE_CURVE ( 'NONE', #760, #750, #804, .T. ) ;
#911 = ORIENTED_EDGE ( 'NONE', *, *, #481, .T. ) ;
#912 = SURFACE_SIDE_STYLE ('',( #570 ) ) ;
#913 = AXIS2_PLACEMENT_3D ( 'NONE', #8, #354, #597 ) ;
#914 = DIRECTION ( 'NONE',  ( -0.000000000000000000, -1.000000000000000000, -0.000000000000000000 ) ) ;
#915 = VECTOR ( 'NONE', #627, 1000.000000000000000 ) ;
#916 = DIRECTION ( 'NONE',  ( 0.000000000000000000, 0.000000000000000000, 1.000000000000000000 ) ) ;
#917 = AXIS2_PLACEMENT_3D ( 'NONE', #264, #933, #690 ) ;
#918 = EDGE_LOOP ( 'NONE', ( #877, #736, #57, #873 ) ) ;
#919 = VERTEX_POINT ( 'NONE', #550 ) ;
#920 = DIRECTION ( 'NONE',  ( 0.000000000000000000, 0.000000000000000000, 1.000000000000000000 ) ) ;
#921 = CARTESIAN_POINT ( 'NONE',  ( 0.000000000000000000, 4.000000000000000000, 0.000000000000000000 ) ) ;
#922 = ORIENTED_EDGE ( 'NONE', *, *, #1011, .T. ) ;
#923 = EDGE_CURVE ( 'NONE', #497, #919, #967, .T. ) ;
#924 = EDGE_CURVE ( 'NONE', #376, #549, #894, .T. ) ;
#925 = ORIENTED_EDGE ( 'NONE', *, *, #282, .T. ) ;
#926 = CARTESIAN_POINT ( 'NONE',  ( 40.15171916698771071, 4.000000000000000000, -7.000000004175735313 ) ) ;
#927 = DIRECTION ( 'NONE',  ( 0.000000000000000000, 0.000000000000000000, -1.000000000000000000 ) ) ;
#928 = VERTEX_POINT ( 'NONE', #969 ) ;
#929 = ORIENTED_EDGE ( 'NONE', *, *, #87, .F. ) ;
#930 = CARTESIAN_POINT ( 'NONE',  ( 47.31023178875955182, 6.480839291032346239, -7.285259076319812621 ) ) ;
#931 = AXIS2_PLACEMENT_3D ( 'NONE', #416, #761, #1094 ) ;
#932 = FACE_BOUND ( 'NONE', #485, .T. ) ;
#933 = DIRECTION ( 'NONE',  ( -0.000000000000000000, -1.000000000000000000, -0.000000000000000000 ) ) ;
#934 = AXIS2_PLACEMENT_3D ( 'NONE', #1014, #340, #329 ) ;
#935 = VECTOR ( 'NONE', #482, 1000.000000000000000 ) ;
#936 = DIRECTION ( 'NONE',  ( 0.000000000000000000, 0.000000000000000000, -1.000000000000000000 ) ) ;
#937 = LINE ( 'NONE', #349, #980 ) ;
#938 = CARTESIAN_POINT ( 'NONE',  ( 49.24047014333928729, 4.000000000000000000, -7.461441844364998133 ) ) ;
#939 = EDGE_CURVE ( 'NONE', #820, #1072, #168, .T. ) ;
#940 = LINE ( 'NONE', #946, #526 ) ;
#941 = ORIENTED_EDGE ( 'NONE', *, *, #337, .T. ) ;
#942 = VERTEX_POINT ( 'NONE', #1056 ) ;
#943 = APPLICATION_PROTOCOL_DEFINITION ( 'draft international standard', 'automotive_design', 1998, #1073 ) ;
#944 = PLANE ( 'NONE',  #240 ) ;
#945 = LINE ( 'NONE', #799, #350 ) ;
#946 = CARTESIAN_POINT ( 'NONE',  ( 5.749213291902921519, 4.000000000000000000, 13.85447749011875196 ) ) ;
#947 = CARTESIAN_POINT ( 'NONE',  ( 0.000000000000000000, -20.55634918610405393, 0.000000000000000000 ) ) ;
#948 = FACE_BOUND ( 'NONE', #653, .T. ) ;
#949 = CARTESIAN_POINT ( 'NONE',  ( 4.898587196589417759E-16, 4.000000000000000000, 4.000000000000003553 ) ) ;
#950 = AXIS2_PLACEMENT_3D ( 'NONE', #947, #189, #868 ) ;
#951 = CIRCLE ( 'NONE', #470, 7.500000000000000000 ) ;
#952 = EDGE_CURVE ( 'NONE', #928, #655, #190, .T. ) ;
#953 = AXIS2_PLACEMENT_3D ( 'NONE', #1047, #191, #290 ) ;
#954 = EDGE_LOOP ( 'NONE', ( #590, #72, #849, #67 ) ) ;
#955 = CARTESIAN_POINT ( 'NONE',  ( 0.000000000000000000, -4.500000000000000888, 0.000000000000000000 ) ) ;
#956 = DIRECTION ( 'NONE',  ( 0.000000000000000000, 1.000000000000000000, 0.000000000000000000 ) ) ;
#957 = DIRECTION ( 'NONE',  ( 0.000000000000000000, 0.000000000000000000, -1.000000000000000000 ) ) ;
#958 = ADVANCED_FACE ( 'NONE', ( #626 ), #127, .T. ) ;
#959 = EDGE_CURVE ( 'NONE', #715, #984, #331, .T. ) ;
#960 = DIRECTION ( 'NONE',  ( 0.000000000000000000, 1.000000000000000000, 0.000000000000000000 ) ) ;
#961 = DIRECTION ( 'NONE',  ( 0.000000000000000000, 0.000000000000000000, 1.000000000000000000 ) ) ;
#962 = DIRECTION ( 'NONE',  ( -0.000000000000000000, -1.000000000000000000, 0.000000000000000000 ) ) ;
#963 = UNCERTAINTY_MEASURE_WITH_UNIT (LENGTH_MEASURE( 1.000000000000000082E-05 ), #177, 'distance_accuracy_value', 'NONE');
#964 = CARTESIAN_POINT ( 'NONE',  ( 44.08366982545221902, 4.874657164359703643, 7.083245162792653815 ) ) ;
#965 = CARTESIAN_POINT ( 'NONE',  ( 50.00000000000000000, 4.000000000000000000, 0.000000000000000000 ) ) ;
#966 = DIRECTION ( 'NONE',  ( 0.000000000000000000, -1.000000000000000000, 0.000000000000000000 ) ) ;
#967 = CIRCLE ( 'NONE', #684, 89.75568918539943297 ) ;
#968 = VECTOR ( 'NONE', #247, 1000.000000000000000 ) ;
#969 = CARTESIAN_POINT ( 'NONE',  ( 49.24047014333928729, 7.000000000000000000, -7.461441844364998133 ) ) ;
#970 = EDGE_CURVE ( 'NONE', #655, #712, #56, .T. ) ;
#971 = CARTESIAN_POINT ( 'NONE',  ( 0.000000000000000000, -4.500000000000000888, 0.000000000000000000 ) ) ;
#972 = ORIENTED_EDGE ( 'NONE', *, *, #90, .F. ) ;
#973 = ORIENTED_EDGE ( 'NONE', *, *, #823, .T. ) ;
#974 = CARTESIAN_POINT ( 'NONE',  ( 40.15171916698771071, 4.000000000000000000, 7.000000004175735313 ) ) ;
#975 = CARTESIAN_POINT ( 'NONE',  ( 54.43705983732471765, 7.000000000000000000, 0.2500000000000003331 ) ) ;
#976 = ORIENTED_EDGE ( 'NONE', *, *, #924, .F. ) ;
#977 = CARTESIAN_POINT ( 'NONE',  ( 53.94405318873308630, -6.999999999999999112, -0.6666666666666666297 ) ) ;
#978 = DIRECTION ( 'NONE',  ( -0.000000000000000000, -1.000000000000000000, -0.000000000000000000 ) ) ;
#979 = EDGE_CURVE ( 'NONE', #299, #1005, #224, .T. ) ;
#980 = VECTOR ( 'NONE', #267, 1000.000000000000000 ) ;
#981 = CARTESIAN_POINT ( 'NONE',  ( 50.00000000000000000, -6.999999999999999112, -4.000000000000003553 ) ) ;
#982 = DIRECTION ( 'NONE',  ( 0.000000000000000000, 0.000000000000000000, -1.000000000000000000 ) ) ;
#983 = AXIS2_PLACEMENT_3D ( 'NONE', #216, #121, #718 ) ;
#984 = VERTEX_POINT ( 'NONE', #807 ) ;
#985 = EDGE_CURVE ( 'NONE', #472, #549, #40, .T. ) ;
#986 = ORIENTED_EDGE ( 'NONE', *, *, #282, .F. ) ;
#987 = EDGE_CURVE ( 'NONE', #432, #586, #853, .T. ) ;
#988 = CARTESIAN_POINT ( 'NONE',  ( 50.00000000000000000, 4.000000000000000000, 0.000000000000000000 ) ) ;
#989 = EDGE_LOOP ( 'NONE', ( #166, #861, #403, #568 ) ) ;
#990 = CARTESIAN_POINT ( 'NONE',  ( 0.000000000000000000, -7.000000000000000000, -0.2499999999999996669 ) ) ;
#991 = CYLINDRICAL_SURFACE ( 'NONE', #538, 7.500000000000000000 ) ;
#992 = CARTESIAN_POINT ( 'NONE',  ( 46.99999999999999289, -6.999999999999999112, -2.645751311064580502 ) ) ;
#993 = EDGE_LOOP ( 'NONE', ( #305, #601, #97, #744, #126, #1062, #925, #313, #552, #493, #941, #50, #847, #581 ) ) ;
#994 = DIRECTION ( 'NONE',  ( 0.000000000000000000, 0.000000000000000000, -1.000000000000000000 ) ) ;
#995 = ADVANCED_FACE ( 'NONE', ( #732 ), #818, .T. ) ;
#996 = DIRECTION ( 'NONE',  ( 0.000000000000000000, 1.000000000000000000, -0.000000000000000000 ) ) ;
#997 = CIRCLE ( 'NONE', #1040, 89.75568918539943297 ) ;
#998 = EDGE_CURVE ( 'NONE', #426, #175, #178, .T. ) ;
#999 = EDGE_LOOP ( 'NONE', ( #767, #766, #654, #463 ) ) ;
#1000 = CARTESIAN_POINT ( 'NONE',  ( 40.15085337780993768, 4.000000000000000000, 96.75568918539943297 ) ) ;
#1001 = STYLED_ITEM ( 'NONE', ( #659 ), #1027 ) ;
#1002 = FACE_OUTER_BOUND ( 'NONE', #296, .T. ) ;
#1003 = DIRECTION ( 'NONE',  ( 0.000000000000000000, 1.000000000000000000, -0.000000000000000000 ) ) ;
#1004 = ORIENTED_EDGE ( 'NONE', *, *, #445, .F. ) ;
#1005 = VERTEX_POINT ( 'NONE', #977 ) ;
#1006 = DIRECTION ( 'NONE',  ( 0.000000000000000000, 0.000000000000000000, 1.000000000000000000 ) ) ;
#1007 = CARTESIAN_POINT ( 'NONE',  ( 48.44839578895035714, -6.915462372279387537, -7.383556247495413949 ) ) ;
#1008 = FACE_OUTER_BOUND ( 'NONE', #993, .T. ) ;
#1009 = CARTESIAN_POINT ( 'NONE',  ( 50.00000000000000000, 7.000000000000000000, 0.000000000000000000 ) ) ;
#1010 = EDGE_LOOP ( 'NONE', ( #110, #824, #257, #91 ) ) ;
#1011 = EDGE_CURVE ( 'NONE', #401, #893, #284, .T. ) ;
#1012 = CARTESIAN_POINT ( 'NONE',  ( 43.31802494998294151, 4.564302714991244514, -7.052504194044766805 ) ) ;
#1013 = AXIS2_PLACEMENT_3D ( 'NONE', #70, #140, #483 ) ;
#1014 = CARTESIAN_POINT ( 'NONE',  ( 50.00000000000000000, 4.000000000000000000, 0.000000000000000000 ) ) ;
#1015 = DIRECTION ( 'NONE',  ( 0.000000000000000000, 1.000000000000000000, 0.000000000000000000 ) ) ;
#1016 = VERTEX_POINT ( 'NONE', #747 ) ;
#1017 = AXIS2_PLACEMENT_3D ( 'NONE', #53, #388, #59 ) ;
#1018 = ORIENTED_EDGE ( 'NONE', *, *, #842, .T. ) ;
#1019 = DIRECTION ( 'NONE',  ( -0.000000000000000000, -1.000000000000000000, -0.000000000000000000 ) ) ;
#1020 = EDGE_CURVE ( 'NONE', #326, #757, #106, .T. ) ;
#1021 = FACE_OUTER_BOUND ( 'NONE', #44, .T. ) ;
#1022 = AXIS2_PLACEMENT_3D ( 'NONE', #384, #327, #907 ) ;
#1023 = CARTESIAN_POINT ( 'NONE',  ( 6.735557395310445967E-16, -20.55634918610405393, -5.500000000000003553 ) ) ;
#1024 = LINE ( 'NONE', #682, #540 ) ;
#1025 = ORIENTED_EDGE ( 'NONE', *, *, #324, .T. ) ;
#1026 = CARTESIAN_POINT ( 'NONE',  ( 49.03734849355886638, 6.999999999998093081, -7.440765283351656656 ) ) ;
#1027 = MANIFOLD_SOLID_BREP ( 'Fillet2', #865 ) ;
#1028 = FACE_OUTER_BOUND ( 'NONE', #419, .T. ) ;
#1029 = CARTESIAN_POINT ( 'NONE',  ( 57.45682727164735581, -6.999999999999999112, -0.8035714285714289362 ) ) ;
#1030 = ADVANCED_FACE ( 'NONE', ( #156 ), #1074, .T. ) ;
#1031 = PRODUCT ( 'Spoon Joint', 'Spoon Joint', '', ( #259 ) ) ;
#1032 = ORIENTED_EDGE ( 'NONE', *, *, #669, .T. ) ;
#1033 = DIRECTION ( 'NONE',  ( 0.000000000000000000, 0.000000000000000000, 1.000000000000000000 ) ) ;
#1034 = DIRECTION ( 'NONE',  ( 0.000000000000000000, 1.000000000000000000, 0.000000000000000000 ) ) ;
#1035 = CYLINDRICAL_SURFACE ( 'NONE', #917, 0.5000000000000000000 ) ;
#1036 = EDGE_CURVE ( 'NONE', #548, #871, #232, .T. ) ;
#1037 = AXIS2_PLACEMENT_3D ( 'NONE', #536, #48, #385 ) ;
#1038 = EDGE_CURVE ( 'NONE', #175, #820, #1061, .T. ) ;
#1039 = CIRCLE ( 'NONE', #452, 12.08257569495584072 ) ;
#1040 = AXIS2_PLACEMENT_3D ( 'NONE', #11, #610, #22 ) ;
#1041 = AXIS2_PLACEMENT_3D ( 'NONE', #372, #808, #957 ) ;
#1042 = EDGE_LOOP ( 'NONE', ( #1004, #505, #420, #459, #834, #145 ) ) ;
#1043 = CARTESIAN_POINT ( 'NONE',  ( 50.00000000000000000, 4.000000000000000000, -7.500000000000000000 ) ) ;
#1044 = CARTESIAN_POINT ( 'NONE',  ( 50.00000000000000000, -6.999999999999999112, 0.000000000000000000 ) ) ;
#1045 = FACE_OUTER_BOUND ( 'NONE', #347, .T. ) ;
#1046 = DIRECTION ( 'NONE',  ( 0.000000000000000000, 0.000000000000000000, 1.000000000000000000 ) ) ;
#1047 = CARTESIAN_POINT ( 'NONE',  ( 0.000000000000000000, 4.500000000000000888, 0.000000000000000000 ) ) ;
#1048 = CARTESIAN_POINT ( 'NONE',  ( 0.000000000000000000, -4.500000000000000888, 5.500000000000003553 ) ) ;
#1049 = EDGE_LOOP ( 'NONE', ( #580, #838 ) ) ;
#1050 = CARTESIAN_POINT ( 'NONE',  ( 53.11001693982867522, -7.945100745943896925, -0.2499999999999996669 ) ) ;
#1051 = CARTESIAN_POINT ( 'NONE',  ( 0.000000000000000000, -4.000000000000000000, -15.00000000000001421 ) ) ;
#1052 = VERTEX_POINT ( 'NONE', #728 ) ;
#1053 = CIRCLE ( 'NONE', #612, 4.000000000000003553 ) ;
#1054 = VERTEX_POINT ( 'NONE', #782 ) ;
#1055 = AXIS2_PLACEMENT_3D ( 'NONE', #822, #641, #1057 ) ;
#1056 = CARTESIAN_POINT ( 'NONE',  ( 5.749213291902921519, -4.000000000000000000, -13.85447749011875196 ) ) ;
#1057 = DIRECTION ( 'NONE',  ( 0.000000000000000000, 0.000000000000000000, -1.000000000000000000 ) ) ;
#1058 = CARTESIAN_POINT ( 'NONE',  ( 6.735557395310445967E-16, -4.000000000000000000, -5.500000000000003553 ) ) ;
#1059 = EDGE_LOOP ( 'NONE', ( #12, #816, #542, #361, #557, #564, #839 ) ) ;
#1060 = UNCERTAINTY_MEASURE_WITH_UNIT (LENGTH_MEASURE( 1.000000000000000082E-05 ), #58, 'distance_accuracy_value', 'NONE');
#1061 = B_SPLINE_CURVE_WITH_KNOTS ( 'NONE', 3,
 ( #1080, #741, #646, #565, #486, #825, #399, #895, #491, #69, #46, #830, #134, #474, #51, #387 ),
 .UNSPECIFIED., .F., .F.,
 ( 4, 2, 2, 2, 2, 2, 2, 4 ),
 ( 0.000000000000000000, 0.002411654382854068381, 0.004823308765708136762, 0.006029135957135179844, 0.007234963148562223792, 0.008440790339989267740, 0.009043703935702789715, 0.009646617531416311689 ),
 .UNSPECIFIED. ) ;
#1062 = ORIENTED_EDGE ( 'NONE', *, *, #939, .T. ) ;
#1063 = CARTESIAN_POINT ( 'NONE',  ( 54.43705983732471765, -6.999999999999999112, 0.7500000000000003331 ) ) ;
#1064 = CARTESIAN_POINT ( 'NONE',  ( 0.000000000000000000, -20.55634918610405393, 5.500000000000003553 ) ) ;
#1065 = ORIENTED_EDGE ( 'NONE', *, *, #541, .F. ) ;
#1066 = ORIENTED_EDGE ( 'NONE', *, *, #484, .T. ) ;
#1067 = DIRECTION ( 'NONE',  ( -0.000000000000000000, -1.000000000000000000, -0.000000000000000000 ) ) ;
#1068 = DIRECTION ( 'NONE',  ( 0.000000000000000000, 1.000000000000000000, -0.000000000000000000 ) ) ;
#1069 = ORIENTED_EDGE ( 'NONE', *, *, #268, .T. ) ;
#1070 = EDGE_CURVE ( 'NONE', #217, #431, #679, .T. ) ;
#1071 = EDGE_CURVE ( 'NONE', #390, #893, #752, .T. ) ;
#1072 = VERTEX_POINT ( 'NONE', #506 ) ;
#1073 = APPLICATION_CONTEXT ( 'automotive_design' ) ;
#1074 = CYLINDRICAL_SURFACE ( 'NONE', #831, 7.500000000000000000 ) ;
#1075 = AXIS2_PLACEMENT_3D ( 'NONE', #921, #238, #571 ) ;
#1076 = CIRCLE ( 'NONE', #687, 4.000000000000003553 ) ;
#1077 = CARTESIAN_POINT ( 'NONE',  ( 50.00000000000000000, 7.000000000000000000, 0.000000000000000000 ) ) ;
#1078 = ORIENTED_EDGE ( 'NONE', *, *, #442, .F. ) ;
#1079 = ORIENTED_EDGE ( 'NONE', *, *, #301, .F. ) ;
#1080 = CARTESIAN_POINT ( 'NONE',  ( 40.15171916698771071, -4.000000000000000000, 7.000000004175735313 ) ) ;
#1081 = CARTESIAN_POINT ( 'NONE',  ( 56.95970545353752357, 4.000000000000000000, -0.7499999999999996669 ) ) ;
#1082 = DIRECTION ( 'NONE',  ( -0.000000000000000000, -1.000000000000000000, 0.000000000000000000 ) ) ;
#1083 = DIRECTION ( 'NONE',  ( 1.000000000000000000, 0.000000000000000000, 0.000000000000000000 ) ) ;
#1084 = ADVANCED_FACE ( 'NONE', ( #582 ), #665, .F. ) ;
#1085 = DIRECTION ( 'NONE',  ( -0.000000000000000000, -1.000000000000000000, -0.000000000000000000 ) ) ;
#1086 = ORIENTED_EDGE ( 'NONE', *, *, #5, .T. ) ;
#1087 = EDGE_LOOP ( 'NONE', ( #902, #726, #1097, #14 ) ) ;
#1088 = AXIS2_PLACEMENT_3D ( 'NONE', #417, #996, #916 ) ;
#1089 = DIRECTION ( 'NONE',  ( -0.000000000000000000, -1.000000000000000000, -0.000000000000000000 ) ) ;
#1090 = AXIS2_PLACEMENT_3D ( 'NONE', #311, #319, #37 ) ;
#1091 = EDGE_LOOP ( 'NONE', ( #643, #576, #39, #77 ) ) ;
#1092 = DIRECTION ( 'NONE',  ( 0.000000000000000000, 1.000000000000000000, 0.000000000000000000 ) ) ;
#1093 = AXIS2_PLACEMENT_3D ( 'NONE', #1063, #306, #142 ) ;
#1094 = DIRECTION ( 'NONE',  ( 1.000000000000000000, 0.000000000000000000, 0.000000000000000000 ) ) ;
#1095 = CARTESIAN_POINT ( 'NONE',  ( 46.99999999999999289, 7.000000000000000000, -2.645751311064580502 ) ) ;
#1096 = CARTESIAN_POINT ( 'NONE',  ( 0.000000000000000000, -4.000000000000000000, 0.000000000000000000 ) ) ;
#1097 = ORIENTED_EDGE ( 'NONE', *, *, #20, .F. ) ;
#1098 = EDGE_CURVE ( 'NONE', #942, #519, #598, .T. ) ;
#1099 = EDGE_LOOP ( 'NONE', ( #901, #911, #25, #746 ) ) ;
#1100 = CARTESIAN_POINT ( 'NONE',  ( 6.735557395310445967E-16, -20.55634918610405393, -5.500000000000003553 ) ) ;
ENDSEC;
END-ISO-10303-21;
