ISO-10303-21;
HEADER;
FILE_DESCRIPTION (( 'STEP AP214' ),
    '1' );
FILE_NAME ('UniversalJointConnector.STEP',
    '2025-08-15T04:03:22',
    ( '' ),
    ( '' ),
    'SwSTEP 2.0',
    'SolidWorks 2024',
    '' );
FILE_SCHEMA (( 'AUTOMOTIVE_DESIGN' ));
ENDSEC;

DATA;
#1 = ORIENTED_EDGE ( 'NONE', *, *, #97, .F. ) ;
#2 = VECTOR ( 'NONE', #165, 1000.000000000000000 ) ;
#3 = ADVANCED_FACE ( 'NONE', ( #132 ), #168, .T. ) ;
#4 = AXIS2_PLACEMENT_3D ( 'NONE', #241, #95, #243 ) ;
#5 = DIRECTION ( 'NONE',  ( 0.000000000000000000, 0.000000000000000000, 1.000000000000000000 ) ) ;
#6 = VERTEX_POINT ( 'NONE', #146 ) ;
#7 = EDGE_CURVE ( 'NONE', #6, #271, #109, .T. ) ;
#8 = VERTEX_POINT ( 'NONE', #104 ) ;
#9 = DIRECTION ( 'NONE',  ( 1.000000000000000000, 0.000000000000000000, 0.000000000000000000 ) ) ;
#10 = ORIENTED_EDGE ( 'NONE', *, *, #22, .T. ) ;
#11 = ORIENTED_EDGE ( 'NONE', *, *, #143, .F. ) ;
#12 = DIRECTION ( 'NONE',  ( 0.000000000000000000, -0.000000000000000000, 1.000000000000000000 ) ) ;
#13 = CLOSED_SHELL ( 'NONE', ( #54, #3, #178, #263, #64, #275, #58, #73, #32, #228 ) ) ;
#14 = SURFACE_STYLE_FILL_AREA ( #116 ) ;
#15 = AXIS2_PLACEMENT_3D ( 'NONE', #26, #224, #185 ) ;
#16 = DIRECTION ( 'NONE',  ( 0.000000000000000000, 1.000000000000000000, 0.000000000000000000 ) ) ;
#17 = CIRCLE ( 'NONE', #101, 3.999550649282176629 ) ;
#18 = DIRECTION ( 'NONE',  ( 0.000000000000000000, 1.000000000000000000, 0.000000000000000000 ) ) ;
#19 = DIRECTION ( 'NONE',  ( 0.000000000000000000, 1.000000000000000000, 0.000000000000000000 ) ) ;
#20 = FACE_OUTER_BOUND ( 'NONE', #85, .T. ) ;
#21 = CIRCLE ( 'NONE', #128, 2.500000000000000000 ) ;
#22 = EDGE_CURVE ( 'NONE', #59, #191, #253, .T. ) ;
#23 =( NAMED_UNIT ( * ) PLANE_ANGLE_UNIT ( ) SI_UNIT ( $, .RADIAN. ) );
#24 = DIRECTION ( 'NONE',  ( 0.000000000000000000, 1.000000000000000000, 0.000000000000000000 ) ) ;
#25 = APPLICATION_CONTEXT ( 'automotive_design' ) ;
#26 = CARTESIAN_POINT ( 'NONE',  ( 0.000000000000000000, 16.00000000000000000, 0.000000000000000000 ) ) ;
#27 = VERTEX_POINT ( 'NONE', #107 ) ;
#28 = PRODUCT_DEFINITION ( 'UNKNOWN', '', #43, #182 ) ;
#29 = DIRECTION ( 'NONE',  ( 0.000000000000000000, 0.000000000000000000, 1.000000000000000000 ) ) ;
#30 = ORIENTED_EDGE ( 'NONE', *, *, #78, .T. ) ;
#31 = DIRECTION ( 'NONE',  ( 0.000000000000000000, 1.000000000000000000, 0.000000000000000000 ) ) ;
#32 = ADVANCED_FACE ( 'NONE', ( #233 ), #195, .T. ) ;
#33 = ORIENTED_EDGE ( 'NONE', *, *, #40, .T. ) ;
#34 = AXIS2_PLACEMENT_3D ( 'NONE', #100, #74, #183 ) ;
#35 = PRODUCT_CONTEXT ( 'NONE', #25, 'mechanical' ) ;
#36 = MANIFOLD_SOLID_BREP ( 'Boss-Extrude4', #13 ) ;
#37 = ORIENTED_EDGE ( 'NONE', *, *, #152, .F. ) ;
#38 = AXIS2_PLACEMENT_3D ( 'NONE', #41, #92, #153 ) ;
#39 = EDGE_LOOP ( 'NONE', ( #163, #108, #257, #272 ) ) ;
#40 = EDGE_CURVE ( 'NONE', #8, #236, #68, .T. ) ;
#41 = CARTESIAN_POINT ( 'NONE',  ( 0.000000000000000000, 11.50000000000000000, 0.000000000000000000 ) ) ;
#42 = CARTESIAN_POINT ( 'NONE',  ( 0.000000000000000000, 11.50000000000000000, 0.000000000000000000 ) ) ;
#43 = PRODUCT_DEFINITION_FORMATION_WITH_SPECIFIED_SOURCE ( 'ANY', '', #242, .NOT_KNOWN. ) ;
#44 = EDGE_CURVE ( 'NONE', #117, #89, #235, .T. ) ;
#45 =( NAMED_UNIT ( * ) SI_UNIT ( $, .STERADIAN. ) SOLID_ANGLE_UNIT ( ) );
#46 =( NAMED_UNIT ( * ) PLANE_ANGLE_UNIT ( ) SI_UNIT ( $, .RADIAN. ) );
#47 = FACE_BOUND ( 'NONE', #252, .T. ) ;
#48 = FACE_OUTER_BOUND ( 'NONE', #39, .T. ) ;
#49 = DIRECTION ( 'NONE',  ( 0.000000000000000000, 1.000000000000000000, 0.000000000000000000 ) ) ;
#50 = CARTESIAN_POINT ( 'NONE',  ( 6.123233995736766282E-16, 11.50000000000000000, 5.000000000000000000 ) ) ;
#51 = AXIS2_PLACEMENT_3D ( 'NONE', #125, #246, #138 ) ;
#52 = CARTESIAN_POINT ( 'NONE',  ( 0.000000000000000000, 11.50000000000000000, -2.500000000000000000 ) ) ;
#53 = VERTEX_POINT ( 'NONE', #277 ) ;
#54 = ADVANCED_FACE ( 'NONE', ( #179 ), #70, .T. ) ;
#55 = CIRCLE ( 'NONE', #150, 3.999550649282176629 ) ;
#56 = DIRECTION ( 'NONE',  ( 0.000000000000000000, 1.000000000000000000, 0.000000000000000000 ) ) ;
#57 = ORIENTED_EDGE ( 'NONE', *, *, #194, .T. ) ;
#58 = ADVANCED_FACE ( 'NONE', ( #214, #259 ), #274, .T. ) ;
#59 = VERTEX_POINT ( 'NONE', #90 ) ;
#60 = EDGE_LOOP ( 'NONE', ( #1, #147, #131, #192 ) ) ;
#61 = ORIENTED_EDGE ( 'NONE', *, *, #75, .T. ) ;
#62 = CIRCLE ( 'NONE', #282, 3.825000000000000178 ) ;
#63 = VERTEX_POINT ( 'NONE', #135 ) ;
#64 = ADVANCED_FACE ( 'NONE', ( #276 ), #244, .F. ) ;
#65 = SURFACE_SIDE_STYLE ('',( #14 ) ) ;
#66 = CARTESIAN_POINT ( 'NONE',  ( 3.061616997868383141E-16, 16.00000000000000000, 2.500000000000000000 ) ) ;
#67 = CONICAL_SURFACE ( 'NONE', #51, 3.825000000000000178, 0.01745329251994333364 ) ;
#68 = CIRCLE ( 'NONE', #227, 3.825000000000000178 ) ;
#69 = DIRECTION ( 'NONE',  ( -0.000000000000000000, -1.000000000000000000, -0.000000000000000000 ) ) ;
#70 = CYLINDRICAL_SURFACE ( 'NONE', #118, 2.500000000000000000 ) ;
#71 = EDGE_LOOP ( 'NONE', ( #82, #190 ) ) ;
#72 = CARTESIAN_POINT ( 'NONE',  ( 0.000000000000000000, 16.00000000000000000, 0.000000000000000000 ) ) ;
#73 = ADVANCED_FACE ( 'NONE', ( #47, #239 ), #193, .F. ) ;
#74 = DIRECTION ( 'NONE',  ( 0.000000000000000000, 1.000000000000000000, 0.000000000000000000 ) ) ;
#75 = EDGE_CURVE ( 'NONE', #89, #117, #21, .T. ) ;
#76 = APPLICATION_CONTEXT ( 'automotive_design' ) ;
#77 = DIRECTION ( 'NONE',  ( 2.137303368083795934E-18, 0.9998476951563911586, -0.01745240643728354635 ) ) ;
#78 = EDGE_CURVE ( 'NONE', #63, #89, #258, .T. ) ;
#79 = ORIENTED_EDGE ( 'NONE', *, *, #44, .F. ) ;
#80 = LINE ( 'NONE', #285, #245 ) ;
#81 = AXIS2_PLACEMENT_3D ( 'NONE', #262, #113, #12 ) ;
#82 = ORIENTED_EDGE ( 'NONE', *, *, #7, .T. ) ;
#83 = VECTOR ( 'NONE', #134, 1000.000000000000000 ) ;
#84 = VERTEX_POINT ( 'NONE', #216 ) ;
#85 = EDGE_LOOP ( 'NONE', ( #130, #110 ) ) ;
#86 = MECHANICAL_DESIGN_GEOMETRIC_PRESENTATION_REPRESENTATION (  '', ( #203 ), #164 ) ;
#87 = DIRECTION ( 'NONE',  ( 0.000000000000000000, 0.000000000000000000, 1.000000000000000000 ) ) ;
#88 = EDGE_LOOP ( 'NONE', ( #170, #30, #61, #11 ) ) ;
#89 = VERTEX_POINT ( 'NONE', #177 ) ;
#90 = CARTESIAN_POINT ( 'NONE',  ( 6.123233995736766282E-16, 10.00000000000000000, 5.000000000000000000 ) ) ;
#91 = DIRECTION ( 'NONE',  ( 0.000000000000000000, -0.000000000000000000, 1.000000000000000000 ) ) ;
#92 = DIRECTION ( 'NONE',  ( 0.000000000000000000, 1.000000000000000000, 0.000000000000000000 ) ) ;
#93 = LINE ( 'NONE', #154, #218 ) ;
#94 = AXIS2_PLACEMENT_3D ( 'NONE', #232, #31, #127 ) ;
#95 = DIRECTION ( 'NONE',  ( -0.000000000000000000, -1.000000000000000000, -0.000000000000000000 ) ) ;
#96 = DIRECTION ( 'NONE',  ( 0.000000000000000000, 0.9998476951563911586, 0.01745240643728354635 ) ) ;
#97 = EDGE_CURVE ( 'NONE', #271, #59, #93, .T. ) ;
#98 = EDGE_LOOP ( 'NONE', ( #234, #111 ) ) ;
#99 = DIRECTION ( 'NONE',  ( 0.000000000000000000, 1.000000000000000000, 0.000000000000000000 ) ) ;
#100 = CARTESIAN_POINT ( 'NONE',  ( 0.000000000000000000, 16.00000000000000000, 0.000000000000000000 ) ) ;
#101 = AXIS2_PLACEMENT_3D ( 'NONE', #181, #99, #137 ) ;
#102 = LINE ( 'NONE', #204, #237 ) ;
#103 = CARTESIAN_POINT ( 'NONE',  ( 0.000000000000000000, 11.50000000000000000, -5.000000000000000000 ) ) ;
#104 = CARTESIAN_POINT ( 'NONE',  ( 0.000000000000000000, 0.000000000000000000, 3.825000000000000178 ) ) ;
#105 = PRODUCT_RELATED_PRODUCT_CATEGORY ( 'part', '', ( #242 ) ) ;
#106 = CARTESIAN_POINT ( 'NONE',  ( 0.000000000000000000, 0.000000000000000000, 0.000000000000000000 ) ) ;
#107 = CARTESIAN_POINT ( 'NONE',  ( 0.000000000000000000, 10.00000000000000000, 3.999550649282176629 ) ) ;
#108 = ORIENTED_EDGE ( 'NONE', *, *, #196, .T. ) ;
#109 = CIRCLE ( 'NONE', #155, 5.000000000000000000 ) ;
#110 = ORIENTED_EDGE ( 'NONE', *, *, #158, .T. ) ;
#111 = ORIENTED_EDGE ( 'NONE', *, *, #196, .F. ) ;
#112 = AXIS2_PLACEMENT_3D ( 'NONE', #266, #136, #29 ) ;
#113 = DIRECTION ( 'NONE',  ( 0.000000000000000000, 1.000000000000000000, 0.000000000000000000 ) ) ;
#114 = EDGE_CURVE ( 'NONE', #84, #63, #255, .T. ) ;
#115 = DIRECTION ( 'NONE',  ( -0.000000000000000000, -1.000000000000000000, -0.000000000000000000 ) ) ;
#116 = FILL_AREA_STYLE ('',( #156 ) ) ;
#117 = VERTEX_POINT ( 'NONE', #52 ) ;
#118 = AXIS2_PLACEMENT_3D ( 'NONE', #120, #115, #174 ) ;
#119 = EDGE_CURVE ( 'NONE', #271, #6, #160, .T. ) ;
#120 = CARTESIAN_POINT ( 'NONE',  ( 0.000000000000000000, 16.00000000000000000, 0.000000000000000000 ) ) ;
#121 = CYLINDRICAL_SURFACE ( 'NONE', #133, 5.000000000000000000 ) ;
#122 =( NAMED_UNIT ( * ) SI_UNIT ( $, .STERADIAN. ) SOLID_ANGLE_UNIT ( ) );
#123 = AXIS2_PLACEMENT_3D ( 'NONE', #250, #213, #144 ) ;
#124 =( LENGTH_UNIT ( ) NAMED_UNIT ( * ) SI_UNIT ( .MILLI., .METRE. ) );
#125 = CARTESIAN_POINT ( 'NONE',  ( 0.000000000000000000, 0.000000000000000000, 0.000000000000000000 ) ) ;
#126 = DIRECTION ( 'NONE',  ( 0.000000000000000000, 1.000000000000000000, 0.000000000000000000 ) ) ;
#127 = DIRECTION ( 'NONE',  ( 0.000000000000000000, 0.000000000000000000, 1.000000000000000000 ) ) ;
#128 = AXIS2_PLACEMENT_3D ( 'NONE', #42, #18, #220 ) ;
#129 = APPLICATION_PROTOCOL_DEFINITION ( 'draft international standard', 'automotive_design', 1998, #76 ) ;
#130 = ORIENTED_EDGE ( 'NONE', *, *, #114, .T. ) ;
#131 = ORIENTED_EDGE ( 'NONE', *, *, #281, .T. ) ;
#132 = FACE_OUTER_BOUND ( 'NONE', #210, .T. ) ;
#133 = AXIS2_PLACEMENT_3D ( 'NONE', #226, #201, #139 ) ;
#134 = DIRECTION ( 'NONE',  ( -0.000000000000000000, -1.000000000000000000, -0.000000000000000000 ) ) ;
#135 = CARTESIAN_POINT ( 'NONE',  ( 3.061616997868383141E-16, 16.00000000000000000, 2.500000000000000000 ) ) ;
#136 = DIRECTION ( 'NONE',  ( 0.000000000000000000, 1.000000000000000000, 0.000000000000000000 ) ) ;
#137 = DIRECTION ( 'NONE',  ( 0.000000000000000000, 0.000000000000000000, 1.000000000000000000 ) ) ;
#138 = DIRECTION ( 'NONE',  ( 0.000000000000000000, 0.000000000000000000, 1.000000000000000000 ) ) ;
#139 = DIRECTION ( 'NONE',  ( 0.000000000000000000, 0.000000000000000000, -1.000000000000000000 ) ) ;
#140 = ORIENTED_EDGE ( 'NONE', *, *, #75, .F. ) ;
#141 = VECTOR ( 'NONE', #284, 1000.000000000000000 ) ;
#142 = FACE_OUTER_BOUND ( 'NONE', #60, .T. ) ;
#143 = EDGE_CURVE ( 'NONE', #84, #117, #202, .T. ) ;
#144 = DIRECTION ( 'NONE',  ( 0.000000000000000000, 0.000000000000000000, -1.000000000000000000 ) ) ;
#145 = SHAPE_DEFINITION_REPRESENTATION ( #189, #211 ) ;
#146 = CARTESIAN_POINT ( 'NONE',  ( 0.000000000000000000, 11.50000000000000000, -5.000000000000000000 ) ) ;
#147 = ORIENTED_EDGE ( 'NONE', *, *, #7, .F. ) ;
#148 = EDGE_LOOP ( 'NONE', ( #79, #140 ) ) ;
#149 = ORIENTED_EDGE ( 'NONE', *, *, #166, .T. ) ;
#150 = AXIS2_PLACEMENT_3D ( 'NONE', #161, #279, #249 ) ;
#151 = SURFACE_STYLE_USAGE ( .BOTH. , #65 ) ;
#152 = EDGE_CURVE ( 'NONE', #8, #27, #102, .T. ) ;
#153 = DIRECTION ( 'NONE',  ( 0.000000000000000000, 0.000000000000000000, 1.000000000000000000 ) ) ;
#154 = CARTESIAN_POINT ( 'NONE',  ( 6.123233995736766282E-16, 11.50000000000000000, 5.000000000000000000 ) ) ;
#155 = AXIS2_PLACEMENT_3D ( 'NONE', #231, #126, #5 ) ;
#156 = FILL_AREA_STYLE_COLOUR ( '', #240 ) ;
#157 = PLANE ( 'NONE',  #34 ) ;
#158 = EDGE_CURVE ( 'NONE', #63, #84, #186, .T. ) ;
#159 = FACE_OUTER_BOUND ( 'NONE', #207, .T. ) ;
#160 = CIRCLE ( 'NONE', #167, 5.000000000000000000 ) ;
#161 = CARTESIAN_POINT ( 'NONE',  ( 0.000000000000000000, 10.00000000000000000, 0.000000000000000000 ) ) ;
#162 = DIRECTION ( 'NONE',  ( 0.000000000000000000, 1.000000000000000000, 0.000000000000000000 ) ) ;
#163 = ORIENTED_EDGE ( 'NONE', *, *, #265, .F. ) ;
#164 =( GEOMETRIC_REPRESENTATION_CONTEXT ( 3 ) GLOBAL_UNCERTAINTY_ASSIGNED_CONTEXT ( ( #225 ) ) GLOBAL_UNIT_ASSIGNED_CONTEXT ( ( #198, #46, #45 ) ) REPRESENTATION_CONTEXT ( 'NONE', 'WORKASPACE' ) );
#165 = DIRECTION ( 'NONE',  ( -0.000000000000000000, -1.000000000000000000, -0.000000000000000000 ) ) ;
#166 = EDGE_CURVE ( 'NONE', #53, #27, #55, .T. ) ;
#167 = AXIS2_PLACEMENT_3D ( 'NONE', #199, #162, #264 ) ;
#168 = CYLINDRICAL_SURFACE ( 'NONE', #123, 5.000000000000000000 ) ;
#169 = ORIENTED_EDGE ( 'NONE', *, *, #281, .F. ) ;
#170 = ORIENTED_EDGE ( 'NONE', *, *, #158, .F. ) ;
#171 = ORIENTED_EDGE ( 'NONE', *, *, #194, .F. ) ;
#172 = AXIS2_PLACEMENT_3D ( 'NONE', #72, #49, #267 ) ;
#173 = ORIENTED_EDGE ( 'NONE', *, *, #119, .F. ) ;
#174 = DIRECTION ( 'NONE',  ( 0.000000000000000000, 0.000000000000000000, -1.000000000000000000 ) ) ;
#175 = EDGE_CURVE ( 'NONE', #191, #59, #278, .T. ) ;
#176 = DIRECTION ( 'NONE',  ( 0.000000000000000000, 1.000000000000000000, 0.000000000000000000 ) ) ;
#177 = CARTESIAN_POINT ( 'NONE',  ( 3.061616997868383141E-16, 11.50000000000000000, 2.500000000000000000 ) ) ;
#178 = ADVANCED_FACE ( 'NONE', ( #159 ), #67, .T. ) ;
#179 = FACE_OUTER_BOUND ( 'NONE', #88, .T. ) ;
#180 = PRESENTATION_STYLE_ASSIGNMENT (( #151 ) ) ;
#181 = CARTESIAN_POINT ( 'NONE',  ( 0.000000000000000000, 10.00000000000000000, 0.000000000000000000 ) ) ;
#182 = PRODUCT_DEFINITION_CONTEXT ( 'detailed design', #76, 'design' ) ;
#183 = DIRECTION ( 'NONE',  ( 0.000000000000000000, -0.000000000000000000, 1.000000000000000000 ) ) ;
#184 = CARTESIAN_POINT ( 'NONE',  ( 0.000000000000000000, 10.00000000000000000, 0.000000000000000000 ) ) ;
#185 = DIRECTION ( 'NONE',  ( 0.000000000000000000, 0.000000000000000000, 1.000000000000000000 ) ) ;
#186 = CIRCLE ( 'NONE', #15, 2.500000000000000000 ) ;
#187 = ORIENTED_EDGE ( 'NONE', *, *, #143, .T. ) ;
#188 = ORIENTED_EDGE ( 'NONE', *, *, #265, .T. ) ;
#189 = PRODUCT_DEFINITION_SHAPE ( 'NONE', 'NONE',  #28 ) ;
#190 = ORIENTED_EDGE ( 'NONE', *, *, #119, .T. ) ;
#191 = VERTEX_POINT ( 'NONE', #283 ) ;
#192 = ORIENTED_EDGE ( 'NONE', *, *, #175, .T. ) ;
#193 = PLANE ( 'NONE',  #200 ) ;
#194 = EDGE_CURVE ( 'NONE', #27, #53, #17, .T. ) ;
#195 = CYLINDRICAL_SURFACE ( 'NONE', #4, 2.500000000000000000 ) ;
#196 = EDGE_CURVE ( 'NONE', #236, #8, #62, .T. ) ;
#197 = CONICAL_SURFACE ( 'NONE', #112, 3.825000000000000178, 0.01745329251994333364 ) ;
#198 =( LENGTH_UNIT ( ) NAMED_UNIT ( * ) SI_UNIT ( .MILLI., .METRE. ) );
#199 = CARTESIAN_POINT ( 'NONE',  ( 0.000000000000000000, 11.50000000000000000, 0.000000000000000000 ) ) ;
#200 = AXIS2_PLACEMENT_3D ( 'NONE', #217, #19, #91 ) ;
#201 = DIRECTION ( 'NONE',  ( -0.000000000000000000, -1.000000000000000000, -0.000000000000000000 ) ) ;
#202 = LINE ( 'NONE', #247, #141 ) ;
#203 = STYLED_ITEM ( 'NONE', ( #180 ), #36 ) ;
#204 = CARTESIAN_POINT ( 'NONE',  ( 0.000000000000000000, 0.000000000000000000, 3.825000000000000178 ) ) ;
#205 = LINE ( 'NONE', #103, #2 ) ;
#206 = APPLICATION_PROTOCOL_DEFINITION ( 'draft international standard', 'automotive_design', 1998, #25 ) ;
#207 = EDGE_LOOP ( 'NONE', ( #33, #188, #171, #37 ) ) ;
#208 = AXIS2_PLACEMENT_3D ( 'NONE', #219, #176, #273 ) ;
#209 = ORIENTED_EDGE ( 'NONE', *, *, #78, .F. ) ;
#210 = EDGE_LOOP ( 'NONE', ( #173, #270, #10, #169 ) ) ;
#211 = ADVANCED_BREP_SHAPE_REPRESENTATION ( 'UniversalJointConnector', ( #36, #251 ), #215 ) ;
#212 = EDGE_LOOP ( 'NONE', ( #209, #269, #187, #222 ) ) ;
#213 = DIRECTION ( 'NONE',  ( -0.000000000000000000, -1.000000000000000000, -0.000000000000000000 ) ) ;
#214 = FACE_BOUND ( 'NONE', #148, .T. ) ;
#215 =( GEOMETRIC_REPRESENTATION_CONTEXT ( 3 ) GLOBAL_UNCERTAINTY_ASSIGNED_CONTEXT ( ( #260 ) ) GLOBAL_UNIT_ASSIGNED_CONTEXT ( ( #124, #23, #122 ) ) REPRESENTATION_CONTEXT ( 'NONE', 'WORKASPACE' ) );
#216 = CARTESIAN_POINT ( 'NONE',  ( 0.000000000000000000, 16.00000000000000000, -2.500000000000000000 ) ) ;
#217 = CARTESIAN_POINT ( 'NONE',  ( 0.000000000000000000, 10.00000000000000000, 0.000000000000000000 ) ) ;
#218 = VECTOR ( 'NONE', #69, 1000.000000000000000 ) ;
#219 = CARTESIAN_POINT ( 'NONE',  ( 0.000000000000000000, 0.000000000000000000, 0.000000000000000000 ) ) ;
#220 = DIRECTION ( 'NONE',  ( 0.000000000000000000, 0.000000000000000000, 1.000000000000000000 ) ) ;
#221 = PRESENTATION_LAYER_ASSIGNMENT (  '', '', ( #203 ) ) ;
#222 = ORIENTED_EDGE ( 'NONE', *, *, #44, .T. ) ;
#223 = AXIS2_PLACEMENT_3D ( 'NONE', #184, #24, #280 ) ;
#224 = DIRECTION ( 'NONE',  ( 0.000000000000000000, 1.000000000000000000, 0.000000000000000000 ) ) ;
#225 = UNCERTAINTY_MEASURE_WITH_UNIT (LENGTH_MEASURE( 1.000000000000000082E-05 ), #198, 'distance_accuracy_value', 'NONE');
#226 = CARTESIAN_POINT ( 'NONE',  ( 0.000000000000000000, 11.50000000000000000, 0.000000000000000000 ) ) ;
#227 = AXIS2_PLACEMENT_3D ( 'NONE', #261, #16, #238 ) ;
#228 = ADVANCED_FACE ( 'NONE', ( #20 ), #157, .T. ) ;
#229 = CARTESIAN_POINT ( 'NONE',  ( 4.791155453704881265E-16, 0.000000000000000000, -3.825000000000000178 ) ) ;
#230 = ORIENTED_EDGE ( 'NONE', *, *, #175, .F. ) ;
#231 = CARTESIAN_POINT ( 'NONE',  ( 0.000000000000000000, 11.50000000000000000, 0.000000000000000000 ) ) ;
#232 = CARTESIAN_POINT ( 'NONE',  ( 0.000000000000000000, 10.00000000000000000, 0.000000000000000000 ) ) ;
#233 = FACE_OUTER_BOUND ( 'NONE', #212, .T. ) ;
#234 = ORIENTED_EDGE ( 'NONE', *, *, #40, .F. ) ;
#235 = CIRCLE ( 'NONE', #38, 2.500000000000000000 ) ;
#236 = VERTEX_POINT ( 'NONE', #229 ) ;
#237 = VECTOR ( 'NONE', #96, 1000.000000000000114 ) ;
#238 = DIRECTION ( 'NONE',  ( 0.000000000000000000, 0.000000000000000000, 1.000000000000000000 ) ) ;
#239 = FACE_OUTER_BOUND ( 'NONE', #254, .T. ) ;
#240 = COLOUR_RGB ( '',0.7921568627450980005, 0.8196078431372548767, 0.9333333333333333481 ) ;
#241 = CARTESIAN_POINT ( 'NONE',  ( 0.000000000000000000, 16.00000000000000000, 0.000000000000000000 ) ) ;
#242 = PRODUCT ( 'UniversalJointConnector', 'UniversalJointConnector', '', ( #35 ) ) ;
#243 = DIRECTION ( 'NONE',  ( 0.000000000000000000, 0.000000000000000000, -1.000000000000000000 ) ) ;
#244 = PLANE ( 'NONE',  #208 ) ;
#245 = VECTOR ( 'NONE', #77, 1000.000000000000114 ) ;
#246 = DIRECTION ( 'NONE',  ( 0.000000000000000000, 1.000000000000000000, 0.000000000000000000 ) ) ;
#247 = CARTESIAN_POINT ( 'NONE',  ( 0.000000000000000000, 16.00000000000000000, -2.500000000000000000 ) ) ;
#248 = CARTESIAN_POINT ( 'NONE',  ( 0.000000000000000000, 0.000000000000000000, 0.000000000000000000 ) ) ;
#249 = DIRECTION ( 'NONE',  ( 0.000000000000000000, 0.000000000000000000, 1.000000000000000000 ) ) ;
#250 = CARTESIAN_POINT ( 'NONE',  ( 0.000000000000000000, 11.50000000000000000, 0.000000000000000000 ) ) ;
#251 = AXIS2_PLACEMENT_3D ( 'NONE', #106, #87, #9 ) ;
#252 = EDGE_LOOP ( 'NONE', ( #57, #149 ) ) ;
#253 = CIRCLE ( 'NONE', #94, 5.000000000000000000 ) ;
#254 = EDGE_LOOP ( 'NONE', ( #230, #256 ) ) ;
#255 = CIRCLE ( 'NONE', #172, 2.500000000000000000 ) ;
#256 = ORIENTED_EDGE ( 'NONE', *, *, #22, .F. ) ;
#257 = ORIENTED_EDGE ( 'NONE', *, *, #152, .T. ) ;
#258 = LINE ( 'NONE', #66, #83 ) ;
#259 = FACE_OUTER_BOUND ( 'NONE', #71, .T. ) ;
#260 = UNCERTAINTY_MEASURE_WITH_UNIT (LENGTH_MEASURE( 1.000000000000000082E-05 ), #124, 'distance_accuracy_value', 'NONE');
#261 = CARTESIAN_POINT ( 'NONE',  ( 0.000000000000000000, 0.000000000000000000, 0.000000000000000000 ) ) ;
#262 = CARTESIAN_POINT ( 'NONE',  ( 0.000000000000000000, 11.50000000000000000, 0.000000000000000000 ) ) ;
#263 = ADVANCED_FACE ( 'NONE', ( #48 ), #197, .T. ) ;
#264 = DIRECTION ( 'NONE',  ( 0.000000000000000000, 0.000000000000000000, 1.000000000000000000 ) ) ;
#265 = EDGE_CURVE ( 'NONE', #236, #53, #80, .T. ) ;
#266 = CARTESIAN_POINT ( 'NONE',  ( 0.000000000000000000, 0.000000000000000000, 0.000000000000000000 ) ) ;
#267 = DIRECTION ( 'NONE',  ( 0.000000000000000000, 0.000000000000000000, 1.000000000000000000 ) ) ;
#268 = DIRECTION ( 'NONE',  ( 0.000000000000000000, 0.000000000000000000, 1.000000000000000000 ) ) ;
#269 = ORIENTED_EDGE ( 'NONE', *, *, #114, .F. ) ;
#270 = ORIENTED_EDGE ( 'NONE', *, *, #97, .T. ) ;
#271 = VERTEX_POINT ( 'NONE', #50 ) ;
#272 = ORIENTED_EDGE ( 'NONE', *, *, #166, .F. ) ;
#273 = DIRECTION ( 'NONE',  ( 0.000000000000000000, -0.000000000000000000, 1.000000000000000000 ) ) ;
#274 = PLANE ( 'NONE',  #81 ) ;
#275 = ADVANCED_FACE ( 'NONE', ( #142 ), #121, .T. ) ;
#276 = FACE_OUTER_BOUND ( 'NONE', #98, .T. ) ;
#277 = CARTESIAN_POINT ( 'NONE',  ( 4.898036900671135421E-16, 10.00000000000000000, -3.999550649282176629 ) ) ;
#278 = CIRCLE ( 'NONE', #223, 5.000000000000000000 ) ;
#279 = DIRECTION ( 'NONE',  ( 0.000000000000000000, 1.000000000000000000, 0.000000000000000000 ) ) ;
#280 = DIRECTION ( 'NONE',  ( 0.000000000000000000, 0.000000000000000000, 1.000000000000000000 ) ) ;
#281 = EDGE_CURVE ( 'NONE', #6, #191, #205, .T. ) ;
#282 = AXIS2_PLACEMENT_3D ( 'NONE', #248, #56, #268 ) ;
#283 = CARTESIAN_POINT ( 'NONE',  ( 0.000000000000000000, 10.00000000000000000, -5.000000000000000000 ) ) ;
#284 = DIRECTION ( 'NONE',  ( -0.000000000000000000, -1.000000000000000000, -0.000000000000000000 ) ) ;
#285 = CARTESIAN_POINT ( 'NONE',  ( 4.684274006738626122E-16, 0.000000000000000000, -3.825000000000000178 ) ) ;
ENDSEC;
END-ISO-10303-21;
