ISO-10303-21;
HEADER;
FILE_DESCRIPTION (( 'STEP AP214' ),
    '1' );
FILE_NAME ('Shaft Fastener Tool 50mm1.STEP',
    '2025-10-13T02:52:03',
    ( '' ),
    ( '' ),
    'SwSTEP 2.0',
    'SolidWorks 2024',
    '' );
FILE_SCHEMA (( 'AUTOMOTIVE_DESIGN' ));
ENDSEC;

DATA;
#1 = CARTESIAN_POINT ( 'NONE',  ( 0.000000000000000000, -14.00000000000000000, 0.000000000000000000 ) ) ;
#2 = CARTESIAN_POINT ( 'NONE',  ( 0.000000000000000000, -14.00000000000000000, 0.000000000000000000 ) ) ;
#3 = ORIENTED_EDGE ( 'NONE', *, *, #179, .F. ) ;
#4 = EDGE_CURVE ( 'NONE', #145, #19, #225, .T. ) ;
#5 = DIRECTION ( 'NONE',  ( -0.000000000000000000, 1.000000000000000000, -0.000000000000000000 ) ) ;
#6 = LINE ( 'NONE', #596, #517 ) ;
#7 = DIRECTION ( 'NONE',  ( -1.000000000000000000, 0.000000000000000000, 0.000000000000000000 ) ) ;
#8 = ORIENTED_EDGE ( 'NONE', *, *, #188, .F. ) ;
#9 = EDGE_CURVE ( 'NONE', #652, #41, #708, .T. ) ;
#10 = DIRECTION ( 'NONE',  ( 0.000000000000000000, 1.000000000000000000, 0.000000000000000000 ) ) ;
#11 = DIRECTION ( 'NONE',  ( 0.000000000000000000, 0.000000000000000000, -1.000000000000000000 ) ) ;
#12 = CARTESIAN_POINT ( 'NONE',  ( 1.500000000000002665, -10.00000000000000000, -22.95103483505700126 ) ) ;
#13 = ORIENTED_EDGE ( 'NONE', *, *, #333, .T. ) ;
#14 = VECTOR ( 'NONE', #788, 1000.000000000000000 ) ;
#15 = LINE ( 'NONE', #207, #736 ) ;
#16 = DIRECTION ( 'NONE',  ( -0.000000000000000000, 1.000000000000000000, -0.000000000000000000 ) ) ;
#17 = EDGE_CURVE ( 'NONE', #183, #719, #87, .T. ) ;
#18 = LINE ( 'NONE', #833, #357 ) ;
#19 = VERTEX_POINT ( 'NONE', #728 ) ;
#20 = CARTESIAN_POINT ( 'NONE',  ( 0.000000000000000000, -14.00000000000000000, 0.000000000000000000 ) ) ;
#21 = DIRECTION ( 'NONE',  ( 0.000000000000000000, 1.000000000000000000, 0.000000000000000000 ) ) ;
#22 = FACE_OUTER_BOUND ( 'NONE', #238, .T. ) ;
#23 = ORIENTED_EDGE ( 'NONE', *, *, #539, .T. ) ;
#24 = EDGE_CURVE ( 'NONE', #777, #594, #57, .T. ) ;
#25 = ORIENTED_EDGE ( 'NONE', *, *, #524, .T. ) ;
#26 = VECTOR ( 'NONE', #98, 1000.000000000000000 ) ;
#27 = CARTESIAN_POINT ( 'NONE',  ( 0.000000000000000000, -14.00000000000000000, 0.000000000000000000 ) ) ;
#28 = CYLINDRICAL_SURFACE ( 'NONE', #259, 23.00000000000000000 ) ;
#29 = EDGE_LOOP ( 'NONE', ( #775, #103, #485, #127 ) ) ;
#30 = EDGE_CURVE ( 'NONE', #791, #197, #155, .T. ) ;
#31 = DIRECTION ( 'NONE',  ( 0.000000000000000000, 0.000000000000000000, 1.000000000000000000 ) ) ;
#32 = DIRECTION ( 'NONE',  ( 0.000000000000000000, 0.000000000000000000, -1.000000000000000000 ) ) ;
#33 = CARTESIAN_POINT ( 'NONE',  ( 0.000000000000000000, -10.00000000000000000, 1.500000000000001554 ) ) ;
#34 = ORIENTED_EDGE ( 'NONE', *, *, #644, .T. ) ;
#35 = VERTEX_POINT ( 'NONE', #247 ) ;
#36 = EDGE_CURVE ( 'NONE', #160, #35, #724, .T. ) ;
#37 = APPLICATION_PROTOCOL_DEFINITION ( 'draft international standard', 'automotive_design', 1998, #637 ) ;
#38 = CARTESIAN_POINT ( 'NONE',  ( 0.000000000000000000, -14.00000000000000000, 0.000000000000000000 ) ) ;
#39 = SURFACE_STYLE_USAGE ( .BOTH. , #376 ) ;
#40 = ORIENTED_EDGE ( 'NONE', *, *, #333, .F. ) ;
#41 = VERTEX_POINT ( 'NONE', #51 ) ;
#42 = AXIS2_PLACEMENT_3D ( 'NONE', #634, #21, #496 ) ;
#43 = DIRECTION ( 'NONE',  ( -0.000000000000000000, 0.000000000000000000, 1.000000000000000000 ) ) ;
#44 = DIRECTION ( 'NONE',  ( -0.000000000000000000, 0.000000000000000000, -1.000000000000000000 ) ) ;
#45 = ORIENTED_EDGE ( 'NONE', *, *, #303, .T. ) ;
#46 = CARTESIAN_POINT ( 'NONE',  ( 3.175000000000000266, 16.35000000000000497, 3.174999999999999822 ) ) ;
#47 = PLANE ( 'NONE',  #486 ) ;
#48 = EDGE_CURVE ( 'NONE', #171, #168, #243, .T. ) ;
#49 = VECTOR ( 'NONE', #547, 1000.000000000000000 ) ;
#50 = EDGE_LOOP ( 'NONE', ( #752, #570, #500, #859 ) ) ;
#51 = CARTESIAN_POINT ( 'NONE',  ( -22.95103483505700126, -10.00000000000000000, -1.499999999999995781 ) ) ;
#52 = ORIENTED_EDGE ( 'NONE', *, *, #48, .F. ) ;
#53 = ADVANCED_FACE ( 'NONE', ( #120 ), #47, .F. ) ;
#54 = PLANE ( 'NONE',  #648 ) ;
#55 = ORIENTED_EDGE ( 'NONE', *, *, #524, .F. ) ;
#56 = EDGE_CURVE ( 'NONE', #842, #99, #321, .T. ) ;
#57 = CIRCLE ( 'NONE', #356, 23.00000000000000000 ) ;
#58 = DIRECTION ( 'NONE',  ( 0.000000000000000000, 1.000000000000000000, 0.000000000000000000 ) ) ;
#59 = ORIENTED_EDGE ( 'NONE', *, *, #72, .F. ) ;
#60 = AXIS2_PLACEMENT_3D ( 'NONE', #446, #852, #857 ) ;
#61 = LINE ( 'NONE', #265, #336 ) ;
#62 = ADVANCED_FACE ( 'NONE', ( #521 ), #381, .T. ) ;
#63 = LINE ( 'NONE', #738, #282 ) ;
#64 = EDGE_LOOP ( 'NONE', ( #332, #364, #845, #189 ) ) ;
#65 = CARTESIAN_POINT ( 'NONE',  ( 1.500000000000000000, -10.00000000000000000, 0.000000000000000000 ) ) ;
#66 = DIRECTION ( 'NONE',  ( 0.000000000000000000, 1.000000000000000000, 0.000000000000000000 ) ) ;
#67 = ORIENTED_EDGE ( 'NONE', *, *, #510, .T. ) ;
#68 = PLANE ( 'NONE',  #748 ) ;
#69 = AXIS2_PLACEMENT_3D ( 'NONE', #568, #429, #483 ) ;
#70 = LINE ( 'NONE', #285, #805 ) ;
#71 = EDGE_LOOP ( 'NONE', ( #308, #654, #449, #587 ) ) ;
#72 = EDGE_CURVE ( 'NONE', #351, #291, #447, .T. ) ;
#73 = CIRCLE ( 'NONE', #566, 23.00000000000000000 ) ;
#74 = CARTESIAN_POINT ( 'NONE',  ( -24.95495942693556302, -14.00000000000000000, -1.499999999999995781 ) ) ;
#75 = DIRECTION ( 'NONE',  ( 0.000000000000000000, -0.000000000000000000, -1.000000000000000000 ) ) ;
#76 = LINE ( 'NONE', #159, #767 ) ;
#77 = ORIENTED_EDGE ( 'NONE', *, *, #262, .F. ) ;
#78 = EDGE_CURVE ( 'NONE', #597, #525, #388, .T. ) ;
#79 = CARTESIAN_POINT ( 'NONE',  ( 0.000000000000000000, -14.00000000000000000, 0.000000000000000000 ) ) ;
#80 = CARTESIAN_POINT ( 'NONE',  ( 0.000000000000000000, -10.00000000000000000, 0.000000000000000000 ) ) ;
#81 = CARTESIAN_POINT ( 'NONE',  ( 0.000000000000000000, -14.00000000000000000, 0.000000000000000000 ) ) ;
#82 = ORIENTED_EDGE ( 'NONE', *, *, #668, .F. ) ;
#83 = EDGE_CURVE ( 'NONE', #661, #183, #122, .T. ) ;
#84 = DIRECTION ( 'NONE',  ( 0.000000000000000000, -1.000000000000000000, 0.000000000000000000 ) ) ;
#85 = LINE ( 'NONE', #353, #610 ) ;
#86 = FACE_OUTER_BOUND ( 'NONE', #394, .T. ) ;
#87 = CIRCLE ( 'NONE', #125, 25.00000000000000000 ) ;
#88 = VERTEX_POINT ( 'NONE', #794 ) ;
#89 = VECTOR ( 'NONE', #172, 1000.000000000000000 ) ;
#90 = MECHANICAL_DESIGN_GEOMETRIC_PRESENTATION_REPRESENTATION (  '', ( #118 ), #141 ) ;
#91 = DIRECTION ( 'NONE',  ( 0.000000000000000000, -0.000000000000000000, -1.000000000000000000 ) ) ;
#92 = EDGE_CURVE ( 'NONE', #444, #41, #513, .T. ) ;
#93 = PLANE ( 'NONE',  #69 ) ;
#94 = LINE ( 'NONE', #154, #773 ) ;
#95 = ORIENTED_EDGE ( 'NONE', *, *, #567, .T. ) ;
#96 = ORIENTED_EDGE ( 'NONE', *, *, #658, .F. ) ;
#97 = CARTESIAN_POINT ( 'NONE',  ( 3.175000000000000266, 16.35000000000000497, 3.174999999999999822 ) ) ;
#98 = DIRECTION ( 'NONE',  ( -1.000000000000000000, 0.000000000000000000, 0.000000000000000000 ) ) ;
#99 = VERTEX_POINT ( 'NONE', #117 ) ;
#100 = CIRCLE ( 'NONE', #220, 23.00000000000000000 ) ;
#101 = PLANE ( 'NONE',  #561 ) ;
#102 = DIRECTION ( 'NONE',  ( 0.000000000000000000, 0.000000000000000000, 1.000000000000000000 ) ) ;
#103 = ORIENTED_EDGE ( 'NONE', *, *, #132, .F. ) ;
#104 = ADVANCED_FACE ( 'NONE', ( #379 ), #251, .T. ) ;
#105 = CARTESIAN_POINT ( 'NONE',  ( 0.000000000000000000, -10.00000000000000000, 0.000000000000000000 ) ) ;
#106 = VECTOR ( 'NONE', #848, 1000.000000000000000 ) ;
#107 = CARTESIAN_POINT ( 'NONE',  ( 3.175000000000000711, 16.35000000000000497, -3.175000000000001599 ) ) ;
#108 = VERTEX_POINT ( 'NONE', #323 ) ;
#109 = CARTESIAN_POINT ( 'NONE',  ( 0.000000000000000000, -14.00000000000000000, 1.500000000000001554 ) ) ;
#110 =( NAMED_UNIT ( * ) SI_UNIT ( $, .STERADIAN. ) SOLID_ANGLE_UNIT ( ) );
#111 = CARTESIAN_POINT ( 'NONE',  ( -1.500000000000000000, -14.00000000000000000, 0.000000000000000000 ) ) ;
#112 = ADVANCED_FACE ( 'NONE', ( #523, #586 ), #54, .T. ) ;
#113 = CARTESIAN_POINT ( 'NONE',  ( 3.061616997868383043E-15, -14.00000000000000000, 25.00000000000000000 ) ) ;
#114 = DIRECTION ( 'NONE',  ( 0.000000000000000000, -1.000000000000000000, 0.000000000000000000 ) ) ;
#115 = ORIENTED_EDGE ( 'NONE', *, *, #683, .F. ) ;
#116 = ADVANCED_FACE ( 'NONE', ( #713 ), #853, .F. ) ;
#117 = CARTESIAN_POINT ( 'NONE',  ( -24.95495942693556302, -10.00000000000000000, -1.499999999999995781 ) ) ;
#118 = STYLED_ITEM ( 'NONE', ( #502 ), #690 ) ;
#119 = ORIENTED_EDGE ( 'NONE', *, *, #567, .F. ) ;
#120 = FACE_OUTER_BOUND ( 'NONE', #64, .T. ) ;
#121 = EDGE_LOOP ( 'NONE', ( #239, #556, #322, #248 ) ) ;
#122 = LINE ( 'NONE', #393, #548 ) ;
#123 = ORIENTED_EDGE ( 'NONE', *, *, #445, .F. ) ;
#124 = DIRECTION ( 'NONE',  ( 0.000000000000000000, 0.000000000000000000, -1.000000000000000000 ) ) ;
#125 = AXIS2_PLACEMENT_3D ( 'NONE', #716, #114, #577 ) ;
#126 = DIRECTION ( 'NONE',  ( 1.000000000000000000, 0.000000000000000000, 2.116584881062467282E-16 ) ) ;
#127 = ORIENTED_EDGE ( 'NONE', *, *, #384, .T. ) ;
#128 = AXIS2_PLACEMENT_3D ( 'NONE', #424, #757, #152 ) ;
#129 = DIRECTION ( 'NONE',  ( 0.000000000000000000, -1.000000000000000000, 0.000000000000000000 ) ) ;
#130 = ORIENTED_EDGE ( 'NONE', *, *, #194, .F. ) ;
#131 = DIRECTION ( 'NONE',  ( 0.000000000000000000, 0.000000000000000000, 1.000000000000000000 ) ) ;
#132 = EDGE_CURVE ( 'NONE', #171, #739, #202, .T. ) ;
#133 = DIRECTION ( 'NONE',  ( 1.000000000000000000, 0.000000000000000000, 0.000000000000000000 ) ) ;
#134 = ORIENTED_EDGE ( 'NONE', *, *, #450, .F. ) ;
#135 = CARTESIAN_POINT ( 'NONE',  ( 22.95103483505700126, -14.00000000000000000, -1.499999999999998446 ) ) ;
#136 = AXIS2_PLACEMENT_3D ( 'NONE', #734, #126, #396 ) ;
#137 = CARTESIAN_POINT ( 'NONE',  ( -3.175000000000000711, 16.35000000000000497, 3.174999999999999822 ) ) ;
#138 = EDGE_CURVE ( 'NONE', #791, #504, #143, .T. ) ;
#139 = PLANE ( 'NONE',  #575 ) ;
#140 = ORIENTED_EDGE ( 'NONE', *, *, #330, .F. ) ;
#141 =( GEOMETRIC_REPRESENTATION_CONTEXT ( 3 ) GLOBAL_UNCERTAINTY_ASSIGNED_CONTEXT ( ( #391 ) ) GLOBAL_UNIT_ASSIGNED_CONTEXT ( ( #712, #320, #110 ) ) REPRESENTATION_CONTEXT ( 'NONE', 'WORKASPACE' ) );
#142 = CARTESIAN_POINT ( 'NONE',  ( 0.000000000000000000, 10.00000000000000000, 0.000000000000000000 ) ) ;
#143 = LINE ( 'NONE', #465, #436 ) ;
#144 = DIRECTION ( 'NONE',  ( -1.000000000000000000, -0.000000000000000000, -0.000000000000000000 ) ) ;
#145 = VERTEX_POINT ( 'NONE', #137 ) ;
#146 = ADVANCED_FACE ( 'NONE', ( #407 ), #813, .T. ) ;
#147 = DIRECTION ( 'NONE',  ( -1.000000000000000000, 0.000000000000000000, 0.000000000000000000 ) ) ;
#148 = PLANE ( 'NONE',  #699 ) ;
#149 = CARTESIAN_POINT ( 'NONE',  ( -3.175000000000000711, 16.35000000000000497, -3.175000000000001599 ) ) ;
#150 = ORIENTED_EDGE ( 'NONE', *, *, #373, .T. ) ;
#151 = EDGE_CURVE ( 'NONE', #609, #735, #63, .T. ) ;
#152 = DIRECTION ( 'NONE',  ( 0.000000000000000000, 0.000000000000000000, -1.000000000000000000 ) ) ;
#153 = LINE ( 'NONE', #772, #673 ) ;
#154 = CARTESIAN_POINT ( 'NONE',  ( -3.175000000000000711, 10.00000000000000000, -3.175000000000001599 ) ) ;
#155 = CIRCLE ( 'NONE', #706, 23.00000000000000000 ) ;
#156 = DIRECTION ( 'NONE',  ( -0.000000000000000000, -1.000000000000000000, -0.000000000000000000 ) ) ;
#157 = ORIENTED_EDGE ( 'NONE', *, *, #4, .T. ) ;
#158 = DIRECTION ( 'NONE',  ( 0.000000000000000000, 0.000000000000000000, -1.000000000000000000 ) ) ;
#159 = CARTESIAN_POINT ( 'NONE',  ( -3.175000000000000711, 16.35000000000000497, 3.174999999999999822 ) ) ;
#160 = VERTEX_POINT ( 'NONE', #602 ) ;
#161 = LINE ( 'NONE', #629, #643 ) ;
#162 = EDGE_CURVE ( 'NONE', #35, #739, #317, .T. ) ;
#163 = VERTEX_POINT ( 'NONE', #675 ) ;
#164 = AXIS2_PLACEMENT_3D ( 'NONE', #109, #43, #190 ) ;
#165 = VECTOR ( 'NONE', #626, 1000.000000000000000 ) ;
#166 = DIRECTION ( 'NONE',  ( 2.116584881062467282E-16, 0.000000000000000000, -1.000000000000000000 ) ) ;
#167 = CARTESIAN_POINT ( 'NONE',  ( 0.000000000000000000, 16.35000000000000497, -25.00000000000000000 ) ) ;
#168 = VERTEX_POINT ( 'NONE', #671 ) ;
#169 = ADVANCED_FACE ( 'NONE', ( #530 ), #414, .T. ) ;
#170 = VECTOR ( 'NONE', #182, 1000.000000000000000 ) ;
#171 = VERTEX_POINT ( 'NONE', #192 ) ;
#172 = DIRECTION ( 'NONE',  ( -0.000000000000000000, 1.000000000000000000, -0.000000000000000000 ) ) ;
#173 = ORIENTED_EDGE ( 'NONE', *, *, #776, .F. ) ;
#174 = EDGE_CURVE ( 'NONE', #710, #480, #779, .T. ) ;
#175 = PRODUCT_CONTEXT ( 'NONE', #718, 'mechanical' ) ;
#176 = DIRECTION ( 'NONE',  ( -1.000000000000000000, 0.000000000000000000, 0.000000000000000000 ) ) ;
#177 = VECTOR ( 'NONE', #685, 1000.000000000000000 ) ;
#178 = ORIENTED_EDGE ( 'NONE', *, *, #325, .T. ) ;
#179 = EDGE_CURVE ( 'NONE', #434, #842, #863, .T. ) ;
#180 = VECTOR ( 'NONE', #240, 1000.000000000000000 ) ;
#181 = LINE ( 'NONE', #507, #676 ) ;
#182 = DIRECTION ( 'NONE',  ( 2.116584881062467282E-16, 0.000000000000000000, -1.000000000000000000 ) ) ;
#183 = VERTEX_POINT ( 'NONE', #341 ) ;
#184 = VECTOR ( 'NONE', #370, 1000.000000000000000 ) ;
#185 = DIRECTION ( 'NONE',  ( -0.000000000000000000, 1.000000000000000000, -0.000000000000000000 ) ) ;
#186 = ORIENTED_EDGE ( 'NONE', *, *, #17, .F. ) ;
#187 = CARTESIAN_POINT ( 'NONE',  ( 0.000000000000000000, -14.00000000000000000, 0.000000000000000000 ) ) ;
#188 = EDGE_CURVE ( 'NONE', #597, #747, #300, .T. ) ;
#189 = ORIENTED_EDGE ( 'NONE', *, *, #428, .F. ) ;
#190 = DIRECTION ( 'NONE',  ( 1.000000000000000000, 0.000000000000000000, 0.000000000000000000 ) ) ;
#191 = CIRCLE ( 'NONE', #801, 25.00000000000000000 ) ;
#192 = CARTESIAN_POINT ( 'NONE',  ( -1.499999999999991118, -14.00000000000000000, 22.95103483505700126 ) ) ;
#193 = EDGE_LOOP ( 'NONE', ( #271, #810, #398, #123, #841, #34, #835, #3, #45, #95, #476, #604 ) ) ;
#194 = EDGE_CURVE ( 'NONE', #747, #710, #399, .T. ) ;
#195 = CLOSED_SHELL ( 'NONE', ( #860, #368, #249, #53, #116, #532, #872, #711, #497, #62, #169, #104, #847, #146, #454, #311, #732, #257, #515, #723, #605, #112, #272, #714, #361, #297 ) ) ;
#196 = CARTESIAN_POINT ( 'NONE',  ( 0.000000000000000000, -14.00000000000000000, 0.000000000000000000 ) ) ;
#197 = VERTEX_POINT ( 'NONE', #750 ) ;
#198 = VECTOR ( 'NONE', #624, 1000.000000000000000 ) ;
#199 = DIRECTION ( 'NONE',  ( -0.000000000000000000, 1.000000000000000000, -0.000000000000000000 ) ) ;
#200 = ORIENTED_EDGE ( 'NONE', *, *, #782, .F. ) ;
#201 = EDGE_CURVE ( 'NONE', #444, #842, #404, .T. ) ;
#202 = LINE ( 'NONE', #745, #462 ) ;
#203 = PLANE ( 'NONE',  #408 ) ;
#204 = ORIENTED_EDGE ( 'NONE', *, *, #303, .F. ) ;
#205 = PRODUCT_DEFINITION_SHAPE ( 'NONE', 'NONE',  #705 ) ;
#206 = VECTOR ( 'NONE', #441, 1000.000000000000000 ) ;
#207 = CARTESIAN_POINT ( 'NONE',  ( 1.500000000000002665, -14.00000000000000000, -22.95103483505700126 ) ) ;
#208 = FACE_OUTER_BOUND ( 'NONE', #71, .T. ) ;
#209 = EDGE_CURVE ( 'NONE', #531, #719, #70, .T. ) ;
#210 = LINE ( 'NONE', #33, #550 ) ;
#211 = ORIENTED_EDGE ( 'NONE', *, *, #390, .F. ) ;
#212 = AXIS2_PLACEMENT_3D ( 'NONE', #817, #665, #669 ) ;
#213 = UNCERTAINTY_MEASURE_WITH_UNIT (LENGTH_MEASURE( 1.000000000000000082E-05 ), #340, 'distance_accuracy_value', 'NONE');
#214 = AXIS2_PLACEMENT_3D ( 'NONE', #142, #413, #553 ) ;
#215 = CARTESIAN_POINT ( 'NONE',  ( 1.500000000000003109, -10.00000000000000000, -24.95495942693556302 ) ) ;
#216 = FACE_OUTER_BOUND ( 'NONE', #253, .T. ) ;
#217 = DIRECTION ( 'NONE',  ( 0.000000000000000000, 0.000000000000000000, -1.000000000000000000 ) ) ;
#218 = ORIENTED_EDGE ( 'NONE', *, *, #837, .F. ) ;
#219 = EDGE_CURVE ( 'NONE', #597, #480, #6, .T. ) ;
#220 = AXIS2_PLACEMENT_3D ( 'NONE', #27, #298, #562 ) ;
#221 = LINE ( 'NONE', #741, #591 ) ;
#222 = DIRECTION ( 'NONE',  ( -1.000000000000000000, 0.000000000000000000, -0.000000000000000000 ) ) ;
#223 = AXIS2_PLACEMENT_3D ( 'NONE', #754, #421, #158 ) ;
#224 = CARTESIAN_POINT ( 'NONE',  ( 1.500000000000000000, -14.00000000000000000, 24.95495942693556302 ) ) ;
#225 = LINE ( 'NONE', #760, #659 ) ;
#226 = ORIENTED_EDGE ( 'NONE', *, *, #325, .F. ) ;
#227 = CYLINDRICAL_SURFACE ( 'NONE', #214, 23.00000000000000000 ) ;
#228 = CARTESIAN_POINT ( 'NONE',  ( -3.175000000000000711, 16.35000000000000497, 3.174999999999999822 ) ) ;
#229 = DIRECTION ( 'NONE',  ( 1.000000000000000000, 0.000000000000000000, 0.000000000000000000 ) ) ;
#230 = VECTOR ( 'NONE', #864, 1000.000000000000000 ) ;
#231 = ORIENTED_EDGE ( 'NONE', *, *, #867, .T. ) ;
#232 = DIRECTION ( 'NONE',  ( -0.000000000000000000, 0.000000000000000000, 1.000000000000000000 ) ) ;
#233 = FILL_AREA_STYLE ('',( #785 ) ) ;
#234 = ORIENTED_EDGE ( 'NONE', *, *, #520, .F. ) ;
#235 = EDGE_CURVE ( 'NONE', #41, #99, #541, .T. ) ;
#236 = PLANE ( 'NONE',  #633 ) ;
#237 = CARTESIAN_POINT ( 'NONE',  ( 24.95495942693556302, -14.00000000000000000, -1.499999999999998446 ) ) ;
#238 = EDGE_LOOP ( 'NONE', ( #820, #694, #226, #264 ) ) ;
#239 = ORIENTED_EDGE ( 'NONE', *, *, #481, .F. ) ;
#240 = DIRECTION ( 'NONE',  ( 1.000000000000000000, 0.000000000000000000, 0.000000000000000000 ) ) ;
#241 = DIRECTION ( 'NONE',  ( 0.000000000000000000, 1.000000000000000000, 0.000000000000000000 ) ) ;
#242 = ORIENTED_EDGE ( 'NONE', *, *, #529, .F. ) ;
#243 = CIRCLE ( 'NONE', #821, 23.00000000000000000 ) ;
#244 = VECTOR ( 'NONE', #607, 1000.000000000000000 ) ;
#245 = CARTESIAN_POINT ( 'NONE',  ( -24.95495942693556302, -14.00000000000000000, 1.499999999999995781 ) ) ;
#246 = CIRCLE ( 'NONE', #374, 25.00000000000000000 ) ;
#247 = CARTESIAN_POINT ( 'NONE',  ( -22.95103483505700126, -10.00000000000000000, 1.499999999999995781 ) ) ;
#248 = ORIENTED_EDGE ( 'NONE', *, *, #458, .T. ) ;
#249 = ADVANCED_FACE ( 'NONE', ( #208 ), #613, .F. ) ;
#250 = CARTESIAN_POINT ( 'NONE',  ( 0.000000000000000000, -10.00000000000000000, 1.499999999999995781 ) ) ;
#251 = PLANE ( 'NONE',  #819 ) ;
#252 = CIRCLE ( 'NONE', #42, 25.00000000000000000 ) ;
#253 = EDGE_LOOP ( 'NONE', ( #647, #267, #703, #25, #178, #200, #780, #850, #551, #363, #186, #499 ) ) ;
#254 = DIRECTION ( 'NONE',  ( -0.000000000000000000, 1.000000000000000000, -0.000000000000000000 ) ) ;
#255 = PRODUCT ( 'Shaft Fastener Tool 50mm1', 'Shaft Fastener Tool 50mm1', '', ( #175 ) ) ;
#256 = ORIENTED_EDGE ( 'NONE', *, *, #268, .F. ) ;
#257 = ADVANCED_FACE ( 'NONE', ( #460 ), #804, .T. ) ;
#258 = DIRECTION ( 'NONE',  ( 0.000000000000000000, 1.000000000000000000, 0.000000000000000000 ) ) ;
#259 = AXIS2_PLACEMENT_3D ( 'NONE', #299, #563, #770 ) ;
#260 = ORIENTED_EDGE ( 'NONE', *, *, #539, .F. ) ;
#261 = VECTOR ( 'NONE', #559, 1000.000000000000000 ) ;
#262 = EDGE_CURVE ( 'NONE', #88, #641, #266, .T. ) ;
#263 = CARTESIAN_POINT ( 'NONE',  ( 22.95103483505700126, -14.00000000000000000, 1.500000000000001554 ) ) ;
#264 = ORIENTED_EDGE ( 'NONE', *, *, #417, .F. ) ;
#265 = CARTESIAN_POINT ( 'NONE',  ( -3.175000000000000711, 16.35000000000000497, -3.175000000000001599 ) ) ;
#266 = LINE ( 'NONE', #554, #836 ) ;
#267 = ORIENTED_EDGE ( 'NONE', *, *, #578, .T. ) ;
#268 = EDGE_CURVE ( 'NONE', #594, #725, #823, .T. ) ;
#269 = AXIS2_PLACEMENT_3D ( 'NONE', #344, #66, #874 ) ;
#270 = DIRECTION ( 'NONE',  ( -0.000000000000000000, 1.000000000000000000, -0.000000000000000000 ) ) ;
#271 = ORIENTED_EDGE ( 'NONE', *, *, #578, .F. ) ;
#272 = ADVANCED_FACE ( 'NONE', ( #432 ), #93, .T. ) ;
#273 = LINE ( 'NONE', #617, #198 ) ;
#274 = DIRECTION ( 'NONE',  ( 7.993605777301127091E-15, 0.000000000000000000, -1.000000000000000000 ) ) ;
#275 = CARTESIAN_POINT ( 'NONE',  ( 1.500000000000002665, -14.00000000000000000, -22.95103483505700126 ) ) ;
#276 = ORIENTED_EDGE ( 'NONE', *, *, #179, .T. ) ;
#277 = FACE_OUTER_BOUND ( 'NONE', #873, .T. ) ;
#278 = DIRECTION ( 'NONE',  ( 1.000000000000000000, 0.000000000000000000, 0.000000000000000000 ) ) ;
#279 = VECTOR ( 'NONE', #401, 1000.000000000000000 ) ;
#280 = DIRECTION ( 'NONE',  ( 0.000000000000000000, 0.000000000000000000, 1.000000000000000000 ) ) ;
#281 = ORIENTED_EDGE ( 'NONE', *, *, #704, .T. ) ;
#282 = VECTOR ( 'NONE', #474, 1000.000000000000000 ) ;
#283 = CARTESIAN_POINT ( 'NONE',  ( 3.175000000000000711, 10.00000000000000000, -3.175000000000001599 ) ) ;
#284 = EDGE_CURVE ( 'NONE', #652, #108, #153, .T. ) ;
#285 = CARTESIAN_POINT ( 'NONE',  ( 1.499999999999997780, -14.00000000000000000, 3.174877321593696362E-16 ) ) ;
#286 = DIRECTION ( 'NONE',  ( 0.000000000000000000, 0.000000000000000000, 1.000000000000000000 ) ) ;
#287 = ORIENTED_EDGE ( 'NONE', *, *, #138, .F. ) ;
#288 = DIRECTION ( 'NONE',  ( -0.000000000000000000, 1.000000000000000000, -0.000000000000000000 ) ) ;
#289 = DIRECTION ( 'NONE',  ( -0.000000000000000000, 1.000000000000000000, -0.000000000000000000 ) ) ;
#290 = DIRECTION ( 'NONE',  ( 0.000000000000000000, 0.000000000000000000, 1.000000000000000000 ) ) ;
#291 = VERTEX_POINT ( 'NONE', #827 ) ;
#292 = ORIENTED_EDGE ( 'NONE', *, *, #92, .T. ) ;
#293 = CARTESIAN_POINT ( 'NONE',  ( 0.000000000000000000, 10.00000000000000000, -23.00000000000000000 ) ) ;
#294 = CARTESIAN_POINT ( 'NONE',  ( -1.499999999999997335, -14.00000000000000000, -22.95103483505700126 ) ) ;
#295 = DIRECTION ( 'NONE',  ( 0.000000000000000000, -0.000000000000000000, 1.000000000000000000 ) ) ;
#296 = EDGE_LOOP ( 'NONE', ( #242, #438, #382, #211, #378, #815, #218, #8, #416, #96, #77, #40 ) ) ;
#297 = ADVANCED_FACE ( 'NONE', ( #365 ), #101, .T. ) ;
#298 = DIRECTION ( 'NONE',  ( -0.000000000000000000, 1.000000000000000000, -0.000000000000000000 ) ) ;
#299 = CARTESIAN_POINT ( 'NONE',  ( 0.000000000000000000, 10.00000000000000000, 0.000000000000000000 ) ) ;
#300 = CIRCLE ( 'NONE', #545, 23.00000000000000000 ) ;
#301 = ORIENTED_EDGE ( 'NONE', *, *, #209, .F. ) ;
#302 = EDGE_LOOP ( 'NONE', ( #564, #82, #766, #307 ) ) ;
#303 = EDGE_CURVE ( 'NONE', #434, #367, #360, .T. ) ;
#304 = VECTOR ( 'NONE', #5, 1000.000000000000000 ) ;
#305 = DIRECTION ( 'NONE',  ( 2.116584881062467282E-16, 0.000000000000000000, -1.000000000000000000 ) ) ;
#306 = DIRECTION ( 'NONE',  ( 0.000000000000000000, 0.000000000000000000, 1.000000000000000000 ) ) ;
#307 = ORIENTED_EDGE ( 'NONE', *, *, #411, .T. ) ;
#308 = ORIENTED_EDGE ( 'NONE', *, *, #284, .F. ) ;
#309 = SHAPE_DEFINITION_REPRESENTATION ( #205, #537 ) ;
#310 = LINE ( 'NONE', #846, #180 ) ;
#311 = ADVANCED_FACE ( 'NONE', ( #707 ), #236, .F. ) ;
#312 = DIRECTION ( 'NONE',  ( 6.829619984160655581E-17, 0.000000000000000000, -1.000000000000000000 ) ) ;
#313 = ORIENTED_EDGE ( 'NONE', *, *, #4, .F. ) ;
#314 = CARTESIAN_POINT ( 'NONE',  ( -3.175000000000000711, 16.35000000000000497, -3.175000000000001599 ) ) ;
#315 = DIRECTION ( 'NONE',  ( -0.000000000000000000, -1.000000000000000000, -0.000000000000000000 ) ) ;
#316 = DIRECTION ( 'NONE',  ( -0.000000000000000000, -1.000000000000000000, -0.000000000000000000 ) ) ;
#317 = CIRCLE ( 'NONE', #269, 23.00000000000000000 ) ;
#318 = ORIENTED_EDGE ( 'NONE', *, *, #793, .T. ) ;
#319 = CIRCLE ( 'NONE', #397, 25.00000000000000000 ) ;
#320 =( NAMED_UNIT ( * ) PLANE_ANGLE_UNIT ( ) SI_UNIT ( $, .RADIAN. ) );
#321 = LINE ( 'NONE', #582, #230 ) ;
#322 = ORIENTED_EDGE ( 'NONE', *, *, #468, .T. ) ;
#323 = CARTESIAN_POINT ( 'NONE',  ( -1.499999999999996891, -10.00000000000000000, -24.95495942693556302 ) ) ;
#324 = ORIENTED_EDGE ( 'NONE', *, *, #174, .T. ) ;
#325 = EDGE_CURVE ( 'NONE', #163, #372, #191, .T. ) ;
#326 = CARTESIAN_POINT ( 'NONE',  ( 0.000000000000000000, 16.35000000000000497, 0.000000000000000000 ) ) ;
#327 = ORIENTED_EDGE ( 'NONE', *, *, #9, .F. ) ;
#328 = AXIS2_PLACEMENT_3D ( 'NONE', #809, #680, #11 ) ;
#329 = CARTESIAN_POINT ( 'NONE',  ( -3.175000000000000711, 10.00000000000000000, 3.174999999999999822 ) ) ;
#330 = EDGE_CURVE ( 'NONE', #291, #108, #843, .T. ) ;
#331 = DIRECTION ( 'NONE',  ( 0.000000000000000000, 1.000000000000000000, 0.000000000000000000 ) ) ;
#332 = ORIENTED_EDGE ( 'NONE', *, *, #24, .T. ) ;
#333 = EDGE_CURVE ( 'NONE', #168, #88, #511, .T. ) ;
#334 = DIRECTION ( 'NONE',  ( 0.000000000000000000, 0.000000000000000000, -1.000000000000000000 ) ) ;
#335 = ORIENTED_EDGE ( 'NONE', *, *, #668, .T. ) ;
#336 = VECTOR ( 'NONE', #466, 1000.000000000000000 ) ;
#337 = DIRECTION ( 'NONE',  ( 0.000000000000000000, -1.000000000000000000, 0.000000000000000000 ) ) ;
#338 = VERTEX_POINT ( 'NONE', #832 ) ;
#339 = AXIS2_PLACEMENT_3D ( 'NONE', #80, #349, #802 ) ;
#340 =( LENGTH_UNIT ( ) NAMED_UNIT ( * ) SI_UNIT ( .MILLI., .METRE. ) );
#341 = CARTESIAN_POINT ( 'NONE',  ( 0.000000000000000000, -14.00000000000000000, -25.00000000000000000 ) ) ;
#342 = EDGE_LOOP ( 'NONE', ( #560, #795 ) ) ;
#343 = DIRECTION ( 'NONE',  ( 0.000000000000000000, 0.000000000000000000, -1.000000000000000000 ) ) ;
#344 = CARTESIAN_POINT ( 'NONE',  ( 0.000000000000000000, -10.00000000000000000, 0.000000000000000000 ) ) ;
#345 = DIRECTION ( 'NONE',  ( 0.000000000000000000, 1.000000000000000000, 0.000000000000000000 ) ) ;
#346 = ORIENTED_EDGE ( 'NONE', *, *, #162, .F. ) ;
#347 = EDGE_CURVE ( 'NONE', #806, #661, #252, .T. ) ;
#348 = CARTESIAN_POINT ( 'NONE',  ( -3.175000000000000711, 10.00000000000000000, -3.175000000000001599 ) ) ;
#349 = DIRECTION ( 'NONE',  ( 0.000000000000000000, 1.000000000000000000, 0.000000000000000000 ) ) ;
#350 = DIRECTION ( 'NONE',  ( 1.000000000000000000, 0.000000000000000000, 2.116584881062467282E-16 ) ) ;
#351 = VERTEX_POINT ( 'NONE', #294 ) ;
#352 = CARTESIAN_POINT ( 'NONE',  ( -1.500000000000000000, -10.00000000000000000, 22.95103483505700126 ) ) ;
#353 = CARTESIAN_POINT ( 'NONE',  ( -1.499999999999997335, -14.00000000000000000, -22.95103483505700126 ) ) ;
#354 = CARTESIAN_POINT ( 'NONE',  ( 0.000000000000000000, 10.00000000000000000, 0.000000000000000000 ) ) ;
#355 = EDGE_LOOP ( 'NONE', ( #256, #799, #756, #231 ) ) ;
#356 = AXIS2_PLACEMENT_3D ( 'NONE', #651, #331, #593 ) ;
#357 = VECTOR ( 'NONE', #229, 1000.000000000000000 ) ;
#358 = VECTOR ( 'NONE', #674, 1000.000000000000000 ) ;
#359 = DIRECTION ( 'NONE',  ( 0.000000000000000000, 0.000000000000000000, 1.000000000000000000 ) ) ;
#360 = LINE ( 'NONE', #558, #184 ) ;
#361 = ADVANCED_FACE ( 'NONE', ( #549 ), #148, .T. ) ;
#362 = CARTESIAN_POINT ( 'NONE',  ( 0.000000000000000000, -10.00000000000000000, 0.000000000000000000 ) ) ;
#363 = ORIENTED_EDGE ( 'NONE', *, *, #867, .F. ) ;
#364 = ORIENTED_EDGE ( 'NONE', *, *, #268, .T. ) ;
#365 = FACE_OUTER_BOUND ( 'NONE', #803, .T. ) ;
#366 = CARTESIAN_POINT ( 'NONE',  ( 24.95495942693556302, -14.00000000000000000, -1.499999999999998446 ) ) ;
#367 = VERTEX_POINT ( 'NONE', #695 ) ;
#368 = ADVANCED_FACE ( 'NONE', ( #216 ), #478, .T. ) ;
#369 = VERTEX_POINT ( 'NONE', #97 ) ;
#370 = DIRECTION ( 'NONE',  ( -0.000000000000000000, 1.000000000000000000, -0.000000000000000000 ) ) ;
#371 = CARTESIAN_POINT ( 'NONE',  ( 0.000000000000000000, -10.00000000000000000, 0.000000000000000000 ) ) ;
#372 = VERTEX_POINT ( 'NONE', #619 ) ;
#373 = EDGE_CURVE ( 'NONE', #351, #652, #85, .T. ) ;
#374 = AXIS2_PLACEMENT_3D ( 'NONE', #812, #10, #359 ) ;
#375 = CARTESIAN_POINT ( 'NONE',  ( 1.499999999999997780, -10.00000000000000000, 3.174877321593696362E-16 ) ) ;
#376 = SURFACE_SIDE_STYLE ('',( #709 ) ) ;
#377 = ORIENTED_EDGE ( 'NONE', *, *, #592, .F. ) ;
#378 = ORIENTED_EDGE ( 'NONE', *, *, #797, .T. ) ;
#379 = FACE_OUTER_BOUND ( 'NONE', #50, .T. ) ;
#380 = DIRECTION ( 'NONE',  ( 0.000000000000000000, 0.000000000000000000, 1.000000000000000000 ) ) ;
#381 = PLANE ( 'NONE',  #588 ) ;
#382 = ORIENTED_EDGE ( 'NONE', *, *, #138, .T. ) ;
#383 = DIRECTION ( 'NONE',  ( -1.000000000000000000, 0.000000000000000000, 0.000000000000000000 ) ) ;
#384 = EDGE_CURVE ( 'NONE', #410, #338, #161, .T. ) ;
#385 = AXIS2_PLACEMENT_3D ( 'NONE', #362, #422, #290 ) ;
#386 = ORIENTED_EDGE ( 'NONE', *, *, #390, .T. ) ;
#387 = FACE_OUTER_BOUND ( 'NONE', #687, .T. ) ;
#388 = LINE ( 'NONE', #263, #206 ) ;
#389 = ORIENTED_EDGE ( 'NONE', *, *, #468, .F. ) ;
#390 = EDGE_CURVE ( 'NONE', #531, #504, #100, .T. ) ;
#391 = UNCERTAINTY_MEASURE_WITH_UNIT (LENGTH_MEASURE( 1.000000000000000082E-05 ), #712, 'distance_accuracy_value', 'NONE');
#392 = LINE ( 'NONE', #740, #585 ) ;
#393 = CARTESIAN_POINT ( 'NONE',  ( 0.000000000000000000, 10.00000000000000000, -25.00000000000000000 ) ) ;
#394 = EDGE_LOOP ( 'NONE', ( #400, #140, #59, #150 ) ) ;
#395 = LINE ( 'NONE', #314, #646 ) ;
#396 = DIRECTION ( 'NONE',  ( 2.116584881062467282E-16, 0.000000000000000000, -1.000000000000000000 ) ) ;
#397 = AXIS2_PLACEMENT_3D ( 'NONE', #371, #512, #306 ) ;
#398 = ORIENTED_EDGE ( 'NONE', *, *, #83, .T. ) ;
#399 = LINE ( 'NONE', #469, #616 ) ;
#400 = ORIENTED_EDGE ( 'NONE', *, *, #284, .T. ) ;
#401 = DIRECTION ( 'NONE',  ( 0.000000000000000000, 0.000000000000000000, 1.000000000000000000 ) ) ;
#402 = LINE ( 'NONE', #482, #49 ) ;
#403 = CIRCLE ( 'NONE', #630, 23.00000000000000000 ) ;
#404 = LINE ( 'NONE', #599, #244 ) ;
#405 = ORIENTED_EDGE ( 'NONE', *, *, #219, .T. ) ;
#406 = LINE ( 'NONE', #477, #304 ) ;
#407 = FACE_OUTER_BOUND ( 'NONE', #431, .T. ) ;
#408 = AXIS2_PLACEMENT_3D ( 'NONE', #470, #746, #608 ) ;
#409 = PLANE ( 'NONE',  #546 ) ;
#410 = VERTEX_POINT ( 'NONE', #838 ) ;
#411 = EDGE_CURVE ( 'NONE', #670, #735, #392, .T. ) ;
#412 = AXIS2_PLACEMENT_3D ( 'NONE', #81, #818, #686 ) ;
#413 = DIRECTION ( 'NONE',  ( -0.000000000000000000, -1.000000000000000000, -0.000000000000000000 ) ) ;
#414 = PLANE ( 'NONE',  #762 ) ;
#415 = DIRECTION ( 'NONE',  ( 0.000000000000000000, 1.000000000000000000, 0.000000000000000000 ) ) ;
#416 = ORIENTED_EDGE ( 'NONE', *, *, #78, .T. ) ;
#417 = EDGE_CURVE ( 'NONE', #641, #163, #667, .T. ) ;
#418 = EDGE_CURVE ( 'NONE', #88, #657, #595, .T. ) ;
#419 = AXIS2_PLACEMENT_3D ( 'NONE', #38, #492, #769 ) ;
#420 = FACE_OUTER_BOUND ( 'NONE', #193, .T. ) ;
#421 = DIRECTION ( 'NONE',  ( -0.000000000000000000, -1.000000000000000000, -0.000000000000000000 ) ) ;
#422 = DIRECTION ( 'NONE',  ( 0.000000000000000000, 1.000000000000000000, 0.000000000000000000 ) ) ;
#423 = EDGE_LOOP ( 'NONE', ( #583, #865, #405, #862 ) ) ;
#424 = CARTESIAN_POINT ( 'NONE',  ( 0.000000000000000000, 10.00000000000000000, 0.000000000000000000 ) ) ;
#425 = CARTESIAN_POINT ( 'NONE',  ( -3.175000000000000711, 16.35000000000000497, 3.174999999999999822 ) ) ;
#426 = CARTESIAN_POINT ( 'NONE',  ( 0.000000000000000000, -10.00000000000000000, 0.000000000000000000 ) ) ;
#427 = CARTESIAN_POINT ( 'NONE',  ( 0.000000000000000000, -10.00000000000000000, 0.000000000000000000 ) ) ;
#428 = EDGE_CURVE ( 'NONE', #777, #642, #310, .T. ) ;
#429 = DIRECTION ( 'NONE',  ( -1.000000000000000000, 0.000000000000000000, -6.829619984160655581E-17 ) ) ;
#430 = CARTESIAN_POINT ( 'NONE',  ( 0.000000000000000000, -14.00000000000000000, 1.499999999999995781 ) ) ;
#431 = EDGE_LOOP ( 'NONE', ( #457, #571, #67, #276 ) ) ;
#432 = FACE_OUTER_BOUND ( 'NONE', #302, .T. ) ;
#433 = CARTESIAN_POINT ( 'NONE',  ( 0.000000000000000000, -10.00000000000000000, 0.000000000000000000 ) ) ;
#434 = VERTEX_POINT ( 'NONE', #245 ) ;
#435 = CARTESIAN_POINT ( 'NONE',  ( -1.499999999999996891, -14.00000000000000000, -24.95495942693556302 ) ) ;
#436 = VECTOR ( 'NONE', #742, 1000.000000000000000 ) ;
#437 = CARTESIAN_POINT ( 'NONE',  ( 3.175000000000000266, 16.35000000000000497, 3.174999999999999822 ) ) ;
#438 = ORIENTED_EDGE ( 'NONE', *, *, #584, .T. ) ;
#439 = PRESENTATION_LAYER_ASSIGNMENT (  '', '', ( #118 ) ) ;
#440 = DIRECTION ( 'NONE',  ( -0.000000000000000000, -0.000000000000000000, 1.000000000000000000 ) ) ;
#441 = DIRECTION ( 'NONE',  ( -0.000000000000000000, 1.000000000000000000, -0.000000000000000000 ) ) ;
#442 = LINE ( 'NONE', #250, #14 ) ;
#443 = CARTESIAN_POINT ( 'NONE',  ( 0.000000000000000000, -10.00000000000000000, 0.000000000000000000 ) ) ;
#444 = VERTEX_POINT ( 'NONE', #501 ) ;
#445 = EDGE_CURVE ( 'NONE', #291, #183, #789, .T. ) ;
#446 = CARTESIAN_POINT ( 'NONE',  ( 0.000000000000000000, -14.00000000000000000, 0.000000000000000000 ) ) ;
#447 = LINE ( 'NONE', #730, #170 ) ;
#448 = VECTOR ( 'NONE', #166, 1000.000000000000000 ) ;
#449 = ORIENTED_EDGE ( 'NONE', *, *, #235, .T. ) ;
#450 = EDGE_CURVE ( 'NONE', #855, #19, #778, .T. ) ;
#451 = DIRECTION ( 'NONE',  ( 1.000000000000000000, 0.000000000000000000, -0.000000000000000000 ) ) ;
#452 = DIRECTION ( 'NONE',  ( 0.000000000000000000, 0.000000000000000000, 1.000000000000000000 ) ) ;
#453 = CIRCLE ( 'NONE', #412, 25.00000000000000000 ) ;
#454 = ADVANCED_FACE ( 'NONE', ( #800 ), #870, .T. ) ;
#455 = EDGE_LOOP ( 'NONE', ( #672, #632, #52, #467, #346, #522, #234, #292, #327, #579, #173, #287 ) ) ;
#456 = DIRECTION ( 'NONE',  ( 0.000000000000000000, -0.000000000000000000, 1.000000000000000000 ) ) ;
#457 = ORIENTED_EDGE ( 'NONE', *, *, #201, .F. ) ;
#458 = EDGE_CURVE ( 'NONE', #543, #855, #395, .T. ) ;
#459 = AXIS2_PLACEMENT_3D ( 'NONE', #506, #784, #124 ) ;
#460 = FACE_OUTER_BOUND ( 'NONE', #355, .T. ) ;
#461 = EDGE_LOOP ( 'NONE', ( #494, #761, #555, #324 ) ) ;
#462 = VECTOR ( 'NONE', #270, 1000.000000000000000 ) ;
#463 = CARTESIAN_POINT ( 'NONE',  ( 0.000000000000000000, -14.00000000000000000, 0.000000000000000000 ) ) ;
#464 = ORIENTED_EDGE ( 'NONE', *, *, #428, .T. ) ;
#465 = CARTESIAN_POINT ( 'NONE',  ( 0.000000000000000000, 10.00000000000000000, -23.00000000000000000 ) ) ;
#466 = DIRECTION ( 'NONE',  ( -1.000000000000000000, -0.000000000000000000, -0.000000000000000000 ) ) ;
#467 = ORIENTED_EDGE ( 'NONE', *, *, #132, .T. ) ;
#468 = EDGE_CURVE ( 'NONE', #670, #543, #61, .T. ) ;
#469 = CARTESIAN_POINT ( 'NONE',  ( 0.000000000000000000, -14.00000000000000000, -1.499999999999998446 ) ) ;
#470 = CARTESIAN_POINT ( 'NONE',  ( 0.000000000000000000, 10.00000000000000000, 0.000000000000000000 ) ) ;
#471 = ORIENTED_EDGE ( 'NONE', *, *, #445, .T. ) ;
#472 = VECTOR ( 'NONE', #759, 1000.000000000000000 ) ;
#473 = CARTESIAN_POINT ( 'NONE',  ( 0.000000000000000000, -14.00000000000000000, 1.499999999999995781 ) ) ;
#474 = DIRECTION ( 'NONE',  ( 6.829619984160655581E-17, 0.000000000000000000, -1.000000000000000000 ) ) ;
#475 = LINE ( 'NONE', #430, #26 ) ;
#476 = ORIENTED_EDGE ( 'NONE', *, *, #384, .F. ) ;
#477 = CARTESIAN_POINT ( 'NONE',  ( 22.95103483505700126, -14.00000000000000000, -1.499999999999998446 ) ) ;
#478 = CYLINDRICAL_SURFACE ( 'NONE', #223, 25.00000000000000000 ) ;
#479 = CARTESIAN_POINT ( 'NONE',  ( 2.816687638038912352E-15, 10.00000000000000000, 23.00000000000000000 ) ) ;
#480 = VERTEX_POINT ( 'NONE', #656 ) ;
#481 = EDGE_CURVE ( 'NONE', #735, #855, #94, .T. ) ;
#482 = CARTESIAN_POINT ( 'NONE',  ( -1.500000000000000000, -10.00000000000000000, 0.000000000000000000 ) ) ;
#483 = DIRECTION ( 'NONE',  ( -6.829619984160655581E-17, 0.000000000000000000, 1.000000000000000000 ) ) ;
#484 = PLANE ( 'NONE',  #598 ) ;
#485 = ORIENTED_EDGE ( 'NONE', *, *, #618, .T. ) ;
#486 = AXIS2_PLACEMENT_3D ( 'NONE', #443, #589, #456 ) ;
#487 = DIRECTION ( 'NONE',  ( 1.000000000000000000, -0.000000000000000000, 0.000000000000000000 ) ) ;
#488 = CARTESIAN_POINT ( 'NONE',  ( 22.95103483505700126, -14.00000000000000000, 1.500000000000001554 ) ) ;
#489 = ORIENTED_EDGE ( 'NONE', *, *, #417, .T. ) ;
#490 = ORIENTED_EDGE ( 'NONE', *, *, #649, .F. ) ;
#491 = AXIS2_PLACEMENT_3D ( 'NONE', #722, #774, #650 ) ;
#492 = DIRECTION ( 'NONE',  ( -0.000000000000000000, 1.000000000000000000, -0.000000000000000000 ) ) ;
#493 = FACE_OUTER_BOUND ( 'NONE', #121, .T. ) ;
#494 = ORIENTED_EDGE ( 'NONE', *, *, #219, .F. ) ;
#495 = ORIENTED_EDGE ( 'NONE', *, *, #72, .T. ) ;
#496 = DIRECTION ( 'NONE',  ( 0.000000000000000000, 0.000000000000000000, 1.000000000000000000 ) ) ;
#497 = ADVANCED_FACE ( 'NONE', ( #824 ), #139, .F. ) ;
#498 = CARTESIAN_POINT ( 'NONE',  ( 1.500000000000000000, -10.00000000000000000, 22.95103483505700126 ) ) ;
#499 = ORIENTED_EDGE ( 'NONE', *, *, #83, .F. ) ;
#500 = ORIENTED_EDGE ( 'NONE', *, *, #201, .T. ) ;
#501 = CARTESIAN_POINT ( 'NONE',  ( -22.95103483505700126, -14.00000000000000000, -1.499999999999995781 ) ) ;
#502 = PRESENTATION_STYLE_ASSIGNMENT (( #39 ) ) ;
#503 = AXIS2_PLACEMENT_3D ( 'NONE', #463, #129, #334 ) ;
#504 = VERTEX_POINT ( 'NONE', #828 ) ;
#505 = EDGE_LOOP ( 'NONE', ( #565, #13, #518, #829, #787, #574 ) ) ;
#506 = CARTESIAN_POINT ( 'NONE',  ( 0.000000000000000000, -14.00000000000000000, 0.000000000000000000 ) ) ;
#507 = CARTESIAN_POINT ( 'NONE',  ( -1.500000000000000000, -14.00000000000000000, 0.000000000000000000 ) ) ;
#508 = CARTESIAN_POINT ( 'NONE',  ( 0.000000000000000000, -10.00000000000000000, 0.000000000000000000 ) ) ;
#509 = EDGE_LOOP ( 'NONE', ( #464, #490, #130, #743 ) ) ;
#510 = EDGE_CURVE ( 'NONE', #160, #434, #475, .T. ) ;
#511 = CIRCLE ( 'NONE', #419, 23.00000000000000000 ) ;
#512 = DIRECTION ( 'NONE',  ( 0.000000000000000000, 1.000000000000000000, 0.000000000000000000 ) ) ;
#513 = LINE ( 'NONE', #655, #544 ) ;
#514 = EDGE_LOOP ( 'NONE', ( #536, #830 ) ) ;
#515 = ADVANCED_FACE ( 'NONE', ( #86 ), #484, .F. ) ;
#516 = DIRECTION ( 'NONE',  ( 0.000000000000000000, 0.000000000000000000, 1.000000000000000000 ) ) ;
#517 = VECTOR ( 'NONE', #278, 1000.000000000000000 ) ;
#518 = ORIENTED_EDGE ( 'NONE', *, *, #418, .T. ) ;
#519 = AXIS2_PLACEMENT_3D ( 'NONE', #433, #241, #581 ) ;
#520 = EDGE_CURVE ( 'NONE', #444, #160, #403, .T. ) ;
#521 = FACE_OUTER_BOUND ( 'NONE', #29, .T. ) ;
#522 = ORIENTED_EDGE ( 'NONE', *, *, #36, .F. ) ;
#523 = FACE_OUTER_BOUND ( 'NONE', #342, .T. ) ;
#524 = EDGE_CURVE ( 'NONE', #657, #163, #751, .T. ) ;
#525 = VERTEX_POINT ( 'NONE', #620 ) ;
#526 = DIRECTION ( 'NONE',  ( -1.000000000000000000, 0.000000000000000000, 0.000000000000000000 ) ) ;
#527 = EDGE_LOOP ( 'NONE', ( #389, #115, #377, #260 ) ) ;
#528 = AXIS2_PLACEMENT_3D ( 'NONE', #427, #861, #790 ) ;
#529 = EDGE_CURVE ( 'NONE', #197, #168, #697, .T. ) ;
#530 = FACE_OUTER_BOUND ( 'NONE', #505, .T. ) ;
#531 = VERTEX_POINT ( 'NONE', #275 ) ;
#532 = ADVANCED_FACE ( 'NONE', ( #22 ), #409, .F. ) ;
#533 =( NAMED_UNIT ( * ) PLANE_ANGLE_UNIT ( ) SI_UNIT ( $, .RADIAN. ) );
#534 = DIRECTION ( 'NONE',  ( 2.116584881062467282E-16, 0.000000000000000000, -1.000000000000000000 ) ) ;
#535 = CARTESIAN_POINT ( 'NONE',  ( -1.500000000000002220, -14.00000000000000000, -3.174877321593705729E-16 ) ) ;
#536 = ORIENTED_EDGE ( 'NONE', *, *, #30, .F. ) ;
#537 = ADVANCED_BREP_SHAPE_REPRESENTATION ( 'Shaft Fastener Tool 50mm1', ( #690, #737 ), #623 ) ;
#538 = VECTOR ( 'NONE', #131, 1000.000000000000000 ) ;
#539 = EDGE_CURVE ( 'NONE', #543, #145, #76, .T. ) ;
#540 = PLANE ( 'NONE',  #796 ) ;
#541 = LINE ( 'NONE', #871, #721 ) ;
#542 = CARTESIAN_POINT ( 'NONE',  ( 3.175000000000000266, 10.00000000000000000, 3.174999999999999822 ) ) ;
#543 = VERTEX_POINT ( 'NONE', #149 ) ;
#544 = VECTOR ( 'NONE', #185, 1000.000000000000000 ) ;
#545 = AXIS2_PLACEMENT_3D ( 'NONE', #1, #199, #274 ) ;
#546 = AXIS2_PLACEMENT_3D ( 'NONE', #426, #415, #295 ) ;
#547 = DIRECTION ( 'NONE',  ( 0.000000000000000000, 0.000000000000000000, 1.000000000000000000 ) ) ;
#548 = VECTOR ( 'NONE', #316, 1000.000000000000000 ) ;
#549 = FACE_OUTER_BOUND ( 'NONE', #869, .T. ) ;
#550 = VECTOR ( 'NONE', #640, 1000.000000000000000 ) ;
#551 = ORIENTED_EDGE ( 'NONE', *, *, #638, .T. ) ;
#552 = CIRCLE ( 'NONE', #866, 23.00000000000000000 ) ;
#553 = DIRECTION ( 'NONE',  ( 0.000000000000000000, 0.000000000000000000, -1.000000000000000000 ) ) ;
#554 = CARTESIAN_POINT ( 'NONE',  ( 1.499999999999991118, -14.00000000000000000, 22.95103483505700126 ) ) ;
#555 = ORIENTED_EDGE ( 'NONE', *, *, #194, .T. ) ;
#556 = ORIENTED_EDGE ( 'NONE', *, *, #411, .F. ) ;
#557 = CARTESIAN_POINT ( 'NONE',  ( 22.95103483505700126, -10.00000000000000000, -1.499999999999998446 ) ) ;
#558 = CARTESIAN_POINT ( 'NONE',  ( -24.95495942693556302, -14.00000000000000000, 1.499999999999995781 ) ) ;
#559 = DIRECTION ( 'NONE',  ( -0.000000000000000000, -1.000000000000000000, -0.000000000000000000 ) ) ;
#560 = ORIENTED_EDGE ( 'NONE', *, *, #768, .T. ) ;
#561 = AXIS2_PLACEMENT_3D ( 'NONE', #425, #32, #222 ) ;
#562 = DIRECTION ( 'NONE',  ( 2.131628207280300558E-14, 0.000000000000000000, -1.000000000000000000 ) ) ;
#563 = DIRECTION ( 'NONE',  ( -0.000000000000000000, -1.000000000000000000, -0.000000000000000000 ) ) ;
#564 = ORIENTED_EDGE ( 'NONE', *, *, #151, .F. ) ;
#565 = ORIENTED_EDGE ( 'NONE', *, *, #48, .T. ) ;
#566 = AXIS2_PLACEMENT_3D ( 'NONE', #79, #288, #343 ) ;
#567 = EDGE_CURVE ( 'NONE', #367, #338, #726, .T. ) ;
#568 = CARTESIAN_POINT ( 'NONE',  ( 3.175000000000000266, 16.35000000000000497, 3.174999999999999822 ) ) ;
#569 = CARTESIAN_POINT ( 'NONE',  ( -1.499999999999997335, -10.00000000000000000, -22.95103483505700126 ) ) ;
#570 = ORIENTED_EDGE ( 'NONE', *, *, #92, .F. ) ;
#571 = ORIENTED_EDGE ( 'NONE', *, *, #520, .T. ) ;
#572 = EDGE_CURVE ( 'NONE', #657, #615, #453, .T. ) ;
#573 = CARTESIAN_POINT ( 'NONE',  ( 24.95495942693556302, -10.00000000000000000, -1.499999999999998446 ) ) ;
#574 = ORIENTED_EDGE ( 'NONE', *, *, #618, .F. ) ;
#575 = AXIS2_PLACEMENT_3D ( 'NONE', #681, #7, #286 ) ;
#576 = LINE ( 'NONE', #46, #840 ) ;
#577 = DIRECTION ( 'NONE',  ( 0.000000000000000000, 0.000000000000000000, -1.000000000000000000 ) ) ;
#578 = EDGE_CURVE ( 'NONE', #806, #615, #691, .T. ) ;
#579 = ORIENTED_EDGE ( 'NONE', *, *, #373, .F. ) ;
#580 = CIRCLE ( 'NONE', #60, 25.00000000000000000 ) ;
#581 = DIRECTION ( 'NONE',  ( 0.000000000000000000, 0.000000000000000000, 1.000000000000000000 ) ) ;
#582 = CARTESIAN_POINT ( 'NONE',  ( -24.95495942693556302, -14.00000000000000000, -1.499999999999995781 ) ) ;
#583 = ORIENTED_EDGE ( 'NONE', *, *, #611, .F. ) ;
#584 = EDGE_CURVE ( 'NONE', #197, #791, #552, .T. ) ;
#585 = VECTOR ( 'NONE', #733, 1000.000000000000000 ) ;
#586 = FACE_BOUND ( 'NONE', #527, .T. ) ;
#587 = ORIENTED_EDGE ( 'NONE', *, *, #644, .F. ) ;
#588 = AXIS2_PLACEMENT_3D ( 'NONE', #111, #176, #452 ) ;
#589 = DIRECTION ( 'NONE',  ( 0.000000000000000000, 1.000000000000000000, 0.000000000000000000 ) ) ;
#590 = ORIENTED_EDGE ( 'NONE', *, *, #151, .T. ) ;
#591 = VECTOR ( 'NONE', #753, 1000.000000000000000 ) ;
#592 = EDGE_CURVE ( 'NONE', #145, #369, #18, .T. ) ;
#593 = DIRECTION ( 'NONE',  ( 0.000000000000000000, 0.000000000000000000, 1.000000000000000000 ) ) ;
#594 = VERTEX_POINT ( 'NONE', #12 ) ;
#595 = LINE ( 'NONE', #851, #279 ) ;
#596 = CARTESIAN_POINT ( 'NONE',  ( 0.000000000000000000, -14.00000000000000000, 1.500000000000001554 ) ) ;
#597 = VERTEX_POINT ( 'NONE', #488 ) ;
#598 = AXIS2_PLACEMENT_3D ( 'NONE', #535, #350, #603 ) ;
#599 = CARTESIAN_POINT ( 'NONE',  ( 0.000000000000000000, -14.00000000000000000, -1.499999999999995781 ) ) ;
#600 = ORIENTED_EDGE ( 'NONE', *, *, #262, .T. ) ;
#601 = CARTESIAN_POINT ( 'NONE',  ( -3.175000000000000711, 10.00000000000000000, 3.174999999999999822 ) ) ;
#602 = CARTESIAN_POINT ( 'NONE',  ( -22.95103483505700126, -14.00000000000000000, 1.499999999999995781 ) ) ;
#603 = DIRECTION ( 'NONE',  ( 2.116584881062467282E-16, 0.000000000000000000, -1.000000000000000000 ) ) ;
#604 = ORIENTED_EDGE ( 'NONE', *, *, #696, .F. ) ;
#605 = ADVANCED_FACE ( 'NONE', ( #765, #814 ), #203, .F. ) ;
#606 = CARTESIAN_POINT ( 'NONE',  ( 3.061616997868383043E-15, 16.35000000000000497, 25.00000000000000000 ) ) ;
#607 = DIRECTION ( 'NONE',  ( -1.000000000000000000, 0.000000000000000000, 0.000000000000000000 ) ) ;
#608 = DIRECTION ( 'NONE',  ( 0.000000000000000000, -0.000000000000000000, 1.000000000000000000 ) ) ;
#609 = VERTEX_POINT ( 'NONE', #542 ) ;
#610 = VECTOR ( 'NONE', #16, 1000.000000000000000 ) ;
#611 = EDGE_CURVE ( 'NONE', #525, #372, #210, .T. ) ;
#612 = CARTESIAN_POINT ( 'NONE',  ( 0.000000000000000000, -14.00000000000000000, 0.000000000000000000 ) ) ;
#613 = PLANE ( 'NONE',  #339 ) ;
#614 = CARTESIAN_POINT ( 'NONE',  ( 3.061616997868383043E-15, 10.00000000000000000, 25.00000000000000000 ) ) ;
#615 = VERTEX_POINT ( 'NONE', #113 ) ;
#616 = VECTOR ( 'NONE', #133, 1000.000000000000000 ) ;
#617 = CARTESIAN_POINT ( 'NONE',  ( 24.95495942693556302, -14.00000000000000000, 1.500000000000001554 ) ) ;
#618 = EDGE_CURVE ( 'NONE', #171, #410, #181, .T. ) ;
#619 = CARTESIAN_POINT ( 'NONE',  ( 24.95495942693556302, -10.00000000000000000, 1.500000000000001554 ) ) ;
#620 = CARTESIAN_POINT ( 'NONE',  ( 22.95103483505700126, -10.00000000000000000, 1.500000000000001554 ) ) ;
#622 = EDGE_LOOP ( 'NONE', ( #590, #682, #729, #666 ) ) ;
#621 = AXIS2_PLACEMENT_3D ( 'NONE', #20, #84, #684 ) ;
#623 =( GEOMETRIC_REPRESENTATION_CONTEXT ( 3 ) GLOBAL_UNCERTAINTY_ASSIGNED_CONTEXT ( ( #213 ) ) GLOBAL_UNIT_ASSIGNED_CONTEXT ( ( #340, #533, #763 ) ) REPRESENTATION_CONTEXT ( 'NONE', 'WORKASPACE' ) );
#624 = DIRECTION ( 'NONE',  ( -0.000000000000000000, 1.000000000000000000, -0.000000000000000000 ) ) ;
#625 = DIRECTION ( 'NONE',  ( 0.000000000000000000, 1.000000000000000000, 0.000000000000000000 ) ) ;
#626 = DIRECTION ( 'NONE',  ( -0.000000000000000000, 1.000000000000000000, -0.000000000000000000 ) ) ;
#627 = ORIENTED_EDGE ( 'NONE', *, *, #776, .T. ) ;
#628 = EDGE_LOOP ( 'NONE', ( #678, #693, #318, #119 ) ) ;
#629 = CARTESIAN_POINT ( 'NONE',  ( -1.500000000000000000, -14.00000000000000000, 24.95495942693556302 ) ) ;
#630 = AXIS2_PLACEMENT_3D ( 'NONE', #2, #677, #217 ) ;
#631 = FACE_OUTER_BOUND ( 'NONE', #296, .T. ) ;
#632 = ORIENTED_EDGE ( 'NONE', *, *, #529, .T. ) ;
#633 = AXIS2_PLACEMENT_3D ( 'NONE', #701, #232, #689 ) ;
#634 = CARTESIAN_POINT ( 'NONE',  ( 0.000000000000000000, 16.35000000000000497, 0.000000000000000000 ) ) ;
#635 = LINE ( 'NONE', #237, #106 ) ;
#636 = ORIENTED_EDGE ( 'NONE', *, *, #36, .T. ) ;
#637 = APPLICATION_CONTEXT ( 'automotive_design' ) ;
#638 = EDGE_CURVE ( 'NONE', #642, #725, #781, .T. ) ;
#639 = DIRECTION ( 'NONE',  ( 0.000000000000000000, 0.000000000000000000, 1.000000000000000000 ) ) ;
#640 = DIRECTION ( 'NONE',  ( 1.000000000000000000, 0.000000000000000000, 0.000000000000000000 ) ) ;
#641 = VERTEX_POINT ( 'NONE', #498 ) ;
#642 = VERTEX_POINT ( 'NONE', #573 ) ;
#643 = VECTOR ( 'NONE', #289, 1000.000000000000000 ) ;
#644 = EDGE_CURVE ( 'NONE', #108, #99, #319, .T. ) ;
#645 = CARTESIAN_POINT ( 'NONE',  ( 0.000000000000000000, -14.00000000000000000, -1.499999999999995781 ) ) ;
#646 = VECTOR ( 'NONE', #663, 1000.000000000000000 ) ;
#647 = ORIENTED_EDGE ( 'NONE', *, *, #347, .F. ) ;
#648 = AXIS2_PLACEMENT_3D ( 'NONE', #326, #258, #660 ) ;
#649 = EDGE_CURVE ( 'NONE', #710, #642, #635, .T. ) ;
#650 = DIRECTION ( 'NONE',  ( 0.000000000000000000, 0.000000000000000000, 1.000000000000000000 ) ) ;
#651 = CARTESIAN_POINT ( 'NONE',  ( 0.000000000000000000, -10.00000000000000000, 0.000000000000000000 ) ) ;
#652 = VERTEX_POINT ( 'NONE', #569 ) ;
#653 = CARTESIAN_POINT ( 'NONE',  ( 0.000000000000000000, 10.00000000000000000, 0.000000000000000000 ) ) ;
#654 = ORIENTED_EDGE ( 'NONE', *, *, #9, .T. ) ;
#655 = CARTESIAN_POINT ( 'NONE',  ( -22.95103483505700126, -14.00000000000000000, -1.499999999999995781 ) ) ;
#656 = CARTESIAN_POINT ( 'NONE',  ( 24.95495942693556302, -14.00000000000000000, 1.500000000000001554 ) ) ;
#657 = VERTEX_POINT ( 'NONE', #844 ) ;
#658 = EDGE_CURVE ( 'NONE', #641, #525, #664, .T. ) ;
#659 = VECTOR ( 'NONE', #156, 1000.000000000000000 ) ;
#660 = DIRECTION ( 'NONE',  ( 0.000000000000000000, -0.000000000000000000, 1.000000000000000000 ) ) ;
#661 = VERTEX_POINT ( 'NONE', #167 ) ;
#662 = AXIS2_PLACEMENT_3D ( 'NONE', #508, #58, #786 ) ;
#663 = DIRECTION ( 'NONE',  ( -0.000000000000000000, -1.000000000000000000, -0.000000000000000000 ) ) ;
#664 = CIRCLE ( 'NONE', #519, 23.00000000000000000 ) ;
#665 = DIRECTION ( 'NONE',  ( 0.000000000000000000, -1.000000000000000000, 0.000000000000000000 ) ) ;
#666 = ORIENTED_EDGE ( 'NONE', *, *, #807, .T. ) ;
#667 = LINE ( 'NONE', #65, #538 ) ;
#668 = EDGE_CURVE ( 'NONE', #369, #609, #715, .T. ) ;
#669 = DIRECTION ( 'NONE',  ( 0.000000000000000000, -0.000000000000000000, -1.000000000000000000 ) ) ;
#670 = VERTEX_POINT ( 'NONE', #107 ) ;
#671 = CARTESIAN_POINT ( 'NONE',  ( 2.816687638038912352E-15, -14.00000000000000000, 23.00000000000000000 ) ) ;
#672 = ORIENTED_EDGE ( 'NONE', *, *, #30, .T. ) ;
#673 = VECTOR ( 'NONE', #305, 1000.000000000000000 ) ;
#674 = DIRECTION ( 'NONE',  ( 1.000000000000000000, 0.000000000000000000, 0.000000000000000000 ) ) ;
#675 = CARTESIAN_POINT ( 'NONE',  ( 1.500000000000000000, -10.00000000000000000, 24.95495942693556302 ) ) ;
#676 = VECTOR ( 'NONE', #380, 1000.000000000000000 ) ;
#677 = DIRECTION ( 'NONE',  ( -0.000000000000000000, 1.000000000000000000, -0.000000000000000000 ) ) ;
#678 = ORIENTED_EDGE ( 'NONE', *, *, #704, .F. ) ;
#679 = FACE_OUTER_BOUND ( 'NONE', #461, .T. ) ;
#680 = DIRECTION ( 'NONE',  ( 0.000000000000000000, -1.000000000000000000, 0.000000000000000000 ) ) ;
#681 = CARTESIAN_POINT ( 'NONE',  ( 1.500000000000000000, -14.00000000000000000, 0.000000000000000000 ) ) ;
#682 = ORIENTED_EDGE ( 'NONE', *, *, #481, .T. ) ;
#683 = EDGE_CURVE ( 'NONE', #369, #670, #576, .T. ) ;
#684 = DIRECTION ( 'NONE',  ( 0.000000000000000000, -0.000000000000000000, -1.000000000000000000 ) ) ;
#685 = DIRECTION ( 'NONE',  ( -0.000000000000000000, 1.000000000000000000, -0.000000000000000000 ) ) ;
#686 = DIRECTION ( 'NONE',  ( 0.000000000000000000, 0.000000000000000000, -1.000000000000000000 ) ) ;
#687 = EDGE_LOOP ( 'NONE', ( #301, #386, #627, #495, #471, #771 ) ) ;
#688 = CYLINDRICAL_SURFACE ( 'NONE', #128, 25.00000000000000000 ) ;
#689 = DIRECTION ( 'NONE',  ( 1.000000000000000000, 0.000000000000000000, 0.000000000000000000 ) ) ;
#690 = MANIFOLD_SOLID_BREP ( 'Boss-Extrude3', #195 ) ;
#691 = LINE ( 'NONE', #614, #261 ) ;
#693 = ORIENTED_EDGE ( 'NONE', *, *, #162, .T. ) ;
#692 = VECTOR ( 'NONE', #315, 1000.000000000000000 ) ;
#694 = ORIENTED_EDGE ( 'NONE', *, *, #611, .T. ) ;
#695 = CARTESIAN_POINT ( 'NONE',  ( -24.95495942693556302, -10.00000000000000000, 1.499999999999995781 ) ) ;
#696 = EDGE_CURVE ( 'NONE', #615, #410, #580, .T. ) ;
#697 = LINE ( 'NONE', #479, #472 ) ;
#698 = ORIENTED_EDGE ( 'NONE', *, *, #807, .F. ) ;
#699 = AXIS2_PLACEMENT_3D ( 'NONE', #228, #487, #764 ) ;
#700 = APPLICATION_PROTOCOL_DEFINITION ( 'draft international standard', 'automotive_design', 1998, #718 ) ;
#701 = CARTESIAN_POINT ( 'NONE',  ( 0.000000000000000000, -14.00000000000000000, -1.499999999999998446 ) ) ;
#702 = PLANE ( 'NONE',  #854 ) ;
#703 = ORIENTED_EDGE ( 'NONE', *, *, #572, .F. ) ;
#704 = EDGE_CURVE ( 'NONE', #35, #367, #442, .T. ) ;
#705 = PRODUCT_DEFINITION ( 'UNKNOWN', '', #720, #792 ) ;
#706 = AXIS2_PLACEMENT_3D ( 'NONE', #653, #798, #516 ) ;
#707 = FACE_OUTER_BOUND ( 'NONE', #509, .T. ) ;
#708 = CIRCLE ( 'NONE', #528, 23.00000000000000000 ) ;
#709 = SURFACE_STYLE_FILL_AREA ( #233 ) ;
#710 = VERTEX_POINT ( 'NONE', #366 ) ;
#711 = ADVANCED_FACE ( 'NONE', ( #631 ), #28, .F. ) ;
#712 =( LENGTH_UNIT ( ) NAMED_UNIT ( * ) SI_UNIT ( .MILLI., .METRE. ) );
#713 = FACE_OUTER_BOUND ( 'NONE', #628, .T. ) ;
#714 = ADVANCED_FACE ( 'NONE', ( #493 ), #702, .T. ) ;
#715 = LINE ( 'NONE', #437, #692 ) ;
#716 = CARTESIAN_POINT ( 'NONE',  ( 0.000000000000000000, -14.00000000000000000, 0.000000000000000000 ) ) ;
#717 = VECTOR ( 'NONE', #440, 1000.000000000000000 ) ;
#718 = APPLICATION_CONTEXT ( 'automotive_design' ) ;
#719 = VERTEX_POINT ( 'NONE', #727 ) ;
#720 = PRODUCT_DEFINITION_FORMATION_WITH_SPECIFIED_SOURCE ( 'ANY', '', #255, .NOT_KNOWN. ) ;
#721 = VECTOR ( 'NONE', #526, 1000.000000000000000 ) ;
#722 = CARTESIAN_POINT ( 'NONE',  ( 0.000000000000000000, -10.00000000000000000, 0.000000000000000000 ) ) ;
#723 = ADVANCED_FACE ( 'NONE', ( #387 ), #68, .T. ) ;
#724 = LINE ( 'NONE', #858, #89 ) ;
#725 = VERTEX_POINT ( 'NONE', #215 ) ;
#726 = CIRCLE ( 'NONE', #385, 25.00000000000000000 ) ;
#727 = CARTESIAN_POINT ( 'NONE',  ( 1.500000000000003109, -14.00000000000000000, -24.95495942693556302 ) ) ;
#728 = CARTESIAN_POINT ( 'NONE',  ( -3.175000000000000711, 10.00000000000000000, 3.174999999999999822 ) ) ;
#729 = ORIENTED_EDGE ( 'NONE', *, *, #450, .T. ) ;
#730 = CARTESIAN_POINT ( 'NONE',  ( -1.500000000000002220, -14.00000000000000000, -3.174877321593705729E-16 ) ) ;
#731 = ORIENTED_EDGE ( 'NONE', *, *, #510, .F. ) ;
#732 = ADVANCED_FACE ( 'NONE', ( #679 ), #826, .T. ) ;
#733 = DIRECTION ( 'NONE',  ( -0.000000000000000000, -1.000000000000000000, -0.000000000000000000 ) ) ;
#734 = CARTESIAN_POINT ( 'NONE',  ( 1.499999999999997780, -14.00000000000000000, 3.174877321593696362E-16 ) ) ;
#735 = VERTEX_POINT ( 'NONE', #283 ) ;
#736 = VECTOR ( 'NONE', #744, 1000.000000000000000 ) ;
#737 = AXIS2_PLACEMENT_3D ( 'NONE', #856, #31, #783 ) ;
#738 = CARTESIAN_POINT ( 'NONE',  ( 3.175000000000000266, 10.00000000000000000, 3.174999999999999822 ) ) ;
#739 = VERTEX_POINT ( 'NONE', #352 ) ;
#740 = CARTESIAN_POINT ( 'NONE',  ( 3.175000000000000711, 16.35000000000000497, -3.175000000000001599 ) ) ;
#741 = CARTESIAN_POINT ( 'NONE',  ( 1.500000000000003109, -14.00000000000000000, -24.95495942693556302 ) ) ;
#742 = DIRECTION ( 'NONE',  ( -0.000000000000000000, -1.000000000000000000, -0.000000000000000000 ) ) ;
#743 = ORIENTED_EDGE ( 'NONE', *, *, #837, .T. ) ;
#744 = DIRECTION ( 'NONE',  ( -0.000000000000000000, 1.000000000000000000, -0.000000000000000000 ) ) ;
#745 = CARTESIAN_POINT ( 'NONE',  ( -1.499999999999991118, -14.00000000000000000, 22.95103483505700126 ) ) ;
#746 = DIRECTION ( 'NONE',  ( 0.000000000000000000, 1.000000000000000000, 0.000000000000000000 ) ) ;
#747 = VERTEX_POINT ( 'NONE', #135 ) ;
#748 = AXIS2_PLACEMENT_3D ( 'NONE', #612, #816, #91 ) ;
#749 = FACE_OUTER_BOUND ( 'NONE', #455, .T. ) ;
#750 = CARTESIAN_POINT ( 'NONE',  ( 2.816687638038912352E-15, 10.00000000000000000, 23.00000000000000000 ) ) ;
#751 = LINE ( 'NONE', #224, #165 ) ;
#752 = ORIENTED_EDGE ( 'NONE', *, *, #235, .F. ) ;
#753 = DIRECTION ( 'NONE',  ( -0.000000000000000000, 1.000000000000000000, -0.000000000000000000 ) ) ;
#754 = CARTESIAN_POINT ( 'NONE',  ( 0.000000000000000000, 10.00000000000000000, 0.000000000000000000 ) ) ;
#755 = DIRECTION ( 'NONE',  ( -0.000000000000000000, -0.000000000000000000, 1.000000000000000000 ) ) ;
#756 = ORIENTED_EDGE ( 'NONE', *, *, #209, .T. ) ;
#757 = DIRECTION ( 'NONE',  ( -0.000000000000000000, -1.000000000000000000, -0.000000000000000000 ) ) ;
#758 = DIRECTION ( 'NONE',  ( -0.000000000000000000, 1.000000000000000000, -0.000000000000000000 ) ) ;
#759 = DIRECTION ( 'NONE',  ( -0.000000000000000000, -1.000000000000000000, -0.000000000000000000 ) ) ;
#760 = CARTESIAN_POINT ( 'NONE',  ( -3.175000000000000711, 16.35000000000000497, 3.174999999999999822 ) ) ;
#761 = ORIENTED_EDGE ( 'NONE', *, *, #188, .T. ) ;
#762 = AXIS2_PLACEMENT_3D ( 'NONE', #196, #337, #75 ) ;
#763 =( NAMED_UNIT ( * ) SI_UNIT ( $, .STERADIAN. ) SOLID_ANGLE_UNIT ( ) );
#764 = DIRECTION ( 'NONE',  ( 0.000000000000000000, 0.000000000000000000, -1.000000000000000000 ) ) ;
#765 = FACE_BOUND ( 'NONE', #622, .T. ) ;
#766 = ORIENTED_EDGE ( 'NONE', *, *, #683, .T. ) ;
#767 = VECTOR ( 'NONE', #755, 1000.000000000000000 ) ;
#768 = EDGE_CURVE ( 'NONE', #661, #806, #246, .T. ) ;
#769 = DIRECTION ( 'NONE',  ( 0.000000000000000000, 0.000000000000000000, -1.000000000000000000 ) ) ;
#770 = DIRECTION ( 'NONE',  ( 0.000000000000000000, 0.000000000000000000, -1.000000000000000000 ) ) ;
#771 = ORIENTED_EDGE ( 'NONE', *, *, #17, .T. ) ;
#772 = CARTESIAN_POINT ( 'NONE',  ( -1.500000000000002220, -10.00000000000000000, -3.174877321593705729E-16 ) ) ;
#773 = VECTOR ( 'NONE', #144, 1000.000000000000000 ) ;
#774 = DIRECTION ( 'NONE',  ( 0.000000000000000000, 1.000000000000000000, 0.000000000000000000 ) ) ;
#775 = ORIENTED_EDGE ( 'NONE', *, *, #793, .F. ) ;
#776 = EDGE_CURVE ( 'NONE', #504, #351, #73, .T. ) ;
#777 = VERTEX_POINT ( 'NONE', #557 ) ;
#778 = LINE ( 'NONE', #329, #717 ) ;
#779 = CIRCLE ( 'NONE', #503, 25.00000000000000000 ) ;
#780 = ORIENTED_EDGE ( 'NONE', *, *, #174, .F. ) ;
#781 = CIRCLE ( 'NONE', #491, 25.00000000000000000 ) ;
#782 = EDGE_CURVE ( 'NONE', #480, #372, #273, .T. ) ;
#783 = DIRECTION ( 'NONE',  ( 1.000000000000000000, 0.000000000000000000, 0.000000000000000000 ) ) ;
#784 = DIRECTION ( 'NONE',  ( 0.000000000000000000, -1.000000000000000000, 0.000000000000000000 ) ) ;
#785 = FILL_AREA_STYLE_COLOUR ( '', #808 ) ;
#786 = DIRECTION ( 'NONE',  ( 0.000000000000000000, -0.000000000000000000, 1.000000000000000000 ) ) ;
#787 = ORIENTED_EDGE ( 'NONE', *, *, #696, .T. ) ;
#788 = DIRECTION ( 'NONE',  ( -1.000000000000000000, 0.000000000000000000, 0.000000000000000000 ) ) ;
#789 = CIRCLE ( 'NONE', #459, 25.00000000000000000 ) ;
#790 = DIRECTION ( 'NONE',  ( 0.000000000000000000, 0.000000000000000000, 1.000000000000000000 ) ) ;
#791 = VERTEX_POINT ( 'NONE', #293 ) ;
#792 = PRODUCT_DEFINITION_CONTEXT ( 'detailed design', #637, 'design' ) ;
#793 = EDGE_CURVE ( 'NONE', #739, #338, #402, .T. ) ;
#794 = CARTESIAN_POINT ( 'NONE',  ( 1.499999999999991118, -14.00000000000000000, 22.95103483505700126 ) ) ;
#795 = ORIENTED_EDGE ( 'NONE', *, *, #347, .T. ) ;
#796 = AXIS2_PLACEMENT_3D ( 'NONE', #473, #831, #147 ) ;
#797 = EDGE_CURVE ( 'NONE', #531, #594, #15, .T. ) ;
#798 = DIRECTION ( 'NONE',  ( 0.000000000000000000, 1.000000000000000000, 0.000000000000000000 ) ) ;
#799 = ORIENTED_EDGE ( 'NONE', *, *, #797, .F. ) ;
#800 = FACE_OUTER_BOUND ( 'NONE', #423, .T. ) ;
#801 = AXIS2_PLACEMENT_3D ( 'NONE', #105, #625, #639 ) ;
#802 = DIRECTION ( 'NONE',  ( 0.000000000000000000, -0.000000000000000000, 1.000000000000000000 ) ) ;
#803 = EDGE_LOOP ( 'NONE', ( #698, #313, #834, #335 ) ) ;
#804 = PLANE ( 'NONE',  #136 ) ;
#805 = VECTOR ( 'NONE', #534, 1000.000000000000000 ) ;
#806 = VERTEX_POINT ( 'NONE', #606 ) ;
#807 = EDGE_CURVE ( 'NONE', #19, #609, #822, .T. ) ;
#808 = COLOUR_RGB ( '',0.7921568627450980005, 0.8196078431372548767, 0.9333333333333333481 ) ;
#809 = CARTESIAN_POINT ( 'NONE',  ( 0.000000000000000000, -14.00000000000000000, 0.000000000000000000 ) ) ;
#810 = ORIENTED_EDGE ( 'NONE', *, *, #768, .F. ) ;
#811 = PRODUCT_RELATED_PRODUCT_CATEGORY ( 'part', '', ( #255 ) ) ;
#812 = CARTESIAN_POINT ( 'NONE',  ( 0.000000000000000000, 16.35000000000000497, 0.000000000000000000 ) ) ;
#813 = PLANE ( 'NONE',  #212 ) ;
#814 = FACE_OUTER_BOUND ( 'NONE', #514, .T. ) ;
#815 = ORIENTED_EDGE ( 'NONE', *, *, #24, .F. ) ;
#816 = DIRECTION ( 'NONE',  ( 0.000000000000000000, -1.000000000000000000, 0.000000000000000000 ) ) ;
#817 = CARTESIAN_POINT ( 'NONE',  ( 0.000000000000000000, -14.00000000000000000, 0.000000000000000000 ) ) ;
#818 = DIRECTION ( 'NONE',  ( 0.000000000000000000, -1.000000000000000000, 0.000000000000000000 ) ) ;
#819 = AXIS2_PLACEMENT_3D ( 'NONE', #645, #44, #383 ) ;
#820 = ORIENTED_EDGE ( 'NONE', *, *, #658, .T. ) ;
#821 = AXIS2_PLACEMENT_3D ( 'NONE', #187, #254, #868 ) ;
#822 = LINE ( 'NONE', #601, #358 ) ;
#823 = LINE ( 'NONE', #375, #448 ) ;
#824 = FACE_OUTER_BOUND ( 'NONE', #849, .T. ) ;
#825 = ORIENTED_EDGE ( 'NONE', *, *, #418, .F. ) ;
#826 = PLANE ( 'NONE',  #621 ) ;
#827 = CARTESIAN_POINT ( 'NONE',  ( -1.499999999999996891, -14.00000000000000000, -24.95495942693556302 ) ) ;
#828 = CARTESIAN_POINT ( 'NONE',  ( 0.000000000000000000, -14.00000000000000000, -23.00000000000000000 ) ) ;
#829 = ORIENTED_EDGE ( 'NONE', *, *, #572, .T. ) ;
#830 = ORIENTED_EDGE ( 'NONE', *, *, #584, .F. ) ;
#831 = DIRECTION ( 'NONE',  ( -0.000000000000000000, 0.000000000000000000, -1.000000000000000000 ) ) ;
#832 = CARTESIAN_POINT ( 'NONE',  ( -1.500000000000000000, -10.00000000000000000, 24.95495942693556302 ) ) ;
#833 = CARTESIAN_POINT ( 'NONE',  ( -3.175000000000000711, 16.35000000000000497, 3.174999999999999822 ) ) ;
#834 = ORIENTED_EDGE ( 'NONE', *, *, #592, .T. ) ;
#835 = ORIENTED_EDGE ( 'NONE', *, *, #56, .F. ) ;
#836 = VECTOR ( 'NONE', #758, 1000.000000000000000 ) ;
#837 = EDGE_CURVE ( 'NONE', #747, #777, #406, .T. ) ;
#838 = CARTESIAN_POINT ( 'NONE',  ( -1.500000000000000000, -14.00000000000000000, 24.95495942693556302 ) ) ;
#839 = CARTESIAN_POINT ( 'NONE',  ( -3.175000000000000711, 16.35000000000000497, -3.175000000000001599 ) ) ;
#841 = ORIENTED_EDGE ( 'NONE', *, *, #330, .T. ) ;
#840 = VECTOR ( 'NONE', #312, 1000.000000000000000 ) ;
#842 = VERTEX_POINT ( 'NONE', #74 ) ;
#843 = LINE ( 'NONE', #435, #177 ) ;
#844 = CARTESIAN_POINT ( 'NONE',  ( 1.500000000000000000, -14.00000000000000000, 24.95495942693556302 ) ) ;
#845 = ORIENTED_EDGE ( 'NONE', *, *, #638, .F. ) ;
#846 = CARTESIAN_POINT ( 'NONE',  ( 0.000000000000000000, -10.00000000000000000, -1.499999999999998446 ) ) ;
#847 = ADVANCED_FACE ( 'NONE', ( #277 ), #540, .F. ) ;
#848 = DIRECTION ( 'NONE',  ( -0.000000000000000000, 1.000000000000000000, -0.000000000000000000 ) ) ;
#849 = EDGE_LOOP ( 'NONE', ( #489, #55, #825, #600 ) ) ;
#850 = ORIENTED_EDGE ( 'NONE', *, *, #649, .T. ) ;
#851 = CARTESIAN_POINT ( 'NONE',  ( 1.500000000000000000, -14.00000000000000000, 0.000000000000000000 ) ) ;
#852 = DIRECTION ( 'NONE',  ( 0.000000000000000000, -1.000000000000000000, 0.000000000000000000 ) ) ;
#853 = PLANE ( 'NONE',  #662 ) ;
#854 = AXIS2_PLACEMENT_3D ( 'NONE', #839, #102, #451 ) ;
#855 = VERTEX_POINT ( 'NONE', #348 ) ;
#856 = CARTESIAN_POINT ( 'NONE',  ( 0.000000000000000000, 0.000000000000000000, 0.000000000000000000 ) ) ;
#857 = DIRECTION ( 'NONE',  ( 0.000000000000000000, 0.000000000000000000, -1.000000000000000000 ) ) ;
#858 = CARTESIAN_POINT ( 'NONE',  ( -22.95103483505700126, -14.00000000000000000, 1.499999999999995781 ) ) ;
#859 = ORIENTED_EDGE ( 'NONE', *, *, #56, .T. ) ;
#860 = ADVANCED_FACE ( 'NONE', ( #749 ), #227, .F. ) ;
#861 = DIRECTION ( 'NONE',  ( 0.000000000000000000, 1.000000000000000000, 0.000000000000000000 ) ) ;
#862 = ORIENTED_EDGE ( 'NONE', *, *, #782, .T. ) ;
#863 = CIRCLE ( 'NONE', #328, 25.00000000000000000 ) ;
#864 = DIRECTION ( 'NONE',  ( -0.000000000000000000, 1.000000000000000000, -0.000000000000000000 ) ) ;
#865 = ORIENTED_EDGE ( 'NONE', *, *, #78, .F. ) ;
#866 = AXIS2_PLACEMENT_3D ( 'NONE', #354, #345, #280 ) ;
#867 = EDGE_CURVE ( 'NONE', #719, #725, #221, .T. ) ;
#868 = DIRECTION ( 'NONE',  ( 2.131628207280300558E-14, 0.000000000000000000, -1.000000000000000000 ) ) ;
#869 = EDGE_LOOP ( 'NONE', ( #134, #875, #23, #157 ) ) ;
#870 = PLANE ( 'NONE',  #164 ) ;
#871 = CARTESIAN_POINT ( 'NONE',  ( 0.000000000000000000, -10.00000000000000000, -1.499999999999995781 ) ) ;
#872 = ADVANCED_FACE ( 'NONE', ( #420 ), #688, .T. ) ;
#873 = EDGE_LOOP ( 'NONE', ( #281, #204, #731, #636 ) ) ;
#874 = DIRECTION ( 'NONE',  ( 0.000000000000000000, 0.000000000000000000, 1.000000000000000000 ) ) ;
#875 = ORIENTED_EDGE ( 'NONE', *, *, #458, .F. ) ;
ENDSEC;
END-ISO-10303-21;
