ISO-10303-21;
HEADER;
FILE_DESCRIPTION (( 'STEP AP214' ),
    '1' );
FILE_NAME ('clip.STEP',
    '2025-09-21T13:56:56',
    ( '' ),
    ( '' ),
    'SwSTEP 2.0',
    'SolidWorks 2024',
    '' );
FILE_SCHEMA (( 'AUTOMOTIVE_DESIGN' ));
ENDSEC;

DATA;
#1 = DIRECTION ( 'NONE',  ( -0.7071067811865580088, -0.7071067811865370256, 0.000000000000000000 ) ) ;
#2 = ORIENTED_EDGE ( 'NONE', *, *, #855, .F. ) ;
#3 = VERTEX_POINT ( 'NONE', #507 ) ;
#4 = ORIENTED_EDGE ( 'NONE', *, *, #73, .F. ) ;
#5 = DIRECTION ( 'NONE',  ( 0.2810846377148148445, 0.6785983445458504404, 0.6785983445458457775 ) ) ;
#6 = VECTOR ( 'NONE', #63, 1000.000000000000000 ) ;
#7 = ORIENTED_EDGE ( 'NONE', *, *, #557, .T. ) ;
#8 = AXIS2_PLACEMENT_3D ( 'NONE', #171, #567, #718 ) ;
#9 = ORIENTED_EDGE ( 'NONE', *, *, #419, .F. ) ;
#10 = CARTESIAN_POINT ( 'NONE',  ( -8.499999999999984013, 2.000000000000000000, -5.000000000000000000 ) ) ;
#11 = ORIENTED_EDGE ( 'NONE', *, *, #942, .T. ) ;
#12 = ADVANCED_FACE ( 'NONE', ( #425 ), #724, .F. ) ;
#13 = EDGE_CURVE ( 'NONE', #18, #191, #270, .T. ) ;
#14 = CARTESIAN_POINT ( 'NONE',  ( 10.41421356237308515, 1.499999999999995337, 0.000000000000000000 ) ) ;
#15 = ORIENTED_EDGE ( 'NONE', *, *, #909, .T. ) ;
#16 = CARTESIAN_POINT ( 'NONE',  ( -14.99999999999999822, 0.000000000000000000, 0.9999999999999974465 ) ) ;
#17 = CARTESIAN_POINT ( 'NONE',  ( 0.000000000000000000, 0.000000000000000000, 4.000000000000000000 ) ) ;
#18 = VERTEX_POINT ( 'NONE', #121 ) ;
#19 = CARTESIAN_POINT ( 'NONE',  ( -7.499999999999983125, 2.000000000000000000, -6.258963000879180782 ) ) ;
#20 = DIRECTION ( 'NONE',  ( 0.7071067811865561215, -0.7071067811865390240, 0.000000000000000000 ) ) ;
#21 = COLOUR_RGB ( '',0.7921568627450980005, 0.8196078431372548767, 0.9333333333333333481 ) ;
#22 = DIRECTION ( 'NONE',  ( -1.000000000000000000, 0.000000000000000000, 0.000000000000000000 ) ) ;
#23 = ORIENTED_EDGE ( 'NONE', *, *, #60, .T. ) ;
#24 = EDGE_CURVE ( 'NONE', #713, #530, #111, .T. ) ;
#25 = LINE ( 'NONE', #89, #964 ) ;
#26 = DIRECTION ( 'NONE',  ( 0.000000000000000000, -1.000000000000000000, 0.000000000000000000 ) ) ;
#27 = DIRECTION ( 'NONE',  ( -0.7071067811865536790, 0.7071067811865414665, 0.000000000000000000 ) ) ;
#28 = PLANE ( 'NONE',  #799 ) ;
#29 = LINE ( 'NONE', #93, #257 ) ;
#30 = CARTESIAN_POINT ( 'NONE',  ( 4.457106781186389810, -4.457106781186521260, 0.000000000000000000 ) ) ;
#31 = DIRECTION ( 'NONE',  ( -0.000000000000000000, 0.000000000000000000, -1.000000000000000000 ) ) ;
#32 = EDGE_LOOP ( 'NONE', ( #422, #159, #297, #235, #773, #785, #858, #11 ) ) ;
#33 = CARTESIAN_POINT ( 'NONE',  ( -10.00000000000000178, -2.500000000000000444, 4.000000000000000000 ) ) ;
#34 = AXIS2_PLACEMENT_3D ( 'NONE', #17, #645, #409 ) ;
#35 = SHAPE_DEFINITION_REPRESENTATION ( #984, #464 ) ;
#36 = DIRECTION ( 'NONE',  ( 1.000000000000000000, 0.000000000000000000, 0.000000000000000000 ) ) ;
#37 =( GEOMETRIC_REPRESENTATION_CONTEXT ( 3 ) GLOBAL_UNCERTAINTY_ASSIGNED_CONTEXT ( ( #859 ) ) GLOBAL_UNIT_ASSIGNED_CONTEXT ( ( #962, #736, #626 ) ) REPRESENTATION_CONTEXT ( 'NONE', 'WORKASPACE' ) );
#38 = ORIENTED_EDGE ( 'NONE', *, *, #342, .T. ) ;
#39 = PRESENTATION_STYLE_ASSIGNMENT (( #911 ) ) ;
#40 = PLANE ( 'NONE',  #241 ) ;
#41 = EDGE_CURVE ( 'NONE', #559, #564, #278, .T. ) ;
#42 = EDGE_LOOP ( 'NONE', ( #816, #221, #655, #182, #377, #525 ) ) ;
#43 = EDGE_CURVE ( 'NONE', #698, #856, #587, .T. ) ;
#44 = CARTESIAN_POINT ( 'NONE',  ( 14.99999999999997868, -7.499999999999895195, 4.000000000000000000 ) ) ;
#45 = DIRECTION ( 'NONE',  ( 0.000000000000000000, 0.000000000000000000, -1.000000000000000000 ) ) ;
#46 = CARTESIAN_POINT ( 'NONE',  ( -7.499999999999983125, 2.000000000000000000, -5.258963000879180782 ) ) ;
#47 = DIRECTION ( 'NONE',  ( 1.000000000000000000, 0.000000000000000000, 0.000000000000000000 ) ) ;
#48 = CARTESIAN_POINT ( 'NONE',  ( -12.55933070419716380, -1.607703084805185645, 5.940669295802836203 ) ) ;
#49 = ADVANCED_FACE ( 'NONE', ( #719 ), #28, .T. ) ;
#50 = PLANE ( 'NONE',  #210 ) ;
#51 = PLANE ( 'NONE',  #994 ) ;
#52 = VECTOR ( 'NONE', #588, 1000.000000000000000 ) ;
#53 = EDGE_LOOP ( 'NONE', ( #357, #399, #166, #632 ) ) ;
#54 = FACE_OUTER_BOUND ( 'NONE', #535, .T. ) ;
#55 = AXIS2_PLACEMENT_3D ( 'NONE', #963, #262, #702 ) ;
#56 = ADVANCED_FACE ( 'NONE', ( #568 ), #125, .F. ) ;
#57 = CARTESIAN_POINT ( 'NONE',  ( 0.000000000000000000, 2.000000000000000000, 0.5000000000000013323 ) ) ;
#58 = ORIENTED_EDGE ( 'NONE', *, *, #493, .F. ) ;
#59 = LINE ( 'NONE', #904, #997 ) ;
#60 = EDGE_CURVE ( 'NONE', #713, #245, #441, .T. ) ;
#61 = ORIENTED_EDGE ( 'NONE', *, *, #471, .F. ) ;
#62 = DIRECTION ( 'NONE',  ( 0.7071067811865451302, 0.000000000000000000, 0.7071067811865500152 ) ) ;
#63 = DIRECTION ( 'NONE',  ( 0.7071067811865561215, -0.7071067811865390240, 0.000000000000000000 ) ) ;
#64 = ADVANCED_FACE ( 'NONE', ( #687 ), #1005, .T. ) ;
#65 = VECTOR ( 'NONE', #722, 1000.000000000000000 ) ;
#66 = ORIENTED_EDGE ( 'NONE', *, *, #929, .F. ) ;
#67 = DIRECTION ( 'NONE',  ( 0.4999999999999955591, 0.5000000000000042188, -0.7071067811865477948 ) ) ;
#68 =( GEOMETRIC_REPRESENTATION_CONTEXT ( 3 ) GLOBAL_UNCERTAINTY_ASSIGNED_CONTEXT ( ( #491 ) ) GLOBAL_UNIT_ASSIGNED_CONTEXT ( ( #808, #108, #813 ) ) REPRESENTATION_CONTEXT ( 'NONE', 'WORKASPACE' ) );
#69 = AXIS2_PLACEMENT_3D ( 'NONE', #699, #386, #776 ) ;
#70 = CARTESIAN_POINT ( 'NONE',  ( -10.88908729652599128, 0.3535533905932829457, 5.646446609406718053 ) ) ;
#71 = VERTEX_POINT ( 'NONE', #511 ) ;
#72 = CARTESIAN_POINT ( 'NONE',  ( -10.00000000000000178, -2.500000000000000444, 3.500000000000003109 ) ) ;
#73 = EDGE_CURVE ( 'NONE', #75, #691, #204, .T. ) ;
#74 = EDGE_LOOP ( 'NONE', ( #795, #940, #130, #66 ) ) ;
#75 = VERTEX_POINT ( 'NONE', #913 ) ;
#76 = VERTEX_POINT ( 'NONE', #673 ) ;
#77 = CARTESIAN_POINT ( 'NONE',  ( 3.749999999999851230, -3.749999999999962697, 4.000000000000000000 ) ) ;
#78 = EDGE_LOOP ( 'NONE', ( #238, #490, #354, #38 ) ) ;
#79 = VERTEX_POINT ( 'NONE', #745 ) ;
#80 = DIRECTION ( 'NONE',  ( -0.7071067811865536790, 0.7071067811865414665, -0.000000000000000000 ) ) ;
#81 = ADVANCED_FACE ( 'NONE', ( #842 ), #51, .F. ) ;
#82 = AXIS2_PLACEMENT_3D ( 'NONE', #202, #725, #825 ) ;
#83 = VECTOR ( 'NONE', #930, 1000.000000000000000 ) ;
#84 = ORIENTED_EDGE ( 'NONE', *, *, #60, .F. ) ;
#85 = AXIS2_PLACEMENT_3D ( 'NONE', #77, #309, #1 ) ;
#86 = LINE ( 'NONE', #885, #835 ) ;
#87 = ORIENTED_EDGE ( 'NONE', *, *, #169, .T. ) ;
#88 = DIRECTION ( 'NONE',  ( 0.8637789008984331218, 0.000000000000000000, 0.5038710255240865798 ) ) ;
#89 = CARTESIAN_POINT ( 'NONE',  ( -14.99999999999999822, -7.499999999999874767, 4.000000000000000000 ) ) ;
#90 = CARTESIAN_POINT ( 'NONE',  ( -10.00000000000000178, -2.500000000000000444, 3.500000000000003553 ) ) ;
#91 = VERTEX_POINT ( 'NONE', #281 ) ;
#92 = LINE ( 'NONE', #195, #320 ) ;
#93 = CARTESIAN_POINT ( 'NONE',  ( 13.99999999999997513, -7.499999999999893419, 0.000000000000000000 ) ) ;
#94 = EDGE_CURVE ( 'NONE', #530, #117, #591, .T. ) ;
#95 = CARTESIAN_POINT ( 'NONE',  ( 14.49999999999999467, -2.012279232133129046E-14, 4.000000000000000000 ) ) ;
#96 = VERTEX_POINT ( 'NONE', #751 ) ;
#97 = ADVANCED_FACE ( 'NONE', ( #837 ), #133, .T. ) ;
#98 = DIRECTION ( 'NONE',  ( 8.673617379884035472E-16, 0.000000000000000000, 1.000000000000000000 ) ) ;
#99 = VECTOR ( 'NONE', #118, 1000.000000000000114 ) ;
#100 = PLANE ( 'NONE',  #349 ) ;
#101 = AXIS2_PLACEMENT_3D ( 'NONE', #653, #581, #495 ) ;
#102 = CARTESIAN_POINT ( 'NONE',  ( -7.499999999999983125, -2.000000000000000000, -6.258963000879180782 ) ) ;
#103 = ORIENTED_EDGE ( 'NONE', *, *, #664, .F. ) ;
#104 = CARTESIAN_POINT ( 'NONE',  ( 13.99999999999997868, -5.085786437626827805, 0.000000000000000000 ) ) ;
#105 = PLANE ( 'NONE',  #364 ) ;
#106 = LINE ( 'NONE', #326, #334 ) ;
#107 = ORIENTED_EDGE ( 'NONE', *, *, #343, .F. ) ;
#108 =( NAMED_UNIT ( * ) PLANE_ANGLE_UNIT ( ) SI_UNIT ( $, .RADIAN. ) );
#109 = CARTESIAN_POINT ( 'NONE',  ( -14.50000000000000000, 6.292893218813355283, 4.000000000000000000 ) ) ;
#110 = CARTESIAN_POINT ( 'NONE',  ( -4.207106781186545241, -1.499999999999996225, 0.000000000000000000 ) ) ;
#111 = LINE ( 'NONE', #806, #695 ) ;
#112 = FILL_AREA_STYLE_COLOUR ( '', #21 ) ;
#113 = EDGE_CURVE ( 'NONE', #646, #698, #727, .T. ) ;
#114 = AXIS2_PLACEMENT_3D ( 'NONE', #180, #499, #325 ) ;
#115 = FACE_OUTER_BOUND ( 'NONE', #781, .T. ) ;
#116 = AXIS2_PLACEMENT_3D ( 'NONE', #397, #686, #20 ) ;
#117 = VERTEX_POINT ( 'NONE', #640 ) ;
#118 = DIRECTION ( 'NONE',  ( 0.3574067443365984142, -0.8628562094610136013, -0.3574067443365959718 ) ) ;
#119 = FACE_OUTER_BOUND ( 'NONE', #234, .T. ) ;
#120 = DIRECTION ( 'NONE',  ( 0.000000000000000000, 1.000000000000000000, -0.000000000000000000 ) ) ;
#121 = CARTESIAN_POINT ( 'NONE',  ( -14.99999999999999822, -7.499999999999874767, 3.500000000000003109 ) ) ;
#122 = LINE ( 'NONE', #344, #52 ) ;
#123 = VERTEX_POINT ( 'NONE', #975 ) ;
#124 = CARTESIAN_POINT ( 'NONE',  ( -13.99999999999999289, 0.000000000000000000, 0.000000000000000000 ) ) ;
#125 = PLANE ( 'NONE',  #384 ) ;
#126 = EDGE_CURVE ( 'NONE', #1004, #341, #780, .T. ) ;
#127 = DIRECTION ( 'NONE',  ( 1.000000000000000000, 0.000000000000000000, 0.000000000000000000 ) ) ;
#128 = CLOSED_SHELL ( 'NONE', ( #260, #12, #56, #685, #614, #378, #465, #49, #830, #916, #516, #652, #981, #154, #310, #164, #881, #620, #774, #231, #999, #603, #731, #64, #329, #701, #921, #139, #81, #97, #821, #151, #972, #569, #434 ) ) ;
#129 = VECTOR ( 'NONE', #407, 1000.000000000000000 ) ;
#130 = ORIENTED_EDGE ( 'NONE', *, *, #273, .F. ) ;
#131 = VECTOR ( 'NONE', #233, 1000.000000000000114 ) ;
#132 = CARTESIAN_POINT ( 'NONE',  ( 9.999999999999998224, -2.000000000000003553, 4.000000000000000000 ) ) ;
#133 = PLANE ( 'NONE',  #114 ) ;
#134 = VERTEX_POINT ( 'NONE', #798 ) ;
#135 = ORIENTED_EDGE ( 'NONE', *, *, #199, .T. ) ;
#136 = CARTESIAN_POINT ( 'NONE',  ( 0.000000000000000000, 2.499999999999999556, 4.000000000000000000 ) ) ;
#137 = EDGE_CURVE ( 'NONE', #71, #76, #488, .T. ) ;
#138 = LINE ( 'NONE', #124, #289 ) ;
#139 = ADVANCED_FACE ( 'NONE', ( #115 ), #40, .T. ) ;
#140 = ORIENTED_EDGE ( 'NONE', *, *, #674, .F. ) ;
#141 = EDGE_LOOP ( 'NONE', ( #982, #791, #977, #608 ) ) ;
#142 = FACE_OUTER_BOUND ( 'NONE', #230, .T. ) ;
#143 = CARTESIAN_POINT ( 'NONE',  ( -14.99999999999999645, 7.499999999999874767, 4.000000000000000000 ) ) ;
#144 = VERTEX_POINT ( 'NONE', #562 ) ;
#145 = VERTEX_POINT ( 'NONE', #266 ) ;
#146 = CARTESIAN_POINT ( 'NONE',  ( 14.99999999999997868, -7.499999999999895195, 3.500000000000002665 ) ) ;
#147 = VECTOR ( 'NONE', #950, 1000.000000000000000 ) ;
#148 = VECTOR ( 'NONE', #5, 1000.000000000000114 ) ;
#149 = DIRECTION ( 'NONE',  ( -0.000000000000000000, -0.000000000000000000, -1.000000000000000000 ) ) ;
#150 = ORIENTED_EDGE ( 'NONE', *, *, #759, .F. ) ;
#151 = ADVANCED_FACE ( 'NONE', ( #119 ), #898, .T. ) ;
#152 = FACE_OUTER_BOUND ( 'NONE', #876, .T. ) ;
#153 = ORIENTED_EDGE ( 'NONE', *, *, #693, .F. ) ;
#154 = ADVANCED_FACE ( 'NONE', ( #269 ), #100, .F. ) ;
#155 = ORIENTED_EDGE ( 'NONE', *, *, #24, .T. ) ;
#156 = CARTESIAN_POINT ( 'NONE',  ( -6.996128974475897877, 2.000000000000000000, -6.122741901777615681 ) ) ;
#157 = ORIENTED_EDGE ( 'NONE', *, *, #448, .T. ) ;
#158 = LINE ( 'NONE', #181, #888 ) ;
#159 = ORIENTED_EDGE ( 'NONE', *, *, #481, .T. ) ;
#160 = CARTESIAN_POINT ( 'NONE',  ( -8.207106781186530142, 2.000000000000000000, -4.707106781186547018 ) ) ;
#161 = VECTOR ( 'NONE', #335, 1000.000000000000000 ) ;
#162 = VECTOR ( 'NONE', #27, 1000.000000000000000 ) ;
#163 = AXIS2_PLACEMENT_3D ( 'NONE', #136, #305, #758 ) ;
#164 = ADVANCED_FACE ( 'NONE', ( #822 ), #105, .F. ) ;
#165 = CARTESIAN_POINT ( 'NONE',  ( 3.500000000000000000, -1.499999999999996225, -1.285879139104720633E-15 ) ) ;
#166 = ORIENTED_EDGE ( 'NONE', *, *, #177, .F. ) ;
#167 = DIRECTION ( 'NONE',  ( 0.000000000000000000, 1.000000000000000000, 0.000000000000000000 ) ) ;
#168 = DIRECTION ( 'NONE',  ( -0.7071067811865561215, 0.7071067811865390240, 0.000000000000000000 ) ) ;
#169 = EDGE_CURVE ( 'NONE', #965, #176, #505, .T. ) ;
#170 = EDGE_CURVE ( 'NONE', #224, #144, #577, .T. ) ;
#171 = CARTESIAN_POINT ( 'NONE',  ( 0.000000000000000000, 1.499999999999995337, 0.000000000000000000 ) ) ;
#172 = ORIENTED_EDGE ( 'NONE', *, *, #393, .T. ) ;
#173 = CYLINDRICAL_SURFACE ( 'NONE', #541, 1.000000000000000000 ) ;
#174 = CARTESIAN_POINT ( 'NONE',  ( 14.99999999999997868, -7.499999999999895195, 0.9999999999999974465 ) ) ;
#175 = FACE_OUTER_BOUND ( 'NONE', #74, .T. ) ;
#176 = VERTEX_POINT ( 'NONE', #878 ) ;
#177 = EDGE_CURVE ( 'NONE', #191, #224, #330, .T. ) ;
#178 = CARTESIAN_POINT ( 'NONE',  ( -7.499999999999983125, -2.000000000000000000, -5.414213562373094035 ) ) ;
#179 = VECTOR ( 'NONE', #656, 1000.000000000000000 ) ;
#180 = CARTESIAN_POINT ( 'NONE',  ( 13.99999999999998579, -1.942890293094054554E-14, 0.000000000000000000 ) ) ;
#181 = CARTESIAN_POINT ( 'NONE',  ( 3.500000000000000000, 2.000000000000000000, -1.285879139104720633E-15 ) ) ;
#182 = ORIENTED_EDGE ( 'NONE', *, *, #599, .T. ) ;
#183 = CARTESIAN_POINT ( 'NONE',  ( -4.207106781186544353, 1.499999999999995337, 0.000000000000000000 ) ) ;
#184 = DIRECTION ( 'NONE',  ( 0.000000000000000000, 1.000000000000000000, -0.000000000000000000 ) ) ;
#185 = LINE ( 'NONE', #110, #966 ) ;
#186 = DIRECTION ( 'NONE',  ( 0.000000000000000000, 1.000000000000000000, 0.000000000000000000 ) ) ;
#187 = EDGE_CURVE ( 'NONE', #893, #923, #883, .T. ) ;
#188 = DIRECTION ( 'NONE',  ( 0.000000000000000000, 0.000000000000000000, 1.000000000000000000 ) ) ;
#189 = CARTESIAN_POINT ( 'NONE',  ( 14.99999999999999112, -2.081668171172201645E-14, 3.500000000000003109 ) ) ;
#190 = CARTESIAN_POINT ( 'NONE',  ( 10.09353514254719109, 4.345254002169478547, 8.406464857452807138 ) ) ;
#191 = VERTEX_POINT ( 'NONE', #651 ) ;
#192 = CARTESIAN_POINT ( 'NONE',  ( 14.99999999999997868, -7.499999999999895195, 0.9999999999999991118 ) ) ;
#193 = CARTESIAN_POINT ( 'NONE',  ( 0.000000000000000000, -2.000000000000000000, 0.000000000000000000 ) ) ;
#194 = AXIS2_PLACEMENT_3D ( 'NONE', #846, #607, #45 ) ;
#195 = CARTESIAN_POINT ( 'NONE',  ( -4.207106781186549682, 1.499999999999995337, -0.7071067811865527908 ) ) ;
#196 = AXIS2_PLACEMENT_3D ( 'NONE', #46, #120, #899 ) ;
#197 = EDGE_LOOP ( 'NONE', ( #15, #613, #690, #592 ) ) ;
#198 = CARTESIAN_POINT ( 'NONE',  ( -14.99999999999999645, 7.499999999999874767, 0.9999999999999974465 ) ) ;
#199 = EDGE_CURVE ( 'NONE', #117, #245, #636, .T. ) ;
#200 = PLANE ( 'NONE',  #417 ) ;
#201 = CARTESIAN_POINT ( 'NONE',  ( -4.103553390593147832, -4.103553390593247308, 4.000000000000000000 ) ) ;
#202 = CARTESIAN_POINT ( 'NONE',  ( 14.99999999999999112, -2.081668171172201645E-14, 3.500000000000003109 ) ) ;
#203 = CARTESIAN_POINT ( 'NONE',  ( 9.999999999999998224, 2.499999999999999556, 3.500000000000004441 ) ) ;
#204 = LINE ( 'NONE', #828, #208 ) ;
#205 = EDGE_CURVE ( 'NONE', #215, #117, #403, .T. ) ;
#206 = VERTEX_POINT ( 'NONE', #895 ) ;
#207 = CARTESIAN_POINT ( 'NONE',  ( 3.749999999999851230, -3.749999999999962697, 3.500000000000003109 ) ) ;
#208 = VECTOR ( 'NONE', #429, 1000.000000000000114 ) ;
#209 = DIRECTION ( 'NONE',  ( 0.3574067443366001906, 0.8628562094610124911, 0.3574067443365965824 ) ) ;
#210 = AXIS2_PLACEMENT_3D ( 'NONE', #207, #920, #754 ) ;
#211 = AXIS2_PLACEMENT_3D ( 'NONE', #244, #472, #790 ) ;
#212 = ORIENTED_EDGE ( 'NONE', *, *, #705, .F. ) ;
#213 = VECTOR ( 'NONE', #462, 1000.000000000000000 ) ;
#214 = LINE ( 'NONE', #528, #351 ) ;
#215 = VERTEX_POINT ( 'NONE', #174 ) ;
#216 = ORIENTED_EDGE ( 'NONE', *, *, #41, .T. ) ;
#217 = EDGE_CURVE ( 'NONE', #501, #215, #814, .T. ) ;
#218 = CARTESIAN_POINT ( 'NONE',  ( -8.499999999999984013, -2.000000000000000000, -5.000000000000000000 ) ) ;
#219 = FACE_OUTER_BOUND ( 'NONE', #598, .T. ) ;
#220 = ORIENTED_EDGE ( 'NONE', *, *, #359, .T. ) ;
#221 = ORIENTED_EDGE ( 'NONE', *, *, #932, .T. ) ;
#222 = CARTESIAN_POINT ( 'NONE',  ( -14.99999999999999822, 0.000000000000000000, 0.9999999999999974465 ) ) ;
#223 = CARTESIAN_POINT ( 'NONE',  ( -6.996128974475893436, -2.000000000000000000, -6.122741901777613016 ) ) ;
#224 = VERTEX_POINT ( 'NONE', #109 ) ;
#225 = VECTOR ( 'NONE', #186, 1000.000000000000000 ) ;
#226 = ORIENTED_EDGE ( 'NONE', *, *, #373, .T. ) ;
#227 = EDGE_LOOP ( 'NONE', ( #509, #623, #294, #290 ) ) ;
#228 = DIRECTION ( 'NONE',  ( -1.000000000000000000, 0.000000000000000000, 0.000000000000000000 ) ) ;
#229 = CIRCLE ( 'NONE', #387, 1.000000000000000000 ) ;
#230 = EDGE_LOOP ( 'NONE', ( #844, #540, #910, #517 ) ) ;
#231 = ADVANCED_FACE ( 'NONE', ( #968 ), #50, .F. ) ;
#232 = ORIENTED_EDGE ( 'NONE', *, *, #909, .F. ) ;
#233 = DIRECTION ( 'NONE',  ( 4.336808689941975138E-15, 0.7071067811865500152, 0.7071067811865451302 ) ) ;
#234 = EDGE_LOOP ( 'NONE', ( #478, #388, #220, #103 ) ) ;
#235 = ORIENTED_EDGE ( 'NONE', *, *, #406, .T. ) ;
#236 = DIRECTION ( 'NONE',  ( -0.7071067811865580088, -0.7071067811865370256, 0.000000000000000000 ) ) ;
#237 = CARTESIAN_POINT ( 'NONE',  ( 9.999999999999998224, 2.499999999999999556, 4.000000000000000000 ) ) ;
#238 = ORIENTED_EDGE ( 'NONE', *, *, #419, .T. ) ;
#239 = CARTESIAN_POINT ( 'NONE',  ( 4.103553390593114969, -4.103553390593236649, 4.000000000000000000 ) ) ;
#240 = EDGE_CURVE ( 'NONE', #1001, #605, #483, .T. ) ;
#241 = AXIS2_PLACEMENT_3D ( 'NONE', #30, #248, #804 ) ;
#242 = CARTESIAN_POINT ( 'NONE',  ( -7.499999999999983125, 2.000000000000000000, -6.258963000879180782 ) ) ;
#243 = VECTOR ( 'NONE', #744, 1000.000000000000114 ) ;
#244 = CARTESIAN_POINT ( 'NONE',  ( 0.000000000000000000, -2.000000000000003553, 4.000000000000000000 ) ) ;
#245 = VERTEX_POINT ( 'NONE', #602 ) ;
#246 = CARTESIAN_POINT ( 'NONE',  ( -10.00000000000000178, 2.500000000000000888, 3.500000000000003109 ) ) ;
#247 = EDGE_CURVE ( 'NONE', #123, #764, #521, .T. ) ;
#248 = DIRECTION ( 'NONE',  ( -0.4999999999999915068, 0.5000000000000063283, -0.7071067811865490160 ) ) ;
#249 = PLANE ( 'NONE',  #55 ) ;
#250 = VERTEX_POINT ( 'NONE', #203 ) ;
#251 = FACE_OUTER_BOUND ( 'NONE', #988, .T. ) ;
#252 = DIRECTION ( 'NONE',  ( -0.7071067811865463515, 0.000000000000000000, -0.7071067811865487940 ) ) ;
#253 = DIRECTION ( 'NONE',  ( 1.000000000000000000, 0.000000000000000000, -0.000000000000000000 ) ) ;
#254 = DIRECTION ( 'NONE',  ( 1.387778780781468947E-15, 1.000000000000000000, 0.000000000000000000 ) ) ;
#255 = PLANE ( 'NONE',  #818 ) ;
#256 = VECTOR ( 'NONE', #801, 1000.000000000000000 ) ;
#257 = VECTOR ( 'NONE', #709, 1000.000000000000000 ) ;
#258 = CARTESIAN_POINT ( 'NONE',  ( 12.43159112329986726, -1.299312456151109352, -1.568408876700107202 ) ) ;
#259 = VECTOR ( 'NONE', #389, 1000.000000000000000 ) ;
#260 = ADVANCED_FACE ( 'NONE', ( #219 ), #513, .T. ) ;
#261 = APPLICATION_PROTOCOL_DEFINITION ( 'draft international standard', 'automotive_design', 1998, #611 ) ;
#262 = DIRECTION ( 'NONE',  ( -0.7071067811865475727, 0.000000000000000000, 0.7071067811865475727 ) ) ;
#263 = ORIENTED_EDGE ( 'NONE', *, *, #288, .F. ) ;
#264 = DIRECTION ( 'NONE',  ( 0.000000000000000000, -1.000000000000000000, 0.000000000000000000 ) ) ;
#265 = EDGE_CURVE ( 'NONE', #926, #134, #280, .T. ) ;
#266 = CARTESIAN_POINT ( 'NONE',  ( -10.20710678118654435, 2.000000000000002665, 4.000000000000000000 ) ) ;
#267 = DIRECTION ( 'NONE',  ( 1.000000000000000000, 0.000000000000000000, 0.000000000000000000 ) ) ;
#268 = ORIENTED_EDGE ( 'NONE', *, *, #94, .T. ) ;
#269 = FACE_OUTER_BOUND ( 'NONE', #367, .T. ) ;
#270 = LINE ( 'NONE', #662, #225 ) ;
#271 = CARTESIAN_POINT ( 'NONE',  ( -10.41421356237308871, 1.499999999999995115, 0.000000000000000000 ) ) ;
#272 = EDGE_CURVE ( 'NONE', #76, #713, #665, .T. ) ;
#273 = EDGE_CURVE ( 'NONE', #646, #926, #439, .T. ) ;
#274 = AXIS2_PLACEMENT_3D ( 'NONE', #890, #717, #957 ) ;
#275 = DIRECTION ( 'NONE',  ( 0.7071067811865536790, -0.7071067811865414665, 0.000000000000000000 ) ) ;
#276 = VECTOR ( 'NONE', #411, 1000.000000000000000 ) ;
#277 = AXIS2_PLACEMENT_3D ( 'NONE', #222, #62, #538 ) ;
#278 = LINE ( 'NONE', #415, #256 ) ;
#279 = FILL_AREA_STYLE ('',( #112 ) ) ;
#280 = LINE ( 'NONE', #132, #834 ) ;
#281 = CARTESIAN_POINT ( 'NONE',  ( 9.999999999999998224, -2.500000000000000444, 3.500000000000003109 ) ) ;
#282 = ORIENTED_EDGE ( 'NONE', *, *, #43, .T. ) ;
#283 = CYLINDRICAL_SURFACE ( 'NONE', #679, 1.000000000000000000 ) ;
#284 = LINE ( 'NONE', #998, #520 ) ;
#285 = ORIENTED_EDGE ( 'NONE', *, *, #548, .T. ) ;
#286 = LINE ( 'NONE', #510, #6 ) ;
#287 = CARTESIAN_POINT ( 'NONE',  ( 0.000000000000000000, 0.000000000000000000, 0.000000000000000000 ) ) ;
#288 = EDGE_CURVE ( 'NONE', #463, #559, #59, .T. ) ;
#289 = VECTOR ( 'NONE', #363, 1000.000000000000000 ) ;
#290 = ORIENTED_EDGE ( 'NONE', *, *, #788, .F. ) ;
#291 = DIRECTION ( 'NONE',  ( 0.7071067811865463515, 0.000000000000000000, 0.7071067811865487940 ) ) ;
#292 = DIRECTION ( 'NONE',  ( -0.4999999999999927836, -0.5000000000000048850, 0.7071067811865492381 ) ) ;
#293 = ORIENTED_EDGE ( 'NONE', *, *, #187, .T. ) ;
#294 = ORIENTED_EDGE ( 'NONE', *, *, #857, .F. ) ;
#295 = FACE_OUTER_BOUND ( 'NONE', #927, .T. ) ;
#296 = LINE ( 'NONE', #612, #83 ) ;
#297 = ORIENTED_EDGE ( 'NONE', *, *, #170, .T. ) ;
#298 = DIRECTION ( 'NONE',  ( -0.000000000000000000, 0.000000000000000000, 1.000000000000000000 ) ) ;
#299 = ORIENTED_EDGE ( 'NONE', *, *, #94, .F. ) ;
#300 = DIRECTION ( 'NONE',  ( -4.336808689941975138E-15, 0.7071067811865500152, -0.7071067811865451302 ) ) ;
#301 = EDGE_CURVE ( 'NONE', #191, #564, #925, .T. ) ;
#302 = ORIENTED_EDGE ( 'NONE', *, *, #527, .T. ) ;
#303 = ORIENTED_EDGE ( 'NONE', *, *, #589, .F. ) ;
#304 = ORIENTED_EDGE ( 'NONE', *, *, #247, .F. ) ;
#305 = DIRECTION ( 'NONE',  ( 0.000000000000000000, 1.000000000000000000, 0.000000000000000000 ) ) ;
#306 = CIRCLE ( 'NONE', #552, 1.000000000000000000 ) ;
#307 = ORIENTED_EDGE ( 'NONE', *, *, #288, .T. ) ;
#308 = EDGE_LOOP ( 'NONE', ( #457, #544, #703, #864 ) ) ;
#309 = DIRECTION ( 'NONE',  ( -0.7071067811865370256, 0.7071067811865580088, 0.000000000000000000 ) ) ;
#310 = ADVANCED_FACE ( 'NONE', ( #590 ), #345, .T. ) ;
#311 = EDGE_CURVE ( 'NONE', #134, #206, #750, .T. ) ;
#312 = LINE ( 'NONE', #630, #585 ) ;
#313 = ORIENTED_EDGE ( 'NONE', *, *, #316, .F. ) ;
#314 = DIRECTION ( 'NONE',  ( -0.000000000000000000, 1.000000000000000000, -0.000000000000000000 ) ) ;
#315 = PLANE ( 'NONE',  #211 ) ;
#316 = EDGE_CURVE ( 'NONE', #689, #71, #430, .T. ) ;
#317 = VERTEX_POINT ( 'NONE', #672 ) ;
#318 = DIRECTION ( 'NONE',  ( 0.000000000000000000, 1.000000000000000000, 0.000000000000000000 ) ) ;
#319 = VECTOR ( 'NONE', #534, 1000.000000000000114 ) ;
#320 = VECTOR ( 'NONE', #424, 1000.000000000000000 ) ;
#321 = DIRECTION ( 'NONE',  ( -1.387778780781468947E-15, -1.000000000000000000, 0.000000000000000000 ) ) ;
#322 = LINE ( 'NONE', #489, #259 ) ;
#323 = VERTEX_POINT ( 'NONE', #586 ) ;
#324 = DIRECTION ( 'NONE',  ( -2.602085213965210642E-15, 0.000000000000000000, 1.000000000000000000 ) ) ;
#325 = DIRECTION ( 'NONE',  ( 1.387778780781468947E-15, 1.000000000000000000, 0.000000000000000000 ) ) ;
#326 = CARTESIAN_POINT ( 'NONE',  ( -10.00000000000000178, 2.499999999999999556, 0.9999999999999974465 ) ) ;
#327 = CARTESIAN_POINT ( 'NONE',  ( 14.99999999999999112, -2.081668171172201645E-14, 4.000000000000000000 ) ) ;
#328 = DIRECTION ( 'NONE',  ( 0.000000000000000000, -0.000000000000000000, 1.000000000000000000 ) ) ;
#329 = ADVANCED_FACE ( 'NONE', ( #356 ), #200, .F. ) ;
#330 = LINE ( 'NONE', #408, #65 ) ;
#331 = DIRECTION ( 'NONE',  ( 0.7071067811865580088, 0.7071067811865370256, 0.000000000000000000 ) ) ;
#332 = EDGE_LOOP ( 'NONE', ( #775, #900, #887, #700 ) ) ;
#333 = CARTESIAN_POINT ( 'NONE',  ( -10.00000000000000178, 2.500000000000000888, 0.9999999999999983347 ) ) ;
#334 = VECTOR ( 'NONE', #22, 1000.000000000000000 ) ;
#335 = DIRECTION ( 'NONE',  ( -0.7713892158398686361, -0.4499770425732603218, -0.4499770425732571577 ) ) ;
#336 = LINE ( 'NONE', #654, #783 ) ;
#337 = EDGE_LOOP ( 'NONE', ( #746, #172, #157, #383, #866, #625 ) ) ;
#338 = EDGE_CURVE ( 'NONE', #191, #463, #286, .T. ) ;
#339 = DIRECTION ( 'NONE',  ( 0.7071067811865536790, -0.7071067811865414665, 0.000000000000000000 ) ) ;
#340 = DIRECTION ( 'NONE',  ( 0.2810846377148177866, 0.6785983445458475538, 0.6785983445458475538 ) ) ;
#341 = VERTEX_POINT ( 'NONE', #826 ) ;
#342 = EDGE_CURVE ( 'NONE', #646, #18, #214, .T. ) ;
#343 = EDGE_CURVE ( 'NONE', #691, #1001, #138, .T. ) ;
#344 = CARTESIAN_POINT ( 'NONE',  ( -4.457106781186420896, 4.457106781186529254, 0.000000000000000000 ) ) ;
#345 = PLANE ( 'NONE',  #852 ) ;
#346 = DIRECTION ( 'NONE',  ( -0.5038710255240866909, 0.000000000000000000, 0.8637789008984332328 ) ) ;
#347 = ORIENTED_EDGE ( 'NONE', *, *, #24, .F. ) ;
#348 = FACE_OUTER_BOUND ( 'NONE', #308, .T. ) ;
#349 = AXIS2_PLACEMENT_3D ( 'NONE', #735, #580, #252 ) ;
#350 = CARTESIAN_POINT ( 'NONE',  ( -4.457106781186420896, -4.457106781186528366, 0.000000000000000000 ) ) ;
#351 = VECTOR ( 'NONE', #991, 1000.000000000000114 ) ;
#352 = VECTOR ( 'NONE', #228, 1000.000000000000000 ) ;
#353 = DIRECTION ( 'NONE',  ( 0.7071067811865561215, 0.7071067811865389130, 0.000000000000000000 ) ) ;
#354 = ORIENTED_EDGE ( 'NONE', *, *, #113, .F. ) ;
#355 = SURFACE_SIDE_STYLE ('',( #829 ) ) ;
#356 = FACE_OUTER_BOUND ( 'NONE', #141, .T. ) ;
#357 = ORIENTED_EDGE ( 'NONE', *, *, #616, .T. ) ;
#358 = ORIENTED_EDGE ( 'NONE', *, *, #359, .F. ) ;
#359 = EDGE_CURVE ( 'NONE', #995, #123, #428, .T. ) ;
#360 = DIRECTION ( 'NONE',  ( 0.7071067811865561215, -0.7071067811865390240, 0.000000000000000000 ) ) ;
#361 = ORIENTED_EDGE ( 'NONE', *, *, #240, .T. ) ;
#362 = CARTESIAN_POINT ( 'NONE',  ( 15.00000000000000178, 7.499999999999854339, 3.500000000000003109 ) ) ;
#363 = DIRECTION ( 'NONE',  ( 0.000000000000000000, 1.000000000000000000, 0.000000000000000000 ) ) ;
#364 = AXIS2_PLACEMENT_3D ( 'NONE', #193, #184, #657 ) ;
#365 = VECTOR ( 'NONE', #894, 1000.000000000000000 ) ;
#366 = VECTOR ( 'NONE', #933, 1000.000000000000000 ) ;
#367 = EDGE_LOOP ( 'NONE', ( #682, #87, #461, #917, #937, #226 ) ) ;
#368 = ORIENTED_EDGE ( 'NONE', *, *, #493, .T. ) ;
#369 = LINE ( 'NONE', #939, #918 ) ;
#370 = DIRECTION ( 'NONE',  ( 0.2810846377148153996, 0.6785983445458481089, -0.6785983445458481089 ) ) ;
#371 = ORIENTED_EDGE ( 'NONE', *, *, #301, .T. ) ;
#372 = DIRECTION ( 'NONE',  ( -0.2810846377148134012, 0.6785983445458507735, 0.6785983445458461105 ) ) ;
#373 = EDGE_CURVE ( 'NONE', #761, #689, #284, .T. ) ;
#374 = ORIENTED_EDGE ( 'NONE', *, *, #857, .T. ) ;
#375 = ORIENTED_EDGE ( 'NONE', *, *, #137, .F. ) ;
#376 = LINE ( 'NONE', #459, #148 ) ;
#377 = ORIENTED_EDGE ( 'NONE', *, *, #884, .T. ) ;
#378 = ADVANCED_FACE ( 'NONE', ( #955 ), #475, .F. ) ;
#379 = ORIENTED_EDGE ( 'NONE', *, *, #338, .T. ) ;
#380 = EDGE_LOOP ( 'NONE', ( #609, #670, #58, #596 ) ) ;
#381 = LINE ( 'NONE', #840, #131 ) ;
#382 = EDGE_CURVE ( 'NONE', #176, #96, #229, .T. ) ;
#383 = ORIENTED_EDGE ( 'NONE', *, *, #803, .F. ) ;
#384 = AXIS2_PLACEMENT_3D ( 'NONE', #287, #298, #666 ) ;
#385 = ORIENTED_EDGE ( 'NONE', *, *, #247, .T. ) ;
#386 = DIRECTION ( 'NONE',  ( 0.000000000000000000, 0.7071067811865451302, 0.7071067811865500152 ) ) ;
#387 = AXIS2_PLACEMENT_3D ( 'NONE', #178, #960, #627 ) ;
#388 = ORIENTED_EDGE ( 'NONE', *, *, #561, .F. ) ;
#389 = DIRECTION ( 'NONE',  ( 1.000000000000000000, 0.000000000000000000, 0.000000000000000000 ) ) ;
#390 = ORIENTED_EDGE ( 'NONE', *, *, #664, .T. ) ;
#391 = DIRECTION ( 'NONE',  ( 0.4999999999999940603, -0.5000000000000063283, 0.7071067811865473507 ) ) ;
#392 = LINE ( 'NONE', #873, #901 ) ;
#393 = EDGE_CURVE ( 'NONE', #96, #676, #306, .T. ) ;
#394 = DIRECTION ( 'NONE',  ( -1.000000000000000000, 0.000000000000000000, 0.000000000000000000 ) ) ;
#395 = ORIENTED_EDGE ( 'NONE', *, *, #557, .F. ) ;
#396 = DIRECTION ( 'NONE',  ( -0.7071067811865561215, -0.7071067811865389130, 0.000000000000000000 ) ) ;
#397 = CARTESIAN_POINT ( 'NONE',  ( -3.749999999999880984, -3.749999999999970690, 4.000000000000000000 ) ) ;
#398 = LINE ( 'NONE', #711, #869 ) ;
#399 = ORIENTED_EDGE ( 'NONE', *, *, #170, .F. ) ;
#400 = VECTOR ( 'NONE', #809, 1000.000000000000227 ) ;
#401 = CARTESIAN_POINT ( 'NONE',  ( -7.499999999999983125, -2.000000000000000000, -5.258963000879180782 ) ) ;
#402 = STYLED_ITEM ( 'NONE', ( #39 ), #628 ) ;
#403 = LINE ( 'NONE', #951, #851 ) ;
#404 = PLANE ( 'NONE',  #649 ) ;
#405 = DIRECTION ( 'NONE',  ( -0.2810846377148160102, 0.6785983445458502183, -0.6785983445458455554 ) ) ;
#406 = EDGE_CURVE ( 'NONE', #144, #926, #639, .T. ) ;
#407 = DIRECTION ( 'NONE',  ( 0.000000000000000000, -1.000000000000000000, 0.000000000000000000 ) ) ;
#408 = CARTESIAN_POINT ( 'NONE',  ( -12.55933070419716380, 1.607703084805185201, 5.940669295802836203 ) ) ;
#409 = DIRECTION ( 'NONE',  ( 1.000000000000000000, 0.000000000000000000, 0.000000000000000000 ) ) ;
#410 = ORIENTED_EDGE ( 'NONE', *, *, #797, .F. ) ;
#411 = DIRECTION ( 'NONE',  ( 0.7071067811865536790, -0.7071067811865414665, 0.000000000000000000 ) ) ;
#412 = DIRECTION ( 'NONE',  ( -0.000000000000000000, -0.000000000000000000, -1.000000000000000000 ) ) ;
#413 = LINE ( 'NONE', #867, #903 ) ;
#414 = DIRECTION ( 'NONE',  ( 0.000000000000000000, -1.000000000000000000, 0.000000000000000000 ) ) ;
#415 = CARTESIAN_POINT ( 'NONE',  ( -3.749999999999880984, -3.749999999999970690, 0.9999999999999983347 ) ) ;
#416 = CARTESIAN_POINT ( 'NONE',  ( -4.207106781186545241, -1.499999999999996225, 0.000000000000000000 ) ) ;
#417 = AXIS2_PLACEMENT_3D ( 'NONE', #669, #292, #993 ) ;
#418 = VECTOR ( 'NONE', #677, 1000.000000000000114 ) ;
#419 = EDGE_CURVE ( 'NONE', #18, #75, #25, .T. ) ;
#420 = CARTESIAN_POINT ( 'NONE',  ( -8.207106781186530142, 2.000000000000000000, -4.707106781186547018 ) ) ;
#421 = FACE_OUTER_BOUND ( 'NONE', #1000, .T. ) ;
#422 = ORIENTED_EDGE ( 'NONE', *, *, #897, .T. ) ;
#423 = DIRECTION ( 'NONE',  ( 0.000000000000000000, -1.000000000000000000, 0.000000000000000000 ) ) ;
#424 = DIRECTION ( 'NONE',  ( -0.000000000000000000, 1.000000000000000000, 0.000000000000000000 ) ) ;
#425 = FACE_OUTER_BOUND ( 'NONE', #582, .T. ) ;
#426 = DIRECTION ( 'NONE',  ( 0.3574067443365980257, 0.8628562094610129352, 0.3574067443365979702 ) ) ;
#427 = ORIENTED_EDGE ( 'NONE', *, *, #205, .F. ) ;
#428 = LINE ( 'NONE', #680, #243 ) ;
#429 = DIRECTION ( 'NONE',  ( 0.3574067443365982477, 0.8628562094610137123, -0.3574067443365957497 ) ) ;
#430 = LINE ( 'NONE', #57, #486 ) ;
#431 = AXIS2_PLACEMENT_3D ( 'NONE', #747, #902, #967 ) ;
#432 = CIRCLE ( 'NONE', #196, 1.000000000000000000 ) ;
#433 = VERTEX_POINT ( 'NONE', #944 ) ;
#434 = ADVANCED_FACE ( 'NONE', ( #570 ), #173, .T. ) ;
#435 = CARTESIAN_POINT ( 'NONE',  ( -9.400657834237854615, -3.946939985085068159, 2.053060014914935394 ) ) ;
#436 = EDGE_LOOP ( 'NONE', ( #307, #216, #460, #379 ) ) ;
#437 = ORIENTED_EDGE ( 'NONE', *, *, #471, .T. ) ;
#438 = CARTESIAN_POINT ( 'NONE',  ( 3.749999999999910738, 3.749999999999976463, 3.500000000000002665 ) ) ;
#439 = LINE ( 'NONE', #435, #319 ) ;
#440 = EDGE_CURVE ( 'NONE', #1004, #676, #772, .T. ) ;
#441 = LINE ( 'NONE', #906, #519 ) ;
#442 = VERTEX_POINT ( 'NONE', #183 ) ;
#443 = ORIENTED_EDGE ( 'NONE', *, *, #914, .T. ) ;
#444 = PLANE ( 'NONE',  #523 ) ;
#445 = EDGE_LOOP ( 'NONE', ( #268, #427, #678, #737 ) ) ;
#446 = DIRECTION ( 'NONE',  ( 0.000000000000000000, 0.000000000000000000, 1.000000000000000000 ) ) ;
#447 = ORIENTED_EDGE ( 'NONE', *, *, #929, .T. ) ;
#448 = EDGE_CURVE ( 'NONE', #676, #537, #584, .T. ) ;
#449 = AXIS2_PLACEMENT_3D ( 'NONE', #201, #681, #524 ) ;
#450 = VECTOR ( 'NONE', #426, 1000.000000000000000 ) ;
#451 = ORIENTED_EDGE ( 'NONE', *, *, #373, .F. ) ;
#452 = ORIENTED_EDGE ( 'NONE', *, *, #726, .T. ) ;
#453 = PLANE ( 'NONE',  #69 ) ;
#454 = LINE ( 'NONE', #907, #99 ) ;
#455 = ORIENTED_EDGE ( 'NONE', *, *, #481, .F. ) ;
#456 = ORIENTED_EDGE ( 'NONE', *, *, #43, .F. ) ;
#457 = ORIENTED_EDGE ( 'NONE', *, *, #807, .T. ) ;
#458 = PRODUCT_DEFINITION_CONTEXT ( 'detailed design', #611, 'design' ) ;
#459 = CARTESIAN_POINT ( 'NONE',  ( -9.591401404068403025, 3.486444271864700184, 1.986444271864690858 ) ) ;
#460 = ORIENTED_EDGE ( 'NONE', *, *, #301, .F. ) ;
#461 = ORIENTED_EDGE ( 'NONE', *, *, #839, .T. ) ;
#462 = DIRECTION ( 'NONE',  ( -0.000000000000000000, 1.000000000000000000, -0.000000000000000000 ) ) ;
#463 = VERTEX_POINT ( 'NONE', #246 ) ;
#464 = ADVANCED_BREP_SHAPE_REPRESENTATION ( 'clip', ( #628, #101 ), #37 ) ;
#465 = ADVANCED_FACE ( 'NONE', ( #251 ), #255, .T. ) ;
#466 = CARTESIAN_POINT ( 'NONE',  ( -2.999999999999999112, 2.000000000000000000, 0.5000000000000013323 ) ) ;
#467 = VECTOR ( 'NONE', #805, 1000.000000000000000 ) ;
#468 = EDGE_LOOP ( 'NONE', ( #915, #871, #838, #7, #621, #361 ) ) ;
#469 = CARTESIAN_POINT ( 'NONE',  ( 10.69834372669544997, -0.8140491038136511426, 5.185950896186352743 ) ) ;
#470 = VECTOR ( 'NONE', #340, 1000.000000000000000 ) ;
#471 = EDGE_CURVE ( 'NONE', #564, #75, #565, .T. ) ;
#472 = DIRECTION ( 'NONE',  ( -0.000000000000000000, -0.7071067811865475727, 0.7071067811865475727 ) ) ;
#473 = ORIENTED_EDGE ( 'NONE', *, *, #187, .F. ) ;
#474 = LINE ( 'NONE', #469, #470 ) ;
#475 = PLANE ( 'NONE',  #732 ) ;
#476 = CARTESIAN_POINT ( 'NONE',  ( -7.999999999999968914, 3.000000000000019984, -4.499999999999984901 ) ) ;
#477 = PRODUCT ( 'clip', 'clip', '', ( #943 ) ) ;
#478 = ORIENTED_EDGE ( 'NONE', *, *, #217, .T. ) ;
#479 = CARTESIAN_POINT ( 'NONE',  ( -7.499999999999983125, -2.000000000000000000, -5.258963000879180782 ) ) ;
#480 = DIRECTION ( 'NONE',  ( -0.4999999999999946709, -0.5000000000000033307, -0.7071067811865490160 ) ) ;
#481 = EDGE_CURVE ( 'NONE', #145, #224, #392, .T. ) ;
#482 = LINE ( 'NONE', #706, #162 ) ;
#483 = LINE ( 'NONE', #350, #983 ) ;
#484 = VECTOR ( 'NONE', #209, 1000.000000000000114 ) ;
#485 = CARTESIAN_POINT ( 'NONE',  ( -8.496982605559857404, 0.000000000000000000, -5.336588281626137409 ) ) ;
#486 = VECTOR ( 'NONE', #980, 1000.000000000000000 ) ;
#487 = AXIS2_PLACEMENT_3D ( 'NONE', #740, #346, #88 ) ;
#488 = LINE ( 'NONE', #739, #161 ) ;
#489 = CARTESIAN_POINT ( 'NONE',  ( 0.000000000000000000, -2.500000000000000444, 0.9999999999999974465 ) ) ;
#490 = ORIENTED_EDGE ( 'NONE', *, *, #855, .T. ) ;
#491 = UNCERTAINTY_MEASURE_WITH_UNIT (LENGTH_MEASURE( 1.000000000000000082E-05 ), #808, 'distance_accuracy_value', 'NONE');
#492 = CARTESIAN_POINT ( 'NONE',  ( 9.999999999999998224, -2.500000000000000444, 4.000000000000000000 ) ) ;
#493 = EDGE_CURVE ( 'NONE', #96, #341, #882, .T. ) ;
#494 = CARTESIAN_POINT ( 'NONE',  ( 9.999999999999998224, 2.499999999999999112, 0.9999999999999985567 ) ) ;
#495 = DIRECTION ( 'NONE',  ( 1.000000000000000000, 0.000000000000000000, 0.000000000000000000 ) ) ;
#496 = DIRECTION ( 'NONE',  ( 1.387778780781468947E-15, 1.000000000000000000, 0.000000000000000000 ) ) ;
#497 = DIRECTION ( 'NONE',  ( 0.7071067811865580088, 0.7071067811865370256, 0.000000000000000000 ) ) ;
#498 = PLANE ( 'NONE',  #782 ) ;
#499 = DIRECTION ( 'NONE',  ( 0.7071067811865451302, -9.813077866773726618E-16, -0.7071067811865500152 ) ) ;
#500 = CARTESIAN_POINT ( 'NONE',  ( -13.99999999999999289, 5.085786437626812706, 0.000000000000000000 ) ) ;
#501 = VERTEX_POINT ( 'NONE', #104 ) ;
#502 = PLANE ( 'NONE',  #82 ) ;
#503 = VECTOR ( 'NONE', #26, 1000.000000000000000 ) ;
#504 = VECTOR ( 'NONE', #291, 999.9999999999998863 ) ;
#505 = LINE ( 'NONE', #420, #945 ) ;
#506 = PLANE ( 'NONE',  #572 ) ;
#507 = CARTESIAN_POINT ( 'NONE',  ( -6.996128974475893436, 2.000000000000000000, -6.122741901777613016 ) ) ;
#508 = DIRECTION ( 'NONE',  ( 1.000000000000000000, -0.000000000000000000, 0.000000000000000000 ) ) ;
#509 = ORIENTED_EDGE ( 'NONE', *, *, #914, .F. ) ;
#510 = CARTESIAN_POINT ( 'NONE',  ( -10.00000000000000355, 2.500000000000000888, 3.500000000000002665 ) ) ;
#511 = CARTESIAN_POINT ( 'NONE',  ( 4.357142857142860315, 2.000000000000000000, 0.5000000000000012212 ) ) ;
#512 = PLANE ( 'NONE',  #431 ) ;
#513 = CYLINDRICAL_SURFACE ( 'NONE', #194, 1.000000000000000000 ) ;
#514 = CARTESIAN_POINT ( 'NONE',  ( 9.838055980752574925, -4.962035259477662663, -4.161944019247375337 ) ) ;
#515 = EDGE_CURVE ( 'NONE', #530, #501, #29, .T. ) ;
#516 = ADVANCED_FACE ( 'NONE', ( #642 ), #889, .F. ) ;
#517 = ORIENTED_EDGE ( 'NONE', *, *, #311, .F. ) ;
#518 = ORIENTED_EDGE ( 'NONE', *, *, #205, .T. ) ;
#519 = VECTOR ( 'NONE', #372, 1000.000000000000000 ) ;
#520 = VECTOR ( 'NONE', #715, 999.9999999999998863 ) ;
#521 = LINE ( 'NONE', #836, #748 ) ;
#522 = VECTOR ( 'NONE', #370, 1000.000000000000114 ) ;
#523 = AXIS2_PLACEMENT_3D ( 'NONE', #763, #67, #80 ) ;
#524 = DIRECTION ( 'NONE',  ( 0.7071067811865561215, -0.7071067811865390240, 0.000000000000000000 ) ) ;
#525 = ORIENTED_EDGE ( 'NONE', *, *, #316, .T. ) ;
#526 = LINE ( 'NONE', #936, #650 ) ;
#527 = EDGE_CURVE ( 'NONE', #145, #463, #767, .T. ) ;
#528 = CARTESIAN_POINT ( 'NONE',  ( -14.99999999999999822, -7.499999999999872990, 3.500000000000003553 ) ) ;
#529 = CARTESIAN_POINT ( 'NONE',  ( -3.749999999999879652, 3.749999999999970246, 0.9999999999999974465 ) ) ;
#530 = VERTEX_POINT ( 'NONE', #1003 ) ;
#531 = EDGE_LOOP ( 'NONE', ( #849, #518, #768, #293 ) ) ;
#532 = CARTESIAN_POINT ( 'NONE',  ( -10.41421356237309048, -1.499999999999996225, 0.000000000000000000 ) ) ;
#533 = EDGE_CURVE ( 'NONE', #893, #117, #296, .T. ) ;
#534 = DIRECTION ( 'NONE',  ( -0.2810846377148151776, 0.6785983445458481089, 0.6785983445458481089 ) ) ;
#535 = EDGE_LOOP ( 'NONE', ( #833, #473, #232, #848 ) ) ;
#536 = ORIENTED_EDGE ( 'NONE', *, *, #979, .T. ) ;
#537 = VERTEX_POINT ( 'NONE', #223 ) ;
#538 = DIRECTION ( 'NONE',  ( 0.000000000000000000, -1.000000000000000000, 0.000000000000000000 ) ) ;
#539 = CARTESIAN_POINT ( 'NONE',  ( 3.749999999999910738, 3.749999999999976463, 4.000000000000000000 ) ) ;
#540 = ORIENTED_EDGE ( 'NONE', *, *, #905, .F. ) ;
#541 = AXIS2_PLACEMENT_3D ( 'NONE', #877, #796, #556 ) ;
#542 = ORIENTED_EDGE ( 'NONE', *, *, #956, .T. ) ;
#543 = CARTESIAN_POINT ( 'NONE',  ( -3.749999999999879652, 3.749999999999970246, 0.9999999999999978906 ) ) ;
#544 = ORIENTED_EDGE ( 'NONE', *, *, #979, .F. ) ;
#545 = EDGE_LOOP ( 'NONE', ( #575, #153, #84, #707, #375, #313, #451, #443, #410 ) ) ;
#546 = FACE_OUTER_BOUND ( 'NONE', #757, .T. ) ;
#547 = ORIENTED_EDGE ( 'NONE', *, *, #726, .F. ) ;
#548 = EDGE_CURVE ( 'NONE', #564, #1001, #454, .T. ) ;
#549 = ORIENTED_EDGE ( 'NONE', *, *, #579, .F. ) ;
#550 = LINE ( 'NONE', #239, #986 ) ;
#551 = DIRECTION ( 'NONE',  ( -0.000000000000000000, -0.000000000000000000, -1.000000000000000000 ) ) ;
#552 = AXIS2_PLACEMENT_3D ( 'NONE', #479, #793, #98 ) ;
#553 = EDGE_LOOP ( 'NONE', ( #862, #395, #456, #2 ) ) ;
#554 = FACE_OUTER_BOUND ( 'NONE', #227, .T. ) ;
#555 = VECTOR ( 'NONE', #267, 1000.000000000000000 ) ;
#556 = DIRECTION ( 'NONE',  ( 0.000000000000000000, 0.000000000000000000, -1.000000000000000000 ) ) ;
#557 = EDGE_CURVE ( 'NONE', #856, #691, #122, .T. ) ;
#558 = DIRECTION ( 'NONE',  ( -0.5773502691896231775, 0.5773502691896291728, -0.5773502691896250649 ) ) ;
#559 = VERTEX_POINT ( 'NONE', #333 ) ;
#560 = DIRECTION ( 'NONE',  ( -0.000000000000000000, -1.000000000000000000, 0.000000000000000000 ) ) ;
#561 = EDGE_CURVE ( 'NONE', #995, #215, #648, .T. ) ;
#562 = CARTESIAN_POINT ( 'NONE',  ( -14.50000000000000000, -6.292893218813353506, 4.000000000000000000 ) ) ;
#563 = LINE ( 'NONE', #476, #766 ) ;
#564 = VERTEX_POINT ( 'NONE', #198 ) ;
#565 = LINE ( 'NONE', #16, #571 ) ;
#566 = CARTESIAN_POINT ( 'NONE',  ( -14.50000000000000000, -7.499999999999874767, 4.000000000000000000 ) ) ;
#567 = DIRECTION ( 'NONE',  ( 0.000000000000000000, 0.7071067811865451302, -0.7071067811865500152 ) ) ;
#568 = FACE_OUTER_BOUND ( 'NONE', #468, .T. ) ;
#569 = ADVANCED_FACE ( 'NONE', ( #978 ), #283, .T. ) ;
#570 = FACE_OUTER_BOUND ( 'NONE', #332, .T. ) ;
#571 = VECTOR ( 'NONE', #635, 1000.000000000000000 ) ;
#572 = AXIS2_PLACEMENT_3D ( 'NONE', #792, #872, #167 ) ;
#573 = CARTESIAN_POINT ( 'NONE',  ( 4.457106781186453759, 4.457106781186531030, 0.000000000000000000 ) ) ;
#574 = LINE ( 'NONE', #892, #947 ) ;
#575 = ORIENTED_EDGE ( 'NONE', *, *, #931, .T. ) ;
#576 = DIRECTION ( 'NONE',  ( 0.000000000000000000, 0.000000000000000000, -1.000000000000000000 ) ) ;
#577 = LINE ( 'NONE', #566, #503 ) ;
#578 = ORIENTED_EDGE ( 'NONE', *, *, #721, .T. ) ;
#579 = EDGE_CURVE ( 'NONE', #91, #995, #583, .T. ) ;
#580 = DIRECTION ( 'NONE',  ( 0.7071067811865487940, 0.000000000000000000, -0.7071067811865463515 ) ) ;
#581 = DIRECTION ( 'NONE',  ( 0.000000000000000000, 0.000000000000000000, 1.000000000000000000 ) ) ;
#582 = EDGE_LOOP ( 'NONE', ( #683, #778, #155, #954, #390, #385 ) ) ;
#583 = LINE ( 'NONE', #492, #179 ) ;
#584 = CIRCLE ( 'NONE', #601, 1.000000000000000000 ) ;
#585 = VECTOR ( 'NONE', #879, 1000.000000000000227 ) ;
#586 = CARTESIAN_POINT ( 'NONE',  ( 14.50000000000000178, 6.292893218813341072, 4.000000000000000000 ) ) ;
#587 = LINE ( 'NONE', #730, #832 ) ;
#588 = DIRECTION ( 'NONE',  ( -0.7071067811865561215, -0.7071067811865389130, 0.000000000000000000 ) ) ;
#589 = EDGE_CURVE ( 'NONE', #433, #317, #593, .T. ) ;
#590 = FACE_OUTER_BOUND ( 'NONE', #42, .T. ) ;
#591 = LINE ( 'NONE', #514, #484 ) ;
#592 = ORIENTED_EDGE ( 'NONE', *, *, #942, .F. ) ;
#593 = LINE ( 'NONE', #973, #365 ) ;
#594 = VERTEX_POINT ( 'NONE', #416 ) ;
#595 = CARTESIAN_POINT ( 'NONE',  ( 4.103553390593179806, 4.103553390593251748, 4.000000000000000000 ) ) ;
#596 = ORIENTED_EDGE ( 'NONE', *, *, #382, .F. ) ;
#597 = EDGE_LOOP ( 'NONE', ( #371, #437, #9, #741 ) ) ;
#598 = EDGE_LOOP ( 'NONE', ( #617, #1006, #756, #368 ) ) ;
#599 = EDGE_CURVE ( 'NONE', #341, #965, #647, .T. ) ;
#600 = AXIS2_PLACEMENT_3D ( 'NONE', #812, #824, #47 ) ;
#601 = AXIS2_PLACEMENT_3D ( 'NONE', #401, #560, #324 ) ;
#602 = CARTESIAN_POINT ( 'NONE',  ( 9.999999999999998224, 2.499999999999999556, 0.9999999999999974465 ) ) ;
#603 = ADVANCED_FACE ( 'NONE', ( #348 ), #498, .F. ) ;
#604 = ORIENTED_EDGE ( 'NONE', *, *, #919, .T. ) ;
#605 = VERTEX_POINT ( 'NONE', #271 ) ;
#606 = FACE_OUTER_BOUND ( 'NONE', #668, .T. ) ;
#607 = DIRECTION ( 'NONE',  ( 0.000000000000000000, -1.000000000000000000, 0.000000000000000000 ) ) ;
#608 = ORIENTED_EDGE ( 'NONE', *, *, #240, .F. ) ;
#609 = ORIENTED_EDGE ( 'NONE', *, *, #169, .F. ) ;
#610 = LINE ( 'NONE', #438, #366 ) ;
#611 = APPLICATION_CONTEXT ( 'automotive_design' ) ;
#612 = CARTESIAN_POINT ( 'NONE',  ( 15.00000000000000178, 7.499999999999854339, 4.000000000000000000 ) ) ;
#613 = ORIENTED_EDGE ( 'NONE', *, *, #721, .F. ) ;
#614 = ADVANCED_FACE ( 'NONE', ( #743 ), #512, .F. ) ;
#615 = LINE ( 'NONE', #10, #714 ) ;
#616 = EDGE_CURVE ( 'NONE', #18, #144, #985, .T. ) ;
#617 = ORIENTED_EDGE ( 'NONE', *, *, #126, .F. ) ;
#618 = ORIENTED_EDGE ( 'NONE', *, *, #579, .T. ) ;
#619 = LINE ( 'NONE', #996, #633 ) ;
#620 = ADVANCED_FACE ( 'NONE', ( #54 ), #502, .F. ) ;
#621 = ORIENTED_EDGE ( 'NONE', *, *, #343, .T. ) ;
#622 = LINE ( 'NONE', #218, #504 ) ;
#623 = ORIENTED_EDGE ( 'NONE', *, *, #953, .F. ) ;
#624 = LINE ( 'NONE', #237, #820 ) ;
#625 = ORIENTED_EDGE ( 'NONE', *, *, #839, .F. ) ;
#626 =( NAMED_UNIT ( * ) SI_UNIT ( $, .STERADIAN. ) SOLID_ANGLE_UNIT ( ) );
#627 = DIRECTION ( 'NONE',  ( -8.673617379884035472E-16, 0.000000000000000000, 1.000000000000000000 ) ) ;
#628 = MANIFOLD_SOLID_BREP ( 'Fillet5', #128 ) ;
#629 = VECTOR ( 'NONE', #643, 1000.000000000000000 ) ;
#630 = CARTESIAN_POINT ( 'NONE',  ( 3.500000000000000000, 2.000000000000000000, -1.285879139104720633E-15 ) ) ;
#631 = MECHANICAL_DESIGN_GEOMETRIC_PRESENTATION_REPRESENTATION (  '', ( #402 ), #68 ) ;
#632 = ORIENTED_EDGE ( 'NONE', *, *, #13, .F. ) ;
#633 = VECTOR ( 'NONE', #684, 1000.000000000000000 ) ;
#634 = EDGE_CURVE ( 'NONE', #923, #215, #738, .T. ) ;
#635 = DIRECTION ( 'NONE',  ( 0.000000000000000000, -1.000000000000000000, 0.000000000000000000 ) ) ;
#636 = LINE ( 'NONE', #494, #629 ) ;
#637 = FACE_OUTER_BOUND ( 'NONE', #53, .T. ) ;
#638 = ORIENTED_EDGE ( 'NONE', *, *, #338, .F. ) ;
#639 = LINE ( 'NONE', #720, #147 ) ;
#640 = CARTESIAN_POINT ( 'NONE',  ( 15.00000000000000178, 7.499999999999854339, 0.9999999999999983347 ) ) ;
#641 = DIRECTION ( 'NONE',  ( 1.000000000000000000, -1.387778780781468947E-15, 0.000000000000000000 ) ) ;
#642 = FACE_OUTER_BOUND ( 'NONE', #436, .T. ) ;
#643 = DIRECTION ( 'NONE',  ( -0.7071067811865580088, -0.7071067811865370256, -0.000000000000000000 ) ) ;
#644 = LINE ( 'NONE', #891, #555 ) ;
#645 = DIRECTION ( 'NONE',  ( -0.000000000000000000, 0.000000000000000000, 1.000000000000000000 ) ) ;
#646 = VERTEX_POINT ( 'NONE', #90 ) ;
#647 = CIRCLE ( 'NONE', #886, 1.000000000000000000 ) ;
#648 = LINE ( 'NONE', #192, #276 ) ;
#649 = AXIS2_PLACEMENT_3D ( 'NONE', #800, #253, #31 ) ;
#650 = VECTOR ( 'NONE', #1002, 1000.000000000000000 ) ;
#651 = CARTESIAN_POINT ( 'NONE',  ( -14.99999999999999645, 7.499999999999874767, 3.500000000000003109 ) ) ;
#652 = ADVANCED_FACE ( 'NONE', ( #941 ), #958, .T. ) ;
#653 = CARTESIAN_POINT ( 'NONE',  ( 0.000000000000000000, 0.000000000000000000, 0.000000000000000000 ) ) ;
#654 = CARTESIAN_POINT ( 'NONE',  ( 3.500000000000000000, -2.000000000000000000, -1.285879139104720633E-15 ) ) ;
#655 = ORIENTED_EDGE ( 'NONE', *, *, #126, .T. ) ;
#656 = DIRECTION ( 'NONE',  ( -0.000000000000000000, -0.000000000000000000, -1.000000000000000000 ) ) ;
#657 = DIRECTION ( 'NONE',  ( 0.000000000000000000, 0.000000000000000000, 1.000000000000000000 ) ) ;
#658 = FACE_OUTER_BOUND ( 'NONE', #752, .T. ) ;
#659 = ORIENTED_EDGE ( 'NONE', *, *, #113, .T. ) ;
#660 = CARTESIAN_POINT ( 'NONE',  ( 0.000000000000000000, 2.499999999999999556, 3.500000000000003109 ) ) ;
#661 = CARTESIAN_POINT ( 'NONE',  ( 0.000000000000000000, 2.000000000000000000, 0.000000000000000000 ) ) ;
#662 = CARTESIAN_POINT ( 'NONE',  ( -14.99999999999999822, 7.499999999999874767, 3.500000000000003109 ) ) ;
#663 = DIRECTION ( 'NONE',  ( 0.000000000000000000, -0.7071067811865475727, -0.7071067811865475727 ) ) ;
#664 = EDGE_CURVE ( 'NONE', #501, #123, #482, .T. ) ;
#665 = LINE ( 'NONE', #831, #868 ) ;
#666 = DIRECTION ( 'NONE',  ( 1.000000000000000000, 0.000000000000000000, 0.000000000000000000 ) ) ;
#667 = ORIENTED_EDGE ( 'NONE', *, *, #273, .T. ) ;
#668 = EDGE_LOOP ( 'NONE', ( #285, #107, #4, #61 ) ) ;
#669 = CARTESIAN_POINT ( 'NONE',  ( -3.749999999999880984, -3.749999999999970690, 0.9999999999999974465 ) ) ;
#670 = ORIENTED_EDGE ( 'NONE', *, *, #599, .F. ) ;
#671 = ORIENTED_EDGE ( 'NONE', *, *, #533, .T. ) ;
#672 = CARTESIAN_POINT ( 'NONE',  ( -3.000000000000000888, -2.000000000000000000, 0.5000000000000004441 ) ) ;
#673 = CARTESIAN_POINT ( 'NONE',  ( 3.500000000000000000, 1.499999999999995337, -1.285879139104720633E-15 ) ) ;
#674 = EDGE_CURVE ( 'NONE', #317, #922, #563, .T. ) ;
#675 = ORIENTED_EDGE ( 'NONE', *, *, #342, .F. ) ;
#676 = VERTEX_POINT ( 'NONE', #102 ) ;
#677 = DIRECTION ( 'NONE',  ( 0.7071067811865561215, 0.7071067811865389130, 0.000000000000000000 ) ) ;
#678 = ORIENTED_EDGE ( 'NONE', *, *, #217, .F. ) ;
#679 = AXIS2_PLACEMENT_3D ( 'NONE', #989, #264, #576 ) ;
#680 = CARTESIAN_POINT ( 'NONE',  ( 11.07983086635653969, 0.1069423226271086769, -1.606942322627092690 ) ) ;
#681 = DIRECTION ( 'NONE',  ( 0.4999999999999941158, 0.5000000000000062172, 0.7071067811865474617 ) ) ;
#682 = ORIENTED_EDGE ( 'NONE', *, *, #884, .F. ) ;
#683 = ORIENTED_EDGE ( 'NONE', *, *, #716, .F. ) ;
#684 = DIRECTION ( 'NONE',  ( -1.000000000000000000, 0.000000000000000000, 0.000000000000000000 ) ) ;
#685 = ADVANCED_FACE ( 'NONE', ( #875 ), #404, .F. ) ;
#686 = DIRECTION ( 'NONE',  ( -0.7071067811865390240, -0.7071067811865561215, 0.000000000000000000 ) ) ;
#687 = FACE_OUTER_BOUND ( 'NONE', #694, .T. ) ;
#688 = PLANE ( 'NONE',  #85 ) ;
#689 = VERTEX_POINT ( 'NONE', #466 ) ;
#690 = ORIENTED_EDGE ( 'NONE', *, *, #807, .F. ) ;
#691 = VERTEX_POINT ( 'NONE', #865 ) ;
#692 = LINE ( 'NONE', #72, #352 ) ;
#693 = EDGE_CURVE ( 'NONE', #245, #559, #106, .T. ) ;
#694 = EDGE_LOOP ( 'NONE', ( #302, #638, #770, #455 ) ) ;
#695 = VECTOR ( 'NONE', #497, 1000.000000000000000 ) ;
#696 = VECTOR ( 'NONE', #275, 1000.000000000000000 ) ;
#697 = AXIS2_PLACEMENT_3D ( 'NONE', #823, #391, #396 ) ;
#698 = VERTEX_POINT ( 'NONE', #948 ) ;
#699 = CARTESIAN_POINT ( 'NONE',  ( 0.000000000000000000, -2.500000000000000444, 0.9999999999999974465 ) ) ;
#700 = ORIENTED_EDGE ( 'NONE', *, *, #448, .F. ) ;
#701 = ADVANCED_FACE ( 'NONE', ( #723 ), #784, .T. ) ;
#702 = DIRECTION ( 'NONE',  ( 0.000000000000000000, 1.000000000000000000, 0.000000000000000000 ) ) ;
#703 = ORIENTED_EDGE ( 'NONE', *, *, #527, .F. ) ;
#704 = CARTESIAN_POINT ( 'NONE',  ( 0.000000000000000000, -2.500000000000000444, 4.000000000000000000 ) ) ;
#705 = EDGE_CURVE ( 'NONE', #594, #856, #86, .T. ) ;
#706 = CARTESIAN_POINT ( 'NONE',  ( 10.70710678118654080, -1.792893218813446099, 0.000000000000000000 ) ) ;
#707 = ORIENTED_EDGE ( 'NONE', *, *, #272, .F. ) ;
#708 = LINE ( 'NONE', #190, #935 ) ;
#709 = DIRECTION ( 'NONE',  ( -1.387778780781468947E-15, -1.000000000000000000, 0.000000000000000000 ) ) ;
#710 = VECTOR ( 'NONE', #412, 1000.000000000000000 ) ;
#711 = CARTESIAN_POINT ( 'NONE',  ( 3.749999999999851230, -3.749999999999962697, 3.500000000000004441 ) ) ;
#712 = VECTOR ( 'NONE', #987, 1000.000000000000000 ) ;
#713 = VERTEX_POINT ( 'NONE', #14 ) ;
#714 = VECTOR ( 'NONE', #860, 999.9999999999998863 ) ;
#715 = DIRECTION ( 'NONE',  ( 0.5773502691896231775, 0.5773502691896291728, 0.5773502691896250649 ) ) ;
#716 = EDGE_CURVE ( 'NONE', #76, #764, #158, .T. ) ;
#717 = DIRECTION ( 'NONE',  ( 0.000000000000000000, 1.000000000000000000, -0.000000000000000000 ) ) ;
#718 = DIRECTION ( 'NONE',  ( -1.000000000000000000, 0.000000000000000000, -0.000000000000000000 ) ) ;
#719 = FACE_OUTER_BOUND ( 'NONE', #531, .T. ) ;
#720 = CARTESIAN_POINT ( 'NONE',  ( -10.35355339059327129, -2.146446609406724715, 4.000000000000000000 ) ) ;
#721 = EDGE_CURVE ( 'NONE', #250, #893, #398, .T. ) ;
#722 = DIRECTION ( 'NONE',  ( 0.3574067443365979146, -0.8628562094610129352, 0.3574067443365979702 ) ) ;
#723 = FACE_OUTER_BOUND ( 'NONE', #545, .T. ) ;
#724 = PLANE ( 'NONE',  #600 ) ;
#725 = DIRECTION ( 'NONE',  ( -0.7071067811865475727, 9.813077866773760145E-16, -0.7071067811865475727 ) ) ;
#726 = EDGE_CURVE ( 'NONE', #698, #995, #322, .T. ) ;
#727 = LINE ( 'NONE', #33, #710 ) ;
#728 = APPLICATION_PROTOCOL_DEFINITION ( 'draft international standard', 'automotive_design', 1998, #789 ) ;
#729 = CARTESIAN_POINT ( 'NONE',  ( 9.999999999999998224, 1.499999999999995337, 0.000000000000000000 ) ) ;
#730 = CARTESIAN_POINT ( 'NONE',  ( -9.209914264407309759, -4.407435698305443239, 2.907435698305427252 ) ) ;
#731 = ADVANCED_FACE ( 'NONE', ( #637 ), #249, .T. ) ;
#732 = AXIS2_PLACEMENT_3D ( 'NONE', #704, #318, #328 ) ;
#733 = DIRECTION ( 'NONE',  ( 0.000000000000000000, 1.000000000000000000, -0.000000000000000000 ) ) ;
#734 = PRODUCT_DEFINITION_FORMATION_WITH_SPECIFIED_SOURCE ( 'ANY', '', #477, .NOT_KNOWN. ) ;
#735 = CARTESIAN_POINT ( 'NONE',  ( -8.499999999999984013, 2.000000000000000000, -5.000000000000000000 ) ) ;
#736 =( NAMED_UNIT ( * ) PLANE_ANGLE_UNIT ( ) SI_UNIT ( $, .RADIAN. ) );
#737 = ORIENTED_EDGE ( 'NONE', *, *, #515, .F. ) ;
#738 = LINE ( 'NONE', #44, #467 ) ;
#739 = CARTESIAN_POINT ( 'NONE',  ( 3.673553719008267215, 1.601239669421484102, 0.1012396694214880849 ) ) ;
#740 = CARTESIAN_POINT ( 'NONE',  ( 3.500000000000000000, 2.000000000000000000, -1.285879139104720633E-15 ) ) ;
#741 = ORIENTED_EDGE ( 'NONE', *, *, #13, .T. ) ;
#742 = EDGE_CURVE ( 'NONE', #71, #3, #312, .T. ) ;
#743 = FACE_OUTER_BOUND ( 'NONE', #78, .T. ) ;
#744 = DIRECTION ( 'NONE',  ( 0.2810846377148158437, 0.6785983445458503294, -0.6785983445458455554 ) ) ;
#745 = CARTESIAN_POINT ( 'NONE',  ( 10.20710678118653547, 2.000000000000002665, 4.000000000000000000 ) ) ;
#746 = ORIENTED_EDGE ( 'NONE', *, *, #382, .T. ) ;
#747 = CARTESIAN_POINT ( 'NONE',  ( -3.749999999999879652, 3.749999999999970246, 4.000000000000000000 ) ) ;
#748 = VECTOR ( 'NONE', #912, 1000.000000000000000 ) ;
#749 = VECTOR ( 'NONE', #496, 1000.000000000000000 ) ;
#750 = LINE ( 'NONE', #595, #696 ) ;
#751 = CARTESIAN_POINT ( 'NONE',  ( -8.496982605559857404, -2.000000000000000000, -5.336588281626137409 ) ) ;
#752 = EDGE_LOOP ( 'NONE', ( #762, #604, #854, #959, #843, #542 ) ) ;
#753 = ORIENTED_EDGE ( 'NONE', *, *, #199, .F. ) ;
#754 = DIRECTION ( 'NONE',  ( 0.7071067811865580088, 0.7071067811865370256, 0.000000000000000000 ) ) ;
#755 = DIRECTION ( 'NONE',  ( -0.4999999999999924505, 0.5000000000000046629, 0.7071067811865496822 ) ) ;
#756 = ORIENTED_EDGE ( 'NONE', *, *, #393, .F. ) ;
#757 = EDGE_LOOP ( 'NONE', ( #938, #304, #358, #547, #282, #212, #374, #140, #303 ) ) ;
#758 = DIRECTION ( 'NONE',  ( 0.000000000000000000, -0.000000000000000000, 1.000000000000000000 ) ) ;
#759 = EDGE_CURVE ( 'NONE', #250, #245, #624, .T. ) ;
#760 = DIRECTION ( 'NONE',  ( 1.000000000000000000, 0.000000000000000000, 0.000000000000000000 ) ) ;
#761 = VERTEX_POINT ( 'NONE', #870 ) ;
#762 = ORIENTED_EDGE ( 'NONE', *, *, #803, .T. ) ;
#763 = CARTESIAN_POINT ( 'NONE',  ( 3.749999999999910738, 3.749999999999976463, 3.500000000000003109 ) ) ;
#764 = VERTEX_POINT ( 'NONE', #165 ) ;
#765 = VECTOR ( 'NONE', #321, 1000.000000000000000 ) ;
#766 = VECTOR ( 'NONE', #558, 999.9999999999998863 ) ;
#767 = LINE ( 'NONE', #70, #522 ) ;
#768 = ORIENTED_EDGE ( 'NONE', *, *, #533, .F. ) ;
#769 = VECTOR ( 'NONE', #36, 1000.000000000000000 ) ;
#770 = ORIENTED_EDGE ( 'NONE', *, *, #177, .T. ) ;
#771 = CARTESIAN_POINT ( 'NONE',  ( -10.20710678118654613, -2.000000000000003553, 4.000000000000000000 ) ) ;
#772 = LINE ( 'NONE', #242, #129 ) ;
#773 = ORIENTED_EDGE ( 'NONE', *, *, #265, .T. ) ;
#774 = ADVANCED_FACE ( 'NONE', ( #175 ), #315, .T. ) ;
#775 = ORIENTED_EDGE ( 'NONE', *, *, #440, .F. ) ;
#776 = DIRECTION ( 'NONE',  ( 1.000000000000000000, -0.000000000000000000, 0.000000000000000000 ) ) ;
#777 = EDGE_LOOP ( 'NONE', ( #659, #452, #549, #447 ) ) ;
#778 = ORIENTED_EDGE ( 'NONE', *, *, #272, .T. ) ;
#779 = PLANE ( 'NONE',  #277 ) ;
#780 = CIRCLE ( 'NONE', #274, 1.000000000000000000 ) ;
#781 = EDGE_LOOP ( 'NONE', ( #23, #753, #299, #347 ) ) ;
#782 = AXIS2_PLACEMENT_3D ( 'NONE', #660, #663, #508 ) ;
#783 = VECTOR ( 'NONE', #970, 1000.000000000000227 ) ;
#784 = PLANE ( 'NONE',  #8 ) ;
#785 = ORIENTED_EDGE ( 'NONE', *, *, #311, .T. ) ;
#786 = PLANE ( 'NONE',  #487 ) ;
#787 = EDGE_CURVE ( 'NONE', #206, #323, #794, .T. ) ;
#788 = EDGE_CURVE ( 'NONE', #442, #594, #185, .T. ) ;
#789 = APPLICATION_CONTEXT ( 'automotive_design' ) ;
#790 = DIRECTION ( 'NONE',  ( -1.000000000000000000, 0.000000000000000000, -0.000000000000000000 ) ) ;
#791 = ORIENTED_EDGE ( 'NONE', *, *, #41, .F. ) ;
#792 = CARTESIAN_POINT ( 'NONE',  ( -4.207106781186545241, 0.000000000000000000, 0.000000000000000000 ) ) ;
#793 = DIRECTION ( 'NONE',  ( -0.000000000000000000, -1.000000000000000000, 0.000000000000000000 ) ) ;
#794 = LINE ( 'NONE', #95, #749 ) ;
#795 = ORIENTED_EDGE ( 'NONE', *, *, #974, .T. ) ;
#796 = DIRECTION ( 'NONE',  ( 0.000000000000000000, -1.000000000000000000, 0.000000000000000000 ) ) ;
#797 = EDGE_CURVE ( 'NONE', #605, #442, #811, .T. ) ;
#798 = CARTESIAN_POINT ( 'NONE',  ( 10.20710678118654080, -2.000000000000003553, 4.000000000000000000 ) ) ;
#799 = AXIS2_PLACEMENT_3D ( 'NONE', #327, #641, #254 ) ;
#800 = CARTESIAN_POINT ( 'NONE',  ( -14.99999999999999822, 0.000000000000000000, 4.000000000000000000 ) ) ;
#801 = DIRECTION ( 'NONE',  ( -0.7071067811865561215, 0.7071067811865390240, -0.000000000000000000 ) ) ;
#802 = DIRECTION ( 'NONE',  ( 0.7071067811865536790, -0.7071067811865414665, 0.000000000000000000 ) ) ;
#803 = EDGE_CURVE ( 'NONE', #433, #537, #336, .T. ) ;
#804 = DIRECTION ( 'NONE',  ( -0.7071067811865580088, -0.7071067811865370256, 0.000000000000000000 ) ) ;
#805 = DIRECTION ( 'NONE',  ( -0.000000000000000000, -0.000000000000000000, -1.000000000000000000 ) ) ;
#806 = CARTESIAN_POINT ( 'NONE',  ( 15.70710678118654080, 6.792893218813293110, 0.000000000000000000 ) ) ;
#807 = EDGE_CURVE ( 'NONE', #79, #250, #574, .T. ) ;
#808 =( LENGTH_UNIT ( ) NAMED_UNIT ( * ) SI_UNIT ( .MILLI., .METRE. ) );
#809 = DIRECTION ( 'NONE',  ( 0.3574067443365965269, -0.8628562094610144895, 0.3574067443365952501 ) ) ;
#810 = PLANE ( 'NONE',  #697 ) ;
#811 = LINE ( 'NONE', #729, #769 ) ;
#812 = CARTESIAN_POINT ( 'NONE',  ( 0.000000000000000000, 0.000000000000000000, 0.000000000000000000 ) ) ;
#813 =( NAMED_UNIT ( * ) SI_UNIT ( $, .STERADIAN. ) SOLID_ANGLE_UNIT ( ) );
#814 = LINE ( 'NONE', #258, #400 ) ;
#815 = CARTESIAN_POINT ( 'NONE',  ( 9.999999999999998224, -2.500000000000000444, 0.9999999999999974465 ) ) ;
#816 = ORIENTED_EDGE ( 'NONE', *, *, #742, .T. ) ;
#817 = AXIS2_PLACEMENT_3D ( 'NONE', #573, #480, #339 ) ;
#818 = AXIS2_PLACEMENT_3D ( 'NONE', #539, #853, #802 ) ;
#819 = CARTESIAN_POINT ( 'NONE',  ( -7.499999999999983125, 2.000000000000000000, -5.414213562373094035 ) ) ;
#820 = VECTOR ( 'NONE', #551, 1000.000000000000000 ) ;
#821 = ADVANCED_FACE ( 'NONE', ( #546 ), #453, .F. ) ;
#822 = FACE_OUTER_BOUND ( 'NONE', #337, .T. ) ;
#823 = CARTESIAN_POINT ( 'NONE',  ( -4.103553390593146943, 4.103553390593246419, 4.000000000000000000 ) ) ;
#824 = DIRECTION ( 'NONE',  ( -0.000000000000000000, 0.000000000000000000, 1.000000000000000000 ) ) ;
#825 = DIRECTION ( 'NONE',  ( -1.387778780781468947E-15, -1.000000000000000000, 0.000000000000000000 ) ) ;
#826 = CARTESIAN_POINT ( 'NONE',  ( -8.496982605559857404, 2.000000000000000000, -5.336588281626137409 ) ) ;
#827 = PRODUCT_RELATED_PRODUCT_CATEGORY ( 'part', '', ( #477 ) ) ;
#828 = CARTESIAN_POINT ( 'NONE',  ( -12.68707028509444612, -1.916093713459251946, -1.312929714905538336 ) ) ;
#829 = SURFACE_STYLE_FILL_AREA ( #279 ) ;
#830 = ADVANCED_FACE ( 'NONE', ( #152 ), #688, .T. ) ;
#831 = CARTESIAN_POINT ( 'NONE',  ( 9.999999999999998224, 1.499999999999995337, 0.000000000000000000 ) ) ;
#832 = VECTOR ( 'NONE', #405, 1000.000000000000114 ) ;
#833 = ORIENTED_EDGE ( 'NONE', *, *, #990, .T. ) ;
#834 = VECTOR ( 'NONE', #760, 1000.000000000000000 ) ;
#835 = VECTOR ( 'NONE', #394, 1000.000000000000000 ) ;
#836 = CARTESIAN_POINT ( 'NONE',  ( -0.000000000000000000, -1.499999999999996225, 0.000000000000000000 ) ) ;
#837 = FACE_OUTER_BOUND ( 'NONE', #445, .T. ) ;
#838 = ORIENTED_EDGE ( 'NONE', *, *, #705, .T. ) ;
#839 = EDGE_CURVE ( 'NONE', #176, #317, #622, .T. ) ;
#840 = CARTESIAN_POINT ( 'NONE',  ( -4.207106781186549682, 0.7499999999999925615, -0.7499999999999977796 ) ) ;
#841 = DIRECTION ( 'NONE',  ( 0.000000000000000000, 1.000000000000000000, -0.000000000000000000 ) ) ;
#842 = FACE_OUTER_BOUND ( 'NONE', #553, .T. ) ;
#843 = ORIENTED_EDGE ( 'NONE', *, *, #716, .T. ) ;
#844 = ORIENTED_EDGE ( 'NONE', *, *, #974, .F. ) ;
#845 = LINE ( 'NONE', #543, #418 ) ;
#846 = CARTESIAN_POINT ( 'NONE',  ( -7.499999999999983125, 2.000000000000000000, -5.258963000879180782 ) ) ;
#847 = ORIENTED_EDGE ( 'NONE', *, *, #616, .F. ) ;
#848 = ORIENTED_EDGE ( 'NONE', *, *, #787, .F. ) ;
#849 = ORIENTED_EDGE ( 'NONE', *, *, #634, .T. ) ;
#850 = CARTESIAN_POINT ( 'NONE',  ( -4.207106781186549682, -0.7928932188134381054, -0.7071067811865527908 ) ) ;
#851 = VECTOR ( 'NONE', #961, 1000.000000000000000 ) ;
#852 = AXIS2_PLACEMENT_3D ( 'NONE', #661, #841, #446 ) ;
#853 = DIRECTION ( 'NONE',  ( -0.7071067811865414665, -0.7071067811865536790, 0.000000000000000000 ) ) ;
#854 = ORIENTED_EDGE ( 'NONE', *, *, #742, .F. ) ;
#855 = EDGE_CURVE ( 'NONE', #75, #698, #845, .T. ) ;
#856 = VERTEX_POINT ( 'NONE', #532 ) ;
#857 = EDGE_CURVE ( 'NONE', #594, #922, #369, .T. ) ;
#858 = ORIENTED_EDGE ( 'NONE', *, *, #787, .T. ) ;
#859 = UNCERTAINTY_MEASURE_WITH_UNIT (LENGTH_MEASURE( 1.000000000000000082E-05 ), #962, 'distance_accuracy_value', 'NONE');
#860 = DIRECTION ( 'NONE',  ( 0.7071067811865463515, 0.000000000000000000, 0.7071067811865487940 ) ) ;
#861 = ORIENTED_EDGE ( 'NONE', *, *, #905, .T. ) ;
#862 = ORIENTED_EDGE ( 'NONE', *, *, #73, .T. ) ;
#863 = LINE ( 'NONE', #156, #213 ) ;
#864 = ORIENTED_EDGE ( 'NONE', *, *, #897, .F. ) ;
#865 = CARTESIAN_POINT ( 'NONE',  ( -13.99999999999999289, -5.085786437626810930, 0.000000000000000000 ) ) ;
#866 = ORIENTED_EDGE ( 'NONE', *, *, #589, .T. ) ;
#867 = CARTESIAN_POINT ( 'NONE',  ( 2.285123966942145479, -0.7913223140495737606, -0.7086776859504173576 ) ) ;
#868 = VECTOR ( 'NONE', #127, 1000.000000000000000 ) ;
#869 = VECTOR ( 'NONE', #331, 1000.000000000000000 ) ;
#870 = CARTESIAN_POINT ( 'NONE',  ( -4.207106781186550570, 0.7928932188134381054, -0.7071067811865523467 ) ) ;
#871 = ORIENTED_EDGE ( 'NONE', *, *, #788, .T. ) ;
#872 = DIRECTION ( 'NONE',  ( -1.000000000000000000, 0.000000000000000000, 6.133173666733458293E-15 ) ) ;
#873 = CARTESIAN_POINT ( 'NONE',  ( -15.35355339059326241, 7.146446609406597261, 4.000000000000000000 ) ) ;
#874 = PRODUCT_DEFINITION ( 'UNKNOWN', '', #734, #458 ) ;
#875 = FACE_OUTER_BOUND ( 'NONE', #597, .T. ) ;
#876 = EDGE_LOOP ( 'NONE', ( #671, #135, #150, #578 ) ) ;
#877 = CARTESIAN_POINT ( 'NONE',  ( -7.499999999999983125, 2.000000000000000000, -5.258963000879180782 ) ) ;
#878 = CARTESIAN_POINT ( 'NONE',  ( -8.207106781186530142, -2.000000000000000000, -4.707106781186547018 ) ) ;
#879 = DIRECTION ( 'NONE',  ( -0.8637789008984331218, 0.000000000000000000, -0.5038710255240865798 ) ) ;
#880 = ORIENTED_EDGE ( 'NONE', *, *, #634, .F. ) ;
#881 = ADVANCED_FACE ( 'NONE', ( #142 ), #444, .F. ) ;
#882 = LINE ( 'NONE', #485, #934 ) ;
#883 = LINE ( 'NONE', #189, #765 ) ;
#884 = EDGE_CURVE ( 'NONE', #965, #689, #615, .T. ) ;
#885 = CARTESIAN_POINT ( 'NONE',  ( -0.000000000000000000, -1.499999999999996225, 0.000000000000000000 ) ) ;
#886 = AXIS2_PLACEMENT_3D ( 'NONE', #819, #733, #188 ) ;
#887 = ORIENTED_EDGE ( 'NONE', *, *, #919, .F. ) ;
#888 = VECTOR ( 'NONE', #952, 1000.000000000000000 ) ;
#889 = PLANE ( 'NONE',  #116 ) ;
#890 = CARTESIAN_POINT ( 'NONE',  ( -7.499999999999983125, 2.000000000000000000, -5.258963000879180782 ) ) ;
#891 = CARTESIAN_POINT ( 'NONE',  ( 0.000000000000000000, 2.499999999999999556, 3.500000000000003109 ) ) ;
#892 = CARTESIAN_POINT ( 'NONE',  ( 9.209914264407325746, 4.407435698305412153, 1.592564301694590734 ) ) ;
#893 = VERTEX_POINT ( 'NONE', #362 ) ;
#894 = DIRECTION ( 'NONE',  ( -1.000000000000000000, 0.000000000000000000, -0.000000000000000000 ) ) ;
#895 = CARTESIAN_POINT ( 'NONE',  ( 14.49999999999998579, -6.292893218813373046, 4.000000000000000000 ) ) ;
#896 = ORIENTED_EDGE ( 'NONE', *, *, #759, .T. ) ;
#897 = EDGE_CURVE ( 'NONE', #79, #145, #619, .T. ) ;
#898 = PLANE ( 'NONE',  #817 ) ;
#899 = DIRECTION ( 'NONE',  ( 0.000000000000000000, 0.000000000000000000, 1.000000000000000000 ) ) ;
#900 = ORIENTED_EDGE ( 'NONE', *, *, #932, .F. ) ;
#901 = VECTOR ( 'NONE', #168, 1000.000000000000000 ) ;
#902 = DIRECTION ( 'NONE',  ( -0.7071067811865389130, 0.7071067811865561215, 0.000000000000000000 ) ) ;
#903 = VECTOR ( 'NONE', #969, 1000.000000000000000 ) ;
#904 = CARTESIAN_POINT ( 'NONE',  ( -10.00000000000000178, 2.500000000000000888, 4.000000000000000000 ) ) ;
#905 = EDGE_CURVE ( 'NONE', #923, #91, #610, .T. ) ;
#906 = CARTESIAN_POINT ( 'NONE',  ( 11.07983086635653081, -0.1069423226271052074, -1.606942322627088693 ) ) ;
#907 = CARTESIAN_POINT ( 'NONE',  ( -12.68707028509444434, 1.916093713459254388, -1.312929714905539669 ) ) ;
#908 = DIRECTION ( 'NONE',  ( -0.000000000000000000, -0.000000000000000000, -1.000000000000000000 ) ) ;
#909 = EDGE_CURVE ( 'NONE', #323, #893, #526, .T. ) ;
#910 = ORIENTED_EDGE ( 'NONE', *, *, #990, .F. ) ;
#911 = SURFACE_STYLE_USAGE ( .BOTH. , #355 ) ;
#912 = DIRECTION ( 'NONE',  ( -1.000000000000000000, 0.000000000000000000, 0.000000000000000000 ) ) ;
#913 = CARTESIAN_POINT ( 'NONE',  ( -14.99999999999999822, -7.499999999999874767, 0.9999999999999974465 ) ) ;
#914 = EDGE_CURVE ( 'NONE', #761, #442, #381, .T. ) ;
#915 = ORIENTED_EDGE ( 'NONE', *, *, #797, .T. ) ;
#916 = ADVANCED_FACE ( 'NONE', ( #295 ), #928, .T. ) ;
#917 = ORIENTED_EDGE ( 'NONE', *, *, #674, .T. ) ;
#918 = VECTOR ( 'NONE', #300, 1000.000000000000114 ) ;
#919 = EDGE_CURVE ( 'NONE', #537, #3, #863, .T. ) ;
#920 = DIRECTION ( 'NONE',  ( 0.4999999999999933387, -0.5000000000000081046, -0.7071067811865464625 ) ) ;
#921 = ADVANCED_FACE ( 'NONE', ( #606 ), #779, .F. ) ;
#922 = VERTEX_POINT ( 'NONE', #850 ) ;
#923 = VERTEX_POINT ( 'NONE', #146 ) ;
#924 = DIRECTION ( 'NONE',  ( -0.2810846377148122910, 0.6785983445458486640, -0.6785983445458486640 ) ) ;
#925 = LINE ( 'NONE', #143, #712 ) ;
#926 = VERTEX_POINT ( 'NONE', #771 ) ;
#927 = EDGE_LOOP ( 'NONE', ( #896, #992, #263, #536 ) ) ;
#928 = PLANE ( 'NONE',  #163 ) ;
#929 = EDGE_CURVE ( 'NONE', #91, #646, #692, .T. ) ;
#930 = DIRECTION ( 'NONE',  ( -0.000000000000000000, -0.000000000000000000, -1.000000000000000000 ) ) ;
#931 = EDGE_CURVE ( 'NONE', #605, #559, #376, .T. ) ;
#932 = EDGE_CURVE ( 'NONE', #3, #1004, #432, .T. ) ;
#933 = DIRECTION ( 'NONE',  ( -0.7071067811865536790, 0.7071067811865414665, -0.000000000000000000 ) ) ;
#934 = VECTOR ( 'NONE', #314, 1000.000000000000000 ) ;
#935 = VECTOR ( 'NONE', #976, 1000.000000000000114 ) ;
#936 = CARTESIAN_POINT ( 'NONE',  ( 12.68707028509444079, 1.916093713459253722, 5.812929714905555656 ) ) ;
#937 = ORIENTED_EDGE ( 'NONE', *, *, #953, .T. ) ;
#938 = ORIENTED_EDGE ( 'NONE', *, *, #956, .F. ) ;
#939 = CARTESIAN_POINT ( 'NONE',  ( -4.207106781186549682, -0.7499999999999930056, -0.7499999999999982236 ) ) ;
#940 = ORIENTED_EDGE ( 'NONE', *, *, #265, .F. ) ;
#941 = FACE_OUTER_BOUND ( 'NONE', #32, .T. ) ;
#942 = EDGE_CURVE ( 'NONE', #323, #79, #550, .T. ) ;
#943 = PRODUCT_CONTEXT ( 'NONE', #789, 'mechanical' ) ;
#944 = CARTESIAN_POINT ( 'NONE',  ( 4.357142857142858539, -2.000000000000000000, 0.5000000000000002220 ) ) ;
#945 = VECTOR ( 'NONE', #423, 1000.000000000000000 ) ;
#946 = PRESENTATION_LAYER_ASSIGNMENT (  '', '', ( #402 ) ) ;
#947 = VECTOR ( 'NONE', #924, 1000.000000000000227 ) ;
#948 = CARTESIAN_POINT ( 'NONE',  ( -10.00000000000000178, -2.500000000000000444, 0.9999999999999978906 ) ) ;
#949 = ORIENTED_EDGE ( 'NONE', *, *, #561, .T. ) ;
#950 = DIRECTION ( 'NONE',  ( 0.7071067811865561215, 0.7071067811865389130, 0.000000000000000000 ) ) ;
#951 = CARTESIAN_POINT ( 'NONE',  ( 15.00000000000000178, 7.499999999999854339, 0.9999999999999974465 ) ) ;
#952 = DIRECTION ( 'NONE',  ( -0.000000000000000000, -1.000000000000000000, -0.000000000000000000 ) ) ;
#953 = EDGE_CURVE ( 'NONE', #922, #761, #92, .T. ) ;
#954 = ORIENTED_EDGE ( 'NONE', *, *, #515, .T. ) ;
#955 = FACE_OUTER_BOUND ( 'NONE', #777, .T. ) ;
#956 = EDGE_CURVE ( 'NONE', #764, #433, #413, .T. ) ;
#957 = DIRECTION ( 'NONE',  ( 0.000000000000000000, 0.000000000000000000, 1.000000000000000000 ) ) ;
#958 = PLANE ( 'NONE',  #34 ) ;
#959 = ORIENTED_EDGE ( 'NONE', *, *, #137, .T. ) ;
#960 = DIRECTION ( 'NONE',  ( -0.000000000000000000, -1.000000000000000000, 0.000000000000000000 ) ) ;
#961 = DIRECTION ( 'NONE',  ( 1.387778780781468947E-15, 1.000000000000000000, 0.000000000000000000 ) ) ;
#962 =( LENGTH_UNIT ( ) NAMED_UNIT ( * ) SI_UNIT ( .MILLI., .METRE. ) );
#963 = CARTESIAN_POINT ( 'NONE',  ( -14.50000000000000000, 0.000000000000000000, 4.000000000000000000 ) ) ;
#964 = VECTOR ( 'NONE', #149, 1000.000000000000000 ) ;
#965 = VERTEX_POINT ( 'NONE', #160 ) ;
#966 = VECTOR ( 'NONE', #414, 1000.000000000000000 ) ;
#967 = DIRECTION ( 'NONE',  ( -0.7071067811865561215, -0.7071067811865389130, 0.000000000000000000 ) ) ;
#968 = FACE_OUTER_BOUND ( 'NONE', #197, .T. ) ;
#969 = DIRECTION ( 'NONE',  ( 0.7713892158398686361, -0.4499770425732603218, 0.4499770425732571577 ) ) ;
#970 = DIRECTION ( 'NONE',  ( -0.8637789008984331218, 0.000000000000000000, -0.5038710255240865798 ) ) ;
#971 = ORIENTED_EDGE ( 'NONE', *, *, #406, .F. ) ;
#972 = ADVANCED_FACE ( 'NONE', ( #554 ), #506, .T. ) ;
#973 = CARTESIAN_POINT ( 'NONE',  ( 0.000000000000000000, -2.000000000000000000, 0.5000000000000003331 ) ) ;
#974 = EDGE_CURVE ( 'NONE', #91, #134, #474, .T. ) ;
#975 = CARTESIAN_POINT ( 'NONE',  ( 10.41421356237308338, -1.499999999999996225, 0.000000000000000000 ) ) ;
#976 = DIRECTION ( 'NONE',  ( 0.3574067443365956942, -0.8628562094610142674, -0.3574067443365969154 ) ) ;
#977 = ORIENTED_EDGE ( 'NONE', *, *, #931, .F. ) ;
#978 = FACE_OUTER_BOUND ( 'NONE', #380, .T. ) ;
#979 = EDGE_CURVE ( 'NONE', #463, #250, #644, .T. ) ;
#980 = DIRECTION ( 'NONE',  ( 1.000000000000000000, 0.000000000000000000, 0.000000000000000000 ) ) ;
#981 = ADVANCED_FACE ( 'NONE', ( #658 ), #786, .F. ) ;
#982 = ORIENTED_EDGE ( 'NONE', *, *, #548, .F. ) ;
#983 = VECTOR ( 'NONE', #360, 1000.000000000000000 ) ;
#984 = PRODUCT_DEFINITION_SHAPE ( 'NONE', 'NONE',  #874 ) ;
#985 = LINE ( 'NONE', #48, #450 ) ;
#986 = VECTOR ( 'NONE', #236, 1000.000000000000000 ) ;
#987 = DIRECTION ( 'NONE',  ( -0.000000000000000000, -0.000000000000000000, -1.000000000000000000 ) ) ;
#988 = EDGE_LOOP ( 'NONE', ( #618, #949, #880, #861 ) ) ;
#989 = CARTESIAN_POINT ( 'NONE',  ( -7.499999999999983125, 2.000000000000000000, -5.414213562373094035 ) ) ;
#990 = EDGE_CURVE ( 'NONE', #206, #923, #708, .T. ) ;
#991 = DIRECTION ( 'NONE',  ( -0.7071067811865561215, -0.7071067811865389130, -0.000000000000000000 ) ) ;
#992 = ORIENTED_EDGE ( 'NONE', *, *, #693, .T. ) ;
#993 = DIRECTION ( 'NONE',  ( -0.7071067811865561215, 0.7071067811865390240, -0.000000000000000000 ) ) ;
#994 = AXIS2_PLACEMENT_3D ( 'NONE', #529, #755, #353 ) ;
#995 = VERTEX_POINT ( 'NONE', #815 ) ;
#996 = CARTESIAN_POINT ( 'NONE',  ( 0.000000000000000000, 2.000000000000002665, 4.000000000000000000 ) ) ;
#997 = VECTOR ( 'NONE', #908, 1000.000000000000000 ) ;
#998 = CARTESIAN_POINT ( 'NONE',  ( -6.666666666666634988, -1.666666666666671848, -3.166666666666645202 ) ) ;
#999 = ADVANCED_FACE ( 'NONE', ( #421 ), #810, .T. ) ;
#1000 = EDGE_LOOP ( 'NONE', ( #667, #971, #847, #675 ) ) ;
#1001 = VERTEX_POINT ( 'NONE', #500 ) ;
#1002 = DIRECTION ( 'NONE',  ( 0.3574067443365999686, 0.8628562094610117139, -0.3574067443365988028 ) ) ;
#1003 = CARTESIAN_POINT ( 'NONE',  ( 13.99999999999999289, 5.085786437626795831, 0.000000000000000000 ) ) ;
#1004 = VERTEX_POINT ( 'NONE', #19 ) ;
#1005 = PLANE ( 'NONE',  #449 ) ;
#1006 = ORIENTED_EDGE ( 'NONE', *, *, #440, .T. ) ;
ENDSEC;
END-ISO-10303-21;
