ISO-10303-21;
HEADER;
FILE_DESCRIPTION (( 'STEP AP203' ),
    '1' );
FILE_NAME ('guide rails.STEP',
    '2025-09-26T01:19:00',
    ( '' ),
    ( '' ),
    'SwSTEP 2.0',
    'SolidWorks 2024',
    '' );
FILE_SCHEMA (( 'CONFIG_CONTROL_DESIGN' ));
ENDSEC;

DATA;
#1 = CARTESIAN_POINT ( 'NONE',  ( -9.999999999999998224, 12.49999999999999289, 132.1221026172381414 ) ) ;
#2 = ORIENTED_EDGE ( 'NONE', *, *, #661, .T. ) ;
#3 = ORIENTED_EDGE ( 'NONE', *, *, #523, .F. ) ;
#4 = LINE ( 'NONE', #793, #620 ) ;
#5 = CARTESIAN_POINT ( 'NONE',  ( 0.000000000000000000, 30.00000000000000000, 122.5000000000000142 ) ) ;
#6 = EDGE_LOOP ( 'NONE', ( #10, #300, #122, #740 ) ) ;
#7 = ORIENTED_EDGE ( 'NONE', *, *, #700, .F. ) ;
#8 = LINE ( 'NONE', #320, #655 ) ;
#9 = PLANE ( 'NONE',  #779 ) ;
#10 = ORIENTED_EDGE ( 'NONE', *, *, #326, .T. ) ;
#11 = EDGE_LOOP ( 'NONE', ( #563, #609, #786, #234, #750, #179, #365, #243, #475, #3 ) ) ;
#12 = DIRECTION ( 'NONE',  ( -1.000000000000000000, -6.938893903907228378E-16, 0.000000000000000000 ) ) ;
#13 = DESIGN_CONTEXT ( 'detailed design', #77, 'design' ) ;
#14 = EDGE_CURVE ( 'NONE', #433, #313, #721, .T. ) ;
#15 = LINE ( 'NONE', #507, #42 ) ;
#16 = VECTOR ( 'NONE', #492, 1000.000000000000227 ) ;
#17 = EDGE_LOOP ( 'NONE', ( #619, #183, #688, #730 ) ) ;
#18 = CARTESIAN_POINT ( 'NONE',  ( -119.4210972679426419, 12.49999999999999289, -57.40079727077478822 ) ) ;
#19 = CARTESIAN_POINT ( 'NONE',  ( -120.0311508905774360, 21.81469453669184944, -51.97950920212684167 ) ) ;
#20 = CC_DESIGN_APPROVAL ( #291, ( #776 ) ) ;
#21 = VERTEX_POINT ( 'NONE', #141 ) ;
#22 = EDGE_CURVE ( 'NONE', #74, #424, #395, .T. ) ;
#23 =( LENGTH_UNIT ( ) NAMED_UNIT ( * ) SI_UNIT ( .MILLI., .METRE. ) );
#24 = LINE ( 'NONE', #317, #564 ) ;
#25 = VERTEX_POINT ( 'NONE', #696 ) ;
#26 = PERSON_AND_ORGANIZATION_ROLE ( 'classification_officer' ) ;
#27 = CARTESIAN_POINT ( 'NONE',  ( -9.999999999999998224, 17.50000000000000000, 131.7597856220490371 ) ) ;
#28 = EDGE_LOOP ( 'NONE', ( #65, #478, #238, #670, #621, #208, #605, #657, #363, #323, #441 ) ) ;
#29 = VECTOR ( 'NONE', #236, 1000.000000000000000 ) ;
#30 = DATE_AND_TIME ( #575, #667 ) ;
#31 = CARTESIAN_POINT ( 'NONE',  ( 0.000000000000000000, 5.349999999999999645, 125.0000000000000000 ) ) ;
#32 = CC_DESIGN_PERSON_AND_ORGANIZATION_ASSIGNMENT ( #218, #396, ( #580 ) ) ;
#33 = CARTESIAN_POINT ( 'NONE',  ( -106.0881119635934340, 30.00000000000000000, -61.25000000000051870 ) ) ;
#34 = DIRECTION ( 'NONE',  ( -0.8660254037844382635, 0.000000000000000000, -0.5000000000000008882 ) ) ;
#35 = CARTESIAN_POINT ( 'NONE',  ( -108.5432389825158879, 3.749999999999976907, -66.99759526419174449 ) ) ;
#36 = CIRCLE ( 'NONE', #142, 20.00000000000000355 ) ;
#37 = DIRECTION ( 'NONE',  ( 0.000000000000000000, -1.000000000000000000, 0.000000000000000000 ) ) ;
#38 = APPROVAL_ROLE ( '' ) ;
#39 = LINE ( 'NONE', #637, #613 ) ;
#40 = ADVANCED_FACE ( 'NONE', ( #150 ), #574, .F. ) ;
#41 = FACE_OUTER_BOUND ( 'NONE', #248, .T. ) ;
#42 = VECTOR ( 'NONE', #756, 1000.000000000000000 ) ;
#43 = CYLINDRICAL_SURFACE ( 'NONE', #499, 132.5000000000000000 ) ;
#44 = APPROVAL_ROLE ( '' ) ;
#45 = ADVANCED_FACE ( 'NONE', ( #377 ), #73, .F. ) ;
#46 = VECTOR ( 'NONE', #588, 1000.000000000000000 ) ;
#47 = CARTESIAN_POINT ( 'NONE',  ( -15.00000000000000178, 22.50000000000001776, 129.6025025064754743 ) ) ;
#48 = EDGE_CURVE ( 'NONE', #674, #378, #36, .T. ) ;
#49 = DIRECTION ( 'NONE',  ( 0.000000000000000000, 1.000000000000000000, 0.000000000000000000 ) ) ;
#50 = ORIENTED_EDGE ( 'NONE', *, *, #556, .F. ) ;
#51 = AXIS2_PLACEMENT_3D ( 'NONE', #53, #607, #719 ) ;
#52 = EDGE_CURVE ( 'NONE', #673, #262, #221, .T. ) ;
#53 = CARTESIAN_POINT ( 'NONE',  ( -110.4182389825158879, 17.49999999999999645, -63.75000000000011369 ) ) ;
#54 = EDGE_LOOP ( 'NONE', ( #494, #390, #252, #634 ) ) ;
#55 = VERTEX_POINT ( 'NONE', #157 ) ;
#56 = AXIS2_PLACEMENT_3D ( 'NONE', #550, #675, #144 ) ;
#57 = LINE ( 'NONE', #187, #180 ) ;
#58 = VERTEX_POINT ( 'NONE', #593 ) ;
#59 = VERTEX_POINT ( 'NONE', #343 ) ;
#60 = LINE ( 'NONE', #425, #602 ) ;
#61 = PRODUCT_DEFINITION ( 'UNKNOWN', '', #776, #13 ) ;
#62 = FACE_OUTER_BOUND ( 'NONE', #6, .T. ) ;
#63 = EDGE_CURVE ( 'NONE', #177, #262, #453, .T. ) ;
#64 = EDGE_LOOP ( 'NONE', ( #306, #680, #485, #241 ) ) ;
#65 = ORIENTED_EDGE ( 'NONE', *, *, #562, .T. ) ;
#66 = DIRECTION ( 'NONE',  ( 0.000000000000000000, 1.000000000000000000, 0.000000000000000000 ) ) ;
#67 = CARTESIAN_POINT ( 'NONE',  ( -107.8201627711623871, 30.00000000000000000, -62.25000000000056843 ) ) ;
#68 = ORIENTED_EDGE ( 'NONE', *, *, #474, .F. ) ;
#69 = VERTEX_POINT ( 'NONE', #47 ) ;
#70 = DIRECTION ( 'NONE',  ( -0.000000000000000000, -1.000000000000000000, -0.000000000000000000 ) ) ;
#71 = AXIS2_PLACEMENT_3D ( 'NONE', #202, #70, #685 ) ;
#72 = LINE ( 'NONE', #747, #773 ) ;
#73 = PLANE ( 'NONE',  #454 ) ;
#74 = VERTEX_POINT ( 'NONE', #294 ) ;
#75 = CARTESIAN_POINT ( 'NONE',  ( -121.5106902882356508, 7.499999999999975131, -52.83372167164146305 ) ) ;
#76 = ADVANCED_FACE ( 'NONE', ( #167 ), #704, .F. ) ;
#77 = APPLICATION_CONTEXT ( 'configuration controlled 3d designs of mechanical parts and assemblies' ) ;
#78 = LINE ( 'NONE', #251, #16 ) ;
#79 = VERTEX_POINT ( 'NONE', #111 ) ;
#80 = VERTEX_POINT ( 'NONE', #33 ) ;
#81 = CARTESIAN_POINT ( 'NONE',  ( -110.4182389825158879, 17.49999999999999645, -63.75000000000011369 ) ) ;
#82 = DIRECTION ( 'NONE',  ( 0.000000000000000000, 1.000000000000000000, 0.000000000000000000 ) ) ;
#83 = ADVANCED_FACE ( 'NONE', ( #457 ), #460, .T. ) ;
#84 = VECTOR ( 'NONE', #96, 1000.000000000000114 ) ;
#85 = VERTEX_POINT ( 'NONE', #407 ) ;
#86 = PERSON_AND_ORGANIZATION_ROLE ( 'design_supplier' ) ;
#87 = CARTESIAN_POINT ( 'NONE',  ( 3.673940397442059967E-15, 4.499279347985574137E-31, 127.5000000000000000 ) ) ;
#88 = LOCAL_TIME ( 20, 19, 0.000000000000000000, #214 ) ;
#89 = VERTEX_POINT ( 'NONE', #408 ) ;
#90 = CARTESIAN_POINT ( 'NONE',  ( 0.000000000000000000, 30.00000000000000000, 0.000000000000000000 ) ) ;
#91 = CC_DESIGN_PERSON_AND_ORGANIZATION_ASSIGNMENT ( #702, #272, ( #61 ) ) ;
#92 = FACE_OUTER_BOUND ( 'NONE', #119, .T. ) ;
#93 = ORIENTED_EDGE ( 'NONE', *, *, #761, .T. ) ;
#94 = DATE_TIME_ROLE ( 'creation_date' ) ;
#95 = LINE ( 'NONE', #283, #568 ) ;
#96 = DIRECTION ( 'NONE',  ( 0.3535533905932737309, 0.7071067811865485719, -0.6123724356957932491 ) ) ;
#97 = AXIS2_PLACEMENT_3D ( 'NONE', #701, #398, #524 ) ;
#98 = COORDINATED_UNIVERSAL_TIME_OFFSET ( 6, 0, .BEHIND. ) ;
#99 = DIRECTION ( 'NONE',  ( -0.8660254037844377084, 0.000000000000000000, -0.5000000000000016653 ) ) ;
#100 = DIRECTION ( 'NONE',  ( -0.000000000000000000, 0.000000000000000000, 1.000000000000000000 ) ) ;
#101 = APPROVAL ( #290, 'UNSPECIFIED' ) ;
#102 = CALENDAR_DATE ( 2025, 25, 9 ) ;
#103 = FACE_OUTER_BOUND ( 'NONE', #541, .T. ) ;
#104 = EDGE_CURVE ( 'NONE', #626, #177, #228, .T. ) ;
#105 = VECTOR ( 'NONE', #449, 1000.000000000000000 ) ;
#106 = CARTESIAN_POINT ( 'NONE',  ( -11.66956106988180508, 10.83043893011817893, 131.9957376081436564 ) ) ;
#107 = DATE_AND_TIME ( #540, #737 ) ;
#108 = DIRECTION ( 'NONE',  ( 0.5000000000000014433, 0.000000000000000000, -0.8660254037844379305 ) ) ;
#109 = EDGE_CURVE ( 'NONE', #89, #79, #285, .T. ) ;
#110 = CARTESIAN_POINT ( 'NONE',  ( 0.000000000000000000, 30.00000000000000000, 0.000000000000000000 ) ) ;
#111 = CARTESIAN_POINT ( 'NONE',  ( 2.143131898507867854E-15, 12.50000000000000000, 132.5000000000000000 ) ) ;
#112 = VECTOR ( 'NONE', #526, 1000.000000000000114 ) ;
#113 = VECTOR ( 'NONE', #37, 1000.000000000000000 ) ;
#114 = FACE_OUTER_BOUND ( 'NONE', #616, .T. ) ;
#115 = ORIENTED_EDGE ( 'NONE', *, *, #63, .F. ) ;
#116 = EDGE_CURVE ( 'NONE', #147, #55, #223, .T. ) ;
#117 = LINE ( 'NONE', #668, #160 ) ;
#118 = ORIENTED_EDGE ( 'NONE', *, *, #661, .F. ) ;
#119 = EDGE_LOOP ( 'NONE', ( #2, #493, #420, #629 ) ) ;
#120 = VECTOR ( 'NONE', #376, 1000.000000000000000 ) ;
#121 = CARTESIAN_POINT ( 'NONE',  ( -110.4182389825158879, 12.50000000000000000, -63.75000000000011369 ) ) ;
#122 = ORIENTED_EDGE ( 'NONE', *, *, #470, .F. ) ;
#123 = ORIENTED_EDGE ( 'NONE', *, *, #474, .T. ) ;
#124 = VECTOR ( 'NONE', #196, 1000.000000000000000 ) ;
#125 = ADVANCED_FACE ( 'NONE', ( #708 ), #653, .F. ) ;
#126 = DIRECTION ( 'NONE',  ( 0.000000000000000000, 1.000000000000000000, 0.000000000000000000 ) ) ;
#127 = ORIENTED_EDGE ( 'NONE', *, *, #761, .F. ) ;
#128 = ORIENTED_EDGE ( 'NONE', *, *, #411, .T. ) ;
#129 = FACE_OUTER_BOUND ( 'NONE', #194, .T. ) ;
#130 = PLANE ( 'NONE',  #471 ) ;
#131 = ORIENTED_EDGE ( 'NONE', *, *, #496, .F. ) ;
#132 = EDGE_LOOP ( 'NONE', ( #68, #792, #788, #143 ) ) ;
#133 = CARTESIAN_POINT ( 'NONE',  ( -114.7483660014378017, 12.50000000000000000, -66.25000000000055422 ) ) ;
#134 = AXIS2_PLACEMENT_3D ( 'NONE', #171, #49, #789 ) ;
#135 = DIRECTION ( 'NONE',  ( 0.000000000000000000, 0.000000000000000000, 1.000000000000000000 ) ) ;
#136 = ADVANCED_FACE ( 'NONE', ( #41 ), #43, .T. ) ;
#137 = DIRECTION ( 'NONE',  ( 0.000000000000000000, 0.000000000000000000, -1.000000000000000000 ) ) ;
#138 = ORIENTED_EDGE ( 'NONE', *, *, #104, .F. ) ;
#139 = DIRECTION ( 'NONE',  ( -0.5000000000000007772, -6.938893903907227392E-16, 0.8660254037844381525 ) ) ;
#140 = CARTESIAN_POINT ( 'NONE',  ( -119.1073215458860659, 17.50000000000000000, -57.21963877318025737 ) ) ;
#141 = CARTESIAN_POINT ( 'NONE',  ( -109.6753066396650667, 27.85786437626899925, -63.32106781186607236 ) ) ;
#142 = AXIS2_PLACEMENT_3D ( 'NONE', #712, #169, #346 ) ;
#143 = ORIENTED_EDGE ( 'NONE', *, *, #191, .F. ) ;
#144 = DIRECTION ( 'NONE',  ( -0.8660254037844378194, 0.000000000000000000, -0.5000000000000013323 ) ) ;
#145 = ADVANCED_FACE ( 'NONE', ( #402 ), #159, .T. ) ;
#146 = CARTESIAN_POINT ( 'NONE',  ( 1.530806911370233923E-15, 17.49999999999999645, 132.1387191824119043 ) ) ;
#147 = VERTEX_POINT ( 'NONE', #583 ) ;
#148 = DIRECTION ( 'NONE',  ( 8.881784197001252323E-16, 0.000000000000000000, -1.000000000000000000 ) ) ;
#149 = VECTOR ( 'NONE', #215, 1000.000000000000227 ) ;
#150 = FACE_OUTER_BOUND ( 'NONE', #64, .T. ) ;
#151 = PLANE ( 'NONE',  #316 ) ;
#152 = LINE ( 'NONE', #165, #404 ) ;
#153 = CARTESIAN_POINT ( 'NONE',  ( -114.4354876355067603, 17.49999999999999645, -66.06935959120605162 ) ) ;
#154 = AXIS2_PLACEMENT_3D ( 'NONE', #689, #66, #244 ) ;
#155 = ORIENTED_EDGE ( 'NONE', *, *, #191, .T. ) ;
#156 = PLANE ( 'NONE',  #232 ) ;
#157 = CARTESIAN_POINT ( 'NONE',  ( -115.4182389825158879, 12.49999999999999289, -55.08974596215573172 ) ) ;
#158 = DIRECTION ( 'NONE',  ( 0.000000000000000000, -1.000000000000000000, 0.000000000000000000 ) ) ;
#159 = PLANE ( 'NONE',  #597 ) ;
#160 = VECTOR ( 'NONE', #728, 1000.000000000000000 ) ;
#161 = EDGE_CURVE ( 'NONE', #188, #664, #790, .T. ) ;
#162 = CARTESIAN_POINT ( 'NONE',  ( -13.38941671355416574, 20.88941671355417640, 130.5815691546468145 ) ) ;
#163 = DIRECTION ( 'NONE',  ( 1.156482317317868027E-16, -1.000000000000000000, 0.000000000000000000 ) ) ;
#164 = CIRCLE ( 'NONE', #185, 132.5000000000000000 ) ;
#165 = CARTESIAN_POINT ( 'NONE',  ( -15.00000000000000178, 22.50000000000001776, 127.5000000000000000 ) ) ;
#166 = EDGE_CURVE ( 'NONE', #69, #433, #759, .T. ) ;
#167 = FACE_OUTER_BOUND ( 'NONE', #791, .T. ) ;
#168 = DATE_AND_TIME ( #450, #88 ) ;
#169 = DIRECTION ( 'NONE',  ( 1.000000000000000000, -0.000000000000000000, -0.000000000000000000 ) ) ;
#170 = VERTEX_POINT ( 'NONE', #173 ) ;
#171 = CARTESIAN_POINT ( 'NONE',  ( 0.000000000000000000, 30.00000000000000000, 0.000000000000000000 ) ) ;
#172 = ORGANIZATION ( 'UNSPECIFIED', 'UNSPECIFIED', '' ) ;
#173 = CARTESIAN_POINT ( 'NONE',  ( 0.000000000000000000, 30.00000000000000000, 124.5000000000000853 ) ) ;
#174 = ORIENTED_EDGE ( 'NONE', *, *, #543, .T. ) ;
#175 = CC_DESIGN_PERSON_AND_ORGANIZATION_ASSIGNMENT ( #391, #772, ( #776 ) ) ;
#176 = DIRECTION ( 'NONE',  ( 0.000000000000000000, 0.000000000000000000, 1.000000000000000000 ) ) ;
#177 = VERTEX_POINT ( 'NONE', #366 ) ;
#178 = ADVANCED_FACE ( 'NONE', ( #603 ), #246, .F. ) ;
#179 = ORIENTED_EDGE ( 'NONE', *, *, #411, .F. ) ;
#180 = VECTOR ( 'NONE', #426, 1000.000000000000114 ) ;
#181 = CARTESIAN_POINT ( 'NONE',  ( -119.4210972679426419, 12.49999999999999289, -57.40079727077478822 ) ) ;
#182 = ORIENTED_EDGE ( 'NONE', *, *, #52, .T. ) ;
#183 = ORIENTED_EDGE ( 'NONE', *, *, #767, .F. ) ;
#184 = CARTESIAN_POINT ( 'NONE',  ( -15.00000000000000178, -1.734723475976802164E-15, 127.5000000000000000 ) ) ;
#185 = AXIS2_PLACEMENT_3D ( 'NONE', #287, #278, #397 ) ;
#186 = EDGE_CURVE ( 'NONE', #314, #58, #57, .T. ) ;
#187 = CARTESIAN_POINT ( 'NONE',  ( -108.5432389825158879, 3.749999999999976907, -66.99759526419174449 ) ) ;
#188 = VERTEX_POINT ( 'NONE', #1 ) ;
#189 = VERTEX_POINT ( 'NONE', #181 ) ;
#190 = PLANE ( 'NONE',  #647 ) ;
#191 = EDGE_CURVE ( 'NONE', #80, #319, #631, .T. ) ;
#192 = B_SPLINE_CURVE_WITH_KNOTS ( 'NONE', 3,
 ( #193, #618, #430, #624 ),
 .UNSPECIFIED., .F., .F.,
 ( 4, 4 ),
 ( 0.000000000000000000, 0.007392825606000666752 ),
 .UNSPECIFIED. ) ;
#193 = CARTESIAN_POINT ( 'NONE',  ( -119.7390595646440943, 22.50000000000001776, -51.81087019647126368 ) ) ;
#194 = EDGE_LOOP ( 'NONE', ( #753, #669, #549, #744 ) ) ;
#195 = ORIENTED_EDGE ( 'NONE', *, *, #586, .F. ) ;
#196 = DIRECTION ( 'NONE',  ( -0.000000000000000000, -1.000000000000000000, -0.000000000000000000 ) ) ;
#197 = AXIS2_PLACEMENT_3D ( 'NONE', #547, #717, #733 ) ;
#198 = LINE ( 'NONE', #87, #120 ) ;
#199 = ORIENTED_EDGE ( 'NONE', *, *, #200, .T. ) ;
#200 = EDGE_CURVE ( 'NONE', #89, #85, #421, .T. ) ;
#201 = ORIENTED_EDGE ( 'NONE', *, *, #679, .F. ) ;
#202 = CARTESIAN_POINT ( 'NONE',  ( 0.000000000000000000, 0.000000000000000000, 0.000000000000000000 ) ) ;
#203 = DIRECTION ( 'NONE',  ( 0.000000000000000000, 0.000000000000000000, 1.000000000000000000 ) ) ;
#204 = ORIENTED_EDGE ( 'NONE', *, *, #642, .T. ) ;
#205 = DIRECTION ( 'NONE',  ( -0.8660254037844381525, -0.000000000000000000, -0.5000000000000007772 ) ) ;
#206 = DIRECTION ( 'NONE',  ( -0.8660254037844381525, -0.000000000000000000, -0.5000000000000007772 ) ) ;
#207 = CC_DESIGN_PERSON_AND_ORGANIZATION_ASSIGNMENT ( #572, #26, ( #635 ) ) ;
#208 = ORIENTED_EDGE ( 'NONE', *, *, #220, .T. ) ;
#209 = APPROVAL_DATE_TIME ( #509, #658 ) ;
#210 = ADVANCED_FACE ( 'NONE', ( #62 ), #303, .T. ) ;
#211 = DIRECTION ( 'NONE',  ( -0.3535533905932748411, -0.7071067811865466846, 0.6123724356957950254 ) ) ;
#212 = DIRECTION ( 'NONE',  ( -1.000000000000000000, 0.000000000000000000, 0.000000000000000000 ) ) ;
#213 = EDGE_LOOP ( 'NONE', ( #757, #601, #199, #729 ) ) ;
#214 = COORDINATED_UNIVERSAL_TIME_OFFSET ( 6, 0, .BEHIND. ) ;
#215 = DIRECTION ( 'NONE',  ( -0.8660254037844381525, -0.000000000000000000, -0.5000000000000007772 ) ) ;
#216 = CIRCLE ( 'NONE', #154, 124.5000000000000853 ) ;
#217 = CARTESIAN_POINT ( 'NONE',  ( -15.00000000000000000, 15.24071483653850656, 131.6043108874479515 ) ) ;
#218 = PERSON_AND_ORGANIZATION ( #718, #172 ) ;
#219 = DIRECTION ( 'NONE',  ( -6.938893903907228378E-16, 1.000000000000000000, 0.000000000000000000 ) ) ;
#220 = EDGE_CURVE ( 'NONE', #79, #735, #308, .T. ) ;
#221 = LINE ( 'NONE', #645, #113 ) ;
#222 = DIRECTION ( 'NONE',  ( 0.6123724356957919168, 0.7071067811865499042, 0.3535533905932735643 ) ) ;
#223 = LINE ( 'NONE', #461, #84 ) ;
#224 = VECTOR ( 'NONE', #206, 1000.000000000000227 ) ;
#225 =( NAMED_UNIT ( * ) PLANE_ANGLE_UNIT ( ) SI_UNIT ( $, .RADIAN. ) );
#226 = EDGE_CURVE ( 'NONE', #571, #722, #117, .T. ) ;
#227 = CARTESIAN_POINT ( 'NONE',  ( -11.72182311991834425, 19.22182311991835135, 131.2963667934404839 ) ) ;
#228 = LINE ( 'NONE', #530, #245 ) ;
#229 = VECTOR ( 'NONE', #506, 1000.000000000000000 ) ;
#230 = CARTESIAN_POINT ( 'NONE',  ( -15.00000000000000355, 17.50529287709044723, 131.2981201372149087 ) ) ;
#231 = CARTESIAN_POINT ( 'NONE',  ( -117.9182389825159021, 22.50000000000001776, -50.75961894323354073 ) ) ;
#232 = AXIS2_PLACEMENT_3D ( 'NONE', #644, #755, #341 ) ;
#233 = CARTESIAN_POINT ( 'NONE',  ( -114.7483660014378302, 5.350000000000000533, -66.25000000000054001 ) ) ;
#234 = ORIENTED_EDGE ( 'NONE', *, *, #304, .F. ) ;
#235 = SHAPE_DEFINITION_REPRESENTATION ( #529, #357 ) ;
#236 = DIRECTION ( 'NONE',  ( -0.000000000000000000, -0.000000000000000000, 1.000000000000000000 ) ) ;
#237 = EDGE_CURVE ( 'NONE', #189, #626, #338, .T. ) ;
#238 = ORIENTED_EDGE ( 'NONE', *, *, #298, .F. ) ;
#239 = ORIENTED_EDGE ( 'NONE', *, *, #642, .F. ) ;
#240 = CARTESIAN_POINT ( 'NONE',  ( -8.673617379884035472E-15, 12.50000000000000000, 127.5000000000000000 ) ) ;
#241 = ORIENTED_EDGE ( 'NONE', *, *, #52, .F. ) ;
#242 = EDGE_CURVE ( 'NONE', #85, #188, #414, .T. ) ;
#243 = ORIENTED_EDGE ( 'NONE', *, *, #166, .F. ) ;
#244 = DIRECTION ( 'NONE',  ( 0.000000000000000000, 0.000000000000000000, 1.000000000000000000 ) ) ;
#245 = VECTOR ( 'NONE', #282, 1000.000000000000000 ) ;
#246 = PLANE ( 'NONE',  #197 ) ;
#247 = ORIENTED_EDGE ( 'NONE', *, *, #104, .T. ) ;
#248 = EDGE_LOOP ( 'NONE', ( #204, #683, #305, #118, #431, #247, #678, #427, #201, #358 ) ) ;
#249 = DIRECTION ( 'NONE',  ( 0.000000000000000000, 1.000000000000000000, 0.000000000000000000 ) ) ;
#250 = CIRCLE ( 'NONE', #553, 132.1387191824119043 ) ;
#251 = CARTESIAN_POINT ( 'NONE',  ( -115.4182389825158879, 17.50000000000000000, -55.08974596215573172 ) ) ;
#252 = ORIENTED_EDGE ( 'NONE', *, *, #754, .T. ) ;
#253 = ORIENTED_EDGE ( 'NONE', *, *, #749, .T. ) ;
#254 = DIRECTION ( 'NONE',  ( -0.7071067811865465735, 0.7071067811865485719, 0.000000000000000000 ) ) ;
#255 = CARTESIAN_POINT ( 'NONE',  ( 0.000000000000000000, 30.00000000000000000, 132.5000000000000000 ) ) ;
#256 = ADVANCED_FACE ( 'NONE', ( #114 ), #130, .F. ) ;
#257 = ORIENTED_EDGE ( 'NONE', *, *, #436, .T. ) ;
#258 = VERTEX_POINT ( 'NONE', #67 ) ;
#259 = DIRECTION ( 'NONE',  ( 0.000000000000000000, -0.000000000000000000, 1.000000000000000000 ) ) ;
#260 = AXIS2_PLACEMENT_3D ( 'NONE', #542, #598, #672 ) ;
#261 = FACE_OUTER_BOUND ( 'NONE', #28, .T. ) ;
#262 = VERTEX_POINT ( 'NONE', #535 ) ;
#263 = LINE ( 'NONE', #184, #229 ) ;
#264 = AXIS2_PLACEMENT_3D ( 'NONE', #458, #34, #513 ) ;
#265 = CARTESIAN_POINT ( 'NONE',  ( -119.7390595646440943, 22.50000000000001776, -51.81087019647126368 ) ) ;
#266 = EDGE_CURVE ( 'NONE', #25, #371, #716, .T. ) ;
#267 = VERTEX_POINT ( 'NONE', #121 ) ;
#268 = COORDINATED_UNIVERSAL_TIME_OFFSET ( 6, 0, .BEHIND. ) ;
#269 = CARTESIAN_POINT ( 'NONE',  ( -119.7390595646440943, 22.50000000000001776, -51.81087019647126368 ) ) ;
#270 = CARTESIAN_POINT ( 'NONE',  ( -121.5106902882356366, 13.71572875253816726, -52.83372167164144884 ) ) ;
#271 = CARTESIAN_POINT ( 'NONE',  ( 0.000000000000000000, 5.350000000000000533, 0.000000000000000000 ) ) ;
#272 = PERSON_AND_ORGANIZATION_ROLE ( 'creator' ) ;
#273 = EDGE_CURVE ( 'NONE', #571, #371, #481, .T. ) ;
#274 = CARTESIAN_POINT ( 'NONE',  ( 6.071532165918824042E-15, 17.49999999999999645, 127.5000000000000000 ) ) ;
#275 = VECTOR ( 'NONE', #410, 1000.000000000000000 ) ;
#276 = DIRECTION ( 'NONE',  ( 0.000000000000000000, 0.000000000000000000, 1.000000000000000000 ) ) ;
#277 = DIRECTION ( 'NONE',  ( 0.000000000000000000, 0.000000000000000000, 1.000000000000000000 ) ) ;
#278 = DIRECTION ( 'NONE',  ( 0.000000000000000000, 1.000000000000000000, 0.000000000000000000 ) ) ;
#279 = EDGE_CURVE ( 'NONE', #58, #610, #778, .T. ) ;
#280 = MANIFOLD_SOLID_BREP ( 'Fillet1', #440 ) ;
#281 = CIRCLE ( 'NONE', #71, 125.0000000000000000 ) ;
#282 = DIRECTION ( 'NONE',  ( -0.000000000000000000, -1.000000000000000000, -0.000000000000000000 ) ) ;
#283 = CARTESIAN_POINT ( 'NONE',  ( 2.012279232133102036E-13, 154.5000000000009379, -3.485369869070206791E-13 ) ) ;
#284 = EDGE_CURVE ( 'NONE', #673, #25, #781, .T. ) ;
#285 = LINE ( 'NONE', #771, #662 ) ;
#286 = APPROVAL_STATUS ( 'not_yet_approved' ) ;
#287 = CARTESIAN_POINT ( 'NONE',  ( 0.000000000000000000, 0.000000000000000000, 0.000000000000000000 ) ) ;
#288 = CARTESIAN_POINT ( 'NONE',  ( -13.33642733201674346, 9.163572667983235220, 131.8377529704577569 ) ) ;
#289 = VECTOR ( 'NONE', #487, 1000.000000000000000 ) ;
#290 = APPROVAL_STATUS ( 'not_yet_approved' ) ;
#291 = APPROVAL ( #286, 'UNSPECIFIED' ) ;
#292 = DIRECTION ( 'NONE',  ( -0.000000000000000000, -1.000000000000000000, -0.000000000000000000 ) ) ;
#293 = VECTOR ( 'NONE', #555, 1000.000000000000000 ) ;
#294 = CARTESIAN_POINT ( 'NONE',  ( 1.530806911370233923E-15, 17.49999999999999645, 127.5000000000000000 ) ) ;
#295 = CARTESIAN_POINT ( 'NONE',  ( 0.000000000000000000, 30.00000000000000000, 132.5000000000000000 ) ) ;
#296 = ORIENTED_EDGE ( 'NONE', *, *, #608, .T. ) ;
#297 = VECTOR ( 'NONE', #362, 1000.000000000000000 ) ;
#298 = EDGE_CURVE ( 'NONE', #74, #378, #299, .T. ) ;
#299 = LINE ( 'NONE', #784, #29 ) ;
#300 = ORIENTED_EDGE ( 'NONE', *, *, #304, .T. ) ;
#301 = LOCAL_TIME ( 20, 19, 0.000000000000000000, #268 ) ;
#302 = ORIENTED_EDGE ( 'NONE', *, *, #649, .T. ) ;
#303 = PLANE ( 'NONE',  #51 ) ;
#304 = EDGE_CURVE ( 'NONE', #367, #415, #401, .T. ) ;
#305 = ORIENTED_EDGE ( 'NONE', *, *, #436, .F. ) ;
#306 = ORIENTED_EDGE ( 'NONE', *, *, #389, .T. ) ;
#307 = CARTESIAN_POINT ( 'NONE',  ( -15.00000000000000178, 7.499999999999975131, 127.5000000000000000 ) ) ;
#308 = LINE ( 'NONE', #295, #289 ) ;
#309 = ORIENTED_EDGE ( 'NONE', *, *, #470, .T. ) ;
#310 = ORIENTED_EDGE ( 'NONE', *, *, #22, .F. ) ;
#311 = FACE_OUTER_BOUND ( 'NONE', #536, .T. ) ;
#312 = CARTESIAN_POINT ( 'NONE',  ( -15.00000000000000533, 13.71572875253816726, 131.6482054568158446 ) ) ;
#313 = VERTEX_POINT ( 'NONE', #417 ) ;
#314 = VERTEX_POINT ( 'NONE', #663 ) ;
#315 = LINE ( 'NONE', #307, #293 ) ;
#316 = AXIS2_PLACEMENT_3D ( 'NONE', #90, #584, #521 ) ;
#317 = CARTESIAN_POINT ( 'NONE',  ( 0.000000000000000000, 30.00000000000000000, 132.5000000000000000 ) ) ;
#318 = CARTESIAN_POINT ( 'NONE',  ( -11.25000000000001066, 11.24999999999997513, 127.5000000000000000 ) ) ;
#319 = VERTEX_POINT ( 'NONE', #5 ) ;
#320 = CARTESIAN_POINT ( 'NONE',  ( 3.749999999999987121, 3.749999999999976907, 127.5000000000000000 ) ) ;
#321 = CARTESIAN_POINT ( 'NONE',  ( -110.4182389825158879, 4.499279347985574137E-31, -63.75000000000011369 ) ) ;
#322 = EDGE_LOOP ( 'NONE', ( #309, #174, #554, #123, #253, #665, #182, #115, #138, #131, #490 ) ) ;
#323 = ORIENTED_EDGE ( 'NONE', *, *, #649, .F. ) ;
#324 = CARTESIAN_POINT ( 'NONE',  ( 3.749999999999987121, 3.749999999999976907, 127.5000000000000000 ) ) ;
#325 = VECTOR ( 'NONE', #385, 1000.000000000000000 ) ;
#326 = EDGE_CURVE ( 'NONE', #314, #367, #78, .T. ) ;
#327 = LINE ( 'NONE', #682, #325 ) ;
#328 = ORIENTED_EDGE ( 'NONE', *, *, #528, .T. ) ;
#329 = VECTOR ( 'NONE', #622, 1000.000000000000000 ) ;
#330 = LINE ( 'NONE', #686, #373 ) ;
#331 = ORIENTED_EDGE ( 'NONE', *, *, #695, .F. ) ;
#332 = EDGE_CURVE ( 'NONE', #74, #89, #198, .T. ) ;
#333 = DIRECTION ( 'NONE',  ( 1.000000000000000000, 0.000000000000000000, 0.000000000000000000 ) ) ;
#334 = DIRECTION ( 'NONE',  ( 0.8660254037844378194, 0.000000000000000000, 0.5000000000000013323 ) ) ;
#335 = CARTESIAN_POINT ( 'NONE',  ( 0.000000000000000000, 13.71572875253816726, 0.000000000000000000 ) ) ;
#336 = EDGE_CURVE ( 'NONE', #660, #314, #330, .T. ) ;
#337 = DIRECTION ( 'NONE',  ( -0.8660254037844381525, -0.000000000000000000, -0.5000000000000007772 ) ) ;
#338 = CIRCLE ( 'NONE', #260, 132.5000000000000000 ) ;
#339 = CARTESIAN_POINT ( 'NONE',  ( -15.00000000000000178, -1.734723475976802164E-15, 127.5000000000000000 ) ) ;
#340 = PERSON_AND_ORGANIZATION ( #718, #172 ) ;
#341 = DIRECTION ( 'NONE',  ( 0.000000000000000000, -0.6546536707079780859, 0.7559289460184536180 ) ) ;
#342 = EDGE_CURVE ( 'NONE', #660, #267, #738, .T. ) ;
#343 = CARTESIAN_POINT ( 'NONE',  ( -15.00000000000000178, 7.499999999999975131, 127.5000000000000000 ) ) ;
#344 = DATE_AND_TIME ( #102, #537 ) ;
#345 = DIRECTION ( 'NONE',  ( 0.000000000000000000, -0.6546536707079778639, -0.7559289460184538401 ) ) ;
#346 = DIRECTION ( 'NONE',  ( 0.000000000000000000, -2.688821387764050602E-15, 1.000000000000000000 ) ) ;
#347 = DIRECTION ( 'NONE',  ( -1.000000000000000000, 3.469446951953614189E-16, 0.000000000000000000 ) ) ;
#348 = DIRECTION ( 'NONE',  ( 0.000000000000000000, 0.000000000000000000, -1.000000000000000000 ) ) ;
#349 = AXIS2_PLACEMENT_3D ( 'NONE', #477, #723, #176 ) ;
#350 = CARTESIAN_POINT ( 'NONE',  ( -9.999999999999998224, 12.49999999999999289, 132.1221026172381414 ) ) ;
#351 = AXIS2_PLACEMENT_3D ( 'NONE', #35, #211, #345 ) ;
#352 = DIRECTION ( 'NONE',  ( -0.8660254037844381525, -0.000000000000000000, -0.5000000000000007772 ) ) ;
#353 = ORIENTED_EDGE ( 'NONE', *, *, #298, .T. ) ;
#354 = EDGE_CURVE ( 'NONE', #424, #503, #15, .T. ) ;
#355 = UNCERTAINTY_MEASURE_WITH_UNIT (LENGTH_MEASURE( 1.000000000000000082E-05 ), #23, 'distance_accuracy_value', 'NONE');
#356 = CARTESIAN_POINT ( 'NONE',  ( 0.000000000000000000, 0.000000000000000000, 0.000000000000000000 ) ) ;
#357 = ADVANCED_BREP_SHAPE_REPRESENTATION ( 'guide rails', ( #280, #412 ), #763 ) ;
#358 = ORIENTED_EDGE ( 'NONE', *, *, #161, .T. ) ;
#359 = VECTOR ( 'NONE', #473, 1000.000000000000114 ) ;
#360 = ORIENTED_EDGE ( 'NONE', *, *, #754, .F. ) ;
#361 = EDGE_CURVE ( 'NONE', #610, #367, #192, .T. ) ;
#362 = DIRECTION ( 'NONE',  ( 0.000000000000000000, 0.000000000000000000, -1.000000000000000000 ) ) ;
#363 = ORIENTED_EDGE ( 'NONE', *, *, #273, .T. ) ;
#364 = CIRCLE ( 'NONE', #518, 132.5000000000000000 ) ;
#365 = ORIENTED_EDGE ( 'NONE', *, *, #14, .F. ) ;
#366 = CARTESIAN_POINT ( 'NONE',  ( -114.7483660014378017, 0.000000000000000000, -66.25000000000055422 ) ) ;
#367 = VERTEX_POINT ( 'NONE', #140 ) ;
#368 = ORIENTED_EDGE ( 'NONE', *, *, #533, .F. ) ;
#369 = CARTESIAN_POINT ( 'NONE',  ( -15.00000000000000533, 30.00000000000000000, 131.6482054568158446 ) ) ;
#370 = DIRECTION ( 'NONE',  ( 0.000000000000000000, 1.000000000000000000, 0.000000000000000000 ) ) ;
#371 = VERTEX_POINT ( 'NONE', #435 ) ;
#372 = B_SPLINE_CURVE_WITH_KNOTS ( 'NONE', 3,
 ( #270, #394, #628, #502, #388, #380, #19, #265 ),
 .UNSPECIFIED., .F., .F.,
 ( 4, 2, 2, 4 ),
 ( 0.000000000000000000, 0.004517773816872527187, 0.006776660725308782107, 0.009035547633745037027 ),
 .UNSPECIFIED. ) ;
#373 = VECTOR ( 'NONE', #448, 1000.000000000000114 ) ;
#374 = ORIENTED_EDGE ( 'NONE', *, *, #116, .F. ) ;
#375 = CARTESIAN_POINT ( 'NONE',  ( 0.000000000000000000, 27.85786437626908096, 126.6421356237310221 ) ) ;
#376 = DIRECTION ( 'NONE',  ( 1.224646799147353454E-16, -1.000000000000000000, 0.000000000000000000 ) ) ;
#377 = FACE_OUTER_BOUND ( 'NONE', #54, .T. ) ;
#378 = VERTEX_POINT ( 'NONE', #146 ) ;
#379 = FACE_OUTER_BOUND ( 'NONE', #132, .T. ) ;
#380 = CARTESIAN_POINT ( 'NONE',  ( -120.2882450003767616, 21.11242427672955912, -52.12794255562655366 ) ) ;
#381 = ORIENTED_EDGE ( 'NONE', *, *, #523, .T. ) ;
#382 = ORIENTED_EDGE ( 'NONE', *, *, #63, .T. ) ;
#383 = DIRECTION ( 'NONE',  ( -6.938893903907228378E-16, 1.000000000000000000, 0.000000000000000000 ) ) ;
#384 = EDGE_CURVE ( 'NONE', #170, #319, #24, .T. ) ;
#385 = DIRECTION ( 'NONE',  ( 0.000000000000000000, 0.000000000000000000, -1.000000000000000000 ) ) ;
#386 = ORIENTED_EDGE ( 'NONE', *, *, #666, .T. ) ;
#387 = CIRCLE ( 'NONE', #576, 125.0000000000000000 ) ;
#388 = CARTESIAN_POINT ( 'NONE',  ( -120.7323981010785729, 19.67393444077418252, -52.38437446787814622 ) ) ;
#389 = EDGE_CURVE ( 'NONE', #673, #571, #387, .T. ) ;
#390 = ORIENTED_EDGE ( 'NONE', *, *, #608, .F. ) ;
#391 = PERSON_AND_ORGANIZATION ( #718, #172 ) ;
#392 = DIRECTION ( 'NONE',  ( -1.000000000000000000, -6.938893903907228378E-16, 0.000000000000000000 ) ) ;
#393 = VECTOR ( 'NONE', #442, 1000.000000000000000 ) ;
#394 = CARTESIAN_POINT ( 'NONE',  ( -121.5106902882356508, 15.24337095957519317, -52.83372167164145594 ) ) ;
#395 = LINE ( 'NONE', #691, #105 ) ;
#396 = PERSON_AND_ORGANIZATION_ROLE ( 'design_owner' ) ;
#397 = DIRECTION ( 'NONE',  ( 0.000000000000000000, 0.000000000000000000, 1.000000000000000000 ) ) ;
#398 = DIRECTION ( 'NONE',  ( 0.000000000000000000, -1.000000000000000000, 0.000000000000000000 ) ) ;
#399 = EDGE_CURVE ( 'NONE', #147, #552, #752, .T. ) ;
#400 = CARTESIAN_POINT ( 'NONE',  ( -117.9182389825159021, -1.734723475976802164E-15, -50.75961894323354073 ) ) ;
#401 = CIRCLE ( 'NONE', #349, 132.1387191824119611 ) ;
#402 = FACE_OUTER_BOUND ( 'NONE', #745, .T. ) ;
#403 = DIRECTION ( 'NONE',  ( 0.5000000000000008882, 1.156482317317868274E-16, -0.8660254037844382635 ) ) ;
#404 = VECTOR ( 'NONE', #517, 1000.000000000000000 ) ;
#405 = LINE ( 'NONE', #652, #46 ) ;
#406 = EDGE_CURVE ( 'NONE', #735, #722, #327, .T. ) ;
#407 = CARTESIAN_POINT ( 'NONE',  ( -9.999999999999998224, 12.49999999999999289, 127.5000000000000000 ) ) ;
#408 = CARTESIAN_POINT ( 'NONE',  ( 2.143131898507867854E-15, 12.50000000000000000, 127.5000000000000000 ) ) ;
#409 = ORIENTED_EDGE ( 'NONE', *, *, #705, .F. ) ;
#410 = DIRECTION ( 'NONE',  ( -0.000000000000000000, -0.000000000000000000, 1.000000000000000000 ) ) ;
#411 = EDGE_CURVE ( 'NONE', #313, #610, #372, .T. ) ;
#412 = AXIS2_PLACEMENT_3D ( 'NONE', #636, #277, #333 ) ;
#413 = AXIS2_PLACEMENT_3D ( 'NONE', #335, #512, #276 ) ;
#414 = LINE ( 'NONE', #472, #275 ) ;
#415 = VERTEX_POINT ( 'NONE', #153 ) ;
#416 = ADVANCED_FACE ( 'NONE', ( #261 ), #557, .F. ) ;
#417 = CARTESIAN_POINT ( 'NONE',  ( -121.5106902882356366, 13.71572875253816726, -52.83372167164144884 ) ) ;
#418 = ORIENTED_EDGE ( 'NONE', *, *, #186, .F. ) ;
#419 = CIRCLE ( 'NONE', #589, 126.6421356237309794 ) ;
#420 = ORIENTED_EDGE ( 'NONE', *, *, #116, .T. ) ;
#421 = LINE ( 'NONE', #240, #706 ) ;
#422 = ORIENTED_EDGE ( 'NONE', *, *, #336, .F. ) ;
#423 = APPROVAL_PERSON_ORGANIZATION ( #340, #291, #709 ) ;
#424 = VERTEX_POINT ( 'NONE', #511 ) ;
#425 = CARTESIAN_POINT ( 'NONE',  ( -115.4182389825158879, 12.49999999999999289, -55.08974596215573172 ) ) ;
#426 = DIRECTION ( 'NONE',  ( -0.3535533905932737864, 0.7071067811865484609, 0.6123724356957933601 ) ) ;
#427 = ORIENTED_EDGE ( 'NONE', *, *, #220, .F. ) ;
#428 = ORIENTED_EDGE ( 'NONE', *, *, #279, .F. ) ;
#429 = LINE ( 'NONE', #751, #393 ) ;
#430 = CARTESIAN_POINT ( 'NONE',  ( -119.5669006276781374, 19.22182311991834069, -55.49678679620328836 ) ) ;
#431 = ORIENTED_EDGE ( 'NONE', *, *, #237, .T. ) ;
#432 = VECTOR ( 'NONE', #337, 1000.000000000000227 ) ;
#433 = VERTEX_POINT ( 'NONE', #638 ) ;
#434 = CARTESIAN_POINT ( 'NONE',  ( -110.4182389825158879, 12.50000000000000000, -63.75000000000009948 ) ) ;
#435 = CARTESIAN_POINT ( 'NONE',  ( 0.000000000000000000, 5.350000000000000533, 122.5000000000000142 ) ) ;
#436 = EDGE_CURVE ( 'NONE', #552, #313, #72, .T. ) ;
#437 = ORIENTED_EDGE ( 'NONE', *, *, #361, .T. ) ;
#438 = ORIENTED_EDGE ( 'NONE', *, *, #342, .T. ) ;
#439 = CARTESIAN_POINT ( 'NONE',  ( 0.000000000000000000, 27.85786437626903833, 0.000000000000000000 ) ) ;
#440 = CLOSED_SHELL ( 'NONE', ( #136, #623, #416, #76, #780, #256, #40, #725, #582, #614, #45, #125, #720, #145, #210, #504, #467, #484, #178, #785, #83, #443 ) ) ;
#441 = ORIENTED_EDGE ( 'NONE', *, *, #384, .F. ) ;
#442 = DIRECTION ( 'NONE',  ( -0.000000000000000000, -1.000000000000000000, -0.000000000000000000 ) ) ;
#443 = ADVANCED_FACE ( 'NONE', ( #676 ), #677, .T. ) ;
#444 = DIRECTION ( 'NONE',  ( -0.000000000000000000, 1.000000000000000000, -0.000000000000000000 ) ) ;
#445 = ORIENTED_EDGE ( 'NONE', *, *, #332, .F. ) ;
#446 = SECURITY_CLASSIFICATION_LEVEL ( 'unclassified' ) ;
#447 = CARTESIAN_POINT ( 'NONE',  ( 0.000000000000000000, 154.5000000000009379, 0.000000000000000000 ) ) ;
#448 = DIRECTION ( 'NONE',  ( -0.5000000000000007772, 3.469446951953613696E-16, 0.8660254037844381525 ) ) ;
#449 = DIRECTION ( 'NONE',  ( -1.000000000000000000, 3.469446951953614189E-16, 0.000000000000000000 ) ) ;
#450 = CALENDAR_DATE ( 2025, 25, 9 ) ;
#451 = DIRECTION ( 'NONE',  ( 0.000000000000000000, 0.000000000000000000, 1.000000000000000000 ) ) ;
#452 = AXIS2_PLACEMENT_3D ( 'NONE', #274, #711, #347 ) ;
#453 = LINE ( 'NONE', #468, #766 ) ;
#454 = AXIS2_PLACEMENT_3D ( 'NONE', #318, #558, #587 ) ;
#455 = PERSON_AND_ORGANIZATION ( #718, #172 ) ;
#456 = FACE_OUTER_BOUND ( 'NONE', #322, .T. ) ;
#457 = FACE_OUTER_BOUND ( 'NONE', #782, .T. ) ;
#458 = CARTESIAN_POINT ( 'NONE',  ( -110.4182389825158879, 0.000000000000000000, -63.75000000000011369 ) ) ;
#459 = CARTESIAN_POINT ( 'NONE',  ( -110.4182389825158879, 17.49999999999999645, -63.75000000000011369 ) ) ;
#460 = CONICAL_SURFACE ( 'NONE', #97, 124.5000000000000853, 0.7853981633974447263 ) ;
#461 = CARTESIAN_POINT ( 'NONE',  ( -116.0432389825159021, 11.24999999999997513, -54.00721420742517154 ) ) ;
#462 =( BOUNDED_CURVE ( )  B_SPLINE_CURVE ( 3, ( #18, #746, #611, #75 ),
 .UNSPECIFIED., .F., .F. ) 
 B_SPLINE_CURVE_WITH_KNOTS ( ( 4, 4 ),
 ( 4.787932510281287080, 4.825839743203260923 ),
 .UNSPECIFIED. ) 
 CURVE ( )  GEOMETRIC_REPRESENTATION_ITEM ( )  RATIONAL_B_SPLINE_CURVE ( ( 1.000000000000000000, 0.9998802570591145411, 0.9998802570591145411, 1.000000000000000000 ) ) 
 REPRESENTATION_ITEM ( '' )  );
#463 = EDGE_CURVE ( 'NONE', #21, #674, #419, .T. ) ;
#464 =( NAMED_UNIT ( * ) SI_UNIT ( $, .STERADIAN. ) SOLID_ANGLE_UNIT ( ) );
#465 = PLANE ( 'NONE',  #452 ) ;
#466 = DIRECTION ( 'NONE',  ( 1.000000000000000000, 0.000000000000000000, 0.000000000000000000 ) ) ;
#467 = ADVANCED_FACE ( 'NONE', ( #633 ), #9, .T. ) ;
#468 = CARTESIAN_POINT ( 'NONE',  ( -114.7483660014378302, 0.000000000000000000, -66.25000000000054001 ) ) ;
#469 = DATE_TIME_ROLE ( 'classification_date' ) ;
#470 = EDGE_CURVE ( 'NONE', #660, #415, #581, .T. ) ;
#471 = AXIS2_PLACEMENT_3D ( 'NONE', #356, #370, #612 ) ;
#472 = CARTESIAN_POINT ( 'NONE',  ( -9.999999999999998224, 12.49999999999999289, 127.5000000000000000 ) ) ;
#473 = DIRECTION ( 'NONE',  ( 0.8660254037844378194, -0.000000000000000000, 0.5000000000000013323 ) ) ;
#474 = EDGE_CURVE ( 'NONE', #258, #80, #39, .T. ) ;
#475 = ORIENTED_EDGE ( 'NONE', *, *, #528, .F. ) ;
#476 = AXIS2_PLACEMENT_3D ( 'NONE', #515, #762, #137 ) ;
#477 = CARTESIAN_POINT ( 'NONE',  ( 0.000000000000000000, 17.50000000000000000, 0.000000000000000000 ) ) ;
#478 = ORIENTED_EDGE ( 'NONE', *, *, #48, .T. ) ;
#479 = EDGE_LOOP ( 'NONE', ( #257, #128, #428, #386, #736 ) ) ;
#480 = B_SPLINE_CURVE_WITH_KNOTS ( 'NONE', 3,
 ( #770, #227, #162, #648 ),
 .UNSPECIFIED., .F., .F.,
 ( 4, 4 ),
 ( 0.000000000000000000, 0.007392825606000656344 ),
 .UNSPECIFIED. ) ;
#481 = LINE ( 'NONE', #659, #297 ) ;
#482 = ORIENTED_EDGE ( 'NONE', *, *, #406, .F. ) ;
#483 = AXIS2_PLACEMENT_3D ( 'NONE', #255, #212, #690 ) ;
#484 = ADVANCED_FACE ( 'NONE', ( #92 ), #156, .T. ) ;
#485 = ORIENTED_EDGE ( 'NONE', *, *, #705, .T. ) ;
#486 = LINE ( 'NONE', #546, #124 ) ;
#487 = DIRECTION ( 'NONE',  ( -0.000000000000000000, -1.000000000000000000, -0.000000000000000000 ) ) ;
#488 = ORIENTED_EDGE ( 'NONE', *, *, #266, .F. ) ;
#489 = AXIS2_PLACEMENT_3D ( 'NONE', #585, #108, #99 ) ;
#490 = ORIENTED_EDGE ( 'NONE', *, *, #342, .F. ) ;
#491 = CARTESIAN_POINT ( 'NONE',  ( 0.000000000000000000, 5.349999999999999645, 0.000000000000000000 ) ) ;
#492 = DIRECTION ( 'NONE',  ( -0.8660254037844381525, -0.000000000000000000, -0.5000000000000007772 ) ) ;
#493 = ORIENTED_EDGE ( 'NONE', *, *, #399, .F. ) ;
#494 = ORIENTED_EDGE ( 'NONE', *, *, #242, .F. ) ;
#495 = LINE ( 'NONE', #434, #697 ) ;
#496 = EDGE_CURVE ( 'NONE', #267, #626, #640, .T. ) ;
#497 = CARTESIAN_POINT ( 'NONE',  ( 0.000000000000000000, 13.71572875253816726, 0.000000000000000000 ) ) ;
#498 = EDGE_LOOP ( 'NONE', ( #739, #545, #239, #360, #331 ) ) ;
#499 = AXIS2_PLACEMENT_3D ( 'NONE', #519, #292, #768 ) ;
#500 = ORIENTED_EDGE ( 'NONE', *, *, #326, .F. ) ;
#501 = CARTESIAN_POINT ( 'NONE',  ( 0.000000000000000000, 0.000000000000000000, 132.5000000000000000 ) ) ;
#502 = CARTESIAN_POINT ( 'NONE',  ( -120.9169358403185868, 18.94561920983221626, -52.49091738130400131 ) ) ;
#503 = VERTEX_POINT ( 'NONE', #27 ) ;
#504 = ADVANCED_FACE ( 'NONE', ( #103 ), #522, .T. ) ;
#505 = CIRCLE ( 'NONE', #489, 20.00000000000000711 ) ;
#506 = DIRECTION ( 'NONE',  ( 1.156482317317868027E-16, -1.000000000000000000, 0.000000000000000000 ) ) ;
#507 = CARTESIAN_POINT ( 'NONE',  ( -9.999999999999998224, 17.50000000000000000, 127.5000000000000000 ) ) ;
#508 = VERTEX_POINT ( 'NONE', #699 ) ;
#509 = DATE_AND_TIME ( #698, #301 ) ;
#510 = PLANE ( 'NONE',  #748 ) ;
#511 = CARTESIAN_POINT ( 'NONE',  ( -9.999999999999998224, 17.50000000000000000, 127.5000000000000000 ) ) ;
#512 = DIRECTION ( 'NONE',  ( 0.000000000000000000, -1.000000000000000000, 0.000000000000000000 ) ) ;
#513 = DIRECTION ( 'NONE',  ( 0.5000000000000007772, 0.000000000000000000, -0.8660254037844381525 ) ) ;
#514 = CARTESIAN_POINT ( 'NONE',  ( 0.000000000000000000, 17.49999999999999645, 0.000000000000000000 ) ) ;
#515 = CARTESIAN_POINT ( 'NONE',  ( 0.000000000000000000, 5.349999999999999645, 0.000000000000000000 ) ) ;
#516 = MECHANICAL_CONTEXT ( 'NONE', #687, 'mechanical' ) ;
#517 = DIRECTION ( 'NONE',  ( -0.000000000000000000, -0.000000000000000000, 1.000000000000000000 ) ) ;
#518 = AXIS2_PLACEMENT_3D ( 'NONE', #617, #383, #12 ) ;
#519 = CARTESIAN_POINT ( 'NONE',  ( 0.000000000000000000, 30.00000000000000000, 0.000000000000000000 ) ) ;
#520 = CC_DESIGN_SECURITY_CLASSIFICATION ( #635, ( #776 ) ) ;
#521 = DIRECTION ( 'NONE',  ( 0.000000000000000000, -0.000000000000000000, 1.000000000000000000 ) ) ;
#522 = PLANE ( 'NONE',  #351 ) ;
#523 = EDGE_CURVE ( 'NONE', #378, #503, #250, .T. ) ;
#524 = DIRECTION ( 'NONE',  ( 0.000000000000000000, 0.000000000000000000, -1.000000000000000000 ) ) ;
#525 = APPROVAL_DATE_TIME ( #30, #291 ) ;
#526 = DIRECTION ( 'NONE',  ( 0.000000000000000000, -0.7071067811865499042, 0.7071067811865451302 ) ) ;
#527 = CARTESIAN_POINT ( 'NONE',  ( -15.00000000000000178, 7.499999999999975131, 131.6482054568158446 ) ) ;
#528 = EDGE_CURVE ( 'NONE', #503, #69, #480, .T. ) ;
#529 = PRODUCT_DEFINITION_SHAPE ( 'NONE', 'NONE',  #61 ) ;
#530 = CARTESIAN_POINT ( 'NONE',  ( -114.7483660014378017, 30.00000000000000000, -66.25000000000055422 ) ) ;
#531 = APPROVAL_DATE_TIME ( #107, #101 ) ;
#532 = CARTESIAN_POINT ( 'NONE',  ( -15.00000000000000178, 21.12941847249550165, 130.2770440601136670 ) ) ;
#533 = EDGE_CURVE ( 'NONE', #177, #735, #164, .T. ) ;
#534 = AXIS2_PLACEMENT_3D ( 'NONE', #339, #590, #163 ) ;
#535 = CARTESIAN_POINT ( 'NONE',  ( -108.2531754730545401, 0.000000000000000000, -62.50000000000052580 ) ) ;
#536 = EDGE_LOOP ( 'NONE', ( #559, #328, #195, #127 ) ) ;
#537 = LOCAL_TIME ( 20, 19, 0.000000000000000000, #98 ) ;
#538 = DIRECTION ( 'NONE',  ( 0.000000000000000000, 0.000000000000000000, 1.000000000000000000 ) ) ;
#539 = ORIENTED_EDGE ( 'NONE', *, *, #22, .T. ) ;
#540 = CALENDAR_DATE ( 2025, 25, 9 ) ;
#541 = EDGE_LOOP ( 'NONE', ( #726, #437, #500, #548 ) ) ;
#542 = CARTESIAN_POINT ( 'NONE',  ( 0.000000000000000000, 12.50000000000000000, 0.000000000000000000 ) ) ;
#543 = EDGE_CURVE ( 'NONE', #415, #21, #505, .T. ) ;
#544 = ORIENTED_EDGE ( 'NONE', *, *, #463, .T. ) ;
#545 = ORIENTED_EDGE ( 'NONE', *, *, #166, .T. ) ;
#546 = CARTESIAN_POINT ( 'NONE',  ( 0.000000000000000000, 30.00000000000000000, 122.5000000000000142 ) ) ;
#547 = CARTESIAN_POINT ( 'NONE',  ( -110.4182389825158879, 12.50000000000000000, -63.75000000000009948 ) ) ;
#548 = ORIENTED_EDGE ( 'NONE', *, *, #186, .T. ) ;
#549 = ORIENTED_EDGE ( 'NONE', *, *, #273, .F. ) ;
#550 = CARTESIAN_POINT ( 'NONE',  ( -114.7483660014378302, 30.00000000000000000, -66.25000000000054001 ) ) ;
#551 = DIRECTION ( 'NONE',  ( -0.000000000000000000, 1.000000000000000000, -0.000000000000000000 ) ) ;
#552 = VERTEX_POINT ( 'NONE', #693 ) ;
#553 = AXIS2_PLACEMENT_3D ( 'NONE', #514, #158, #451 ) ;
#554 = ORIENTED_EDGE ( 'NONE', *, *, #556, .T. ) ;
#555 = DIRECTION ( 'NONE',  ( -0.000000000000000000, -0.000000000000000000, 1.000000000000000000 ) ) ;
#556 = EDGE_CURVE ( 'NONE', #21, #258, #95, .T. ) ;
#557 = PLANE ( 'NONE',  #483 ) ;
#558 = DIRECTION ( 'NONE',  ( 0.7071067811865486830, -0.7071067811865464625, 0.000000000000000000 ) ) ;
#559 = ORIENTED_EDGE ( 'NONE', *, *, #354, .T. ) ;
#560 = PLANE ( 'NONE',  #592 ) ;
#561 = DIRECTION ( 'NONE',  ( 6.123233995736777129E-17, -1.000000000000000000, -1.060575238724906668E-16 ) ) ;
#562 = EDGE_CURVE ( 'NONE', #170, #674, #577, .T. ) ;
#563 = ORIENTED_EDGE ( 'NONE', *, *, #48, .F. ) ;
#564 = VECTOR ( 'NONE', #694, 1000.000000000000000 ) ;
#565 = DIRECTION ( 'NONE',  ( 0.7071067811865485719, 0.7071067811865465735, 0.000000000000000000 ) ) ;
#566 = CARTESIAN_POINT ( 'NONE',  ( 0.000000000000000000, 5.349999999999999645, 0.000000000000000000 ) ) ;
#567 = ORIENTED_EDGE ( 'NONE', *, *, #562, .F. ) ;
#568 = VECTOR ( 'NONE', #222, 1000.000000000000114 ) ;
#569 = FACE_OUTER_BOUND ( 'NONE', #599, .T. ) ;
#570 = DIRECTION ( 'NONE',  ( 0.000000000000000000, 1.000000000000000000, 0.000000000000000000 ) ) ;
#571 = VERTEX_POINT ( 'NONE', #31 ) ;
#572 = PERSON_AND_ORGANIZATION ( #718, #172 ) ;
#573 = DIRECTION ( 'NONE',  ( -0.8660254037844381525, 0.000000000000000000, -0.5000000000000007772 ) ) ;
#574 = CYLINDRICAL_SURFACE ( 'NONE', #476, 125.0000000000000000 ) ;
#575 = CALENDAR_DATE ( 2025, 25, 9 ) ;
#576 = AXIS2_PLACEMENT_3D ( 'NONE', #566, #570, #135 ) ;
#577 = LINE ( 'NONE', #447, #112 ) ;
#578 = DIRECTION ( 'NONE',  ( 0.8660254037844378194, 0.000000000000000000, 0.5000000000000013323 ) ) ;
#579 = PLANE ( 'NONE',  #264 ) ;
#580 = PRODUCT ( 'guide rails', 'guide rails', '', ( #516 ) ) ;
#581 = LINE ( 'NONE', #459, #149 ) ;
#582 = ADVANCED_FACE ( 'NONE', ( #774 ), #465, .F. ) ;
#583 = CARTESIAN_POINT ( 'NONE',  ( -117.9182389825159021, 7.499999999999975131, -50.75961894323354073 ) ) ;
#584 = DIRECTION ( 'NONE',  ( 0.000000000000000000, 1.000000000000000000, 0.000000000000000000 ) ) ;
#585 = CARTESIAN_POINT ( 'NONE',  ( -97.42785792574927939, 13.71572875253816726, -56.25000000000016342 ) ) ;
#586 = EDGE_CURVE ( 'NONE', #508, #69, #152, .T. ) ;
#587 = DIRECTION ( 'NONE',  ( 0.7071067811865464625, 0.7071067811865486830, 0.000000000000000000 ) ) ;
#588 = DIRECTION ( 'NONE',  ( 0.7071067811865464625, 0.7071067811865486830, 0.000000000000000000 ) ) ;
#589 = AXIS2_PLACEMENT_3D ( 'NONE', #439, #444, #148 ) ;
#590 = DIRECTION ( 'NONE',  ( -1.000000000000000000, -1.156482317317868027E-16, 0.000000000000000000 ) ) ;
#591 = CC_DESIGN_PERSON_AND_ORGANIZATION_ASSIGNMENT ( #455, #86, ( #776 ) ) ;
#592 = AXIS2_PLACEMENT_3D ( 'NONE', #491, #249, #259 ) ;
#593 = CARTESIAN_POINT ( 'NONE',  ( -117.9182389825159021, 22.50000000000001776, -50.75961894323354073 ) ) ;
#594 = APPROVAL_PERSON_ORGANIZATION ( #600, #101, #44 ) ;
#595 = DIRECTION ( 'NONE',  ( -1.000000000000000000, -6.938893903907228378E-16, 0.000000000000000000 ) ) ;
#596 = ORIENTED_EDGE ( 'NONE', *, *, #666, .F. ) ;
#597 = AXIS2_PLACEMENT_3D ( 'NONE', #777, #100, #466 ) ;
#598 = DIRECTION ( 'NONE',  ( 3.469446951953619612E-16, -1.000000000000000000, -6.009258394948634153E-16 ) ) ;
#599 = EDGE_LOOP ( 'NONE', ( #422, #438, #615, #374, #596, #418 ) ) ;
#600 = PERSON_AND_ORGANIZATION ( #718, #172 ) ;
#601 = ORIENTED_EDGE ( 'NONE', *, *, #109, .F. ) ;
#602 = VECTOR ( 'NONE', #205, 1000.000000000000227 ) ;
#603 = FACE_OUTER_BOUND ( 'NONE', #17, .T. ) ;
#604 = ORIENTED_EDGE ( 'NONE', *, *, #749, .F. ) ;
#605 = ORIENTED_EDGE ( 'NONE', *, *, #406, .T. ) ;
#606 = CARTESIAN_POINT ( 'NONE',  ( -15.00000000000000178, 7.499999999999975131, 131.6482054568158446 ) ) ;
#607 = DIRECTION ( 'NONE',  ( -1.734723475976809806E-16, -1.000000000000000000, 3.004629197474317076E-16 ) ) ;
#608 = EDGE_CURVE ( 'NONE', #59, #85, #405, .T. ) ;
#609 = ORIENTED_EDGE ( 'NONE', *, *, #463, .F. ) ;
#610 = VERTEX_POINT ( 'NONE', #269 ) ;
#611 = CARTESIAN_POINT ( 'NONE',  ( -120.8430569162820376, 9.163572667983251208, -54.36919161997733596 ) ) ;
#612 = DIRECTION ( 'NONE',  ( 0.000000000000000000, -0.000000000000000000, 1.000000000000000000 ) ) ;
#613 = VECTOR ( 'NONE', #334, 1000.000000000000114 ) ;
#614 = ADVANCED_FACE ( 'NONE', ( #760 ), #510, .T. ) ;
#615 = ORIENTED_EDGE ( 'NONE', *, *, #767, .T. ) ;
#616 = EDGE_LOOP ( 'NONE', ( #409, #482, #368, #382 ) ) ;
#617 = CARTESIAN_POINT ( 'NONE',  ( 0.000000000000000000, 12.50000000000000000, 0.000000000000000000 ) ) ;
#618 = CARTESIAN_POINT ( 'NONE',  ( -119.7816645107356379, 20.88941671355417995, -53.69520956152967273 ) ) ;
#619 = ORIENTED_EDGE ( 'NONE', *, *, #714, .F. ) ;
#620 = VECTOR ( 'NONE', #681, 1000.000000000000000 ) ;
#621 = ORIENTED_EDGE ( 'NONE', *, *, #109, .T. ) ;
#622 = DIRECTION ( 'NONE',  ( 0.000000000000000000, 1.000000000000000000, 0.000000000000000000 ) ) ;
#623 = ADVANCED_FACE ( 'NONE', ( #456 ), #703, .T. ) ;
#624 = CARTESIAN_POINT ( 'NONE',  ( -119.1073215458860659, 17.50000000000000000, -57.21963877318025737 ) ) ;
#625 = ORIENTED_EDGE ( 'NONE', *, *, #354, .F. ) ;
#626 = VERTEX_POINT ( 'NONE', #133 ) ;
#627 = LINE ( 'NONE', #369, #329 ) ;
#628 = CARTESIAN_POINT ( 'NONE',  ( -121.3601178477883877, 16.74137888936438046, -52.74678863261670614 ) ) ;
#629 = ORIENTED_EDGE ( 'NONE', *, *, #714, .T. ) ;
#630 = CC_DESIGN_DATE_AND_TIME_ASSIGNMENT ( #168, #469, ( #635 ) ) ;
#631 = CIRCLE ( 'NONE', #134, 122.5000000000000142 ) ;
#632 = APPROVAL_STATUS ( 'not_yet_approved' ) ;
#633 = FACE_OUTER_BOUND ( 'NONE', #479, .T. ) ;
#634 = ORIENTED_EDGE ( 'NONE', *, *, #161, .F. ) ;
#635 = SECURITY_CLASSIFICATION ( '', '', #446 ) ;
#636 = CARTESIAN_POINT ( 'NONE',  ( 0.000000000000000000, 0.000000000000000000, 0.000000000000000000 ) ) ;
#637 = CARTESIAN_POINT ( 'NONE',  ( -114.7483660014378302, 30.00000000000000000, -66.25000000000054001 ) ) ;
#638 = CARTESIAN_POINT ( 'NONE',  ( -15.00000000000000533, 13.71572875253816726, 131.6482054568158446 ) ) ;
#639 = ORIENTED_EDGE ( 'NONE', *, *, #200, .F. ) ;
#640 = LINE ( 'NONE', #707, #432 ) ;
#641 = DIRECTION ( 'NONE',  ( -0.000000000000000000, -1.000000000000000000, -0.000000000000000000 ) ) ;
#642 = EDGE_CURVE ( 'NONE', #664, #433, #627, .T. ) ;
#643 = AXIS2_PLACEMENT_3D ( 'NONE', #271, #126, #538 ) ;
#644 = CARTESIAN_POINT ( 'NONE',  ( -116.0432389825159021, 11.24999999999997513, -54.00721420742517154 ) ) ;
#645 = CARTESIAN_POINT ( 'NONE',  ( -108.2531754730545401, 5.349999999999999645, -62.50000000000052580 ) ) ;
#646 = APPLICATION_PROTOCOL_DEFINITION ( 'international standard', 'config_control_design', 1994, #687 ) ;
#647 = AXIS2_PLACEMENT_3D ( 'NONE', #324, #565, #671 ) ;
#648 = CARTESIAN_POINT ( 'NONE',  ( -15.00000000000000178, 22.50000000000001776, 129.6025025064754743 ) ) ;
#649 = EDGE_CURVE ( 'NONE', #319, #371, #486, .T. ) ;
#650 = CARTESIAN_POINT ( 'NONE',  ( -15.00000000000000178, 22.50000000000001776, 129.6025025064754743 ) ) ;
#651 = AXIS2_PLACEMENT_3D ( 'NONE', #110, #641, #348 ) ;
#652 = CARTESIAN_POINT ( 'NONE',  ( -11.25000000000001066, 11.24999999999997513, 127.5000000000000000 ) ) ;
#653 = PLANE ( 'NONE',  #534 ) ;
#654 = DIRECTION ( 'NONE',  ( -0.000000000000000000, -0.000000000000000000, 1.000000000000000000 ) ) ;
#655 = VECTOR ( 'NONE', #254, 1000.000000000000000 ) ;
#656 = CARTESIAN_POINT ( 'NONE',  ( -15.00000000000000000, 14.47954147398898961, 131.6482054568158446 ) ) ;
#657 = ORIENTED_EDGE ( 'NONE', *, *, #226, .F. ) ;
#658 = APPROVAL ( #632, 'UNSPECIFIED' ) ;
#659 = CARTESIAN_POINT ( 'NONE',  ( 0.000000000000000000, 5.350000000000000533, 132.5000000000000000 ) ) ;
#660 = VERTEX_POINT ( 'NONE', #81 ) ;
#661 = EDGE_CURVE ( 'NONE', #189, #552, #462, .T. ) ;
#662 = VECTOR ( 'NONE', #654, 1000.000000000000000 ) ;
#663 = CARTESIAN_POINT ( 'NONE',  ( -115.4182389825158879, 17.50000000000000000, -55.08974596215573172 ) ) ;
#664 = VERTEX_POINT ( 'NONE', #606 ) ;
#665 = ORIENTED_EDGE ( 'NONE', *, *, #284, .F. ) ;
#666 = EDGE_CURVE ( 'NONE', #58, #147, #4, .T. ) ;
#667 = LOCAL_TIME ( 20, 19, 0.000000000000000000, #764 ) ;
#668 = CARTESIAN_POINT ( 'NONE',  ( 0.000000000000000000, 5.349999999999999645, 125.0000000000000000 ) ) ;
#669 = ORIENTED_EDGE ( 'NONE', *, *, #266, .T. ) ;
#670 = ORIENTED_EDGE ( 'NONE', *, *, #332, .T. ) ;
#671 = DIRECTION ( 'NONE',  ( -0.7071067811865465735, 0.7071067811865485719, 0.000000000000000000 ) ) ;
#672 = DIRECTION ( 'NONE',  ( 0.000000000000000000, 6.022436218485518988E-16, -1.000000000000000000 ) ) ;
#673 = VERTEX_POINT ( 'NONE', #731 ) ;
#674 = VERTEX_POINT ( 'NONE', #375 ) ;
#675 = DIRECTION ( 'NONE',  ( 0.5000000000000014433, 0.000000000000000000, -0.8660254037844379305 ) ) ;
#676 = FACE_OUTER_BOUND ( 'NONE', #11, .T. ) ;
#677 = TOROIDAL_SURFACE ( 'NONE', #692, 112.5000000000000000, 20.00000000000000000 ) ;
#678 = ORIENTED_EDGE ( 'NONE', *, *, #533, .T. ) ;
#679 = EDGE_CURVE ( 'NONE', #188, #79, #364, .T. ) ;
#680 = ORIENTED_EDGE ( 'NONE', *, *, #226, .T. ) ;
#681 = DIRECTION ( 'NONE',  ( 5.782411586589348764E-17, -1.000000000000000000, -1.001543065824769524E-16 ) ) ;
#682 = CARTESIAN_POINT ( 'NONE',  ( 0.000000000000000000, 0.000000000000000000, 132.5000000000000000 ) ) ;
#683 = ORIENTED_EDGE ( 'NONE', *, *, #14, .T. ) ;
#684 = ORIENTED_EDGE ( 'NONE', *, *, #695, .T. ) ;
#685 = DIRECTION ( 'NONE',  ( 0.000000000000000000, 0.000000000000000000, 1.000000000000000000 ) ) ;
#686 = CARTESIAN_POINT ( 'NONE',  ( -110.4182389825158879, 17.49999999999999645, -63.75000000000011369 ) ) ;
#687 = APPLICATION_CONTEXT ( 'configuration controlled 3d designs of mechanical parts and assemblies' ) ;
#688 = ORIENTED_EDGE ( 'NONE', *, *, #496, .T. ) ;
#689 = CARTESIAN_POINT ( 'NONE',  ( 0.000000000000000000, 30.00000000000000000, 0.000000000000000000 ) ) ;
#690 = DIRECTION ( 'NONE',  ( 0.000000000000000000, 0.000000000000000000, 1.000000000000000000 ) ) ;
#691 = CARTESIAN_POINT ( 'NONE',  ( 6.071532165918824042E-15, 17.49999999999999645, 127.5000000000000000 ) ) ;
#692 = AXIS2_PLACEMENT_3D ( 'NONE', #497, #551, #203 ) ;
#693 = CARTESIAN_POINT ( 'NONE',  ( -121.5106902882356508, 7.499999999999975131, -52.83372167164146305 ) ) ;
#694 = DIRECTION ( 'NONE',  ( 0.000000000000000000, 0.000000000000000000, -1.000000000000000000 ) ) ;
#695 = EDGE_CURVE ( 'NONE', #508, #59, #263, .T. ) ;
#696 = CARTESIAN_POINT ( 'NONE',  ( -106.0881119635934340, 5.350000000000000533, -61.25000000000051870 ) ) ;
#697 = VECTOR ( 'NONE', #139, 1000.000000000000114 ) ;
#698 = CALENDAR_DATE ( 2025, 25, 9 ) ;
#699 = CARTESIAN_POINT ( 'NONE',  ( -15.00000000000000178, 22.50000000000001776, 127.5000000000000000 ) ) ;
#700 = EDGE_CURVE ( 'NONE', #258, #170, #216, .T. ) ;
#701 = CARTESIAN_POINT ( 'NONE',  ( 0.000000000000000000, 30.00000000000000000, 0.000000000000000000 ) ) ;
#702 = PERSON_AND_ORGANIZATION ( #718, #172 ) ;
#703 = PLANE ( 'NONE',  #56 ) ;
#704 = CYLINDRICAL_SURFACE ( 'NONE', #651, 122.5000000000000142 ) ;
#705 = EDGE_CURVE ( 'NONE', #722, #262, #281, .T. ) ;
#706 = VECTOR ( 'NONE', #595, 1000.000000000000000 ) ;
#707 = CARTESIAN_POINT ( 'NONE',  ( -110.4182389825158879, 12.50000000000000000, -63.75000000000011369 ) ) ;
#708 = FACE_OUTER_BOUND ( 'NONE', #498, .T. ) ;
#709 = APPROVAL_ROLE ( '' ) ;
#710 = CC_DESIGN_APPROVAL ( #658, ( #61 ) ) ;
#711 = DIRECTION ( 'NONE',  ( 3.469446951953614189E-16, 1.000000000000000000, 0.000000000000000000 ) ) ;
#712 = CARTESIAN_POINT ( 'NONE',  ( 0.000000000000000000, 13.71572875253816726, 112.5000000000000000 ) ) ;
#713 = PRODUCT_RELATED_PRODUCT_CATEGORY ( 'detail', '', ( #580 ) ) ;
#714 = EDGE_CURVE ( 'NONE', #55, #189, #60, .T. ) ;
#715 = CARTESIAN_POINT ( 'NONE',  ( -15.00000000000000355, 16.75778850253142593, 131.4288267184534504 ) ) ;
#716 = CIRCLE ( 'NONE', #643, 122.5000000000000142 ) ;
#717 = DIRECTION ( 'NONE',  ( 3.469446951953619612E-16, -1.000000000000000000, -6.009258394948634153E-16 ) ) ;
#718 = PERSON ( 'UNSPECIFIED', 'UNSPECIFIED', 'UNSPECIFIED', ('UNSPECIFIED'), ('UNSPECIFIED'), ('UNSPECIFIED') ) ;
#719 = DIRECTION ( 'NONE',  ( 0.000000000000000000, -3.004629197474317076E-16, -1.000000000000000000 ) ) ;
#720 = ADVANCED_FACE ( 'NONE', ( #311 ), #190, .F. ) ;
#721 = CIRCLE ( 'NONE', #413, 132.5000000000000000 ) ;
#722 = VERTEX_POINT ( 'NONE', #741 ) ;
#723 = DIRECTION ( 'NONE',  ( 0.000000000000000000, -1.000000000000000000, 0.000000000000000000 ) ) ;
#724 = EDGE_LOOP ( 'NONE', ( #353, #381, #625, #310 ) ) ;
#725 = ADVANCED_FACE ( 'NONE', ( #129 ), #560, .F. ) ;
#726 = ORIENTED_EDGE ( 'NONE', *, *, #279, .T. ) ;
#727 = VECTOR ( 'NONE', #561, 1000.000000000000000 ) ;
#728 = DIRECTION ( 'NONE',  ( 0.000000000000000000, -1.000000000000000000, 0.000000000000000000 ) ) ;
#729 = ORIENTED_EDGE ( 'NONE', *, *, #242, .T. ) ;
#730 = ORIENTED_EDGE ( 'NONE', *, *, #237, .F. ) ;
#731 = CARTESIAN_POINT ( 'NONE',  ( -108.2531754730545401, 5.349999999999999645, -62.50000000000052580 ) ) ;
#732 = APPROVAL_PERSON_ORGANIZATION ( #758, #658, #38 ) ;
#733 = DIRECTION ( 'NONE',  ( 0.000000000000000000, 6.009258394948634153E-16, -1.000000000000000000 ) ) ;
#734 = CC_DESIGN_DATE_AND_TIME_ASSIGNMENT ( #344, #94, ( #61 ) ) ;
#735 = VERTEX_POINT ( 'NONE', #501 ) ;
#736 = ORIENTED_EDGE ( 'NONE', *, *, #399, .T. ) ;
#737 = LOCAL_TIME ( 20, 19, 0.000000000000000000, #783 ) ;
#738 = LINE ( 'NONE', #321, #727 ) ;
#739 = ORIENTED_EDGE ( 'NONE', *, *, #586, .T. ) ;
#740 = ORIENTED_EDGE ( 'NONE', *, *, #336, .T. ) ;
#741 = CARTESIAN_POINT ( 'NONE',  ( 0.000000000000000000, 0.000000000000000000, 125.0000000000000000 ) ) ;
#742 = CARTESIAN_POINT ( 'NONE',  ( -117.9182389825159021, 7.499999999999975131, -50.75961894323354073 ) ) ;
#743 = VECTOR ( 'NONE', #352, 1000.000000000000227 ) ;
#744 = ORIENTED_EDGE ( 'NONE', *, *, #389, .F. ) ;
#745 = EDGE_LOOP ( 'NONE', ( #539, #93, #684, #296, #639, #445 ) ) ;
#746 = CARTESIAN_POINT ( 'NONE',  ( -120.1464424948582348, 10.83043893011819314, -55.89173246654033989 ) ) ;
#747 = CARTESIAN_POINT ( 'NONE',  ( -121.5106902882356366, 30.00000000000000000, -52.83372167164144884 ) ) ;
#748 = AXIS2_PLACEMENT_3D ( 'NONE', #765, #219, #392 ) ;
#749 = EDGE_CURVE ( 'NONE', #80, #25, #429, .T. ) ;
#750 = ORIENTED_EDGE ( 'NONE', *, *, #361, .F. ) ;
#751 = CARTESIAN_POINT ( 'NONE',  ( -106.0881119635934340, 30.00000000000000000, -61.25000000000051870 ) ) ;
#752 = LINE ( 'NONE', #742, #224 ) ;
#753 = ORIENTED_EDGE ( 'NONE', *, *, #284, .T. ) ;
#754 = EDGE_CURVE ( 'NONE', #59, #664, #315, .T. ) ;
#755 = DIRECTION ( 'NONE',  ( -0.3535533905932750076, 0.7071067811865464625, 0.6123724356957952475 ) ) ;
#756 = DIRECTION ( 'NONE',  ( -0.000000000000000000, -0.000000000000000000, 1.000000000000000000 ) ) ;
#757 = ORIENTED_EDGE ( 'NONE', *, *, #679, .T. ) ;
#758 = PERSON_AND_ORGANIZATION ( #718, #172 ) ;
#759 = B_SPLINE_CURVE_WITH_KNOTS ( 'NONE', 3,
 ( #650, #532, #775, #230, #715, #217, #656, #312 ),
 .UNSPECIFIED., .F., .F.,
 ( 4, 2, 2, 4 ),
 ( 0.000000000000000000, 0.004517809069116675291, 0.006776713603675008600, 0.009035618138233334970 ),
 .UNSPECIFIED. ) ;
#760 = FACE_OUTER_BOUND ( 'NONE', #213, .T. ) ;
#761 = EDGE_CURVE ( 'NONE', #424, #508, #8, .T. ) ;
#762 = DIRECTION ( 'NONE',  ( 0.000000000000000000, -1.000000000000000000, 0.000000000000000000 ) ) ;
#763 =( GEOMETRIC_REPRESENTATION_CONTEXT ( 3 ) GLOBAL_UNCERTAINTY_ASSIGNED_CONTEXT ( ( #355 ) ) GLOBAL_UNIT_ASSIGNED_CONTEXT ( ( #23, #225, #464 ) ) REPRESENTATION_CONTEXT ( 'NONE', 'WORKASPACE' ) );
#764 = COORDINATED_UNIVERSAL_TIME_OFFSET ( 6, 0, .BEHIND. ) ;
#765 = CARTESIAN_POINT ( 'NONE',  ( -8.673617379884035472E-15, 12.50000000000000000, 127.5000000000000000 ) ) ;
#766 = VECTOR ( 'NONE', #578, 1000.000000000000114 ) ;
#767 = EDGE_CURVE ( 'NONE', #267, #55, #495, .T. ) ;
#768 = DIRECTION ( 'NONE',  ( 0.000000000000000000, 0.000000000000000000, -1.000000000000000000 ) ) ;
#769 = APPLICATION_PROTOCOL_DEFINITION ( 'international standard', 'config_control_design', 1994, #77 ) ;
#770 = CARTESIAN_POINT ( 'NONE',  ( -9.999999999999998224, 17.50000000000000000, 131.7597856220490371 ) ) ;
#771 = CARTESIAN_POINT ( 'NONE',  ( 2.143131898507867854E-15, 12.50000000000000000, 127.5000000000000000 ) ) ;
#772 = PERSON_AND_ORGANIZATION_ROLE ( 'creator' ) ;
#773 = VECTOR ( 'NONE', #82, 1000.000000000000000 ) ;
#774 = FACE_OUTER_BOUND ( 'NONE', #724, .T. ) ;
#775 = CARTESIAN_POINT ( 'NONE',  ( -15.00000000000000888, 19.70877146611691799, 130.7830868398905864 ) ) ;
#776 = PRODUCT_DEFINITION_FORMATION_WITH_SPECIFIED_SOURCE ( 'ANY', '', #580, .NOT_KNOWN. ) ;
#777 = CARTESIAN_POINT ( 'NONE',  ( 0.000000000000000000, 0.000000000000000000, 127.5000000000000000 ) ) ;
#778 = LINE ( 'NONE', #231, #743 ) ;
#779 = AXIS2_PLACEMENT_3D ( 'NONE', #400, #403, #573 ) ;
#780 = ADVANCED_FACE ( 'NONE', ( #379 ), #151, .T. ) ;
#781 = LINE ( 'NONE', #233, #359 ) ;
#782 = EDGE_LOOP ( 'NONE', ( #50, #544, #567, #7 ) ) ;
#783 = COORDINATED_UNIVERSAL_TIME_OFFSET ( 6, 0, .BEHIND. ) ;
#784 = CARTESIAN_POINT ( 'NONE',  ( 1.530806911370233923E-15, 17.49999999999999645, 127.5000000000000000 ) ) ;
#785 = ADVANCED_FACE ( 'NONE', ( #569 ), #579, .T. ) ;
#786 = ORIENTED_EDGE ( 'NONE', *, *, #543, .F. ) ;
#787 = CC_DESIGN_APPROVAL ( #101, ( #635 ) ) ;
#788 = ORIENTED_EDGE ( 'NONE', *, *, #384, .T. ) ;
#789 = DIRECTION ( 'NONE',  ( 0.000000000000000000, 0.000000000000000000, 1.000000000000000000 ) ) ;
#790 =( BOUNDED_CURVE ( )  B_SPLINE_CURVE ( 3, ( #350, #106, #288, #527 ),
 .UNSPECIFIED., .F., .F. ) 
 B_SPLINE_CURVE_WITH_KNOTS ( ( 4, 4 ),
 ( 4.787932510281287080, 4.825839743203260923 ),
 .UNSPECIFIED. ) 
 CURVE ( )  GEOMETRIC_REPRESENTATION_ITEM ( )  RATIONAL_B_SPLINE_CURVE ( ( 1.000000000000000000, 0.9998802570591145411, 0.9998802570591145411, 1.000000000000000000 ) ) 
 REPRESENTATION_ITEM ( '' )  );
#791 = EDGE_LOOP ( 'NONE', ( #488, #604, #155, #302 ) ) ;
#792 = ORIENTED_EDGE ( 'NONE', *, *, #700, .T. ) ;
#793 = CARTESIAN_POINT ( 'NONE',  ( -117.9182389825159021, -1.734723475976802164E-15, -50.75961894323354073 ) ) ;
ENDSEC;
END-ISO-10303-21;
