ISO-10303-21;
HEADER;
FILE_DESCRIPTION (( 'STEP AP214' ),
    '1' );
FILE_NAME ('bangarang.STEP',
    '2025-07-04T03:54:30',
    ( '' ),
    ( '' ),
    'SwSTEP 2.0',
    'SolidWorks 2023',
    '' );
FILE_SCHEMA (( 'AUTOMOTIVE_DESIGN' ));
ENDSEC;

DATA;
#1 = DIRECTION ( 'NONE',  ( 0.000000000000000000, 0.000000000000000000, -1.000000000000000000 ) ) ;
#2 = ORIENTED_EDGE ( 'NONE', *, *, #160, .F. ) ;
#3 = AXIS2_PLACEMENT_3D ( 'NONE', #22, #188, #31 ) ;
#4 = VECTOR ( 'NONE', #528, 1000.000000000000000 ) ;
#5 = CIRCLE ( 'NONE', #98, 5.000000000000000000 ) ;
#6 = FACE_OUTER_BOUND ( 'NONE', #677, .T. ) ;
#7 = ORIENTED_EDGE ( 'NONE', *, *, #459, .T. ) ;
#8 = APPLICATION_PROTOCOL_DEFINITION ( 'draft international standard', 'automotive_design', 1998, #483 ) ;
#9 = CYLINDRICAL_SURFACE ( 'NONE', #662, 2.500000000000002220 ) ;
#10 = ORIENTED_EDGE ( 'NONE', *, *, #658, .F. ) ;
#11 = EDGE_CURVE ( 'NONE', #339, #250, #289, .T. ) ;
#12 = VERTEX_POINT ( 'NONE', #452 ) ;
#13 = ORIENTED_EDGE ( 'NONE', *, *, #510, .F. ) ;
#14 = LINE ( 'NONE', #346, #111 ) ;
#15 = CIRCLE ( 'NONE', #520, 2.500000000000002220 ) ;
#16 = DIRECTION ( 'NONE',  ( -0.4999999999999918399, 0.000000000000000000, -0.8660254037844432595 ) ) ;
#17 = CIRCLE ( 'NONE', #303, 2.499999999999995115 ) ;
#18 = EDGE_LOOP ( 'NONE', ( #601, #481, #320, #635 ) ) ;
#19 = LINE ( 'NONE', #27, #412 ) ;
#20 = CARTESIAN_POINT ( 'NONE',  ( -53.66987298107681426, 0.000000000000000000, -102.9589468389953453 ) ) ;
#21 = EDGE_CURVE ( 'NONE', #631, #283, #15, .T. ) ;
#22 = CARTESIAN_POINT ( 'NONE',  ( -58.00000000000044764, 3.000000000000000000, 100.4589468389945779 ) ) ;
#23 = CARTESIAN_POINT ( 'NONE',  ( -57.99999999999903366, 0.000000000000000000, -100.4589468389953595 ) ) ;
#24 = DIRECTION ( 'NONE',  ( 0.000000000000000000, 1.000000000000000000, -0.000000000000000000 ) ) ;
#25 = EDGE_CURVE ( 'NONE', #271, #538, #685, .T. ) ;
#26 = ORIENTED_EDGE ( 'NONE', *, *, #310, .T. ) ;
#27 = CARTESIAN_POINT ( 'NONE',  ( 0.000000000000000000, 3.000000000000000000, -2.299999999999999822 ) ) ;
#28 = AXIS2_PLACEMENT_3D ( 'NONE', #136, #299, #500 ) ;
#29 = DIRECTION ( 'NONE',  ( -0.000000000000000000, -1.000000000000000000, -0.000000000000000000 ) ) ;
#30 = VECTOR ( 'NONE', #259, 1000.000000000000000 ) ;
#31 = DIRECTION ( 'NONE',  ( 0.000000000000000000, 0.000000000000000000, 1.000000000000000000 ) ) ;
#32 = DIRECTION ( 'NONE',  ( -0.8660254037844433705, 0.000000000000000000, 0.4999999999999918954 ) ) ;
#33 = CARTESIAN_POINT ( 'NONE',  ( -57.99999999999903366, 0.000000000000000000, -105.4589468389953737 ) ) ;
#34 = DIRECTION ( 'NONE',  ( 0.000000000000000000, 1.000000000000000000, -0.000000000000000000 ) ) ;
#35 = CARTESIAN_POINT ( 'NONE',  ( -57.99999999999903366, 3.000000000000000000, -100.4589468389953595 ) ) ;
#36 = EDGE_CURVE ( 'NONE', #283, #631, #109, .T. ) ;
#37 = VERTEX_POINT ( 'NONE', #461 ) ;
#38 = ORIENTED_EDGE ( 'NONE', *, *, #261, .T. ) ;
#39 = LINE ( 'NONE', #413, #365 ) ;
#40 = AXIS2_PLACEMENT_3D ( 'NONE', #242, #127, #550 ) ;
#41 = VECTOR ( 'NONE', #511, 1000.000000000000000 ) ;
#42 = AXIS2_PLACEMENT_3D ( 'NONE', #113, #534, #1 ) ;
#43 = AXIS2_PLACEMENT_3D ( 'NONE', #129, #545, #497 ) ;
#44 = DIRECTION ( 'NONE',  ( 0.5000000000000038858, 0.000000000000000000, -0.8660254037844363761 ) ) ;
#45 = LINE ( 'NONE', #321, #4 ) ;
#46 = ORIENTED_EDGE ( 'NONE', *, *, #300, .F. ) ;
#47 = EDGE_CURVE ( 'NONE', #344, #51, #191, .T. ) ;
#48 = DIRECTION ( 'NONE',  ( 0.000000000000000000, 0.000000000000000000, -1.000000000000000000 ) ) ;
#49 = ORIENTED_EDGE ( 'NONE', *, *, #592, .T. ) ;
#50 = DIRECTION ( 'NONE',  ( -0.000000000000000000, -1.000000000000000000, -0.000000000000000000 ) ) ;
#51 = VERTEX_POINT ( 'NONE', #138 ) ;
#52 = EDGE_CURVE ( 'NONE', #51, #502, #354, .T. ) ;
#53 = AXIS2_PLACEMENT_3D ( 'NONE', #395, #24, #454 ) ;
#54 = PLANE ( 'NONE',  #207 ) ;
#55 = CARTESIAN_POINT ( 'NONE',  ( -58.00000000000044764, 3.000000000000000000, 100.4589468389945779 ) ) ;
#56 = ORIENTED_EDGE ( 'NONE', *, *, #459, .F. ) ;
#57 = ADVANCED_FACE ( 'NONE', ( #247 ), #673, .F. ) ;
#58 = VERTEX_POINT ( 'NONE', #561 ) ;
#59 = CARTESIAN_POINT ( 'NONE',  ( -57.99999999999903366, 3.000000000000000000, -102.9589468389953595 ) ) ;
#60 = ORIENTED_EDGE ( 'NONE', *, *, #431, .F. ) ;
#61 = VECTOR ( 'NONE', #16, 1000.000000000000227 ) ;
#62 = VECTOR ( 'NONE', #637, 999.9999999999998863 ) ;
#63 = AXIS2_PLACEMENT_3D ( 'NONE', #629, #578, #139 ) ;
#64 = DIRECTION ( 'NONE',  ( 0.000000000000000000, 0.000000000000000000, 1.000000000000000000 ) ) ;
#65 = ORIENTED_EDGE ( 'NONE', *, *, #482, .F. ) ;
#66 = CARTESIAN_POINT ( 'NONE',  ( -62.33012701892261020, 0.000000000000000000, 97.95894683899456368 ) ) ;
#67 = VERTEX_POINT ( 'NONE', #75 ) ;
#68 = CARTESIAN_POINT ( 'NONE',  ( -57.99999999999903366, 3.000000000000000000, -105.4589468389953737 ) ) ;
#69 = ORIENTED_EDGE ( 'NONE', *, *, #105, .F. ) ;
#70 = CARTESIAN_POINT ( 'NONE',  ( -4.330127018922218518, 0.000000000000000000, 2.499999999999960032 ) ) ;
#71 = ORIENTED_EDGE ( 'NONE', *, *, #255, .T. ) ;
#72 = LINE ( 'NONE', #391, #315 ) ;
#73 = AXIS2_PLACEMENT_3D ( 'NONE', #190, #460, #608 ) ;
#74 = ADVANCED_FACE ( 'NONE', ( #671 ), #85, .F. ) ;
#75 = CARTESIAN_POINT ( 'NONE',  ( -57.99999999999903366, 3.000000000000000000, -97.95894683899537370 ) ) ;
#76 = ORIENTED_EDGE ( 'NONE', *, *, #327, .T. ) ;
#77 = CARTESIAN_POINT ( 'NONE',  ( -4.330127018922182991, 3.000000000000000000, -2.500000000000020428 ) ) ;
#78 = LINE ( 'NONE', #179, #333 ) ;
#79 = DIRECTION ( 'NONE',  ( 0.000000000000000000, 0.000000000000000000, 1.000000000000000000 ) ) ;
#80 = CARTESIAN_POINT ( 'NONE',  ( 0.000000000000000000, 3.000000000000000000, 5.000000000000000000 ) ) ;
#81 = FACE_OUTER_BOUND ( 'NONE', #642, .T. ) ;
#82 = ORIENTED_EDGE ( 'NONE', *, *, #119, .T. ) ;
#83 = CARTESIAN_POINT ( 'NONE',  ( 115.9999999999999432, 0.000000000000000000, 2.499999999999995115 ) ) ;
#84 = CIRCLE ( 'NONE', #140, 2.499999999999988454 ) ;
#85 = PLANE ( 'NONE',  #660 ) ;
#86 = CIRCLE ( 'NONE', #356, 2.499999999999988454 ) ;
#87 = CARTESIAN_POINT ( 'NONE',  ( -62.33012701892124596, 3.000000000000000000, -97.95894683899541633 ) ) ;
#88 =( NAMED_UNIT ( * ) PLANE_ANGLE_UNIT ( ) SI_UNIT ( $, .RADIAN. ) );
#89 = ORIENTED_EDGE ( 'NONE', *, *, #211, .T. ) ;
#90 = EDGE_LOOP ( 'NONE', ( #687, #76, #389, #609 ) ) ;
#91 = LINE ( 'NONE', #149, #435 ) ;
#92 = CARTESIAN_POINT ( 'NONE',  ( -57.99999999999903366, 3.000000000000000000, -97.95894683899537370 ) ) ;
#93 = DIRECTION ( 'NONE',  ( 0.000000000000000000, 1.000000000000000000, -0.000000000000000000 ) ) ;
#94 = DIRECTION ( 'NONE',  ( 0.000000000000000000, 1.000000000000000000, -0.000000000000000000 ) ) ;
#95 = EDGE_LOOP ( 'NONE', ( #214, #576, #219, #128 ) ) ;
#96 = EDGE_CURVE ( 'NONE', #12, #502, #130, .T. ) ;
#97 = CIRCLE ( 'NONE', #650, 2.499999999999995115 ) ;
#98 = AXIS2_PLACEMENT_3D ( 'NONE', #443, #548, #123 ) ;
#99 =( LENGTH_UNIT ( ) NAMED_UNIT ( * ) SI_UNIT ( .MILLI., .METRE. ) );
#100 = DIRECTION ( 'NONE',  ( -0.8660254037844433705, 0.000000000000000000, 0.4999999999999918954 ) ) ;
#101 = ORIENTED_EDGE ( 'NONE', *, *, #462, .T. ) ;
#102 = ADVANCED_FACE ( 'NONE', ( #125 ), #350, .F. ) ;
#103 = VERTEX_POINT ( 'NONE', #340 ) ;
#104 = DIRECTION ( 'NONE',  ( -0.000000000000000000, -1.000000000000000000, -0.000000000000000000 ) ) ;
#105 = EDGE_CURVE ( 'NONE', #237, #167, #605, .T. ) ;
#106 = ORIENTED_EDGE ( 'NONE', *, *, #281, .T. ) ;
#107 = FACE_OUTER_BOUND ( 'NONE', #589, .T. ) ;
#108 = VERTEX_POINT ( 'NONE', #236 ) ;
#109 = CIRCLE ( 'NONE', #275, 2.500000000000002220 ) ;
#110 = PRESENTATION_LAYER_ASSIGNMENT (  '', '', ( #313 ) ) ;
#111 = VECTOR ( 'NONE', #503, 1000.000000000000000 ) ;
#112 = EDGE_CURVE ( 'NONE', #170, #37, #499, .T. ) ;
#113 = CARTESIAN_POINT ( 'NONE',  ( -57.99999999999903366, 3.000000000000000000, -100.4589468389953595 ) ) ;
#114 = EDGE_LOOP ( 'NONE', ( #371, #374, #106, #161 ) ) ;
#115 = LINE ( 'NONE', #59, #345 ) ;
#116 = ORIENTED_EDGE ( 'NONE', *, *, #169, .T. ) ;
#117 = DIRECTION ( 'NONE',  ( 0.000000000000000000, 0.000000000000000000, -1.000000000000000000 ) ) ;
#118 = VERTEX_POINT ( 'NONE', #33 ) ;
#119 = EDGE_CURVE ( 'NONE', #625, #376, #78, .T. ) ;
#120 = AXIS2_PLACEMENT_3D ( 'NONE', #23, #316, #627 ) ;
#121 = DIRECTION ( 'NONE',  ( 0.000000000000000000, 1.000000000000000000, -0.000000000000000000 ) ) ;
#122 = ORIENTED_EDGE ( 'NONE', *, *, #541, .T. ) ;
#123 = DIRECTION ( 'NONE',  ( 0.000000000000000000, 0.000000000000000000, 1.000000000000000000 ) ) ;
#124 = EDGE_LOOP ( 'NONE', ( #485, #537, #586, #433 ) ) ;
#125 = FACE_OUTER_BOUND ( 'NONE', #683, .T. ) ;
#126 = EDGE_CURVE ( 'NONE', #638, #298, #455, .T. ) ;
#127 = DIRECTION ( 'NONE',  ( -0.000000000000000000, -1.000000000000000000, -0.000000000000000000 ) ) ;
#128 = ORIENTED_EDGE ( 'NONE', *, *, #220, .T. ) ;
#129 = CARTESIAN_POINT ( 'NONE',  ( 0.000000000000000000, 3.000000000000000000, 0.000000000000000000 ) ) ;
#130 = LINE ( 'NONE', #70, #61 ) ;
#131 = EDGE_LOOP ( 'NONE', ( #400, #647, #7, #260, #26, #305, #263, #494, #591, #566 ) ) ;
#132 = LINE ( 'NONE', #506, #41 ) ;
#133 = CARTESIAN_POINT ( 'NONE',  ( -53.66987298107828508, 0.000000000000000000, 102.9589468389946063 ) ) ;
#134 = CARTESIAN_POINT ( 'NONE',  ( -58.00000000000044764, 0.000000000000000000, 100.4589468389945779 ) ) ;
#135 = CYLINDRICAL_SURFACE ( 'NONE', #334, 5.000000000000004441 ) ;
#136 = CARTESIAN_POINT ( 'NONE',  ( -58.00000000000044764, 3.000000000000000000, 100.4589468389945779 ) ) ;
#137 = ADVANCED_FACE ( 'NONE', ( #81 ), #402, .F. ) ;
#138 = CARTESIAN_POINT ( 'NONE',  ( -62.33012701892124596, 3.000000000000000000, -97.95894683899541633 ) ) ;
#139 = DIRECTION ( 'NONE',  ( 0.000000000000000000, 0.000000000000000000, -1.000000000000000000 ) ) ;
#140 = AXIS2_PLACEMENT_3D ( 'NONE', #233, #451, #406 ) ;
#141 = CARTESIAN_POINT ( 'NONE',  ( 0.000000000000000000, 3.000000000000000000, -5.000000000000000000 ) ) ;
#142 = ORIENTED_EDGE ( 'NONE', *, *, #431, .T. ) ;
#143 = CIRCLE ( 'NONE', #387, 4.999999999999990230 ) ;
#144 = CIRCLE ( 'NONE', #120, 2.499999999999988454 ) ;
#145 = ORIENTED_EDGE ( 'NONE', *, *, #651, .F. ) ;
#146 = FACE_OUTER_BOUND ( 'NONE', #328, .T. ) ;
#147 = DIRECTION ( 'NONE',  ( -0.000000000000000000, -1.000000000000000000, -0.000000000000000000 ) ) ;
#148 = VERTEX_POINT ( 'NONE', #246 ) ;
#149 = CARTESIAN_POINT ( 'NONE',  ( 2.886751345948114000, 3.000000000000000000, 5.000000000000000888 ) ) ;
#150 = CARTESIAN_POINT ( 'NONE',  ( -5.773502691896251982, 3.000000000000000000, -4.054916125095786583E-14 ) ) ;
#151 = EDGE_CURVE ( 'NONE', #284, #37, #195, .T. ) ;
#152 = CARTESIAN_POINT ( 'NONE',  ( 4.330127018922214965, 3.000000000000000000, -2.499999999999958700 ) ) ;
#153 = EDGE_LOOP ( 'NONE', ( #10, #652 ) ) ;
#154 = AXIS2_PLACEMENT_3D ( 'NONE', #569, #362, #471 ) ;
#155 = CYLINDRICAL_SURFACE ( 'NONE', #457, 4.999999999999990230 ) ;
#156 = CARTESIAN_POINT ( 'NONE',  ( -57.99999999999903366, 3.000000000000000000, -100.4589468389953595 ) ) ;
#157 = EDGE_LOOP ( 'NONE', ( #46, #145, #439, #318 ) ) ;
#158 = LINE ( 'NONE', #221, #620 ) ;
#159 = ORIENTED_EDGE ( 'NONE', *, *, #541, .F. ) ;
#160 = EDGE_CURVE ( 'NONE', #118, #502, #595, .T. ) ;
#161 = ORIENTED_EDGE ( 'NONE', *, *, #21, .F. ) ;
#162 = CARTESIAN_POINT ( 'NONE',  ( 0.000000000000000000, 3.000000000000000000, -2.299999999999999822 ) ) ;
#163 = ORIENTED_EDGE ( 'NONE', *, *, #386, .T. ) ;
#164 = AXIS2_PLACEMENT_3D ( 'NONE', #141, #357, #515 ) ;
#165 = AXIS2_PLACEMENT_3D ( 'NONE', #610, #557, #401 ) ;
#166 = DIRECTION ( 'NONE',  ( 0.000000000000000000, 0.000000000000000000, 1.000000000000000000 ) ) ;
#167 = VERTEX_POINT ( 'NONE', #20 ) ;
#168 = CYLINDRICAL_SURFACE ( 'NONE', #434, 2.499999999999995115 ) ;
#169 = EDGE_CURVE ( 'NONE', #67, #420, #84, .T. ) ;
#170 = VERTEX_POINT ( 'NONE', #193 ) ;
#171 = FACE_BOUND ( 'NONE', #669, .T. ) ;
#172 = ORIENTED_EDGE ( 'NONE', *, *, #359, .T. ) ;
#173 = ADVANCED_FACE ( 'NONE', ( #182, #288, #504, #353, #668 ), #547, .T. ) ;
#174 = EDGE_LOOP ( 'NONE', ( #13, #583 ) ) ;
#175 = DIRECTION ( 'NONE',  ( -0.000000000000000000, -1.000000000000000000, -0.000000000000000000 ) ) ;
#176 = EDGE_LOOP ( 'NONE', ( #274, #358 ) ) ;
#177 = ORIENTED_EDGE ( 'NONE', *, *, #272, .F. ) ;
#178 = CARTESIAN_POINT ( 'NONE',  ( 115.9999999999999432, 0.000000000000000000, 5.000000000000000000 ) ) ;
#179 = CARTESIAN_POINT ( 'NONE',  ( 115.9999999999999432, 3.000000000000000000, -5.000000000000000000 ) ) ;
#180 = EDGE_CURVE ( 'NONE', #538, #271, #265, .T. ) ;
#181 = CARTESIAN_POINT ( 'NONE',  ( -62.33012701892124596, 0.000000000000000000, -97.95894683899541633 ) ) ;
#182 = FACE_OUTER_BOUND ( 'NONE', #131, .T. ) ;
#183 = CARTESIAN_POINT ( 'NONE',  ( -58.00000000000044764, 0.000000000000000000, 100.4589468389945779 ) ) ;
#184 = CARTESIAN_POINT ( 'NONE',  ( -57.99999999999903366, 3.000000000000000000, -100.4589468389953595 ) ) ;
#185 = AXIS2_PLACEMENT_3D ( 'NONE', #661, #187, #399 ) ;
#186 = AXIS2_PLACEMENT_3D ( 'NONE', #184, #554, #293 ) ;
#187 = DIRECTION ( 'NONE',  ( 0.000000000000000000, 1.000000000000000000, -0.000000000000000000 ) ) ;
#188 = DIRECTION ( 'NONE',  ( 0.000000000000000000, 1.000000000000000000, -0.000000000000000000 ) ) ;
#189 = DIRECTION ( 'NONE',  ( 0.5000000000000039968, 0.000000000000000000, -0.8660254037844363761 ) ) ;
#190 = CARTESIAN_POINT ( 'NONE',  ( 0.000000000000000000, 3.000000000000000000, 0.000000000000000000 ) ) ;
#191 = LINE ( 'NONE', #404, #343 ) ;
#192 = DIRECTION ( 'NONE',  ( 0.000000000000000000, 0.000000000000000000, -1.000000000000000000 ) ) ;
#193 = CARTESIAN_POINT ( 'NONE',  ( 2.886751345948114000, 3.000000000000000000, 5.000000000000000888 ) ) ;
#194 = VERTEX_POINT ( 'NONE', #612 ) ;
#195 = CIRCLE ( 'NONE', #28, 4.999999999999990230 ) ;
#196 = VERTEX_POINT ( 'NONE', #133 ) ;
#197 = VECTOR ( 'NONE', #575, 1000.000000000000000 ) ;
#198 = MANIFOLD_SOLID_BREP ( 'Boss-Extrude5', #571 ) ;
#199 = DIRECTION ( 'NONE',  ( -0.000000000000000000, -1.000000000000000000, -0.000000000000000000 ) ) ;
#200 = CARTESIAN_POINT ( 'NONE',  ( 2.816687638038912056E-16, 0.000000000000000000, 2.299999999999999822 ) ) ;
#201 = EDGE_CURVE ( 'NONE', #441, #376, #572, .T. ) ;
#202 = DIRECTION ( 'NONE',  ( 0.000000000000000000, 0.000000000000000000, 1.000000000000000000 ) ) ;
#203 = LINE ( 'NONE', #150, #423 ) ;
#204 = ORIENTED_EDGE ( 'NONE', *, *, #577, .F. ) ;
#205 = CARTESIAN_POINT ( 'NONE',  ( 115.9999999999999432, 3.000000000000000000, -2.499999999999995115 ) ) ;
#206 = DIRECTION ( 'NONE',  ( -0.000000000000000000, -1.000000000000000000, -0.000000000000000000 ) ) ;
#207 = AXIS2_PLACEMENT_3D ( 'NONE', #373, #429, #64 ) ;
#208 = CIRCLE ( 'NONE', #154, 2.499999999999995115 ) ;
#209 = PLANE ( 'NONE',  #164 ) ;
#210 = VERTEX_POINT ( 'NONE', #416 ) ;
#211 = EDGE_CURVE ( 'NONE', #638, #271, #314, .T. ) ;
#212 = SHAPE_DEFINITION_REPRESENTATION ( #518, #476 ) ;
#213 = CARTESIAN_POINT ( 'NONE',  ( -62.33012701892261020, 3.000000000000000000, 97.95894683899456368 ) ) ;
#214 = ORIENTED_EDGE ( 'NONE', *, *, #478, .T. ) ;
#215 = CARTESIAN_POINT ( 'NONE',  ( -58.00000000000044764, 0.000000000000000000, 100.4589468389945779 ) ) ;
#216 = ORIENTED_EDGE ( 'NONE', *, *, #498, .T. ) ;
#217 = AXIS2_PLACEMENT_3D ( 'NONE', #678, #517, #44 ) ;
#218 = DIRECTION ( 'NONE',  ( -0.000000000000000000, -1.000000000000000000, -0.000000000000000000 ) ) ;
#219 = ORIENTED_EDGE ( 'NONE', *, *, #505, .F. ) ;
#220 = EDGE_CURVE ( 'NONE', #344, #12, #203, .T. ) ;
#221 = CARTESIAN_POINT ( 'NONE',  ( 115.9999999999999432, 3.000000000000000000, 2.499999999999995115 ) ) ;
#222 = ORIENTED_EDGE ( 'NONE', *, *, #25, .T. ) ;
#223 = ORIENTED_EDGE ( 'NONE', *, *, #549, .T. ) ;
#224 = LINE ( 'NONE', #285, #509 ) ;
#225 = EDGE_LOOP ( 'NONE', ( #430, #619, #301, #414 ) ) ;
#226 = ADVANCED_FACE ( 'NONE', ( #419 ), #634, .T. ) ;
#227 = ORIENTED_EDGE ( 'NONE', *, *, #151, .F. ) ;
#228 = CIRCLE ( 'NONE', #43, 2.299999999999999822 ) ;
#229 = LINE ( 'NONE', #241, #574 ) ;
#230 = CARTESIAN_POINT ( 'NONE',  ( 4.330127018922182991, 3.000000000000000000, 2.500000000000020872 ) ) ;
#231 = EDGE_CURVE ( 'NONE', #37, #196, #45, .T. ) ;
#232 = DIRECTION ( 'NONE',  ( 0.000000000000000000, 0.000000000000000000, -1.000000000000000000 ) ) ;
#233 = CARTESIAN_POINT ( 'NONE',  ( -57.99999999999903366, 3.000000000000000000, -100.4589468389953595 ) ) ;
#234 = VERTEX_POINT ( 'NONE', #618 ) ;
#235 = CARTESIAN_POINT ( 'NONE',  ( 4.330127018922182991, 3.000000000000000000, 2.500000000000020872 ) ) ;
#236 = CARTESIAN_POINT ( 'NONE',  ( -57.99999999999903366, 0.000000000000000000, -102.9589468389953595 ) ) ;
#237 = VERTEX_POINT ( 'NONE', #477 ) ;
#238 = ADVANCED_FACE ( 'NONE', ( #686 ), #209, .T. ) ;
#239 = AXIS2_PLACEMENT_3D ( 'NONE', #409, #512, #615 ) ;
#240 = APPLICATION_CONTEXT ( 'automotive_design' ) ;
#241 = CARTESIAN_POINT ( 'NONE',  ( 0.000000000000000000, 0.000000000000000000, -5.000000000000000000 ) ) ;
#242 = CARTESIAN_POINT ( 'NONE',  ( 115.9999999999999432, 3.000000000000000000, 0.000000000000000000 ) ) ;
#243 = DIRECTION ( 'NONE',  ( 0.000000000000000000, 0.000000000000000000, 1.000000000000000000 ) ) ;
#244 = PRODUCT ( 'bangarang', 'bangarang', '', ( #492 ) ) ;
#245 = CARTESIAN_POINT ( 'NONE',  ( 115.9999999999999432, 3.000000000000000000, -5.000000000000000000 ) ) ;
#246 = CARTESIAN_POINT ( 'NONE',  ( 2.886751345948114000, 0.000000000000000000, 5.000000000000000888 ) ) ;
#247 = FACE_OUTER_BOUND ( 'NONE', #18, .T. ) ;
#248 = FILL_AREA_STYLE ('',( #424 ) ) ;
#249 = EDGE_CURVE ( 'NONE', #284, #336, #39, .T. ) ;
#250 = VERTEX_POINT ( 'NONE', #568 ) ;
#251 = DIRECTION ( 'NONE',  ( 0.4999999999999918954, 0.000000000000000000, 0.8660254037844433705 ) ) ;
#252 = AXIS2_PLACEMENT_3D ( 'NONE', #556, #34, #79 ) ;
#253 = DIRECTION ( 'NONE',  ( 0.000000000000000000, 0.000000000000000000, -1.000000000000000000 ) ) ;
#254 =( GEOMETRIC_REPRESENTATION_CONTEXT ( 3 ) GLOBAL_UNCERTAINTY_ASSIGNED_CONTEXT ( ( #664 ) ) GLOBAL_UNIT_ASSIGNED_CONTEXT ( ( #99, #88, #319 ) ) REPRESENTATION_CONTEXT ( 'NONE', 'WORKASPACE' ) );
#255 = EDGE_CURVE ( 'NONE', #442, #118, #363, .T. ) ;
#256 = CARTESIAN_POINT ( 'NONE',  ( -58.00000000000044764, 0.000000000000000000, 102.9589468389945779 ) ) ;
#257 = ORIENTED_EDGE ( 'NONE', *, *, #180, .T. ) ;
#258 = ORIENTED_EDGE ( 'NONE', *, *, #180, .F. ) ;
#259 = DIRECTION ( 'NONE',  ( -0.000000000000000000, -1.000000000000000000, -0.000000000000000000 ) ) ;
#260 = ORIENTED_EDGE ( 'NONE', *, *, #462, .F. ) ;
#261 = EDGE_CURVE ( 'NONE', #67, #210, #679, .T. ) ;
#262 = CARTESIAN_POINT ( 'NONE',  ( 2.816687638038912056E-16, 3.000000000000000000, 2.299999999999999822 ) ) ;
#263 = ORIENTED_EDGE ( 'NONE', *, *, #474, .T. ) ;
#264 = VECTOR ( 'NONE', #555, 1000.000000000000000 ) ;
#265 = CIRCLE ( 'NONE', #185, 2.299999999999999822 ) ;
#266 = VECTOR ( 'NONE', #349, 1000.000000000000114 ) ;
#267 = DIRECTION ( 'NONE',  ( 0.000000000000000000, 0.000000000000000000, 1.000000000000000000 ) ) ;
#268 = EDGE_LOOP ( 'NONE', ( #257, #222 ) ) ;
#269 = ORIENTED_EDGE ( 'NONE', *, *, #231, .F. ) ;
#270 = CARTESIAN_POINT ( 'NONE',  ( 115.9999999999999432, 3.000000000000000000, 0.000000000000000000 ) ) ;
#271 = VERTEX_POINT ( 'NONE', #200 ) ;
#272 = EDGE_CURVE ( 'NONE', #456, #58, #97, .T. ) ;
#273 = CARTESIAN_POINT ( 'NONE',  ( -57.99999999999903366, 3.000000000000000000, -102.9589468389953595 ) ) ;
#274 = ORIENTED_EDGE ( 'NONE', *, *, #636, .F. ) ;
#275 = AXIS2_PLACEMENT_3D ( 'NONE', #134, #559, #243 ) ;
#276 = ADVANCED_FACE ( 'NONE', ( #473 ), #630, .F. ) ;
#277 = AXIS2_PLACEMENT_3D ( 'NONE', #152, #100, #366 ) ;
#278 = CIRCLE ( 'NONE', #622, 5.000000000000004441 ) ;
#279 = FACE_BOUND ( 'NONE', #544, .T. ) ;
#280 = ORIENTED_EDGE ( 'NONE', *, *, #327, .F. ) ;
#281 = EDGE_CURVE ( 'NONE', #250, #283, #317, .T. ) ;
#282 = CARTESIAN_POINT ( 'NONE',  ( -57.99999999999903366, 0.000000000000000000, -100.4589468389953595 ) ) ;
#283 = VERTEX_POINT ( 'NONE', #641 ) ;
#284 = VERTEX_POINT ( 'NONE', #213 ) ;
#285 = CARTESIAN_POINT ( 'NONE',  ( -4.330127018922182991, 0.000000000000000000, -2.500000000000020428 ) ) ;
#286 = ADVANCED_FACE ( 'NONE', ( #331 ), #9, .F. ) ;
#287 = ORIENTED_EDGE ( 'NONE', *, *, #403, .F. ) ;
#288 = FACE_BOUND ( 'NONE', #174, .T. ) ;
#289 = CIRCLE ( 'NONE', #3, 2.500000000000002220 ) ;
#290 = EDGE_LOOP ( 'NONE', ( #382, #71, #407, #689 ) ) ;
#291 = CIRCLE ( 'NONE', #676, 2.499999999999995115 ) ;
#292 = AXIS2_PLACEMENT_3D ( 'NONE', #35, #369, #202 ) ;
#293 = DIRECTION ( 'NONE',  ( 0.000000000000000000, 0.000000000000000000, 1.000000000000000000 ) ) ;
#294 = CARTESIAN_POINT ( 'NONE',  ( -53.66987298107681426, 3.000000000000000000, -102.9589468389953453 ) ) ;
#295 = FACE_OUTER_BOUND ( 'NONE', #124, .T. ) ;
#296 = CARTESIAN_POINT ( 'NONE',  ( -57.99999999999903366, 0.000000000000000000, -100.4589468389953595 ) ) ;
#297 = ADVANCED_FACE ( 'NONE', ( #107, #171, #426, #279, #487 ), #54, .F. ) ;
#298 = VERTEX_POINT ( 'NONE', #162 ) ;
#299 = DIRECTION ( 'NONE',  ( 0.000000000000000000, 1.000000000000000000, -0.000000000000000000 ) ) ;
#300 = EDGE_CURVE ( 'NONE', #148, #196, #582, .T. ) ;
#301 = ORIENTED_EDGE ( 'NONE', *, *, #482, .T. ) ;
#302 = DIRECTION ( 'NONE',  ( -0.000000000000000000, -1.000000000000000000, -0.000000000000000000 ) ) ;
#303 = AXIS2_PLACEMENT_3D ( 'NONE', #306, #93, #573 ) ;
#304 = DIRECTION ( 'NONE',  ( 0.000000000000000000, 0.000000000000000000, -1.000000000000000000 ) ) ;
#305 = ORIENTED_EDGE ( 'NONE', *, *, #667, .T. ) ;
#306 = CARTESIAN_POINT ( 'NONE',  ( 115.9999999999999432, 3.000000000000000000, 0.000000000000000000 ) ) ;
#307 = ORIENTED_EDGE ( 'NONE', *, *, #201, .F. ) ;
#308 = ORIENTED_EDGE ( 'NONE', *, *, #478, .F. ) ;
#309 = PLANE ( 'NONE',  #663 ) ;
#310 = EDGE_CURVE ( 'NONE', #324, #237, #335, .T. ) ;
#311 = DIRECTION ( 'NONE',  ( -0.000000000000000000, -1.000000000000000000, -0.000000000000000000 ) ) ;
#312 = CARTESIAN_POINT ( 'NONE',  ( 2.816687638038912056E-16, 3.000000000000000000, 2.299999999999999822 ) ) ;
#313 = STYLED_ITEM ( 'NONE', ( #624 ), #198 ) ;
#314 = LINE ( 'NONE', #262, #30 ) ;
#315 = VECTOR ( 'NONE', #659, 1000.000000000000000 ) ;
#316 = DIRECTION ( 'NONE',  ( 0.000000000000000000, 1.000000000000000000, -0.000000000000000000 ) ) ;
#317 = LINE ( 'NONE', #527, #551 ) ;
#318 = ORIENTED_EDGE ( 'NONE', *, *, #231, .T. ) ;
#319 =( NAMED_UNIT ( * ) SI_UNIT ( $, .STERADIAN. ) SOLID_ANGLE_UNIT ( ) );
#320 = ORIENTED_EDGE ( 'NONE', *, *, #36, .F. ) ;
#321 = CARTESIAN_POINT ( 'NONE',  ( -53.66987298107828508, 3.000000000000000000, 102.9589468389946063 ) ) ;
#322 = DIRECTION ( 'NONE',  ( 1.000000000000000000, 0.000000000000000000, 0.000000000000000000 ) ) ;
#323 = DIRECTION ( 'NONE',  ( -0.5000000000000041078, 0.000000000000000000, 0.8660254037844363761 ) ) ;
#324 = VERTEX_POINT ( 'NONE', #375 ) ;
#325 = CIRCLE ( 'NONE', #587, 2.500000000000002220 ) ;
#326 = CARTESIAN_POINT ( 'NONE',  ( 4.330127018922182991, 0.000000000000000000, 2.500000000000020872 ) ) ;
#327 = EDGE_CURVE ( 'NONE', #234, #456, #158, .T. ) ;
#328 = EDGE_LOOP ( 'NONE', ( #472, #649, #385, #367 ) ) ;
#329 = CARTESIAN_POINT ( 'NONE',  ( -5.773502691896251982, 3.000000000000000000, -4.054916125095786583E-14 ) ) ;
#330 = ORIENTED_EDGE ( 'NONE', *, *, #337, .T. ) ;
#331 = FACE_OUTER_BOUND ( 'NONE', #114, .T. ) ;
#332 = ORIENTED_EDGE ( 'NONE', *, *, #126, .F. ) ;
#333 = VECTOR ( 'NONE', #341, 1000.000000000000000 ) ;
#334 = AXIS2_PLACEMENT_3D ( 'NONE', #607, #302, #388 ) ;
#335 = LINE ( 'NONE', #639, #62 ) ;
#336 = VERTEX_POINT ( 'NONE', #66 ) ;
#337 = EDGE_CURVE ( 'NONE', #234, #390, #291, .T. ) ;
#338 = CARTESIAN_POINT ( 'NONE',  ( -57.99999999999903366, 3.000000000000000000, -100.4589468389953595 ) ) ;
#339 = VERTEX_POINT ( 'NONE', #480 ) ;
#340 = CARTESIAN_POINT ( 'NONE',  ( 115.9999999999999432, 3.000000000000000000, 5.000000000000000000 ) ) ;
#341 = DIRECTION ( 'NONE',  ( -0.000000000000000000, -1.000000000000000000, -0.000000000000000000 ) ) ;
#342 = VECTOR ( 'NONE', #654, 1000.000000000000000 ) ;
#343 = VECTOR ( 'NONE', #616, 1000.000000000000227 ) ;
#344 = VERTEX_POINT ( 'NONE', #329 ) ;
#345 = VECTOR ( 'NONE', #536, 1000.000000000000000 ) ;
#346 = CARTESIAN_POINT ( 'NONE',  ( 0.000000000000000000, 0.000000000000000000, 5.000000000000000000 ) ) ;
#347 = DIRECTION ( 'NONE',  ( 0.000000000000000000, 0.000000000000000000, -1.000000000000000000 ) ) ;
#348 = DIRECTION ( 'NONE',  ( 0.000000000000000000, 1.000000000000000000, -0.000000000000000000 ) ) ;
#349 = DIRECTION ( 'NONE',  ( -0.5000000000000038858, 0.000000000000000000, 0.8660254037844363761 ) ) ;
#350 = CYLINDRICAL_SURFACE ( 'NONE', #467, 2.299999999999999822 ) ;
#351 = PRODUCT_RELATED_PRODUCT_CATEGORY ( 'part', '', ( #244 ) ) ;
#352 = CARTESIAN_POINT ( 'NONE',  ( -57.99999999999903366, 0.000000000000000000, -100.4589468389953595 ) ) ;
#353 = FACE_BOUND ( 'NONE', #153, .T. ) ;
#354 = LINE ( 'NONE', #87, #377 ) ;
#355 = CARTESIAN_POINT ( 'NONE',  ( 115.9999999999999432, 3.000000000000000000, 0.000000000000000000 ) ) ;
#356 = AXIS2_PLACEMENT_3D ( 'NONE', #282, #121, #166 ) ;
#357 = DIRECTION ( 'NONE',  ( 0.000000000000000000, 0.000000000000000000, -1.000000000000000000 ) ) ;
#358 = ORIENTED_EDGE ( 'NONE', *, *, #11, .F. ) ;
#359 = EDGE_CURVE ( 'NONE', #194, #167, #542, .T. ) ;
#360 = CARTESIAN_POINT ( 'NONE',  ( -58.00000000000044764, 3.000000000000000000, 102.9589468389945779 ) ) ;
#361 = PRODUCT_DEFINITION_CONTEXT ( 'detailed design', #483, 'design' ) ;
#362 = DIRECTION ( 'NONE',  ( 0.000000000000000000, 1.000000000000000000, -0.000000000000000000 ) ) ;
#363 = LINE ( 'NONE', #682, #197 ) ;
#364 = FACE_OUTER_BOUND ( 'NONE', #444, .T. ) ;
#365 = VECTOR ( 'NONE', #147, 1000.000000000000000 ) ;
#366 = DIRECTION ( 'NONE',  ( 0.4999999999999918954, 0.000000000000000000, 0.8660254037844433705 ) ) ;
#367 = ORIENTED_EDGE ( 'NONE', *, *, #52, .T. ) ;
#368 = CIRCLE ( 'NONE', #292, 5.000000000000004441 ) ;
#369 = DIRECTION ( 'NONE',  ( 0.000000000000000000, 1.000000000000000000, -0.000000000000000000 ) ) ;
#370 = DIRECTION ( 'NONE',  ( 0.000000000000000000, 0.000000000000000000, 1.000000000000000000 ) ) ;
#371 = ORIENTED_EDGE ( 'NONE', *, *, #611, .F. ) ;
#372 = CARTESIAN_POINT ( 'NONE',  ( 0.000000000000000000, 0.000000000000000000, 0.000000000000000000 ) ) ;
#373 = CARTESIAN_POINT ( 'NONE',  ( 0.000000000000000000, 0.000000000000000000, 0.000000000000000000 ) ) ;
#374 = ORIENTED_EDGE ( 'NONE', *, *, #11, .T. ) ;
#375 = CARTESIAN_POINT ( 'NONE',  ( 2.886751345948156189, 3.000000000000000000, -5.000000000000000888 ) ) ;
#376 = VERTEX_POINT ( 'NONE', #688 ) ;
#377 = VECTOR ( 'NONE', #513, 1000.000000000000000 ) ;
#378 = PRODUCT_DEFINITION ( 'UNKNOWN', '', #633, #361 ) ;
#379 = LINE ( 'NONE', #588, #530 ) ;
#380 = ORIENTED_EDGE ( 'NONE', *, *, #96, .T. ) ;
#381 = CARTESIAN_POINT ( 'NONE',  ( 115.9999999999999432, 3.000000000000000000, 0.000000000000000000 ) ) ;
#382 = ORIENTED_EDGE ( 'NONE', *, *, #474, .F. ) ;
#383 = ADVANCED_FACE ( 'NONE', ( #6 ), #646, .F. ) ;
#384 = CARTESIAN_POINT ( 'NONE',  ( 4.330127018922214965, 0.000000000000000000, -2.499999999999958700 ) ) ;
#385 = ORIENTED_EDGE ( 'NONE', *, *, #47, .T. ) ;
#386 = EDGE_CURVE ( 'NONE', #336, #196, #143, .T. ) ;
#387 = AXIS2_PLACEMENT_3D ( 'NONE', #215, #594, #438 ) ;
#388 = DIRECTION ( 'NONE',  ( 0.000000000000000000, 0.000000000000000000, -1.000000000000000000 ) ) ;
#389 = ORIENTED_EDGE ( 'NONE', *, *, #592, .F. ) ;
#390 = VERTEX_POINT ( 'NONE', #432 ) ;
#391 = CARTESIAN_POINT ( 'NONE',  ( 0.000000000000000000, 3.000000000000000000, -5.000000000000000000 ) ) ;
#392 = DIRECTION ( 'NONE',  ( -1.000000000000000000, 0.000000000000000000, -0.000000000000000000 ) ) ;
#393 = ORIENTED_EDGE ( 'NONE', *, *, #525, .F. ) ;
#394 = PLANE ( 'NONE',  #598 ) ;
#395 = CARTESIAN_POINT ( 'NONE',  ( 0.000000000000000000, 3.000000000000000000, 0.000000000000000000 ) ) ;
#396 = ORIENTED_EDGE ( 'NONE', *, *, #36, .T. ) ;
#397 = CIRCLE ( 'NONE', #186, 5.000000000000004441 ) ;
#398 = FACE_OUTER_BOUND ( 'NONE', #640, .T. ) ;
#399 = DIRECTION ( 'NONE',  ( 0.000000000000000000, 0.000000000000000000, 1.000000000000000000 ) ) ;
#400 = ORIENTED_EDGE ( 'NONE', *, *, #112, .F. ) ;
#401 = DIRECTION ( 'NONE',  ( 0.000000000000000000, 0.000000000000000000, 1.000000000000000000 ) ) ;
#402 = CYLINDRICAL_SURFACE ( 'NONE', #40, 2.499999999999995115 ) ;
#403 = EDGE_CURVE ( 'NONE', #108, #210, #86, .T. ) ;
#404 = CARTESIAN_POINT ( 'NONE',  ( -4.330127018922218518, 3.000000000000000000, 2.499999999999960032 ) ) ;
#405 = PLANE ( 'NONE',  #217 ) ;
#406 = DIRECTION ( 'NONE',  ( 0.000000000000000000, 0.000000000000000000, 1.000000000000000000 ) ) ;
#407 = ORIENTED_EDGE ( 'NONE', *, *, #160, .T. ) ;
#408 = EDGE_CURVE ( 'NONE', #324, #194, #379, .T. ) ;
#409 = CARTESIAN_POINT ( 'NONE',  ( -58.00000000000044764, 3.000000000000000000, 100.4589468389945779 ) ) ;
#410 = LINE ( 'NONE', #360, #447 ) ;
#411 = COLOUR_RGB ( '',0.7921568627450980005, 0.8196078431372548767, 0.9333333333333333481 ) ;
#412 = VECTOR ( 'NONE', #458, 1000.000000000000000 ) ;
#413 = CARTESIAN_POINT ( 'NONE',  ( -62.33012701892261020, 3.000000000000000000, 97.95894683899456368 ) ) ;
#414 = ORIENTED_EDGE ( 'NONE', *, *, #25, .F. ) ;
#415 = DIRECTION ( 'NONE',  ( -0.000000000000000000, -1.000000000000000000, -0.000000000000000000 ) ) ;
#416 = CARTESIAN_POINT ( 'NONE',  ( -57.99999999999903366, 0.000000000000000000, -97.95894683899537370 ) ) ;
#417 = FACE_OUTER_BOUND ( 'NONE', #225, .T. ) ;
#418 = EDGE_CURVE ( 'NONE', #420, #108, #115, .T. ) ;
#419 = FACE_OUTER_BOUND ( 'NONE', #290, .T. ) ;
#420 = VERTEX_POINT ( 'NONE', #273 ) ;
#421 = FACE_OUTER_BOUND ( 'NONE', #95, .T. ) ;
#422 = ADVANCED_FACE ( 'NONE', ( #644 ), #168, .F. ) ;
#423 = VECTOR ( 'NONE', #206, 1000.000000000000000 ) ;
#424 = FILL_AREA_STYLE_COLOUR ( '', #411 ) ;
#425 = ORIENTED_EDGE ( 'NONE', *, *, #310, .F. ) ;
#426 = FACE_BOUND ( 'NONE', #268, .T. ) ;
#427 = EDGE_LOOP ( 'NONE', ( #464, #645, #101, #82 ) ) ;
#428 = ORIENTED_EDGE ( 'NONE', *, *, #249, .T. ) ;
#429 = DIRECTION ( 'NONE',  ( 0.000000000000000000, 1.000000000000000000, -0.000000000000000000 ) ) ;
#430 = ORIENTED_EDGE ( 'NONE', *, *, #211, .F. ) ;
#431 = EDGE_CURVE ( 'NONE', #103, #441, #132, .T. ) ;
#432 = CARTESIAN_POINT ( 'NONE',  ( 115.9999999999999432, 3.000000000000000000, -2.499999999999995115 ) ) ;
#433 = ORIENTED_EDGE ( 'NONE', *, *, #519, .T. ) ;
#434 = AXIS2_PLACEMENT_3D ( 'NONE', #381, #590, #117 ) ;
#435 = VECTOR ( 'NONE', #415, 1000.000000000000000 ) ;
#436 = APPLICATION_PROTOCOL_DEFINITION ( 'draft international standard', 'automotive_design', 1998, #240 ) ;
#437 = ORIENTED_EDGE ( 'NONE', *, *, #549, .F. ) ;
#438 = DIRECTION ( 'NONE',  ( 0.000000000000000000, 0.000000000000000000, 1.000000000000000000 ) ) ;
#439 = ORIENTED_EDGE ( 'NONE', *, *, #112, .T. ) ;
#440 = DIRECTION ( 'NONE',  ( -0.4999999999999919509, 0.000000000000000000, -0.8660254037844433705 ) ) ;
#441 = VERTEX_POINT ( 'NONE', #178 ) ;
#442 = VERTEX_POINT ( 'NONE', #68 ) ;
#443 = CARTESIAN_POINT ( 'NONE',  ( 115.9999999999999432, 3.000000000000000000, 0.000000000000000000 ) ) ;
#444 = EDGE_LOOP ( 'NONE', ( #163, #269, #227, #428 ) ) ;
#445 = AXIS2_PLACEMENT_3D ( 'NONE', #296, #463, #656 ) ;
#446 = AXIS2_PLACEMENT_3D ( 'NONE', #156, #104, #253 ) ;
#447 = VECTOR ( 'NONE', #199, 1000.000000000000000 ) ;
#448 = CYLINDRICAL_SURFACE ( 'NONE', #490, 2.499999999999988454 ) ;
#449 = CARTESIAN_POINT ( 'NONE',  ( 0.000000000000000000, 3.000000000000000000, 5.000000000000000000 ) ) ;
#450 = DIRECTION ( 'NONE',  ( 0.000000000000000000, 0.000000000000000000, 1.000000000000000000 ) ) ;
#451 = DIRECTION ( 'NONE',  ( 0.000000000000000000, 1.000000000000000000, -0.000000000000000000 ) ) ;
#452 = CARTESIAN_POINT ( 'NONE',  ( -5.773502691896251982, 0.000000000000000000, -4.054916125095786583E-14 ) ) ;
#453 = DIRECTION ( 'NONE',  ( 1.000000000000000000, -0.000000000000000000, 0.000000000000000000 ) ) ;
#454 = DIRECTION ( 'NONE',  ( 0.000000000000000000, 0.000000000000000000, 1.000000000000000000 ) ) ;
#455 = CIRCLE ( 'NONE', #73, 2.299999999999999822 ) ;
#456 = VERTEX_POINT ( 'NONE', #83 ) ;
#457 = AXIS2_PLACEMENT_3D ( 'NONE', #567, #623, #192 ) ;
#458 = DIRECTION ( 'NONE',  ( -0.000000000000000000, -1.000000000000000000, -0.000000000000000000 ) ) ;
#459 = EDGE_CURVE ( 'NONE', #103, #625, #5, .T. ) ;
#460 = DIRECTION ( 'NONE',  ( 0.000000000000000000, 1.000000000000000000, -0.000000000000000000 ) ) ;
#461 = CARTESIAN_POINT ( 'NONE',  ( -53.66987298107828508, 3.000000000000000000, 102.9589468389946063 ) ) ;
#462 = EDGE_CURVE ( 'NONE', #324, #625, #72, .T. ) ;
#463 = DIRECTION ( 'NONE',  ( 0.000000000000000000, 1.000000000000000000, -0.000000000000000000 ) ) ;
#464 = ORIENTED_EDGE ( 'NONE', *, *, #498, .F. ) ;
#465 = CARTESIAN_POINT ( 'NONE',  ( -58.00000000000044764, 3.000000000000000000, 100.4589468389945779 ) ) ;
#466 = ORIENTED_EDGE ( 'NONE', *, *, #510, .T. ) ;
#467 = AXIS2_PLACEMENT_3D ( 'NONE', #558, #29, #304 ) ;
#468 = LINE ( 'NONE', #205, #552 ) ;
#469 = VECTOR ( 'NONE', #655, 1000.000000000000000 ) ;
#470 =( LENGTH_UNIT ( ) NAMED_UNIT ( * ) SI_UNIT ( .MILLI., .METRE. ) );
#471 = DIRECTION ( 'NONE',  ( 0.000000000000000000, 0.000000000000000000, 1.000000000000000000 ) ) ;
#472 = ORIENTED_EDGE ( 'NONE', *, *, #96, .F. ) ;
#473 = FACE_OUTER_BOUND ( 'NONE', #621, .T. ) ;
#474 = EDGE_CURVE ( 'NONE', #442, #51, #397, .T. ) ;
#475 =( NAMED_UNIT ( * ) PLANE_ANGLE_UNIT ( ) SI_UNIT ( $, .RADIAN. ) );
#476 = ADVANCED_BREP_SHAPE_REPRESENTATION ( 'bangarang', ( #198, #643 ), #254 ) ;
#477 = CARTESIAN_POINT ( 'NONE',  ( -53.66987298107681426, 3.000000000000000000, -102.9589468389953453 ) ) ;
#478 = EDGE_CURVE ( 'NONE', #12, #336, #224, .T. ) ;
#479 = ORIENTED_EDGE ( 'NONE', *, *, #272, .T. ) ;
#480 = CARTESIAN_POINT ( 'NONE',  ( -58.00000000000044764, 3.000000000000000000, 102.9589468389945779 ) ) ;
#481 = ORIENTED_EDGE ( 'NONE', *, *, #611, .T. ) ;
#482 = EDGE_CURVE ( 'NONE', #298, #538, #19, .T. ) ;
#483 = APPLICATION_CONTEXT ( 'automotive_design' ) ;
#484 = DIRECTION ( 'NONE',  ( 0.000000000000000000, 1.000000000000000000, -0.000000000000000000 ) ) ;
#485 = ORIENTED_EDGE ( 'NONE', *, *, #255, .F. ) ;
#486 = ORIENTED_EDGE ( 'NONE', *, *, #519, .F. ) ;
#487 = FACE_BOUND ( 'NONE', #606, .T. ) ;
#488 = ORIENTED_EDGE ( 'NONE', *, *, #359, .F. ) ;
#489 = MECHANICAL_DESIGN_GEOMETRIC_PRESENTATION_REPRESENTATION (  '', ( #313 ), #597 ) ;
#490 = AXIS2_PLACEMENT_3D ( 'NONE', #338, #175, #232 ) ;
#491 = ADVANCED_FACE ( 'NONE', ( #604 ), #394, .T. ) ;
#492 = PRODUCT_CONTEXT ( 'NONE', #240, 'mechanical' ) ;
#493 = DIRECTION ( 'NONE',  ( -0.000000000000000000, -1.000000000000000000, -0.000000000000000000 ) ) ;
#494 = ORIENTED_EDGE ( 'NONE', *, *, #47, .F. ) ;
#495 = DIRECTION ( 'NONE',  ( -0.000000000000000000, -1.000000000000000000, -0.000000000000000000 ) ) ;
#496 = ORIENTED_EDGE ( 'NONE', *, *, #408, .T. ) ;
#497 = DIRECTION ( 'NONE',  ( 0.000000000000000000, 0.000000000000000000, 1.000000000000000000 ) ) ;
#498 = EDGE_CURVE ( 'NONE', #194, #376, #229, .T. ) ;
#499 = LINE ( 'NONE', #230, #342 ) ;
#500 = DIRECTION ( 'NONE',  ( 0.000000000000000000, 0.000000000000000000, 1.000000000000000000 ) ) ;
#501 = ADVANCED_FACE ( 'NONE', ( #398 ), #448, .F. ) ;
#502 = VERTEX_POINT ( 'NONE', #181 ) ;
#503 = DIRECTION ( 'NONE',  ( 1.000000000000000000, -0.000000000000000000, 0.000000000000000000 ) ) ;
#504 = FACE_BOUND ( 'NONE', #524, .T. ) ;
#505 = EDGE_CURVE ( 'NONE', #344, #284, #653, .T. ) ;
#506 = CARTESIAN_POINT ( 'NONE',  ( 115.9999999999999432, 3.000000000000000000, 5.000000000000000000 ) ) ;
#507 = CARTESIAN_POINT ( 'NONE',  ( 115.9999999999999432, 0.000000000000000000, 0.000000000000000000 ) ) ;
#508 = ORIENTED_EDGE ( 'NONE', *, *, #651, .T. ) ;
#509 = VECTOR ( 'NONE', #666, 1000.000000000000114 ) ;
#510 = EDGE_CURVE ( 'NONE', #420, #67, #532, .T. ) ;
#511 = DIRECTION ( 'NONE',  ( -0.000000000000000000, -1.000000000000000000, -0.000000000000000000 ) ) ;
#512 = DIRECTION ( 'NONE',  ( -0.000000000000000000, -1.000000000000000000, -0.000000000000000000 ) ) ;
#513 = DIRECTION ( 'NONE',  ( -0.000000000000000000, -1.000000000000000000, -0.000000000000000000 ) ) ;
#514 = FACE_OUTER_BOUND ( 'NONE', #543, .T. ) ;
#515 = DIRECTION ( 'NONE',  ( -1.000000000000000000, 0.000000000000000000, -0.000000000000000000 ) ) ;
#516 = ORIENTED_EDGE ( 'NONE', *, *, #418, .F. ) ;
#517 = DIRECTION ( 'NONE',  ( 0.8660254037844363761, -0.000000000000000000, 0.5000000000000038858 ) ) ;
#518 = PRODUCT_DEFINITION_SHAPE ( 'NONE', 'NONE',  #378 ) ;
#519 = EDGE_CURVE ( 'NONE', #167, #118, #278, .T. ) ;
#520 = AXIS2_PLACEMENT_3D ( 'NONE', #183, #348, #613 ) ;
#521 = VECTOR ( 'NONE', #311, 1000.000000000000000 ) ;
#522 = CYLINDRICAL_SURFACE ( 'NONE', #63, 2.299999999999999822 ) ;
#523 = DIRECTION ( 'NONE',  ( 0.000000000000000000, 0.000000000000000000, 1.000000000000000000 ) ) ;
#524 = EDGE_LOOP ( 'NONE', ( #159, #332 ) ) ;
#525 = EDGE_CURVE ( 'NONE', #170, #103, #614, .T. ) ;
#526 = DIRECTION ( 'NONE',  ( 0.000000000000000000, 0.000000000000000000, 1.000000000000000000 ) ) ;
#527 = CARTESIAN_POINT ( 'NONE',  ( -58.00000000000044764, 3.000000000000000000, 97.95894683899457789 ) ) ;
#528 = DIRECTION ( 'NONE',  ( -0.000000000000000000, -1.000000000000000000, -0.000000000000000000 ) ) ;
#529 = ADVANCED_FACE ( 'NONE', ( #295 ), #135, .T. ) ;
#530 = VECTOR ( 'NONE', #495, 1000.000000000000000 ) ;
#531 = EDGE_LOOP ( 'NONE', ( #223, #60, #393, #508 ) ) ;
#532 = CIRCLE ( 'NONE', #165, 2.499999999999988454 ) ;
#533 = DIRECTION ( 'NONE',  ( 0.000000000000000000, 0.000000000000000000, 1.000000000000000000 ) ) ;
#534 = DIRECTION ( 'NONE',  ( -0.000000000000000000, -1.000000000000000000, -0.000000000000000000 ) ) ;
#535 = ORIENTED_EDGE ( 'NONE', *, *, #418, .T. ) ;
#536 = DIRECTION ( 'NONE',  ( -0.000000000000000000, -1.000000000000000000, -0.000000000000000000 ) ) ;
#537 = ORIENTED_EDGE ( 'NONE', *, *, #667, .F. ) ;
#538 = VERTEX_POINT ( 'NONE', #600 ) ;
#539 = VECTOR ( 'NONE', #440, 999.9999999999998863 ) ;
#540 = AXIS2_PLACEMENT_3D ( 'NONE', #355, #564, #48 ) ;
#541 = EDGE_CURVE ( 'NONE', #298, #638, #228, .T. ) ;
#542 = LINE ( 'NONE', #384, #539 ) ;
#543 = EDGE_LOOP ( 'NONE', ( #546, #593, #56, #142 ) ) ;
#544 = EDGE_LOOP ( 'NONE', ( #49, #479 ) ) ;
#545 = DIRECTION ( 'NONE',  ( 0.000000000000000000, 1.000000000000000000, -0.000000000000000000 ) ) ;
#546 = ORIENTED_EDGE ( 'NONE', *, *, #201, .T. ) ;
#547 = PLANE ( 'NONE',  #53 ) ;
#548 = DIRECTION ( 'NONE',  ( 0.000000000000000000, 1.000000000000000000, -0.000000000000000000 ) ) ;
#549 = EDGE_CURVE ( 'NONE', #148, #441, #14, .T. ) ;
#550 = DIRECTION ( 'NONE',  ( 0.000000000000000000, 0.000000000000000000, -1.000000000000000000 ) ) ;
#551 = VECTOR ( 'NONE', #50, 1000.000000000000000 ) ;
#552 = VECTOR ( 'NONE', #681, 1000.000000000000000 ) ;
#553 = ORIENTED_EDGE ( 'NONE', *, *, #599, .T. ) ;
#554 = DIRECTION ( 'NONE',  ( 0.000000000000000000, 1.000000000000000000, -0.000000000000000000 ) ) ;
#555 = DIRECTION ( 'NONE',  ( -0.000000000000000000, -1.000000000000000000, -0.000000000000000000 ) ) ;
#556 = CARTESIAN_POINT ( 'NONE',  ( 0.000000000000000000, 0.000000000000000000, 0.000000000000000000 ) ) ;
#557 = DIRECTION ( 'NONE',  ( 0.000000000000000000, 1.000000000000000000, -0.000000000000000000 ) ) ;
#558 = CARTESIAN_POINT ( 'NONE',  ( 0.000000000000000000, 3.000000000000000000, 0.000000000000000000 ) ) ;
#559 = DIRECTION ( 'NONE',  ( 0.000000000000000000, 1.000000000000000000, -0.000000000000000000 ) ) ;
#560 = DIRECTION ( 'NONE',  ( 0.000000000000000000, 1.000000000000000000, -0.000000000000000000 ) ) ;
#561 = CARTESIAN_POINT ( 'NONE',  ( 115.9999999999999432, 0.000000000000000000, -2.499999999999995115 ) ) ;
#562 = AXIS2_PLACEMENT_3D ( 'NONE', #507, #684, #370 ) ;
#563 = ORIENTED_EDGE ( 'NONE', *, *, #300, .T. ) ;
#564 = DIRECTION ( 'NONE',  ( -0.000000000000000000, -1.000000000000000000, -0.000000000000000000 ) ) ;
#565 = SURFACE_SIDE_STYLE ('',( #628 ) ) ;
#566 = ORIENTED_EDGE ( 'NONE', *, *, #151, .T. ) ;
#567 = CARTESIAN_POINT ( 'NONE',  ( -58.00000000000044764, 3.000000000000000000, 100.4589468389945779 ) ) ;
#568 = CARTESIAN_POINT ( 'NONE',  ( -58.00000000000044764, 3.000000000000000000, 97.95894683899457789 ) ) ;
#569 = CARTESIAN_POINT ( 'NONE',  ( 115.9999999999999432, 0.000000000000000000, 0.000000000000000000 ) ) ;
#570 = CARTESIAN_POINT ( 'NONE',  ( 115.9999999999999432, 0.000000000000000000, 0.000000000000000000 ) ) ;
#571 = CLOSED_SHELL ( 'NONE', ( #57, #383, #102, #422, #226, #491, #74, #675, #238, #276, #529, #626, #602, #137, #672, #501, #581, #286, #173, #297 ) ) ;
#572 = CIRCLE ( 'NONE', #562, 5.000000000000000000 ) ;
#573 = DIRECTION ( 'NONE',  ( 0.000000000000000000, 0.000000000000000000, 1.000000000000000000 ) ) ;
#574 = VECTOR ( 'NONE', #453, 1000.000000000000000 ) ;
#575 = DIRECTION ( 'NONE',  ( -0.000000000000000000, -1.000000000000000000, -0.000000000000000000 ) ) ;
#576 = ORIENTED_EDGE ( 'NONE', *, *, #249, .F. ) ;
#577 = EDGE_CURVE ( 'NONE', #210, #108, #144, .T. ) ;
#578 = DIRECTION ( 'NONE',  ( -0.000000000000000000, -1.000000000000000000, -0.000000000000000000 ) ) ;
#579 = SURFACE_STYLE_USAGE ( .BOTH. , #565 ) ;
#580 = ORIENTED_EDGE ( 'NONE', *, *, #386, .F. ) ;
#581 = ADVANCED_FACE ( 'NONE', ( #364 ), #155, .T. ) ;
#582 = LINE ( 'NONE', #326, #584 ) ;
#583 = ORIENTED_EDGE ( 'NONE', *, *, #169, .F. ) ;
#584 = VECTOR ( 'NONE', #323, 1000.000000000000000 ) ;
#585 = DIRECTION ( 'NONE',  ( 0.000000000000000000, 0.000000000000000000, -1.000000000000000000 ) ) ;
#586 = ORIENTED_EDGE ( 'NONE', *, *, #105, .T. ) ;
#587 = AXIS2_PLACEMENT_3D ( 'NONE', #465, #617, #526 ) ;
#588 = CARTESIAN_POINT ( 'NONE',  ( 2.886751345948156189, 3.000000000000000000, -5.000000000000000888 ) ) ;
#589 = EDGE_LOOP ( 'NONE', ( #563, #580, #308, #380, #2, #486, #488, #216, #307, #437 ) ) ;
#590 = DIRECTION ( 'NONE',  ( -0.000000000000000000, -1.000000000000000000, -0.000000000000000000 ) ) ;
#591 = ORIENTED_EDGE ( 'NONE', *, *, #505, .T. ) ;
#592 = EDGE_CURVE ( 'NONE', #58, #456, #208, .T. ) ;
#593 = ORIENTED_EDGE ( 'NONE', *, *, #119, .F. ) ;
#594 = DIRECTION ( 'NONE',  ( 0.000000000000000000, 1.000000000000000000, -0.000000000000000000 ) ) ;
#595 = CIRCLE ( 'NONE', #445, 5.000000000000004441 ) ;
#596 = ORIENTED_EDGE ( 'NONE', *, *, #261, .F. ) ;
#597 =( GEOMETRIC_REPRESENTATION_CONTEXT ( 3 ) GLOBAL_UNCERTAINTY_ASSIGNED_CONTEXT ( ( #680 ) ) GLOBAL_UNIT_ASSIGNED_CONTEXT ( ( #470, #475, #674 ) ) REPRESENTATION_CONTEXT ( 'NONE', 'WORKASPACE' ) );
#598 = AXIS2_PLACEMENT_3D ( 'NONE', #235, #648, #189 ) ;
#599 = EDGE_CURVE ( 'NONE', #390, #58, #468, .T. ) ;
#600 = CARTESIAN_POINT ( 'NONE',  ( 0.000000000000000000, 0.000000000000000000, -2.299999999999999822 ) ) ;
#601 = ORIENTED_EDGE ( 'NONE', *, *, #636, .T. ) ;
#602 = ADVANCED_FACE ( 'NONE', ( #421 ), #405, .F. ) ;
#603 = ORIENTED_EDGE ( 'NONE', *, *, #577, .T. ) ;
#604 = FACE_OUTER_BOUND ( 'NONE', #157, .T. ) ;
#605 = LINE ( 'NONE', #294, #264 ) ;
#606 = EDGE_LOOP ( 'NONE', ( #396, #657 ) ) ;
#607 = CARTESIAN_POINT ( 'NONE',  ( -57.99999999999903366, 3.000000000000000000, -100.4589468389953595 ) ) ;
#608 = DIRECTION ( 'NONE',  ( 0.000000000000000000, 0.000000000000000000, 1.000000000000000000 ) ) ;
#609 = ORIENTED_EDGE ( 'NONE', *, *, #599, .F. ) ;
#610 = CARTESIAN_POINT ( 'NONE',  ( -57.99999999999903366, 3.000000000000000000, -100.4589468389953595 ) ) ;
#611 = EDGE_CURVE ( 'NONE', #339, #631, #410, .T. ) ;
#612 = CARTESIAN_POINT ( 'NONE',  ( 2.886751345948156189, 0.000000000000000000, -5.000000000000000888 ) ) ;
#613 = DIRECTION ( 'NONE',  ( 0.000000000000000000, 0.000000000000000000, 1.000000000000000000 ) ) ;
#614 = LINE ( 'NONE', #80, #469 ) ;
#615 = DIRECTION ( 'NONE',  ( 0.000000000000000000, 0.000000000000000000, -1.000000000000000000 ) ) ;
#616 = DIRECTION ( 'NONE',  ( -0.4999999999999918399, 0.000000000000000000, -0.8660254037844432595 ) ) ;
#617 = DIRECTION ( 'NONE',  ( 0.000000000000000000, 1.000000000000000000, -0.000000000000000000 ) ) ;
#618 = CARTESIAN_POINT ( 'NONE',  ( 115.9999999999999432, 3.000000000000000000, 2.499999999999995115 ) ) ;
#619 = ORIENTED_EDGE ( 'NONE', *, *, #126, .T. ) ;
#620 = VECTOR ( 'NONE', #493, 1000.000000000000000 ) ;
#621 = EDGE_LOOP ( 'NONE', ( #172, #69, #425, #496 ) ) ;
#622 = AXIS2_PLACEMENT_3D ( 'NONE', #352, #560, #450 ) ;
#623 = DIRECTION ( 'NONE',  ( -0.000000000000000000, -1.000000000000000000, -0.000000000000000000 ) ) ;
#624 = PRESENTATION_STYLE_ASSIGNMENT (( #579 ) ) ;
#625 = VERTEX_POINT ( 'NONE', #245 ) ;
#626 = ADVANCED_FACE ( 'NONE', ( #146 ), #309, .T. ) ;
#627 = DIRECTION ( 'NONE',  ( 0.000000000000000000, 0.000000000000000000, 1.000000000000000000 ) ) ;
#628 = SURFACE_STYLE_FILL_AREA ( #248 ) ;
#629 = CARTESIAN_POINT ( 'NONE',  ( 0.000000000000000000, 3.000000000000000000, 0.000000000000000000 ) ) ;
#630 = PLANE ( 'NONE',  #277 ) ;
#631 = VERTEX_POINT ( 'NONE', #256 ) ;
#632 = CARTESIAN_POINT ( 'NONE',  ( -4.330127018922218518, 3.000000000000000000, 2.499999999999960032 ) ) ;
#633 = PRODUCT_DEFINITION_FORMATION_WITH_SPECIFIED_SOURCE ( 'ANY', '', #244, .NOT_KNOWN. ) ;
#634 = CYLINDRICAL_SURFACE ( 'NONE', #446, 5.000000000000004441 ) ;
#635 = ORIENTED_EDGE ( 'NONE', *, *, #281, .F. ) ;
#636 = EDGE_CURVE ( 'NONE', #250, #339, #325, .T. ) ;
#637 = DIRECTION ( 'NONE',  ( -0.4999999999999919509, 0.000000000000000000, -0.8660254037844433705 ) ) ;
#638 = VERTEX_POINT ( 'NONE', #312 ) ;
#639 = CARTESIAN_POINT ( 'NONE',  ( 4.330127018922214965, 3.000000000000000000, -2.499999999999958700 ) ) ;
#640 = EDGE_LOOP ( 'NONE', ( #596, #116, #535, #204 ) ) ;
#641 = CARTESIAN_POINT ( 'NONE',  ( -58.00000000000044764, 0.000000000000000000, 97.95894683899457789 ) ) ;
#642 = EDGE_LOOP ( 'NONE', ( #280, #330, #553, #177 ) ) ;
#643 = AXIS2_PLACEMENT_3D ( 'NONE', #372, #533, #322 ) ;
#644 = FACE_OUTER_BOUND ( 'NONE', #90, .T. ) ;
#645 = ORIENTED_EDGE ( 'NONE', *, *, #408, .F. ) ;
#646 = CYLINDRICAL_SURFACE ( 'NONE', #42, 2.499999999999988454 ) ;
#647 = ORIENTED_EDGE ( 'NONE', *, *, #525, .T. ) ;
#648 = DIRECTION ( 'NONE',  ( 0.8660254037844363761, -0.000000000000000000, 0.5000000000000039968 ) ) ;
#649 = ORIENTED_EDGE ( 'NONE', *, *, #220, .F. ) ;
#650 = AXIS2_PLACEMENT_3D ( 'NONE', #570, #94, #523 ) ;
#651 = EDGE_CURVE ( 'NONE', #170, #148, #91, .T. ) ;
#652 = ORIENTED_EDGE ( 'NONE', *, *, #337, .F. ) ;
#653 = LINE ( 'NONE', #77, #266 ) ;
#654 = DIRECTION ( 'NONE',  ( -0.5000000000000041078, 0.000000000000000000, 0.8660254037844363761 ) ) ;
#655 = DIRECTION ( 'NONE',  ( 1.000000000000000000, -0.000000000000000000, 0.000000000000000000 ) ) ;
#656 = DIRECTION ( 'NONE',  ( 0.000000000000000000, 0.000000000000000000, 1.000000000000000000 ) ) ;
#657 = ORIENTED_EDGE ( 'NONE', *, *, #21, .T. ) ;
#658 = EDGE_CURVE ( 'NONE', #390, #234, #17, .T. ) ;
#659 = DIRECTION ( 'NONE',  ( 1.000000000000000000, -0.000000000000000000, 0.000000000000000000 ) ) ;
#660 = AXIS2_PLACEMENT_3D ( 'NONE', #449, #347, #392 ) ;
#661 = CARTESIAN_POINT ( 'NONE',  ( 0.000000000000000000, 0.000000000000000000, 0.000000000000000000 ) ) ;
#662 = AXIS2_PLACEMENT_3D ( 'NONE', #55, #218, #585 ) ;
#663 = AXIS2_PLACEMENT_3D ( 'NONE', #632, #32, #251 ) ;
#664 = UNCERTAINTY_MEASURE_WITH_UNIT (LENGTH_MEASURE( 1.000000000000000082E-05 ), #99, 'distance_accuracy_value', 'NONE');
#665 = ORIENTED_EDGE ( 'NONE', *, *, #403, .T. ) ;
#666 = DIRECTION ( 'NONE',  ( -0.5000000000000038858, 0.000000000000000000, 0.8660254037844363761 ) ) ;
#667 = EDGE_CURVE ( 'NONE', #237, #442, #368, .T. ) ;
#668 = FACE_BOUND ( 'NONE', #176, .T. ) ;
#669 = EDGE_LOOP ( 'NONE', ( #665, #603 ) ) ;
#670 = CYLINDRICAL_SURFACE ( 'NONE', #540, 5.000000000000000000 ) ;
#671 = FACE_OUTER_BOUND ( 'NONE', #531, .T. ) ;
#672 = ADVANCED_FACE ( 'NONE', ( #417 ), #522, .F. ) ;
#673 = CYLINDRICAL_SURFACE ( 'NONE', #239, 2.500000000000002220 ) ;
#674 =( NAMED_UNIT ( * ) SI_UNIT ( $, .STERADIAN. ) SOLID_ANGLE_UNIT ( ) );
#675 = ADVANCED_FACE ( 'NONE', ( #514 ), #670, .T. ) ;
#676 = AXIS2_PLACEMENT_3D ( 'NONE', #270, #484, #267 ) ;
#677 = EDGE_LOOP ( 'NONE', ( #466, #38, #287, #516 ) ) ;
#678 = CARTESIAN_POINT ( 'NONE',  ( -4.330127018922182991, 3.000000000000000000, -2.500000000000020428 ) ) ;
#679 = LINE ( 'NONE', #92, #521 ) ;
#680 = UNCERTAINTY_MEASURE_WITH_UNIT (LENGTH_MEASURE( 1.000000000000000082E-05 ), #470, 'distance_accuracy_value', 'NONE');
#681 = DIRECTION ( 'NONE',  ( -0.000000000000000000, -1.000000000000000000, -0.000000000000000000 ) ) ;
#682 = CARTESIAN_POINT ( 'NONE',  ( -57.99999999999903366, 3.000000000000000000, -105.4589468389953737 ) ) ;
#683 = EDGE_LOOP ( 'NONE', ( #122, #89, #258, #65 ) ) ;
#684 = DIRECTION ( 'NONE',  ( 0.000000000000000000, 1.000000000000000000, -0.000000000000000000 ) ) ;
#685 = CIRCLE ( 'NONE', #252, 2.299999999999999822 ) ;
#686 = FACE_OUTER_BOUND ( 'NONE', #427, .T. ) ;
#687 = ORIENTED_EDGE ( 'NONE', *, *, #658, .T. ) ;
#688 = CARTESIAN_POINT ( 'NONE',  ( 115.9999999999999432, 0.000000000000000000, -5.000000000000000000 ) ) ;
#689 = ORIENTED_EDGE ( 'NONE', *, *, #52, .F. ) ;
ENDSEC;
END-ISO-10303-21;
