ISO-10303-21;
HEADER;
FILE_DESCRIPTION (( 'STEP AP203' ),
    '1' );
FILE_NAME ('GlassCircleToolingstencil.STEP',
    '2025-07-04T03:14:48',
    ( '' ),
    ( '' ),
    'SwSTEP 2.0',
    'SolidWorks 2023',
    '' );
FILE_SCHEMA (( 'CONFIG_CONTROL_DESIGN' ));
ENDSEC;

DATA;
#1 = ORIENTED_EDGE ( 'NONE', *, *, #560, .F. ) ;
#2 = CARTESIAN_POINT ( 'NONE',  ( -57.99999999999903366, 0.000000000000000000, -100.4589468389953595 ) ) ;
#3 = CC_DESIGN_PERSON_AND_ORGANIZATION_ASSIGNMENT ( #638, #51, ( #649 ) ) ;
#4 = PRODUCT_DEFINITION_FORMATION_WITH_SPECIFIED_SOURCE ( 'ANY', '', #147, .NOT_KNOWN. ) ;
#5 = ORIENTED_EDGE ( 'NONE', *, *, #359, .T. ) ;
#6 = DIRECTION ( 'NONE',  ( 0.000000000000000000, 0.000000000000000000, -1.000000000000000000 ) ) ;
#7 = ORIENTED_EDGE ( 'NONE', *, *, #416, .F. ) ;
#8 = CARTESIAN_POINT ( 'NONE',  ( 2.886751345948114000, 0.5000000000000000000, 5.000000000000000888 ) ) ;
#9 = DATE_AND_TIME ( #576, #626 ) ;
#10 = EDGE_LOOP ( 'NONE', ( #424, #393, #343, #28 ) ) ;
#11 = CARTESIAN_POINT ( 'NONE',  ( 0.000000000000000000, 0.5000000000000000000, -2.299999999999999822 ) ) ;
#12 = FACE_BOUND ( 'NONE', #256, .T. ) ;
#13 = AXIS2_PLACEMENT_3D ( 'NONE', #209, #38, #610 ) ;
#14 = ORIENTED_EDGE ( 'NONE', *, *, #679, .T. ) ;
#15 = DIRECTION ( 'NONE',  ( 0.000000000000000000, 1.000000000000000000, -0.000000000000000000 ) ) ;
#16 = ORIENTED_EDGE ( 'NONE', *, *, #45, .F. ) ;
#17 = FACE_OUTER_BOUND ( 'NONE', #592, .T. ) ;
#18 = CARTESIAN_POINT ( 'NONE',  ( 0.000000000000000000, 0.5000000000000000000, -5.000000000000000000 ) ) ;
#19 = CARTESIAN_POINT ( 'NONE',  ( 0.000000000000000000, 0.5000000000000000000, -5.000000000000000000 ) ) ;
#20 = EDGE_CURVE ( 'NONE', #311, #22, #252, .T. ) ;
#21 = VERTEX_POINT ( 'NONE', #493 ) ;
#22 = VERTEX_POINT ( 'NONE', #303 ) ;
#23 = CYLINDRICAL_SURFACE ( 'NONE', #32, 5.000000000000004441 ) ;
#24 = FACE_BOUND ( 'NONE', #241, .T. ) ;
#25 = EDGE_CURVE ( 'NONE', #695, #73, #582, .T. ) ;
#26 = ORIENTED_EDGE ( 'NONE', *, *, #588, .T. ) ;
#27 = COORDINATED_UNIVERSAL_TIME_OFFSET ( 6, 0, .BEHIND. ) ;
#28 = ORIENTED_EDGE ( 'NONE', *, *, #224, .F. ) ;
#29 = VECTOR ( 'NONE', #108, 1000.000000000000000 ) ;
#30 = FACE_OUTER_BOUND ( 'NONE', #203, .T. ) ;
#31 = DIRECTION ( 'NONE',  ( 0.000000000000000000, 0.000000000000000000, 1.000000000000000000 ) ) ;
#32 = AXIS2_PLACEMENT_3D ( 'NONE', #547, #430, #85 ) ;
#33 = APPROVAL_PERSON_ORGANIZATION ( #492, #483, #188 ) ;
#34 = VERTEX_POINT ( 'NONE', #537 ) ;
#35 = CARTESIAN_POINT ( 'NONE',  ( 115.9999999999999432, 0.5000000000000000000, -2.499999999999995115 ) ) ;
#36 = DIRECTION ( 'NONE',  ( -0.000000000000000000, -1.000000000000000000, -0.000000000000000000 ) ) ;
#37 = ORIENTED_EDGE ( 'NONE', *, *, #658, .F. ) ;
#38 = DIRECTION ( 'NONE',  ( 0.8660254037844363761, -0.000000000000000000, 0.5000000000000038858 ) ) ;
#39 = CARTESIAN_POINT ( 'NONE',  ( -53.66987298107681426, 0.000000000000000000, -102.9589468389953453 ) ) ;
#40 = MECHANICAL_CONTEXT ( 'NONE', #506, 'mechanical' ) ;
#41 = CIRCLE ( 'NONE', #676, 2.500000000000002220 ) ;
#42 = ADVANCED_FACE ( 'NONE', ( #17 ), #479, .T. ) ;
#43 = AXIS2_PLACEMENT_3D ( 'NONE', #137, #375, #306 ) ;
#44 = DIRECTION ( 'NONE',  ( -0.000000000000000000, -1.000000000000000000, -0.000000000000000000 ) ) ;
#45 = EDGE_CURVE ( 'NONE', #648, #300, #127, .T. ) ;
#46 = CARTESIAN_POINT ( 'NONE',  ( 0.000000000000000000, 0.000000000000000000, -5.000000000000000000 ) ) ;
#47 = ADVANCED_FACE ( 'NONE', ( #319 ), #382, .F. ) ;
#48 = AXIS2_PLACEMENT_3D ( 'NONE', #505, #670, #274 ) ;
#49 = EDGE_LOOP ( 'NONE', ( #702, #690, #255, #452 ) ) ;
#50 = DIRECTION ( 'NONE',  ( -0.000000000000000000, -1.000000000000000000, -0.000000000000000000 ) ) ;
#51 = PERSON_AND_ORGANIZATION_ROLE ( 'creator' ) ;
#52 = ORIENTED_EDGE ( 'NONE', *, *, #100, .F. ) ;
#53 = CARTESIAN_POINT ( 'NONE',  ( 4.330127018922182991, 0.5000000000000000000, 2.500000000000020872 ) ) ;
#54 = ORIENTED_EDGE ( 'NONE', *, *, #469, .T. ) ;
#55 = DIRECTION ( 'NONE',  ( 0.000000000000000000, 1.000000000000000000, -0.000000000000000000 ) ) ;
#56 = EDGE_CURVE ( 'NONE', #586, #643, #555, .T. ) ;
#57 = AXIS2_PLACEMENT_3D ( 'NONE', #699, #189, #365 ) ;
#58 = VECTOR ( 'NONE', #70, 1000.000000000000000 ) ;
#59 = CIRCLE ( 'NONE', #104, 2.500000000000002220 ) ;
#60 = ORIENTED_EDGE ( 'NONE', *, *, #342, .T. ) ;
#61 = CARTESIAN_POINT ( 'NONE',  ( 115.9999999999999432, 0.5000000000000000000, 0.000000000000000000 ) ) ;
#62 = EDGE_CURVE ( 'NONE', #311, #225, #520, .T. ) ;
#63 = FACE_BOUND ( 'NONE', #371, .T. ) ;
#64 = APPROVAL_ROLE ( '' ) ;
#65 = CARTESIAN_POINT ( 'NONE',  ( 4.330127018922182991, 0.000000000000000000, 2.500000000000020872 ) ) ;
#66 = ADVANCED_FACE ( 'NONE', ( #281 ), #400, .F. ) ;
#67 = CARTESIAN_POINT ( 'NONE',  ( 115.9999999999999432, 0.000000000000000000, 0.000000000000000000 ) ) ;
#68 = FACE_OUTER_BOUND ( 'NONE', #680, .T. ) ;
#69 = ORIENTED_EDGE ( 'NONE', *, *, #323, .T. ) ;
#70 = DIRECTION ( 'NONE',  ( -0.000000000000000000, -1.000000000000000000, -0.000000000000000000 ) ) ;
#71 = DIRECTION ( 'NONE',  ( 0.000000000000000000, 0.000000000000000000, 1.000000000000000000 ) ) ;
#72 = VECTOR ( 'NONE', #126, 1000.000000000000000 ) ;
#73 = VERTEX_POINT ( 'NONE', #402 ) ;
#74 = CALENDAR_DATE ( 2025, 3, 7 ) ;
#75 = VERTEX_POINT ( 'NONE', #231 ) ;
#76 = FACE_OUTER_BOUND ( 'NONE', #265, .T. ) ;
#77 = DIRECTION ( 'NONE',  ( 0.000000000000000000, 0.000000000000000000, 1.000000000000000000 ) ) ;
#78 = EDGE_CURVE ( 'NONE', #124, #149, #171, .T. ) ;
#79 = VERTEX_POINT ( 'NONE', #464 ) ;
#80 = ORIENTED_EDGE ( 'NONE', *, *, #507, .T. ) ;
#81 = CARTESIAN_POINT ( 'NONE',  ( -57.99999999999903366, 0.000000000000000000, -100.4589468389953595 ) ) ;
#82 = DIRECTION ( 'NONE',  ( -0.5000000000000038858, 0.000000000000000000, 0.8660254037844363761 ) ) ;
#83 = VERTEX_POINT ( 'NONE', #635 ) ;
#84 = ORIENTED_EDGE ( 'NONE', *, *, #62, .F. ) ;
#85 = DIRECTION ( 'NONE',  ( 0.000000000000000000, 0.000000000000000000, -1.000000000000000000 ) ) ;
#86 = CARTESIAN_POINT ( 'NONE',  ( 115.9999999999999432, 0.5000000000000000000, 0.000000000000000000 ) ) ;
#87 = ORIENTED_EDGE ( 'NONE', *, *, #244, .F. ) ;
#88 = CIRCLE ( 'NONE', #470, 2.499999999999995115 ) ;
#89 = AXIS2_PLACEMENT_3D ( 'NONE', #321, #557, #589 ) ;
#90 = CARTESIAN_POINT ( 'NONE',  ( -57.99999999999903366, 0.5000000000000000000, -100.4589468389953595 ) ) ;
#91 = DIRECTION ( 'NONE',  ( -1.000000000000000000, 0.000000000000000000, -0.000000000000000000 ) ) ;
#92 = PLANE ( 'NONE',  #89 ) ;
#93 = CC_DESIGN_PERSON_AND_ORGANIZATION_ASSIGNMENT ( #172, #398, ( #147 ) ) ;
#94 = CARTESIAN_POINT ( 'NONE',  ( 115.9999999999999432, 0.000000000000000000, -5.000000000000000000 ) ) ;
#95 = DIRECTION ( 'NONE',  ( -0.000000000000000000, -1.000000000000000000, -0.000000000000000000 ) ) ;
#96 = AXIS2_PLACEMENT_3D ( 'NONE', #90, #720, #267 ) ;
#97 = ORIENTED_EDGE ( 'NONE', *, *, #714, .F. ) ;
#98 = ADVANCED_FACE ( 'NONE', ( #460 ), #344, .F. ) ;
#99 = CIRCLE ( 'NONE', #48, 2.499999999999995115 ) ;
#100 = EDGE_CURVE ( 'NONE', #79, #21, #278, .T. ) ;
#101 = DIRECTION ( 'NONE',  ( 0.000000000000000000, 0.000000000000000000, -1.000000000000000000 ) ) ;
#102 = DIRECTION ( 'NONE',  ( 0.5000000000000041078, 0.000000000000000000, -0.8660254037844363761 ) ) ;
#103 = VECTOR ( 'NONE', #686, 1000.000000000000000 ) ;
#104 = AXIS2_PLACEMENT_3D ( 'NONE', #431, #548, #269 ) ;
#105 = CALENDAR_DATE ( 2025, 3, 7 ) ;
#106 = EDGE_LOOP ( 'NONE', ( #97, #236, #546, #163 ) ) ;
#107 = EDGE_CURVE ( 'NONE', #695, #354, #117, .T. ) ;
#108 = DIRECTION ( 'NONE',  ( -0.000000000000000000, -1.000000000000000000, -0.000000000000000000 ) ) ;
#109 = FACE_OUTER_BOUND ( 'NONE', #128, .T. ) ;
#110 = ORIENTED_EDGE ( 'NONE', *, *, #25, .T. ) ;
#111 = LINE ( 'NONE', #581, #362 ) ;
#112 = EDGE_CURVE ( 'NONE', #184, #73, #291, .T. ) ;
#113 = CARTESIAN_POINT ( 'NONE',  ( -62.33012701892261020, 0.000000000000000000, 97.95894683899456368 ) ) ;
#114 = VECTOR ( 'NONE', #595, 999.9999999999998863 ) ;
#115 = AXIS2_PLACEMENT_3D ( 'NONE', #140, #715, #77 ) ;
#116 = DATE_TIME_ROLE ( 'creation_date' ) ;
#117 = LINE ( 'NONE', #532, #468 ) ;
#118 = DIRECTION ( 'NONE',  ( 0.000000000000000000, 1.000000000000000000, -0.000000000000000000 ) ) ;
#119 = ORIENTED_EDGE ( 'NONE', *, *, #100, .T. ) ;
#120 = CARTESIAN_POINT ( 'NONE',  ( 0.000000000000000000, 0.000000000000000000, 0.000000000000000000 ) ) ;
#121 = VERTEX_POINT ( 'NONE', #238 ) ;
#122 = ORIENTED_EDGE ( 'NONE', *, *, #45, .T. ) ;
#123 = DIRECTION ( 'NONE',  ( 0.000000000000000000, 0.000000000000000000, 1.000000000000000000 ) ) ;
#124 = VERTEX_POINT ( 'NONE', #573 ) ;
#125 = CARTESIAN_POINT ( 'NONE',  ( 4.330127018922214965, 0.5000000000000000000, -2.499999999999958700 ) ) ;
#126 = DIRECTION ( 'NONE',  ( -0.000000000000000000, -1.000000000000000000, -0.000000000000000000 ) ) ;
#127 = CIRCLE ( 'NONE', #96, 2.499999999999988454 ) ;
#128 = EDGE_LOOP ( 'NONE', ( #110, #181, #37, #178, #230, #625, #484, #302, #187, #380 ) ) ;
#129 = VECTOR ( 'NONE', #247, 999.9999999999998863 ) ;
#130 = ORIENTED_EDGE ( 'NONE', *, *, #436, .F. ) ;
#131 = VECTOR ( 'NONE', #565, 1000.000000000000114 ) ;
#132 = PLANE ( 'NONE',  #194 ) ;
#133 = EDGE_CURVE ( 'NONE', #653, #184, #288, .T. ) ;
#134 = FACE_OUTER_BOUND ( 'NONE', #138, .T. ) ;
#135 = VECTOR ( 'NONE', #82, 1000.000000000000114 ) ;
#136 = APPLICATION_CONTEXT ( 'configuration controlled 3d designs of mechanical parts and assemblies' ) ;
#137 = CARTESIAN_POINT ( 'NONE',  ( 0.000000000000000000, 0.5000000000000000000, 0.000000000000000000 ) ) ;
#138 = EDGE_LOOP ( 'NONE', ( #463, #551, #182, #314 ) ) ;
#139 = FACE_OUTER_BOUND ( 'NONE', #250, .T. ) ;
#140 = CARTESIAN_POINT ( 'NONE',  ( -57.99999999999903366, 0.000000000000000000, -100.4589468389953595 ) ) ;
#141 = EDGE_LOOP ( 'NONE', ( #185, #642, #614, #157 ) ) ;
#142 = PERSON_AND_ORGANIZATION_ROLE ( 'classification_officer' ) ;
#143 = ORIENTED_EDGE ( 'NONE', *, *, #277, .F. ) ;
#144 = DIRECTION ( 'NONE',  ( 0.000000000000000000, 1.000000000000000000, -0.000000000000000000 ) ) ;
#145 = DIRECTION ( 'NONE',  ( -0.000000000000000000, -1.000000000000000000, -0.000000000000000000 ) ) ;
#146 = EDGE_LOOP ( 'NONE', ( #604, #639, #130, #688 ) ) ;
#147 = PRODUCT ( 'GlassCircleToolingstencil', 'GlassCircleToolingstencil', '', ( #40 ) ) ;
#148 = EDGE_CURVE ( 'NONE', #34, #450, #629, .T. ) ;
#149 = VERTEX_POINT ( 'NONE', #518 ) ;
#150 = AXIS2_PLACEMENT_3D ( 'NONE', #640, #50, #6 ) ;
#151 = LINE ( 'NONE', #260, #421 ) ;
#152 = AXIS2_PLACEMENT_3D ( 'NONE', #440, #509, #161 ) ;
#153 = EDGE_CURVE ( 'NONE', #328, #643, #503, .T. ) ;
#154 = DIRECTION ( 'NONE',  ( 0.000000000000000000, 0.000000000000000000, 1.000000000000000000 ) ) ;
#155 = CARTESIAN_POINT ( 'NONE',  ( 0.000000000000000000, 0.000000000000000000, 0.000000000000000000 ) ) ;
#156 = LINE ( 'NONE', #46, #652 ) ;
#157 = ORIENTED_EDGE ( 'NONE', *, *, #556, .F. ) ;
#158 = DIRECTION ( 'NONE',  ( 0.000000000000000000, 0.000000000000000000, 1.000000000000000000 ) ) ;
#159 = EDGE_CURVE ( 'NONE', #648, #533, #111, .T. ) ;
#160 = VECTOR ( 'NONE', #418, 1000.000000000000000 ) ;
#161 = DIRECTION ( 'NONE',  ( 0.000000000000000000, 0.000000000000000000, 1.000000000000000000 ) ) ;
#162 = DIRECTION ( 'NONE',  ( 0.8660254037844363761, -0.000000000000000000, 0.5000000000000041078 ) ) ;
#163 = ORIENTED_EDGE ( 'NONE', *, *, #409, .T. ) ;
#164 = CARTESIAN_POINT ( 'NONE',  ( -58.00000000000044764, 0.5000000000000000000, 102.9589468389945779 ) ) ;
#165 = EDGE_CURVE ( 'NONE', #594, #473, #41, .T. ) ;
#166 = COORDINATED_UNIVERSAL_TIME_OFFSET ( 6, 0, .BEHIND. ) ;
#167 = ORIENTED_EDGE ( 'NONE', *, *, #603, .T. ) ;
#168 = CARTESIAN_POINT ( 'NONE',  ( -58.00000000000044764, 0.000000000000000000, 97.95894683899457789 ) ) ;
#169 = DIRECTION ( 'NONE',  ( -0.000000000000000000, -1.000000000000000000, -0.000000000000000000 ) ) ;
#170 = CIRCLE ( 'NONE', #180, 2.299999999999999822 ) ;
#171 = LINE ( 'NONE', #11, #103 ) ;
#172 = PERSON_AND_ORGANIZATION ( #622, #439 ) ;
#173 = EDGE_LOOP ( 'NONE', ( #16, #7 ) ) ;
#174 = CARTESIAN_POINT ( 'NONE',  ( -62.33012701892261020, 0.5000000000000000000, 97.95894683899456368 ) ) ;
#175 = ADVANCED_FACE ( 'NONE', ( #109, #523, #404, #63, #12 ), #226, .F. ) ;
#176 = DIRECTION ( 'NONE',  ( -0.5000000000000041078, 0.000000000000000000, 0.8660254037844363761 ) ) ;
#177 = EDGE_CURVE ( 'NONE', #354, #712, #706, .T. ) ;
#178 = ORIENTED_EDGE ( 'NONE', *, *, #56, .T. ) ;
#179 = VERTEX_POINT ( 'NONE', #451 ) ;
#180 = AXIS2_PLACEMENT_3D ( 'NONE', #202, #207, #495 ) ;
#181 = ORIENTED_EDGE ( 'NONE', *, *, #465, .F. ) ;
#182 = ORIENTED_EDGE ( 'NONE', *, *, #159, .T. ) ;
#183 = DIRECTION ( 'NONE',  ( 0.000000000000000000, 1.000000000000000000, -0.000000000000000000 ) ) ;
#184 = VERTEX_POINT ( 'NONE', #681 ) ;
#185 = ORIENTED_EDGE ( 'NONE', *, *, #399, .F. ) ;
#186 = CYLINDRICAL_SURFACE ( 'NONE', #619, 2.499999999999995115 ) ;
#187 = ORIENTED_EDGE ( 'NONE', *, *, #177, .F. ) ;
#188 = APPROVAL_ROLE ( '' ) ;
#189 = DIRECTION ( 'NONE',  ( -0.8660254037844433705, 0.000000000000000000, 0.4999999999999919509 ) ) ;
#190 = DIRECTION ( 'NONE',  ( -0.000000000000000000, -1.000000000000000000, -0.000000000000000000 ) ) ;
#191 = LINE ( 'NONE', #317, #72 ) ;
#192 = VECTOR ( 'NONE', #438, 1000.000000000000227 ) ;
#193 = ORIENTED_EDGE ( 'NONE', *, *, #519, .F. ) ;
#194 = AXIS2_PLACEMENT_3D ( 'NONE', #543, #661, #294 ) ;
#195 = ORIENTED_EDGE ( 'NONE', *, *, #277, .T. ) ;
#196 = VECTOR ( 'NONE', #441, 1000.000000000000000 ) ;
#197 = DIRECTION ( 'NONE',  ( 0.000000000000000000, 0.000000000000000000, 1.000000000000000000 ) ) ;
#198 = CARTESIAN_POINT ( 'NONE',  ( 2.816687638038912056E-16, 0.5000000000000000000, 2.299999999999999822 ) ) ;
#199 = ORIENTED_EDGE ( 'NONE', *, *, #20, .T. ) ;
#200 = VERTEX_POINT ( 'NONE', #168 ) ;
#201 = CARTESIAN_POINT ( 'NONE',  ( -57.99999999999903366, 0.000000000000000000, -105.4589468389953737 ) ) ;
#202 = CARTESIAN_POINT ( 'NONE',  ( 0.000000000000000000, 0.5000000000000000000, 0.000000000000000000 ) ) ;
#203 = EDGE_LOOP ( 'NONE', ( #459, #574, #413, #540 ) ) ;
#204 = CARTESIAN_POINT ( 'NONE',  ( -57.99999999999903366, 0.5000000000000000000, -100.4589468389953595 ) ) ;
#205 = ORIENTED_EDGE ( 'NONE', *, *, #630, .F. ) ;
#206 = LINE ( 'NONE', #707, #58 ) ;
#207 = DIRECTION ( 'NONE',  ( 0.000000000000000000, 1.000000000000000000, -0.000000000000000000 ) ) ;
#208 = EDGE_CURVE ( 'NONE', #79, #586, #395, .T. ) ;
#209 = CARTESIAN_POINT ( 'NONE',  ( -4.330127018922182991, 0.5000000000000000000, -2.500000000000020428 ) ) ;
#210 = VECTOR ( 'NONE', #717, 1000.000000000000000 ) ;
#211 = CARTESIAN_POINT ( 'NONE',  ( 0.000000000000000000, 0.5000000000000000000, 0.000000000000000000 ) ) ;
#212 = VECTOR ( 'NONE', #268, 1000.000000000000000 ) ;
#213 = APPROVAL_PERSON_ORGANIZATION ( #517, #385, #347 ) ;
#214 = ADVANCED_FACE ( 'NONE', ( #76 ), #23, .T. ) ;
#215 = CARTESIAN_POINT ( 'NONE',  ( 2.886751345948156189, 0.5000000000000000000, -5.000000000000000888 ) ) ;
#216 = DIRECTION ( 'NONE',  ( 0.000000000000000000, 0.000000000000000000, -1.000000000000000000 ) ) ;
#217 = ORIENTED_EDGE ( 'NONE', *, *, #502, .T. ) ;
#218 = CARTESIAN_POINT ( 'NONE',  ( 2.886751345948114000, 0.5000000000000000000, 5.000000000000000888 ) ) ;
#219 = ORIENTED_EDGE ( 'NONE', *, *, #107, .T. ) ;
#220 =( GEOMETRIC_REPRESENTATION_CONTEXT ( 3 ) GLOBAL_UNCERTAINTY_ASSIGNED_CONTEXT ( ( #554 ) ) GLOBAL_UNIT_ASSIGNED_CONTEXT ( ( #449, #387, #566 ) ) REPRESENTATION_CONTEXT ( 'NONE', 'WORKASPACE' ) );
#221 = CYLINDRICAL_SURFACE ( 'NONE', #272, 5.000000000000000000 ) ;
#222 = ADVANCED_FACE ( 'NONE', ( #30 ), #253, .T. ) ;
#223 = DIRECTION ( 'NONE',  ( 0.000000000000000000, 1.000000000000000000, -0.000000000000000000 ) ) ;
#224 = EDGE_CURVE ( 'NONE', #403, #149, #522, .T. ) ;
#225 = VERTEX_POINT ( 'NONE', #35 ) ;
#226 = PLANE ( 'NONE',  #561 ) ;
#227 = AXIS2_PLACEMENT_3D ( 'NONE', #81, #552, #262 ) ;
#228 = LOCAL_TIME ( 22, 14, 48.00000000000000000, #166 ) ;
#229 = EDGE_CURVE ( 'NONE', #617, #328, #692, .T. ) ;
#230 = ORIENTED_EDGE ( 'NONE', *, *, #153, .F. ) ;
#231 = CARTESIAN_POINT ( 'NONE',  ( 2.886751345948156189, 0.000000000000000000, -5.000000000000000888 ) ) ;
#232 = APPROVAL_DATE_TIME ( #9, #385 ) ;
#233 = ORIENTED_EDGE ( 'NONE', *, *, #301, .T. ) ;
#234 = EDGE_CURVE ( 'NONE', #631, #376, #425, .T. ) ;
#235 = DIRECTION ( 'NONE',  ( 0.000000000000000000, 0.000000000000000000, 1.000000000000000000 ) ) ;
#236 = ORIENTED_EDGE ( 'NONE', *, *, #564, .F. ) ;
#237 = COORDINATED_UNIVERSAL_TIME_OFFSET ( 6, 0, .BEHIND. ) ;
#238 = CARTESIAN_POINT ( 'NONE',  ( 115.9999999999999432, 0.000000000000000000, -2.499999999999995115 ) ) ;
#239 = VECTOR ( 'NONE', #352, 1000.000000000000000 ) ;
#240 = VECTOR ( 'NONE', #611, 1000.000000000000000 ) ;
#241 = EDGE_LOOP ( 'NONE', ( #193, #486 ) ) ;
#242 = ORIENTED_EDGE ( 'NONE', *, *, #177, .T. ) ;
#243 = DIRECTION ( 'NONE',  ( -0.000000000000000000, -1.000000000000000000, -0.000000000000000000 ) ) ;
#244 = EDGE_CURVE ( 'NONE', #179, #354, #206, .T. ) ;
#245 = ORIENTED_EDGE ( 'NONE', *, *, #301, .F. ) ;
#246 = ORIENTED_EDGE ( 'NONE', *, *, #208, .F. ) ;
#247 = DIRECTION ( 'NONE',  ( -0.4999999999999919509, 0.000000000000000000, -0.8660254037844433705 ) ) ;
#248 = DIRECTION ( 'NONE',  ( 0.000000000000000000, 1.000000000000000000, -0.000000000000000000 ) ) ;
#249 = APPROVAL ( #570, 'UNSPECIFIED' ) ;
#250 = EDGE_LOOP ( 'NONE', ( #287, #308, #420, #675 ) ) ;
#251 = DATE_TIME_ROLE ( 'classification_date' ) ;
#252 = LINE ( 'NONE', #358, #210 ) ;
#253 = CYLINDRICAL_SURFACE ( 'NONE', #634, 4.999999999999990230 ) ;
#254 = CARTESIAN_POINT ( 'NONE',  ( 0.000000000000000000, 0.5000000000000000000, 0.000000000000000000 ) ) ;
#255 = ORIENTED_EDGE ( 'NONE', *, *, #257, .T. ) ;
#256 = EDGE_LOOP ( 'NONE', ( #54, #664 ) ) ;
#257 = EDGE_CURVE ( 'NONE', #473, #200, #487, .T. ) ;
#258 = CC_DESIGN_APPROVAL ( #249, ( #4 ) ) ;
#259 = DIRECTION ( 'NONE',  ( 0.000000000000000000, 1.000000000000000000, -0.000000000000000000 ) ) ;
#260 = CARTESIAN_POINT ( 'NONE',  ( 2.886751345948156189, 0.5000000000000000000, -5.000000000000000888 ) ) ;
#261 = EDGE_LOOP ( 'NONE', ( #195, #80 ) ) ;
#262 = DIRECTION ( 'NONE',  ( 0.000000000000000000, 0.000000000000000000, 1.000000000000000000 ) ) ;
#263 = ADVANCED_FACE ( 'NONE', ( #139 ), #132, .F. ) ;
#264 = CARTESIAN_POINT ( 'NONE',  ( 2.816687638038912056E-16, 0.5000000000000000000, 2.299999999999999822 ) ) ;
#265 = EDGE_LOOP ( 'NONE', ( #527, #422, #69, #646 ) ) ;
#266 = DESIGN_CONTEXT ( 'detailed design', #136, 'design' ) ;
#267 = DIRECTION ( 'NONE',  ( 0.000000000000000000, 0.000000000000000000, 1.000000000000000000 ) ) ;
#268 = DIRECTION ( 'NONE',  ( -0.000000000000000000, -1.000000000000000000, -0.000000000000000000 ) ) ;
#269 = DIRECTION ( 'NONE',  ( 0.000000000000000000, 0.000000000000000000, 1.000000000000000000 ) ) ;
#270 = AXIS2_PLACEMENT_3D ( 'NONE', #2, #55, #693 ) ;
#271 = CARTESIAN_POINT ( 'NONE',  ( -4.330127018922182991, 0.000000000000000000, -2.500000000000020428 ) ) ;
#272 = AXIS2_PLACEMENT_3D ( 'NONE', #563, #44, #216 ) ;
#273 = EDGE_LOOP ( 'NONE', ( #245, #429 ) ) ;
#274 = DIRECTION ( 'NONE',  ( 0.000000000000000000, 0.000000000000000000, 1.000000000000000000 ) ) ;
#275 = AXIS2_PLACEMENT_3D ( 'NONE', #309, #434, #494 ) ;
#276 = ORIENTED_EDGE ( 'NONE', *, *, #448, .T. ) ;
#277 = EDGE_CURVE ( 'NONE', #533, #83, #709, .T. ) ;
#278 = LINE ( 'NONE', #575, #282 ) ;
#279 = DIRECTION ( 'NONE',  ( -0.000000000000000000, -1.000000000000000000, -0.000000000000000000 ) ) ;
#280 = VERTEX_POINT ( 'NONE', #476 ) ;
#281 = FACE_OUTER_BOUND ( 'NONE', #496, .T. ) ;
#282 = VECTOR ( 'NONE', #632, 1000.000000000000227 ) ;
#283 = CIRCLE ( 'NONE', #275, 2.500000000000002220 ) ;
#284 = VECTOR ( 'NONE', #333, 1000.000000000000000 ) ;
#285 = CC_DESIGN_DATE_AND_TIME_ASSIGNMENT ( #462, #116, ( #649 ) ) ;
#286 = CYLINDRICAL_SURFACE ( 'NONE', #406, 2.499999999999988454 ) ;
#287 = ORIENTED_EDGE ( 'NONE', *, *, #331, .T. ) ;
#288 = LINE ( 'NONE', #53, #724 ) ;
#289 = CARTESIAN_POINT ( 'NONE',  ( -57.99999999999903366, 0.5000000000000000000, -100.4589468389953595 ) ) ;
#290 = ORIENTED_EDGE ( 'NONE', *, *, #469, .F. ) ;
#291 = LINE ( 'NONE', #739, #239 ) ;
#292 = CARTESIAN_POINT ( 'NONE',  ( 0.000000000000000000, 0.000000000000000000, 0.000000000000000000 ) ) ;
#293 = ORIENTED_EDGE ( 'NONE', *, *, #658, .T. ) ;
#294 = DIRECTION ( 'NONE',  ( 0.4999999999999918954, 0.000000000000000000, 0.8660254037844432595 ) ) ;
#295 = CIRCLE ( 'NONE', #535, 2.499999999999995115 ) ;
#296 = AXIS2_PLACEMENT_3D ( 'NONE', #412, #118, #524 ) ;
#297 = DIRECTION ( 'NONE',  ( -0.5000000000000041078, 0.000000000000000000, 0.8660254037844363761 ) ) ;
#298 = FACE_OUTER_BOUND ( 'NONE', #106, .T. ) ;
#299 = DIRECTION ( 'NONE',  ( -0.000000000000000000, -1.000000000000000000, -0.000000000000000000 ) ) ;
#300 = VERTEX_POINT ( 'NONE', #378 ) ;
#301 = EDGE_CURVE ( 'NONE', #473, #594, #283, .T. ) ;
#302 = ORIENTED_EDGE ( 'NONE', *, *, #714, .T. ) ;
#303 = CARTESIAN_POINT ( 'NONE',  ( 115.9999999999999432, 0.000000000000000000, 2.499999999999995115 ) ) ;
#304 = CARTESIAN_POINT ( 'NONE',  ( -58.00000000000044764, 0.5000000000000000000, 100.4589468389945779 ) ) ;
#305 = FACE_BOUND ( 'NONE', #273, .T. ) ;
#306 = DIRECTION ( 'NONE',  ( 0.000000000000000000, 0.000000000000000000, -1.000000000000000000 ) ) ;
#307 = APPROVAL_STATUS ( 'not_yet_approved' ) ;
#308 = ORIENTED_EDGE ( 'NONE', *, *, #323, .F. ) ;
#309 = CARTESIAN_POINT ( 'NONE',  ( -58.00000000000044764, 0.5000000000000000000, 100.4589468389945779 ) ) ;
#310 = DIRECTION ( 'NONE',  ( 0.000000000000000000, 1.000000000000000000, -0.000000000000000000 ) ) ;
#311 = VERTEX_POINT ( 'NONE', #372 ) ;
#312 = CC_DESIGN_PERSON_AND_ORGANIZATION_ASSIGNMENT ( #703, #414, ( #4 ) ) ;
#313 = ORIENTED_EDGE ( 'NONE', *, *, #556, .T. ) ;
#314 = ORIENTED_EDGE ( 'NONE', *, *, #507, .F. ) ;
#315 = CIRCLE ( 'NONE', #513, 4.999999999999990230 ) ;
#316 = FACE_OUTER_BOUND ( 'NONE', #475, .T. ) ;
#317 = CARTESIAN_POINT ( 'NONE',  ( -57.99999999999903366, 0.5000000000000000000, -97.95894683899537370 ) ) ;
#318 = DATE_AND_TIME ( #74, #447 ) ;
#319 = FACE_OUTER_BOUND ( 'NONE', #598, .T. ) ;
#320 = DIRECTION ( 'NONE',  ( 0.000000000000000000, 1.000000000000000000, -0.000000000000000000 ) ) ;
#321 = CARTESIAN_POINT ( 'NONE',  ( 0.000000000000000000, 0.5000000000000000000, 5.000000000000000000 ) ) ;
#322 = CARTESIAN_POINT ( 'NONE',  ( -57.99999999999903366, 0.5000000000000000000, -105.4589468389953737 ) ) ;
#323 = EDGE_CURVE ( 'NONE', #376, #617, #713, .T. ) ;
#324 = ORIENTED_EDGE ( 'NONE', *, *, #409, .F. ) ;
#325 = VECTOR ( 'NONE', #480, 1000.000000000000000 ) ;
#326 = FACE_OUTER_BOUND ( 'NONE', #401, .T. ) ;
#327 = VECTOR ( 'NONE', #334, 1000.000000000000000 ) ;
#328 = VERTEX_POINT ( 'NONE', #201 ) ;
#329 = CC_DESIGN_PERSON_AND_ORGANIZATION_ASSIGNMENT ( #428, #593, ( #4 ) ) ;
#330 = DIRECTION ( 'NONE',  ( -0.000000000000000000, -1.000000000000000000, -0.000000000000000000 ) ) ;
#331 = EDGE_CURVE ( 'NONE', #75, #617, #700, .T. ) ;
#332 = CARTESIAN_POINT ( 'NONE',  ( 2.816687638038912056E-16, 0.000000000000000000, 2.299999999999999822 ) ) ;
#333 = DIRECTION ( 'NONE',  ( -0.000000000000000000, -1.000000000000000000, -0.000000000000000000 ) ) ;
#334 = DIRECTION ( 'NONE',  ( -0.000000000000000000, -1.000000000000000000, -0.000000000000000000 ) ) ;
#335 = ADVANCED_FACE ( 'NONE', ( #316 ), #186, .F. ) ;
#336 = LINE ( 'NONE', #322, #284 ) ;
#337 = CARTESIAN_POINT ( 'NONE',  ( 115.9999999999999432, 0.000000000000000000, 0.000000000000000000 ) ) ;
#338 = AXIS2_PLACEMENT_3D ( 'NONE', #155, #384, #559 ) ;
#339 = DATE_AND_TIME ( #105, #491 ) ;
#340 = EDGE_LOOP ( 'NONE', ( #219, #87, #415, #276 ) ) ;
#341 = DIRECTION ( 'NONE',  ( 0.000000000000000000, 0.000000000000000000, -1.000000000000000000 ) ) ;
#342 = EDGE_CURVE ( 'NONE', #34, #184, #667, .T. ) ;
#343 = ORIENTED_EDGE ( 'NONE', *, *, #78, .T. ) ;
#344 = CYLINDRICAL_SURFACE ( 'NONE', #150, 2.500000000000002220 ) ;
#345 = DIRECTION ( 'NONE',  ( 0.000000000000000000, 1.000000000000000000, -0.000000000000000000 ) ) ;
#346 = VERTEX_POINT ( 'NONE', #718 ) ;
#347 = APPROVAL_ROLE ( '' ) ;
#348 = DIRECTION ( 'NONE',  ( -0.000000000000000000, -1.000000000000000000, -0.000000000000000000 ) ) ;
#349 = LOCAL_TIME ( 22, 14, 48.00000000000000000, #27 ) ;
#350 = LINE ( 'NONE', #164, #327 ) ;
#351 = PERSON_AND_ORGANIZATION ( #622, #439 ) ;
#352 = DIRECTION ( 'NONE',  ( -0.000000000000000000, -1.000000000000000000, -0.000000000000000000 ) ) ;
#353 = DIRECTION ( 'NONE',  ( 0.000000000000000000, 1.000000000000000000, -0.000000000000000000 ) ) ;
#354 = VERTEX_POINT ( 'NONE', #583 ) ;
#355 = DIRECTION ( 'NONE',  ( 0.000000000000000000, 0.000000000000000000, -1.000000000000000000 ) ) ;
#356 = CYLINDRICAL_SURFACE ( 'NONE', #43, 2.299999999999999822 ) ;
#357 = PERSON_AND_ORGANIZATION ( #622, #439 ) ;
#358 = CARTESIAN_POINT ( 'NONE',  ( 115.9999999999999432, 0.5000000000000000000, 2.499999999999995115 ) ) ;
#359 = EDGE_CURVE ( 'NONE', #22, #121, #295, .T. ) ;
#360 = CARTESIAN_POINT ( 'NONE',  ( -58.00000000000044764, 0.5000000000000000000, 100.4589468389945779 ) ) ;
#361 = FACE_BOUND ( 'NONE', #173, .T. ) ;
#362 = VECTOR ( 'NONE', #348, 1000.000000000000000 ) ;
#363 = CC_DESIGN_APPROVAL ( #385, ( #649 ) ) ;
#364 = EDGE_LOOP ( 'NONE', ( #737, #167, #477, #205, #660, #217, #369, #52, #26, #60 ) ) ;
#365 = DIRECTION ( 'NONE',  ( 0.4999999999999918954, 0.000000000000000000, 0.8660254037844432595 ) ) ;
#366 = CARTESIAN_POINT ( 'NONE',  ( -57.99999999999903366, 0.000000000000000000, -100.4589468389953595 ) ) ;
#367 = CARTESIAN_POINT ( 'NONE',  ( -5.773502691896251982, 0.000000000000000000, -4.054916125095786583E-14 ) ) ;
#368 = FACE_OUTER_BOUND ( 'NONE', #146, .T. ) ;
#369 = ORIENTED_EDGE ( 'NONE', *, *, #399, .T. ) ;
#370 = COORDINATED_UNIVERSAL_TIME_OFFSET ( 6, 0, .BEHIND. ) ;
#371 = EDGE_LOOP ( 'NONE', ( #14, #5 ) ) ;
#372 = CARTESIAN_POINT ( 'NONE',  ( 115.9999999999999432, 0.5000000000000000000, 2.499999999999995115 ) ) ;
#373 = FACE_BOUND ( 'NONE', #571, .T. ) ;
#374 = PRODUCT_RELATED_PRODUCT_CATEGORY ( 'detail', '', ( #147 ) ) ;
#375 = DIRECTION ( 'NONE',  ( -0.000000000000000000, -1.000000000000000000, -0.000000000000000000 ) ) ;
#376 = VERTEX_POINT ( 'NONE', #644 ) ;
#377 = EDGE_LOOP ( 'NONE', ( #432, #558 ) ) ;
#378 = CARTESIAN_POINT ( 'NONE',  ( -57.99999999999903366, 0.5000000000000000000, -97.95894683899537370 ) ) ;
#379 = CARTESIAN_POINT ( 'NONE',  ( -58.00000000000044764, 0.5000000000000000000, 102.9589468389945779 ) ) ;
#380 = ORIENTED_EDGE ( 'NONE', *, *, #107, .F. ) ;
#381 = AXIS2_PLACEMENT_3D ( 'NONE', #18, #444, #91 ) ;
#382 = PLANE ( 'NONE',  #13 ) ;
#383 = DIRECTION ( 'NONE',  ( 0.000000000000000000, 1.000000000000000000, -0.000000000000000000 ) ) ;
#384 = DIRECTION ( 'NONE',  ( 0.000000000000000000, 0.000000000000000000, 1.000000000000000000 ) ) ;
#385 = APPROVAL ( #684, 'UNSPECIFIED' ) ;
#386 = CYLINDRICAL_SURFACE ( 'NONE', #549, 2.500000000000002220 ) ;
#387 =( NAMED_UNIT ( * ) PLANE_ANGLE_UNIT ( ) SI_UNIT ( $, .RADIAN. ) );
#388 = CIRCLE ( 'NONE', #296, 2.500000000000002220 ) ;
#389 = ADVANCED_FACE ( 'NONE', ( #298 ), #538, .T. ) ;
#390 = DIRECTION ( 'NONE',  ( 0.000000000000000000, 0.000000000000000000, -1.000000000000000000 ) ) ;
#391 = EDGE_CURVE ( 'NONE', #225, #311, #88, .T. ) ;
#392 = CALENDAR_DATE ( 2025, 3, 7 ) ;
#393 = ORIENTED_EDGE ( 'NONE', *, *, #580, .T. ) ;
#394 = CLOSED_SHELL ( 'NONE', ( #663, #445, #426, #66, #442, #685, #613, #730, #389, #263, #214, #42, #47, #335, #705, #531, #222, #98, #515, #175 ) ) ;
#395 = LINE ( 'NONE', #627, #29 ) ;
#396 = AXIS2_PLACEMENT_3D ( 'NONE', #721, #669, #154 ) ;
#397 = AXIS2_PLACEMENT_3D ( 'NONE', #86, #248, #71 ) ;
#398 = PERSON_AND_ORGANIZATION_ROLE ( 'design_owner' ) ;
#399 = EDGE_CURVE ( 'NONE', #280, #21, #419, .T. ) ;
#400 = CYLINDRICAL_SURFACE ( 'NONE', #633, 2.499999999999995115 ) ;
#401 = EDGE_LOOP ( 'NONE', ( #242, #324, #1, #550 ) ) ;
#402 = CARTESIAN_POINT ( 'NONE',  ( -53.66987298107828508, 0.000000000000000000, 102.9589468389946063 ) ) ;
#403 = VERTEX_POINT ( 'NONE', #332 ) ;
#404 = FACE_BOUND ( 'NONE', #377, .T. ) ;
#405 = AXIS2_PLACEMENT_3D ( 'NONE', #366, #144, #197 ) ;
#406 = AXIS2_PLACEMENT_3D ( 'NONE', #516, #169, #678 ) ;
#407 = EDGE_LOOP ( 'NONE', ( #433, #482, #585, #704 ) ) ;
#408 = DIRECTION ( 'NONE',  ( 0.000000000000000000, 0.000000000000000000, 1.000000000000000000 ) ) ;
#409 = EDGE_CURVE ( 'NONE', #346, #712, #511, .T. ) ;
#410 = ORIENTED_EDGE ( 'NONE', *, *, #572, .T. ) ;
#411 = DIRECTION ( 'NONE',  ( 0.000000000000000000, 0.000000000000000000, 1.000000000000000000 ) ) ;
#412 = CARTESIAN_POINT ( 'NONE',  ( -58.00000000000044764, 0.000000000000000000, 100.4589468389945779 ) ) ;
#413 = ORIENTED_EDGE ( 'NONE', *, *, #342, .F. ) ;
#414 = PERSON_AND_ORGANIZATION_ROLE ( 'design_supplier' ) ;
#415 = ORIENTED_EDGE ( 'NONE', *, *, #603, .F. ) ;
#416 = EDGE_CURVE ( 'NONE', #300, #648, #725, .T. ) ;
#417 = DIRECTION ( 'NONE',  ( 0.000000000000000000, 0.000000000000000000, 1.000000000000000000 ) ) ;
#418 = DIRECTION ( 'NONE',  ( 1.000000000000000000, -0.000000000000000000, 0.000000000000000000 ) ) ;
#419 = CIRCLE ( 'NONE', #152, 5.000000000000004441 ) ;
#420 = ORIENTED_EDGE ( 'NONE', *, *, #234, .F. ) ;
#421 = VECTOR ( 'NONE', #145, 1000.000000000000000 ) ;
#422 = ORIENTED_EDGE ( 'NONE', *, *, #502, .F. ) ;
#423 = APPROVAL_DATE_TIME ( #339, #249 ) ;
#424 = ORIENTED_EDGE ( 'NONE', *, *, #608, .F. ) ;
#425 = LINE ( 'NONE', #125, #114 ) ;
#426 = ADVANCED_FACE ( 'NONE', ( #368 ), #356, .F. ) ;
#427 = DIRECTION ( 'NONE',  ( 0.000000000000000000, 0.000000000000000000, 1.000000000000000000 ) ) ;
#428 = PERSON_AND_ORGANIZATION ( #622, #439 ) ;
#429 = ORIENTED_EDGE ( 'NONE', *, *, #165, .F. ) ;
#430 = DIRECTION ( 'NONE',  ( -0.000000000000000000, -1.000000000000000000, -0.000000000000000000 ) ) ;
#431 = CARTESIAN_POINT ( 'NONE',  ( -58.00000000000044764, 0.000000000000000000, 100.4589468389945779 ) ) ;
#432 = ORIENTED_EDGE ( 'NONE', *, *, #436, .T. ) ;
#433 = ORIENTED_EDGE ( 'NONE', *, *, #25, .F. ) ;
#434 = DIRECTION ( 'NONE',  ( 0.000000000000000000, 1.000000000000000000, -0.000000000000000000 ) ) ;
#435 = CYLINDRICAL_SURFACE ( 'NONE', #504, 2.499999999999988454 ) ;
#436 = EDGE_CURVE ( 'NONE', #149, #403, #590, .T. ) ;
#437 = VECTOR ( 'NONE', #279, 1000.000000000000000 ) ;
#438 = DIRECTION ( 'NONE',  ( -0.4999999999999918399, 0.000000000000000000, -0.8660254037844432595 ) ) ;
#439 = ORGANIZATION ( 'UNSPECIFIED', 'UNSPECIFIED', '' ) ;
#440 = CARTESIAN_POINT ( 'NONE',  ( -57.99999999999903366, 0.5000000000000000000, -100.4589468389953595 ) ) ;
#441 = DIRECTION ( 'NONE',  ( 1.000000000000000000, -0.000000000000000000, 0.000000000000000000 ) ) ;
#442 = ADVANCED_FACE ( 'NONE', ( #584 ), #716, .T. ) ;
#443 = CARTESIAN_POINT ( 'NONE',  ( -58.00000000000044764, 0.5000000000000000000, 100.4589468389945779 ) ) ;
#444 = DIRECTION ( 'NONE',  ( 0.000000000000000000, 0.000000000000000000, -1.000000000000000000 ) ) ;
#445 = ADVANCED_FACE ( 'NONE', ( #68 ), #286, .F. ) ;
#446 = CARTESIAN_POINT ( 'NONE',  ( 4.330127018922182991, 0.5000000000000000000, 2.500000000000020872 ) ) ;
#447 = LOCAL_TIME ( 22, 14, 48.00000000000000000, #370 ) ;
#448 = EDGE_CURVE ( 'NONE', #653, #695, #731, .T. ) ;
#449 =( LENGTH_UNIT ( ) NAMED_UNIT ( * ) SI_UNIT ( .MILLI., .METRE. ) );
#450 = VERTEX_POINT ( 'NONE', #113 ) ;
#451 = CARTESIAN_POINT ( 'NONE',  ( 115.9999999999999432, 0.5000000000000000000, 5.000000000000000000 ) ) ;
#452 = ORIENTED_EDGE ( 'NONE', *, *, #526, .F. ) ;
#453 = AXIS2_PLACEMENT_3D ( 'NONE', #292, #711, #123 ) ;
#454 = DIRECTION ( 'NONE',  ( 0.000000000000000000, 1.000000000000000000, -0.000000000000000000 ) ) ;
#455 = VECTOR ( 'NONE', #243, 1000.000000000000000 ) ;
#456 = CIRCLE ( 'NONE', #115, 2.499999999999988454 ) ;
#457 = EDGE_CURVE ( 'NONE', #594, #541, #350, .T. ) ;
#458 = APPLICATION_PROTOCOL_DEFINITION ( 'international standard', 'config_control_design', 1994, #136 ) ;
#459 = ORIENTED_EDGE ( 'NONE', *, *, #465, .T. ) ;
#460 = FACE_OUTER_BOUND ( 'NONE', #49, .T. ) ;
#461 = DIRECTION ( 'NONE',  ( -0.000000000000000000, -1.000000000000000000, -0.000000000000000000 ) ) ;
#462 = DATE_AND_TIME ( #392, #228 ) ;
#463 = ORIENTED_EDGE ( 'NONE', *, *, #572, .F. ) ;
#464 = CARTESIAN_POINT ( 'NONE',  ( -5.773502691896251982, 0.5000000000000000000, -4.054916125095786583E-14 ) ) ;
#465 = EDGE_CURVE ( 'NONE', #450, #73, #315, .T. ) ;
#466 = ORIENTED_EDGE ( 'NONE', *, *, #208, .T. ) ;
#467 = CARTESIAN_POINT ( 'NONE',  ( 0.000000000000000000, 0.000000000000000000, 0.000000000000000000 ) ) ;
#468 = VECTOR ( 'NONE', #683, 1000.000000000000000 ) ;
#469 = EDGE_CURVE ( 'NONE', #200, #541, #388, .T. ) ;
#470 = AXIS2_PLACEMENT_3D ( 'NONE', #673, #320, #158 ) ;
#471 = AXIS2_PLACEMENT_3D ( 'NONE', #254, #310, #645 ) ;
#472 = DIRECTION ( 'NONE',  ( -0.000000000000000000, -1.000000000000000000, -0.000000000000000000 ) ) ;
#473 = VERTEX_POINT ( 'NONE', #687 ) ;
#474 = SHAPE_DEFINITION_REPRESENTATION ( #597, #530 ) ;
#475 = EDGE_LOOP ( 'NONE', ( #521, #671, #489, #655 ) ) ;
#476 = CARTESIAN_POINT ( 'NONE',  ( -57.99999999999903366, 0.5000000000000000000, -105.4589468389953737 ) ) ;
#477 = ORIENTED_EDGE ( 'NONE', *, *, #560, .T. ) ;
#478 = ORIENTED_EDGE ( 'NONE', *, *, #621, .F. ) ;
#479 = PLANE ( 'NONE',  #57 ) ;
#480 = DIRECTION ( 'NONE',  ( -0.000000000000000000, -1.000000000000000000, -0.000000000000000000 ) ) ;
#481 = FACE_OUTER_BOUND ( 'NONE', #364, .T. ) ;
#482 = ORIENTED_EDGE ( 'NONE', *, *, #448, .F. ) ;
#483 = APPROVAL ( #307, 'UNSPECIFIED' ) ;
#484 = ORIENTED_EDGE ( 'NONE', *, *, #331, .F. ) ;
#485 = APPROVAL_DATE_TIME ( #318, #483 ) ;
#486 = ORIENTED_EDGE ( 'NONE', *, *, #580, .F. ) ;
#487 = LINE ( 'NONE', #656, #325 ) ;
#488 = CARTESIAN_POINT ( 'NONE',  ( -57.99999999999903366, 0.5000000000000000000, -100.4589468389953595 ) ) ;
#489 = ORIENTED_EDGE ( 'NONE', *, *, #621, .T. ) ;
#490 = AXIS2_PLACEMENT_3D ( 'NONE', #337, #454, #568 ) ;
#491 = LOCAL_TIME ( 22, 14, 48.00000000000000000, #624 ) ;
#492 = PERSON_AND_ORGANIZATION ( #622, #439 ) ;
#493 = CARTESIAN_POINT ( 'NONE',  ( -62.33012701892124596, 0.5000000000000000000, -97.95894683899541633 ) ) ;
#494 = DIRECTION ( 'NONE',  ( 0.000000000000000000, 0.000000000000000000, 1.000000000000000000 ) ) ;
#495 = DIRECTION ( 'NONE',  ( 0.000000000000000000, 0.000000000000000000, 1.000000000000000000 ) ) ;
#496 = EDGE_LOOP ( 'NONE', ( #696, #199, #723, #478 ) ) ;
#497 = DIRECTION ( 'NONE',  ( 0.000000000000000000, 0.000000000000000000, 1.000000000000000000 ) ) ;
#498 = FACE_OUTER_BOUND ( 'NONE', #340, .T. ) ;
#499 = ORIENTED_EDGE ( 'NONE', *, *, #457, .T. ) ;
#500 = CARTESIAN_POINT ( 'NONE',  ( -4.330127018922218518, 0.000000000000000000, 2.499999999999960032 ) ) ;
#501 = LINE ( 'NONE', #722, #732 ) ;
#502 = EDGE_CURVE ( 'NONE', #376, #280, #567, .T. ) ;
#503 = CIRCLE ( 'NONE', #270, 5.000000000000004441 ) ;
#504 = AXIS2_PLACEMENT_3D ( 'NONE', #488, #544, #651 ) ;
#505 = CARTESIAN_POINT ( 'NONE',  ( 115.9999999999999432, 0.000000000000000000, 0.000000000000000000 ) ) ;
#506 = APPLICATION_CONTEXT ( 'configuration controlled 3d designs of mechanical parts and assemblies' ) ;
#507 = EDGE_CURVE ( 'NONE', #83, #533, #456, .T. ) ;
#508 = CARTESIAN_POINT ( 'NONE',  ( 2.886751345948114000, 0.000000000000000000, 5.000000000000000888 ) ) ;
#509 = DIRECTION ( 'NONE',  ( 0.000000000000000000, 1.000000000000000000, -0.000000000000000000 ) ) ;
#510 = APPLICATION_PROTOCOL_DEFINITION ( 'international standard', 'config_control_design', 1994, #506 ) ;
#511 = LINE ( 'NONE', #734, #212 ) ;
#512 = CARTESIAN_POINT ( 'NONE',  ( 0.000000000000000000, 0.5000000000000000000, 0.000000000000000000 ) ) ;
#513 = AXIS2_PLACEMENT_3D ( 'NONE', #569, #345, #529 ) ;
#514 = DIRECTION ( 'NONE',  ( -0.000000000000000000, -1.000000000000000000, -0.000000000000000000 ) ) ;
#515 = ADVANCED_FACE ( 'NONE', ( #481, #361, #24, #373, #305 ), #657, .T. ) ;
#516 = CARTESIAN_POINT ( 'NONE',  ( -57.99999999999903366, 0.5000000000000000000, -100.4589468389953595 ) ) ;
#517 = PERSON_AND_ORGANIZATION ( #622, #439 ) ;
#518 = CARTESIAN_POINT ( 'NONE',  ( 0.000000000000000000, 0.000000000000000000, -2.299999999999999822 ) ) ;
#519 = EDGE_CURVE ( 'NONE', #124, #542, #170, .T. ) ;
#520 = CIRCLE ( 'NONE', #618, 2.499999999999995115 ) ;
#521 = ORIENTED_EDGE ( 'NONE', *, *, #20, .F. ) ;
#522 = CIRCLE ( 'NONE', #623, 2.299999999999999822 ) ;
#523 = FACE_BOUND ( 'NONE', #261, .T. ) ;
#524 = DIRECTION ( 'NONE',  ( 0.000000000000000000, 0.000000000000000000, 1.000000000000000000 ) ) ;
#525 = AXIS2_PLACEMENT_3D ( 'NONE', #211, #383, #427 ) ;
#526 = EDGE_CURVE ( 'NONE', #541, #200, #59, .T. ) ;
#527 = ORIENTED_EDGE ( 'NONE', *, *, #736, .F. ) ;
#528 = CARTESIAN_POINT ( 'NONE',  ( -58.00000000000044764, 0.5000000000000000000, 100.4589468389945779 ) ) ;
#529 = DIRECTION ( 'NONE',  ( 0.000000000000000000, 0.000000000000000000, 1.000000000000000000 ) ) ;
#530 = ADVANCED_BREP_SHAPE_REPRESENTATION ( 'GlassCircleToolingstencil', ( #628, #338 ), #220 ) ;
#531 = ADVANCED_FACE ( 'NONE', ( #134 ), #435, .F. ) ;
#532 = CARTESIAN_POINT ( 'NONE',  ( 0.000000000000000000, 0.000000000000000000, 5.000000000000000000 ) ) ;
#533 = VERTEX_POINT ( 'NONE', #708 ) ;
#534 = CARTESIAN_POINT ( 'NONE',  ( 115.9999999999999432, 0.5000000000000000000, 0.000000000000000000 ) ) ;
#535 = AXIS2_PLACEMENT_3D ( 'NONE', #67, #15, #411 ) ;
#536 = VECTOR ( 'NONE', #36, 1000.000000000000000 ) ;
#537 = CARTESIAN_POINT ( 'NONE',  ( -62.33012701892261020, 0.5000000000000000000, 97.95894683899456368 ) ) ;
#538 = PLANE ( 'NONE',  #381 ) ;
#539 = LINE ( 'NONE', #19, #196 ) ;
#540 = ORIENTED_EDGE ( 'NONE', *, *, #148, .T. ) ;
#541 = VERTEX_POINT ( 'NONE', #662 ) ;
#542 = VERTEX_POINT ( 'NONE', #198 ) ;
#543 = CARTESIAN_POINT ( 'NONE',  ( 4.330127018922214965, 0.5000000000000000000, -2.499999999999958700 ) ) ;
#544 = DIRECTION ( 'NONE',  ( -0.000000000000000000, -1.000000000000000000, -0.000000000000000000 ) ) ;
#545 = ORIENTED_EDGE ( 'NONE', *, *, #159, .F. ) ;
#546 = ORIENTED_EDGE ( 'NONE', *, *, #630, .T. ) ;
#547 = CARTESIAN_POINT ( 'NONE',  ( -57.99999999999903366, 0.5000000000000000000, -100.4589468389953595 ) ) ;
#548 = DIRECTION ( 'NONE',  ( 0.000000000000000000, 1.000000000000000000, -0.000000000000000000 ) ) ;
#549 = AXIS2_PLACEMENT_3D ( 'NONE', #443, #95, #390 ) ;
#550 = ORIENTED_EDGE ( 'NONE', *, *, #244, .T. ) ;
#551 = ORIENTED_EDGE ( 'NONE', *, *, #416, .T. ) ;
#552 = DIRECTION ( 'NONE',  ( 0.000000000000000000, 1.000000000000000000, -0.000000000000000000 ) ) ;
#553 = LINE ( 'NONE', #264, #240 ) ;
#554 = UNCERTAINTY_MEASURE_WITH_UNIT (LENGTH_MEASURE( 1.000000000000000082E-05 ), #449, 'distance_accuracy_value', 'NONE');
#555 = LINE ( 'NONE', #500, #192 ) ;
#556 = EDGE_CURVE ( 'NONE', #21, #643, #701, .T. ) ;
#557 = DIRECTION ( 'NONE',  ( 0.000000000000000000, 0.000000000000000000, -1.000000000000000000 ) ) ;
#558 = ORIENTED_EDGE ( 'NONE', *, *, #224, .T. ) ;
#559 = DIRECTION ( 'NONE',  ( 1.000000000000000000, 0.000000000000000000, 0.000000000000000000 ) ) ;
#560 = EDGE_CURVE ( 'NONE', #179, #346, #694, .T. ) ;
#561 = AXIS2_PLACEMENT_3D ( 'NONE', #467, #183, #408 ) ;
#562 = AXIS2_PLACEMENT_3D ( 'NONE', #446, #162, #102 ) ;
#563 = CARTESIAN_POINT ( 'NONE',  ( 115.9999999999999432, 0.5000000000000000000, 0.000000000000000000 ) ) ;
#564 = EDGE_CURVE ( 'NONE', #631, #75, #151, .T. ) ;
#565 = DIRECTION ( 'NONE',  ( -0.5000000000000038858, 0.000000000000000000, 0.8660254037844363761 ) ) ;
#566 =( NAMED_UNIT ( * ) SI_UNIT ( $, .STERADIAN. ) SOLID_ANGLE_UNIT ( ) );
#567 = CIRCLE ( 'NONE', #726, 5.000000000000004441 ) ;
#568 = DIRECTION ( 'NONE',  ( 0.000000000000000000, 0.000000000000000000, 1.000000000000000000 ) ) ;
#569 = CARTESIAN_POINT ( 'NONE',  ( -58.00000000000044764, 0.000000000000000000, 100.4589468389945779 ) ) ;
#570 = APPROVAL_STATUS ( 'not_yet_approved' ) ;
#571 = EDGE_LOOP ( 'NONE', ( #698, #84 ) ) ;
#572 = EDGE_CURVE ( 'NONE', #300, #83, #191, .T. ) ;
#573 = CARTESIAN_POINT ( 'NONE',  ( 0.000000000000000000, 0.5000000000000000000, -2.299999999999999822 ) ) ;
#574 = ORIENTED_EDGE ( 'NONE', *, *, #112, .F. ) ;
#575 = CARTESIAN_POINT ( 'NONE',  ( -4.330127018922218518, 0.5000000000000000000, 2.499999999999960032 ) ) ;
#576 = CALENDAR_DATE ( 2025, 3, 7 ) ;
#577 = AXIS2_PLACEMENT_3D ( 'NONE', #360, #587, #497 ) ;
#578 = DIRECTION ( 'NONE',  ( 0.000000000000000000, 1.000000000000000000, -0.000000000000000000 ) ) ;
#579 = CIRCLE ( 'NONE', #525, 2.299999999999999822 ) ;
#580 = EDGE_CURVE ( 'NONE', #542, #124, #579, .T. ) ;
#581 = CARTESIAN_POINT ( 'NONE',  ( -57.99999999999903366, 0.5000000000000000000, -102.9589468389953595 ) ) ;
#582 = LINE ( 'NONE', #65, #666 ) ;
#583 = CARTESIAN_POINT ( 'NONE',  ( 115.9999999999999432, 0.000000000000000000, 5.000000000000000000 ) ) ;
#584 = FACE_OUTER_BOUND ( 'NONE', #141, .T. ) ;
#585 = ORIENTED_EDGE ( 'NONE', *, *, #133, .T. ) ;
#586 = VERTEX_POINT ( 'NONE', #367 ) ;
#587 = DIRECTION ( 'NONE',  ( 0.000000000000000000, 1.000000000000000000, -0.000000000000000000 ) ) ;
#588 = EDGE_CURVE ( 'NONE', #79, #34, #719, .T. ) ;
#589 = DIRECTION ( 'NONE',  ( -1.000000000000000000, 0.000000000000000000, -0.000000000000000000 ) ) ;
#590 = CIRCLE ( 'NONE', #453, 2.299999999999999822 ) ;
#591 = AXIS2_PLACEMENT_3D ( 'NONE', #512, #330, #101 ) ;
#592 = EDGE_LOOP ( 'NONE', ( #659, #246, #119, #313 ) ) ;
#593 = PERSON_AND_ORGANIZATION_ROLE ( 'creator' ) ;
#594 = VERTEX_POINT ( 'NONE', #379 ) ;
#595 = DIRECTION ( 'NONE',  ( -0.4999999999999919509, 0.000000000000000000, -0.8660254037844433705 ) ) ;
#596 = CARTESIAN_POINT ( 'NONE',  ( 0.000000000000000000, 0.5000000000000000000, 5.000000000000000000 ) ) ;
#597 = PRODUCT_DEFINITION_SHAPE ( 'NONE', 'NONE',  #649 ) ;
#598 = EDGE_LOOP ( 'NONE', ( #293, #691, #600, #466 ) ) ;
#599 = SECURITY_CLASSIFICATION_LEVEL ( 'unclassified' ) ;
#600 = ORIENTED_EDGE ( 'NONE', *, *, #588, .F. ) ;
#601 = DIRECTION ( 'NONE',  ( 0.000000000000000000, 0.000000000000000000, -1.000000000000000000 ) ) ;
#602 = CARTESIAN_POINT ( 'NONE',  ( -4.330127018922182991, 0.5000000000000000000, -2.500000000000020428 ) ) ;
#603 = EDGE_CURVE ( 'NONE', #653, #179, #607, .T. ) ;
#604 = ORIENTED_EDGE ( 'NONE', *, *, #519, .T. ) ;
#605 = ORIENTED_EDGE ( 'NONE', *, *, #257, .F. ) ;
#606 = CARTESIAN_POINT ( 'NONE',  ( 4.330127018922214965, 0.000000000000000000, -2.499999999999958700 ) ) ;
#607 = LINE ( 'NONE', #596, #160 ) ;
#608 = EDGE_CURVE ( 'NONE', #542, #403, #553, .T. ) ;
#609 = CC_DESIGN_APPROVAL ( #483, ( #677 ) ) ;
#610 = DIRECTION ( 'NONE',  ( 0.5000000000000038858, 0.000000000000000000, -0.8660254037844363761 ) ) ;
#611 = DIRECTION ( 'NONE',  ( -0.000000000000000000, -1.000000000000000000, -0.000000000000000000 ) ) ;
#612 = FACE_OUTER_BOUND ( 'NONE', #10, .T. ) ;
#613 = ADVANCED_FACE ( 'NONE', ( #498 ), #92, .F. ) ;
#614 = ORIENTED_EDGE ( 'NONE', *, *, #153, .T. ) ;
#615 = DIRECTION ( 'NONE',  ( 1.000000000000000000, -0.000000000000000000, 0.000000000000000000 ) ) ;
#616 = CC_DESIGN_PERSON_AND_ORGANIZATION_ASSIGNMENT ( #357, #142, ( #677 ) ) ;
#617 = VERTEX_POINT ( 'NONE', #39 ) ;
#618 = AXIS2_PLACEMENT_3D ( 'NONE', #668, #578, #689 ) ;
#619 = AXIS2_PLACEMENT_3D ( 'NONE', #534, #650, #355 ) ;
#620 = FACE_OUTER_BOUND ( 'NONE', #637, .T. ) ;
#621 = EDGE_CURVE ( 'NONE', #225, #121, #501, .T. ) ;
#622 = PERSON ( 'UNSPECIFIED', 'UNSPECIFIED', 'UNSPECIFIED', ('UNSPECIFIED'), ('UNSPECIFIED'), ('UNSPECIFIED') ) ;
#623 = AXIS2_PLACEMENT_3D ( 'NONE', #120, #259, #417 ) ;
#624 = COORDINATED_UNIVERSAL_TIME_OFFSET ( 6, 0, .BEHIND. ) ;
#625 = ORIENTED_EDGE ( 'NONE', *, *, #229, .F. ) ;
#626 = LOCAL_TIME ( 22, 14, 48.00000000000000000, #237 ) ;
#627 = CARTESIAN_POINT ( 'NONE',  ( -5.773502691896251982, 0.5000000000000000000, -4.054916125095786583E-14 ) ) ;
#628 = MANIFOLD_SOLID_BREP ( 'Boss-Extrude5', #394 ) ;
#629 = LINE ( 'NONE', #174, #437 ) ;
#630 = EDGE_CURVE ( 'NONE', #631, #346, #539, .T. ) ;
#631 = VERTEX_POINT ( 'NONE', #215 ) ;
#632 = DIRECTION ( 'NONE',  ( -0.4999999999999918399, 0.000000000000000000, -0.8660254037844432595 ) ) ;
#633 = AXIS2_PLACEMENT_3D ( 'NONE', #61, #514, #341 ) ;
#634 = AXIS2_PLACEMENT_3D ( 'NONE', #304, #190, #601 ) ;
#635 = CARTESIAN_POINT ( 'NONE',  ( -57.99999999999903366, 0.000000000000000000, -97.95894683899537370 ) ) ;
#636 = AXIS2_PLACEMENT_3D ( 'NONE', #204, #472, #641 ) ;
#637 = EDGE_LOOP ( 'NONE', ( #233, #499, #290, #605 ) ) ;
#638 = PERSON_AND_ORGANIZATION ( #622, #439 ) ;
#639 = ORIENTED_EDGE ( 'NONE', *, *, #608, .T. ) ;
#640 = CARTESIAN_POINT ( 'NONE',  ( -58.00000000000044764, 0.5000000000000000000, 100.4589468389945779 ) ) ;
#641 = DIRECTION ( 'NONE',  ( 0.000000000000000000, 0.000000000000000000, -1.000000000000000000 ) ) ;
#642 = ORIENTED_EDGE ( 'NONE', *, *, #736, .T. ) ;
#643 = VERTEX_POINT ( 'NONE', #674 ) ;
#644 = CARTESIAN_POINT ( 'NONE',  ( -53.66987298107681426, 0.5000000000000000000, -102.9589468389953453 ) ) ;
#645 = DIRECTION ( 'NONE',  ( 0.000000000000000000, 0.000000000000000000, 1.000000000000000000 ) ) ;
#646 = ORIENTED_EDGE ( 'NONE', *, *, #229, .T. ) ;
#647 = CALENDAR_DATE ( 2025, 3, 7 ) ;
#648 = VERTEX_POINT ( 'NONE', #738 ) ;
#649 = PRODUCT_DEFINITION ( 'UNKNOWN', '', #4, #266 ) ;
#650 = DIRECTION ( 'NONE',  ( -0.000000000000000000, -1.000000000000000000, -0.000000000000000000 ) ) ;
#651 = DIRECTION ( 'NONE',  ( 0.000000000000000000, 0.000000000000000000, -1.000000000000000000 ) ) ;
#652 = VECTOR ( 'NONE', #615, 1000.000000000000000 ) ;
#653 = VERTEX_POINT ( 'NONE', #218 ) ;
#654 = DATE_AND_TIME ( #647, #349 ) ;
#655 = ORIENTED_EDGE ( 'NONE', *, *, #359, .F. ) ;
#656 = CARTESIAN_POINT ( 'NONE',  ( -58.00000000000044764, 0.5000000000000000000, 97.95894683899457789 ) ) ;
#657 = PLANE ( 'NONE',  #471 ) ;
#658 = EDGE_CURVE ( 'NONE', #586, #450, #729, .T. ) ;
#659 = ORIENTED_EDGE ( 'NONE', *, *, #56, .F. ) ;
#660 = ORIENTED_EDGE ( 'NONE', *, *, #234, .T. ) ;
#661 = DIRECTION ( 'NONE',  ( -0.8660254037844433705, 0.000000000000000000, 0.4999999999999919509 ) ) ;
#662 = CARTESIAN_POINT ( 'NONE',  ( -58.00000000000044764, 0.000000000000000000, 102.9589468389945779 ) ) ;
#663 = ADVANCED_FACE ( 'NONE', ( #620 ), #386, .F. ) ;
#664 = ORIENTED_EDGE ( 'NONE', *, *, #526, .T. ) ;
#665 = CARTESIAN_POINT ( 'NONE',  ( -62.33012701892124596, 0.5000000000000000000, -97.95894683899541633 ) ) ;
#666 = VECTOR ( 'NONE', #297, 1000.000000000000000 ) ;
#667 = CIRCLE ( 'NONE', #577, 4.999999999999990230 ) ;
#668 = CARTESIAN_POINT ( 'NONE',  ( 115.9999999999999432, 0.5000000000000000000, 0.000000000000000000 ) ) ;
#669 = DIRECTION ( 'NONE',  ( 0.000000000000000000, 1.000000000000000000, -0.000000000000000000 ) ) ;
#670 = DIRECTION ( 'NONE',  ( 0.000000000000000000, 1.000000000000000000, -0.000000000000000000 ) ) ;
#671 = ORIENTED_EDGE ( 'NONE', *, *, #62, .T. ) ;
#672 = CYLINDRICAL_SURFACE ( 'NONE', #591, 2.299999999999999822 ) ;
#673 = CARTESIAN_POINT ( 'NONE',  ( 115.9999999999999432, 0.5000000000000000000, 0.000000000000000000 ) ) ;
#674 = CARTESIAN_POINT ( 'NONE',  ( -62.33012701892124596, 0.000000000000000000, -97.95894683899541633 ) ) ;
#675 = ORIENTED_EDGE ( 'NONE', *, *, #564, .T. ) ;
#676 = AXIS2_PLACEMENT_3D ( 'NONE', #528, #223, #235 ) ;
#677 = SECURITY_CLASSIFICATION ( '', '', #599 ) ;
#678 = DIRECTION ( 'NONE',  ( 0.000000000000000000, 0.000000000000000000, -1.000000000000000000 ) ) ;
#679 = EDGE_CURVE ( 'NONE', #121, #22, #99, .T. ) ;
#680 = EDGE_LOOP ( 'NONE', ( #122, #410, #143, #545 ) ) ;
#681 = CARTESIAN_POINT ( 'NONE',  ( -53.66987298107828508, 0.5000000000000000000, 102.9589468389946063 ) ) ;
#682 = VECTOR ( 'NONE', #461, 1000.000000000000000 ) ;
#683 = DIRECTION ( 'NONE',  ( 1.000000000000000000, -0.000000000000000000, 0.000000000000000000 ) ) ;
#684 = APPROVAL_STATUS ( 'not_yet_approved' ) ;
#685 = ADVANCED_FACE ( 'NONE', ( #728 ), #735, .T. ) ;
#686 = DIRECTION ( 'NONE',  ( -0.000000000000000000, -1.000000000000000000, -0.000000000000000000 ) ) ;
#687 = CARTESIAN_POINT ( 'NONE',  ( -58.00000000000044764, 0.5000000000000000000, 97.95894683899457789 ) ) ;
#688 = ORIENTED_EDGE ( 'NONE', *, *, #78, .F. ) ;
#689 = DIRECTION ( 'NONE',  ( 0.000000000000000000, 0.000000000000000000, 1.000000000000000000 ) ) ;
#690 = ORIENTED_EDGE ( 'NONE', *, *, #165, .T. ) ;
#691 = ORIENTED_EDGE ( 'NONE', *, *, #148, .F. ) ;
#692 = CIRCLE ( 'NONE', #227, 5.000000000000004441 ) ;
#693 = DIRECTION ( 'NONE',  ( 0.000000000000000000, 0.000000000000000000, 1.000000000000000000 ) ) ;
#694 = CIRCLE ( 'NONE', #397, 5.000000000000000000 ) ;
#695 = VERTEX_POINT ( 'NONE', #508 ) ;
#696 = ORIENTED_EDGE ( 'NONE', *, *, #391, .T. ) ;
#697 = CARTESIAN_POINT ( 'NONE',  ( -53.66987298107681426, 0.5000000000000000000, -102.9589468389953453 ) ) ;
#698 = ORIENTED_EDGE ( 'NONE', *, *, #391, .F. ) ;
#699 = CARTESIAN_POINT ( 'NONE',  ( -4.330127018922218518, 0.5000000000000000000, 2.499999999999960032 ) ) ;
#700 = LINE ( 'NONE', #606, #129 ) ;
#701 = LINE ( 'NONE', #665, #536 ) ;
#702 = ORIENTED_EDGE ( 'NONE', *, *, #457, .F. ) ;
#703 = PERSON_AND_ORGANIZATION ( #622, #439 ) ;
#704 = ORIENTED_EDGE ( 'NONE', *, *, #112, .T. ) ;
#705 = ADVANCED_FACE ( 'NONE', ( #612 ), #672, .F. ) ;
#706 = CIRCLE ( 'NONE', #490, 5.000000000000000000 ) ;
#707 = CARTESIAN_POINT ( 'NONE',  ( 115.9999999999999432, 0.5000000000000000000, 5.000000000000000000 ) ) ;
#708 = CARTESIAN_POINT ( 'NONE',  ( -57.99999999999903366, 0.000000000000000000, -102.9589468389953595 ) ) ;
#709 = CIRCLE ( 'NONE', #405, 2.499999999999988454 ) ;
#710 = APPROVAL_PERSON_ORGANIZATION ( #351, #249, #64 ) ;
#711 = DIRECTION ( 'NONE',  ( 0.000000000000000000, 1.000000000000000000, -0.000000000000000000 ) ) ;
#712 = VERTEX_POINT ( 'NONE', #94 ) ;
#713 = LINE ( 'NONE', #697, #455 ) ;
#714 = EDGE_CURVE ( 'NONE', #75, #712, #156, .T. ) ;
#715 = DIRECTION ( 'NONE',  ( 0.000000000000000000, 1.000000000000000000, -0.000000000000000000 ) ) ;
#716 = CYLINDRICAL_SURFACE ( 'NONE', #636, 5.000000000000004441 ) ;
#717 = DIRECTION ( 'NONE',  ( -0.000000000000000000, -1.000000000000000000, -0.000000000000000000 ) ) ;
#718 = CARTESIAN_POINT ( 'NONE',  ( 115.9999999999999432, 0.5000000000000000000, -5.000000000000000000 ) ) ;
#719 = LINE ( 'NONE', #602, #135 ) ;
#720 = DIRECTION ( 'NONE',  ( 0.000000000000000000, 1.000000000000000000, -0.000000000000000000 ) ) ;
#721 = CARTESIAN_POINT ( 'NONE',  ( -57.99999999999903366, 0.5000000000000000000, -100.4589468389953595 ) ) ;
#722 = CARTESIAN_POINT ( 'NONE',  ( 115.9999999999999432, 0.5000000000000000000, -2.499999999999995115 ) ) ;
#723 = ORIENTED_EDGE ( 'NONE', *, *, #679, .F. ) ;
#724 = VECTOR ( 'NONE', #176, 1000.000000000000000 ) ;
#725 = CIRCLE ( 'NONE', #396, 2.499999999999988454 ) ;
#726 = AXIS2_PLACEMENT_3D ( 'NONE', #289, #353, #31 ) ;
#727 = CC_DESIGN_DATE_AND_TIME_ASSIGNMENT ( #654, #251, ( #677 ) ) ;
#728 = FACE_OUTER_BOUND ( 'NONE', #407, .T. ) ;
#729 = LINE ( 'NONE', #271, #131 ) ;
#730 = ADVANCED_FACE ( 'NONE', ( #326 ), #221, .T. ) ;
#731 = LINE ( 'NONE', #8, #682 ) ;
#732 = VECTOR ( 'NONE', #299, 1000.000000000000000 ) ;
#733 = CC_DESIGN_SECURITY_CLASSIFICATION ( #677, ( #4 ) ) ;
#734 = CARTESIAN_POINT ( 'NONE',  ( 115.9999999999999432, 0.5000000000000000000, -5.000000000000000000 ) ) ;
#735 = PLANE ( 'NONE',  #562 ) ;
#736 = EDGE_CURVE ( 'NONE', #280, #328, #336, .T. ) ;
#737 = ORIENTED_EDGE ( 'NONE', *, *, #133, .F. ) ;
#738 = CARTESIAN_POINT ( 'NONE',  ( -57.99999999999903366, 0.5000000000000000000, -102.9589468389953595 ) ) ;
#739 = CARTESIAN_POINT ( 'NONE',  ( -53.66987298107828508, 0.5000000000000000000, 102.9589468389946063 ) ) ;
ENDSEC;
END-ISO-10303-21;
