ISO-10303-21;
HEADER;
FILE_DESCRIPTION (( 'STEP AP214' ),
    '1' );
FILE_NAME ('GlassCircleTooling.STEP',
    '2025-07-04T02:40:05',
    ( '' ),
    ( '' ),
    'SwSTEP 2.0',
    'SolidWorks 2023',
    '' );
FILE_SCHEMA (( 'AUTOMOTIVE_DESIGN' ));
ENDSEC;

DATA;
#1 = EDGE_LOOP ( 'NONE', ( #337, #565, #822, #542, #885, #329, #16, #894, #589, #688, #739, #159 ) ) ;
#2 = CARTESIAN_POINT ( 'NONE',  ( -1.000000000000000000, 10.00000000000000000, 0.000000000000000000 ) ) ;
#3 = VECTOR ( 'NONE', #759, 1000.000000000000000 ) ;
#4 = ADVANCED_FACE ( 'NONE', ( #847 ), #776, .F. ) ;
#5 = SURFACE_SIDE_STYLE ('',( #616 ) ) ;
#6 = CARTESIAN_POINT ( 'NONE',  ( -0.9999999999999991118, 5.000000000000000000, 0.000000000000000000 ) ) ;
#7 = ORIENTED_EDGE ( 'NONE', *, *, #596, .T. ) ;
#8 = CARTESIAN_POINT ( 'NONE',  ( 6.000000000000019540, 0.000000000000000000, 1.000000000000000000 ) ) ;
#9 = AXIS2_PLACEMENT_3D ( 'NONE', #97, #787, #139 ) ;
#10 = EDGE_CURVE ( 'NONE', #695, #217, #649, .T. ) ;
#11 = DIRECTION ( 'NONE',  ( 0.000000000000000000, 1.000000000000000000, -0.000000000000000000 ) ) ;
#12 = ORIENTED_EDGE ( 'NONE', *, *, #841, .F. ) ;
#13 = CARTESIAN_POINT ( 'NONE',  ( 2.063136491890734892, 9.887057777917146240, -1.039185140351592596 ) ) ;
#14 = LINE ( 'NONE', #367, #530 ) ;
#15 = EDGE_CURVE ( 'NONE', #695, #342, #604, .T. ) ;
#16 = ORIENTED_EDGE ( 'NONE', *, *, #167, .F. ) ;
#17 = CARTESIAN_POINT ( 'NONE',  ( 12.96521724999352543, 0.000000000000000000, -153.0000000000000284 ) ) ;
#18 = EDGE_CURVE ( 'NONE', #195, #895, #183, .T. ) ;
#19 = DIRECTION ( 'NONE',  ( -1.000000000000000000, 0.000000000000000000, 0.000000000000000000 ) ) ;
#20 = ADVANCED_FACE ( 'NONE', ( #293 ), #495, .T. ) ;
#21 = EDGE_LOOP ( 'NONE', ( #191, #162, #123, #364 ) ) ;
#22 = CARTESIAN_POINT ( 'NONE',  ( 23.99999999999999645, 10.00000000000000000, -153.0000000000000284 ) ) ;
#23 = CARTESIAN_POINT ( 'NONE',  ( -0.9999999999999991118, 10.00000000000000000, -2.071231517720798276 ) ) ;
#24 = CARTESIAN_POINT ( 'NONE',  ( 23.99999999999999645, 0.000000000000000000, -146.9999999999999716 ) ) ;
#25 = VERTEX_POINT ( 'NONE', #94 ) ;
#26 = CARTESIAN_POINT ( 'NONE',  ( 23.99999999999999645, 10.00000000000000000, -147.0000000000000284 ) ) ;
#27 = EDGE_CURVE ( 'NONE', #643, #735, #14, .T. ) ;
#28 = CARTESIAN_POINT ( 'NONE',  ( 0.000000000000000000, 10.00000000000000000, 0.000000000000000000 ) ) ;
#29 = ORIENTED_EDGE ( 'NONE', *, *, #889, .F. ) ;
#30 =( LENGTH_UNIT ( ) NAMED_UNIT ( * ) SI_UNIT ( .MILLI., .METRE. ) );
#31 = CARTESIAN_POINT ( 'NONE',  ( -0.9999999999999991118, 10.00000000000000000, -2.071231517720798276 ) ) ;
#32 = DIRECTION ( 'NONE',  ( 0.000000000000000000, 0.000000000000000000, -1.000000000000000000 ) ) ;
#33 = ORIENTED_EDGE ( 'NONE', *, *, #442, .F. ) ;
#34 = CARTESIAN_POINT ( 'NONE',  ( -5.999999999999981348, 158.4856895461646502, 6.000000000000000000 ) ) ;
#35 = DIRECTION ( 'NONE',  ( -1.000000000000000000, 0.000000000000000000, 0.000000000000000000 ) ) ;
#36 = AXIS2_PLACEMENT_3D ( 'NONE', #104, #330, #672 ) ;
#37 = DIRECTION ( 'NONE',  ( 0.000000000000000000, 0.000000000000000000, -1.000000000000000000 ) ) ;
#38 = VERTEX_POINT ( 'NONE', #571 ) ;
#39 = DIRECTION ( 'NONE',  ( 0.000000000000000000, 1.000000000000000000, -0.000000000000000000 ) ) ;
#40 = AXIS2_PLACEMENT_3D ( 'NONE', #231, #299, #786 ) ;
#41 = DIRECTION ( 'NONE',  ( 0.000000000000000000, 0.000000000000000000, 1.000000000000000000 ) ) ;
#42 = EDGE_LOOP ( 'NONE', ( #478, #377, #29, #450, #721 ) ) ;
#43 = ADVANCED_FACE ( 'NONE', ( #855 ), #627, .F. ) ;
#44 =( NAMED_UNIT ( * ) SI_UNIT ( $, .STERADIAN. ) SOLID_ANGLE_UNIT ( ) );
#45 = CARTESIAN_POINT ( 'NONE',  ( 0.000000000000000000, 0.000000000000000000, 2.299999999999999822 ) ) ;
#46 = EDGE_CURVE ( 'NONE', #294, #132, #646, .T. ) ;
#47 = DIRECTION ( 'NONE',  ( 0.000000000000000000, 0.000000000000000000, -1.000000000000000000 ) ) ;
#48 = VECTOR ( 'NONE', #754, 1000.000000000000000 ) ;
#49 = ORIENTED_EDGE ( 'NONE', *, *, #468, .T. ) ;
#50 = CARTESIAN_POINT ( 'NONE',  ( 6.000000000000022204, 10.00000000000000888, -136.9999999999999432 ) ) ;
#51 = CARTESIAN_POINT ( 'NONE',  ( 11.00000000000002132, 5.000000000000000000, -141.9999999999999716 ) ) ;
#52 = ORIENTED_EDGE ( 'NONE', *, *, #442, .T. ) ;
#53 = VERTEX_POINT ( 'NONE', #228 ) ;
#54 = LINE ( 'NONE', #334, #249 ) ;
#55 = EDGE_CURVE ( 'NONE', #307, #643, #63, .T. ) ;
#56 = ADVANCED_FACE ( 'NONE', ( #843 ), #216, .T. ) ;
#57 = DIRECTION ( 'NONE',  ( 1.758165685111629420E-17, 0.000000000000000000, -1.000000000000000000 ) ) ;
#58 = APPLICATION_CONTEXT ( 'automotive_design' ) ;
#59 = ORIENTED_EDGE ( 'NONE', *, *, #55, .T. ) ;
#60 =( BOUNDED_CURVE ( )  B_SPLINE_CURVE ( 3, ( #906, #757, #479, #344 ),
 .UNSPECIFIED., .F., .F. ) 
 B_SPLINE_CURVE_WITH_KNOTS ( ( 4, 4 ),
 ( 1.570796326794896780, 3.141592653589793116 ),
 .UNSPECIFIED. ) 
 CURVE ( )  GEOMETRIC_REPRESENTATION_ITEM ( )  RATIONAL_B_SPLINE_CURVE ( ( 1.000000000000000000, 0.8047378541243650485, 0.8047378541243650485, 1.000000000000000000 ) ) 
 REPRESENTATION_ITEM ( '' )  );
#61 = EDGE_LOOP ( 'NONE', ( #225, #80, #617, #445 ) ) ;
#62 = CARTESIAN_POINT ( 'NONE',  ( 11.00000000000002132, 10.00000000000000000, -147.0000000000000284 ) ) ;
#63 = CIRCLE ( 'NONE', #296, 5.000000000000000000 ) ;
#64 = DIRECTION ( 'NONE',  ( 0.000000000000000000, 0.000000000000000000, 1.000000000000000000 ) ) ;
#65 = ORIENTED_EDGE ( 'NONE', *, *, #623, .F. ) ;
#66 = ORIENTED_EDGE ( 'NONE', *, *, #431, .F. ) ;
#67 = CARTESIAN_POINT ( 'NONE',  ( 11.00000000000002132, 0.000000000000000000, -141.9999999999999716 ) ) ;
#68 = VECTOR ( 'NONE', #790, 1000.000000000000000 ) ;
#69 = CARTESIAN_POINT ( 'NONE',  ( 6.000000000000019540, 0.000000000000000000, 6.000000000000000000 ) ) ;
#70 = AXIS2_PLACEMENT_3D ( 'NONE', #144, #491, #418 ) ;
#71 = ORIENTED_EDGE ( 'NONE', *, *, #826, .F. ) ;
#72 = DIRECTION ( 'NONE',  ( 1.000000000000000000, 0.000000000000000000, 0.000000000000000000 ) ) ;
#73 = CARTESIAN_POINT ( 'NONE',  ( 11.00000000000002132, 5.000000000000000000, -146.9999999999999716 ) ) ;
#74 = ADVANCED_FACE ( 'NONE', ( #773 ), #301, .F. ) ;
#75 = ORIENTED_EDGE ( 'NONE', *, *, #681, .T. ) ;
#76 = CARTESIAN_POINT ( 'NONE',  ( -1.000000000000000000, 10.00000000000000000, -153.0000000000000284 ) ) ;
#77 = CARTESIAN_POINT ( 'NONE',  ( -5.999999999999999112, 5.000000000000000000, -158.0000000000000284 ) ) ;
#78 = ADVANCED_FACE ( 'NONE', ( #482 ), #141, .T. ) ;
#79 = LINE ( 'NONE', #148, #134 ) ;
#80 = ORIENTED_EDGE ( 'NONE', *, *, #774, .T. ) ;
#81 = CARTESIAN_POINT ( 'NONE',  ( 1.834194594430692105, 9.931299251081076918, -1.404339036650337214 ) ) ;
#82 = ADVANCED_BREP_SHAPE_REPRESENTATION ( 'GlassCircleTooling', ( #404, #644 ), #677 ) ;
#83 = DIRECTION ( 'NONE',  ( 1.000000000000000000, -0.000000000000000000, 0.000000000000000000 ) ) ;
#84 = VECTOR ( 'NONE', #244, 1000.000000000000000 ) ;
#85 = ORIENTED_EDGE ( 'NONE', *, *, #178, .F. ) ;
#86 = DIRECTION ( 'NONE',  ( -1.000000000000000000, 0.000000000000000000, -1.758165685111629112E-17 ) ) ;
#87 = PRESENTATION_LAYER_ASSIGNMENT (  '', '', ( #427 ) ) ;
#88 = EDGE_CURVE ( 'NONE', #281, #669, #79, .T. ) ;
#89 = CARTESIAN_POINT ( 'NONE',  ( 2.509253504929504608, -4.346154559608183199, -153.0000000000000284 ) ) ;
#90 = AXIS2_PLACEMENT_3D ( 'NONE', #494, #423, #498 ) ;
#91 = ORIENTED_EDGE ( 'NONE', *, *, #221, .F. ) ;
#92 = CARTESIAN_POINT ( 'NONE',  ( -0.9999999999999991118, 158.4856895461646502, 6.000000000000000000 ) ) ;
#93 = EDGE_CURVE ( 'NONE', #895, #632, #176, .T. ) ;
#94 = CARTESIAN_POINT ( 'NONE',  ( -0.9999999999999991118, 0.000000000000000000, -158.0000000000000284 ) ) ;
#95 = ORIENTED_EDGE ( 'NONE', *, *, #870, .T. ) ;
#96 = LINE ( 'NONE', #849, #761 ) ;
#97 = CARTESIAN_POINT ( 'NONE',  ( 0.000000000000000000, 10.00000000000000000, 0.000000000000000000 ) ) ;
#98 = CARTESIAN_POINT ( 'NONE',  ( 2.816687638038912056E-16, 0.000000000000000000, -2.299999999999999822 ) ) ;
#99 = EDGE_LOOP ( 'NONE', ( #568, #145, #899, #780 ) ) ;
#100 = FACE_OUTER_BOUND ( 'NONE', #497, .T. ) ;
#101 = CARTESIAN_POINT ( 'NONE',  ( -1.696930373493370059, 9.953819510969710294, 1.567454172448047744 ) ) ;
#102 = FACE_OUTER_BOUND ( 'NONE', #607, .T. ) ;
#103 = ORIENTED_EDGE ( 'NONE', *, *, #519, .F. ) ;
#104 = CARTESIAN_POINT ( 'NONE',  ( -0.9999999999999991118, 0.000000000000000000, -153.0000000000000284 ) ) ;
#105 = CARTESIAN_POINT ( 'NONE',  ( 0.000000000000000000, 10.00000000000000000, -153.0000000000000284 ) ) ;
#106 = ORIENTED_EDGE ( 'NONE', *, *, #830, .F. ) ;
#107 = DIRECTION ( 'NONE',  ( -1.000000000000000000, 0.000000000000000000, -0.000000000000000000 ) ) ;
#108 = PLANE ( 'NONE',  #165 ) ;
#109 = ORIENTED_EDGE ( 'NONE', *, *, #887, .T. ) ;
#110 = CARTESIAN_POINT ( 'NONE',  ( 18.99999999999999645, 0.000000000000000000, -158.0000000000000284 ) ) ;
#111 = CIRCLE ( 'NONE', #634, 5.000000000000000000 ) ;
#112 = EDGE_CURVE ( 'NONE', #458, #643, #724, .T. ) ;
#113 = ORIENTED_EDGE ( 'NONE', *, *, #519, .T. ) ;
#114 =( NAMED_UNIT ( * ) PLANE_ANGLE_UNIT ( ) SI_UNIT ( $, .RADIAN. ) );
#115 = PRODUCT_DEFINITION ( 'UNKNOWN', '', #691, #430 ) ;
#116 = LINE ( 'NONE', #258, #84 ) ;
#117 = VECTOR ( 'NONE', #566, 1000.000000000000000 ) ;
#118 = CARTESIAN_POINT ( 'NONE',  ( 6.000000000000019540, 5.000000000000000000, 1.000000000000000000 ) ) ;
#119 = EDGE_LOOP ( 'NONE', ( #12, #877, #201, #767, #743, #908 ) ) ;
#120 = CARTESIAN_POINT ( 'NONE',  ( 18.99999999999999645, 5.000000000000000000, -158.0000000000000284 ) ) ;
#121 = DIRECTION ( 'NONE',  ( 0.000000000000000000, 1.000000000000000000, -0.000000000000000000 ) ) ;
#122 = LINE ( 'NONE', #598, #707 ) ;
#123 = ORIENTED_EDGE ( 'NONE', *, *, #368, .T. ) ;
#124 = EDGE_CURVE ( 'NONE', #797, #619, #716, .T. ) ;
#125 = LINE ( 'NONE', #256, #3 ) ;
#126 = EDGE_LOOP ( 'NONE', ( #434, #384, #320, #474 ) ) ;
#127 = EDGE_LOOP ( 'NONE', ( #548, #33, #581, #891, #708, #189 ) ) ;
#128 = CARTESIAN_POINT ( 'NONE',  ( -0.9999999999999991118, 10.00000000000000000, 6.000000000000000000 ) ) ;
#129 = ADVANCED_FACE ( 'NONE', ( #102 ), #237, .T. ) ;
#130 = VECTOR ( 'NONE', #268, 1000.000000000000000 ) ;
#131 = CARTESIAN_POINT ( 'NONE',  ( 0.000000000000000000, 5.000000000000000000, -146.9999999999999716 ) ) ;
#132 = VERTEX_POINT ( 'NONE', #742 ) ;
#133 = DIRECTION ( 'NONE',  ( -0.000000000000000000, 1.000000000000000000, -0.000000000000000000 ) ) ;
#134 = VECTOR ( 'NONE', #83, 1000.000000000000000 ) ;
#135 = DIRECTION ( 'NONE',  ( 0.000000000000000000, 0.000000000000000000, 1.000000000000000000 ) ) ;
#136 = VERTEX_POINT ( 'NONE', #24 ) ;
#137 = FACE_BOUND ( 'NONE', #785, .T. ) ;
#138 = AXIS2_PLACEMENT_3D ( 'NONE', #528, #815, #465 ) ;
#139 = DIRECTION ( 'NONE',  ( 0.000000000000000000, 0.000000000000000000, 1.000000000000000000 ) ) ;
#140 = EDGE_CURVE ( 'NONE', #132, #265, #517, .T. ) ;
#141 = CYLINDRICAL_SURFACE ( 'NONE', #852, 5.000000000000000000 ) ;
#142 = DIRECTION ( 'NONE',  ( 0.000000000000000000, -1.000000000000000000, 0.000000000000000000 ) ) ;
#143 = DIRECTION ( 'NONE',  ( -0.000000000000000000, -1.000000000000000000, 0.000000000000000000 ) ) ;
#144 = CARTESIAN_POINT ( 'NONE',  ( 11.00000000000002132, 10.00000000000000000, -136.9999999999999432 ) ) ;
#145 = ORIENTED_EDGE ( 'NONE', *, *, #805, .F. ) ;
#146 = DIRECTION ( 'NONE',  ( -1.758165685111629112E-17, 0.000000000000000000, 1.000000000000000000 ) ) ;
#147 = CIRCLE ( 'NONE', #462, 5.000000000000004441 ) ;
#148 = CARTESIAN_POINT ( 'NONE',  ( 0.000000000000000000, 0.000000000000000000, -147.0000000000000284 ) ) ;
#149 = ORIENTED_EDGE ( 'NONE', *, *, #387, .T. ) ;
#150 = CARTESIAN_POINT ( 'NONE',  ( 2.061077677217543425, 9.887487379517377661, 1.042903608507740998 ) ) ;
#151 = ADVANCED_FACE ( 'NONE', ( #232 ), #440, .F. ) ;
#152 = DIRECTION ( 'NONE',  ( 1.000000000000000000, -0.000000000000000000, -0.000000000000000000 ) ) ;
#153 = VECTOR ( 'NONE', #823, 1000.000000000000000 ) ;
#154 = VERTEX_POINT ( 'NONE', #382 ) ;
#155 = CARTESIAN_POINT ( 'NONE',  ( 2.816687638038912056E-16, 0.000000000000000000, -2.299999999999999822 ) ) ;
#156 = VECTOR ( 'NONE', #484, 1000.000000000000000 ) ;
#157 = DIRECTION ( 'NONE',  ( 1.000000000000000000, 0.000000000000000000, 0.000000000000000000 ) ) ;
#158 = VECTOR ( 'NONE', #862, 1000.000000000000000 ) ;
#159 = ORIENTED_EDGE ( 'NONE', *, *, #555, .T. ) ;
#160 = DIRECTION ( 'NONE',  ( 0.000000000000000000, 0.000000000000000000, 1.000000000000000000 ) ) ;
#161 = CARTESIAN_POINT ( 'NONE',  ( 0.000000000000000000, 0.000000000000000000, -141.9999999999999716 ) ) ;
#162 = ORIENTED_EDGE ( 'NONE', *, *, #764, .T. ) ;
#163 = CARTESIAN_POINT ( 'NONE',  ( 11.00000000000002132, 5.000000000000000000, -136.9999999999999432 ) ) ;
#164 = CARTESIAN_POINT ( 'NONE',  ( -2.150348152329912832, 9.866254665736862606, -0.8436002255248784554 ) ) ;
#165 = AXIS2_PLACEMENT_3D ( 'NONE', #668, #37, #410 ) ;
#166 = CARTESIAN_POINT ( 'NONE',  ( 1.000000000000021760, 10.00000000000000000, -136.9999999999999432 ) ) ;
#167 = EDGE_CURVE ( 'NONE', #487, #605, #170, .T. ) ;
#168 = ORIENTED_EDGE ( 'NONE', *, *, #555, .F. ) ;
#169 = CARTESIAN_POINT ( 'NONE',  ( -2.299910413383856156, 9.828067203938397611, -0.2154381228673002691 ) ) ;
#170 = LINE ( 'NONE', #161, #68 ) ;
#171 = ORIENTED_EDGE ( 'NONE', *, *, #737, .F. ) ;
#172 = DIRECTION ( 'NONE',  ( -0.000000000000000000, 1.000000000000000000, -0.000000000000000000 ) ) ;
#173 = PLANE ( 'NONE',  #343 ) ;
#174 = ORIENTED_EDGE ( 'NONE', *, *, #830, .T. ) ;
#175 = CARTESIAN_POINT ( 'NONE',  ( 21.92893218813452094, 7.928932188134525383, -158.0000000000000284 ) ) ;
#176 = CIRCLE ( 'NONE', #339, 2.299999999999999822 ) ;
#177 = DIRECTION ( 'NONE',  ( 0.000000000000000000, 0.000000000000000000, -1.000000000000000000 ) ) ;
#178 = EDGE_CURVE ( 'NONE', #238, #185, #271, .T. ) ;
#179 = DIRECTION ( 'NONE',  ( 0.000000000000000000, -1.000000000000000000, 0.000000000000000000 ) ) ;
#180 = AXIS2_PLACEMENT_3D ( 'NONE', #505, #650, #240 ) ;
#181 = EDGE_LOOP ( 'NONE', ( #65, #848, #576, #91 ) ) ;
#182 = CARTESIAN_POINT ( 'NONE',  ( 18.99999999999999645, 0.000000000000000000, -141.9999999999999716 ) ) ;
#183 = CIRCLE ( 'NONE', #413, 2.299999999999999822 ) ;
#184 = DIRECTION ( 'NONE',  ( 0.000000000000000000, 0.000000000000000000, 1.000000000000000000 ) ) ;
#185 = VERTEX_POINT ( 'NONE', #587 ) ;
#186 = DIRECTION ( 'NONE',  ( -0.000000000000000000, -1.000000000000000000, 0.000000000000000000 ) ) ;
#187 = LINE ( 'NONE', #534, #715 ) ;
#188 = ADVANCED_FACE ( 'NONE', ( #734 ), #173, .T. ) ;
#189 = ORIENTED_EDGE ( 'NONE', *, *, #387, .F. ) ;
#190 = AXIS2_PLACEMENT_3D ( 'NONE', #131, #765, #64 ) ;
#191 = ORIENTED_EDGE ( 'NONE', *, *, #167, .T. ) ;
#192 = LINE ( 'NONE', #45, #425 ) ;
#193 = CARTESIAN_POINT ( 'NONE',  ( -1.000000000000000000, 0.000000000000000000, -147.0000000000000284 ) ) ;
#194 = ORIENTED_EDGE ( 'NONE', *, *, #352, .F. ) ;
#195 = VERTEX_POINT ( 'NONE', #796 ) ;
#196 = DIRECTION ( 'NONE',  ( 0.000000000000000000, 0.000000000000000000, 1.000000000000000000 ) ) ;
#197 = VECTOR ( 'NONE', #72, 1000.000000000000000 ) ;
#198 = ADVANCED_FACE ( 'NONE', ( #245 ), #510, .F. ) ;
#199 = DIRECTION ( 'NONE',  ( -0.000000000000000000, 1.000000000000000000, -0.000000000000000000 ) ) ;
#200 = VECTOR ( 'NONE', #537, 1000.000000000000000 ) ;
#201 = ORIENTED_EDGE ( 'NONE', *, *, #588, .T. ) ;
#202 = CARTESIAN_POINT ( 'NONE',  ( 0.000000000000000000, 0.000000000000000000, 0.000000000000000000 ) ) ;
#203 = VECTOR ( 'NONE', #562, 1000.000000000000114 ) ;
#204 = LINE ( 'NONE', #893, #480 ) ;
#205 = PRODUCT ( 'GlassCircleTooling', 'GlassCircleTooling', '', ( #600 ) ) ;
#206 = VERTEX_POINT ( 'NONE', #380 ) ;
#207 = EDGE_LOOP ( 'NONE', ( #890, #611, #760, #777 ) ) ;
#208 = CARTESIAN_POINT ( 'NONE',  ( 18.99999999999999645, 5.000000000000000000, -141.9999999999999716 ) ) ;
#209 = EDGE_CURVE ( 'NONE', #265, #791, #580, .T. ) ;
#210 = AXIS2_PLACEMENT_3D ( 'NONE', #433, #501, #212 ) ;
#211 = CARTESIAN_POINT ( 'NONE',  ( -1.833595647236311743, 9.931382870852724309, -1.404854487339875613 ) ) ;
#212 = DIRECTION ( 'NONE',  ( 0.8660254037844385966, 0.5000000000000001110, 0.000000000000000000 ) ) ;
#213 = CYLINDRICAL_SURFACE ( 'NONE', #835, 2.299999999999999822 ) ;
#214 = CARTESIAN_POINT ( 'NONE',  ( 6.000000000000019540, 5.000000000000000000, 6.000000000000000000 ) ) ;
#215 = CLOSED_SHELL ( 'NONE', ( #43, #493, #859, #251, #526, #579, #710, #198, #753, #188, #653, #74, #898, #833, #667, #129, #151, #499, #236, #246, #287, #20, #78, #485, #508, #459, #56, #4 ) ) ;
#216 = CYLINDRICAL_SURFACE ( 'NONE', #694, 5.000000000000004441 ) ;
#217 = VERTEX_POINT ( 'NONE', #166 ) ;
#218 = CARTESIAN_POINT ( 'NONE',  ( -1.000000000000000000, 0.000000000000000000, -153.0000000000000284 ) ) ;
#219 = UNCERTAINTY_MEASURE_WITH_UNIT (LENGTH_MEASURE( 1.000000000000000082E-05 ), #846, 'distance_accuracy_value', 'NONE');
#220 = DIRECTION ( 'NONE',  ( 0.000000000000000000, -0.000000000000000000, -1.000000000000000000 ) ) ;
#221 = EDGE_CURVE ( 'NONE', #25, #458, #575, .T. ) ;
#222 = ORIENTED_EDGE ( 'NONE', *, *, #764, .F. ) ;
#223 = FACE_OUTER_BOUND ( 'NONE', #207, .T. ) ;
#224 = DIRECTION ( 'NONE',  ( 0.000000000000000000, 0.000000000000000000, 1.000000000000000000 ) ) ;
#225 = ORIENTED_EDGE ( 'NONE', *, *, #248, .F. ) ;
#226 = CARTESIAN_POINT ( 'NONE',  ( 0.000000000000000000, 0.000000000000000000, -153.0000000000000284 ) ) ;
#227 = UNCERTAINTY_MEASURE_WITH_UNIT (LENGTH_MEASURE( 1.000000000000000082E-05 ), #30, 'distance_accuracy_value', 'NONE');
#228 = CARTESIAN_POINT ( 'NONE',  ( -0.9999999999999991118, 10.00000000000000000, 2.071231517720798276 ) ) ;
#229 = AXIS2_PLACEMENT_3D ( 'NONE', #744, #250, #665 ) ;
#230 = ORIENTED_EDGE ( 'NONE', *, *, #793, .F. ) ;
#231 = CARTESIAN_POINT ( 'NONE',  ( 23.99999999999999645, 10.00000000000000000, 0.000000000000000000 ) ) ;
#232 = FACE_OUTER_BOUND ( 'NONE', #302, .T. ) ;
#233 = VERTEX_POINT ( 'NONE', #726 ) ;
#234 = CARTESIAN_POINT ( 'NONE',  ( 0.000000000000000000, 5.000000000000000000, -158.0000000000000284 ) ) ;
#235 = CARTESIAN_POINT ( 'NONE',  ( -2.063136491890730007, 9.887057777917139134, 1.039185140351602588 ) ) ;
#236 = ADVANCED_FACE ( 'NONE', ( #453 ), #854, .T. ) ;
#237 = CYLINDRICAL_SURFACE ( 'NONE', #366, 5.000000000000000000 ) ;
#238 = VERTEX_POINT ( 'NONE', #98 ) ;
#239 = FACE_OUTER_BOUND ( 'NONE', #181, .T. ) ;
#240 = DIRECTION ( 'NONE',  ( 0.000000000000000000, 0.000000000000000000, 1.000000000000000000 ) ) ;
#241 = AXIS2_PLACEMENT_3D ( 'NONE', #892, #186, #736 ) ;
#242 = ORIENTED_EDGE ( 'NONE', *, *, #93, .F. ) ;
#243 = APPLICATION_PROTOCOL_DEFINITION ( 'draft international standard', 'automotive_design', 1998, #473 ) ;
#244 = DIRECTION ( 'NONE',  ( 0.000000000000000000, -1.000000000000000000, 0.000000000000000000 ) ) ;
#245 = FACE_OUTER_BOUND ( 'NONE', #750, .T. ) ;
#246 = ADVANCED_FACE ( 'NONE', ( #310 ), #386, .T. ) ;
#247 = ORIENTED_EDGE ( 'NONE', *, *, #178, .T. ) ;
#248 = EDGE_CURVE ( 'NONE', #291, #132, #514, .T. ) ;
#249 = VECTOR ( 'NONE', #763, 1000.000000000000114 ) ;
#250 = DIRECTION ( 'NONE',  ( 0.000000000000000000, 1.000000000000000000, -0.000000000000000000 ) ) ;
#251 = ADVANCED_FACE ( 'NONE', ( #738 ), #108, .T. ) ;
#252 = CARTESIAN_POINT ( 'NONE',  ( 6.000000000000019540, 158.4856895461646502, 1.000000000000000000 ) ) ;
#253 = ORIENTED_EDGE ( 'NONE', *, *, #841, .T. ) ;
#254 = VECTOR ( 'NONE', #523, 1000.000000000000000 ) ;
#255 = DIRECTION ( 'NONE',  ( -0.000000000000000000, 1.000000000000000000, -0.000000000000000000 ) ) ;
#256 = CARTESIAN_POINT ( 'NONE',  ( 23.99999999999999645, 10.00000000000000000, -153.0000000000000284 ) ) ;
#257 = ORIENTED_EDGE ( 'NONE', *, *, #774, .F. ) ;
#258 = CARTESIAN_POINT ( 'NONE',  ( 18.99999999999999645, 10.00000000000000000, -158.0000000000000284 ) ) ;
#259 = AXIS2_PLACEMENT_3D ( 'NONE', #560, #702, #779 ) ;
#260 = DIRECTION ( 'NONE',  ( 0.000000000000000000, -1.000000000000000000, 0.000000000000000000 ) ) ;
#261 = ORIENTED_EDGE ( 'NONE', *, *, #405, .T. ) ;
#262 = FACE_OUTER_BOUND ( 'NONE', #127, .T. ) ;
#263 = EDGE_CURVE ( 'NONE', #553, #695, #749, .T. ) ;
#264 = CARTESIAN_POINT ( 'NONE',  ( -5.999999999999999112, 0.000000000000000000, 0.000000000000000000 ) ) ;
#265 = VERTEX_POINT ( 'NONE', #118 ) ;
#266 = ORIENTED_EDGE ( 'NONE', *, *, #345, .F. ) ;
#267 = EDGE_CURVE ( 'NONE', #311, #619, #125, .T. ) ;
#268 = DIRECTION ( 'NONE',  ( -0.000000000000000000, 0.000000000000000000, 1.000000000000000000 ) ) ;
#269 = CARTESIAN_POINT ( 'NONE',  ( 2.509253504929504608, -4.346154559608183199, -147.0000000000000284 ) ) ;
#270 = ORIENTED_EDGE ( 'NONE', *, *, #802, .T. ) ;
#271 = CIRCLE ( 'NONE', #740, 2.299999999999999822 ) ;
#272 = ORIENTED_EDGE ( 'NONE', *, *, #681, .F. ) ;
#273 = CARTESIAN_POINT ( 'NONE',  ( 18.99999999999999645, 10.00000000000000000, -141.9999999999999716 ) ) ;
#274 = CIRCLE ( 'NONE', #666, 5.000000000000000000 ) ;
#275 = CARTESIAN_POINT ( 'NONE',  ( -5.999999999999999112, 5.000000000000000000, -153.0000000000000284 ) ) ;
#276 = ORIENTED_EDGE ( 'NONE', *, *, #424, .T. ) ;
#277 = EDGE_CURVE ( 'NONE', #553, #281, #400, .T. ) ;
#278 = VECTOR ( 'NONE', #374, 1000.000000000000000 ) ;
#279 = LINE ( 'NONE', #214, #636 ) ;
#280 = EDGE_CURVE ( 'NONE', #791, #720, #327, .T. ) ;
#281 = VERTEX_POINT ( 'NONE', #193 ) ;
#282 = FACE_OUTER_BOUND ( 'NONE', #419, .T. ) ;
#283 = CARTESIAN_POINT ( 'NONE',  ( -1.376057207477008326, 9.988448723748330593, 1.855519290376611119 ) ) ;
#284 = DIRECTION ( 'NONE',  ( 0.000000000000000000, 0.000000000000000000, 1.000000000000000000 ) ) ;
#285 = ORIENTED_EDGE ( 'NONE', *, *, #368, .F. ) ;
#286 = DIRECTION ( 'NONE',  ( 0.000000000000000000, 0.000000000000000000, 1.000000000000000000 ) ) ;
#287 = ADVANCED_FACE ( 'NONE', ( #687 ), #610, .T. ) ;
#288 = CARTESIAN_POINT ( 'NONE',  ( -1.195882812791246419, 9.999999999999998224, -1.976658404519625378 ) ) ;
#289 = DIRECTION ( 'NONE',  ( 0.000000000000000000, 0.000000000000000000, 1.000000000000000000 ) ) ;
#290 = CIRCLE ( 'NONE', #471, 5.000000000000000000 ) ;
#291 = VERTEX_POINT ( 'NONE', #603 ) ;
#292 = CARTESIAN_POINT ( 'NONE',  ( 13.50111563485577015, 2.000000000000001776, -153.0000000000000284 ) ) ;
#293 = FACE_OUTER_BOUND ( 'NONE', #463, .T. ) ;
#294 = VERTEX_POINT ( 'NONE', #902 ) ;
#295 = LINE ( 'NONE', #234, #117 ) ;
#296 = AXIS2_PLACEMENT_3D ( 'NONE', #297, #567, #19 ) ;
#297 = CARTESIAN_POINT ( 'NONE',  ( -0.9999999999999991118, 5.000000000000000000, -153.0000000000000284 ) ) ;
#298 = ORIENTED_EDGE ( 'NONE', *, *, #635, .T. ) ;
#299 = DIRECTION ( 'NONE',  ( 1.000000000000000000, 0.000000000000000000, 0.000000000000000000 ) ) ;
#300 = CIRCLE ( 'NONE', #138, 2.299999999999999822 ) ;
#301 = PLANE ( 'NONE',  #210 ) ;
#302 = EDGE_LOOP ( 'NONE', ( #825, #699, #230, #103 ) ) ;
#303 = CARTESIAN_POINT ( 'NONE',  ( 1.376057207477024313, 9.988448723748330593, -1.855519290376598240 ) ) ;
#304 = EDGE_CURVE ( 'NONE', #539, #662, #391, .T. ) ;
#305 = CARTESIAN_POINT ( 'NONE',  ( -1.694073310358589657, 9.954214686373667575, -1.570468457762539183 ) ) ;
#306 = CARTESIAN_POINT ( 'NONE',  ( 1.000000000000019096, 10.00000000000000888, 6.000000000000000000 ) ) ;
#307 = VERTEX_POINT ( 'NONE', #275 ) ;
#308 = CARTESIAN_POINT ( 'NONE',  ( 2.150348152329915941, 9.866254665736867935, 0.8436002255248723491 ) ) ;
#309 = CARTESIAN_POINT ( 'NONE',  ( 23.99999999999999645, 10.00000000000000000, -153.0000000000000284 ) ) ;
#310 = FACE_OUTER_BOUND ( 'NONE', #437, .T. ) ;
#311 = VERTEX_POINT ( 'NONE', #613 ) ;
#312 = FACE_OUTER_BOUND ( 'NONE', #61, .T. ) ;
#313 = CARTESIAN_POINT ( 'NONE',  ( 0.000000000000000000, 0.000000000000000000, 0.000000000000000000 ) ) ;
#314 = EDGE_CURVE ( 'NONE', #797, #402, #122, .T. ) ;
#315 = DIRECTION ( 'NONE',  ( 0.000000000000000000, 1.000000000000000000, -0.000000000000000000 ) ) ;
#316 = VECTOR ( 'NONE', #142, 1000.000000000000000 ) ;
#317 = ORIENTED_EDGE ( 'NONE', *, *, #341, .T. ) ;
#318 = LINE ( 'NONE', #592, #586 ) ;
#319 = CARTESIAN_POINT ( 'NONE',  ( 11.00000000000002132, 10.00000000000000000, -136.9999999999999432 ) ) ;
#320 = ORIENTED_EDGE ( 'NONE', *, *, #15, .F. ) ;
#321 = CIRCLE ( 'NONE', #90, 5.000000000000004441 ) ;
#322 = DIRECTION ( 'NONE',  ( -0.000000000000000000, -1.000000000000000000, 0.000000000000000000 ) ) ;
#323 = DIRECTION ( 'NONE',  ( 0.000000000000000000, 0.000000000000000000, 1.000000000000000000 ) ) ;
#324 = ORIENTED_EDGE ( 'NONE', *, *, #889, .T. ) ;
#325 = AXIS2_PLACEMENT_3D ( 'NONE', #426, #912, #284 ) ;
#326 = DIRECTION ( 'NONE',  ( 1.000000000000000000, 0.000000000000000000, 1.758165685111629112E-17 ) ) ;
#327 = LINE ( 'NONE', #69, #601 ) ;
#328 = ORIENTED_EDGE ( 'NONE', *, *, #751, .T. ) ;
#329 = ORIENTED_EDGE ( 'NONE', *, *, #826, .T. ) ;
#330 = DIRECTION ( 'NONE',  ( -0.000000000000000000, -1.000000000000000000, 0.000000000000000000 ) ) ;
#331 = EDGE_CURVE ( 'NONE', #458, #307, #147, .T. ) ;
#332 = DIRECTION ( 'NONE',  ( -1.000000000000000000, -0.000000000000000000, -0.000000000000000000 ) ) ;
#333 = VERTEX_POINT ( 'NONE', #395 ) ;
#334 = CARTESIAN_POINT ( 'NONE',  ( 12.96521724999352543, 0.000000000000000000, -147.0000000000000284 ) ) ;
#335 = EDGE_CURVE ( 'NONE', #614, #136, #336, .T. ) ;
#336 = LINE ( 'NONE', #697, #814 ) ;
#337 = ORIENTED_EDGE ( 'NONE', *, *, #304, .F. ) ;
#338 = DIRECTION ( 'NONE',  ( 0.000000000000000000, 0.000000000000000000, 1.000000000000000000 ) ) ;
#339 = AXIS2_PLACEMENT_3D ( 'NONE', #631, #358, #563 ) ;
#340 = FILL_AREA_STYLE ('',( #692 ) ) ;
#341 = EDGE_CURVE ( 'NONE', #553, #643, #678, .T. ) ;
#342 = VERTEX_POINT ( 'NONE', #51 ) ;
#343 = AXIS2_PLACEMENT_3D ( 'NONE', #28, #875, #376 ) ;
#344 = CARTESIAN_POINT ( 'NONE',  ( -0.9999999999999991118, 10.00000000000000888, 6.000000000000000000 ) ) ;
#345 = EDGE_CURVE ( 'NONE', #762, #693, #300, .T. ) ;
#346 = DIRECTION ( 'NONE',  ( 0.000000000000000000, 0.000000000000000000, 1.000000000000000000 ) ) ;
#347 = EDGE_LOOP ( 'NONE', ( #872, #515, #194, #622 ) ) ;
#348 = PLANE ( 'NONE',  #544 ) ;
#349 = DIRECTION ( 'NONE',  ( 0.000000000000000000, 1.734723475976805517E-15, 1.000000000000000000 ) ) ;
#350 = ORIENTED_EDGE ( 'NONE', *, *, #124, .T. ) ;
#351 = DIRECTION ( 'NONE',  ( -0.000000000000000000, 1.000000000000000000, -0.000000000000000000 ) ) ;
#352 = EDGE_CURVE ( 'NONE', #614, #402, #897, .T. ) ;
#353 = SURFACE_STYLE_USAGE ( .BOTH. , #5 ) ;
#354 = DIRECTION ( 'NONE',  ( 0.000000000000000000, 0.000000000000000000, -1.000000000000000000 ) ) ;
#355 = ORIENTED_EDGE ( 'NONE', *, *, #112, .T. ) ;
#356 = CARTESIAN_POINT ( 'NONE',  ( 2.269715041867282235, 9.836484235428500256, -0.4296551726358953660 ) ) ;
#357 = AXIS2_PLACEMENT_3D ( 'NONE', #451, #741, #107 ) ;
#358 = DIRECTION ( 'NONE',  ( 0.000000000000000000, 1.000000000000000000, -0.000000000000000000 ) ) ;
#359 = MECHANICAL_DESIGN_GEOMETRIC_PRESENTATION_REPRESENTATION (  '', ( #427 ), #591 ) ;
#360 = EDGE_LOOP ( 'NONE', ( #807, #149, #266, #66, #7 ) ) ;
#361 = CARTESIAN_POINT ( 'NONE',  ( 1.373543831733968101, 9.988631668564650568, 1.857318739474172142 ) ) ;
#362 = VECTOR ( 'NONE', #778, 1000.000000000000000 ) ;
#363 = CARTESIAN_POINT ( 'NONE',  ( 12.96521724999352543, 0.000000000000000000, 0.000000000000000000 ) ) ;
#364 = ORIENTED_EDGE ( 'NONE', *, *, #659, .T. ) ;
#365 = CARTESIAN_POINT ( 'NONE',  ( 1.195882812791263738, 9.999999999999998224, 1.976658404519614054 ) ) ;
#366 = AXIS2_PLACEMENT_3D ( 'NONE', #860, #179, #32 ) ;
#367 = CARTESIAN_POINT ( 'NONE',  ( -1.000000000000000000, 10.00000000000000000, -153.0000000000000284 ) ) ;
#368 = EDGE_CURVE ( 'NONE', #154, #342, #204, .T. ) ;
#369 = ORIENTED_EDGE ( 'NONE', *, *, #698, .T. ) ;
#370 = CARTESIAN_POINT ( 'NONE',  ( 1.694073310358598317, 9.954214686373664023, 1.570468457762528525 ) ) ;
#371 = DIRECTION ( 'NONE',  ( -1.758165685111629112E-17, -0.000000000000000000, 1.000000000000000000 ) ) ;
#372 = DIRECTION ( 'NONE',  ( 0.000000000000000000, 0.000000000000000000, -1.000000000000000000 ) ) ;
#373 = ORIENTED_EDGE ( 'NONE', *, *, #277, .T. ) ;
#374 = DIRECTION ( 'NONE',  ( 1.000000000000000000, -0.000000000000000000, 0.000000000000000000 ) ) ;
#375 = CARTESIAN_POINT ( 'NONE',  ( -1.195844858052448778, 10.00000000000000178, 1.976676729240195662 ) ) ;
#376 = DIRECTION ( 'NONE',  ( 0.000000000000000000, 0.000000000000000000, 1.000000000000000000 ) ) ;
#377 = ORIENTED_EDGE ( 'NONE', *, *, #509, .F. ) ;
#378 = DIRECTION ( 'NONE',  ( 0.000000000000000000, 0.000000000000000000, 1.000000000000000000 ) ) ;
#379 = EDGE_CURVE ( 'NONE', #662, #206, #406, .T. ) ;
#380 = CARTESIAN_POINT ( 'NONE',  ( -5.999999999999999112, 5.000000000000000000, 1.000000000000000000 ) ) ;
#381 = ORIENTED_EDGE ( 'NONE', *, *, #280, .T. ) ;
#382 = CARTESIAN_POINT ( 'NONE',  ( 18.99999999999999645, 5.000000000000000000, -141.9999999999999716 ) ) ;
#383 = VECTOR ( 'NONE', #748, 1000.000000000000000 ) ;
#384 = ORIENTED_EDGE ( 'NONE', *, *, #793, .T. ) ;
#385 = CARTESIAN_POINT ( 'NONE',  ( 23.99999999999999645, 8.061533714406776241, -153.0000000000000284 ) ) ;
#386 = CYLINDRICAL_SURFACE ( 'NONE', #180, 5.000000000000004441 ) ;
#387 = EDGE_CURVE ( 'NONE', #132, #693, #187, .T. ) ;
#388 = ORIENTED_EDGE ( 'NONE', *, *, #379, .F. ) ;
#389 = VECTOR ( 'NONE', #752, 1000.000000000000000 ) ;
#390 = CARTESIAN_POINT ( 'NONE',  ( 1.000000000000021760, 5.000000000000000000, -136.9999999999999432 ) ) ;
#391 = LINE ( 'NONE', #264, #447 ) ;
#392 = ORIENTED_EDGE ( 'NONE', *, *, #596, .F. ) ;
#393 = EDGE_CURVE ( 'NONE', #281, #735, #461, .T. ) ;
#394 = CARTESIAN_POINT ( 'NONE',  ( 1.000000000000019096, 5.000000000000000000, 1.758165685111662700E-17 ) ) ;
#395 = CARTESIAN_POINT ( 'NONE',  ( 23.99999999999999645, 10.00000000000000000, -147.0000000000000284 ) ) ;
#396 = ORIENTED_EDGE ( 'NONE', *, *, #405, .F. ) ;
#397 = ORIENTED_EDGE ( 'NONE', *, *, #588, .F. ) ;
#398 = CARTESIAN_POINT ( 'NONE',  ( 23.99999999999998934, 9.999999999999998224, -144.0710678118654471 ) ) ;
#399 = VECTOR ( 'NONE', #794, 1000.000000000000000 ) ;
#400 = LINE ( 'NONE', #824, #795 ) ;
#401 = ORIENTED_EDGE ( 'NONE', *, *, #819, .T. ) ;
#402 = VERTEX_POINT ( 'NONE', #547 ) ;
#403 = CARTESIAN_POINT ( 'NONE',  ( 0.000000000000000000, 10.00000000000000000, -141.9999999999999716 ) ) ;
#404 = MANIFOLD_SOLID_BREP ( 'Chamfer1', #215 ) ;
#405 = EDGE_CURVE ( 'NONE', #206, #307, #723, .T. ) ;
#406 = LINE ( 'NONE', #541, #758 ) ;
#407 = ORIENTED_EDGE ( 'NONE', *, *, #456, .T. ) ;
#408 = LINE ( 'NONE', #92, #788 ) ;
#409 = VECTOR ( 'NONE', #711, 1000.000000000000000 ) ;
#410 = DIRECTION ( 'NONE',  ( -1.000000000000000000, 0.000000000000000000, -0.000000000000000000 ) ) ;
#411 = ORIENTED_EDGE ( 'NONE', *, *, #468, .F. ) ;
#412 = CARTESIAN_POINT ( 'NONE',  ( 23.99999999999999645, 10.00000000000000000, -147.0000000000000284 ) ) ;
#413 = AXIS2_PLACEMENT_3D ( 'NONE', #642, #11, #289 ) ;
#414 = CARTESIAN_POINT ( 'NONE',  ( -1.834194594430684333, 9.931299251081075141, 1.404339036650348094 ) ) ;
#415 = DIRECTION ( 'NONE',  ( 0.9659258262890684232, -0.2588190451025201289, 0.000000000000000000 ) ) ;
#416 = DIRECTION ( 'NONE',  ( 0.000000000000000000, 0.000000000000000000, 1.000000000000000000 ) ) ;
#417 =( NAMED_UNIT ( * ) PLANE_ANGLE_UNIT ( ) SI_UNIT ( $, .RADIAN. ) );
#418 = DIRECTION ( 'NONE',  ( 0.000000000000000000, 0.000000000000000000, 1.000000000000000000 ) ) ;
#419 = EDGE_LOOP ( 'NONE', ( #867, #829, #561, #373 ) ) ;
#420 = CARTESIAN_POINT ( 'NONE',  ( 2.268951916989303541, 9.836682372840273914, 0.4330308477751406704 ) ) ;
#421 = DIRECTION ( 'NONE',  ( 0.000000000000000000, 0.000000000000000000, -1.000000000000000000 ) ) ;
#422 = ORIENTED_EDGE ( 'NONE', *, *, #88, .F. ) ;
#423 = DIRECTION ( 'NONE',  ( -0.000000000000000000, -1.000000000000000000, 0.000000000000000000 ) ) ;
#424 = EDGE_CURVE ( 'NONE', #195, #217, #472, .T. ) ;
#425 = VECTOR ( 'NONE', #255, 1000.000000000000000 ) ;
#426 = CARTESIAN_POINT ( 'NONE',  ( 0.000000000000000000, 0.000000000000000000, 0.000000000000000000 ) ) ;
#427 = STYLED_ITEM ( 'NONE', ( #769 ), #404 ) ;
#428 = ORIENTED_EDGE ( 'NONE', *, *, #140, .F. ) ;
#429 = DIRECTION ( 'NONE',  ( -0.000000000000000000, 1.000000000000000000, -0.000000000000000000 ) ) ;
#430 = PRODUCT_DEFINITION_CONTEXT ( 'detailed design', #473, 'design' ) ;
#431 = EDGE_CURVE ( 'NONE', #53, #762, #516, .T. ) ;
#432 = VECTOR ( 'NONE', #286, 1000.000000000000000 ) ;
#433 = CARTESIAN_POINT ( 'NONE',  ( 2.509253504929504608, -4.346154559608183199, -175.7320508075688963 ) ) ;
#434 = ORIENTED_EDGE ( 'NONE', *, *, #543, .T. ) ;
#435 = CARTESIAN_POINT ( 'NONE',  ( 6.000000000000019540, 158.4856895461646502, 6.000000000000000000 ) ) ;
#436 = DIRECTION ( 'NONE',  ( 0.000000000000000000, -1.000000000000000000, 0.000000000000000000 ) ) ;
#437 = EDGE_LOOP ( 'NONE', ( #685, #109, #717, #222, #71 ) ) ;
#438 = CARTESIAN_POINT ( 'NONE',  ( 0.000000000000000000, 10.00000000000000000, -147.0000000000000284 ) ) ;
#439 = CARTESIAN_POINT ( 'NONE',  ( -2.268951916989303541, 9.836682372840270361, -0.4330308477751431129 ) ) ;
#440 = CYLINDRICAL_SURFACE ( 'NONE', #664, 5.000000000000004441 ) ;
#441 = VERTEX_POINT ( 'NONE', #309 ) ;
#442 = EDGE_CURVE ( 'NONE', #38, #265, #279, .T. ) ;
#443 = CARTESIAN_POINT ( 'NONE',  ( 11.00000000000002132, 0.000000000000000000, -141.9999999999999716 ) ) ;
#444 = CARTESIAN_POINT ( 'NONE',  ( 6.000000000000019540, 5.000000000000000000, 1.000000000000000000 ) ) ;
#445 = ORIENTED_EDGE ( 'NONE', *, *, #46, .T. ) ;
#446 = FACE_OUTER_BOUND ( 'NONE', #647, .T. ) ;
#447 = VECTOR ( 'NONE', #184, 1000.000000000000000 ) ;
#448 = CARTESIAN_POINT ( 'NONE',  ( -5.999999999999981348, 10.00000000000000888, 6.000000000000000000 ) ) ;
#449 = AXIS2_PLACEMENT_3D ( 'NONE', #637, #850, #224 ) ;
#450 = ORIENTED_EDGE ( 'NONE', *, *, #864, .F. ) ;
#451 = CARTESIAN_POINT ( 'NONE',  ( 0.000000000000000000, 10.00000000000000000, -147.0000000000000284 ) ) ;
#452 = VECTOR ( 'NONE', #799, 1000.000000000000000 ) ;
#453 = FACE_OUTER_BOUND ( 'NONE', #126, .T. ) ;
#454 = EDGE_LOOP ( 'NONE', ( #904, #95, #679, #492, #328, #422, #728 ) ) ;
#455 = LINE ( 'NONE', #460, #383 ) ;
#456 = EDGE_CURVE ( 'NONE', #632, #53, #533, .T. ) ;
#457 = CARTESIAN_POINT ( 'NONE',  ( 0.000000000000000000, 10.00000000000000000, -147.0000000000000284 ) ) ;
#458 = VERTEX_POINT ( 'NONE', #701 ) ;
#459 = ADVANCED_FACE ( 'NONE', ( #578 ), #626, .T. ) ;
#460 = CARTESIAN_POINT ( 'NONE',  ( 23.99999999999999645, 8.061533714406776241, 0.000000000000000000 ) ) ;
#461 = LINE ( 'NONE', #832, #200 ) ;
#462 = AXIS2_PLACEMENT_3D ( 'NONE', #477, #828, #683 ) ;
#463 = EDGE_LOOP ( 'NONE', ( #168, #257, #638, #388 ) ) ;
#464 = PLANE ( 'NONE',  #800 ) ;
#465 = DIRECTION ( 'NONE',  ( 0.000000000000000000, 0.000000000000000000, 1.000000000000000000 ) ) ;
#466 = ORIENTED_EDGE ( 'NONE', *, *, #18, .F. ) ;
#467 = CIRCLE ( 'NONE', #903, 2.299999999999999822 ) ;
#468 = EDGE_CURVE ( 'NONE', #643, #441, #621, .T. ) ;
#469 = ORIENTED_EDGE ( 'NONE', *, *, #805, .T. ) ;
#470 = LINE ( 'NONE', #475, #389 ) ;
#471 = AXIS2_PLACEMENT_3D ( 'NONE', #907, #143, #346 ) ;
#472 = LINE ( 'NONE', #869, #546 ) ;
#473 = APPLICATION_CONTEXT ( 'automotive_design' ) ;
#474 = ORIENTED_EDGE ( 'NONE', *, *, #10, .T. ) ;
#475 = CARTESIAN_POINT ( 'NONE',  ( 0.000000000000000000, 0.000000000000000000, -158.0000000000000284 ) ) ;
#476 = CIRCLE ( 'NONE', #550, 5.000000000000004441 ) ;
#477 = CARTESIAN_POINT ( 'NONE',  ( -0.9999999999999991118, 5.000000000000000000, -153.0000000000000284 ) ) ;
#478 = ORIENTED_EDGE ( 'NONE', *, *, #564, .F. ) ;
#479 = CARTESIAN_POINT ( 'NONE',  ( -3.928932188134524051, 10.00000000000000355, 5.999999999999998224 ) ) ;
#480 = VECTOR ( 'NONE', #332, 1000.000000000000000 ) ;
#481 = FACE_OUTER_BOUND ( 'NONE', #360, .T. ) ;
#482 = FACE_OUTER_BOUND ( 'NONE', #675, .T. ) ;
#483 = CARTESIAN_POINT ( 'NONE',  ( -5.999999999999981348, 0.000000000000000000, 6.000000000000000000 ) ) ;
#484 = DIRECTION ( 'NONE',  ( 1.000000000000000000, -0.000000000000000000, 0.000000000000000000 ) ) ;
#485 = ADVANCED_FACE ( 'NONE', ( #239 ), #630, .T. ) ;
#486 = CARTESIAN_POINT ( 'NONE',  ( 0.000000000000000000, 5.000000000000000000, -153.0000000000000284 ) ) ;
#487 = VERTEX_POINT ( 'NONE', #443 ) ;
#488 = DIRECTION ( 'NONE',  ( -0.000000000000000000, 1.000000000000000000, 0.000000000000000000 ) ) ;
#489 = EDGE_CURVE ( 'NONE', #791, #294, #290, .T. ) ;
#490 = DIRECTION ( 'NONE',  ( 1.758165685111629112E-17, -0.000000000000000000, -1.000000000000000000 ) ) ;
#491 = DIRECTION ( 'NONE',  ( 0.000000000000000000, 1.000000000000000000, -0.000000000000000000 ) ) ;
#492 = ORIENTED_EDGE ( 'NONE', *, *, #352, .T. ) ;
#493 = ADVANCED_FACE ( 'NONE', ( #481 ), #464, .T. ) ;
#494 = CARTESIAN_POINT ( 'NONE',  ( 18.99999999999999645, 0.000000000000000000, -146.9999999999999716 ) ) ;
#495 = CYLINDRICAL_SURFACE ( 'NONE', #259, 5.000000000000000000 ) ;
#496 = VECTOR ( 'NONE', #655, 1000.000000000000000 ) ;
#497 = EDGE_LOOP ( 'NONE', ( #381, #113, #52, #861 ) ) ;
#498 = DIRECTION ( 'NONE',  ( 0.000000000000000000, 0.000000000000000000, 1.000000000000000000 ) ) ;
#499 = ADVANCED_FACE ( 'NONE', ( #262 ), #518, .T. ) ;
#500 = AXIS2_PLACEMENT_3D ( 'NONE', #657, #582, #512 ) ;
#501 = DIRECTION ( 'NONE',  ( 0.5000000000000001110, -0.8660254037844385966, 0.000000000000000000 ) ) ;
#502 = ORIENTED_EDGE ( 'NONE', *, *, #27, .T. ) ;
#503 = DIRECTION ( 'NONE',  ( 0.000000000000000000, -1.000000000000000000, 0.000000000000000000 ) ) ;
#504 = AXIS2_PLACEMENT_3D ( 'NONE', #34, #732, #817 ) ;
#505 = CARTESIAN_POINT ( 'NONE',  ( 18.99999999999999645, 10.00000000000000000, -146.9999999999999716 ) ) ;
#506 = ORIENTED_EDGE ( 'NONE', *, *, #93, .T. ) ;
#507 = LINE ( 'NONE', #438, #278 ) ;
#508 = ADVANCED_FACE ( 'NONE', ( #602 ), #608, .T. ) ;
#509 = EDGE_CURVE ( 'NONE', #712, #599, #116, .T. ) ;
#510 = PLANE ( 'NONE',  #812 ) ;
#511 = ORIENTED_EDGE ( 'NONE', *, *, #112, .F. ) ;
#512 = DIRECTION ( 'NONE',  ( 0.000000000000000000, 0.000000000000000000, 1.000000000000000000 ) ) ;
#513 = CARTESIAN_POINT ( 'NONE',  ( -0.9999999999999991118, 10.00000000000000000, -153.0000000000000284 ) ) ;
#514 = LINE ( 'NONE', #448, #452 ) ;
#515 = ORIENTED_EDGE ( 'NONE', *, *, #314, .T. ) ;
#516 = CIRCLE ( 'NONE', #9, 2.299999999999999822 ) ;
#517 =( BOUNDED_CURVE ( )  B_SPLINE_CURVE ( 3, ( #306, #809, #871, #444 ),
 .UNSPECIFIED., .F., .F. ) 
 B_SPLINE_CURVE_WITH_KNOTS ( ( 4, 4 ),
 ( 3.141592653589793116, 4.712388980384689674 ),
 .UNSPECIFIED. ) 
 CURVE ( )  GEOMETRIC_REPRESENTATION_ITEM ( )  RATIONAL_B_SPLINE_CURVE ( ( 1.000000000000000000, 0.8047378541243649375, 0.8047378541243649375, 1.000000000000000000 ) ) 
 REPRESENTATION_ITEM ( '' )  );
#518 = CYLINDRICAL_SURFACE ( 'NONE', #755, 5.000000000000000000 ) ;
#519 = EDGE_CURVE ( 'NONE', #720, #38, #597, .T. ) ;
#520 = CARTESIAN_POINT ( 'NONE',  ( 11.00000000000002132, 5.000000000000000000, -136.9999999999999432 ) ) ;
#521 = ORIENTED_EDGE ( 'NONE', *, *, #819, .F. ) ;
#522 = CARTESIAN_POINT ( 'NONE',  ( -5.999999999999999112, 0.000000000000000000, -153.0000000000000284 ) ) ;
#523 = DIRECTION ( 'NONE',  ( 0.8660254037844385966, 0.5000000000000001110, 0.000000000000000000 ) ) ;
#524 = ORIENTED_EDGE ( 'NONE', *, *, #431, .T. ) ;
#525 = CARTESIAN_POINT ( 'NONE',  ( -5.999999999999999112, 10.00000000000000000, 0.000000000000000000 ) ) ;
#526 = ADVANCED_FACE ( 'NONE', ( #446 ), #883, .F. ) ;
#527 = AXIS2_PLACEMENT_3D ( 'NONE', #520, #315, #806 ) ;
#528 = CARTESIAN_POINT ( 'NONE',  ( 0.000000000000000000, 10.00000000000000000, 0.000000000000000000 ) ) ;
#529 = VECTOR ( 'NONE', #47, 1000.000000000000000 ) ;
#530 = VECTOR ( 'NONE', #557, 1000.000000000000000 ) ;
#531 = ORIENTED_EDGE ( 'NONE', *, *, #263, .F. ) ;
#532 = LINE ( 'NONE', #886, #153 ) ;
#533 = B_SPLINE_CURVE_WITH_KNOTS ( 'NONE', 3,
 ( #23, #288, #733, #305, #211, #574, #164, #439, #169, #863, #730, #552, #235, #414, #101, #283, #375, #842 ),
 .UNSPECIFIED., .F., .F.,
 ( 4, 2, 2, 2, 2, 2, 2, 2, 4 ),
 ( 0.000000000000000000, 0.0006427840007751355750, 0.001285568001550271150, 0.001928352002325406291, 0.002571136003100541433, 0.003213920003875677008, 0.003856704004650812583, 0.004499488005425947290, 0.005142272006201081998 ),
 .UNSPECIFIED. ) ;
#534 = CARTESIAN_POINT ( 'NONE',  ( 1.000000000000021760, 10.00000000000000000, -141.9999999999999716 ) ) ;
#535 = EDGE_LOOP ( 'NONE', ( #466, #276, #651, #531, #75, #242 ) ) ;
#536 = CARTESIAN_POINT ( 'NONE',  ( 23.99999999999999645, 8.061533714406776241, -147.0000000000000284 ) ) ;
#537 = DIRECTION ( 'NONE',  ( 0.000000000000000000, 0.000000000000000000, -1.000000000000000000 ) ) ;
#538 = EDGE_CURVE ( 'NONE', #669, #801, #532, .T. ) ;
#539 = VERTEX_POINT ( 'NONE', #522 ) ;
#540 = DIRECTION ( 'NONE',  ( -1.000000000000000000, 0.000000000000000000, -0.000000000000000000 ) ) ;
#541 = CARTESIAN_POINT ( 'NONE',  ( -5.999999999999999112, 10.00000000000000000, 1.000000000000000000 ) ) ;
#542 = ORIENTED_EDGE ( 'NONE', *, *, #564, .T. ) ;
#543 = EDGE_CURVE ( 'NONE', #217, #38, #111, .T. ) ;
#544 = AXIS2_PLACEMENT_3D ( 'NONE', #831, #768, #338 ) ;
#545 = PLANE ( 'NONE',  #641 ) ;
#546 = VECTOR ( 'NONE', #490, 1000.000000000000000 ) ;
#547 = CARTESIAN_POINT ( 'NONE',  ( 13.50111563485577015, 2.000000000000001776, -147.0000000000000284 ) ) ;
#548 = ORIENTED_EDGE ( 'NONE', *, *, #140, .T. ) ;
#549 = CARTESIAN_POINT ( 'NONE',  ( 12.96521724999352543, 0.000000000000000000, -147.0000000000000284 ) ) ;
#550 = AXIS2_PLACEMENT_3D ( 'NONE', #163, #645, #160 ) ;
#551 = PRODUCT_DEFINITION_SHAPE ( 'NONE', 'NONE',  #115 ) ;
#552 = CARTESIAN_POINT ( 'NONE',  ( -2.150786715127869897, 9.866153099048323938, 0.8428086643366055064 ) ) ;
#553 = VERTEX_POINT ( 'NONE', #676 ) ;
#554 = DIRECTION ( 'NONE',  ( -1.000000000000000000, 0.000000000000000000, 0.000000000000000000 ) ) ;
#555 = EDGE_CURVE ( 'NONE', #233, #662, #274, .T. ) ;
#556 = DIRECTION ( 'NONE',  ( 0.000000000000000000, 0.000000000000000000, -1.000000000000000000 ) ) ;
#557 = DIRECTION ( 'NONE',  ( -0.000000000000000000, -1.000000000000000000, -0.000000000000000000 ) ) ;
#558 = EDGE_LOOP ( 'NONE', ( #770, #285, #369, #775 ) ) ;
#559 = CARTESIAN_POINT ( 'NONE',  ( 21.92893218813452094, 7.928932188134523606, -141.9999999999999716 ) ) ;
#560 = CARTESIAN_POINT ( 'NONE',  ( -0.9999999999999991118, 158.4856895461646502, 1.000000000000000000 ) ) ;
#561 = ORIENTED_EDGE ( 'NONE', *, *, #341, .F. ) ;
#562 = DIRECTION ( 'NONE',  ( 0.2588190451025201289, 0.9659258262890684232, -0.000000000000000000 ) ) ;
#563 = DIRECTION ( 'NONE',  ( 0.000000000000000000, 0.000000000000000000, 1.000000000000000000 ) ) ;
#564 = EDGE_CURVE ( 'NONE', #599, #311, #714, .T. ) ;
#565 = ORIENTED_EDGE ( 'NONE', *, *, #623, .T. ) ;
#566 = DIRECTION ( 'NONE',  ( 1.000000000000000000, 0.000000000000000000, 0.000000000000000000 ) ) ;
#567 = DIRECTION ( 'NONE',  ( 0.000000000000000000, 0.000000000000000000, -1.000000000000000000 ) ) ;
#568 = ORIENTED_EDGE ( 'NONE', *, *, #538, .T. ) ;
#569 = CARTESIAN_POINT ( 'NONE',  ( 1.000000000000019096, 10.00000000000000000, 2.071231517720788950 ) ) ;
#570 = AXIS2_PLACEMENT_3D ( 'NONE', #73, #152, #349 ) ;
#571 = CARTESIAN_POINT ( 'NONE',  ( 6.000000000000022204, 5.000000000000000000, -136.9999999999999432 ) ) ;
#572 = ORIENTED_EDGE ( 'NONE', *, *, #314, .F. ) ;
#573 = LINE ( 'NONE', #22, #158 ) ;
#574 = CARTESIAN_POINT ( 'NONE',  ( -2.061077677217539872, 9.887487379517374109, -1.042903608507748991 ) ) ;
#575 = LINE ( 'NONE', #661, #496 ) ;
#576 = ORIENTED_EDGE ( 'NONE', *, *, #331, .F. ) ;
#577 = CARTESIAN_POINT ( 'NONE',  ( 1.000000000000019096, 10.00000000000000000, -2.071231517720788950 ) ) ;
#578 = FACE_OUTER_BOUND ( 'NONE', #42, .T. ) ;
#579 = ADVANCED_FACE ( 'NONE', ( #682 ), #879, .T. ) ;
#580 = LINE ( 'NONE', #252, #901 ) ;
#581 = ORIENTED_EDGE ( 'NONE', *, *, #543, .F. ) ;
#582 = DIRECTION ( 'NONE',  ( 0.000000000000000000, 1.000000000000000000, -0.000000000000000000 ) ) ;
#583 = PRODUCT_RELATED_PRODUCT_CATEGORY ( 'part', '', ( #205 ) ) ;
#584 = DIRECTION ( 'NONE',  ( 0.000000000000000000, 0.000000000000000000, -1.000000000000000000 ) ) ;
#585 =( BOUNDED_CURVE ( )  B_SPLINE_CURVE ( 3, ( #590, #747, #175, #120 ),
 .UNSPECIFIED., .F., .F. ) 
 B_SPLINE_CURVE_WITH_KNOTS ( ( 4, 4 ),
 ( 3.141592653589793116, 4.712388980384689674 ),
 .UNSPECIFIED. ) 
 CURVE ( )  GEOMETRIC_REPRESENTATION_ITEM ( )  RATIONAL_B_SPLINE_CURVE ( ( 1.000000000000000000, 0.8047378541243649375, 0.8047378541243649375, 1.000000000000000000 ) ) 
 REPRESENTATION_ITEM ( '' )  );
#586 = VECTOR ( 'NONE', #658, 1000.000000000000000 ) ;
#587 = CARTESIAN_POINT ( 'NONE',  ( 0.000000000000000000, 0.000000000000000000, 2.299999999999999822 ) ) ;
#588 = EDGE_CURVE ( 'NONE', #185, #762, #192, .T. ) ;
#589 = ORIENTED_EDGE ( 'NONE', *, *, #280, .F. ) ;
#590 = CARTESIAN_POINT ( 'NONE',  ( 23.99999999999999645, 10.00000000000000000, -153.0000000000000284 ) ) ;
#591 =( GEOMETRIC_REPRESENTATION_CONTEXT ( 3 ) GLOBAL_UNCERTAINTY_ASSIGNED_CONTEXT ( ( #219 ) ) GLOBAL_UNIT_ASSIGNED_CONTEXT ( ( #846, #417, #705 ) ) REPRESENTATION_CONTEXT ( 'NONE', 'WORKASPACE' ) );
#592 = CARTESIAN_POINT ( 'NONE',  ( -0.9999999999999991118, 10.00000000000000000, 6.000000000000000000 ) ) ;
#593 = CARTESIAN_POINT ( 'NONE',  ( 0.000000000000000000, 0.000000000000000000, 0.000000000000000000 ) ) ;
#594 = AXIS2_PLACEMENT_3D ( 'NONE', #2, #554, #196 ) ;
#595 = ORIENTED_EDGE ( 'NONE', *, *, #751, .F. ) ;
#596 = EDGE_CURVE ( 'NONE', #53, #291, #318, .T. ) ;
#597 = LINE ( 'NONE', #50, #782 ) ;
#598 = CARTESIAN_POINT ( 'NONE',  ( 13.50111563485577371, 2.000000000000002665, -175.7320508075688963 ) ) ;
#599 = VERTEX_POINT ( 'NONE', #110 ) ;
#600 = PRODUCT_CONTEXT ( 'NONE', #58, 'mechanical' ) ;
#601 = VECTOR ( 'NONE', #57, 1000.000000000000000 ) ;
#602 = FACE_OUTER_BOUND ( 'NONE', #834, .T. ) ;
#603 = CARTESIAN_POINT ( 'NONE',  ( -0.9999999999999991118, 10.00000000000000888, 6.000000000000000000 ) ) ;
#604 = CIRCLE ( 'NONE', #570, 5.000000000000004441 ) ;
#605 = VERTEX_POINT ( 'NONE', #182 ) ;
#606 = SHAPE_DEFINITION_REPRESENTATION ( #551, #82 ) ;
#607 = EDGE_LOOP ( 'NONE', ( #882, #821, #428, #703 ) ) ;
#608 = SPHERICAL_SURFACE ( 'NONE', #229, 5.000000000000000000 ) ;
#609 = EDGE_CURVE ( 'NONE', #614, #619, #455, .T. ) ;
#610 = CYLINDRICAL_SURFACE ( 'NONE', #190, 5.000000000000004441 ) ;
#611 = ORIENTED_EDGE ( 'NONE', *, *, #267, .T. ) ;
#612 = FACE_OUTER_BOUND ( 'NONE', #21, .T. ) ;
#613 = CARTESIAN_POINT ( 'NONE',  ( 23.99999999999999645, 0.000000000000000000, -153.0000000000000284 ) ) ;
#614 = VERTEX_POINT ( 'NONE', #536 ) ;
#615 = CARTESIAN_POINT ( 'NONE',  ( 0.000000000000000000, 10.00000000000000000, 2.299999999999999822 ) ) ;
#616 = SURFACE_STYLE_FILL_AREA ( #340 ) ;
#617 = ORIENTED_EDGE ( 'NONE', *, *, #640, .T. ) ;
#618 = AXIS2_PLACEMENT_3D ( 'NONE', #525, #808, #584 ) ;
#619 = VERTEX_POINT ( 'NONE', #385 ) ;
#620 = FACE_OUTER_BOUND ( 'NONE', #1, .T. ) ;
#621 = LINE ( 'NONE', #837, #156 ) ;
#622 = ORIENTED_EDGE ( 'NONE', *, *, #609, .T. ) ;
#623 = EDGE_CURVE ( 'NONE', #539, #25, #874, .T. ) ;
#624 = CARTESIAN_POINT ( 'NONE',  ( -5.999999999999999112, 0.000000000000000000, 1.000000000000000000 ) ) ;
#625 = CIRCLE ( 'NONE', #500, 5.000000000000004441 ) ;
#626 = CYLINDRICAL_SURFACE ( 'NONE', #671, 5.000000000000004441 ) ;
#627 = CYLINDRICAL_SURFACE ( 'NONE', #325, 2.299999999999999822 ) ;
#628 = ORIENTED_EDGE ( 'NONE', *, *, #304, .T. ) ;
#629 = PLANE ( 'NONE',  #594 ) ;
#630 = CYLINDRICAL_SURFACE ( 'NONE', #783, 5.000000000000004441 ) ;
#631 = CARTESIAN_POINT ( 'NONE',  ( 0.000000000000000000, 10.00000000000000000, 0.000000000000000000 ) ) ;
#632 = VERTEX_POINT ( 'NONE', #31 ) ;
#633 = CARTESIAN_POINT ( 'NONE',  ( 2.150786715127871229, 9.866153099048329267, -0.8428086643365975128 ) ) ;
#634 = AXIS2_PLACEMENT_3D ( 'NONE', #390, #177, #35 ) ;
#635 = EDGE_CURVE ( 'NONE', #185, #238, #467, .T. ) ;
#636 = VECTOR ( 'NONE', #371, 1000.000000000000000 ) ;
#637 = CARTESIAN_POINT ( 'NONE',  ( -0.9999999999999991118, 5.000000000000000000, -153.0000000000000284 ) ) ;
#638 = ORIENTED_EDGE ( 'NONE', *, *, #660, .F. ) ;
#639 = CARTESIAN_POINT ( 'NONE',  ( 2.300089187128457890, 9.828019067286398069, -0.2135210191780544942 ) ) ;
#640 = EDGE_CURVE ( 'NONE', #233, #294, #827, .T. ) ;
#641 = AXIS2_PLACEMENT_3D ( 'NONE', #403, #896, #540 ) ;
#642 = CARTESIAN_POINT ( 'NONE',  ( 0.000000000000000000, 10.00000000000000000, 0.000000000000000000 ) ) ;
#643 = VERTEX_POINT ( 'NONE', #76 ) ;
#644 = AXIS2_PLACEMENT_3D ( 'NONE', #680, #811, #878 ) ;
#645 = DIRECTION ( 'NONE',  ( -0.000000000000000000, -1.000000000000000000, 0.000000000000000000 ) ) ;
#646 = LINE ( 'NONE', #784, #409 ) ;
#647 = EDGE_LOOP ( 'NONE', ( #261, #270, #628, #684 ) ) ;
#648 = LINE ( 'NONE', #226, #362 ) ;
#649 = CIRCLE ( 'NONE', #70, 10.00000000000000888 ) ;
#650 = DIRECTION ( 'NONE',  ( -0.000000000000000000, 1.000000000000000000, 0.000000000000000000 ) ) ;
#651 = ORIENTED_EDGE ( 'NONE', *, *, #10, .F. ) ;
#652 = LINE ( 'NONE', #26, #909 ) ;
#653 = ADVANCED_FACE ( 'NONE', ( #137, #771, #620 ), #348, .F. ) ;
#654 = CARTESIAN_POINT ( 'NONE',  ( 18.99999999999999645, 10.00000000000000000, -153.0000000000000284 ) ) ;
#655 = DIRECTION ( 'NONE',  ( -0.000000000000000000, 1.000000000000000000, -0.000000000000000000 ) ) ;
#656 = EDGE_LOOP ( 'NONE', ( #355, #49, #324, #521 ) ) ;
#657 = CARTESIAN_POINT ( 'NONE',  ( 11.00000000000002132, 0.000000000000000000, -136.9999999999999432 ) ) ;
#658 = DIRECTION ( 'NONE',  ( -0.000000000000000000, 0.000000000000000000, 1.000000000000000000 ) ) ;
#659 = EDGE_CURVE ( 'NONE', #342, #487, #690, .T. ) ;
#660 = EDGE_CURVE ( 'NONE', #206, #291, #60, .T. ) ;
#661 = CARTESIAN_POINT ( 'NONE',  ( -0.9999999999999991118, 10.00000000000000000, -158.0000000000000284 ) ) ;
#662 = VERTEX_POINT ( 'NONE', #624 ) ;
#663 = CARTESIAN_POINT ( 'NONE',  ( 2.816687638038912056E-16, 10.00000000000000000, -2.299999999999999822 ) ) ;
#664 = AXIS2_PLACEMENT_3D ( 'NONE', #319, #881, #41 ) ;
#665 = DIRECTION ( 'NONE',  ( 0.000000000000000000, 0.000000000000000000, 1.000000000000000000 ) ) ;
#666 = AXIS2_PLACEMENT_3D ( 'NONE', #813, #322, #818 ) ;
#667 = ADVANCED_FACE ( 'NONE', ( #910 ), #213, .F. ) ;
#668 = CARTESIAN_POINT ( 'NONE',  ( 0.000000000000000000, 10.00000000000000000, -158.0000000000000284 ) ) ;
#669 = VERTEX_POINT ( 'NONE', #549 ) ;
#670 = PLANE ( 'NONE',  #504 ) ;
#671 = AXIS2_PLACEMENT_3D ( 'NONE', #654, #911, #556 ) ;
#672 = DIRECTION ( 'NONE',  ( 0.000000000000000000, 0.000000000000000000, 1.000000000000000000 ) ) ;
#673 = DIRECTION ( 'NONE',  ( 0.000000000000000000, 1.000000000000000000, -0.000000000000000000 ) ) ;
#674 = VECTOR ( 'NONE', #429, 1000.000000000000000 ) ;
#675 = EDGE_LOOP ( 'NONE', ( #272, #317, #851, #396, #838, #392, #844 ) ) ;
#676 = CARTESIAN_POINT ( 'NONE',  ( -1.000000000000000000, 10.00000000000000000, -147.0000000000000284 ) ) ;
#677 =( GEOMETRIC_REPRESENTATION_CONTEXT ( 3 ) GLOBAL_UNCERTAINTY_ASSIGNED_CONTEXT ( ( #227 ) ) GLOBAL_UNIT_ASSIGNED_CONTEXT ( ( #30, #114, #44 ) ) REPRESENTATION_CONTEXT ( 'NONE', 'WORKASPACE' ) );
#678 = LINE ( 'NONE', #884, #529 ) ;
#679 = ORIENTED_EDGE ( 'NONE', *, *, #887, .F. ) ;
#680 = CARTESIAN_POINT ( 'NONE',  ( 0.000000000000000000, 0.000000000000000000, 0.000000000000000000 ) ) ;
#681 = EDGE_CURVE ( 'NONE', #553, #632, #704, .T. ) ;
#682 = FACE_OUTER_BOUND ( 'NONE', #454, .T. ) ;
#683 = DIRECTION ( 'NONE',  ( 0.000000000000000000, 0.000000000000000000, 1.000000000000000000 ) ) ;
#684 = ORIENTED_EDGE ( 'NONE', *, *, #379, .T. ) ;
#685 = ORIENTED_EDGE ( 'NONE', *, *, #335, .F. ) ;
#686 = CARTESIAN_POINT ( 'NONE',  ( 23.99999999999999645, 0.000000000000000000, -0.000000000000000000 ) ) ;
#687 = FACE_OUTER_BOUND ( 'NONE', #558, .T. ) ;
#688 = ORIENTED_EDGE ( 'NONE', *, *, #489, .T. ) ;
#689 = ORIENTED_EDGE ( 'NONE', *, *, #221, .T. ) ;
#690 = LINE ( 'NONE', #67, #316 ) ;
#691 = PRODUCT_DEFINITION_FORMATION_WITH_SPECIFIED_SOURCE ( 'ANY', '', #205, .NOT_KNOWN. ) ;
#692 = FILL_AREA_STYLE_COLOUR ( '', #876 ) ;
#693 = VERTEX_POINT ( 'NONE', #836 ) ;
#694 = AXIS2_PLACEMENT_3D ( 'NONE', #486, #157, #354 ) ;
#695 = VERTEX_POINT ( 'NONE', #62 ) ;
#696 = DIRECTION ( 'NONE',  ( 0.000000000000000000, 0.000000000000000000, 1.000000000000000000 ) ) ;
#697 = CARTESIAN_POINT ( 'NONE',  ( 23.99999999999999645, 0.000000000000000000, -146.9999999999999716 ) ) ;
#698 = EDGE_CURVE ( 'NONE', #154, #333, #839, .T. ) ;
#699 = ORIENTED_EDGE ( 'NONE', *, *, #659, .F. ) ;
#700 = LINE ( 'NONE', #686, #432 ) ;
#701 = CARTESIAN_POINT ( 'NONE',  ( -0.9999999999999991118, 5.000000000000000000, -158.0000000000000284 ) ) ;
#702 = DIRECTION ( 'NONE',  ( 0.000000000000000000, -1.000000000000000000, 0.000000000000000000 ) ) ;
#703 = ORIENTED_EDGE ( 'NONE', *, *, #46, .F. ) ;
#704 = LINE ( 'NONE', #128, #130 ) ;
#705 =( NAMED_UNIT ( * ) SI_UNIT ( $, .STERADIAN. ) SOLID_ANGLE_UNIT ( ) );
#706 = DIRECTION ( 'NONE',  ( -1.000000000000000000, 0.000000000000000000, 0.000000000000000000 ) ) ;
#707 = VECTOR ( 'NONE', #135, 1000.000000000000000 ) ;
#708 = ORIENTED_EDGE ( 'NONE', *, *, #789, .F. ) ;
#709 = CARTESIAN_POINT ( 'NONE',  ( 1.696930373493380717, 9.953819510969708517, -1.567454172448035310 ) ) ;
#710 = ADVANCED_FACE ( 'NONE', ( #282 ), #629, .F. ) ;
#711 = DIRECTION ( 'NONE',  ( -0.000000000000000000, 1.000000000000000000, -0.000000000000000000 ) ) ;
#712 = VERTEX_POINT ( 'NONE', #840 ) ;
#713 = PLANE ( 'NONE',  #719 ) ;
#714 = CIRCLE ( 'NONE', #241, 5.000000000000004441 ) ;
#715 = VECTOR ( 'NONE', #820, 1000.000000000000000 ) ;
#716 = LINE ( 'NONE', #89, #254 ) ;
#717 = ORIENTED_EDGE ( 'NONE', *, *, #698, .F. ) ;
#718 = DIRECTION ( 'NONE',  ( 0.000000000000000000, -1.000000000000000000, 0.000000000000000000 ) ) ;
#719 = AXIS2_PLACEMENT_3D ( 'NONE', #435, #86, #146 ) ;
#720 = VERTEX_POINT ( 'NONE', #845 ) ;
#721 = ORIENTED_EDGE ( 'NONE', *, *, #267, .F. ) ;
#722 = CARTESIAN_POINT ( 'NONE',  ( 1.833595647236319293, 9.931382870852724309, 1.404854487339865621 ) ) ;
#723 = LINE ( 'NONE', #77, #399 ) ;
#724 = CIRCLE ( 'NONE', #449, 5.000000000000004441 ) ;
#725 = VECTOR ( 'NONE', #888, 1000.000000000000000 ) ;
#726 = CARTESIAN_POINT ( 'NONE',  ( -0.9999999999999991118, 0.000000000000000000, 6.000000000000000000 ) ) ;
#727 = EDGE_CURVE ( 'NONE', #311, #136, #700, .T. ) ;
#728 = ORIENTED_EDGE ( 'NONE', *, *, #277, .F. ) ;
#729 = CARTESIAN_POINT ( 'NONE',  ( 1.195844858052466320, 9.999999999999998224, -1.976676729240183894 ) ) ;
#730 = CARTESIAN_POINT ( 'NONE',  ( -2.269715041867281791, 9.836484235428496703, 0.4296551726359002510 ) ) ;
#731 = EDGE_LOOP ( 'NONE', ( #85, #253, #506, #407, #524, #397 ) ) ;
#732 = DIRECTION ( 'NONE',  ( 0.000000000000000000, 0.000000000000000000, -1.000000000000000000 ) ) ;
#733 = CARTESIAN_POINT ( 'NONE',  ( -1.373543831733954113, 9.988631668564648791, -1.857318739474182578 ) ) ;
#734 = FACE_OUTER_BOUND ( 'NONE', #535, .T. ) ;
#735 = VERTEX_POINT ( 'NONE', #218 ) ;
#736 = DIRECTION ( 'NONE',  ( 0.000000000000000000, 0.000000000000000000, 1.000000000000000000 ) ) ;
#737 = EDGE_CURVE ( 'NONE', #25, #599, #470, .T. ) ;
#738 = FACE_OUTER_BOUND ( 'NONE', #766, .T. ) ;
#739 = ORIENTED_EDGE ( 'NONE', *, *, #640, .F. ) ;
#740 = AXIS2_PLACEMENT_3D ( 'NONE', #593, #673, #323 ) ;
#741 = DIRECTION ( 'NONE',  ( 0.000000000000000000, 0.000000000000000000, -1.000000000000000000 ) ) ;
#742 = CARTESIAN_POINT ( 'NONE',  ( 1.000000000000019096, 10.00000000000000888, 6.000000000000000000 ) ) ;
#743 = ORIENTED_EDGE ( 'NONE', *, *, #789, .T. ) ;
#744 = CARTESIAN_POINT ( 'NONE',  ( -0.9999999999999991118, 5.000000000000000000, -153.0000000000000284 ) ) ;
#745 = DIRECTION ( 'NONE',  ( -0.000000000000000000, -1.000000000000000000, -0.000000000000000000 ) ) ;
#746 = EDGE_LOOP ( 'NONE', ( #595, #572, #106, #816 ) ) ;
#747 = CARTESIAN_POINT ( 'NONE',  ( 23.99999999999998934, 9.999999999999998224, -155.9289321881345529 ) ) ;
#748 = DIRECTION ( 'NONE',  ( 0.000000000000000000, 0.000000000000000000, -1.000000000000000000 ) ) ;
#749 = LINE ( 'NONE', #457, #48 ) ;
#750 = EDGE_LOOP ( 'NONE', ( #469, #174, #350, #810, #411, #502 ) ) ;
#751 = EDGE_CURVE ( 'NONE', #402, #669, #54, .T. ) ;
#752 = DIRECTION ( 'NONE',  ( 1.000000000000000000, -0.000000000000000000, 0.000000000000000000 ) ) ;
#753 = ADVANCED_FACE ( 'NONE', ( #612 ), #545, .F. ) ;
#754 = DIRECTION ( 'NONE',  ( 1.000000000000000000, -0.000000000000000000, 0.000000000000000000 ) ) ;
#755 = AXIS2_PLACEMENT_3D ( 'NONE', #394, #804, #326 ) ;
#756 = ORIENTED_EDGE ( 'NONE', *, *, #331, .T. ) ;
#757 = CARTESIAN_POINT ( 'NONE',  ( -5.999999999999996447, 7.928932188134528047, 3.928932188134524051 ) ) ;
#758 = VECTOR ( 'NONE', #199, 1000.000000000000000 ) ;
#759 = DIRECTION ( 'NONE',  ( -0.000000000000000000, 1.000000000000000000, -0.000000000000000000 ) ) ;
#760 = ORIENTED_EDGE ( 'NONE', *, *, #609, .F. ) ;
#761 = VECTOR ( 'NONE', #503, 1000.000000000000000 ) ;
#762 = VERTEX_POINT ( 'NONE', #615 ) ;
#763 = DIRECTION ( 'NONE',  ( -0.2588190451025201289, -0.9659258262890684232, -0.000000000000000000 ) ) ;
#764 = EDGE_CURVE ( 'NONE', #605, #154, #900, .T. ) ;
#765 = DIRECTION ( 'NONE',  ( -1.000000000000000000, 0.000000000000000000, 0.000000000000000000 ) ) ;
#766 = EDGE_LOOP ( 'NONE', ( #171, #689, #401, #856 ) ) ;
#767 = ORIENTED_EDGE ( 'NONE', *, *, #345, .T. ) ;
#768 = DIRECTION ( 'NONE',  ( 0.000000000000000000, 1.000000000000000000, -0.000000000000000000 ) ) ;
#769 = PRESENTATION_STYLE_ASSIGNMENT (( #353 ) ) ;
#770 = ORIENTED_EDGE ( 'NONE', *, *, #15, .T. ) ;
#771 = FACE_BOUND ( 'NONE', #99, .T. ) ;
#772 = DIRECTION ( 'NONE',  ( -0.000000000000000000, 1.000000000000000000, 0.000000000000000000 ) ) ;
#773 = FACE_OUTER_BOUND ( 'NONE', #347, .T. ) ;
#774 = EDGE_CURVE ( 'NONE', #291, #233, #408, .T. ) ;
#775 = ORIENTED_EDGE ( 'NONE', *, *, #870, .F. ) ;
#776 = PLANE ( 'NONE',  #858 ) ;
#777 = ORIENTED_EDGE ( 'NONE', *, *, #335, .T. ) ;
#778 = DIRECTION ( 'NONE',  ( 1.000000000000000000, -0.000000000000000000, 0.000000000000000000 ) ) ;
#779 = DIRECTION ( 'NONE',  ( 0.000000000000000000, 0.000000000000000000, -1.000000000000000000 ) ) ;
#780 = ORIENTED_EDGE ( 'NONE', *, *, #88, .T. ) ;
#781 = LINE ( 'NONE', #155, #674 ) ;
#782 = VECTOR ( 'NONE', #172, 1000.000000000000000 ) ;
#783 = AXIS2_PLACEMENT_3D ( 'NONE', #513, #772, #798 ) ;
#784 = CARTESIAN_POINT ( 'NONE',  ( 1.000000000000019096, 158.4856895461646502, 6.000000000000000000 ) ) ;
#785 = EDGE_LOOP ( 'NONE', ( #298, #247 ) ) ;
#786 = DIRECTION ( 'NONE',  ( 0.000000000000000000, 0.000000000000000000, -1.000000000000000000 ) ) ;
#787 = DIRECTION ( 'NONE',  ( 0.000000000000000000, 1.000000000000000000, -0.000000000000000000 ) ) ;
#788 = VECTOR ( 'NONE', #718, 1000.000000000000000 ) ;
#789 = EDGE_CURVE ( 'NONE', #693, #195, #866, .T. ) ;
#790 = DIRECTION ( 'NONE',  ( 1.000000000000000000, -0.000000000000000000, 0.000000000000000000 ) ) ;
#791 = VERTEX_POINT ( 'NONE', #8 ) ;
#792 = PLANE ( 'NONE',  #40 ) ;
#793 = EDGE_CURVE ( 'NONE', #38, #342, #476, .T. ) ;
#794 = DIRECTION ( 'NONE',  ( 0.000000000000000000, -0.000000000000000000, -1.000000000000000000 ) ) ;
#795 = VECTOR ( 'NONE', #745, 1000.000000000000000 ) ;
#796 = CARTESIAN_POINT ( 'NONE',  ( 1.000000000000019096, 10.00000000000000000, -2.071231517720788950 ) ) ;
#797 = VERTEX_POINT ( 'NONE', #292 ) ;
#798 = DIRECTION ( 'NONE',  ( 0.000000000000000000, 0.000000000000000000, 1.000000000000000000 ) ) ;
#799 = DIRECTION ( 'NONE',  ( 1.000000000000000000, 0.000000000000000000, 0.000000000000000000 ) ) ;
#800 = AXIS2_PLACEMENT_3D ( 'NONE', #873, #121, #378 ) ;
#801 = VERTEX_POINT ( 'NONE', #17 ) ;
#802 = EDGE_CURVE ( 'NONE', #307, #539, #96, .T. ) ;
#803 = APPLICATION_PROTOCOL_DEFINITION ( 'draft international standard', 'automotive_design', 1998, #58 ) ;
#804 = DIRECTION ( 'NONE',  ( -1.758165685111629112E-17, 0.000000000000000000, 1.000000000000000000 ) ) ;
#805 = EDGE_CURVE ( 'NONE', #735, #801, #648, .T. ) ;
#806 = DIRECTION ( 'NONE',  ( 0.000000000000000000, 0.000000000000000000, 1.000000000000000000 ) ) ;
#807 = ORIENTED_EDGE ( 'NONE', *, *, #248, .T. ) ;
#808 = DIRECTION ( 'NONE',  ( 1.000000000000000000, 0.000000000000000000, 0.000000000000000000 ) ) ;
#809 = CARTESIAN_POINT ( 'NONE',  ( 3.928932188134543146, 10.00000000000000178, 5.999999999999997335 ) ) ;
#810 = ORIENTED_EDGE ( 'NONE', *, *, #864, .T. ) ;
#811 = DIRECTION ( 'NONE',  ( 0.000000000000000000, 0.000000000000000000, 1.000000000000000000 ) ) ;
#812 = AXIS2_PLACEMENT_3D ( 'NONE', #105, #372, #865 ) ;
#813 = CARTESIAN_POINT ( 'NONE',  ( -0.9999999999999991118, 0.000000000000000000, 1.000000000000000000 ) ) ;
#814 = VECTOR ( 'NONE', #260, 1000.000000000000000 ) ;
#815 = DIRECTION ( 'NONE',  ( 0.000000000000000000, 1.000000000000000000, -0.000000000000000000 ) ) ;
#816 = ORIENTED_EDGE ( 'NONE', *, *, #538, .F. ) ;
#817 = DIRECTION ( 'NONE',  ( -1.000000000000000000, 0.000000000000000000, -0.000000000000000000 ) ) ;
#818 = DIRECTION ( 'NONE',  ( 0.000000000000000000, 0.000000000000000000, 1.000000000000000000 ) ) ;
#819 = EDGE_CURVE ( 'NONE', #458, #712, #295, .T. ) ;
#820 = DIRECTION ( 'NONE',  ( 1.758165685111629112E-17, -0.000000000000000000, -1.000000000000000000 ) ) ;
#821 = ORIENTED_EDGE ( 'NONE', *, *, #209, .F. ) ;
#822 = ORIENTED_EDGE ( 'NONE', *, *, #737, .T. ) ;
#823 = DIRECTION ( 'NONE',  ( 0.000000000000000000, 0.000000000000000000, -1.000000000000000000 ) ) ;
#824 = CARTESIAN_POINT ( 'NONE',  ( -1.000000000000000000, 10.00000000000000000, -147.0000000000000284 ) ) ;
#825 = ORIENTED_EDGE ( 'NONE', *, *, #905, .F. ) ;
#826 = EDGE_CURVE ( 'NONE', #136, #605, #321, .T. ) ;
#827 = LINE ( 'NONE', #483, #197 ) ;
#828 = DIRECTION ( 'NONE',  ( 0.000000000000000000, 1.000000000000000000, 0.000000000000000000 ) ) ;
#829 = ORIENTED_EDGE ( 'NONE', *, *, #27, .F. ) ;
#830 = EDGE_CURVE ( 'NONE', #801, #797, #868, .T. ) ;
#831 = CARTESIAN_POINT ( 'NONE',  ( 0.000000000000000000, 0.000000000000000000, 0.000000000000000000 ) ) ;
#832 = CARTESIAN_POINT ( 'NONE',  ( -1.000000000000000000, 0.000000000000000000, -0.000000000000000000 ) ) ;
#833 = ADVANCED_FACE ( 'NONE', ( #100 ), #713, .F. ) ;
#834 = EDGE_LOOP ( 'NONE', ( #756, #59, #511 ) ) ;
#835 = AXIS2_PLACEMENT_3D ( 'NONE', #202, #351, #696 ) ;
#836 = CARTESIAN_POINT ( 'NONE',  ( 1.000000000000019096, 10.00000000000000000, 2.071231517720788950 ) ) ;
#837 = CARTESIAN_POINT ( 'NONE',  ( 0.000000000000000000, 10.00000000000000000, -153.0000000000000284 ) ) ;
#838 = ORIENTED_EDGE ( 'NONE', *, *, #660, .T. ) ;
#839 =( BOUNDED_CURVE ( )  B_SPLINE_CURVE ( 3, ( #208, #559, #398, #412 ),
 .UNSPECIFIED., .F., .F. ) 
 B_SPLINE_CURVE_WITH_KNOTS ( ( 4, 4 ),
 ( 4.712388980384689674, 6.283185307179586232 ),
 .UNSPECIFIED. ) 
 CURVE ( )  GEOMETRIC_REPRESENTATION_ITEM ( )  RATIONAL_B_SPLINE_CURVE ( ( 1.000000000000000000, 0.8047378541243649375, 0.8047378541243649375, 1.000000000000000000 ) ) 
 REPRESENTATION_ITEM ( '' )  );
#840 = CARTESIAN_POINT ( 'NONE',  ( 18.99999999999999645, 5.000000000000000000, -158.0000000000000284 ) ) ;
#841 = EDGE_CURVE ( 'NONE', #238, #895, #781, .T. ) ;
#842 = CARTESIAN_POINT ( 'NONE',  ( -0.9999999999999991118, 10.00000000000000000, 2.071231517720798276 ) ) ;
#843 = FACE_OUTER_BOUND ( 'NONE', #656, .T. ) ;
#844 = ORIENTED_EDGE ( 'NONE', *, *, #456, .F. ) ;
#845 = CARTESIAN_POINT ( 'NONE',  ( 6.000000000000022204, 0.000000000000000000, -136.9999999999999432 ) ) ;
#846 =( LENGTH_UNIT ( ) NAMED_UNIT ( * ) SI_UNIT ( .MILLI., .METRE. ) );
#847 = FACE_OUTER_BOUND ( 'NONE', #746, .T. ) ;
#848 = ORIENTED_EDGE ( 'NONE', *, *, #802, .F. ) ;
#849 = CARTESIAN_POINT ( 'NONE',  ( -5.999999999999999112, 0.000000000000000000, -153.0000000000000284 ) ) ;
#850 = DIRECTION ( 'NONE',  ( 1.000000000000000000, -0.000000000000000000, -0.000000000000000000 ) ) ;
#851 = ORIENTED_EDGE ( 'NONE', *, *, #55, .F. ) ;
#852 = AXIS2_PLACEMENT_3D ( 'NONE', #6, #220, #706 ) ;
#853 = CARTESIAN_POINT ( 'NONE',  ( 2.299910413383856156, 9.828067203938399388, 0.2154381228672994641 ) ) ;
#854 = TOROIDAL_SURFACE ( 'NONE', #527, 10.00000000000000000, 5.000000000000000000 ) ;
#855 = FACE_OUTER_BOUND ( 'NONE', #731, .T. ) ;
#856 = ORIENTED_EDGE ( 'NONE', *, *, #509, .T. ) ;
#857 = CARTESIAN_POINT ( 'NONE',  ( 14.59671237703606472, 6.088822706423823838, -153.0000000000000284 ) ) ;
#858 = AXIS2_PLACEMENT_3D ( 'NONE', #363, #415, #421 ) ;
#859 = ADVANCED_FACE ( 'NONE', ( #223 ), #792, .T. ) ;
#860 = CARTESIAN_POINT ( 'NONE',  ( 1.000000000000019096, 158.4856895461646502, 1.000000000000000000 ) ) ;
#861 = ORIENTED_EDGE ( 'NONE', *, *, #209, .T. ) ;
#862 = DIRECTION ( 'NONE',  ( -0.000000000000000000, 1.000000000000000000, 0.000000000000000000 ) ) ;
#863 = CARTESIAN_POINT ( 'NONE',  ( -2.300089187128457002, 9.828019067286392740, 0.2135210191780576028 ) ) ;
#864 = EDGE_CURVE ( 'NONE', #619, #441, #573, .T. ) ;
#865 = DIRECTION ( 'NONE',  ( -1.000000000000000000, 0.000000000000000000, -0.000000000000000000 ) ) ;
#866 = B_SPLINE_CURVE_WITH_KNOTS ( 'NONE', 3,
 ( #569, #365, #361, #370, #722, #150, #308, #420, #853, #639, #356, #633, #13, #81, #709, #303, #729, #577 ),
 .UNSPECIFIED., .F., .F.,
 ( 4, 2, 2, 2, 2, 2, 2, 2, 4 ),
 ( 0.000000000000000000, 0.0006427840007751293950, 0.001285568001550258790, 0.001928352002325388077, 0.002571136003100517580, 0.003213920003875647084, 0.003856704004650776153, 0.004499488005425905657, 0.005142272006201035160 ),
 .UNSPECIFIED. ) ;
#867 = ORIENTED_EDGE ( 'NONE', *, *, #393, .T. ) ;
#868 = LINE ( 'NONE', #857, #203 ) ;
#869 = CARTESIAN_POINT ( 'NONE',  ( 1.000000000000021760, 10.00000000000000000, -141.9999999999999716 ) ) ;
#870 = EDGE_CURVE ( 'NONE', #695, #333, #507, .T. ) ;
#871 = CARTESIAN_POINT ( 'NONE',  ( 6.000000000000016875, 7.928932188134528047, 3.928932188134525383 ) ) ;
#872 = ORIENTED_EDGE ( 'NONE', *, *, #124, .F. ) ;
#873 = CARTESIAN_POINT ( 'NONE',  ( 0.000000000000000000, 10.00000000000000000, 0.000000000000000000 ) ) ;
#874 = CIRCLE ( 'NONE', #36, 5.000000000000004441 ) ;
#875 = DIRECTION ( 'NONE',  ( 0.000000000000000000, 1.000000000000000000, -0.000000000000000000 ) ) ;
#876 = COLOUR_RGB ( '',0.7921568627450980005, 0.8196078431372548767, 0.9333333333333333481 ) ;
#877 = ORIENTED_EDGE ( 'NONE', *, *, #635, .F. ) ;
#878 = DIRECTION ( 'NONE',  ( 1.000000000000000000, 0.000000000000000000, 0.000000000000000000 ) ) ;
#879 = PLANE ( 'NONE',  #357 ) ;
#880 = VECTOR ( 'NONE', #133, 1000.000000000000000 ) ;
#881 = DIRECTION ( 'NONE',  ( 0.000000000000000000, 1.000000000000000000, 0.000000000000000000 ) ) ;
#882 = ORIENTED_EDGE ( 'NONE', *, *, #489, .F. ) ;
#883 = PLANE ( 'NONE',  #618 ) ;
#884 = CARTESIAN_POINT ( 'NONE',  ( -1.000000000000000000, 10.00000000000000000, 0.000000000000000000 ) ) ;
#885 = ORIENTED_EDGE ( 'NONE', *, *, #727, .T. ) ;
#886 = CARTESIAN_POINT ( 'NONE',  ( 12.96521724999352543, 0.000000000000000000, 0.000000000000000000 ) ) ;
#887 = EDGE_CURVE ( 'NONE', #614, #333, #652, .T. ) ;
#888 = DIRECTION ( 'NONE',  ( -0.8660254037844385966, -0.5000000000000001110, 0.000000000000000000 ) ) ;
#889 = EDGE_CURVE ( 'NONE', #441, #712, #585, .T. ) ;
#890 = ORIENTED_EDGE ( 'NONE', *, *, #727, .F. ) ;
#891 = ORIENTED_EDGE ( 'NONE', *, *, #424, .F. ) ;
#892 = CARTESIAN_POINT ( 'NONE',  ( 18.99999999999999645, 0.000000000000000000, -153.0000000000000284 ) ) ;
#893 = CARTESIAN_POINT ( 'NONE',  ( 6.000000000000022204, 5.000000000000000000, -141.9999999999999716 ) ) ;
#894 = ORIENTED_EDGE ( 'NONE', *, *, #905, .T. ) ;
#895 = VERTEX_POINT ( 'NONE', #663 ) ;
#896 = DIRECTION ( 'NONE',  ( 0.000000000000000000, 0.000000000000000000, -1.000000000000000000 ) ) ;
#897 = LINE ( 'NONE', #269, #725 ) ;
#898 = ADVANCED_FACE ( 'NONE', ( #312 ), #670, .F. ) ;
#899 = ORIENTED_EDGE ( 'NONE', *, *, #393, .F. ) ;
#900 = LINE ( 'NONE', #273, #880 ) ;
#901 = VECTOR ( 'NONE', #436, 1000.000000000000000 ) ;
#902 = CARTESIAN_POINT ( 'NONE',  ( 1.000000000000019096, 0.000000000000000000, 6.000000000000000000 ) ) ;
#903 = AXIS2_PLACEMENT_3D ( 'NONE', #313, #39, #416 ) ;
#904 = ORIENTED_EDGE ( 'NONE', *, *, #263, .T. ) ;
#905 = EDGE_CURVE ( 'NONE', #487, #720, #625, .T. ) ;
#906 = CARTESIAN_POINT ( 'NONE',  ( -5.999999999999999112, 5.000000000000000000, 1.000000000000000000 ) ) ;
#907 = CARTESIAN_POINT ( 'NONE',  ( 1.000000000000019096, 0.000000000000000000, 1.000000000000000000 ) ) ;
#908 = ORIENTED_EDGE ( 'NONE', *, *, #18, .T. ) ;
#909 = VECTOR ( 'NONE', #488, 1000.000000000000000 ) ;
#910 = FACE_OUTER_BOUND ( 'NONE', #119, .T. ) ;
#911 = DIRECTION ( 'NONE',  ( 0.000000000000000000, -1.000000000000000000, 0.000000000000000000 ) ) ;
#912 = DIRECTION ( 'NONE',  ( -0.000000000000000000, 1.000000000000000000, -0.000000000000000000 ) ) ;
ENDSEC;
END-ISO-10303-21;
