ISO-10303-21;
HEADER;
FILE_DESCRIPTION (( 'STEP AP214' ),
    '1' );
FILE_NAME ('MotorClamp.STEP',
    '2025-07-12T03:19:03',
    ( '' ),
    ( '' ),
    'SwSTEP 2.0',
    'SolidWorks 2023',
    '' );
FILE_SCHEMA (( 'AUTOMOTIVE_DESIGN' ));
ENDSEC;

DATA;
#1 = CARTESIAN_POINT ( 'NONE',  ( 0.8326771653543312279, -0.1476377952755905387, 0.5905511811023621549 ) ) ;
#2 = EDGE_CURVE ( 'NONE', #521, #273, #211, .T. ) ;
#3 = VERTEX_POINT ( 'NONE', #382 ) ;
#4 = CIRCLE ( 'NONE', #354, 0.03249999999999999417 ) ;
#5 = VECTOR ( 'NONE', #202, 39.37007874015748143 ) ;
#6 = CARTESIAN_POINT ( 'NONE',  ( -0.6552782197044665358, 1.020082521905393946, 0.000000000000000000 ) ) ;
#7 = ORIENTED_EDGE ( 'NONE', *, *, #340, .T. ) ;
#8 = EDGE_CURVE ( 'NONE', #408, #41, #396, .T. ) ;
#9 = DIRECTION ( 'NONE',  ( 0.000000000000000000, -0.000000000000000000, 1.000000000000000000 ) ) ;
#10 = ORIENTED_EDGE ( 'NONE', *, *, #219, .F. ) ;
#11 = DIRECTION ( 'NONE',  ( 1.000000000000000000, 0.000000000000000000, 0.000000000000000000 ) ) ;
#12 = CLOSED_SHELL ( 'NONE', ( #470, #162, #560, #486, #25, #203, #449, #284, #304, #430, #252, #348, #117, #406, #439, #325, #511 ) ) ;
#13 = FACE_OUTER_BOUND ( 'NONE', #565, .T. ) ;
#14 = AXIS2_PLACEMENT_3D ( 'NONE', #311, #356, #507 ) ;
#15 = ORIENTED_EDGE ( 'NONE', *, *, #416, .T. ) ;
#16 = PRESENTATION_STYLE_ASSIGNMENT (( #61 ) ) ;
#17 = CARTESIAN_POINT ( 'NONE',  ( -0.8326771653543313390, 0.8124015725500000062, 0.5905511811023621549 ) ) ;
#18 = EDGE_CURVE ( 'NONE', #22, #549, #333, .T. ) ;
#19 = ORIENTED_EDGE ( 'NONE', *, *, #497, .T. ) ;
#20 = DIRECTION ( 'NONE',  ( -1.000000000000000000, 0.000000000000000000, 0.000000000000000000 ) ) ;
#21 = CARTESIAN_POINT ( 'NONE',  ( 0.000000000000000000, 1.062401572550000006, 0.5905511811023621549 ) ) ;
#22 = VERTEX_POINT ( 'NONE', #171 ) ;
#23 = DIRECTION ( 'NONE',  ( -1.000000000000000000, 0.000000000000000000, 0.000000000000000000 ) ) ;
#24 = ORIENTED_EDGE ( 'NONE', *, *, #366, .F. ) ;
#25 = ADVANCED_FACE ( 'NONE', ( #71 ), #428, .T. ) ;
#26 = CARTESIAN_POINT ( 'NONE',  ( 0.000000000000000000, 1.062401572550000006, 0.5905511811023621549 ) ) ;
#27 = EDGE_LOOP ( 'NONE', ( #376, #88, #10, #358 ) ) ;
#28 = CARTESIAN_POINT ( 'NONE',  ( 0.8326771653543313390, 0.8124015725500000062, 0.5905511811023621549 ) ) ;
#29 = ORIENTED_EDGE ( 'NONE', *, *, #291, .T. ) ;
#30 = FACE_OUTER_BOUND ( 'NONE', #302, .T. ) ;
#31 = DIRECTION ( 'NONE',  ( 0.000000000000000000, -0.000000000000000000, -1.000000000000000000 ) ) ;
#32 = VECTOR ( 'NONE', #481, 39.37007874015748143 ) ;
#33 = VECTOR ( 'NONE', #208, 39.37007874015748143 ) ;
#34 = DIRECTION ( 'NONE',  ( 1.000000000000000000, 0.000000000000000000, 0.000000000000000000 ) ) ;
#35 = EDGE_CURVE ( 'NONE', #369, #152, #429, .T. ) ;
#36 = ORIENTED_EDGE ( 'NONE', *, *, #153, .T. ) ;
#37 = CARTESIAN_POINT ( 'NONE',  ( 0.7700501580770521270, 1.029901572549999811, 0.5905511811023621549 ) ) ;
#38 = EDGE_CURVE ( 'NONE', #576, #508, #338, .T. ) ;
#39 = AXIS2_PLACEMENT_3D ( 'NONE', #144, #282, #23 ) ;
#40 = FACE_OUTER_BOUND ( 'NONE', #513, .T. ) ;
#41 = VERTEX_POINT ( 'NONE', #120 ) ;
#42 = DIRECTION ( 'NONE',  ( -0.000000000000000000, -0.000000000000000000, 1.000000000000000000 ) ) ;
#43 = ORIENTED_EDGE ( 'NONE', *, *, #210, .T. ) ;
#44 = CARTESIAN_POINT ( 'NONE',  ( -0.8013265193893898131, 1.038735553705747883, 0.000000000000000000 ) ) ;
#45 = EDGE_CURVE ( 'NONE', #521, #503, #229, .T. ) ;
#46 = VERTEX_POINT ( 'NONE', #242 ) ;
#47 = CARTESIAN_POINT ( 'NONE',  ( 0.6862594437674156556, 1.029901572549999811, 0.5905511811023621549 ) ) ;
#48 = CARTESIAN_POINT ( 'NONE',  ( -0.8326771653543312279, -0.1476377952755905387, 0.5905511811023621549 ) ) ;
#49 = ORIENTED_EDGE ( 'NONE', *, *, #523, .F. ) ;
#50 = PLANE ( 'NONE',  #386 ) ;
#51 = PLANE ( 'NONE',  #263 ) ;
#52 = FACE_OUTER_BOUND ( 'NONE', #463, .T. ) ;
#53 = PRODUCT_DEFINITION_CONTEXT ( 'detailed design', #76, 'design' ) ;
#54 = ORIENTED_EDGE ( 'NONE', *, *, #541, .T. ) ;
#55 = CARTESIAN_POINT ( 'NONE',  ( 0.8013265193893898131, 1.038735553705747883, 0.5905511811023621549 ) ) ;
#56 = EDGE_CURVE ( 'NONE', #258, #306, #289, .T. ) ;
#57 = CARTESIAN_POINT ( 'NONE',  ( -0.8326771653543313390, 0.8124015725500000062, 0.000000000000000000 ) ) ;
#58 = ORIENTED_EDGE ( 'NONE', *, *, #104, .F. ) ;
#59 = DIRECTION ( 'NONE',  ( 1.000000000000000000, 0.000000000000000000, 0.000000000000000000 ) ) ;
#60 = ORIENTED_EDGE ( 'NONE', *, *, #233, .T. ) ;
#61 = SURFACE_STYLE_USAGE ( .BOTH. , #280 ) ;
#62 = ORIENTED_EDGE ( 'NONE', *, *, #104, .T. ) ;
#63 = EDGE_CURVE ( 'NONE', #418, #227, #420, .T. ) ;
#64 = DIRECTION ( 'NONE',  ( -0.000000000000000000, -0.000000000000000000, -1.000000000000000000 ) ) ;
#65 = ORIENTED_EDGE ( 'NONE', *, *, #18, .F. ) ;
#66 = AXIS2_PLACEMENT_3D ( 'NONE', #537, #218, #391 ) ;
#67 = VECTOR ( 'NONE', #524, 39.37007874015748143 ) ;
#68 = DIRECTION ( 'NONE',  ( -0.000000000000000000, 0.000000000000000000, 1.000000000000000000 ) ) ;
#69 = ORIENTED_EDGE ( 'NONE', *, *, #153, .F. ) ;
#70 = APPLICATION_PROTOCOL_DEFINITION ( 'draft international standard', 'automotive_design', 1998, #76 ) ;
#71 = FACE_OUTER_BOUND ( 'NONE', #235, .T. ) ;
#72 = EDGE_CURVE ( 'NONE', #412, #258, #562, .T. ) ;
#73 = CARTESIAN_POINT ( 'NONE',  ( 0.000000000000000000, -0.1476377952755905387, 0.000000000000000000 ) ) ;
#74 = AXIS2_PLACEMENT_3D ( 'NONE', #21, #145, #226 ) ;
#75 = CIRCLE ( 'NONE', #409, 0.03249999999999999417 ) ;
#76 = APPLICATION_CONTEXT ( 'automotive_design' ) ;
#77 = DIRECTION ( 'NONE',  ( 1.000000000000000000, 0.000000000000000000, 0.000000000000000000 ) ) ;
#78 = DIRECTION ( 'NONE',  ( -1.000000000000000000, 0.000000000000000000, 0.000000000000000000 ) ) ;
#79 = DIRECTION ( 'NONE',  ( 1.000000000000000000, 0.000000000000000000, 0.000000000000000000 ) ) ;
#80 = EDGE_CURVE ( 'NONE', #227, #576, #187, .T. ) ;
#81 = CARTESIAN_POINT ( 'NONE',  ( -0.8326771653543312279, -1.400014180427546174E-16, 0.5905511811023621549 ) ) ;
#82 = DIRECTION ( 'NONE',  ( 0.000000000000000000, 1.000000000000000000, 0.000000000000000000 ) ) ;
#83 = EDGE_LOOP ( 'NONE', ( #283, #266, #107, #60 ) ) ;
#84 = AXIS2_PLACEMENT_3D ( 'NONE', #253, #440, #142 ) ;
#85 = AXIS2_PLACEMENT_3D ( 'NONE', #550, #188, #316 ) ;
#86 = VECTOR ( 'NONE', #124, 39.37007874015748143 ) ;
#87 = CARTESIAN_POINT ( 'NONE',  ( 0.6537594437674156822, 1.029901572549999811, 0.000000000000000000 ) ) ;
#88 = ORIENTED_EDGE ( 'NONE', *, *, #210, .F. ) ;
#89 = CARTESIAN_POINT ( 'NONE',  ( -0.8326771653543312279, -1.400014180427546174E-16, 0.5905511811023621549 ) ) ;
#90 = LINE ( 'NONE', #436, #344 ) ;
#91 = VERTEX_POINT ( 'NONE', #431 ) ;
#92 = CARTESIAN_POINT ( 'NONE',  ( -0.6552782197044665358, 1.020082521905393946, 0.5905511811023621549 ) ) ;
#93 = PRODUCT ( 'MotorClamp', 'MotorClamp', '', ( #527 ) ) ;
#94 = CYLINDRICAL_SURFACE ( 'NONE', #274, 0.6874015725499998952 ) ;
#95 = ORIENTED_EDGE ( 'NONE', *, *, #114, .F. ) ;
#96 = VECTOR ( 'NONE', #79, 39.37007874015748143 ) ;
#97 = DIRECTION ( 'NONE',  ( -0.000000000000000000, -0.000000000000000000, -1.000000000000000000 ) ) ;
#98 = AXIS2_PLACEMENT_3D ( 'NONE', #417, #462, #20 ) ;
#99 = VECTOR ( 'NONE', #479, 39.37007874015748143 ) ;
#100 = CARTESIAN_POINT ( 'NONE',  ( 0.000000000000000000, -0.1476377952755905387, 0.5905511811023621549 ) ) ;
#101 = ORIENTED_EDGE ( 'NONE', *, *, #114, .T. ) ;
#102 = CARTESIAN_POINT ( 'NONE',  ( -0.6874015725499998952, 0.8124015725500000062, 0.5905511811023621549 ) ) ;
#103 = ORIENTED_EDGE ( 'NONE', *, *, #256, .T. ) ;
#104 = EDGE_CURVE ( 'NONE', #441, #286, #329, .T. ) ;
#105 = LENGTH_MEASURE_WITH_UNIT ( LENGTH_MEASURE( 0.02539999999999999897 ), #313 );
#106 = CARTESIAN_POINT ( 'NONE',  ( 0.8326771653543312279, -0.1476377952755905387, 0.000000000000000000 ) ) ;
#107 = ORIENTED_EDGE ( 'NONE', *, *, #38, .F. ) ;
#108 = EDGE_CURVE ( 'NONE', #152, #22, #494, .T. ) ;
#109 = LINE ( 'NONE', #423, #172 ) ;
#110 = VECTOR ( 'NONE', #136, 39.37007874015748143 ) ;
#111 = LINE ( 'NONE', #186, #292 ) ;
#112 = ORIENTED_EDGE ( 'NONE', *, *, #169, .F. ) ;
#113 = DIRECTION ( 'NONE',  ( -1.681340906991000080E-16, -1.000000000000000000, 0.000000000000000000 ) ) ;
#114 = EDGE_CURVE ( 'NONE', #137, #369, #155, .T. ) ;
#115 = ORIENTED_EDGE ( 'NONE', *, *, #56, .T. ) ;
#116 =( NAMED_UNIT ( * ) PLANE_ANGLE_UNIT ( ) SI_UNIT ( $, .RADIAN. ) );
#117 = ADVANCED_FACE ( 'NONE', ( #572 ), #394, .F. ) ;
#118 = ORIENTED_EDGE ( 'NONE', *, *, #138, .T. ) ;
#119 = CARTESIAN_POINT ( 'NONE',  ( -0.6862594437674156556, 1.029901572549999811, 0.5905511811023621549 ) ) ;
#120 = CARTESIAN_POINT ( 'NONE',  ( -0.6862594437674156556, 1.062401572550000006, 0.5905511811023621549 ) ) ;
#121 = AXIS2_PLACEMENT_3D ( 'NONE', #548, #404, #11 ) ;
#122 = DIRECTION ( 'NONE',  ( -0.000000000000000000, -0.000000000000000000, -1.000000000000000000 ) ) ;
#123 = ORIENTED_EDGE ( 'NONE', *, *, #357, .T. ) ;
#124 = DIRECTION ( 'NONE',  ( 1.000000000000000000, 0.000000000000000000, 0.000000000000000000 ) ) ;
#125 = LINE ( 'NONE', #166, #321 ) ;
#126 = VECTOR ( 'NONE', #222, 39.37007874015748143 ) ;
#127 = VERTEX_POINT ( 'NONE', #307 ) ;
#128 = EDGE_CURVE ( 'NONE', #3, #273, #475, .T. ) ;
#129 = DIRECTION ( 'NONE',  ( 1.000000000000000000, 1.260852920152737113E-14, 0.000000000000000000 ) ) ;
#130 = FACE_OUTER_BOUND ( 'NONE', #83, .T. ) ;
#131 = PRODUCT_DEFINITION ( 'UNKNOWN', '', #571, #53 ) ;
#132 = CARTESIAN_POINT ( 'NONE',  ( 0.6537594437674156822, 1.029901572549999811, 0.5905511811023621549 ) ) ;
#133 = ORIENTED_EDGE ( 'NONE', *, *, #276, .F. ) ;
#134 = CIRCLE ( 'NONE', #337, 0.8326771653543313390 ) ;
#135 = CARTESIAN_POINT ( 'NONE',  ( 0.7700501580770521270, 1.029901572549999811, 0.5905511811023621549 ) ) ;
#136 = DIRECTION ( 'NONE',  ( 0.000000000000000000, 0.000000000000000000, -1.000000000000000000 ) ) ;
#137 = VERTEX_POINT ( 'NONE', #389 ) ;
#138 = EDGE_CURVE ( 'NONE', #217, #405, #542, .T. ) ;
#139 = CARTESIAN_POINT ( 'NONE',  ( 0.000000000000000000, 0.8124015725500000062, 0.5905511811023621549 ) ) ;
#140 = ORIENTED_EDGE ( 'NONE', *, *, #502, .F. ) ;
#141 = FACE_OUTER_BOUND ( 'NONE', #209, .T. ) ;
#142 = DIRECTION ( 'NONE',  ( 1.000000000000000000, 0.000000000000000000, 0.000000000000000000 ) ) ;
#143 = ORIENTED_EDGE ( 'NONE', *, *, #185, .F. ) ;
#144 = CARTESIAN_POINT ( 'NONE',  ( -0.7700501580770521270, 1.029901572549999811, 0.5905511811023621549 ) ) ;
#145 = DIRECTION ( 'NONE',  ( 0.000000000000000000, 1.000000000000000000, 0.000000000000000000 ) ) ;
#146 = EDGE_CURVE ( 'NONE', #158, #217, #496, .T. ) ;
#147 = ORIENTED_EDGE ( 'NONE', *, *, #517, .T. ) ;
#148 = CARTESIAN_POINT ( 'NONE',  ( 0.7700501580770521270, 1.062401572550000006, 0.000000000000000000 ) ) ;
#149 = CARTESIAN_POINT ( 'NONE',  ( -0.8013265193893898131, 1.038735553705747883, 0.5905511811023621549 ) ) ;
#150 = ORIENTED_EDGE ( 'NONE', *, *, #459, .F. ) ;
#151 = DIRECTION ( 'NONE',  ( 1.000000000000000000, 0.000000000000000000, 0.000000000000000000 ) ) ;
#152 = VERTEX_POINT ( 'NONE', #44 ) ;
#153 = EDGE_CURVE ( 'NONE', #152, #312, #374, .T. ) ;
#154 = DIRECTION ( 'NONE',  ( -1.000000000000000000, 1.681340906991000080E-16, 0.000000000000000000 ) ) ;
#155 = CIRCLE ( 'NONE', #84, 0.03249999999999999417 ) ;
#156 = CARTESIAN_POINT ( 'NONE',  ( 0.6862594437674156556, 1.029901572549999811, 0.5905511811023621549 ) ) ;
#157 = ORIENTED_EDGE ( 'NONE', *, *, #377, .F. ) ;
#158 = VERTEX_POINT ( 'NONE', #48 ) ;
#159 = DIRECTION ( 'NONE',  ( 0.000000000000000000, 0.000000000000000000, 1.000000000000000000 ) ) ;
#160 = CARTESIAN_POINT ( 'NONE',  ( -0.7700501580770521270, 1.029901572549999811, 0.000000000000000000 ) ) ;
#161 = DIRECTION ( 'NONE',  ( -0.000000000000000000, 0.000000000000000000, 1.000000000000000000 ) ) ;
#162 = ADVANCED_FACE ( 'NONE', ( #40 ), #94, .F. ) ;
#163 = AXIS2_PLACEMENT_3D ( 'NONE', #554, #154, #113 ) ;
#164 = LENGTH_MEASURE_WITH_UNIT ( LENGTH_MEASURE( 0.02539999999999999897 ), #339 );
#165 = CARTESIAN_POINT ( 'NONE',  ( 0.000000000000000000, 0.8124015725500000062, 0.5905511811023621549 ) ) ;
#166 = CARTESIAN_POINT ( 'NONE',  ( 0.6552782197044666468, 1.020082521905393946, 0.5905511811023621549 ) ) ;
#167 = ORIENTED_EDGE ( 'NONE', *, *, #219, .T. ) ;
#168 = SHAPE_DEFINITION_REPRESENTATION ( #469, #573 ) ;
#169 = EDGE_CURVE ( 'NONE', #217, #258, #241, .T. ) ;
#170 = CIRCLE ( 'NONE', #442, 0.03249999999999999417 ) ;
#171 = CARTESIAN_POINT ( 'NONE',  ( -0.7700501580770521270, 1.062401572550000006, 0.000000000000000000 ) ) ;
#172 = VECTOR ( 'NONE', #159, 39.37007874015748143 ) ;
#173 = AXIS2_PLACEMENT_3D ( 'NONE', #425, #31, #129 ) ;
#174 = DIRECTION ( 'NONE',  ( 1.000000000000000000, 0.000000000000000000, 0.000000000000000000 ) ) ;
#175 = DIRECTION ( 'NONE',  ( -1.000000000000000000, 0.000000000000000000, 0.000000000000000000 ) ) ;
#176 = VERTEX_POINT ( 'NONE', #6 ) ;
#177 = PLANE ( 'NONE',  #419 ) ;
#178 = ORIENTED_EDGE ( 'NONE', *, *, #397, .F. ) ;
#179 = VECTOR ( 'NONE', #212, 39.37007874015748143 ) ;
#180 = CARTESIAN_POINT ( 'NONE',  ( -0.6862594437674156556, 1.062401572550000006, 0.5905511811023621549 ) ) ;
#181 = EDGE_LOOP ( 'NONE', ( #539, #255, #364, #353 ) ) ;
#182 = DIRECTION ( 'NONE',  ( -0.000000000000000000, 0.000000000000000000, 1.000000000000000000 ) ) ;
#183 = ORIENTED_EDGE ( 'NONE', *, *, #256, .F. ) ;
#184 = FACE_OUTER_BOUND ( 'NONE', #569, .T. ) ;
#185 = EDGE_CURVE ( 'NONE', #91, #227, #216, .T. ) ;
#186 = CARTESIAN_POINT ( 'NONE',  ( 0.000000000000000000, 1.062401572550000006, 0.5905511811023621549 ) ) ;
#187 = CIRCLE ( 'NONE', #563, 0.03249999999999999417 ) ;
#188 = DIRECTION ( 'NONE',  ( -0.000000000000000000, -0.000000000000000000, -1.000000000000000000 ) ) ;
#189 = PLANE ( 'NONE',  #14 ) ;
#190 = ORIENTED_EDGE ( 'NONE', *, *, #138, .F. ) ;
#191 = DIRECTION ( 'NONE',  ( 1.000000000000000000, 0.000000000000000000, 0.000000000000000000 ) ) ;
#192 = ORIENTED_EDGE ( 'NONE', *, *, #340, .F. ) ;
#193 = FACE_OUTER_BOUND ( 'NONE', #181, .T. ) ;
#194 = DIRECTION ( 'NONE',  ( -0.000000000000000000, 0.000000000000000000, 1.000000000000000000 ) ) ;
#195 = ORIENTED_EDGE ( 'NONE', *, *, #397, .T. ) ;
#196 = CYLINDRICAL_SURFACE ( 'NONE', #85, 0.03249999999999999417 ) ;
#197 =( GEOMETRIC_REPRESENTATION_CONTEXT ( 3 ) GLOBAL_UNCERTAINTY_ASSIGNED_CONTEXT ( ( #254 ) ) GLOBAL_UNIT_ASSIGNED_CONTEXT ( ( #373, #381, #564 ) ) REPRESENTATION_CONTEXT ( 'NONE', 'WORKASPACE' ) );
#198 = AXIS2_PLACEMENT_3D ( 'NONE', #165, #474, #206 ) ;
#199 = ORIENTED_EDGE ( 'NONE', *, *, #497, .F. ) ;
#200 = DIRECTION ( 'NONE',  ( 1.000000000000000000, 0.000000000000000000, 0.000000000000000000 ) ) ;
#201 = ORIENTED_EDGE ( 'NONE', *, *, #531, .F. ) ;
#202 = DIRECTION ( 'NONE',  ( -0.000000000000000000, -0.000000000000000000, -1.000000000000000000 ) ) ;
#203 = ADVANCED_FACE ( 'NONE', ( #130 ), #177, .T. ) ;
#204 = CARTESIAN_POINT ( 'NONE',  ( -0.000000000000000000, 1.062401572550000006, 0.000000000000000000 ) ) ;
#205 = CIRCLE ( 'NONE', #534, 0.8326771653543313390 ) ;
#206 = DIRECTION ( 'NONE',  ( -1.000000000000000000, 0.000000000000000000, 0.000000000000000000 ) ) ;
#207 =( GEOMETRIC_REPRESENTATION_CONTEXT ( 3 ) GLOBAL_UNCERTAINTY_ASSIGNED_CONTEXT ( ( #269 ) ) GLOBAL_UNIT_ASSIGNED_CONTEXT ( ( #324, #116, #410 ) ) REPRESENTATION_CONTEXT ( 'NONE', 'WORKASPACE' ) );
#208 = DIRECTION ( 'NONE',  ( -0.000000000000000000, -0.000000000000000000, -1.000000000000000000 ) ) ;
#209 = EDGE_LOOP ( 'NONE', ( #58, #556, #547, #437 ) ) ;
#210 = EDGE_CURVE ( 'NONE', #176, #408, #305, .T. ) ;
#211 = LINE ( 'NONE', #472, #214 ) ;
#212 = DIRECTION ( 'NONE',  ( -0.000000000000000000, -0.000000000000000000, -1.000000000000000000 ) ) ;
#213 = DIRECTION ( 'NONE',  ( -0.000000000000000000, 0.000000000000000000, 1.000000000000000000 ) ) ;
#214 = VECTOR ( 'NONE', #380, 39.37007874015748143 ) ;
#215 = STYLED_ITEM ( 'NONE', ( #16 ), #490 ) ;
#216 = LINE ( 'NONE', #132, #32 ) ;
#217 = VERTEX_POINT ( 'NONE', #1 ) ;
#218 = DIRECTION ( 'NONE',  ( -0.000000000000000000, 0.000000000000000000, 1.000000000000000000 ) ) ;
#219 = EDGE_CURVE ( 'NONE', #549, #176, #170, .T. ) ;
#220 = LINE ( 'NONE', #180, #110 ) ;
#221 = CARTESIAN_POINT ( 'NONE',  ( 0.000000000000000000, 0.8124015725500000062, 0.000000000000000000 ) ) ;
#222 = DIRECTION ( 'NONE',  ( 1.681340906991000080E-16, 1.000000000000000000, 0.000000000000000000 ) ) ;
#223 = ORIENTED_EDGE ( 'NONE', *, *, #574, .T. ) ;
#224 = DIRECTION ( 'NONE',  ( -0.000000000000000000, 0.000000000000000000, 1.000000000000000000 ) ) ;
#225 = ORIENTED_EDGE ( 'NONE', *, *, #523, .T. ) ;
#226 = DIRECTION ( 'NONE',  ( 0.000000000000000000, -0.000000000000000000, 1.000000000000000000 ) ) ;
#227 = VERTEX_POINT ( 'NONE', #87 ) ;
#228 = CARTESIAN_POINT ( 'NONE',  ( -0.6874015725499998952, 0.8124015725500000062, 0.5905511811023621549 ) ) ;
#229 = CIRCLE ( 'NONE', #457, 0.6874015725499998952 ) ;
#230 = DIRECTION ( 'NONE',  ( -0.000000000000000000, -0.000000000000000000, -1.000000000000000000 ) ) ;
#231 = ORIENTED_EDGE ( 'NONE', *, *, #146, .T. ) ;
#232 = CARTESIAN_POINT ( 'NONE',  ( -0.8326771653543312279, -0.1476377952755905387, 0.5905511811023621549 ) ) ;
#233 = EDGE_CURVE ( 'NONE', #576, #46, #90, .T. ) ;
#234 = ORIENTED_EDGE ( 'NONE', *, *, #531, .T. ) ;
#235 = EDGE_LOOP ( 'NONE', ( #103, #500, #299, #234 ) ) ;
#236 = FACE_OUTER_BOUND ( 'NONE', #251, .T. ) ;
#237 = CIRCLE ( 'NONE', #385, 0.8326771653543313390 ) ;
#238 = ORIENTED_EDGE ( 'NONE', *, *, #2, .F. ) ;
#239 = EDGE_CURVE ( 'NONE', #41, #549, #220, .T. ) ;
#240 = DIRECTION ( 'NONE',  ( 1.000000000000000000, 0.000000000000000000, 0.000000000000000000 ) ) ;
#241 = LINE ( 'NONE', #528, #335 ) ;
#242 = CARTESIAN_POINT ( 'NONE',  ( 0.6862594437674156556, 1.062401572550000006, 0.5905511811023621549 ) ) ;
#243 = CARTESIAN_POINT ( 'NONE',  ( 0.6862594437674156556, 1.062401572550000006, 0.000000000000000000 ) ) ;
#244 = EDGE_CURVE ( 'NONE', #91, #503, #4, .T. ) ;
#245 = CARTESIAN_POINT ( 'NONE',  ( 0.6862594437674156556, 1.029901572549999811, 0.000000000000000000 ) ) ;
#246 = CARTESIAN_POINT ( 'NONE',  ( 0.000000000000000000, 0.8124015725500000062, 0.5905511811023621549 ) ) ;
#247 = ORIENTED_EDGE ( 'NONE', *, *, #45, .T. ) ;
#248 = DIRECTION ( 'NONE',  ( 0.000000000000000000, -0.000000000000000000, -1.000000000000000000 ) ) ;
#249 = LINE ( 'NONE', #519, #5 ) ;
#250 = CARTESIAN_POINT ( 'NONE',  ( -0.6552782197044666468, 1.020082521905393946, 0.5905511811023621549 ) ) ;
#251 = EDGE_LOOP ( 'NONE', ( #115, #201, #190, #434 ) ) ;
#252 = ADVANCED_FACE ( 'NONE', ( #488 ), #51, .F. ) ;
#253 = CARTESIAN_POINT ( 'NONE',  ( -0.7700501580770521270, 1.029901572549999811, 0.5905511811023621549 ) ) ;
#254 = UNCERTAINTY_MEASURE_WITH_UNIT (LENGTH_MEASURE( 1.000000000000000082E-05 ), #373, 'distance_accuracy_value', 'NONE');
#255 = ORIENTED_EDGE ( 'NONE', *, *, #185, .T. ) ;
#256 = EDGE_CURVE ( 'NONE', #306, #127, #237, .T. ) ;
#257 = DIRECTION ( 'NONE',  ( 1.000000000000000000, 0.000000000000000000, 0.000000000000000000 ) ) ;
#258 = VERTEX_POINT ( 'NONE', #106 ) ;
#259 = CARTESIAN_POINT ( 'NONE',  ( 0.6552782197044665358, 1.020082521905393946, 0.000000000000000000 ) ) ;
#260 = DIRECTION ( 'NONE',  ( 1.000000000000000000, 0.000000000000000000, 0.000000000000000000 ) ) ;
#261 = EDGE_CURVE ( 'NONE', #405, #441, #205, .T. ) ;
#262 = VERTEX_POINT ( 'NONE', #102 ) ;
#263 = AXIS2_PLACEMENT_3D ( 'NONE', #100, #538, #9 ) ;
#264 = DIRECTION ( 'NONE',  ( -1.000000000000000000, 0.000000000000000000, 0.000000000000000000 ) ) ;
#265 = DIRECTION ( 'NONE',  ( -0.000000000000000000, 0.000000000000000000, 1.000000000000000000 ) ) ;
#266 = ORIENTED_EDGE ( 'NONE', *, *, #553, .T. ) ;
#267 = CARTESIAN_POINT ( 'NONE',  ( 0.7700501580770521270, 1.029901572549999811, 0.000000000000000000 ) ) ;
#268 = CARTESIAN_POINT ( 'NONE',  ( 0.000000000000000000, 0.8124015725500000062, 0.5905511811023621549 ) ) ;
#269 = UNCERTAINTY_MEASURE_WITH_UNIT (LENGTH_MEASURE( 1.000000000000000082E-05 ), #324, 'distance_accuracy_value', 'NONE');
#270 = ORIENTED_EDGE ( 'NONE', *, *, #541, .F. ) ;
#271 = LINE ( 'NONE', #294, #33 ) ;
#272 = DIRECTION ( 'NONE',  ( -0.000000000000000000, -0.000000000000000000, -1.000000000000000000 ) ) ;
#273 = VERTEX_POINT ( 'NONE', #551 ) ;
#274 = AXIS2_PLACEMENT_3D ( 'NONE', #139, #341, #175 ) ;
#275 = PLANE ( 'NONE',  #163 ) ;
#276 = EDGE_CURVE ( 'NONE', #158, #412, #451, .T. ) ;
#277 = CIRCLE ( 'NONE', #498, 0.6874015725499998952 ) ;
#278 = CARTESIAN_POINT ( 'NONE',  ( 0.000000000000000000, 0.8124015725500000062, 0.000000000000000000 ) ) ;
#279 = ORIENTED_EDGE ( 'NONE', *, *, #239, .T. ) ;
#280 = SURFACE_SIDE_STYLE ('',( #458 ) ) ;
#281 = ORIENTED_EDGE ( 'NONE', *, *, #384, .T. ) ;
#282 = DIRECTION ( 'NONE',  ( -0.000000000000000000, -0.000000000000000000, -1.000000000000000000 ) ) ;
#283 = ORIENTED_EDGE ( 'NONE', *, *, #366, .T. ) ;
#284 = ADVANCED_FACE ( 'NONE', ( #52 ), #512, .T. ) ;
#285 = DIRECTION ( 'NONE',  ( -0.000000000000000000, -0.000000000000000000, -1.000000000000000000 ) ) ;
#286 = VERTEX_POINT ( 'NONE', #314 ) ;
#287 = ORIENTED_EDGE ( 'NONE', *, *, #276, .T. ) ;
#288 = APPLICATION_CONTEXT ( 'automotive_design' ) ;
#289 = LINE ( 'NONE', #526, #99 ) ;
#290 = AXIS2_PLACEMENT_3D ( 'NONE', #221, #182, #260 ) ;
#291 = EDGE_CURVE ( 'NONE', #176, #3, #365, .T. ) ;
#292 = VECTOR ( 'NONE', #352, 39.37007874015748143 ) ;
#293 = CARTESIAN_POINT ( 'NONE',  ( 0.000000000000000000, 0.8124015725500000062, 0.5905511811023621549 ) ) ;
#294 = CARTESIAN_POINT ( 'NONE',  ( -0.8326771653543313390, 0.8124015725500000062, 0.5905511811023621549 ) ) ;
#295 = CARTESIAN_POINT ( 'NONE',  ( -0.000000000000000000, 1.062401572550000006, 0.000000000000000000 ) ) ;
#296 = CARTESIAN_POINT ( 'NONE',  ( 0.000000000000000000, 0.000000000000000000, 0.000000000000000000 ) ) ;
#297 = VECTOR ( 'NONE', #174, 39.37007874015748143 ) ;
#298 = DIRECTION ( 'NONE',  ( 0.000000000000000000, -0.000000000000000000, 1.000000000000000000 ) ) ;
#299 = ORIENTED_EDGE ( 'NONE', *, *, #261, .F. ) ;
#300 = CARTESIAN_POINT ( 'NONE',  ( -0.8326771653543312279, -0.1476377952755905387, 0.000000000000000000 ) ) ;
#301 = DIRECTION ( 'NONE',  ( -0.000000000000000000, 0.000000000000000000, 1.000000000000000000 ) ) ;
#302 = EDGE_LOOP ( 'NONE', ( #147, #19, #370, #43 ) ) ;
#303 = CARTESIAN_POINT ( 'NONE',  ( 0.8326771653543313390, 0.8124015725500000062, 0.5905511811023621549 ) ) ;
#304 = ADVANCED_FACE ( 'NONE', ( #322 ), #505, .T. ) ;
#305 = LINE ( 'NONE', #250, #518 ) ;
#306 = VERTEX_POINT ( 'NONE', #407 ) ;
#307 = CARTESIAN_POINT ( 'NONE',  ( 0.8013265193893898131, 1.038735553705747883, 0.000000000000000000 ) ) ;
#308 = ORIENTED_EDGE ( 'NONE', *, *, #18, .T. ) ;
#309 = CIRCLE ( 'NONE', #66, 0.6874015725499998952 ) ;
#310 = DIRECTION ( 'NONE',  ( -0.000000000000000000, 0.000000000000000000, 1.000000000000000000 ) ) ;
#311 = CARTESIAN_POINT ( 'NONE',  ( 0.000000000000000000, 0.000000000000000000, 0.5905511811023621549 ) ) ;
#312 = VERTEX_POINT ( 'NONE', #57 ) ;
#313 =( LENGTH_UNIT ( ) NAMED_UNIT ( * ) SI_UNIT ( $, .METRE. ) );
#314 = CARTESIAN_POINT ( 'NONE',  ( 0.7700501580770521270, 1.062401572550000006, 0.5905511811023621549 ) ) ;
#315 = EDGE_LOOP ( 'NONE', ( #238, #247, #223, #567 ) ) ;
#316 = DIRECTION ( 'NONE',  ( -1.000000000000000000, 0.000000000000000000, 0.000000000000000000 ) ) ;
#317 = DIRECTION ( 'NONE',  ( -1.000000000000000000, 0.000000000000000000, 0.000000000000000000 ) ) ;
#318 = ORIENTED_EDGE ( 'NONE', *, *, #146, .F. ) ;
#319 = VECTOR ( 'NONE', #414, 39.37007874015748143 ) ;
#320 = FILL_AREA_STYLE ('',( #557 ) ) ;
#321 = VECTOR ( 'NONE', #122, 39.37007874015748143 ) ;
#322 = FACE_OUTER_BOUND ( 'NONE', #399, .T. ) ;
#323 = EDGE_LOOP ( 'NONE', ( #561, #112, #318, #287 ) ) ;
#324 =( CONVERSION_BASED_UNIT ( 'INCH', #105 ) LENGTH_UNIT ( ) NAMED_UNIT ( #336 ) );
#325 = ADVANCED_FACE ( 'NONE', ( #13 ), #555, .T. ) ;
#326 = VERTEX_POINT ( 'NONE', #17 ) ;
#327 = FACE_OUTER_BOUND ( 'NONE', #27, .T. ) ;
#328 = CARTESIAN_POINT ( 'NONE',  ( -0.8013265193893898131, 1.038735553705747883, 0.5905511811023621549 ) ) ;
#329 = CIRCLE ( 'NONE', #388, 0.03249999999999999417 ) ;
#330 = AXIS2_PLACEMENT_3D ( 'NONE', #516, #161, #77 ) ;
#331 = AXIS2_PLACEMENT_3D ( 'NONE', #156, #230, #317 ) ;
#332 = DIRECTION ( 'NONE',  ( 0.000000000000000000, -0.000000000000000000, -1.000000000000000000 ) ) ;
#333 = LINE ( 'NONE', #295, #96 ) ;
#334 = DIRECTION ( 'NONE',  ( -0.000000000000000000, 0.000000000000000000, 1.000000000000000000 ) ) ;
#335 = VECTOR ( 'NONE', #530, 39.37007874015748143 ) ;
#336 = DIMENSIONAL_EXPONENTS ( 1.000000000000000000, 0.000000000000000000, 0.000000000000000000, 0.000000000000000000, 0.000000000000000000, 0.000000000000000000, 0.000000000000000000 ) ;
#337 = AXIS2_PLACEMENT_3D ( 'NONE', #501, #360, #151 ) ;
#338 = LINE ( 'NONE', #204, #86 ) ;
#339 =( LENGTH_UNIT ( ) NAMED_UNIT ( * ) SI_UNIT ( $, .METRE. ) );
#340 = EDGE_CURVE ( 'NONE', #369, #326, #134, .T. ) ;
#341 = DIRECTION ( 'NONE',  ( -0.000000000000000000, -0.000000000000000000, -1.000000000000000000 ) ) ;
#342 = DIRECTION ( 'NONE',  ( -0.000000000000000000, 0.000000000000000000, 1.000000000000000000 ) ) ;
#343 = ORIENTED_EDGE ( 'NONE', *, *, #377, .T. ) ;
#344 = VECTOR ( 'NONE', #42, 39.37007874015748143 ) ;
#345 = CARTESIAN_POINT ( 'NONE',  ( 0.000000000000000000, 1.062401572550000006, 0.5905511811023621549 ) ) ;
#346 = CIRCLE ( 'NONE', #432, 0.03249999999999999417 ) ;
#347 = ORIENTED_EDGE ( 'NONE', *, *, #128, .T. ) ;
#348 = ADVANCED_FACE ( 'NONE', ( #460 ), #189, .T. ) ;
#349 = DIRECTION ( 'NONE',  ( 1.000000000000000000, 0.000000000000000000, 0.000000000000000000 ) ) ;
#350 = DIRECTION ( 'NONE',  ( 0.000000000000000000, 0.000000000000000000, 1.000000000000000000 ) ) ;
#351 = CYLINDRICAL_SURFACE ( 'NONE', #39, 0.03249999999999999417 ) ;
#352 = DIRECTION ( 'NONE',  ( 1.000000000000000000, 0.000000000000000000, 0.000000000000000000 ) ) ;
#353 = ORIENTED_EDGE ( 'NONE', *, *, #574, .F. ) ;
#354 = AXIS2_PLACEMENT_3D ( 'NONE', #447, #301, #257 ) ;
#355 = CARTESIAN_POINT ( 'NONE',  ( 0.6874015725499998952, 0.8124015725500001173, 0.5905511811023621549 ) ) ;
#356 = DIRECTION ( 'NONE',  ( -0.000000000000000000, 0.000000000000000000, 1.000000000000000000 ) ) ;
#357 = EDGE_CURVE ( 'NONE', #273, #418, #456, .T. ) ;
#358 = ORIENTED_EDGE ( 'NONE', *, *, #239, .F. ) ;
#359 = DIRECTION ( 'NONE',  ( -1.000000000000000000, 0.000000000000000000, 0.000000000000000000 ) ) ;
#360 = DIRECTION ( 'NONE',  ( -0.000000000000000000, 0.000000000000000000, 1.000000000000000000 ) ) ;
#361 = ORIENTED_EDGE ( 'NONE', *, *, #128, .F. ) ;
#362 = LINE ( 'NONE', #368, #570 ) ;
#363 = DIRECTION ( 'NONE',  ( -1.000000000000000000, 0.000000000000000000, 0.000000000000000000 ) ) ;
#364 = ORIENTED_EDGE ( 'NONE', *, *, #63, .F. ) ;
#365 = CIRCLE ( 'NONE', #466, 0.6874015725499998952 ) ;
#366 = EDGE_CURVE ( 'NONE', #46, #286, #111, .T. ) ;
#367 = VECTOR ( 'NONE', #200, 39.37007874015748143 ) ;
#368 = CARTESIAN_POINT ( 'NONE',  ( 0.8013265193893898131, 1.038735553705747883, 0.5905511811023621549 ) ) ;
#369 = VERTEX_POINT ( 'NONE', #149 ) ;
#370 = ORIENTED_EDGE ( 'NONE', *, *, #291, .F. ) ;
#371 = CYLINDRICAL_SURFACE ( 'NONE', #395, 0.6874015725499998952 ) ;
#372 = ORIENTED_EDGE ( 'NONE', *, *, #108, .T. ) ;
#373 =( CONVERSION_BASED_UNIT ( 'INCH', #164 ) LENGTH_UNIT ( ) NAMED_UNIT ( #379 ) );
#374 = CIRCLE ( 'NONE', #533, 0.8326771653543313390 ) ;
#375 = AXIS2_PLACEMENT_3D ( 'NONE', #454, #272, #363 ) ;
#376 = ORIENTED_EDGE ( 'NONE', *, *, #8, .F. ) ;
#377 = EDGE_CURVE ( 'NONE', #412, #312, #446, .T. ) ;
#378 = CARTESIAN_POINT ( 'NONE',  ( 0.000000000000000000, 0.000000000000000000, 0.000000000000000000 ) ) ;
#379 = DIMENSIONAL_EXPONENTS ( 1.000000000000000000, 0.000000000000000000, 0.000000000000000000, 0.000000000000000000, 0.000000000000000000, 0.000000000000000000, 0.000000000000000000 ) ;
#380 = DIRECTION ( 'NONE',  ( -0.000000000000000000, -0.000000000000000000, -1.000000000000000000 ) ) ;
#381 =( NAMED_UNIT ( * ) PLANE_ANGLE_UNIT ( ) SI_UNIT ( $, .RADIAN. ) );
#382 = CARTESIAN_POINT ( 'NONE',  ( -0.6874015725499998952, 0.8124015725500000062, 0.000000000000000000 ) ) ;
#383 = DIRECTION ( 'NONE',  ( -0.000000000000000000, -0.000000000000000000, -1.000000000000000000 ) ) ;
#384 = EDGE_CURVE ( 'NONE', #508, #127, #75, .T. ) ;
#385 = AXIS2_PLACEMENT_3D ( 'NONE', #492, #224, #545 ) ;
#386 = AXIS2_PLACEMENT_3D ( 'NONE', #89, #400, #403 ) ;
#387 = DIRECTION ( 'NONE',  ( 1.000000000000000000, 0.000000000000000000, 0.000000000000000000 ) ) ;
#388 = AXIS2_PLACEMENT_3D ( 'NONE', #37, #213, #387 ) ;
#389 = CARTESIAN_POINT ( 'NONE',  ( -0.7700501580770521270, 1.062401572550000006, 0.5905511811023621549 ) ) ;
#390 = EDGE_LOOP ( 'NONE', ( #455, #281, #183, #461, #448, #343, #69, #372, #308, #167, #29, #347, #123, #415, #532 ) ) ;
#391 = DIRECTION ( 'NONE',  ( 1.000000000000000000, 0.000000000000000000, 0.000000000000000000 ) ) ;
#392 = CARTESIAN_POINT ( 'NONE',  ( 0.000000000000000000, 0.8124015725500000062, 0.000000000000000000 ) ) ;
#393 = ORIENTED_EDGE ( 'NONE', *, *, #45, .F. ) ;
#394 = PLANE ( 'NONE',  #544 ) ;
#395 = AXIS2_PLACEMENT_3D ( 'NONE', #246, #383, #78 ) ;
#396 = CIRCLE ( 'NONE', #330, 0.03249999999999999417 ) ;
#397 = EDGE_CURVE ( 'NONE', #262, #521, #309, .T. ) ;
#398 = VECTOR ( 'NONE', #435, 39.37007874015748143 ) ;
#399 = EDGE_LOOP ( 'NONE', ( #192, #482, #36, #49 ) ) ;
#400 = DIRECTION ( 'NONE',  ( -1.000000000000000000, -1.681340906991000080E-16, 0.000000000000000000 ) ) ;
#401 = DIRECTION ( 'NONE',  ( 1.000000000000000000, 0.000000000000000000, 0.000000000000000000 ) ) ;
#402 = ORIENTED_EDGE ( 'NONE', *, *, #517, .F. ) ;
#403 = DIRECTION ( 'NONE',  ( 1.681340906991000080E-16, -1.000000000000000000, 0.000000000000000000 ) ) ;
#404 = DIRECTION ( 'NONE',  ( -0.000000000000000000, 0.000000000000000000, 1.000000000000000000 ) ) ;
#405 = VERTEX_POINT ( 'NONE', #303 ) ;
#406 = ADVANCED_FACE ( 'NONE', ( #141 ), #491, .T. ) ;
#407 = CARTESIAN_POINT ( 'NONE',  ( 0.8326771653543313390, 0.8124015725500000062, 0.000000000000000000 ) ) ;
#408 = VERTEX_POINT ( 'NONE', #92 ) ;
#409 = AXIS2_PLACEMENT_3D ( 'NONE', #267, #540, #438 ) ;
#410 =( NAMED_UNIT ( * ) SI_UNIT ( $, .STERADIAN. ) SOLID_ANGLE_UNIT ( ) );
#411 = DIRECTION ( 'NONE',  ( -0.000000000000000000, 0.000000000000000000, 1.000000000000000000 ) ) ;
#412 = VERTEX_POINT ( 'NONE', #300 ) ;
#413 = FACE_OUTER_BOUND ( 'NONE', #315, .T. ) ;
#414 = DIRECTION ( 'NONE',  ( -0.000000000000000000, -0.000000000000000000, -1.000000000000000000 ) ) ;
#415 = ORIENTED_EDGE ( 'NONE', *, *, #63, .T. ) ;
#416 = EDGE_CURVE ( 'NONE', #46, #91, #346, .T. ) ;
#417 = CARTESIAN_POINT ( 'NONE',  ( 0.000000000000000000, 0.8124015725500000062, 0.5905511811023621549 ) ) ;
#418 = VERTEX_POINT ( 'NONE', #259 ) ;
#419 = AXIS2_PLACEMENT_3D ( 'NONE', #345, #82, #298 ) ;
#420 = CIRCLE ( 'NONE', #173, 0.03249999999999999417 ) ;
#421 = LINE ( 'NONE', #26, #367 ) ;
#422 = ORIENTED_EDGE ( 'NONE', *, *, #244, .T. ) ;
#423 = CARTESIAN_POINT ( 'NONE',  ( -0.7700501580770521270, 1.062401572550000006, 0.5905511811023621549 ) ) ;
#424 = DIRECTION ( 'NONE',  ( -0.000000000000000000, -0.000000000000000000, -1.000000000000000000 ) ) ;
#425 = CARTESIAN_POINT ( 'NONE',  ( 0.6862594437674156556, 1.029901572549999811, 0.000000000000000000 ) ) ;
#426 = PRESENTATION_LAYER_ASSIGNMENT (  '', '', ( #215 ) ) ;
#427 = PRODUCT_RELATED_PRODUCT_CATEGORY ( 'part', '', ( #93 ) ) ;
#428 = CYLINDRICAL_SURFACE ( 'NONE', #198, 0.8326771653543313390 ) ;
#429 = LINE ( 'NONE', #328, #495 ) ;
#430 = ADVANCED_FACE ( 'NONE', ( #450 ), #50, .T. ) ;
#431 = CARTESIAN_POINT ( 'NONE',  ( 0.6537594437674156822, 1.029901572549999811, 0.5905511811023621549 ) ) ;
#432 = AXIS2_PLACEMENT_3D ( 'NONE', #47, #310, #487 ) ;
#433 = CARTESIAN_POINT ( 'NONE',  ( -0.6862594437674156556, 1.029901572549999811, 0.000000000000000000 ) ) ;
#434 = ORIENTED_EDGE ( 'NONE', *, *, #169, .T. ) ;
#435 = DIRECTION ( 'NONE',  ( -1.681340906991000080E-16, 1.000000000000000000, 0.000000000000000000 ) ) ;
#436 = CARTESIAN_POINT ( 'NONE',  ( 0.6862594437674156556, 1.062401572550000006, 0.5905511811023621549 ) ) ;
#437 = ORIENTED_EDGE ( 'NONE', *, *, #553, .F. ) ;
#438 = DIRECTION ( 'NONE',  ( 1.000000000000000000, 0.000000000000000000, 0.000000000000000000 ) ) ;
#439 = ADVANCED_FACE ( 'NONE', ( #184 ), #351, .T. ) ;
#440 = DIRECTION ( 'NONE',  ( -0.000000000000000000, 0.000000000000000000, 1.000000000000000000 ) ) ;
#441 = VERTEX_POINT ( 'NONE', #55 ) ;
#442 = AXIS2_PLACEMENT_3D ( 'NONE', #433, #536, #401 ) ;
#443 = CARTESIAN_POINT ( 'NONE',  ( 0.8326771653543312279, -1.400014180427546174E-16, 0.5905511811023621549 ) ) ;
#444 = AXIS2_PLACEMENT_3D ( 'NONE', #135, #97, #264 ) ;
#445 = ORIENTED_EDGE ( 'NONE', *, *, #80, .F. ) ;
#446 = LINE ( 'NONE', #529, #398 ) ;
#447 = CARTESIAN_POINT ( 'NONE',  ( 0.6862594437674156556, 1.029901572549999811, 0.5905511811023621549 ) ) ;
#448 = ORIENTED_EDGE ( 'NONE', *, *, #72, .F. ) ;
#449 = ADVANCED_FACE ( 'NONE', ( #413 ), #510, .F. ) ;
#450 = FACE_OUTER_BOUND ( 'NONE', #543, .T. ) ;
#451 = LINE ( 'NONE', #232, #319 ) ;
#452 = ORIENTED_EDGE ( 'NONE', *, *, #233, .F. ) ;
#453 = LINE ( 'NONE', #228, #525 ) ;
#454 = CARTESIAN_POINT ( 'NONE',  ( 0.000000000000000000, 0.8124015725500000062, 0.5905511811023621549 ) ) ;
#455 = ORIENTED_EDGE ( 'NONE', *, *, #38, .T. ) ;
#456 = CIRCLE ( 'NONE', #121, 0.6874015725499998952 ) ;
#457 = AXIS2_PLACEMENT_3D ( 'NONE', #293, #334, #477 ) ;
#458 = SURFACE_STYLE_FILL_AREA ( #320 ) ;
#459 = EDGE_CURVE ( 'NONE', #22, #137, #109, .T. ) ;
#460 = FACE_OUTER_BOUND ( 'NONE', #464, .T. ) ;
#461 = ORIENTED_EDGE ( 'NONE', *, *, #56, .F. ) ;
#462 = DIRECTION ( 'NONE',  ( -0.000000000000000000, -0.000000000000000000, -1.000000000000000000 ) ) ;
#463 = EDGE_LOOP ( 'NONE', ( #65, #493, #489, #279 ) ) ;
#464 = EDGE_LOOP ( 'NONE', ( #514, #62, #24, #15, #422, #393, #178, #402, #485, #140, #101, #7, #270, #231, #118 ) ) ;
#465 = AXIS2_PLACEMENT_3D ( 'NONE', #160, #332, #468 ) ;
#466 = AXIS2_PLACEMENT_3D ( 'NONE', #278, #411, #191 ) ;
#467 = CARTESIAN_POINT ( 'NONE',  ( 0.000000000000000000, 0.8124015725500000062, 0.5905511811023621549 ) ) ;
#468 = DIRECTION ( 'NONE',  ( 1.000000000000000000, 0.000000000000000000, 0.000000000000000000 ) ) ;
#469 = PRODUCT_DEFINITION_SHAPE ( 'NONE', 'NONE',  #131 ) ;
#470 = ADVANCED_FACE ( 'NONE', ( #193 ), #196, .T. ) ;
#471 = APPLICATION_PROTOCOL_DEFINITION ( 'draft international standard', 'automotive_design', 1998, #288 ) ;
#472 = CARTESIAN_POINT ( 'NONE',  ( 0.6874015725499998952, 0.8124015725500001173, 0.5905511811023621549 ) ) ;
#473 = LINE ( 'NONE', #81, #509 ) ;
#474 = DIRECTION ( 'NONE',  ( -0.000000000000000000, -0.000000000000000000, -1.000000000000000000 ) ) ;
#475 = CIRCLE ( 'NONE', #290, 0.6874015725499998952 ) ;
#476 = EDGE_CURVE ( 'NONE', #127, #441, #362, .T. ) ;
#477 = DIRECTION ( 'NONE',  ( 1.000000000000000000, 0.000000000000000000, 0.000000000000000000 ) ) ;
#478 = DIRECTION ( 'NONE',  ( -1.681340906991000080E-16, 1.000000000000000000, 0.000000000000000000 ) ) ;
#479 = DIRECTION ( 'NONE',  ( 1.681340906991000080E-16, 1.000000000000000000, 0.000000000000000000 ) ) ;
#480 = LINE ( 'NONE', #28, #179 ) ;
#481 = DIRECTION ( 'NONE',  ( -0.000000000000000000, -0.000000000000000000, -1.000000000000000000 ) ) ;
#482 = ORIENTED_EDGE ( 'NONE', *, *, #35, .T. ) ;
#483 = COLOUR_RGB ( '',0.7921568627450980005, 0.8196078431372548767, 0.9333333333333333481 ) ;
#484 = CARTESIAN_POINT ( 'NONE',  ( 0.000000000000000000, -0.1476377952755905387, 0.5905511811023621549 ) ) ;
#485 = ORIENTED_EDGE ( 'NONE', *, *, #8, .T. ) ;
#486 = ADVANCED_FACE ( 'NONE', ( #236 ), #275, .F. ) ;
#487 = DIRECTION ( 'NONE',  ( 1.000000000000000000, 0.000000000000000000, 0.000000000000000000 ) ) ;
#488 = FACE_OUTER_BOUND ( 'NONE', #323, .T. ) ;
#489 = ORIENTED_EDGE ( 'NONE', *, *, #502, .T. ) ;
#490 = MANIFOLD_SOLID_BREP ( 'Fillet1', #12 ) ;
#491 = CYLINDRICAL_SURFACE ( 'NONE', #444, 0.03249999999999999417 ) ;
#492 = CARTESIAN_POINT ( 'NONE',  ( 0.000000000000000000, 0.8124015725500000062, 0.000000000000000000 ) ) ;
#493 = ORIENTED_EDGE ( 'NONE', *, *, #459, .T. ) ;
#494 = CIRCLE ( 'NONE', #465, 0.03249999999999999417 ) ;
#495 = VECTOR ( 'NONE', #424, 39.37007874015748143 ) ;
#496 = LINE ( 'NONE', #484, #297 ) ;
#497 = EDGE_CURVE ( 'NONE', #262, #3, #453, .T. ) ;
#498 = AXIS2_PLACEMENT_3D ( 'NONE', #467, #68, #240 ) ;
#499 = AXIS2_PLACEMENT_3D ( 'NONE', #378, #522, #566 ) ;
#500 = ORIENTED_EDGE ( 'NONE', *, *, #476, .T. ) ;
#501 = CARTESIAN_POINT ( 'NONE',  ( 0.000000000000000000, 0.8124015725500000062, 0.5905511811023621549 ) ) ;
#502 = EDGE_CURVE ( 'NONE', #137, #41, #421, .T. ) ;
#503 = VERTEX_POINT ( 'NONE', #559 ) ;
#504 = DIRECTION ( 'NONE',  ( 0.000000000000000000, 0.000000000000000000, 1.000000000000000000 ) ) ;
#505 = CYLINDRICAL_SURFACE ( 'NONE', #375, 0.8326771653543313390 ) ;
#506 = ORIENTED_EDGE ( 'NONE', *, *, #2, .T. ) ;
#507 = DIRECTION ( 'NONE',  ( 1.000000000000000000, 0.000000000000000000, 0.000000000000000000 ) ) ;
#508 = VERTEX_POINT ( 'NONE', #148 ) ;
#509 = VECTOR ( 'NONE', #478, 39.37007874015748143 ) ;
#510 = CYLINDRICAL_SURFACE ( 'NONE', #98, 0.6874015725499998952 ) ;
#511 = ADVANCED_FACE ( 'NONE', ( #327 ), #515, .T. ) ;
#512 = PLANE ( 'NONE',  #74 ) ;
#513 = EDGE_LOOP ( 'NONE', ( #195, #506, #361, #199 ) ) ;
#514 = ORIENTED_EDGE ( 'NONE', *, *, #261, .T. ) ;
#515 = CYLINDRICAL_SURFACE ( 'NONE', #535, 0.03249999999999999417 ) ;
#516 = CARTESIAN_POINT ( 'NONE',  ( -0.6862594437674156556, 1.029901572549999811, 0.5905511811023621549 ) ) ;
#517 = EDGE_CURVE ( 'NONE', #408, #262, #277, .T. ) ;
#518 = VECTOR ( 'NONE', #350, 39.37007874015748143 ) ;
#519 = CARTESIAN_POINT ( 'NONE',  ( 0.7700501580770521270, 1.062401572550000006, 0.000000000000000000 ) ) ;
#520 = ORIENTED_EDGE ( 'NONE', *, *, #108, .F. ) ;
#521 = VERTEX_POINT ( 'NONE', #355 ) ;
#522 = DIRECTION ( 'NONE',  ( 0.000000000000000000, 0.000000000000000000, 1.000000000000000000 ) ) ;
#523 = EDGE_CURVE ( 'NONE', #326, #312, #271, .T. ) ;
#524 = DIRECTION ( 'NONE',  ( 1.000000000000000000, 0.000000000000000000, 0.000000000000000000 ) ) ;
#525 = VECTOR ( 'NONE', #64, 39.37007874015748143 ) ;
#526 = CARTESIAN_POINT ( 'NONE',  ( 0.8326771653543312279, -1.400014180427546174E-16, 0.000000000000000000 ) ) ;
#527 = PRODUCT_CONTEXT ( 'NONE', #288, 'mechanical' ) ;
#528 = CARTESIAN_POINT ( 'NONE',  ( 0.8326771653543312279, -0.1476377952755905387, 0.5905511811023621549 ) ) ;
#529 = CARTESIAN_POINT ( 'NONE',  ( -0.8326771653543312279, -1.400014180427546174E-16, 0.000000000000000000 ) ) ;
#530 = DIRECTION ( 'NONE',  ( -0.000000000000000000, -0.000000000000000000, -1.000000000000000000 ) ) ;
#531 = EDGE_CURVE ( 'NONE', #405, #306, #480, .T. ) ;
#532 = ORIENTED_EDGE ( 'NONE', *, *, #80, .T. ) ;
#533 = AXIS2_PLACEMENT_3D ( 'NONE', #392, #342, #349 ) ;
#534 = AXIS2_PLACEMENT_3D ( 'NONE', #268, #194, #59 ) ;
#535 = AXIS2_PLACEMENT_3D ( 'NONE', #119, #285, #359 ) ;
#536 = DIRECTION ( 'NONE',  ( 0.000000000000000000, -0.000000000000000000, -1.000000000000000000 ) ) ;
#537 = CARTESIAN_POINT ( 'NONE',  ( 0.000000000000000000, 0.8124015725500000062, 0.5905511811023621549 ) ) ;
#538 = DIRECTION ( 'NONE',  ( 0.000000000000000000, 1.000000000000000000, 0.000000000000000000 ) ) ;
#539 = ORIENTED_EDGE ( 'NONE', *, *, #244, .F. ) ;
#540 = DIRECTION ( 'NONE',  ( 0.000000000000000000, -0.000000000000000000, -1.000000000000000000 ) ) ;
#541 = EDGE_CURVE ( 'NONE', #158, #326, #473, .T. ) ;
#542 = LINE ( 'NONE', #443, #126 ) ;
#543 = EDGE_LOOP ( 'NONE', ( #157, #133, #54, #225 ) ) ;
#544 = AXIS2_PLACEMENT_3D ( 'NONE', #296, #265, #575 ) ;
#545 = DIRECTION ( 'NONE',  ( 1.000000000000000000, 0.000000000000000000, 0.000000000000000000 ) ) ;
#546 = MECHANICAL_DESIGN_GEOMETRIC_PRESENTATION_REPRESENTATION (  '', ( #215 ), #207 ) ;
#547 = ORIENTED_EDGE ( 'NONE', *, *, #384, .F. ) ;
#548 = CARTESIAN_POINT ( 'NONE',  ( 0.000000000000000000, 0.8124015725500000062, 0.000000000000000000 ) ) ;
#549 = VERTEX_POINT ( 'NONE', #568 ) ;
#550 = CARTESIAN_POINT ( 'NONE',  ( 0.6862594437674156556, 1.029901572549999811, 0.5905511811023621549 ) ) ;
#551 = CARTESIAN_POINT ( 'NONE',  ( 0.6874015725499998952, 0.8124015725500001173, 0.000000000000000000 ) ) ;
#552 = ORIENTED_EDGE ( 'NONE', *, *, #416, .F. ) ;
#553 = EDGE_CURVE ( 'NONE', #286, #508, #249, .T. ) ;
#554 = CARTESIAN_POINT ( 'NONE',  ( 0.8326771653543312279, -1.400014180427546174E-16, 0.5905511811023621549 ) ) ;
#555 = CYLINDRICAL_SURFACE ( 'NONE', #331, 0.03249999999999999417 ) ;
#556 = ORIENTED_EDGE ( 'NONE', *, *, #476, .F. ) ;
#557 = FILL_AREA_STYLE_COLOUR ( '', #483 ) ;
#558 = ORIENTED_EDGE ( 'NONE', *, *, #35, .F. ) ;
#559 = CARTESIAN_POINT ( 'NONE',  ( 0.6552782197044665358, 1.020082521905393946, 0.5905511811023621549 ) ) ;
#560 = ADVANCED_FACE ( 'NONE', ( #30 ), #371, .F. ) ;
#561 = ORIENTED_EDGE ( 'NONE', *, *, #72, .T. ) ;
#562 = LINE ( 'NONE', #73, #67 ) ;
#563 = AXIS2_PLACEMENT_3D ( 'NONE', #245, #248, #34 ) ;
#564 =( NAMED_UNIT ( * ) SI_UNIT ( $, .STERADIAN. ) SOLID_ANGLE_UNIT ( ) );
#565 = EDGE_LOOP ( 'NONE', ( #143, #552, #452, #445 ) ) ;
#566 = DIRECTION ( 'NONE',  ( 1.000000000000000000, 0.000000000000000000, 0.000000000000000000 ) ) ;
#567 = ORIENTED_EDGE ( 'NONE', *, *, #357, .F. ) ;
#568 = CARTESIAN_POINT ( 'NONE',  ( -0.6862594437674156556, 1.062401572550000006, 0.000000000000000000 ) ) ;
#569 = EDGE_LOOP ( 'NONE', ( #95, #150, #520, #558 ) ) ;
#570 = VECTOR ( 'NONE', #504, 39.37007874015748143 ) ;
#571 = PRODUCT_DEFINITION_FORMATION_WITH_SPECIFIED_SOURCE ( 'ANY', '', #93, .NOT_KNOWN. ) ;
#572 = FACE_OUTER_BOUND ( 'NONE', #390, .T. ) ;
#573 = ADVANCED_BREP_SHAPE_REPRESENTATION ( 'MotorClamp', ( #490, #499 ), #197 ) ;
#574 = EDGE_CURVE ( 'NONE', #503, #418, #125, .T. ) ;
#575 = DIRECTION ( 'NONE',  ( 1.000000000000000000, 0.000000000000000000, 0.000000000000000000 ) ) ;
#576 = VERTEX_POINT ( 'NONE', #243 ) ;
ENDSEC;
END-ISO-10303-21;
