ISO-10303-21;
HEADER;
FILE_DESCRIPTION (( 'STEP AP203' ),
    '1' );
FILE_NAME ('PlatformPin.STEP',
    '2025-09-07T20:19:50',
    ( '' ),
    ( '' ),
    'SwSTEP 2.0',
    'SolidWorks 2024',
    '' );
FILE_SCHEMA (( 'CONFIG_CONTROL_DESIGN' ));
ENDSEC;

DATA;
#1 = ORIENTED_EDGE ( 'NONE', *, *, #151, .F. ) ;
#2 = DIRECTION ( 'NONE',  ( 0.000000000000000000, -0.000000000000000000, 1.000000000000000000 ) ) ;
#3 = PLANE ( 'NONE',  #130 ) ;
#4 = EDGE_CURVE ( 'NONE', #158, #160, #42, .T. ) ;
#5 = FACE_OUTER_BOUND ( 'NONE', #163, .T. ) ;
#6 = CC_DESIGN_DATE_AND_TIME_ASSIGNMENT ( #98, #156, ( #169 ) ) ;
#7 = DIRECTION ( 'NONE',  ( 0.000000000000000000, 0.000000000000000000, 1.000000000000000000 ) ) ;
#8 = CARTESIAN_POINT ( 'NONE',  ( 0.000000000000000000, 0.000000000000000000, 0.000000000000000000 ) ) ;
#9 = COORDINATED_UNIVERSAL_TIME_OFFSET ( 6, 0, .BEHIND. ) ;
#10 = APPROVAL_PERSON_ORGANIZATION ( #215, #95, #11 ) ;
#11 = APPROVAL_ROLE ( '' ) ;
#12 = AXIS2_PLACEMENT_3D ( 'NONE', #182, #190, #227 ) ;
#13 = PERSON_AND_ORGANIZATION ( #126, #48 ) ;
#14 = ORIENTED_EDGE ( 'NONE', *, *, #131, .T. ) ;
#15 = CALENDAR_DATE ( 2025, 7, 9 ) ;
#16 = ADVANCED_BREP_SHAPE_REPRESENTATION ( 'PlatformPin', ( #150, #117 ), #34 ) ;
#17 = DIRECTION ( 'NONE',  ( 0.000000000000000000, 0.000000000000000000, 1.000000000000000000 ) ) ;
#18 = CC_DESIGN_PERSON_AND_ORGANIZATION_ASSIGNMENT ( #61, #120, ( #83 ) ) ;
#19 = EDGE_LOOP ( 'NONE', ( #23, #141 ) ) ;
#20 = CARTESIAN_POINT ( 'NONE',  ( 0.000000000000000000, 0.000000000000000000, 2.525625000000000231 ) ) ;
#21 = ORIENTED_EDGE ( 'NONE', *, *, #57, .T. ) ;
#22 = AXIS2_PLACEMENT_3D ( 'NONE', #8, #51, #47 ) ;
#23 = ORIENTED_EDGE ( 'NONE', *, *, #122, .T. ) ;
#24 = CARTESIAN_POINT ( 'NONE',  ( 0.000000000000000000, 2.500000000000000000, 0.000000000000000000 ) ) ;
#25 = APPROVAL_PERSON_ORGANIZATION ( #13, #58, #175 ) ;
#26 = DIRECTION ( 'NONE',  ( -0.000000000000000000, -1.000000000000000000, -0.000000000000000000 ) ) ;
#27 = VECTOR ( 'NONE', #49, 1000.000000000000000 ) ;
#28 = DIRECTION ( 'NONE',  ( 0.000000000000000000, 0.000000000000000000, 1.000000000000000000 ) ) ;
#29 = CC_DESIGN_PERSON_AND_ORGANIZATION_ASSIGNMENT ( #113, #159, ( #181 ) ) ;
#30 = LINE ( 'NONE', #147, #164 ) ;
#31 = DIRECTION ( 'NONE',  ( 0.000000000000000000, -0.000000000000000000, 1.000000000000000000 ) ) ;
#32 = APPLICATION_PROTOCOL_DEFINITION ( 'international standard', 'config_control_design', 1994, #40 ) ;
#33 = UNCERTAINTY_MEASURE_WITH_UNIT (LENGTH_MEASURE( 1.000000000000000082E-05 ), #155, 'distance_accuracy_value', 'NONE');
#34 =( GEOMETRIC_REPRESENTATION_CONTEXT ( 3 ) GLOBAL_UNCERTAINTY_ASSIGNED_CONTEXT ( ( #33 ) ) GLOBAL_UNIT_ASSIGNED_CONTEXT ( ( #155, #157, #213 ) ) REPRESENTATION_CONTEXT ( 'NONE', 'WORKASPACE' ) );
#35 = EDGE_CURVE ( 'NONE', #97, #116, #200, .T. ) ;
#36 = CIRCLE ( 'NONE', #183, 2.489845605013638608 ) ;
#37 = PERSON_AND_ORGANIZATION ( #126, #48 ) ;
#38 = ORIENTED_EDGE ( 'NONE', *, *, #122, .F. ) ;
#39 = EDGE_LOOP ( 'NONE', ( #56, #44, #38, #45 ) ) ;
#40 = APPLICATION_CONTEXT ( 'configuration controlled 3d designs of mechanical parts and assemblies' ) ;
#41 = DIRECTION ( 'NONE',  ( 0.000000000000000000, 0.000000000000000000, 1.000000000000000000 ) ) ;
#42 = CIRCLE ( 'NONE', #55, 5.000000000000000000 ) ;
#43 = APPROVAL_DATE_TIME ( #100, #95 ) ;
#44 = ORIENTED_EDGE ( 'NONE', *, *, #102, .T. ) ;
#45 = ORIENTED_EDGE ( 'NONE', *, *, #57, .F. ) ;
#46 = DIRECTION ( 'NONE',  ( 0.000000000000000000, 1.000000000000000000, 0.000000000000000000 ) ) ;
#47 = DIRECTION ( 'NONE',  ( 0.000000000000000000, 0.000000000000000000, 1.000000000000000000 ) ) ;
#48 = ORGANIZATION ( 'UNSPECIFIED', 'UNSPECIFIED', '' ) ;
#49 = DIRECTION ( 'NONE',  ( 4.274815082592931898E-19, 0.9999939076577903929, -0.003490651415223739937 ) ) ;
#50 = VECTOR ( 'NONE', #104, 1000.000000000000000 ) ;
#51 = DIRECTION ( 'NONE',  ( 0.000000000000000000, 1.000000000000000000, 0.000000000000000000 ) ) ;
#52 = PLANE ( 'NONE',  #224 ) ;
#53 = PERSON_AND_ORGANIZATION ( #126, #48 ) ;
#54 = DATE_AND_TIME ( #247, #193 ) ;
#55 = AXIS2_PLACEMENT_3D ( 'NONE', #121, #84, #17 ) ;
#56 = ORIENTED_EDGE ( 'NONE', *, *, #230, .T. ) ;
#57 = EDGE_CURVE ( 'NONE', #198, #101, #124, .T. ) ;
#58 = APPROVAL ( #231, 'UNSPECIFIED' ) ;
#59 = COORDINATED_UNIVERSAL_TIME_OFFSET ( 6, 0, .BEHIND. ) ;
#60 = EDGE_LOOP ( 'NONE', ( #252, #140, #99, #82 ) ) ;
#61 = PERSON_AND_ORGANIZATION ( #126, #48 ) ;
#62 = CC_DESIGN_APPROVAL ( #58, ( #169 ) ) ;
#63 = CONICAL_SURFACE ( 'NONE', #236, 2.525625000000000231, 0.003490658503988666988 ) ;
#64 = ORIENTED_EDGE ( 'NONE', *, *, #85, .F. ) ;
#65 = SHAPE_DEFINITION_REPRESENTATION ( #202, #16 ) ;
#66 = ORIENTED_EDGE ( 'NONE', *, *, #194, .F. ) ;
#67 = DIRECTION ( 'NONE',  ( 0.000000000000000000, 1.000000000000000000, 0.000000000000000000 ) ) ;
#68 = CARTESIAN_POINT ( 'NONE',  ( 0.000000000000000000, -10.25000000000000000, 0.000000000000000000 ) ) ;
#69 = CC_DESIGN_PERSON_AND_ORGANIZATION_ASSIGNMENT ( #173, #232, ( #181 ) ) ;
#70 = APPLICATION_CONTEXT ( 'configuration controlled 3d designs of mechanical parts and assemblies' ) ;
#71 = DIRECTION ( 'NONE',  ( 0.000000000000000000, 0.000000000000000000, 1.000000000000000000 ) ) ;
#72 = AXIS2_PLACEMENT_3D ( 'NONE', #112, #67, #75 ) ;
#73 = CARTESIAN_POINT ( 'NONE',  ( 0.000000000000000000, -10.25000000000000000, 2.489845605013638608 ) ) ;
#74 = CONICAL_SURFACE ( 'NONE', #22, 2.525625000000000231, 0.003490658503988666988 ) ;
#75 = DIRECTION ( 'NONE',  ( 0.000000000000000000, 0.000000000000000000, 1.000000000000000000 ) ) ;
#76 = MECHANICAL_CONTEXT ( 'NONE', #70, 'mechanical' ) ;
#77 = DESIGN_CONTEXT ( 'detailed design', #40, 'design' ) ;
#78 = APPROVAL_ROLE ( '' ) ;
#79 = CC_DESIGN_DATE_AND_TIME_ASSIGNMENT ( #54, #135, ( #83 ) ) ;
#80 = CLOSED_SHELL ( 'NONE', ( #149, #105, #219, #177, #254, #142, #242 ) ) ;
#81 = DATE_AND_TIME ( #245, #94 ) ;
#82 = ORIENTED_EDGE ( 'NONE', *, *, #207, .F. ) ;
#83 = SECURITY_CLASSIFICATION ( '', '', #191 ) ;
#84 = DIRECTION ( 'NONE',  ( 0.000000000000000000, 1.000000000000000000, 0.000000000000000000 ) ) ;
#85 = EDGE_CURVE ( 'NONE', #145, #101, #106, .T. ) ;
#86 = CALENDAR_DATE ( 2025, 7, 9 ) ;
#87 = ORIENTED_EDGE ( 'NONE', *, *, #35, .F. ) ;
#88 = DIRECTION ( 'NONE',  ( -0.000000000000000000, -1.000000000000000000, -0.000000000000000000 ) ) ;
#89 = DIRECTION ( 'NONE',  ( 0.000000000000000000, 1.000000000000000000, 0.000000000000000000 ) ) ;
#90 = DIRECTION ( 'NONE',  ( 0.000000000000000000, 1.000000000000000000, 0.000000000000000000 ) ) ;
#91 = DIRECTION ( 'NONE',  ( 0.000000000000000000, 1.000000000000000000, 0.000000000000000000 ) ) ;
#92 = PERSON_AND_ORGANIZATION_ROLE ( 'creator' ) ;
#93 = APPROVAL_DATE_TIME ( #217, #58 ) ;
#94 = LOCAL_TIME ( 15, 19, 50.00000000000000000, #250 ) ;
#95 = APPROVAL ( #192, 'UNSPECIFIED' ) ;
#96 = AXIS2_PLACEMENT_3D ( 'NONE', #24, #88, #152 ) ;
#97 = VERTEX_POINT ( 'NONE', #239 ) ;
#98 = DATE_AND_TIME ( #15, #246 ) ;
#99 = ORIENTED_EDGE ( 'NONE', *, *, #151, .T. ) ;
#100 = DATE_AND_TIME ( #86, #103 ) ;
#101 = VERTEX_POINT ( 'NONE', #154 ) ;
#102 = EDGE_CURVE ( 'NONE', #233, #145, #111, .T. ) ;
#103 = LOCAL_TIME ( 15, 19, 50.00000000000000000, #203 ) ;
#104 = DIRECTION ( 'NONE',  ( 0.000000000000000000, 0.9999939076577903929, 0.003490651415223739937 ) ) ;
#105 = ADVANCED_FACE ( 'NONE', ( #244 ), #74, .T. ) ;
#106 = CIRCLE ( 'NONE', #12, 2.525625000000000231 ) ;
#107 = EDGE_LOOP ( 'NONE', ( #255, #66 ) ) ;
#108 = DIRECTION ( 'NONE',  ( 0.000000000000000000, 1.000000000000000000, 0.000000000000000000 ) ) ;
#109 = CARTESIAN_POINT ( 'NONE',  ( 0.000000000000000000, 0.000000000000000000, 0.000000000000000000 ) ) ;
#110 = PLANE ( 'NONE',  #209 ) ;
#111 = LINE ( 'NONE', #205, #27 ) ;
#112 = CARTESIAN_POINT ( 'NONE',  ( 0.000000000000000000, -10.25000000000000000, 0.000000000000000000 ) ) ;
#113 = PERSON_AND_ORGANIZATION ( #126, #48 ) ;
#114 = CC_DESIGN_PERSON_AND_ORGANIZATION_ASSIGNMENT ( #37, #92, ( #169 ) ) ;
#115 = APPROVAL_DATE_TIME ( #81, #216 ) ;
#116 = VERTEX_POINT ( 'NONE', #238 ) ;
#117 = AXIS2_PLACEMENT_3D ( 'NONE', #199, #249, #134 ) ;
#118 = CIRCLE ( 'NONE', #176, 2.525625000000000231 ) ;
#119 = DIRECTION ( 'NONE',  ( 0.000000000000000000, 0.000000000000000000, -1.000000000000000000 ) ) ;
#120 = PERSON_AND_ORGANIZATION_ROLE ( 'classification_officer' ) ;
#121 = CARTESIAN_POINT ( 'NONE',  ( 0.000000000000000000, 2.500000000000000000, 0.000000000000000000 ) ) ;
#122 = EDGE_CURVE ( 'NONE', #101, #145, #118, .T. ) ;
#123 = AXIS2_PLACEMENT_3D ( 'NONE', #235, #144, #41 ) ;
#124 = LINE ( 'NONE', #20, #50 ) ;
#125 = FACE_BOUND ( 'NONE', #19, .T. ) ;
#126 = PERSON ( 'UNSPECIFIED', 'UNSPECIFIED', 'UNSPECIFIED', ('UNSPECIFIED'), ('UNSPECIFIED'), ('UNSPECIFIED') ) ;
#127 = CC_DESIGN_APPROVAL ( #216, ( #181 ) ) ;
#128 = CARTESIAN_POINT ( 'NONE',  ( 3.092998572096534260E-16, 0.000000000000000000, -2.525625000000000231 ) ) ;
#129 = FACE_OUTER_BOUND ( 'NONE', #184, .T. ) ;
#130 = AXIS2_PLACEMENT_3D ( 'NONE', #222, #189, #2 ) ;
#131 = EDGE_CURVE ( 'NONE', #160, #158, #243, .T. ) ;
#132 = DIRECTION ( 'NONE',  ( 0.000000000000000000, 1.000000000000000000, 0.000000000000000000 ) ) ;
#133 = CARTESIAN_POINT ( 'NONE',  ( 0.000000000000000000, 0.000000000000000000, 0.000000000000000000 ) ) ;
#134 = DIRECTION ( 'NONE',  ( 1.000000000000000000, 0.000000000000000000, 0.000000000000000000 ) ) ;
#135 = DATE_TIME_ROLE ( 'classification_date' ) ;
#136 = APPLICATION_PROTOCOL_DEFINITION ( 'international standard', 'config_control_design', 1994, #70 ) ;
#137 = LOCAL_TIME ( 15, 19, 50.00000000000000000, #59 ) ;
#138 = CALENDAR_DATE ( 2025, 7, 9 ) ;
#139 = CARTESIAN_POINT ( 'NONE',  ( 0.000000000000000000, 2.500000000000000000, 0.000000000000000000 ) ) ;
#140 = ORIENTED_EDGE ( 'NONE', *, *, #187, .T. ) ;
#141 = ORIENTED_EDGE ( 'NONE', *, *, #85, .T. ) ;
#142 = ADVANCED_FACE ( 'NONE', ( #5 ), #3, .T. ) ;
#143 = VECTOR ( 'NONE', #223, 1000.000000000000000 ) ;
#144 = DIRECTION ( 'NONE',  ( 0.000000000000000000, 1.000000000000000000, 0.000000000000000000 ) ) ;
#145 = VERTEX_POINT ( 'NONE', #128 ) ;
#146 = CARTESIAN_POINT ( 'NONE',  ( 0.000000000000000000, 2.500000000000000000, 0.000000000000000000 ) ) ;
#147 = CARTESIAN_POINT ( 'NONE',  ( 6.123233995736766282E-16, 2.500000000000000000, 5.000000000000000000 ) ) ;
#148 = CARTESIAN_POINT ( 'NONE',  ( 0.000000000000000000, 0.000000000000000000, 0.000000000000000000 ) ) ;
#149 = ADVANCED_FACE ( 'NONE', ( #212 ), #225, .T. ) ;
#150 = MANIFOLD_SOLID_BREP ( 'Boss-Extrude2', #80 ) ;
#151 = EDGE_CURVE ( 'NONE', #116, #97, #218, .T. ) ;
#152 = DIRECTION ( 'NONE',  ( 0.000000000000000000, 0.000000000000000000, -1.000000000000000000 ) ) ;
#153 = AXIS2_PLACEMENT_3D ( 'NONE', #148, #89, #208 ) ;
#154 = CARTESIAN_POINT ( 'NONE',  ( 0.000000000000000000, 0.000000000000000000, 2.525625000000000231 ) ) ;
#155 =( LENGTH_UNIT ( ) NAMED_UNIT ( * ) SI_UNIT ( .MILLI., .METRE. ) );
#156 = DATE_TIME_ROLE ( 'creation_date' ) ;
#157 =( NAMED_UNIT ( * ) PLANE_ANGLE_UNIT ( ) SI_UNIT ( $, .RADIAN. ) );
#158 = VERTEX_POINT ( 'NONE', #167 ) ;
#159 = PERSON_AND_ORGANIZATION_ROLE ( 'creator' ) ;
#160 = VERTEX_POINT ( 'NONE', #210 ) ;
#161 = CC_DESIGN_PERSON_AND_ORGANIZATION_ASSIGNMENT ( #53, #195, ( #221 ) ) ;
#162 = CC_DESIGN_SECURITY_CLASSIFICATION ( #83, ( #181 ) ) ;
#163 = EDGE_LOOP ( 'NONE', ( #204, #14 ) ) ;
#164 = VECTOR ( 'NONE', #26, 1000.000000000000000 ) ;
#165 = EDGE_LOOP ( 'NONE', ( #87, #1 ) ) ;
#166 = DIRECTION ( 'NONE',  ( 0.000000000000000000, 1.000000000000000000, 0.000000000000000000 ) ) ;
#167 = CARTESIAN_POINT ( 'NONE',  ( 0.000000000000000000, 2.500000000000000000, -5.000000000000000000 ) ) ;
#168 = FACE_OUTER_BOUND ( 'NONE', #107, .T. ) ;
#169 = PRODUCT_DEFINITION ( 'UNKNOWN', '', #181, #77 ) ;
#170 = DIRECTION ( 'NONE',  ( 0.000000000000000000, -0.000000000000000000, 1.000000000000000000 ) ) ;
#171 = CARTESIAN_POINT ( 'NONE',  ( 0.000000000000000000, 2.500000000000000000, -5.000000000000000000 ) ) ;
#172 = DIRECTION ( 'NONE',  ( -0.000000000000000000, -1.000000000000000000, -0.000000000000000000 ) ) ;
#173 = PERSON_AND_ORGANIZATION ( #126, #48 ) ;
#174 = AXIS2_PLACEMENT_3D ( 'NONE', #139, #172, #119 ) ;
#175 = APPROVAL_ROLE ( '' ) ;
#176 = AXIS2_PLACEMENT_3D ( 'NONE', #188, #91, #211 ) ;
#177 = ADVANCED_FACE ( 'NONE', ( #168 ), #110, .F. ) ;
#178 = CYLINDRICAL_SURFACE ( 'NONE', #174, 5.000000000000000000 ) ;
#179 = ORIENTED_EDGE ( 'NONE', *, *, #4, .F. ) ;
#180 = PERSON_AND_ORGANIZATION ( #126, #48 ) ;
#181 = PRODUCT_DEFINITION_FORMATION_WITH_SPECIFIED_SOURCE ( 'ANY', '', #221, .NOT_KNOWN. ) ;
#182 = CARTESIAN_POINT ( 'NONE',  ( 0.000000000000000000, 0.000000000000000000, 0.000000000000000000 ) ) ;
#183 = AXIS2_PLACEMENT_3D ( 'NONE', #68, #166, #7 ) ;
#184 = EDGE_LOOP ( 'NONE', ( #201, #237, #21, #64 ) ) ;
#185 = FACE_OUTER_BOUND ( 'NONE', #220, .T. ) ;
#186 = CARTESIAN_POINT ( 'NONE',  ( 0.000000000000000000, -10.25000000000000000, 0.000000000000000000 ) ) ;
#187 = EDGE_CURVE ( 'NONE', #160, #116, #30, .T. ) ;
#188 = CARTESIAN_POINT ( 'NONE',  ( 0.000000000000000000, 0.000000000000000000, 0.000000000000000000 ) ) ;
#189 = DIRECTION ( 'NONE',  ( 0.000000000000000000, 1.000000000000000000, 0.000000000000000000 ) ) ;
#190 = DIRECTION ( 'NONE',  ( 0.000000000000000000, 1.000000000000000000, 0.000000000000000000 ) ) ;
#191 = SECURITY_CLASSIFICATION_LEVEL ( 'unclassified' ) ;
#192 = APPROVAL_STATUS ( 'not_yet_approved' ) ;
#193 = LOCAL_TIME ( 15, 19, 50.00000000000000000, #9 ) ;
#194 = EDGE_CURVE ( 'NONE', #233, #198, #36, .T. ) ;
#195 = PERSON_AND_ORGANIZATION_ROLE ( 'design_owner' ) ;
#196 = PRODUCT_RELATED_PRODUCT_CATEGORY ( 'detail', '', ( #221 ) ) ;
#197 = CIRCLE ( 'NONE', #72, 2.489845605013638608 ) ;
#198 = VERTEX_POINT ( 'NONE', #73 ) ;
#199 = CARTESIAN_POINT ( 'NONE',  ( 0.000000000000000000, 0.000000000000000000, 0.000000000000000000 ) ) ;
#200 = CIRCLE ( 'NONE', #123, 5.000000000000000000 ) ;
#201 = ORIENTED_EDGE ( 'NONE', *, *, #102, .F. ) ;
#202 = PRODUCT_DEFINITION_SHAPE ( 'NONE', 'NONE',  #169 ) ;
#203 = COORDINATED_UNIVERSAL_TIME_OFFSET ( 6, 0, .BEHIND. ) ;
#204 = ORIENTED_EDGE ( 'NONE', *, *, #4, .T. ) ;
#205 = CARTESIAN_POINT ( 'NONE',  ( 3.092998572096534260E-16, 0.000000000000000000, -2.525625000000000231 ) ) ;
#206 = APPROVAL_PERSON_ORGANIZATION ( #180, #216, #78 ) ;
#207 = EDGE_CURVE ( 'NONE', #158, #97, #240, .T. ) ;
#208 = DIRECTION ( 'NONE',  ( 0.000000000000000000, 0.000000000000000000, 1.000000000000000000 ) ) ;
#209 = AXIS2_PLACEMENT_3D ( 'NONE', #186, #90, #170 ) ;
#210 = CARTESIAN_POINT ( 'NONE',  ( 6.123233995736766282E-16, 2.500000000000000000, 5.000000000000000000 ) ) ;
#211 = DIRECTION ( 'NONE',  ( 0.000000000000000000, 0.000000000000000000, 1.000000000000000000 ) ) ;
#212 = FACE_OUTER_BOUND ( 'NONE', #60, .T. ) ;
#213 =( NAMED_UNIT ( * ) SI_UNIT ( $, .STERADIAN. ) SOLID_ANGLE_UNIT ( ) );
#214 = ORIENTED_EDGE ( 'NONE', *, *, #207, .T. ) ;
#215 = PERSON_AND_ORGANIZATION ( #126, #48 ) ;
#216 = APPROVAL ( #229, 'UNSPECIFIED' ) ;
#217 = DATE_AND_TIME ( #138, #137 ) ;
#218 = CIRCLE ( 'NONE', #153, 5.000000000000000000 ) ;
#219 = ADVANCED_FACE ( 'NONE', ( #129 ), #63, .T. ) ;
#220 = EDGE_LOOP ( 'NONE', ( #234, #179, #214, #251 ) ) ;
#221 = PRODUCT ( 'PlatformPin', 'PlatformPin', '', ( #76 ) ) ;
#222 = CARTESIAN_POINT ( 'NONE',  ( 0.000000000000000000, 2.500000000000000000, 0.000000000000000000 ) ) ;
#223 = DIRECTION ( 'NONE',  ( -0.000000000000000000, -1.000000000000000000, -0.000000000000000000 ) ) ;
#224 = AXIS2_PLACEMENT_3D ( 'NONE', #133, #108, #31 ) ;
#225 = CYLINDRICAL_SURFACE ( 'NONE', #96, 5.000000000000000000 ) ;
#226 = AXIS2_PLACEMENT_3D ( 'NONE', #146, #132, #71 ) ;
#227 = DIRECTION ( 'NONE',  ( 0.000000000000000000, 0.000000000000000000, 1.000000000000000000 ) ) ;
#228 = CARTESIAN_POINT ( 'NONE',  ( 3.071090011323796135E-16, -10.25000000000000000, -2.489845605013638608 ) ) ;
#229 = APPROVAL_STATUS ( 'not_yet_approved' ) ;
#230 = EDGE_CURVE ( 'NONE', #198, #233, #197, .T. ) ;
#231 = APPROVAL_STATUS ( 'not_yet_approved' ) ;
#232 = PERSON_AND_ORGANIZATION_ROLE ( 'design_supplier' ) ;
#233 = VERTEX_POINT ( 'NONE', #228 ) ;
#234 = ORIENTED_EDGE ( 'NONE', *, *, #187, .F. ) ;
#235 = CARTESIAN_POINT ( 'NONE',  ( 0.000000000000000000, 0.000000000000000000, 0.000000000000000000 ) ) ;
#236 = AXIS2_PLACEMENT_3D ( 'NONE', #109, #46, #28 ) ;
#237 = ORIENTED_EDGE ( 'NONE', *, *, #194, .T. ) ;
#238 = CARTESIAN_POINT ( 'NONE',  ( 6.123233995736766282E-16, 0.000000000000000000, 5.000000000000000000 ) ) ;
#239 = CARTESIAN_POINT ( 'NONE',  ( 0.000000000000000000, 0.000000000000000000, -5.000000000000000000 ) ) ;
#240 = LINE ( 'NONE', #171, #143 ) ;
#241 = FACE_OUTER_BOUND ( 'NONE', #165, .T. ) ;
#242 = ADVANCED_FACE ( 'NONE', ( #125, #241 ), #52, .F. ) ;
#243 = CIRCLE ( 'NONE', #226, 5.000000000000000000 ) ;
#244 = FACE_OUTER_BOUND ( 'NONE', #39, .T. ) ;
#245 = CALENDAR_DATE ( 2025, 7, 9 ) ;
#246 = LOCAL_TIME ( 15, 19, 50.00000000000000000, #248 ) ;
#247 = CALENDAR_DATE ( 2025, 7, 9 ) ;
#248 = COORDINATED_UNIVERSAL_TIME_OFFSET ( 6, 0, .BEHIND. ) ;
#249 = DIRECTION ( 'NONE',  ( 0.000000000000000000, 0.000000000000000000, 1.000000000000000000 ) ) ;
#250 = COORDINATED_UNIVERSAL_TIME_OFFSET ( 6, 0, .BEHIND. ) ;
#251 = ORIENTED_EDGE ( 'NONE', *, *, #35, .T. ) ;
#252 = ORIENTED_EDGE ( 'NONE', *, *, #131, .F. ) ;
#253 = CC_DESIGN_APPROVAL ( #95, ( #83 ) ) ;
#254 = ADVANCED_FACE ( 'NONE', ( #185 ), #178, .T. ) ;
#255 = ORIENTED_EDGE ( 'NONE', *, *, #230, .F. ) ;
ENDSEC;
END-ISO-10303-21;
