ISO-10303-21;
HEADER;
FILE_DESCRIPTION (( 'STEP AP214' ),
    '1' );
FILE_NAME ('Platform.STEP',
    '2025-08-15T04:15:46',
    ( '' ),
    ( '' ),
    'SwSTEP 2.0',
    'SolidWorks 2024',
    '' );
FILE_SCHEMA (( 'AUTOMOTIVE_DESIGN' ));
ENDSEC;

DATA;
#1 = CARTESIAN_POINT ( 'NONE',  ( 9.999999999999989342, 6.349999999999999645, -115.9999999999999858 ) ) ;
#2 = DIRECTION ( 'NONE',  ( 0.000000000000000000, 0.000000000000000000, 1.000000000000000000 ) ) ;
#3 = ORIENTED_EDGE ( 'NONE', *, *, #764, .F. ) ;
#4 = LINE ( 'NONE', #851, #599 ) ;
#5 = PLANE ( 'NONE',  #376 ) ;
#6 = ORIENTED_EDGE ( 'NONE', *, *, #397, .F. ) ;
#7 = EDGE_CURVE ( 'NONE', #669, #574, #44, .T. ) ;
#8 = CARTESIAN_POINT ( 'NONE',  ( -100.4589468390125688, -3.650000000000000355, 57.99999999996935429 ) ) ;
#9 = DIRECTION ( 'NONE',  ( 0.000000000000000000, 1.000000000000000000, 0.000000000000000000 ) ) ;
#10 = ORIENTED_EDGE ( 'NONE', *, *, #113, .F. ) ;
#11 = ORIENTED_EDGE ( 'NONE', *, *, #674, .F. ) ;
#12 = AXIS2_PLACEMENT_3D ( 'NONE', #609, #138, #406 ) ;
#13 = DIRECTION ( 'NONE',  ( 0.000000000000000000, 0.000000000000000000, 1.000000000000000000 ) ) ;
#14 = CARTESIAN_POINT ( 'NONE',  ( 0.000000000000000000, 6.349999999999999645, -124.9999999999999858 ) ) ;
#15 = VERTEX_POINT ( 'NONE', #20 ) ;
#16 = ORIENTED_EDGE ( 'NONE', *, *, #497, .T. ) ;
#17 = DIRECTION ( 'NONE',  ( 0.000000000000000000, 0.000000000000000000, 1.000000000000000000 ) ) ;
#18 = EDGE_CURVE ( 'NONE', #312, #422, #746, .T. ) ;
#19 = ORIENTED_EDGE ( 'NONE', *, *, #525, .F. ) ;
#20 = CARTESIAN_POINT ( 'NONE',  ( -105.4589468390099540, 6.349999999999999645, 49.33974596212346597 ) ) ;
#21 = CARTESIAN_POINT ( 'NONE',  ( 110.4442982199798706, 0.000000000000000000, 58.54107097325903197 ) ) ;
#22 = AXIS2_PLACEMENT_3D ( 'NONE', #305, #392, #250 ) ;
#23 = CARTESIAN_POINT ( 'NONE',  ( -110.4442982200064733, 0.000000000000000000, 58.54107097320881081 ) ) ;
#24 = CIRCLE ( 'NONE', #743, 124.9999999999999858 ) ;
#25 = EDGE_LOOP ( 'NONE', ( #807, #595 ) ) ;
#26 = ORIENTED_EDGE ( 'NONE', *, *, #750, .T. ) ;
#27 = DIRECTION ( 'NONE',  ( 0.000000000000000000, 1.000000000000000000, 0.000000000000000000 ) ) ;
#28 = ORIENTED_EDGE ( 'NONE', *, *, #86, .T. ) ;
#29 = ORIENTED_EDGE ( 'NONE', *, *, #550, .T. ) ;
#30 = EDGE_CURVE ( 'NONE', #103, #858, #868, .T. ) ;
#31 = CARTESIAN_POINT ( 'NONE',  ( -100.4589468390125688, 0.000000000000000000, 57.99999999996935429 ) ) ;
#32 = DIRECTION ( 'NONE',  ( 0.000000000000000000, 0.000000000000000000, 1.000000000000000000 ) ) ;
#33 = ORIENTED_EDGE ( 'NONE', *, *, #798, .F. ) ;
#34 = ORIENTED_EDGE ( 'NONE', *, *, #355, .F. ) ;
#35 = EDGE_CURVE ( 'NONE', #827, #562, #472, .T. ) ;
#36 = FACE_OUTER_BOUND ( 'NONE', #882, .T. ) ;
#37 = CYLINDRICAL_SURFACE ( 'NONE', #814, 2.499999999999995115 ) ;
#38 = VECTOR ( 'NONE', #193, 1000.000000000000000 ) ;
#39 = VERTEX_POINT ( 'NONE', #859 ) ;
#40 = EDGE_LOOP ( 'NONE', ( #163, #202, #189, #345 ) ) ;
#41 =( NAMED_UNIT ( * ) PLANE_ANGLE_UNIT ( ) SI_UNIT ( $, .RADIAN. ) );
#42 = CYLINDRICAL_SURFACE ( 'NONE', #239, 2.499999999999995115 ) ;
#43 = AXIS2_PLACEMENT_3D ( 'NONE', #820, #399, #680 ) ;
#44 = CIRCLE ( 'NONE', #358, 9.999999999999994671 ) ;
#45 = ORIENTED_EDGE ( 'NONE', *, *, #322, .F. ) ;
#46 = FACE_OUTER_BOUND ( 'NONE', #777, .T. ) ;
#47 = DIRECTION ( 'NONE',  ( -0.000000000000000000, 1.000000000000000000, -0.000000000000000000 ) ) ;
#48 = CARTESIAN_POINT ( 'NONE',  ( 100.4589468389860372, 0.000000000000000000, 60.50000000001532641 ) ) ;
#49 = EDGE_CURVE ( 'NONE', #582, #797, #237, .T. ) ;
#50 = ORIENTED_EDGE ( 'NONE', *, *, #474, .F. ) ;
#51 = LINE ( 'NONE', #729, #258 ) ;
#52 = VERTEX_POINT ( 'NONE', #849 ) ;
#53 = AXIS2_PLACEMENT_3D ( 'NONE', #436, #9, #776 ) ;
#54 = DIRECTION ( 'NONE',  ( 0.000000000000000000, 0.000000000000000000, -1.000000000000000000 ) ) ;
#55 = EDGE_CURVE ( 'NONE', #690, #39, #174, .T. ) ;
#56 = CARTESIAN_POINT ( 'NONE',  ( -100.4589468390125688, 6.349999999999999645, 57.99999999996935429 ) ) ;
#57 = CARTESIAN_POINT ( 'NONE',  ( 100.4589468389860372, 0.000000000000000000, 58.00000000001533351 ) ) ;
#58 = ADVANCED_FACE ( 'NONE', ( #178 ), #84, .T. ) ;
#59 = CARTESIAN_POINT ( 'NONE',  ( -9.999999999999975131, 0.000000000000000000, 1.196361017915036478E-15 ) ) ;
#60 = LINE ( 'NONE', #336, #228 ) ;
#61 = AXIS2_PLACEMENT_3D ( 'NONE', #830, #350, #152 ) ;
#62 = VECTOR ( 'NONE', #440, 1000.000000000000000 ) ;
#63 = CARTESIAN_POINT ( 'NONE',  ( 5.000000000001318945, 6.349999999999999645, -8.660254037843619912 ) ) ;
#64 = LINE ( 'NONE', #254, #643 ) ;
#65 = AXIS2_PLACEMENT_3D ( 'NONE', #213, #564, #695 ) ;
#66 = ORIENTED_EDGE ( 'NONE', *, *, #68, .F. ) ;
#67 = CARTESIAN_POINT ( 'NONE',  ( 0.000000000000000000, 6.349999999999999645, -115.9999999999999858 ) ) ;
#68 = EDGE_CURVE ( 'NONE', #369, #854, #591, .T. ) ;
#69 = CARTESIAN_POINT ( 'NONE',  ( -100.4589468390125688, 0.000000000000000000, 55.49999999996936140 ) ) ;
#70 = EDGE_CURVE ( 'NONE', #641, #184, #892, .T. ) ;
#71 = ORIENTED_EDGE ( 'NONE', *, *, #798, .T. ) ;
#72 = ORIENTED_EDGE ( 'NONE', *, *, #891, .F. ) ;
#73 = DIRECTION ( 'NONE',  ( 0.8660254037843623243, 0.000000000000000000, 0.5000000000001321165 ) ) ;
#74 = CARTESIAN_POINT ( 'NONE',  ( 4.524094482418473007, -3.650000000000000355, -124.9181034482758577 ) ) ;
#75 = ORIENTED_EDGE ( 'NONE', *, *, #823, .F. ) ;
#76 = VECTOR ( 'NONE', #682, 1000.000000000000000 ) ;
#77 = DIRECTION ( 'NONE',  ( 0.000000000000000000, 1.000000000000000000, -0.000000000000000000 ) ) ;
#78 = CARTESIAN_POINT ( 'NONE',  ( -105.9202037375903842, 0.000000000000000000, 66.37703247500101611 ) ) ;
#79 = ORIENTED_EDGE ( 'NONE', *, *, #605, .T. ) ;
#80 = AXIS2_PLACEMENT_3D ( 'NONE', #363, #449, #635 ) ;
#81 = EDGE_CURVE ( 'NONE', #834, #842, #391, .T. ) ;
#82 = FILL_AREA_STYLE ('',( #554 ) ) ;
#83 = PLANE ( 'NONE',  #701 ) ;
#84 = CYLINDRICAL_SURFACE ( 'NONE', #80, 124.9999999999999858 ) ;
#85 = LINE ( 'NONE', #294, #625 ) ;
#86 = EDGE_CURVE ( 'NONE', #290, #709, #125, .T. ) ;
#87 = LINE ( 'NONE', #424, #496 ) ;
#88 = ORIENTED_EDGE ( 'NONE', *, *, #81, .T. ) ;
#89 = ORIENTED_EDGE ( 'NONE', *, *, #155, .F. ) ;
#90 = AXIS2_PLACEMENT_3D ( 'NONE', #504, #619, #364 ) ;
#91 = CARTESIAN_POINT ( 'NONE',  ( 10.00000000000000355, -3.650000000000000355, -1.196361017915039831E-15 ) ) ;
#92 = ORIENTED_EDGE ( 'NONE', *, *, #460, .F. ) ;
#93 = EDGE_LOOP ( 'NONE', ( #169, #243, #649, #666 ) ) ;
#94 = CYLINDRICAL_SURFACE ( 'NONE', #803, 2.500000000000002220 ) ;
#95 = DIRECTION ( 'NONE',  ( 0.000000000000000000, 0.000000000000000000, 1.000000000000000000 ) ) ;
#96 = ORIENTED_EDGE ( 'NONE', *, *, #604, .F. ) ;
#97 = EDGE_CURVE ( 'NONE', #375, #877, #686, .T. ) ;
#98 = EDGE_LOOP ( 'NONE', ( #304, #726, #374, #453 ) ) ;
#99 = DIRECTION ( 'NONE',  ( -0.000000000000000000, 1.000000000000000000, -0.000000000000000000 ) ) ;
#100 = CARTESIAN_POINT ( 'NONE',  ( -105.4589468390099540, 0.000000000000000000, 49.33974596212346597 ) ) ;
#101 = ORIENTED_EDGE ( 'NONE', *, *, #168, .T. ) ;
#102 = PRODUCT ( 'Platform', 'Platform', '', ( #222 ) ) ;
#103 = VERTEX_POINT ( 'NONE', #679 ) ;
#104 = APPLICATION_CONTEXT ( 'automotive_design' ) ;
#105 = LINE ( 'NONE', #737, #714 ) ;
#106 = DIRECTION ( 'NONE',  ( -0.000000000000000000, 1.000000000000000000, -0.000000000000000000 ) ) ;
#107 = AXIS2_PLACEMENT_3D ( 'NONE', #119, #565, #840 ) ;
#108 = VECTOR ( 'NONE', #400, 1000.000000000000114 ) ;
#109 = ORIENTED_EDGE ( 'NONE', *, *, #263, .F. ) ;
#110 = DIRECTION ( 'NONE',  ( 0.000000000000000000, 0.000000000000000000, 1.000000000000000000 ) ) ;
#111 = VECTOR ( 'NONE', #555, 1000.000000000000000 ) ;
#112 = CARTESIAN_POINT ( 'NONE',  ( 100.4589468389860372, 6.349999999999999645, 60.50000000001532641 ) ) ;
#113 = EDGE_CURVE ( 'NONE', #669, #863, #129, .T. ) ;
#114 = LINE ( 'NONE', #48, #151 ) ;
#115 = VECTOR ( 'NONE', #444, 1000.000000000000000 ) ;
#116 = ORIENTED_EDGE ( 'NONE', *, *, #550, .F. ) ;
#117 = FACE_OUTER_BOUND ( 'NONE', #736, .T. ) ;
#118 = ORIENTED_EDGE ( 'NONE', *, *, #727, .F. ) ;
#119 = CARTESIAN_POINT ( 'NONE',  ( -9.999999999999975131, -3.650000000000000355, 1.196361017915036478E-15 ) ) ;
#120 = ADVANCED_FACE ( 'NONE', ( #46 ), #339, .F. ) ;
#121 = AXIS2_PLACEMENT_3D ( 'NONE', #492, #499, #229 ) ;
#122 = EDGE_CURVE ( 'NONE', #452, #15, #60, .T. ) ;
#123 = DIRECTION ( 'NONE',  ( 0.000000000000000000, 1.000000000000000000, 0.000000000000000000 ) ) ;
#124 = CARTESIAN_POINT ( 'NONE',  ( -4.999999999997357669, 0.000000000000000000, -8.660254037845909636 ) ) ;
#125 = LINE ( 'NONE', #280, #556 ) ;
#126 = EDGE_CURVE ( 'NONE', #690, #290, #731, .T. ) ;
#127 = DIRECTION ( 'NONE',  ( 0.000000000000000000, 0.000000000000000000, 1.000000000000000000 ) ) ;
#128 = CARTESIAN_POINT ( 'NONE',  ( -9.999999999999989342, 6.349999999999999645, -115.9999999999999858 ) ) ;
#129 = LINE ( 'NONE', #131, #140 ) ;
#130 = CARTESIAN_POINT ( 'NONE',  ( -110.4442982200064733, 6.349999999999999645, 58.54107097320881081 ) ) ;
#131 = CARTESIAN_POINT ( 'NONE',  ( 100.4589468389860372, -3.650000000000000355, 68.00000000001531930 ) ) ;
#132 = ORIENTED_EDGE ( 'NONE', *, *, #7, .F. ) ;
#133 = AXIS2_PLACEMENT_3D ( 'NONE', #551, #432, #775 ) ;
#134 = EDGE_CURVE ( 'NONE', #545, #521, #64, .T. ) ;
#135 = EDGE_LOOP ( 'NONE', ( #354, #483 ) ) ;
#136 = DIRECTION ( 'NONE',  ( -0.000000000000000000, 1.000000000000000000, -0.000000000000000000 ) ) ;
#137 = EDGE_CURVE ( 'NONE', #858, #383, #747, .T. ) ;
#138 = DIRECTION ( 'NONE',  ( 0.000000000000000000, 1.000000000000000000, 0.000000000000000000 ) ) ;
#139 = ORIENTED_EDGE ( 'NONE', *, *, #247, .F. ) ;
#140 = VECTOR ( 'NONE', #662, 1000.000000000000000 ) ;
#141 = ORIENTED_EDGE ( 'NONE', *, *, #764, .T. ) ;
#142 = APPLICATION_PROTOCOL_DEFINITION ( 'draft international standard', 'automotive_design', 1998, #676 ) ;
#143 = CARTESIAN_POINT ( 'NONE',  ( -4.999999999997357669, -3.650000000000000355, -8.660254037845909636 ) ) ;
#144 = FACE_OUTER_BOUND ( 'NONE', #575, .T. ) ;
#145 = ORIENTED_EDGE ( 'NONE', *, *, #203, .T. ) ;
#146 = CYLINDRICAL_SURFACE ( 'NONE', #223, 10.00000000000000888 ) ;
#147 = CARTESIAN_POINT ( 'NONE',  ( 0.000000000000000000, 0.000000000000000000, 0.000000000000000000 ) ) ;
#148 = ADVANCED_FACE ( 'NONE', ( #479 ), #210, .T. ) ;
#149 = ORIENTED_EDGE ( 'NONE', *, *, #448, .T. ) ;
#150 = AXIS2_PLACEMENT_3D ( 'NONE', #623, #77, #13 ) ;
#151 = VECTOR ( 'NONE', #597, 1000.000000000000000 ) ;
#152 = DIRECTION ( 'NONE',  ( 0.000000000000000000, 0.000000000000000000, 1.000000000000000000 ) ) ;
#153 = DIRECTION ( 'NONE',  ( -0.000000000000000000, 1.000000000000000000, -0.000000000000000000 ) ) ;
#154 = ORIENTED_EDGE ( 'NONE', *, *, #273, .T. ) ;
#155 = EDGE_CURVE ( 'NONE', #661, #184, #459, .T. ) ;
#156 = AXIS2_PLACEMENT_3D ( 'NONE', #309, #571, #870 ) ;
#157 = DIRECTION ( 'NONE',  ( 0.000000000000000000, 0.000000000000000000, 1.000000000000000000 ) ) ;
#158 = DIRECTION ( 'NONE',  ( 0.000000000000000000, 0.000000000000000000, 1.000000000000000000 ) ) ;
#159 = ORIENTED_EDGE ( 'NONE', *, *, #70, .T. ) ;
#160 = ORIENTED_EDGE ( 'NONE', *, *, #191, .F. ) ;
#161 = DIRECTION ( 'NONE',  ( 0.000000000000000000, 0.000000000000000000, 1.000000000000000000 ) ) ;
#162 = CARTESIAN_POINT ( 'NONE',  ( 95.45894683898471555, 0.000000000000000000, 66.66025403785894810 ) ) ;
#163 = ORIENTED_EDGE ( 'NONE', *, *, #81, .F. ) ;
#164 = VERTEX_POINT ( 'NONE', #753 ) ;
#165 = DIRECTION ( 'NONE',  ( 0.000000000000000000, 1.000000000000000000, 0.000000000000000000 ) ) ;
#166 = AXIS2_PLACEMENT_3D ( 'NONE', #67, #334, #890 ) ;
#167 = FACE_BOUND ( 'NONE', #579, .T. ) ;
#168 = EDGE_CURVE ( 'NONE', #164, #617, #188, .T. ) ;
#169 = ORIENTED_EDGE ( 'NONE', *, *, #442, .F. ) ;
#170 = DIRECTION ( 'NONE',  ( -0.000000000000000000, 1.000000000000000000, -0.000000000000000000 ) ) ;
#171 = LINE ( 'NONE', #450, #410 ) ;
#172 = DIRECTION ( 'NONE',  ( 0.000000000000000000, 0.000000000000000000, 1.000000000000000000 ) ) ;
#173 = ORIENTED_EDGE ( 'NONE', *, *, #137, .T. ) ;
#174 = LINE ( 'NONE', #249, #115 ) ;
#175 = CARTESIAN_POINT ( 'NONE',  ( 0.000000000000000000, 6.349999999999999645, -124.9999999999999858 ) ) ;
#176 = CYLINDRICAL_SURFACE ( 'NONE', #879, 10.00000000000000888 ) ;
#177 = EDGE_LOOP ( 'NONE', ( #569, #28, #118, #655 ) ) ;
#178 = FACE_OUTER_BOUND ( 'NONE', #739, .T. ) ;
#179 = ADVANCED_FACE ( 'NONE', ( #615 ), #548, .T. ) ;
#180 = DIRECTION ( 'NONE',  ( -0.8660254037845911412, 0.000000000000000000, 0.4999999999997358224 ) ) ;
#181 = DIRECTION ( 'NONE',  ( 0.000000000000000000, 0.000000000000000000, 1.000000000000000000 ) ) ;
#182 = CIRCLE ( 'NONE', #681, 10.00000000000000888 ) ;
#183 = AXIS2_PLACEMENT_3D ( 'NONE', #675, #825, #478 ) ;
#184 = VERTEX_POINT ( 'NONE', #197 ) ;
#185 = PLANE ( 'NONE',  #22 ) ;
#186 = FACE_BOUND ( 'NONE', #25, .T. ) ;
#187 = PRODUCT_DEFINITION_FORMATION_WITH_SPECIFIED_SOURCE ( 'ANY', '', #102, .NOT_KNOWN. ) ;
#188 = CIRCLE ( 'NONE', #808, 9.999999999999994671 ) ;
#189 = ORIENTED_EDGE ( 'NONE', *, *, #338, .T. ) ;
#190 = FACE_OUTER_BOUND ( 'NONE', #308, .T. ) ;
#191 = EDGE_CURVE ( 'NONE', #797, #532, #835, .T. ) ;
#192 = ORIENTED_EDGE ( 'NONE', *, *, #18, .F. ) ;
#193 = DIRECTION ( 'NONE',  ( 1.196361017915039486E-16, -0.000000000000000000, 1.000000000000000000 ) ) ;
#194 = ADVANCED_FACE ( 'NONE', ( #473, #688, #206, #347 ), #5, .T. ) ;
#195 = CARTESIAN_POINT ( 'NONE',  ( 0.000000000000000000, 6.349999999999999645, -115.9999999999999858 ) ) ;
#196 = CARTESIAN_POINT ( 'NONE',  ( -100.4589468390125688, -3.650000000000000355, 67.99999999996936140 ) ) ;
#197 = CARTESIAN_POINT ( 'NONE',  ( 105.4589468389873588, 0.000000000000000000, 49.33974596217171893 ) ) ;
#198 = AXIS2_PLACEMENT_3D ( 'NONE', #314, #664, #454 ) ;
#199 = VECTOR ( 'NONE', #745, 1000.000000000000227 ) ;
#200 = CARTESIAN_POINT ( 'NONE',  ( 4.524094482418473007, 0.000000000000000000, -124.9181034482758577 ) ) ;
#201 = DIRECTION ( 'NONE',  ( 0.000000000000000000, 0.000000000000000000, 1.000000000000000000 ) ) ;
#202 = ORIENTED_EDGE ( 'NONE', *, *, #769, .F. ) ;
#203 = EDGE_CURVE ( 'NONE', #327, #312, #287, .T. ) ;
#204 = CARTESIAN_POINT ( 'NONE',  ( 100.4589468389860372, 6.349999999999999645, 58.00000000001533351 ) ) ;
#205 = LINE ( 'NONE', #756, #670 ) ;
#206 = FACE_BOUND ( 'NONE', #507, .T. ) ;
#207 = CIRCLE ( 'NONE', #600, 2.499999999999995115 ) ;
#208 = ORIENTED_EDGE ( 'NONE', *, *, #514, .T. ) ;
#209 = FACE_OUTER_BOUND ( 'NONE', #40, .T. ) ;
#210 = CYLINDRICAL_SURFACE ( 'NONE', #852, 9.999999999999994671 ) ;
#211 = VECTOR ( 'NONE', #180, 1000.000000000000000 ) ;
#212 = ORIENTED_EDGE ( 'NONE', *, *, #18, .T. ) ;
#213 = CARTESIAN_POINT ( 'NONE',  ( 0.000000000000000000, 0.000000000000000000, 0.000000000000000000 ) ) ;
#214 = CARTESIAN_POINT ( 'NONE',  ( 10.00000000000000533, 0.000000000000000000, -5.773502691895231465 ) ) ;
#215 = CARTESIAN_POINT ( 'NONE',  ( -100.4589468390125688, 6.349999999999999645, 60.49999999996934719 ) ) ;
#216 = EDGE_CURVE ( 'NONE', #582, #783, #587, .T. ) ;
#217 = ORIENTED_EDGE ( 'NONE', *, *, #253, .F. ) ;
#218 = FACE_OUTER_BOUND ( 'NONE', #705, .T. ) ;
#219 = CARTESIAN_POINT ( 'NONE',  ( -100.4589468390125688, 0.000000000000000000, 60.49999999996934719 ) ) ;
#220 = EDGE_CURVE ( 'NONE', #435, #394, #673, .T. ) ;
#221 = ORIENTED_EDGE ( 'NONE', *, *, #607, .F. ) ;
#222 = PRODUCT_CONTEXT ( 'NONE', #104, 'mechanical' ) ;
#223 = AXIS2_PLACEMENT_3D ( 'NONE', #8, #419, #843 ) ;
#224 = CARTESIAN_POINT ( 'NONE',  ( -5.000000000001318945, 6.349999999999999645, 8.660254037843619912 ) ) ;
#225 = DIRECTION ( 'NONE',  ( -0.000000000000000000, 1.000000000000000000, -0.000000000000000000 ) ) ;
#226 = ORIENTED_EDGE ( 'NONE', *, *, #216, .T. ) ;
#227 = DIRECTION ( 'NONE',  ( 0.000000000000000000, 0.000000000000000000, 1.000000000000000000 ) ) ;
#228 = VECTOR ( 'NONE', #276, 1000.000000000000000 ) ;
#229 = DIRECTION ( 'NONE',  ( -0.8660254037845911412, 0.000000000000000000, 0.4999999999997358224 ) ) ;
#230 = DIRECTION ( 'NONE',  ( 0.000000000000000000, 1.000000000000000000, 0.000000000000000000 ) ) ;
#231 = ORIENTED_EDGE ( 'NONE', *, *, #333, .F. ) ;
#232 = ORIENTED_EDGE ( 'NONE', *, *, #285, .T. ) ;
#233 = EDGE_CURVE ( 'NONE', #617, #103, #505, .T. ) ;
#234 = CARTESIAN_POINT ( 'NONE',  ( -100.4589468390125688, 0.000000000000000000, 55.49999999996936140 ) ) ;
#235 = CARTESIAN_POINT ( 'NONE',  ( 100.4589468389860372, 0.000000000000000000, 58.00000000001533351 ) ) ;
#236 = ORIENTED_EDGE ( 'NONE', *, *, #126, .F. ) ;
#237 = LINE ( 'NONE', #794, #663 ) ;
#238 = DIRECTION ( 'NONE',  ( -0.000000000000000000, 1.000000000000000000, -0.000000000000000000 ) ) ;
#239 = AXIS2_PLACEMENT_3D ( 'NONE', #593, #523, #801 ) ;
#240 = AXIS2_PLACEMENT_3D ( 'NONE', #821, #748, #537 ) ;
#241 = CARTESIAN_POINT ( 'NONE',  ( -100.4589468390125688, 0.000000000000000000, 57.99999999996935429 ) ) ;
#242 = ORIENTED_EDGE ( 'NONE', *, *, #514, .F. ) ;
#243 = ORIENTED_EDGE ( 'NONE', *, *, #216, .F. ) ;
#244 = CARTESIAN_POINT ( 'NONE',  ( -105.9202037375903842, 6.349999999999999645, 66.37703247500101611 ) ) ;
#245 = ADVANCED_FACE ( 'NONE', ( #144 ), #83, .F. ) ;
#246 = FACE_OUTER_BOUND ( 'NONE', #389, .T. ) ;
#247 = EDGE_CURVE ( 'NONE', #783, #582, #441, .T. ) ;
#248 = ORIENTED_EDGE ( 'NONE', *, *, #233, .T. ) ;
#249 = CARTESIAN_POINT ( 'NONE',  ( -2.634611279139775775E-12, -3.650000000000000355, 11.54700538379200836 ) ) ;
#250 = DIRECTION ( 'NONE',  ( 0.8660254037843624353, 0.000000000000000000, 0.5000000000001321165 ) ) ;
#251 = DIRECTION ( 'NONE',  ( 0.000000000000000000, 0.000000000000000000, 1.000000000000000000 ) ) ;
#252 = ORIENTED_EDGE ( 'NONE', *, *, #291, .F. ) ;
#253 = EDGE_CURVE ( 'NONE', #549, #869, #368, .T. ) ;
#254 = CARTESIAN_POINT ( 'NONE',  ( 10.00000000000000355, 6.349999999999999645, -1.196361017915039831E-15 ) ) ;
#255 = FACE_OUTER_BOUND ( 'NONE', #793, .T. ) ;
#256 = FACE_OUTER_BOUND ( 'NONE', #93, .T. ) ;
#257 = CIRCLE ( 'NONE', #150, 9.999999999999994671 ) ;
#258 = VECTOR ( 'NONE', #862, 1000.000000000000000 ) ;
#259 = ORIENTED_EDGE ( 'NONE', *, *, #49, .F. ) ;
#260 = CARTESIAN_POINT ( 'NONE',  ( 0.000000000000000000, 0.000000000000000000, -115.9999999999999858 ) ) ;
#261 = AXIS2_PLACEMENT_3D ( 'NONE', #684, #476, #344 ) ;
#262 = ORIENTED_EDGE ( 'NONE', *, *, #273, .F. ) ;
#263 = EDGE_CURVE ( 'NONE', #184, #394, #629, .T. ) ;
#264 = LINE ( 'NONE', #124, #732 ) ;
#265 =( NAMED_UNIT ( * ) SI_UNIT ( $, .STERADIAN. ) SOLID_ANGLE_UNIT ( ) );
#266 = CARTESIAN_POINT ( 'NONE',  ( 0.000000000000000000, 0.000000000000000000, -113.4999999999999858 ) ) ;
#267 = CARTESIAN_POINT ( 'NONE',  ( 0.000000000000000000, 6.349999999999999645, 0.000000000000000000 ) ) ;
#268 = VECTOR ( 'NONE', #687, 1000.000000000000000 ) ;
#269 = AXIS2_PLACEMENT_3D ( 'NONE', #382, #316, #172 ) ;
#270 = FACE_OUTER_BOUND ( 'NONE', #699, .T. ) ;
#271 = DIRECTION ( 'NONE',  ( -0.000000000000000000, 1.000000000000000000, -0.000000000000000000 ) ) ;
#272 = AXIS2_PLACEMENT_3D ( 'NONE', #57, #822, #2 ) ;
#273 = EDGE_CURVE ( 'NONE', #164, #545, #560, .T. ) ;
#274 = ORIENTED_EDGE ( 'NONE', *, *, #867, .F. ) ;
#275 = DIRECTION ( 'NONE',  ( 0.000000000000000000, 0.000000000000000000, 1.000000000000000000 ) ) ;
#276 = DIRECTION ( 'NONE',  ( -0.000000000000000000, 1.000000000000000000, -0.000000000000000000 ) ) ;
#277 = ORIENTED_EDGE ( 'NONE', *, *, #303, .F. ) ;
#278 = UNCERTAINTY_MEASURE_WITH_UNIT (LENGTH_MEASURE( 1.000000000000000082E-05 ), #711, 'distance_accuracy_value', 'NONE');
#279 = CARTESIAN_POINT ( 'NONE',  ( 100.4589468389860372, 0.000000000000000000, 68.00000000001531930 ) ) ;
#280 = CARTESIAN_POINT ( 'NONE',  ( 95.45894683898471555, -3.650000000000000355, 66.66025403785894810 ) ) ;
#281 = VERTEX_POINT ( 'NONE', #215 ) ;
#282 = CIRCLE ( 'NONE', #133, 10.00000000000000888 ) ;
#283 = ORIENTED_EDGE ( 'NONE', *, *, #792, .F. ) ;
#284 = SHAPE_DEFINITION_REPRESENTATION ( #516, #307 ) ;
#285 = EDGE_CURVE ( 'NONE', #317, #827, #465, .T. ) ;
#286 = DIRECTION ( 'NONE',  ( -0.8660254037845911412, 0.000000000000000000, 0.4999999999997358224 ) ) ;
#287 = CIRCLE ( 'NONE', #850, 124.9999999999999858 ) ;
#288 = CARTESIAN_POINT ( 'NONE',  ( 0.000000000000000000, 0.000000000000000000, 0.000000000000000000 ) ) ;
#289 = VECTOR ( 'NONE', #596, 1000.000000000000227 ) ;
#290 = VERTEX_POINT ( 'NONE', #162 ) ;
#291 = EDGE_CURVE ( 'NONE', #398, #760, #87, .T. ) ;
#292 = CARTESIAN_POINT ( 'NONE',  ( 0.000000000000000000, 0.000000000000000000, 0.000000000000000000 ) ) ;
#293 = ORIENTED_EDGE ( 'NONE', *, *, #792, .T. ) ;
#294 = CARTESIAN_POINT ( 'NONE',  ( -9.999999999999975131, 6.349999999999999645, 1.196361017915036478E-15 ) ) ;
#295 = FACE_OUTER_BOUND ( 'NONE', #98, .T. ) ;
#296 = EDGE_LOOP ( 'NONE', ( #833, #563, #232, #650 ) ) ;
#297 = DIRECTION ( 'NONE',  ( 0.000000000000000000, 0.000000000000000000, 1.000000000000000000 ) ) ;
#298 = AXIS2_PLACEMENT_3D ( 'NONE', #260, #812, #275 ) ;
#299 = CYLINDRICAL_SURFACE ( 'NONE', #638, 2.499999999999995115 ) ;
#300 = PRODUCT_DEFINITION ( 'UNKNOWN', '', #187, #618 ) ;
#301 = CARTESIAN_POINT ( 'NONE',  ( -100.4589468390125688, 6.349999999999999645, 57.99999999996935429 ) ) ;
#302 = ORIENTED_EDGE ( 'NONE', *, *, #122, .T. ) ;
#303 = EDGE_CURVE ( 'NONE', #869, #839, #804, .T. ) ;
#304 = ORIENTED_EDGE ( 'NONE', *, *, #35, .T. ) ;
#305 = CARTESIAN_POINT ( 'NONE',  ( 5.000000000001318945, -3.650000000000000355, -8.660254037843619912 ) ) ;
#306 = CARTESIAN_POINT ( 'NONE',  ( -100.4589468390125688, 0.000000000000000000, 57.99999999996935429 ) ) ;
#307 = ADVANCED_BREP_SHAPE_REPRESENTATION ( 'Platform', ( #759, #65 ), #720 ) ;
#308 = EDGE_LOOP ( 'NONE', ( #501, #384, #588, #430 ) ) ;
#309 = CARTESIAN_POINT ( 'NONE',  ( 0.000000000000000000, 0.000000000000000000, -115.9999999999999858 ) ) ;
#310 = DIRECTION ( 'NONE',  ( -0.000000000000000000, 1.000000000000000000, -0.000000000000000000 ) ) ;
#311 = FACE_BOUND ( 'NONE', #135, .T. ) ;
#312 = VERTEX_POINT ( 'NONE', #78 ) ;
#313 = ORIENTED_EDGE ( 'NONE', *, *, #594, .T. ) ;
#314 = CARTESIAN_POINT ( 'NONE',  ( -100.4589468390125688, 6.349999999999999645, 57.99999999996935429 ) ) ;
#315 = EDGE_CURVE ( 'NONE', #834, #873, #207, .T. ) ;
#316 = DIRECTION ( 'NONE',  ( 0.000000000000000000, 1.000000000000000000, 0.000000000000000000 ) ) ;
#317 = VERTEX_POINT ( 'NONE', #365 ) ;
#318 = DIRECTION ( 'NONE',  ( 0.000000000000000000, 1.000000000000000000, 0.000000000000000000 ) ) ;
#319 = DIRECTION ( 'NONE',  ( 0.000000000000000000, 0.000000000000000000, 1.000000000000000000 ) ) ;
#320 = CIRCLE ( 'NONE', #818, 2.499999999999995115 ) ;
#321 = CARTESIAN_POINT ( 'NONE',  ( 3.061616997868384127E-16, 0.000000000000000000, -118.5000000000000000 ) ) ;
#322 = EDGE_CURVE ( 'NONE', #858, #317, #703, .T. ) ;
#323 = ORIENTED_EDGE ( 'NONE', *, *, #448, .F. ) ;
#324 = CARTESIAN_POINT ( 'NONE',  ( -5.000000000001318945, 0.000000000000000000, 8.660254037843619912 ) ) ;
#325 = LINE ( 'NONE', #463, #883 ) ;
#326 = CARTESIAN_POINT ( 'NONE',  ( 105.4589468389873588, 6.349999999999999645, 49.33974596217171893 ) ) ;
#327 = VERTEX_POINT ( 'NONE', #23 ) ;
#328 = VECTOR ( 'NONE', #373, 1000.000000000000000 ) ;
#329 = CARTESIAN_POINT ( 'NONE',  ( -9.999999999999973355, 0.000000000000000000, -5.773502691898302785 ) ) ;
#330 = CIRCLE ( 'NONE', #878, 2.499999999999995115 ) ;
#331 = AXIS2_PLACEMENT_3D ( 'NONE', #235, #446, #32 ) ;
#332 = ORIENTED_EDGE ( 'NONE', *, *, #485, .F. ) ;
#333 = EDGE_CURVE ( 'NONE', #574, #661, #24, .T. ) ;
#334 = DIRECTION ( 'NONE',  ( 0.000000000000000000, 1.000000000000000000, -0.000000000000000000 ) ) ;
#335 = CARTESIAN_POINT ( 'NONE',  ( 10.00000000000000533, 6.349999999999999645, -5.773502691895231465 ) ) ;
#336 = CARTESIAN_POINT ( 'NONE',  ( -105.4589468390099540, -3.650000000000000355, 49.33974596212346597 ) ) ;
#337 = DIRECTION ( 'NONE',  ( 0.000000000000000000, 1.000000000000000000, 0.000000000000000000 ) ) ;
#338 = EDGE_CURVE ( 'NONE', #873, #281, #841, .T. ) ;
#339 = CYLINDRICAL_SURFACE ( 'NONE', #893, 2.499999999999995115 ) ;
#340 = AXIS2_PLACEMENT_3D ( 'NONE', #547, #678, #54 ) ;
#341 = ORIENTED_EDGE ( 'NONE', *, *, #567, .T. ) ;
#342 = UNCERTAINTY_MEASURE_WITH_UNIT (LENGTH_MEASURE( 1.000000000000000082E-05 ), #671, 'distance_accuracy_value', 'NONE');
#343 = CARTESIAN_POINT ( 'NONE',  ( -95.45894683901521205, -3.650000000000000355, 66.66025403781527814 ) ) ;
#344 = DIRECTION ( 'NONE',  ( 0.000000000000000000, 0.000000000000000000, 1.000000000000000000 ) ) ;
#345 = ORIENTED_EDGE ( 'NONE', *, *, #355, .T. ) ;
#346 = CARTESIAN_POINT ( 'NONE',  ( 3.061616997868382155E-16, 6.349999999999999645, -118.5000000000000000 ) ) ;
#347 = FACE_OUTER_BOUND ( 'NONE', #626, .T. ) ;
#348 = ORIENTED_EDGE ( 'NONE', *, *, #594, .F. ) ;
#349 = ORIENTED_EDGE ( 'NONE', *, *, #823, .T. ) ;
#350 = DIRECTION ( 'NONE',  ( 0.000000000000000000, 1.000000000000000000, 0.000000000000000000 ) ) ;
#351 = DIRECTION ( 'NONE',  ( 0.000000000000000000, 1.000000000000000000, 0.000000000000000000 ) ) ;
#352 = ORIENTED_EDGE ( 'NONE', *, *, #837, .F. ) ;
#353 = AXIS2_PLACEMENT_3D ( 'NONE', #853, #225, #251 ) ;
#354 = ORIENTED_EDGE ( 'NONE', *, *, #769, .T. ) ;
#355 = EDGE_CURVE ( 'NONE', #281, #842, #528, .T. ) ;
#356 = FACE_OUTER_BOUND ( 'NONE', #778, .T. ) ;
#357 = DIRECTION ( 'NONE',  ( 0.000000000000000000, 0.000000000000000000, 1.000000000000000000 ) ) ;
#358 = AXIS2_PLACEMENT_3D ( 'NONE', #583, #318, #799 ) ;
#359 = AXIS2_PLACEMENT_3D ( 'NONE', #267, #540, #552 ) ;
#360 = VERTEX_POINT ( 'NONE', #573 ) ;
#361 = PLANE ( 'NONE',  #755 ) ;
#362 = DIRECTION ( 'NONE',  ( 0.000000000000000000, 1.000000000000000000, 0.000000000000000000 ) ) ;
#363 = CARTESIAN_POINT ( 'NONE',  ( 0.000000000000000000, 6.349999999999999645, 0.000000000000000000 ) ) ;
#364 = DIRECTION ( 'NONE',  ( 0.000000000000000000, 0.000000000000000000, 1.000000000000000000 ) ) ;
#365 = CARTESIAN_POINT ( 'NONE',  ( 0.000000000000000000, 0.000000000000000000, -124.9999999999999858 ) ) ;
#366 = ADVANCED_FACE ( 'NONE', ( #295 ), #845, .T. ) ;
#367 = ORIENTED_EDGE ( 'NONE', *, *, #861, .T. ) ;
#368 = CIRCLE ( 'NONE', #53, 124.9999999999999858 ) ;
#369 = VERTEX_POINT ( 'NONE', #876 ) ;
#370 = AXIS2_PLACEMENT_3D ( 'NONE', #702, #572, #161 ) ;
#371 = AXIS2_PLACEMENT_3D ( 'NONE', #665, #586, #519 ) ;
#372 = DIRECTION ( 'NONE',  ( -0.000000000000000000, -1.000000000000000000, -0.000000000000000000 ) ) ;
#373 = DIRECTION ( 'NONE',  ( -0.000000000000000000, 1.000000000000000000, -0.000000000000000000 ) ) ;
#374 = ORIENTED_EDGE ( 'NONE', *, *, #645, .F. ) ;
#375 = VERTEX_POINT ( 'NONE', #668 ) ;
#376 = AXIS2_PLACEMENT_3D ( 'NONE', #832, #749, #500 ) ;
#377 = LINE ( 'NONE', #456, #62 ) ;
#378 = ORIENTED_EDGE ( 'NONE', *, *, #233, .F. ) ;
#379 = ORIENTED_EDGE ( 'NONE', *, *, #55, .T. ) ;
#380 = ADVANCED_FACE ( 'NONE', ( #311, #186, #167, #117 ), #738, .F. ) ;
#381 = DIRECTION ( 'NONE',  ( -0.000000000000000000, 1.000000000000000000, -0.000000000000000000 ) ) ;
#382 = CARTESIAN_POINT ( 'NONE',  ( 0.000000000000000000, 6.349999999999999645, -115.9999999999999858 ) ) ;
#383 = VERTEX_POINT ( 'NONE', #735 ) ;
#384 = ORIENTED_EDGE ( 'NONE', *, *, #291, .T. ) ;
#385 = ADVANCED_FACE ( 'NONE', ( #652 ), #866, .T. ) ;
#386 = CIRCLE ( 'NONE', #90, 124.9999999999999858 ) ;
#387 = CARTESIAN_POINT ( 'NONE',  ( -4.524094482418473007, 0.000000000000000000, -124.9181034482758577 ) ) ;
#388 = CARTESIAN_POINT ( 'NONE',  ( 0.000000000000000000, 6.349999999999999645, 0.000000000000000000 ) ) ;
#389 = EDGE_LOOP ( 'NONE', ( #491, #646, #774, #510 ) ) ;
#390 = AXIS2_PLACEMENT_3D ( 'NONE', #763, #27, #158 ) ;
#391 = LINE ( 'NONE', #69, #704 ) ;
#392 = DIRECTION ( 'NONE',  ( -0.5000000000001321165, 0.000000000000000000, 0.8660254037843624353 ) ) ;
#393 = CARTESIAN_POINT ( 'NONE',  ( 110.4442982199798706, 6.349999999999999645, 58.54107097325903197 ) ) ;
#394 = VERTEX_POINT ( 'NONE', #326 ) ;
#395 = DIRECTION ( 'NONE',  ( 0.000000000000000000, 1.000000000000000000, 0.000000000000000000 ) ) ;
#396 = VECTOR ( 'NONE', #428, 1000.000000000000000 ) ;
#397 = EDGE_CURVE ( 'NONE', #164, #641, #51, .T. ) ;
#398 = VERTEX_POINT ( 'NONE', #329 ) ;
#399 = DIRECTION ( 'NONE',  ( 0.000000000000000000, 1.000000000000000000, 0.000000000000000000 ) ) ;
#400 = DIRECTION ( 'NONE',  ( 0.8660254037843623243, 0.000000000000000000, 0.5000000000001321165 ) ) ;
#401 = CIRCLE ( 'NONE', #166, 9.999999999999994671 ) ;
#402 = DIRECTION ( 'NONE',  ( -0.000000000000000000, 1.000000000000000000, -0.000000000000000000 ) ) ;
#403 = CARTESIAN_POINT ( 'NONE',  ( 5.000000000001318945, 0.000000000000000000, -8.660254037843619912 ) ) ;
#404 = ADVANCED_FACE ( 'NONE', ( #461 ), #601, .T. ) ;
#405 = LINE ( 'NONE', #467, #538 ) ;
#406 = DIRECTION ( 'NONE',  ( 0.000000000000000000, 0.000000000000000000, 1.000000000000000000 ) ) ;
#407 = ADVANCED_FACE ( 'NONE', ( #796 ), #176, .T. ) ;
#408 = LINE ( 'NONE', #63, #108 ) ;
#409 = CARTESIAN_POINT ( 'NONE',  ( 0.000000000000000000, 0.000000000000000000, -115.9999999999999858 ) ) ;
#410 = VECTOR ( 'NONE', #381, 1000.000000000000000 ) ;
#411 = AXIS2_PLACEMENT_3D ( 'NONE', #642, #566, #697 ) ;
#412 = ORIENTED_EDGE ( 'NONE', *, *, #220, .T. ) ;
#413 = ORIENTED_EDGE ( 'NONE', *, *, #659, .T. ) ;
#414 = CYLINDRICAL_SURFACE ( 'NONE', #611, 9.999999999999994671 ) ;
#415 = AXIS2_PLACEMENT_3D ( 'NONE', #784, #372, #512 ) ;
#416 = DIRECTION ( 'NONE',  ( 0.000000000000000000, 1.000000000000000000, 0.000000000000000000 ) ) ;
#417 = AXIS2_PLACEMENT_3D ( 'NONE', #535, #813, #826 ) ;
#418 = ORIENTED_EDGE ( 'NONE', *, *, #35, .F. ) ;
#419 = DIRECTION ( 'NONE',  ( -0.000000000000000000, 1.000000000000000000, -0.000000000000000000 ) ) ;
#420 = DIRECTION ( 'NONE',  ( 0.000000000000000000, 1.000000000000000000, -0.000000000000000000 ) ) ;
#421 = EDGE_CURVE ( 'NONE', #854, #369, #481, .T. ) ;
#422 = VERTEX_POINT ( 'NONE', #719 ) ;
#423 = CARTESIAN_POINT ( 'NONE',  ( 105.9202037375598024, 6.349999999999999645, 66.37703247504980197 ) ) ;
#424 = CARTESIAN_POINT ( 'NONE',  ( -9.999999999999973355, -3.650000000000000355, -5.773502691898302785 ) ) ;
#425 = AXIS2_PLACEMENT_3D ( 'NONE', #56, #337, #815 ) ;
#426 = ORIENTED_EDGE ( 'NONE', *, *, #474, .T. ) ;
#427 = CARTESIAN_POINT ( 'NONE',  ( -2.634611279139775775E-12, 0.000000000000000000, 11.54700538379200836 ) ) ;
#428 = DIRECTION ( 'NONE',  ( -0.000000000000000000, 1.000000000000000000, -0.000000000000000000 ) ) ;
#429 = EDGE_LOOP ( 'NONE', ( #787, #598, #437, #847 ) ) ;
#430 = ORIENTED_EDGE ( 'NONE', *, *, #534, .F. ) ;
#431 = ADVANCED_FACE ( 'NONE', ( #660 ), #37, .F. ) ;
#432 = DIRECTION ( 'NONE',  ( 0.000000000000000000, 1.000000000000000000, -0.000000000000000000 ) ) ;
#433 = DIRECTION ( 'NONE',  ( 0.000000000000000000, 1.000000000000000000, 0.000000000000000000 ) ) ;
#434 = ORIENTED_EDGE ( 'NONE', *, *, #674, .T. ) ;
#435 = VERTEX_POINT ( 'NONE', #393 ) ;
#436 = CARTESIAN_POINT ( 'NONE',  ( 0.000000000000000000, 6.349999999999999645, 0.000000000000000000 ) ) ;
#437 = ORIENTED_EDGE ( 'NONE', *, *, #880, .F. ) ;
#438 = EDGE_LOOP ( 'NONE', ( #379, #71, #242, #50 ) ) ;
#439 = VECTOR ( 'NONE', #47, 1000.000000000000000 ) ;
#440 = DIRECTION ( 'NONE',  ( -0.8660254037845911412, 0.000000000000000000, 0.4999999999997358224 ) ) ;
#441 = CIRCLE ( 'NONE', #789, 2.500000000000002220 ) ;
#442 = EDGE_CURVE ( 'NONE', #783, #532, #791, .T. ) ;
#443 = ORIENTED_EDGE ( 'NONE', *, *, #659, .F. ) ;
#444 = DIRECTION ( 'NONE',  ( -0.000000000000000000, 1.000000000000000000, -0.000000000000000000 ) ) ;
#445 = CARTESIAN_POINT ( 'NONE',  ( -100.4589468390125688, 6.349999999999999645, 67.99999999996936140 ) ) ;
#446 = DIRECTION ( 'NONE',  ( 0.000000000000000000, 1.000000000000000000, 0.000000000000000000 ) ) ;
#447 = ORIENTED_EDGE ( 'NONE', *, *, #861, .F. ) ;
#448 = EDGE_CURVE ( 'NONE', #532, #797, #831, .T. ) ;
#449 = DIRECTION ( 'NONE',  ( -0.000000000000000000, -1.000000000000000000, -0.000000000000000000 ) ) ;
#450 = CARTESIAN_POINT ( 'NONE',  ( -105.9202037375903842, -3.650000000000000355, 66.37703247500101611 ) ) ;
#451 = DIRECTION ( 'NONE',  ( -0.000000000000000000, -1.000000000000000000, -0.000000000000000000 ) ) ;
#452 = VERTEX_POINT ( 'NONE', #100 ) ;
#453 = ORIENTED_EDGE ( 'NONE', *, *, #627, .F. ) ;
#454 = DIRECTION ( 'NONE',  ( 0.000000000000000000, 0.000000000000000000, 1.000000000000000000 ) ) ;
#455 = AXIS2_PLACEMENT_3D ( 'NONE', #872, #785, #95 ) ;
#456 = CARTESIAN_POINT ( 'NONE',  ( 4.999999999997360334, 0.000000000000000000, 8.660254037845916741 ) ) ;
#457 = ORIENTED_EDGE ( 'NONE', *, *, #113, .T. ) ;
#458 = DIRECTION ( 'NONE',  ( -0.8660254037845911412, 0.000000000000000000, 0.4999999999997358224 ) ) ;
#459 = CIRCLE ( 'NONE', #261, 9.999999999999994671 ) ;
#460 = EDGE_CURVE ( 'NONE', #422, #52, #889, .T. ) ;
#461 = FACE_OUTER_BOUND ( 'NONE', #557, .T. ) ;
#462 = ORIENTED_EDGE ( 'NONE', *, *, #656, .T. ) ;
#463 = CARTESIAN_POINT ( 'NONE',  ( 105.9202037375598024, -3.650000000000000355, 66.37703247504980197 ) ) ;
#464 = CYLINDRICAL_SURFACE ( 'NONE', #340, 124.9999999999999858 ) ;
#465 = CIRCLE ( 'NONE', #657, 124.9999999999999858 ) ;
#466 = ORIENTED_EDGE ( 'NONE', *, *, #700, .T. ) ;
#467 = CARTESIAN_POINT ( 'NONE',  ( -9.999999999999989342, -3.650000000000000355, -115.9999999999999858 ) ) ;
#468 = CIRCLE ( 'NONE', #425, 2.499999999999995115 ) ;
#469 = DIRECTION ( 'NONE',  ( 0.000000000000000000, 0.000000000000000000, 1.000000000000000000 ) ) ;
#470 = ADVANCED_FACE ( 'NONE', ( #246 ), #42, .F. ) ;
#471 = LINE ( 'NONE', #881, #786 ) ;
#472 = CIRCLE ( 'NONE', #156, 9.999999999999994671 ) ;
#473 = FACE_BOUND ( 'NONE', #765, .T. ) ;
#474 = EDGE_CURVE ( 'NONE', #690, #52, #377, .T. ) ;
#475 = CARTESIAN_POINT ( 'NONE',  ( 100.4589468389860372, -3.650000000000000355, 58.00000000001533351 ) ) ;
#476 = DIRECTION ( 'NONE',  ( 0.000000000000000000, 1.000000000000000000, 0.000000000000000000 ) ) ;
#477 = ORIENTED_EDGE ( 'NONE', *, *, #604, .T. ) ;
#478 = DIRECTION ( 'NONE',  ( 0.000000000000000000, 0.000000000000000000, 1.000000000000000000 ) ) ;
#479 = FACE_OUTER_BOUND ( 'NONE', #824, .T. ) ;
#480 = VECTOR ( 'NONE', #458, 1000.000000000000114 ) ;
#481 = CIRCLE ( 'NONE', #331, 2.499999999999995115 ) ;
#482 = ORIENTED_EDGE ( 'NONE', *, *, #397, .T. ) ;
#483 = ORIENTED_EDGE ( 'NONE', *, *, #315, .T. ) ;
#484 = CARTESIAN_POINT ( 'NONE',  ( -100.4589468390125688, 0.000000000000000000, 57.99999999996935429 ) ) ;
#485 = EDGE_CURVE ( 'NONE', #854, #877, #114, .T. ) ;
#486 = DIRECTION ( 'NONE',  ( 0.000000000000000000, 1.000000000000000000, 0.000000000000000000 ) ) ;
#487 = ORIENTED_EDGE ( 'NONE', *, *, #880, .T. ) ;
#488 = ORIENTED_EDGE ( 'NONE', *, *, #497, .F. ) ;
#489 = DIRECTION ( 'NONE',  ( -0.4999999999997358224, 0.000000000000000000, -0.8660254037845911412 ) ) ;
#490 = CARTESIAN_POINT ( 'NONE',  ( 100.4589468389860372, 6.349999999999999645, 58.00000000001533351 ) ) ;
#491 = ORIENTED_EDGE ( 'NONE', *, *, #605, .F. ) ;
#492 = CARTESIAN_POINT ( 'NONE',  ( 4.999999999997360334, -3.650000000000000355, 8.660254037845916741 ) ) ;
#493 = ADVANCED_FACE ( 'NONE', ( #256 ), #541, .F. ) ;
#494 = DIRECTION ( 'NONE',  ( -0.000000000000000000, 1.000000000000000000, -0.000000000000000000 ) ) ;
#495 = PRESENTATION_LAYER_ASSIGNMENT (  '', '', ( #654 ) ) ;
#496 = VECTOR ( 'NONE', #153, 1000.000000000000000 ) ;
#497 = EDGE_CURVE ( 'NONE', #842, #281, #468, .T. ) ;
#498 = VERTEX_POINT ( 'NONE', #128 ) ;
#499 = DIRECTION ( 'NONE',  ( -0.4999999999997358224, 0.000000000000000000, -0.8660254037845911412 ) ) ;
#500 = DIRECTION ( 'NONE',  ( 0.000000000000000000, -0.000000000000000000, 1.000000000000000000 ) ) ;
#501 = ORIENTED_EDGE ( 'NONE', *, *, #525, .T. ) ;
#502 = AXIS2_PLACEMENT_3D ( 'NONE', #722, #589, #227 ) ;
#503 = ORIENTED_EDGE ( 'NONE', *, *, #867, .T. ) ;
#504 = CARTESIAN_POINT ( 'NONE',  ( 0.000000000000000000, 6.349999999999999645, 0.000000000000000000 ) ) ;
#505 = LINE ( 'NONE', #74, #111 ) ;
#506 = ORIENTED_EDGE ( 'NONE', *, *, #741, .T. ) ;
#507 = EDGE_LOOP ( 'NONE', ( #34, #488 ) ) ;
#508 = CARTESIAN_POINT ( 'NONE',  ( 110.4442982199798706, -3.650000000000000355, 58.54107097325903197 ) ) ;
#509 = DIRECTION ( 'NONE',  ( -0.000000000000000000, 1.000000000000000000, -0.000000000000000000 ) ) ;
#510 = ORIENTED_EDGE ( 'NONE', *, *, #891, .T. ) ;
#511 = ORIENTED_EDGE ( 'NONE', *, *, #220, .F. ) ;
#512 = DIRECTION ( 'NONE',  ( 0.000000000000000000, 0.000000000000000000, -1.000000000000000000 ) ) ;
#513 = DIRECTION ( 'NONE',  ( -0.000000000000000000, 1.000000000000000000, -0.000000000000000000 ) ) ;
#514 = EDGE_CURVE ( 'NONE', #52, #360, #614, .T. ) ;
#515 = ORIENTED_EDGE ( 'NONE', *, *, #607, .T. ) ;
#516 = PRODUCT_DEFINITION_SHAPE ( 'NONE', 'NONE',  #300 ) ;
#517 = CARTESIAN_POINT ( 'NONE',  ( 0.000000000000000000, 6.349999999999999645, 0.000000000000000000 ) ) ;
#518 = DIRECTION ( 'NONE',  ( 0.000000000000000000, 0.000000000000000000, 1.000000000000000000 ) ) ;
#519 = DIRECTION ( 'NONE',  ( 0.000000000000000000, 0.000000000000000000, 1.000000000000000000 ) ) ;
#520 = ORIENTED_EDGE ( 'NONE', *, *, #567, .F. ) ;
#521 = VERTEX_POINT ( 'NONE', #335 ) ;
#522 = CARTESIAN_POINT ( 'NONE',  ( -100.4589468390125688, 6.349999999999999645, 55.49999999996936140 ) ) ;
#523 = DIRECTION ( 'NONE',  ( -0.000000000000000000, 1.000000000000000000, -0.000000000000000000 ) ) ;
#524 = EDGE_LOOP ( 'NONE', ( #10, #706, #487, #348 ) ) ;
#525 = EDGE_CURVE ( 'NONE', #562, #398, #752, .T. ) ;
#526 = CIRCLE ( 'NONE', #61, 124.9999999999999858 ) ;
#527 = CYLINDRICAL_SURFACE ( 'NONE', #415, 124.9999999999999858 ) ;
#528 = CIRCLE ( 'NONE', #584, 2.499999999999995115 ) ;
#529 = DIRECTION ( 'NONE',  ( 0.000000000000000000, -0.000000000000000000, 1.000000000000000000 ) ) ;
#530 = ORIENTED_EDGE ( 'NONE', *, *, #30, .T. ) ;
#531 = DIRECTION ( 'NONE',  ( -0.000000000000000000, 1.000000000000000000, -0.000000000000000000 ) ) ;
#532 = VERTEX_POINT ( 'NONE', #346 ) ;
#533 = DIRECTION ( 'NONE',  ( 0.000000000000000000, 0.000000000000000000, 1.000000000000000000 ) ) ;
#534 = EDGE_CURVE ( 'NONE', #562, #498, #405, .T. ) ;
#535 = CARTESIAN_POINT ( 'NONE',  ( -5.000000000001318945, -3.650000000000000355, 8.660254037843619912 ) ) ;
#536 = COLOUR_RGB ( '',0.7921568627450980005, 0.8196078431372548767, 0.9333333333333333481 ) ;
#537 = DIRECTION ( 'NONE',  ( 0.000000000000000000, 0.000000000000000000, 1.000000000000000000 ) ) ;
#538 = VECTOR ( 'NONE', #606, 1000.000000000000000 ) ;
#539 = ADVANCED_FACE ( 'NONE', ( #810 ), #414, .T. ) ;
#540 = DIRECTION ( 'NONE',  ( 0.000000000000000000, 1.000000000000000000, 0.000000000000000000 ) ) ;
#541 = CYLINDRICAL_SURFACE ( 'NONE', #298, 2.500000000000002220 ) ;
#542 = CIRCLE ( 'NONE', #198, 10.00000000000000888 ) ;
#543 = AXIS2_PLACEMENT_3D ( 'NONE', #517, #864, #297 ) ;
#544 = DIRECTION ( 'NONE',  ( -0.000000000000000000, 1.000000000000000000, -0.000000000000000000 ) ) ;
#545 = VERTEX_POINT ( 'NONE', #1 ) ;
#546 = ORIENTED_EDGE ( 'NONE', *, *, #886, .T. ) ;
#547 = CARTESIAN_POINT ( 'NONE',  ( 0.000000000000000000, 6.349999999999999645, 0.000000000000000000 ) ) ;
#548 = PLANE ( 'NONE',  #417 ) ;
#549 = VERTEX_POINT ( 'NONE', #130 ) ;
#550 = EDGE_CURVE ( 'NONE', #521, #394, #408, .T. ) ;
#551 = CARTESIAN_POINT ( 'NONE',  ( -100.4589468390125688, 6.349999999999999645, 57.99999999996935429 ) ) ;
#552 = DIRECTION ( 'NONE',  ( 0.000000000000000000, 0.000000000000000000, 1.000000000000000000 ) ) ;
#553 = EDGE_LOOP ( 'NONE', ( #788, #88, #16, #811 ) ) ;
#554 = FILL_AREA_STYLE_COLOUR ( '', #536 ) ;
#555 = DIRECTION ( 'NONE',  ( -0.000000000000000000, 1.000000000000000000, -0.000000000000000000 ) ) ;
#556 = VECTOR ( 'NONE', #544, 1000.000000000000000 ) ;
#557 = EDGE_LOOP ( 'NONE', ( #546, #457, #11, #828 ) ) ;
#558 = PRODUCT_RELATED_PRODUCT_CATEGORY ( 'part', '', ( #102 ) ) ;
#559 = FACE_OUTER_BOUND ( 'NONE', #438, .T. ) ;
#560 = LINE ( 'NONE', #857, #396 ) ;
#561 = ADVANCED_FACE ( 'NONE', ( #744 ), #464, .T. ) ;
#562 = VERTEX_POINT ( 'NONE', #884 ) ;
#563 = ORIENTED_EDGE ( 'NONE', *, *, #322, .T. ) ;
#564 = DIRECTION ( 'NONE',  ( 0.000000000000000000, 0.000000000000000000, 1.000000000000000000 ) ) ;
#565 = DIRECTION ( 'NONE',  ( -1.000000000000000000, 0.000000000000000000, 1.196361017915039486E-16 ) ) ;
#566 = DIRECTION ( 'NONE',  ( 0.000000000000000000, 1.000000000000000000, -0.000000000000000000 ) ) ;
#567 = EDGE_CURVE ( 'NONE', #398, #452, #264, .T. ) ;
#568 =( GEOMETRIC_REPRESENTATION_CONTEXT ( 3 ) GLOBAL_UNCERTAINTY_ASSIGNED_CONTEXT ( ( #278 ) ) GLOBAL_UNIT_ASSIGNED_CONTEXT ( ( #711, #41, #805 ) ) REPRESENTATION_CONTEXT ( 'NONE', 'WORKASPACE' ) );
#569 = ORIENTED_EDGE ( 'NONE', *, *, #126, .T. ) ;
#570 = CIRCLE ( 'NONE', #183, 9.999999999999994671 ) ;
#571 = DIRECTION ( 'NONE',  ( 0.000000000000000000, 1.000000000000000000, 0.000000000000000000 ) ) ;
#572 = DIRECTION ( 'NONE',  ( 0.000000000000000000, 1.000000000000000000, -0.000000000000000000 ) ) ;
#573 = CARTESIAN_POINT ( 'NONE',  ( -95.45894683901521205, 6.349999999999999645, 66.66025403781527814 ) ) ;
#574 = VERTEX_POINT ( 'NONE', #672 ) ;
#575 = EDGE_LOOP ( 'NONE', ( #154, #603, #613, #6 ) ) ;
#576 = CYLINDRICAL_SURFACE ( 'NONE', #829, 9.999999999999994671 ) ;
#577 = DIRECTION ( 'NONE',  ( 0.000000000000000000, 0.000000000000000000, 1.000000000000000000 ) ) ;
#578 = ORIENTED_EDGE ( 'NONE', *, *, #460, .T. ) ;
#579 = EDGE_LOOP ( 'NONE', ( #226, #730 ) ) ;
#580 = DIRECTION ( 'NONE',  ( 0.000000000000000000, 0.000000000000000000, 1.000000000000000000 ) ) ;
#581 = DIRECTION ( 'NONE',  ( 0.000000000000000000, 0.000000000000000000, -1.000000000000000000 ) ) ;
#582 = VERTEX_POINT ( 'NONE', #266 ) ;
#583 = CARTESIAN_POINT ( 'NONE',  ( 100.4589468389860372, 0.000000000000000000, 58.00000000001533351 ) ) ;
#584 = AXIS2_PLACEMENT_3D ( 'NONE', #301, #362, #633 ) ;
#585 = LINE ( 'NONE', #508, #439 ) ;
#586 = DIRECTION ( 'NONE',  ( -0.000000000000000000, 1.000000000000000000, -0.000000000000000000 ) ) ;
#587 = CIRCLE ( 'NONE', #390, 2.500000000000002220 ) ;
#588 = ORIENTED_EDGE ( 'NONE', *, *, #741, .F. ) ;
#589 = DIRECTION ( 'NONE',  ( 0.000000000000000000, 1.000000000000000000, 0.000000000000000000 ) ) ;
#590 = CIRCLE ( 'NONE', #43, 9.999999999999994671 ) ;
#591 = CIRCLE ( 'NONE', #272, 2.499999999999995115 ) ;
#592 = CARTESIAN_POINT ( 'NONE',  ( 0.000000000000000000, 0.000000000000000000, -115.9999999999999858 ) ) ;
#593 = CARTESIAN_POINT ( 'NONE',  ( 100.4589468389860372, 0.000000000000000000, 58.00000000001533351 ) ) ;
#594 = EDGE_CURVE ( 'NONE', #863, #644, #570, .T. ) ;
#595 = ORIENTED_EDGE ( 'NONE', *, *, #68, .T. ) ;
#596 = DIRECTION ( 'NONE',  ( 0.8660254037843623243, -0.000000000000000000, 0.5000000000001321165 ) ) ;
#597 = DIRECTION ( 'NONE',  ( -0.000000000000000000, 1.000000000000000000, -0.000000000000000000 ) ) ;
#598 = ORIENTED_EDGE ( 'NONE', *, *, #750, .F. ) ;
#599 = VECTOR ( 'NONE', #762, 1000.000000000000000 ) ;
#600 = AXIS2_PLACEMENT_3D ( 'NONE', #306, #230, #357 ) ;
#601 = CYLINDRICAL_SURFACE ( 'NONE', #371, 9.999999999999994671 ) ;
#602 = AXIS2_PLACEMENT_3D ( 'NONE', #490, #420, #692 ) ;
#603 = ORIENTED_EDGE ( 'NONE', *, *, #134, .T. ) ;
#604 = EDGE_CURVE ( 'NONE', #545, #103, #401, .T. ) ;
#605 = EDGE_CURVE ( 'NONE', #369, #375, #205, .T. ) ;
#606 = DIRECTION ( 'NONE',  ( -0.000000000000000000, 1.000000000000000000, -0.000000000000000000 ) ) ;
#607 = EDGE_CURVE ( 'NONE', #422, #839, #608, .T. ) ;
#608 = LINE ( 'NONE', #196, #268 ) ;
#609 = CARTESIAN_POINT ( 'NONE',  ( 100.4589468389860372, 6.349999999999999645, 58.00000000001533351 ) ) ;
#610 = DIRECTION ( 'NONE',  ( -0.8660254037845911412, 0.000000000000000000, 0.4999999999997358224 ) ) ;
#611 = AXIS2_PLACEMENT_3D ( 'NONE', #475, #402, #533 ) ;
#612 = DIRECTION ( 'NONE',  ( -0.000000000000000000, 1.000000000000000000, -0.000000000000000000 ) ) ;
#613 = ORIENTED_EDGE ( 'NONE', *, *, #700, .F. ) ;
#614 = LINE ( 'NONE', #343, #76 ) ;
#615 = FACE_OUTER_BOUND ( 'NONE', #177, .T. ) ;
#616 = ADVANCED_FACE ( 'NONE', ( #270 ), #885, .T. ) ;
#617 = VERTEX_POINT ( 'NONE', #200 ) ;
#618 = PRODUCT_DEFINITION_CONTEXT ( 'detailed design', #676, 'design' ) ;
#619 = DIRECTION ( 'NONE',  ( 0.000000000000000000, 1.000000000000000000, 0.000000000000000000 ) ) ;
#620 = CARTESIAN_POINT ( 'NONE',  ( 100.4589468389860372, 0.000000000000000000, 58.00000000001533351 ) ) ;
#621 = ORIENTED_EDGE ( 'NONE', *, *, #134, .F. ) ;
#622 = ORIENTED_EDGE ( 'NONE', *, *, #303, .T. ) ;
#623 = CARTESIAN_POINT ( 'NONE',  ( 0.000000000000000000, 6.349999999999999645, -115.9999999999999858 ) ) ;
#624 = DIRECTION ( 'NONE',  ( 0.000000000000000000, 0.000000000000000000, 1.000000000000000000 ) ) ;
#625 = VECTOR ( 'NONE', #836, 1000.000000000000000 ) ;
#626 = EDGE_LOOP ( 'NONE', ( #26, #412, #116, #621, #477, #530, #173, #717, #506, #367, #462, #694, #622, #503, #33, #894, #434, #313 ) ) ;
#627 = EDGE_CURVE ( 'NONE', #827, #383, #471, .T. ) ;
#628 = CARTESIAN_POINT ( 'NONE',  ( 95.45894683898471555, 6.349999999999999645, 66.66025403785894810 ) ) ;
#629 = LINE ( 'NONE', #838, #328 ) ;
#630 = ORIENTED_EDGE ( 'NONE', *, *, #168, .F. ) ;
#631 = SURFACE_STYLE_FILL_AREA ( #82 ) ;
#632 = ADVANCED_FACE ( 'NONE', ( #190 ), #740, .T. ) ;
#633 = DIRECTION ( 'NONE',  ( 0.000000000000000000, 0.000000000000000000, 1.000000000000000000 ) ) ;
#634 = ORIENTED_EDGE ( 'NONE', *, *, #97, .T. ) ;
#635 = DIRECTION ( 'NONE',  ( 0.000000000000000000, 0.000000000000000000, -1.000000000000000000 ) ) ;
#636 = CARTESIAN_POINT ( 'NONE',  ( -100.4589468390125688, 0.000000000000000000, 57.99999999996935429 ) ) ;
#637 = DIRECTION ( 'NONE',  ( -0.000000000000000000, -1.000000000000000000, -0.000000000000000000 ) ) ;
#638 = AXIS2_PLACEMENT_3D ( 'NONE', #484, #707, #157 ) ;
#639 = ORIENTED_EDGE ( 'NONE', *, *, #442, .T. ) ;
#640 = AXIS2_PLACEMENT_3D ( 'NONE', #388, #451, #581 ) ;
#641 = VERTEX_POINT ( 'NONE', #214 ) ;
#642 = CARTESIAN_POINT ( 'NONE',  ( -100.4589468390125688, 6.349999999999999645, 57.99999999996935429 ) ) ;
#643 = VECTOR ( 'NONE', #887, 1000.000000000000000 ) ;
#644 = VERTEX_POINT ( 'NONE', #423 ) ;
#645 = EDGE_CURVE ( 'NONE', #383, #498, #257, .T. ) ;
#646 = ORIENTED_EDGE ( 'NONE', *, *, #421, .F. ) ;
#647 = CARTESIAN_POINT ( 'NONE',  ( -9.999999999999973355, 6.349999999999999645, -5.773502691898302785 ) ) ;
#648 = CARTESIAN_POINT ( 'NONE',  ( -100.4589468390125688, -3.650000000000000355, 57.99999999996935429 ) ) ;
#649 = ORIENTED_EDGE ( 'NONE', *, *, #49, .T. ) ;
#650 = ORIENTED_EDGE ( 'NONE', *, *, #627, .T. ) ;
#651 = LINE ( 'NONE', #790, #211 ) ;
#652 = FACE_OUTER_BOUND ( 'NONE', #296, .T. ) ;
#653 = ORIENTED_EDGE ( 'NONE', *, *, #155, .T. ) ;
#654 = STYLED_ITEM ( 'NONE', ( #696 ), #759 ) ;
#655 = ORIENTED_EDGE ( 'NONE', *, *, #55, .F. ) ;
#656 = EDGE_CURVE ( 'NONE', #15, #549, #282, .T. ) ;
#657 = AXIS2_PLACEMENT_3D ( 'NONE', #147, #708, #781 ) ;
#658 = DIRECTION ( 'NONE',  ( 0.000000000000000000, 0.000000000000000000, 1.000000000000000000 ) ) ;
#659 = EDGE_CURVE ( 'NONE', #617, #317, #526, .T. ) ;
#660 = FACE_OUTER_BOUND ( 'NONE', #553, .T. ) ;
#661 = VERTEX_POINT ( 'NONE', #21 ) ;
#662 = DIRECTION ( 'NONE',  ( -0.000000000000000000, 1.000000000000000000, -0.000000000000000000 ) ) ;
#663 = VECTOR ( 'NONE', #170, 1000.000000000000000 ) ;
#664 = DIRECTION ( 'NONE',  ( 0.000000000000000000, 1.000000000000000000, -0.000000000000000000 ) ) ;
#665 = CARTESIAN_POINT ( 'NONE',  ( 100.4589468389860372, -3.650000000000000355, 58.00000000001533351 ) ) ;
#666 = ORIENTED_EDGE ( 'NONE', *, *, #191, .T. ) ;
#667 = APPLICATION_PROTOCOL_DEFINITION ( 'draft international standard', 'automotive_design', 1998, #104 ) ;
#668 = CARTESIAN_POINT ( 'NONE',  ( 100.4589468389860372, 6.349999999999999645, 55.50000000001533351 ) ) ;
#669 = VERTEX_POINT ( 'NONE', #279 ) ;
#670 = VECTOR ( 'NONE', #136, 1000.000000000000000 ) ;
#671 =( LENGTH_UNIT ( ) NAMED_UNIT ( * ) SI_UNIT ( .MILLI., .METRE. ) );
#672 = CARTESIAN_POINT ( 'NONE',  ( 105.9202037375598024, 0.000000000000000000, 66.37703247504980197 ) ) ;
#673 = CIRCLE ( 'NONE', #602, 9.999999999999994671 ) ;
#674 = EDGE_CURVE ( 'NONE', #709, #863, #844, .T. ) ;
#675 = CARTESIAN_POINT ( 'NONE',  ( 100.4589468389860372, 6.349999999999999645, 58.00000000001533351 ) ) ;
#676 = APPLICATION_CONTEXT ( 'automotive_design' ) ;
#677 = DIRECTION ( 'NONE',  ( -0.000000000000000000, 1.000000000000000000, -0.000000000000000000 ) ) ;
#678 = DIRECTION ( 'NONE',  ( -0.000000000000000000, -1.000000000000000000, -0.000000000000000000 ) ) ;
#679 = CARTESIAN_POINT ( 'NONE',  ( 4.524094482418473007, 6.349999999999999645, -124.9181034482758577 ) ) ;
#680 = DIRECTION ( 'NONE',  ( 0.000000000000000000, 0.000000000000000000, 1.000000000000000000 ) ) ;
#681 = AXIS2_PLACEMENT_3D ( 'NONE', #636, #165, #658 ) ;
#682 = DIRECTION ( 'NONE',  ( -0.000000000000000000, 1.000000000000000000, -0.000000000000000000 ) ) ;
#683 = ADVANCED_FACE ( 'NONE', ( #209 ), #299, .F. ) ;
#684 = CARTESIAN_POINT ( 'NONE',  ( 100.4589468389860372, 0.000000000000000000, 58.00000000001533351 ) ) ;
#685 = EDGE_LOOP ( 'NONE', ( #212, #515, #277, #283 ) ) ;
#686 = CIRCLE ( 'NONE', #12, 2.499999999999995115 ) ;
#687 = DIRECTION ( 'NONE',  ( -0.000000000000000000, 1.000000000000000000, -0.000000000000000000 ) ) ;
#688 = FACE_BOUND ( 'NONE', #802, .T. ) ;
#689 = ORIENTED_EDGE ( 'NONE', *, *, #203, .F. ) ;
#690 = VERTEX_POINT ( 'NONE', #427 ) ;
#691 = PLANE ( 'NONE',  #121 ) ;
#692 = DIRECTION ( 'NONE',  ( 0.000000000000000000, 0.000000000000000000, 1.000000000000000000 ) ) ;
#693 = ADVANCED_FACE ( 'NONE', ( #218 ), #146, .T. ) ;
#694 = ORIENTED_EDGE ( 'NONE', *, *, #253, .T. ) ;
#695 = DIRECTION ( 'NONE',  ( 1.000000000000000000, 0.000000000000000000, 0.000000000000000000 ) ) ;
#696 = PRESENTATION_STYLE_ASSIGNMENT (( #780 ) ) ;
#697 = DIRECTION ( 'NONE',  ( 0.000000000000000000, 0.000000000000000000, 1.000000000000000000 ) ) ;
#698 = VECTOR ( 'NONE', #509, 1000.000000000000000 ) ;
#699 = EDGE_LOOP ( 'NONE', ( #141, #349, #770, #715 ) ) ;
#700 = EDGE_CURVE ( 'NONE', #641, #521, #4, .T. ) ;
#701 = AXIS2_PLACEMENT_3D ( 'NONE', #91, #773, #712 ) ;
#702 = CARTESIAN_POINT ( 'NONE',  ( 100.4589468389860372, 6.349999999999999645, 58.00000000001533351 ) ) ;
#703 = LINE ( 'NONE', #14, #716 ) ;
#704 = VECTOR ( 'NONE', #271, 1000.000000000000000 ) ;
#705 = EDGE_LOOP ( 'NONE', ( #221, #578, #208, #274 ) ) ;
#706 = ORIENTED_EDGE ( 'NONE', *, *, #7, .T. ) ;
#707 = DIRECTION ( 'NONE',  ( -0.000000000000000000, 1.000000000000000000, -0.000000000000000000 ) ) ;
#708 = DIRECTION ( 'NONE',  ( 0.000000000000000000, 1.000000000000000000, 0.000000000000000000 ) ) ;
#709 = VERTEX_POINT ( 'NONE', #628 ) ;
#710 = ORIENTED_EDGE ( 'NONE', *, *, #70, .F. ) ;
#711 =( LENGTH_UNIT ( ) NAMED_UNIT ( * ) SI_UNIT ( .MILLI., .METRE. ) );
#712 = DIRECTION ( 'NONE',  ( 1.196361017915039486E-16, 0.000000000000000000, 1.000000000000000000 ) ) ;
#713 = ADVANCED_FACE ( 'NONE', ( #356 ), #361, .T. ) ;
#714 = VECTOR ( 'NONE', #238, 1000.000000000000000 ) ;
#715 = ORIENTED_EDGE ( 'NONE', *, *, #122, .F. ) ;
#716 = VECTOR ( 'NONE', #637, 1000.000000000000000 ) ;
#717 = ORIENTED_EDGE ( 'NONE', *, *, #645, .T. ) ;
#718 = DIRECTION ( 'NONE',  ( 0.000000000000000000, 1.000000000000000000, 0.000000000000000000 ) ) ;
#719 = CARTESIAN_POINT ( 'NONE',  ( -100.4589468390125688, 0.000000000000000000, 67.99999999996936140 ) ) ;
#720 =( GEOMETRIC_REPRESENTATION_CONTEXT ( 3 ) GLOBAL_UNCERTAINTY_ASSIGNED_CONTEXT ( ( #342 ) ) GLOBAL_UNIT_ASSIGNED_CONTEXT ( ( #671, #895, #265 ) ) REPRESENTATION_CONTEXT ( 'NONE', 'WORKASPACE' ) );
#721 = EDGE_LOOP ( 'NONE', ( #293, #217, #75, #145 ) ) ;
#722 = CARTESIAN_POINT ( 'NONE',  ( -100.4589468390125688, 0.000000000000000000, 57.99999999996935429 ) ) ;
#723 = CARTESIAN_POINT ( 'NONE',  ( 100.4589468389860372, 6.349999999999999645, 68.00000000001531930 ) ) ;
#724 = CARTESIAN_POINT ( 'NONE',  ( 0.000000000000000000, 0.000000000000000000, 0.000000000000000000 ) ) ;
#725 = EDGE_LOOP ( 'NONE', ( #139, #639, #149, #259 ) ) ;
#726 = ORIENTED_EDGE ( 'NONE', *, *, #534, .T. ) ;
#727 = EDGE_CURVE ( 'NONE', #39, #709, #771, .T. ) ;
#728 = CARTESIAN_POINT ( 'NONE',  ( 0.000000000000000000, 6.349999999999999645, -113.4999999999999858 ) ) ;
#729 = CARTESIAN_POINT ( 'NONE',  ( 10.00000000000000355, 0.000000000000000000, -1.196361017915039831E-15 ) ) ;
#730 = ORIENTED_EDGE ( 'NONE', *, *, #247, .T. ) ;
#731 = LINE ( 'NONE', #324, #289 ) ;
#732 = VECTOR ( 'NONE', #610, 1000.000000000000000 ) ;
#733 = ADVANCED_FACE ( 'NONE', ( #559 ), #691, .F. ) ;
#734 = CARTESIAN_POINT ( 'NONE',  ( -100.4589468390125688, 0.000000000000000000, 60.49999999996934719 ) ) ;
#735 = CARTESIAN_POINT ( 'NONE',  ( -4.524094482418473007, 6.349999999999999645, -124.9181034482758577 ) ) ;
#736 = EDGE_LOOP ( 'NONE', ( #89, #231, #132, #742, #236, #426, #92, #192, #689, #3, #520, #19, #418, #782, #443, #630, #482, #159 ) ) ;
#737 = CARTESIAN_POINT ( 'NONE',  ( -110.4442982200064733, -3.650000000000000355, 58.54107097320881081 ) ) ;
#738 = PLANE ( 'NONE',  #846 ) ;
#739 = EDGE_LOOP ( 'NONE', ( #45, #855, #378, #413 ) ) ;
#740 = PLANE ( 'NONE',  #107 ) ;
#741 = EDGE_CURVE ( 'NONE', #498, #760, #85, .T. ) ;
#742 = ORIENTED_EDGE ( 'NONE', *, *, #886, .F. ) ;
#743 = AXIS2_PLACEMENT_3D ( 'NONE', #292, #486, #17 ) ;
#744 = FACE_OUTER_BOUND ( 'NONE', #721, .T. ) ;
#745 = DIRECTION ( 'NONE',  ( 0.8660254037843623243, -0.000000000000000000, 0.5000000000001321165 ) ) ;
#746 = CIRCLE ( 'NONE', #502, 10.00000000000000888 ) ;
#747 = CIRCLE ( 'NONE', #359, 124.9999999999999858 ) ;
#748 = DIRECTION ( 'NONE',  ( -0.000000000000000000, 1.000000000000000000, -0.000000000000000000 ) ) ;
#749 = DIRECTION ( 'NONE',  ( 0.000000000000000000, 1.000000000000000000, 0.000000000000000000 ) ) ;
#750 = EDGE_CURVE ( 'NONE', #644, #435, #386, .T. ) ;
#751 = DIRECTION ( 'NONE',  ( -0.000000000000000000, 1.000000000000000000, -0.000000000000000000 ) ) ;
#752 = LINE ( 'NONE', #59, #38 ) ;
#753 = CARTESIAN_POINT ( 'NONE',  ( 9.999999999999989342, 0.000000000000000000, -115.9999999999999858 ) ) ;
#754 = ORIENTED_EDGE ( 'NONE', *, *, #263, .T. ) ;
#755 = AXIS2_PLACEMENT_3D ( 'NONE', #143, #489, #286 ) ;
#756 = CARTESIAN_POINT ( 'NONE',  ( 100.4589468389860372, 0.000000000000000000, 55.50000000001533351 ) ) ;
#757 = VECTOR ( 'NONE', #494, 1000.000000000000000 ) ;
#758 = DIRECTION ( 'NONE',  ( 0.000000000000000000, 1.000000000000000000, 0.000000000000000000 ) ) ;
#759 = MANIFOLD_SOLID_BREP ( 'Cut-Extrude2', #819 ) ;
#760 = VERTEX_POINT ( 'NONE', #647 ) ;
#761 = AXIS2_PLACEMENT_3D ( 'NONE', #195, #416, #469 ) ;
#762 = DIRECTION ( 'NONE',  ( -0.000000000000000000, 1.000000000000000000, -0.000000000000000000 ) ) ;
#763 = CARTESIAN_POINT ( 'NONE',  ( 0.000000000000000000, 0.000000000000000000, -115.9999999999999858 ) ) ;
#764 = EDGE_CURVE ( 'NONE', #452, #327, #182, .T. ) ;
#765 = EDGE_LOOP ( 'NONE', ( #160, #323 ) ) ;
#766 = ORIENTED_EDGE ( 'NONE', *, *, #97, .F. ) ;
#767 = SURFACE_SIDE_STYLE ('',( #631 ) ) ;
#768 = CARTESIAN_POINT ( 'NONE',  ( 0.000000000000000000, 0.000000000000000000, -115.9999999999999858 ) ) ;
#769 = EDGE_CURVE ( 'NONE', #873, #834, #330, .T. ) ;
#770 = ORIENTED_EDGE ( 'NONE', *, *, #656, .F. ) ;
#771 = LINE ( 'NONE', #224, #772 ) ;
#772 = VECTOR ( 'NONE', #73, 1000.000000000000114 ) ;
#773 = DIRECTION ( 'NONE',  ( -1.000000000000000000, 0.000000000000000000, 1.196361017915039486E-16 ) ) ;
#774 = ORIENTED_EDGE ( 'NONE', *, *, #485, .T. ) ;
#775 = DIRECTION ( 'NONE',  ( 0.000000000000000000, 0.000000000000000000, 1.000000000000000000 ) ) ;
#776 = DIRECTION ( 'NONE',  ( 0.000000000000000000, 0.000000000000000000, 1.000000000000000000 ) ) ;
#777 = EDGE_LOOP ( 'NONE', ( #66, #79, #634, #332 ) ) ;
#778 = EDGE_LOOP ( 'NONE', ( #341, #302, #447, #252 ) ) ;
#779 = ADVANCED_FACE ( 'NONE', ( #865 ), #94, .F. ) ;
#780 = SURFACE_STYLE_USAGE ( .BOTH. , #767 ) ;
#781 = DIRECTION ( 'NONE',  ( 0.000000000000000000, 0.000000000000000000, 1.000000000000000000 ) ) ;
#782 = ORIENTED_EDGE ( 'NONE', *, *, #285, .F. ) ;
#783 = VERTEX_POINT ( 'NONE', #871 ) ;
#784 = CARTESIAN_POINT ( 'NONE',  ( 0.000000000000000000, 6.349999999999999645, 0.000000000000000000 ) ) ;
#785 = DIRECTION ( 'NONE',  ( 0.000000000000000000, 1.000000000000000000, 0.000000000000000000 ) ) ;
#786 = VECTOR ( 'NONE', #531, 1000.000000000000000 ) ;
#787 = ORIENTED_EDGE ( 'NONE', *, *, #837, .T. ) ;
#788 = ORIENTED_EDGE ( 'NONE', *, *, #315, .F. ) ;
#789 = AXIS2_PLACEMENT_3D ( 'NONE', #768, #351, #624 ) ;
#790 = CARTESIAN_POINT ( 'NONE',  ( -4.999999999997357669, 6.349999999999999645, -8.660254037845909636 ) ) ;
#791 = LINE ( 'NONE', #321, #698 ) ;
#792 = EDGE_CURVE ( 'NONE', #312, #869, #171, .T. ) ;
#793 = EDGE_LOOP ( 'NONE', ( #653, #754, #511, #352 ) ) ;
#794 = CARTESIAN_POINT ( 'NONE',  ( 0.000000000000000000, 0.000000000000000000, -113.4999999999999858 ) ) ;
#795 = CARTESIAN_POINT ( 'NONE',  ( 4.999999999997360334, 6.349999999999999645, 8.660254037845916741 ) ) ;
#796 = FACE_OUTER_BOUND ( 'NONE', #685, .T. ) ;
#797 = VERTEX_POINT ( 'NONE', #728 ) ;
#798 = EDGE_CURVE ( 'NONE', #39, #360, #860, .T. ) ;
#799 = DIRECTION ( 'NONE',  ( 0.000000000000000000, 0.000000000000000000, 1.000000000000000000 ) ) ;
#800 = FACE_OUTER_BOUND ( 'NONE', #429, .T. ) ;
#801 = DIRECTION ( 'NONE',  ( 0.000000000000000000, 0.000000000000000000, 1.000000000000000000 ) ) ;
#802 = EDGE_LOOP ( 'NONE', ( #72, #766 ) ) ;
#803 = AXIS2_PLACEMENT_3D ( 'NONE', #592, #310, #580 ) ;
#804 = CIRCLE ( 'NONE', #411, 10.00000000000000888 ) ;
#805 =( NAMED_UNIT ( * ) SI_UNIT ( $, .STERADIAN. ) SOLID_ANGLE_UNIT ( ) );
#806 = DIRECTION ( 'NONE',  ( 0.000000000000000000, 0.000000000000000000, 1.000000000000000000 ) ) ;
#807 = ORIENTED_EDGE ( 'NONE', *, *, #421, .T. ) ;
#808 = AXIS2_PLACEMENT_3D ( 'NONE', #409, #758, #816 ) ;
#809 = ADVANCED_FACE ( 'NONE', ( #36 ), #185, .F. ) ;
#810 = FACE_OUTER_BOUND ( 'NONE', #524, .T. ) ;
#811 = ORIENTED_EDGE ( 'NONE', *, *, #338, .F. ) ;
#812 = DIRECTION ( 'NONE',  ( -0.000000000000000000, 1.000000000000000000, -0.000000000000000000 ) ) ;
#813 = DIRECTION ( 'NONE',  ( -0.5000000000001321165, 0.000000000000000000, 0.8660254037843624353 ) ) ;
#814 = AXIS2_PLACEMENT_3D ( 'NONE', #241, #513, #181 ) ;
#815 = DIRECTION ( 'NONE',  ( 0.000000000000000000, 0.000000000000000000, 1.000000000000000000 ) ) ;
#816 = DIRECTION ( 'NONE',  ( 0.000000000000000000, 0.000000000000000000, 1.000000000000000000 ) ) ;
#817 = ADVANCED_FACE ( 'NONE', ( #255 ), #576, .T. ) ;
#818 = AXIS2_PLACEMENT_3D ( 'NONE', #204, #123, #127 ) ;
#819 = CLOSED_SHELL ( 'NONE', ( #404, #407, #779, #120, #431, #385, #848, #58, #561, #194, #380, #683, #470, #493, #616, #366, #632, #713, #693, #733, #179, #539, #817, #809, #245, #148 ) ) ;
#820 = CARTESIAN_POINT ( 'NONE',  ( 100.4589468389860372, 0.000000000000000000, 58.00000000001533351 ) ) ;
#821 = CARTESIAN_POINT ( 'NONE',  ( -100.4589468390125688, -3.650000000000000355, 57.99999999996935429 ) ) ;
#822 = DIRECTION ( 'NONE',  ( 0.000000000000000000, 1.000000000000000000, 0.000000000000000000 ) ) ;
#823 = EDGE_CURVE ( 'NONE', #327, #549, #105, .T. ) ;
#824 = EDGE_LOOP ( 'NONE', ( #101, #248, #96, #262 ) ) ;
#825 = DIRECTION ( 'NONE',  ( 0.000000000000000000, 1.000000000000000000, -0.000000000000000000 ) ) ;
#826 = DIRECTION ( 'NONE',  ( 0.8660254037843624353, 0.000000000000000000, 0.5000000000001321165 ) ) ;
#827 = VERTEX_POINT ( 'NONE', #387 ) ;
#828 = ORIENTED_EDGE ( 'NONE', *, *, #86, .F. ) ;
#829 = AXIS2_PLACEMENT_3D ( 'NONE', #856, #99, #518 ) ;
#830 = CARTESIAN_POINT ( 'NONE',  ( 0.000000000000000000, 0.000000000000000000, 0.000000000000000000 ) ) ;
#831 = CIRCLE ( 'NONE', #269, 2.500000000000002220 ) ;
#832 = CARTESIAN_POINT ( 'NONE',  ( 0.000000000000000000, 6.349999999999999645, 0.000000000000000000 ) ) ;
#833 = ORIENTED_EDGE ( 'NONE', *, *, #137, .F. ) ;
#834 = VERTEX_POINT ( 'NONE', #234 ) ;
#835 = CIRCLE ( 'NONE', #761, 2.500000000000002220 ) ;
#836 = DIRECTION ( 'NONE',  ( 1.196361017915039486E-16, 0.000000000000000000, 1.000000000000000000 ) ) ;
#837 = EDGE_CURVE ( 'NONE', #661, #435, #585, .T. ) ;
#838 = CARTESIAN_POINT ( 'NONE',  ( 105.4589468389873588, -3.650000000000000355, 49.33974596217171893 ) ) ;
#839 = VERTEX_POINT ( 'NONE', #445 ) ;
#840 = DIRECTION ( 'NONE',  ( 1.196361017915039486E-16, 0.000000000000000000, 1.000000000000000000 ) ) ;
#841 = LINE ( 'NONE', #219, #757 ) ;
#842 = VERTEX_POINT ( 'NONE', #522 ) ;
#843 = DIRECTION ( 'NONE',  ( 0.000000000000000000, 0.000000000000000000, 1.000000000000000000 ) ) ;
#844 = CIRCLE ( 'NONE', #370, 9.999999999999994671 ) ;
#845 = CYLINDRICAL_SURFACE ( 'NONE', #353, 9.999999999999994671 ) ;
#846 = AXIS2_PLACEMENT_3D ( 'NONE', #724, #395, #529 ) ;
#847 = ORIENTED_EDGE ( 'NONE', *, *, #333, .T. ) ;
#848 = ADVANCED_FACE ( 'NONE', ( #800 ), #527, .T. ) ;
#849 = CARTESIAN_POINT ( 'NONE',  ( -95.45894683901521205, 0.000000000000000000, 66.66025403781527814 ) ) ;
#850 = AXIS2_PLACEMENT_3D ( 'NONE', #288, #433, #577 ) ;
#851 = CARTESIAN_POINT ( 'NONE',  ( 10.00000000000000533, -3.650000000000000355, -5.773502691895231465 ) ) ;
#852 = AXIS2_PLACEMENT_3D ( 'NONE', #874, #612, #110 ) ;
#853 = CARTESIAN_POINT ( 'NONE',  ( 0.000000000000000000, -3.650000000000000355, -115.9999999999999858 ) ) ;
#854 = VERTEX_POINT ( 'NONE', #875 ) ;
#855 = ORIENTED_EDGE ( 'NONE', *, *, #30, .F. ) ;
#856 = CARTESIAN_POINT ( 'NONE',  ( 100.4589468389860372, -3.650000000000000355, 58.00000000001533351 ) ) ;
#857 = CARTESIAN_POINT ( 'NONE',  ( 9.999999999999989342, -3.650000000000000355, -115.9999999999999858 ) ) ;
#858 = VERTEX_POINT ( 'NONE', #175 ) ;
#859 = CARTESIAN_POINT ( 'NONE',  ( -2.634611279139775775E-12, 6.349999999999999645, 11.54700538379200836 ) ) ;
#860 = LINE ( 'NONE', #795, #480 ) ;
#861 = EDGE_CURVE ( 'NONE', #760, #15, #651, .T. ) ;
#862 = DIRECTION ( 'NONE',  ( 1.196361017915039486E-16, -0.000000000000000000, 1.000000000000000000 ) ) ;
#863 = VERTEX_POINT ( 'NONE', #723 ) ;
#864 = DIRECTION ( 'NONE',  ( 0.000000000000000000, 1.000000000000000000, 0.000000000000000000 ) ) ;
#865 = FACE_OUTER_BOUND ( 'NONE', #725, .T. ) ;
#866 = CYLINDRICAL_SURFACE ( 'NONE', #640, 124.9999999999999858 ) ;
#867 = EDGE_CURVE ( 'NONE', #839, #360, #542, .T. ) ;
#868 = CIRCLE ( 'NONE', #543, 124.9999999999999858 ) ;
#869 = VERTEX_POINT ( 'NONE', #244 ) ;
#870 = DIRECTION ( 'NONE',  ( 0.000000000000000000, 0.000000000000000000, 1.000000000000000000 ) ) ;
#871 = CARTESIAN_POINT ( 'NONE',  ( 3.061616997868382155E-16, 0.000000000000000000, -118.5000000000000000 ) ) ;
#872 = CARTESIAN_POINT ( 'NONE',  ( -100.4589468390125688, 0.000000000000000000, 57.99999999996935429 ) ) ;
#873 = VERTEX_POINT ( 'NONE', #734 ) ;
#874 = CARTESIAN_POINT ( 'NONE',  ( 0.000000000000000000, -3.650000000000000355, -115.9999999999999858 ) ) ;
#875 = CARTESIAN_POINT ( 'NONE',  ( 100.4589468389860372, 0.000000000000000000, 60.50000000001532641 ) ) ;
#876 = CARTESIAN_POINT ( 'NONE',  ( 100.4589468389860372, 0.000000000000000000, 55.50000000001533351 ) ) ;
#877 = VERTEX_POINT ( 'NONE', #112 ) ;
#878 = AXIS2_PLACEMENT_3D ( 'NONE', #31, #718, #319 ) ;
#879 = AXIS2_PLACEMENT_3D ( 'NONE', #648, #106, #806 ) ;
#880 = EDGE_CURVE ( 'NONE', #574, #644, #325, .T. ) ;
#881 = CARTESIAN_POINT ( 'NONE',  ( -4.524094482418473007, -3.650000000000000355, -124.9181034482758577 ) ) ;
#882 = EDGE_LOOP ( 'NONE', ( #466, #29, #109, #710 ) ) ;
#883 = VECTOR ( 'NONE', #751, 1000.000000000000000 ) ;
#884 = CARTESIAN_POINT ( 'NONE',  ( -9.999999999999989342, 0.000000000000000000, -115.9999999999999858 ) ) ;
#885 = CYLINDRICAL_SURFACE ( 'NONE', #240, 10.00000000000000888 ) ;
#886 = EDGE_CURVE ( 'NONE', #290, #669, #590, .T. ) ;
#887 = DIRECTION ( 'NONE',  ( 1.196361017915039486E-16, 0.000000000000000000, 1.000000000000000000 ) ) ;
#888 = MECHANICAL_DESIGN_GEOMETRIC_PRESENTATION_REPRESENTATION (  '', ( #654 ), #568 ) ;
#889 = CIRCLE ( 'NONE', #455, 10.00000000000000888 ) ;
#890 = DIRECTION ( 'NONE',  ( 0.000000000000000000, 0.000000000000000000, 1.000000000000000000 ) ) ;
#891 = EDGE_CURVE ( 'NONE', #877, #375, #320, .T. ) ;
#892 = LINE ( 'NONE', #403, #199 ) ;
#893 = AXIS2_PLACEMENT_3D ( 'NONE', #620, #677, #201 ) ;
#894 = ORIENTED_EDGE ( 'NONE', *, *, #727, .T. ) ;
#895 =( NAMED_UNIT ( * ) PLANE_ANGLE_UNIT ( ) SI_UNIT ( $, .RADIAN. ) );
ENDSEC;
END-ISO-10303-21;
