ISO-10303-21;
HEADER;
FILE_DESCRIPTION (( 'STEP AP214' ),
    '1' );
FILE_NAME ('Short Arm.STEP',
    '2025-06-30T23:21:28',
    ( '' ),
    ( '' ),
    'SwSTEP 2.0',
    'SolidWorks 2023',
    '' );
FILE_SCHEMA (( 'AUTOMOTIVE_DESIGN' ));
ENDSEC;

DATA;
#1 = CIRCLE ( 'NONE', #551, 4.000000000000000000 ) ;
#2 = CIRCLE ( 'NONE', #605, 4.000000000000002665 ) ;
#3 = DIRECTION ( 'NONE',  ( 0.000000000000000000, -0.4780935584061311583, 0.8783089145685379906 ) ) ;
#4 = EDGE_CURVE ( 'NONE', #923, #130, #53, .T. ) ;
#5 = FACE_OUTER_BOUND ( 'NONE', #598, .T. ) ;
#6 = ORIENTED_EDGE ( 'NONE', *, *, #866, .F. ) ;
#7 = FACE_BOUND ( 'NONE', #614, .T. ) ;
#8 = DIRECTION ( 'NONE',  ( 1.000000000000000000, 0.000000000000000000, 0.000000000000000000 ) ) ;
#9 = CARTESIAN_POINT ( 'NONE',  ( 2.500000000000000000, 50.28000000000001535, 3.990187965497367095 ) ) ;
#10 = ADVANCED_FACE ( 'NONE', ( #393 ), #799, .F. ) ;
#11 = AXIS2_PLACEMENT_3D ( 'NONE', #911, #259, #752 ) ;
#12 = EDGE_LOOP ( 'NONE', ( #790, #639, #79, #335 ) ) ;
#13 = DIRECTION ( 'NONE',  ( 0.000000000000000000, 0.000000000000000000, -1.000000000000000000 ) ) ;
#14 = VECTOR ( 'NONE', #961, 999.9999999999998863 ) ;
#15 = DIRECTION ( 'NONE',  ( -0.7071067811865524577, 0.7071067811865425767, 0.000000000000000000 ) ) ;
#16 = LINE ( 'NONE', #935, #217 ) ;
#17 = ORIENTED_EDGE ( 'NONE', *, *, #979, .T. ) ;
#18 = DIRECTION ( 'NONE',  ( 1.000000000000000000, 0.000000000000000000, 0.000000000000000000 ) ) ;
#19 = EDGE_CURVE ( 'NONE', #1017, #802, #203, .T. ) ;
#20 = ORIENTED_EDGE ( 'NONE', *, *, #924, .F. ) ;
#21 = CARTESIAN_POINT ( 'NONE',  ( 2.000000000000006661, -3.650164604229168219, 1.635939596083095804 ) ) ;
#22 = DIRECTION ( 'NONE',  ( 0.000000000000000000, 1.000000000000000000, 0.000000000000000000 ) ) ;
#23 = AXIS2_PLACEMENT_3D ( 'NONE', #664, #990, #13 ) ;
#24 = EDGE_LOOP ( 'NONE', ( #181, #693, #94, #818 ) ) ;
#25 = LINE ( 'NONE', #42, #300 ) ;
#26 = EDGE_CURVE ( 'NONE', #130, #252, #389, .T. ) ;
#27 = LINE ( 'NONE', #443, #729 ) ;
#28 = CARTESIAN_POINT ( 'NONE',  ( -2.500000000000000000, 3.500000000000007550, 2.645751311064590716 ) ) ;
#29 = VERTEX_POINT ( 'NONE', #1047 ) ;
#30 = LINE ( 'NONE', #100, #348 ) ;
#31 = AXIS2_PLACEMENT_3D ( 'NONE', #247, #512, #993 ) ;
#32 = AXIS2_PLACEMENT_3D ( 'NONE', #793, #235, #398 ) ;
#33 = PRODUCT_DEFINITION_FORMATION_WITH_SPECIFIED_SOURCE ( 'ANY', '', #635, .NOT_KNOWN. ) ;
#34 = CARTESIAN_POINT ( 'NONE',  ( 2.500000000000000000, -7.414082637085614991, -1.631979969109715656 ) ) ;
#35 = EDGE_CURVE ( 'NONE', #514, #401, #312, .T. ) ;
#36 = ORIENTED_EDGE ( 'NONE', *, *, #1050, .F. ) ;
#37 = CARTESIAN_POINT ( 'NONE',  ( 3.416477272093337625, -8.330559909178939293, -2.548457241203066381 ) ) ;
#38 = DIRECTION ( 'NONE',  ( -1.000000000000000000, -0.000000000000000000, -0.000000000000000000 ) ) ;
#39 = DIRECTION ( 'NONE',  ( 0.000000000000000000, 0.000000000000000000, 1.000000000000000000 ) ) ;
#40 = EDGE_LOOP ( 'NONE', ( #476, #633, #136, #170 ) ) ;
#41 = ADVANCED_FACE ( 'NONE', ( #232 ), #554, .T. ) ;
#42 = CARTESIAN_POINT ( 'NONE',  ( -2.500000000000000000, -3.650164604229168219, 1.635939596083095582 ) ) ;
#43 = VECTOR ( 'NONE', #823, 1000.000000000000000 ) ;
#44 = DIRECTION ( 'NONE',  ( 0.000000000000000000, -0.000000000000000000, 1.000000000000000000 ) ) ;
#45 = PRODUCT_CONTEXT ( 'NONE', #883, 'mechanical' ) ;
#46 = ORIENTED_EDGE ( 'NONE', *, *, #486, .T. ) ;
#47 = DIRECTION ( 'NONE',  ( 0.000000000000000000, 0.000000000000000000, -1.000000000000000000 ) ) ;
#48 = ADVANCED_FACE ( 'NONE', ( #406 ), #318, .F. ) ;
#49 = DIRECTION ( 'NONE',  ( 0.000000000000000000, -0.9975469913743412187, -0.06999999999999997891 ) ) ;
#50 = VERTEX_POINT ( 'NONE', #349 ) ;
#51 = FACE_OUTER_BOUND ( 'NONE', #377, .T. ) ;
#52 = DIRECTION ( 'NONE',  ( 0.000000000000000000, 0.000000000000000000, 1.000000000000000000 ) ) ;
#53 = LINE ( 'NONE', #891, #820 ) ;
#54 = CARTESIAN_POINT ( 'NONE',  ( -2.500000000000000000, 50.00000000000000000, 0.000000000000000000 ) ) ;
#55 = VECTOR ( 'NONE', #952, 1000.000000000000000 ) ;
#56 = DIRECTION ( 'NONE',  ( 1.000000000000000000, 0.000000000000000000, 0.000000000000000000 ) ) ;
#57 = ADVANCED_FACE ( 'NONE', ( #822 ), #95, .T. ) ;
#58 = DIRECTION ( 'NONE',  ( 1.000000000000000000, -0.000000000000000000, 0.000000000000000000 ) ) ;
#59 = EDGE_LOOP ( 'NONE', ( #652, #728, #340, #907 ) ) ;
#60 = DIRECTION ( 'NONE',  ( 0.000000000000000000, 0.000000000000000000, -1.000000000000000000 ) ) ;
#61 = EDGE_LOOP ( 'NONE', ( #602, #984, #743, #964 ) ) ;
#62 = DIRECTION ( 'NONE',  ( 0.000000000000000000, 0.000000000000000000, -1.000000000000000000 ) ) ;
#63 = LINE ( 'NONE', #1046, #666 ) ;
#64 = AXIS2_PLACEMENT_3D ( 'NONE', #392, #549, #384 ) ;
#65 = DIRECTION ( 'NONE',  ( 1.000000000000000000, -0.000000000000000000, 0.000000000000000000 ) ) ;
#66 = ADVANCED_FACE ( 'NONE', ( #572 ), #496, .T. ) ;
#67 = ORIENTED_EDGE ( 'NONE', *, *, #1045, .F. ) ;
#68 = DIRECTION ( 'NONE',  ( 0.7071067811865426878, 0.000000000000000000, -0.7071067811865524577 ) ) ;
#69 = ORIENTED_EDGE ( 'NONE', *, *, #403, .T. ) ;
#70 = CARTESIAN_POINT ( 'NONE',  ( -2.500000000000000000, 50.00000000000000000, -2.000000000000001332 ) ) ;
#71 = ADVANCED_FACE ( 'NONE', ( #417 ), #183, .T. ) ;
#72 = EDGE_LOOP ( 'NONE', ( #824, #584, #860, #287, #6 ) ) ;
#73 = DIRECTION ( 'NONE',  ( 0.000000000000000000, 0.000000000000000000, -1.000000000000000000 ) ) ;
#74 = ORIENTED_EDGE ( 'NONE', *, *, #751, .F. ) ;
#75 = DIRECTION ( 'NONE',  ( 1.000000000000000000, -0.000000000000000000, 0.000000000000000000 ) ) ;
#76 = ORIENTED_EDGE ( 'NONE', *, *, #1029, .T. ) ;
#77 = ORIENTED_EDGE ( 'NONE', *, *, #996, .F. ) ;
#78 = CYLINDRICAL_SURFACE ( 'NONE', #954, 4.000000000000000000 ) ;
#79 = ORIENTED_EDGE ( 'NONE', *, *, #973, .T. ) ;
#80 = B_SPLINE_CURVE_WITH_KNOTS ( 'NONE', 3,
 ( #277, #268, #680, #346 ),
 .UNSPECIFIED., .F., .F.,
 ( 4, 4 ),
 ( 0.000000000000000000, 0.0007303221569305665692 ),
 .UNSPECIFIED. ) ;
#81 = DIRECTION ( 'NONE',  ( -1.000000000000000000, -0.000000000000000000, -0.000000000000000000 ) ) ;
#82 = ADVANCED_FACE ( 'NONE', ( #1063 ), #998, .F. ) ;
#83 = ORIENTED_EDGE ( 'NONE', *, *, #623, .F. ) ;
#84 = CARTESIAN_POINT ( 'NONE',  ( 2.000000000000006661, -6.914082637085607885, -1.131979969109715212 ) ) ;
#85 = FILL_AREA_STYLE ('',( #174 ) ) ;
#86 = ORIENTED_EDGE ( 'NONE', *, *, #996, .T. ) ;
#87 = FACE_OUTER_BOUND ( 'NONE', #332, .T. ) ;
#88 = VERTEX_POINT ( 'NONE', #21 ) ;
#89 = MECHANICAL_DESIGN_GEOMETRIC_PRESENTATION_REPRESENTATION (  '', ( #278 ), #453 ) ;
#90 = EDGE_CURVE ( 'NONE', #386, #685, #327, .T. ) ;
#91 = FACE_OUTER_BOUND ( 'NONE', #256, .T. ) ;
#92 = CARTESIAN_POINT ( 'NONE',  ( -2.500000000000000000, -4.193642972455452700, 1.631979969109626838 ) ) ;
#93 = ORIENTED_EDGE ( 'NONE', *, *, #882, .F. ) ;
#94 = ORIENTED_EDGE ( 'NONE', *, *, #326, .F. ) ;
#95 = PLANE ( 'NONE',  #665 ) ;
#96 = DIRECTION ( 'NONE',  ( 0.000000000000000000, 0.000000000000000000, 1.000000000000000000 ) ) ;
#97 = VECTOR ( 'NONE', #116, 1000.000000000000114 ) ;
#98 = EDGE_LOOP ( 'NONE', ( #895, #159, #833, #314 ) ) ;
#99 = EDGE_CURVE ( 'NONE', #1056, #699, #905, .T. ) ;
#100 = CARTESIAN_POINT ( 'NONE',  ( 3.416477272093347395, -8.330559909178962386, 2.548457241203077928 ) ) ;
#101 = VECTOR ( 'NONE', #218, 1000.000000000000000 ) ;
#102 = CARTESIAN_POINT ( 'NONE',  ( -1.999999999999992673, -3.650164604229168219, 1.635939596083095804 ) ) ;
#103 = CARTESIAN_POINT ( 'NONE',  ( -2.500000000000000000, -7.320289706044744271, -1.631979969109722317 ) ) ;
#104 = ORIENTED_EDGE ( 'NONE', *, *, #403, .F. ) ;
#105 = FACE_OUTER_BOUND ( 'NONE', #246, .T. ) ;
#106 = ADVANCED_FACE ( 'NONE', ( #269 ), #667, .F. ) ;
#107 = CARTESIAN_POINT ( 'NONE',  ( 2.000000000000006661, 3.000000000000000000, 2.645751311064590716 ) ) ;
#108 = DIRECTION ( 'NONE',  ( 0.4562398127789099589, 0.4254348331923784587, 0.7815692137885411617 ) ) ;
#109 = VECTOR ( 'NONE', #880, 1000.000000000000000 ) ;
#110 = EDGE_LOOP ( 'NONE', ( #926, #975, #17, #566, #148, #1036, #491, #320, #571, #881, #196, #484 ) ) ;
#111 = CYLINDRICAL_SURFACE ( 'NONE', #125, 4.000000000000002665 ) ;
#112 = LINE ( 'NONE', #523, #289 ) ;
#113 = CARTESIAN_POINT ( 'NONE',  ( -1.999999999999992673, 0.000000000000000000, 4.000000000000000000 ) ) ;
#114 = ORIENTED_EDGE ( 'NONE', *, *, #295, .T. ) ;
#115 = LINE ( 'NONE', #37, #504 ) ;
#116 = DIRECTION ( 'NONE',  ( -0.7071067811865474617, 0.000000000000000000, 0.7071067811865474617 ) ) ;
#117 = DIRECTION ( 'NONE',  ( 1.000000000000000000, -0.000000000000000000, 0.000000000000000000 ) ) ;
#118 = ORIENTED_EDGE ( 'NONE', *, *, #137, .F. ) ;
#119 = DIRECTION ( 'NONE',  ( 0.7071067811865475727, -0.000000000000000000, 0.7071067811865475727 ) ) ;
#120 = LINE ( 'NONE', #774, #511 ) ;
#121 = ADVANCED_FACE ( 'NONE', ( #167 ), #179, .F. ) ;
#122 = DIRECTION ( 'NONE',  ( 7.577815357765157044E-16, -0.8783089145685386567, 0.4780935584061298815 ) ) ;
#123 = ORIENTED_EDGE ( 'NONE', *, *, #353, .F. ) ;
#124 = FACE_OUTER_BOUND ( 'NONE', #552, .T. ) ;
#125 = AXIS2_PLACEMENT_3D ( 'NONE', #441, #18, #197 ) ;
#126 = AXIS2_PLACEMENT_3D ( 'NONE', #672, #260, #1016 ) ;
#127 = EDGE_LOOP ( 'NONE', ( #929, #165, #869 ) ) ;
#128 = LINE ( 'NONE', #457, #290 ) ;
#129 = APPLICATION_PROTOCOL_DEFINITION ( 'draft international standard', 'automotive_design', 1998, #883 ) ;
#130 = VERTEX_POINT ( 'NONE', #921 ) ;
#131 = CARTESIAN_POINT ( 'NONE',  ( -2.500000000000000000, 50.00000000000000000, -2.000000000000001332 ) ) ;
#132 = EDGE_CURVE ( 'NONE', #851, #936, #501, .T. ) ;
#133 = AXIS2_PLACEMENT_3D ( 'NONE', #962, #228, #879 ) ;
#134 = FACE_OUTER_BOUND ( 'NONE', #261, .T. ) ;
#135 = VERTEX_POINT ( 'NONE', #84 ) ;
#136 = ORIENTED_EDGE ( 'NONE', *, *, #455, .T. ) ;
#137 = EDGE_CURVE ( 'NONE', #401, #447, #411, .T. ) ;
#138 = CARTESIAN_POINT ( 'NONE',  ( 2.448667994825602712, -7.331592098486185982, 1.580647963935320144 ) ) ;
#139 = DIRECTION ( 'NONE',  ( 0.000000000000000000, 0.000000000000000000, -1.000000000000000000 ) ) ;
#140 = CARTESIAN_POINT ( 'NONE',  ( -2.422958146310254968, -7.337040783395863741, -1.554938115419977063 ) ) ;
#141 = DIRECTION ( 'NONE',  ( 0.7071067811865524577, 0.000000000000000000, 0.7071067811865425767 ) ) ;
#142 = ORIENTED_EDGE ( 'NONE', *, *, #198, .F. ) ;
#143 = COLOUR_RGB ( '',0.7921568627450980005, 0.8196078431372548767, 0.9333333333333333481 ) ;
#144 = VECTOR ( 'NONE', #122, 1000.000000000000000 ) ;
#145 = CARTESIAN_POINT ( 'NONE',  ( -1.999999999999992673, -4.575992248569344945, -1.131979969109715212 ) ) ;
#146 = ORIENTED_EDGE ( 'NONE', *, *, #610, .T. ) ;
#147 = CARTESIAN_POINT ( 'NONE',  ( -2.500000000000000000, -6.914082637085599892, 1.131979969109717876 ) ) ;
#148 = ORIENTED_EDGE ( 'NONE', *, *, #480, .T. ) ;
#149 = CIRCLE ( 'NONE', #493, 4.000000000000000000 ) ;
#150 = DIRECTION ( 'NONE',  ( 0.6219988221476898671, 0.4756415987839609505, -0.6219988221476984158 ) ) ;
#151 = AXIS2_PLACEMENT_3D ( 'NONE', #670, #257, #832 ) ;
#152 = ADVANCED_FACE ( 'NONE', ( #817 ), #660, .T. ) ;
#153 = VERTEX_POINT ( 'NONE', #654 ) ;
#154 = CARTESIAN_POINT ( 'NONE',  ( -2.500000000000000000, -4.193642972455453588, -1.631979969109624395 ) ) ;
#155 = ORIENTED_EDGE ( 'NONE', *, *, #374, .T. ) ;
#156 = DIRECTION ( 'NONE',  ( 1.216709933600672196E-16, -0.8783089145685378796, -0.4780935584061311583 ) ) ;
#157 = CARTESIAN_POINT ( 'NONE',  ( -2.500000000000000000, -4.575992248569327181, 1.131979969109717876 ) ) ;
#158 = LINE ( 'NONE', #580, #914 ) ;
#159 = ORIENTED_EDGE ( 'NONE', *, *, #909, .T. ) ;
#160 = ORIENTED_EDGE ( 'NONE', *, *, #872, .T. ) ;
#161 = ORIENTED_EDGE ( 'NONE', *, *, #805, .F. ) ;
#162 = PRESENTATION_STYLE_ASSIGNMENT (( #896 ) ) ;
#163 = CARTESIAN_POINT ( 'NONE',  ( 2.474348849217691271, -7.326008354615002105, 1.606328818327409369 ) ) ;
#164 = ADVANCED_FACE ( 'NONE', ( #343 ), #78, .F. ) ;
#165 = ORIENTED_EDGE ( 'NONE', *, *, #409, .T. ) ;
#166 = VECTOR ( 'NONE', #927, 1000.000000000000000 ) ;
#167 = FACE_OUTER_BOUND ( 'NONE', #710, .T. ) ;
#168 = CIRCLE ( 'NONE', #903, 4.500000000000000888 ) ;
#169 = DIRECTION ( 'NONE',  ( 1.000000000000000000, 0.000000000000000000, 0.000000000000000000 ) ) ;
#170 = ORIENTED_EDGE ( 'NONE', *, *, #295, .F. ) ;
#171 = ADVANCED_FACE ( 'NONE', ( #91 ), #265, .T. ) ;
#172 = ORIENTED_EDGE ( 'NONE', *, *, #853, .F. ) ;
#173 = DIRECTION ( 'NONE',  ( 0.5773502691896282846, 0.5773502691896208461, 0.5773502691896282846 ) ) ;
#174 = FILL_AREA_STYLE_COLOUR ( '', #143 ) ;
#175 = ORIENTED_EDGE ( 'NONE', *, *, #730, .T. ) ;
#176 = FACE_OUTER_BOUND ( 'NONE', #619, .T. ) ;
#177 = EDGE_CURVE ( 'NONE', #814, #851, #630, .T. ) ;
#178 = CIRCLE ( 'NONE', #723, 4.500000000000000888 ) ;
#179 = PLANE ( 'NONE',  #31 ) ;
#180 = CARTESIAN_POINT ( 'NONE',  ( -2.500000000000000000, -7.320289706044744271, 1.631979969109725204 ) ) ;
#181 = ORIENTED_EDGE ( 'NONE', *, *, #655, .F. ) ;
#182 = DIRECTION ( 'NONE',  ( 1.000000000000000000, -0.000000000000000000, 0.000000000000000000 ) ) ;
#183 = PLANE ( 'NONE',  #356 ) ;
#184 = EDGE_CURVE ( 'NONE', #875, #509, #149, .T. ) ;
#185 = DIRECTION ( 'NONE',  ( -0.6219988221478551793, -0.4756415987835282411, -0.6219988221478637280 ) ) ;
#186 = VECTOR ( 'NONE', #970, 1000.000000000000000 ) ;
#187 = ORIENTED_EDGE ( 'NONE', *, *, #99, .F. ) ;
#188 = DIRECTION ( 'NONE',  ( 0.000000000000000000, 0.000000000000000000, -1.000000000000000000 ) ) ;
#189 = CARTESIAN_POINT ( 'NONE',  ( -2.500000000000000000, 0.000000000000000000, 0.000000000000000000 ) ) ;
#190 = DIRECTION ( 'NONE',  ( -0.000000000000000000, -1.000000000000000000, 0.000000000000000000 ) ) ;
#191 = ORIENTED_EDGE ( 'NONE', *, *, #714, .F. ) ;
#192 = FACE_OUTER_BOUND ( 'NONE', #72, .T. ) ;
#193 = DIRECTION ( 'NONE',  ( 0.000000000000000000, -3.552713678800500929E-15, -1.000000000000000000 ) ) ;
#194 = CARTESIAN_POINT ( 'NONE',  ( 2.500000000000000000, 0.000000000000000000, 0.000000000000000000 ) ) ;
#195 = AXIS2_PLACEMENT_3D ( 'NONE', #987, #718, #1061 ) ;
#196 = ORIENTED_EDGE ( 'NONE', *, *, #1043, .T. ) ;
#197 = DIRECTION ( 'NONE',  ( 0.000000000000000000, 0.000000000000000000, -1.000000000000000000 ) ) ;
#198 = EDGE_CURVE ( 'NONE', #531, #659, #266, .T. ) ;
#199 = DIRECTION ( 'NONE',  ( 1.000000000000000000, -0.000000000000000000, 0.000000000000000000 ) ) ;
#200 = CARTESIAN_POINT ( 'NONE',  ( 2.500000000000000000, 50.28000000000001535, -3.990187965497365319 ) ) ;
#201 = ORIENTED_EDGE ( 'NONE', *, *, #714, .T. ) ;
#202 = DIRECTION ( 'NONE',  ( 1.000000000000000000, -0.000000000000000000, 0.000000000000000000 ) ) ;
#203 = CIRCLE ( 'NONE', #133, 7.500000000000001776 ) ;
#204 = VECTOR ( 'NONE', #68, 1000.000000000000000 ) ;
#205 = EDGE_CURVE ( 'NONE', #258, #918, #112, .T. ) ;
#206 = ADVANCED_FACE ( 'NONE', ( #758 ), #533, .F. ) ;
#207 = LINE ( 'NONE', #296, #97 ) ;
#208 = ORIENTED_EDGE ( 'NONE', *, *, #597, .T. ) ;
#209 = DIRECTION ( 'NONE',  ( 0.000000000000000000, 0.000000000000000000, -1.000000000000000000 ) ) ;
#210 = ORIENTED_EDGE ( 'NONE', *, *, #236, .T. ) ;
#211 = DIRECTION ( 'NONE',  ( -1.000000000000000000, 0.000000000000000000, -0.000000000000000000 ) ) ;
#212 = DIRECTION ( 'NONE',  ( 0.6219988221478581769, -0.4756415987835319048, 0.6219988221478581769 ) ) ;
#213 = EDGE_CURVE ( 'NONE', #771, #229, #27, .T. ) ;
#214 = EDGE_LOOP ( 'NONE', ( #782, #538, #804, #1013 ) ) ;
#215 = CARTESIAN_POINT ( 'NONE',  ( -1.999999999999992673, 3.000000000000000000, -2.645751311064590716 ) ) ;
#216 = AXIS2_PLACEMENT_3D ( 'NONE', #783, #542, #209 ) ;
#217 = VECTOR ( 'NONE', #185, 1000.000000000000114 ) ;
#218 = DIRECTION ( 'NONE',  ( -0.5773502691896253980, -0.5773502691896266192, 0.5773502691896253980 ) ) ;
#219 = ORIENTED_EDGE ( 'NONE', *, *, #1022, .F. ) ;
#220 = EDGE_CURVE ( 'NONE', #229, #802, #354, .T. ) ;
#221 = AXIS2_PLACEMENT_3D ( 'NONE', #839, #900, #507 ) ;
#222 = CLOSED_SHELL ( 'NONE', ( #421, #548, #778, #521, #784, #347, #164, #121, #66, #10, #662, #71, #361, #616, #583, #1057, #206, #946, #41, #892, #798, #240, #808, #967, #684, #472, #152, #82, #106, #567, #707, #1004, #821, #57, #171, #48 ) ) ;
#223 = DIRECTION ( 'NONE',  ( 0.000000000000000000, -0.9975469913743412187, -0.06999999999999997891 ) ) ;
#224 = EDGE_LOOP ( 'NONE', ( #500, #624, #705, #760, #581, #450, #871, #298, #271, #454, #574, #86 ) ) ;
#225 = EDGE_CURVE ( 'NONE', #509, #1059, #1015, .T. ) ;
#226 = FACE_OUTER_BOUND ( 'NONE', #681, .T. ) ;
#227 = CARTESIAN_POINT ( 'NONE',  ( 2.000000000000006661, -3.836485546634363253, -1.131979969109715212 ) ) ;
#228 = DIRECTION ( 'NONE',  ( 1.000000000000000000, -0.000000000000000000, 0.000000000000000000 ) ) ;
#229 = VERTEX_POINT ( 'NONE', #273 ) ;
#230 = CIRCLE ( 'NONE', #831, 4.000000000000000000 ) ;
#231 = DIRECTION ( 'NONE',  ( -1.000000000000000000, -0.000000000000000000, -0.000000000000000000 ) ) ;
#232 = FACE_OUTER_BOUND ( 'NONE', #423, .T. ) ;
#233 = ORIENTED_EDGE ( 'NONE', *, *, #184, .T. ) ;
#234 = CIRCLE ( 'NONE', #373, 4.500000000000000888 ) ;
#235 = DIRECTION ( 'NONE',  ( -1.000000000000000000, -0.000000000000000000, -0.000000000000000000 ) ) ;
#236 = EDGE_CURVE ( 'NONE', #923, #719, #1023, .T. ) ;
#237 = ORIENTED_EDGE ( 'NONE', *, *, #35, .F. ) ;
#238 = CARTESIAN_POINT ( 'NONE',  ( -2.500000000000000000, 3.500000000000007550, 2.828427124747355581 ) ) ;
#239 = ORIENTED_EDGE ( 'NONE', *, *, #177, .F. ) ;
#240 = ADVANCED_FACE ( 'NONE', ( #934 ), #528, .T. ) ;
#241 = LINE ( 'NONE', #901, #1019 ) ;
#242 = B_SPLINE_CURVE_WITH_KNOTS ( 'NONE', 3,
 ( #381, #304, #395, #464 ),
 .UNSPECIFIED., .F., .F.,
 ( 4, 4 ),
 ( 0.000000000000000000, 0.0007385014660619720244 ),
 .UNSPECIFIED. ) ;
#243 = ADVANCED_BREP_SHAPE_REPRESENTATION ( 'Short Arm', ( #826, #701 ), #578 ) ;
#244 = ORIENTED_EDGE ( 'NONE', *, *, #370, .T. ) ;
#245 = AXIS2_PLACEMENT_3D ( 'NONE', #54, #539, #60 ) ;
#246 = EDGE_LOOP ( 'NONE', ( #902, #503, #123, #237, #679 ) ) ;
#247 = CARTESIAN_POINT ( 'NONE',  ( -2.500000000000000000, 0.5250000000000000222, -7.481602435307559418 ) ) ;
#248 = DIRECTION ( 'NONE',  ( 1.000000000000000000, -0.000000000000000000, 0.000000000000000000 ) ) ;
#249 = EDGE_CURVE ( 'NONE', #992, #814, #207, .T. ) ;
#250 = VERTEX_POINT ( 'NONE', #449 ) ;
#251 = CARTESIAN_POINT ( 'NONE',  ( -2.500000000000000000, 0.000000000000000000, 0.000000000000000000 ) ) ;
#252 = VERTEX_POINT ( 'NONE', #618 ) ;
#253 = CARTESIAN_POINT ( 'NONE',  ( -2.500000000000000000, 0.000000000000000000, 0.000000000000000000 ) ) ;
#254 = CONICAL_SURFACE ( 'NONE', #478, 4.000000000000000000, 0.7853981633974552734 ) ;
#255 = CARTESIAN_POINT ( 'NONE',  ( 2.422958146310262517, -7.337040783395863741, -1.554938115419977063 ) ) ;
#256 = EDGE_LOOP ( 'NONE', ( #796, #76, #368 ) ) ;
#257 = DIRECTION ( 'NONE',  ( 1.000000000000000000, -0.000000000000000000, 0.000000000000000000 ) ) ;
#258 = VERTEX_POINT ( 'NONE', #692 ) ;
#259 = DIRECTION ( 'NONE',  ( -0.000000000000000000, 0.7071067811865467956, 0.7071067811865483499 ) ) ;
#260 = DIRECTION ( 'NONE',  ( 0.000000000000000000, 0.000000000000000000, -1.000000000000000000 ) ) ;
#261 = EDGE_LOOP ( 'NONE', ( #981, #363, #1027, #807 ) ) ;
#262 = CARTESIAN_POINT ( 'NONE',  ( 2.333001044516822997, 3.333001044516821221, -2.769384077812530265 ) ) ;
#263 = EDGE_CURVE ( 'NONE', #816, #250, #474, .T. ) ;
#264 = VECTOR ( 'NONE', #96, 1000.000000000000000 ) ;
#265 = PLANE ( 'NONE',  #425 ) ;
#266 = B_SPLINE_CURVE_WITH_KNOTS ( 'NONE', 3,
 ( #107, #849, #600, #779 ),
 .UNSPECIFIED., .F., .F.,
 ( 4, 4 ),
 ( 0.000000000000000000, 0.0007303221569305475957 ),
 .UNSPECIFIED. ) ;
#267 = ORIENTED_EDGE ( 'NONE', *, *, #409, .F. ) ;
#268 = CARTESIAN_POINT ( 'NONE',  ( -2.333001044516818112, 3.333001044516825662, 2.769384077812532929 ) ) ;
#269 = FACE_OUTER_BOUND ( 'NONE', #329, .T. ) ;
#270 = PLANE ( 'NONE',  #404 ) ;
#271 = ORIENTED_EDGE ( 'NONE', *, *, #341, .F. ) ;
#272 = CARTESIAN_POINT ( 'NONE',  ( -2.500000000000000000, 0.000000000000000000, 0.000000000000000000 ) ) ;
#273 = CARTESIAN_POINT ( 'NONE',  ( -2.500000000000000000, 0.5249999999999994671, -7.481602435307559418 ) ) ;
#274 = CARTESIAN_POINT ( 'NONE',  ( 2.165299195635458140, -3.832556125273132608, -1.633150806269778155 ) ) ;
#275 = ORIENTED_EDGE ( 'NONE', *, *, #249, .T. ) ;
#276 = EDGE_CURVE ( 'NONE', #992, #1009, #762, .T. ) ;
#277 = CARTESIAN_POINT ( 'NONE',  ( -2.500000000000000000, 3.500000000000007550, 2.828427124747355581 ) ) ;
#278 = STYLED_ITEM ( 'NONE', ( #162 ), #826 ) ;
#279 = DIRECTION ( 'NONE',  ( 0.000000000000000000, 0.000000000000000000, -1.000000000000000000 ) ) ;
#280 = CARTESIAN_POINT ( 'NONE',  ( -2.500000000000000000, -7.320289706044744271, 1.631979969109725204 ) ) ;
#281 = CIRCLE ( 'NONE', #316, 2.000000000000001332 ) ;
#282 = ORIENTED_EDGE ( 'NONE', *, *, #321, .T. ) ;
#283 = CARTESIAN_POINT ( 'NONE',  ( 2.000000000000006661, 3.000000000000000000, -2.645751311064590716 ) ) ;
#284 = EDGE_CURVE ( 'NONE', #560, #564, #234, .T. ) ;
#285 = PRODUCT_DEFINITION_CONTEXT ( 'detailed design', #942, 'design' ) ;
#286 = DIRECTION ( 'NONE',  ( 1.000000000000000000, 0.000000000000000000, -0.000000000000000000 ) ) ;
#287 = ORIENTED_EDGE ( 'NONE', *, *, #610, .F. ) ;
#288 = LINE ( 'NONE', #631, #737 ) ;
#289 = VECTOR ( 'NONE', #687, 1000.000000000000114 ) ;
#290 = VECTOR ( 'NONE', #375, 1000.000000000000000 ) ;
#291 = LINE ( 'NONE', #535, #632 ) ;
#292 = CARTESIAN_POINT ( 'NONE',  ( -1.999999999999992673, -4.575992248569344945, -1.131979969109715212 ) ) ;
#293 = EDGE_LOOP ( 'NONE', ( #656, #155, #989 ) ) ;
#294 = CYLINDRICAL_SURFACE ( 'NONE', #216, 7.500000000000001776 ) ;
#295 = EDGE_CURVE ( 'NONE', #401, #487, #120, .T. ) ;
#296 = CARTESIAN_POINT ( 'NONE',  ( -2.500000000000000000, 0.000000000000000000, 4.500000000000007105 ) ) ;
#297 = CARTESIAN_POINT ( 'NONE',  ( 2.000000000000006661, 0.000000000000000000, -4.000000000000000000 ) ) ;
#298 = ORIENTED_EDGE ( 'NONE', *, *, #909, .F. ) ;
#299 = LINE ( 'NONE', #625, #55 ) ;
#300 = VECTOR ( 'NONE', #430, 1000.000000000000000 ) ;
#301 = LINE ( 'NONE', #720, #801 ) ;
#302 = SHAPE_DEFINITION_REPRESENTATION ( #724, #243 ) ;
#303 = ORIENTED_EDGE ( 'NONE', *, *, #559, .F. ) ;
#304 = CARTESIAN_POINT ( 'NONE',  ( -2.332186176941039246, -4.013540824811540730, 1.632054664895119744 ) ) ;
#305 = VECTOR ( 'NONE', #156, 1000.000000000000114 ) ;
#306 = CARTESIAN_POINT ( 'NONE',  ( 2.448667994825600935, -7.331592098486187759, -1.580647963935315703 ) ) ;
#307 = DIRECTION ( 'NONE',  ( 1.000000000000000000, 0.000000000000000000, 0.000000000000000000 ) ) ;
#308 = CARTESIAN_POINT ( 'NONE',  ( -2.500000000000000000, 3.500000000000007550, -2.828427124747355581 ) ) ;
#309 = EDGE_LOOP ( 'NONE', ( #146, #191, #83, #77 ) ) ;
#310 = VERTEX_POINT ( 'NONE', #696 ) ;
#311 = CARTESIAN_POINT ( 'NONE',  ( 2.500000000000000000, -7.320289706044745159, -1.631979969109717210 ) ) ;
#312 = LINE ( 'NONE', #641, #186 ) ;
#313 = DIRECTION ( 'NONE',  ( 0.000000000000000000, 0.000000000000000000, -1.000000000000000000 ) ) ;
#314 = ORIENTED_EDGE ( 'NONE', *, *, #19, .F. ) ;
#315 = EDGE_CURVE ( 'NONE', #325, #948, #291, .T. ) ;
#316 = AXIS2_PLACEMENT_3D ( 'NONE', #887, #1055, #313 ) ;
#317 = CARTESIAN_POINT ( 'NONE',  ( -2.500000000000000000, 50.00000000000000000, 0.000000000000000000 ) ) ;
#318 = PLANE ( 'NONE',  #744 ) ;
#319 = PLANE ( 'NONE',  #691 ) ;
#320 = ORIENTED_EDGE ( 'NONE', *, *, #1035, .T. ) ;
#321 = EDGE_CURVE ( 'NONE', #620, #1017, #128, .T. ) ;
#322 = CARTESIAN_POINT ( 'NONE',  ( 2.500000000000000000, -6.914082637085607885, -1.131979969109715212 ) ) ;
#323 = CARTESIAN_POINT ( 'NONE',  ( 2.500000000000000000, 50.00000000000000000, 0.000000000000000000 ) ) ;
#324 = CARTESIAN_POINT ( 'NONE',  ( -2.500000000000000000, 0.000000000000000000, 0.000000000000000000 ) ) ;
#325 = VERTEX_POINT ( 'NONE', #703 ) ;
#326 = EDGE_CURVE ( 'NONE', #514, #153, #622, .T. ) ;
#327 = LINE ( 'NONE', #585, #920 ) ;
#328 =( LENGTH_UNIT ( ) NAMED_UNIT ( * ) SI_UNIT ( .MILLI., .METRE. ) );
#329 = EDGE_LOOP ( 'NONE', ( #351, #959, #142, #738 ) ) ;
#330 = LINE ( 'NONE', #466, #577 ) ;
#331 = VECTOR ( 'NONE', #963, 1000.000000000000000 ) ;
#332 = EDGE_LOOP ( 'NONE', ( #233, #1021, #837, #104 ) ) ;
#333 = DIRECTION ( 'NONE',  ( 0.000000000000000000, 0.8783089145685379906, 0.4780935584061311583 ) ) ;
#334 = CARTESIAN_POINT ( 'NONE',  ( -1.999999999999992673, -11.16351445336563941, -1.131979969109715212 ) ) ;
#335 = ORIENTED_EDGE ( 'NONE', *, *, #284, .F. ) ;
#336 = CARTESIAN_POINT ( 'NONE',  ( 2.500000000000000000, -7.320289706044745159, -1.631979969109717210 ) ) ;
#337 = CARTESIAN_POINT ( 'NONE',  ( -2.500000000000000000, 3.000000000000000000, 0.000000000000000000 ) ) ;
#338 = CIRCLE ( 'NONE', #32, 4.000000000000000000 ) ;
#339 = CARTESIAN_POINT ( 'NONE',  ( 2.500000000000000000, -4.193642972455447371, 1.631979969109619955 ) ) ;
#340 = ORIENTED_EDGE ( 'NONE', *, *, #263, .T. ) ;
#341 = EDGE_CURVE ( 'NONE', #50, #620, #854, .T. ) ;
#342 = ORIENTED_EDGE ( 'NONE', *, *, #730, .F. ) ;
#343 = FACE_OUTER_BOUND ( 'NONE', #59, .T. ) ;
#344 = PLANE ( 'NONE',  #126 ) ;
#345 = VERTEX_POINT ( 'NONE', #311 ) ;
#346 = CARTESIAN_POINT ( 'NONE',  ( -1.999999999999992673, 3.000000000000000000, 2.645751311064590716 ) ) ;
#347 = ADVANCED_FACE ( 'NONE', ( #640 ), #873, .T. ) ;
#348 = VECTOR ( 'NONE', #674, 1000.000000000000114 ) ;
#349 = CARTESIAN_POINT ( 'NONE',  ( -2.500000000000000000, -7.320289706044744271, -1.631979969109722317 ) ) ;
#350 = DIRECTION ( 'NONE',  ( 1.000000000000000000, -0.000000000000000000, 0.000000000000000000 ) ) ;
#351 = ORIENTED_EDGE ( 'NONE', *, *, #629, .T. ) ;
#352 = CARTESIAN_POINT ( 'NONE',  ( 2.500000000000000000, 0.000000000000000000, 0.000000000000000000 ) ) ;
#353 = EDGE_CURVE ( 'NONE', #401, #851, #950, .T. ) ;
#354 = LINE ( 'NONE', #1010, #650 ) ;
#355 = FACE_OUTER_BOUND ( 'NONE', #1044, .T. ) ;
#356 = AXIS2_PLACEMENT_3D ( 'NONE', #337, #983, #432 ) ;
#357 = AXIS2_PLACEMENT_3D ( 'NONE', #317, #58, #139 ) ;
#358 = ORIENTED_EDGE ( 'NONE', *, *, #394, .F. ) ;
#359 = DIRECTION ( 'NONE',  ( 1.000000000000000000, -0.000000000000000000, 0.000000000000000000 ) ) ;
#360 = UNCERTAINTY_MEASURE_WITH_UNIT (LENGTH_MEASURE( 1.000000000000000082E-05 ), #328, 'distance_accuracy_value', 'NONE');
#361 = ADVANCED_FACE ( 'NONE', ( #134 ), #725, .F. ) ;
#362 = DIRECTION ( 'NONE',  ( -1.000000000000000000, -0.000000000000000000, -0.000000000000000000 ) ) ;
#363 = ORIENTED_EDGE ( 'NONE', *, *, #370, .F. ) ;
#364 = CARTESIAN_POINT ( 'NONE',  ( -2.500000000000000000, 0.000000000000000000, 0.000000000000000000 ) ) ;
#365 = AXIS2_PLACEMENT_3D ( 'NONE', #352, #182, #838 ) ;
#366 = CARTESIAN_POINT ( 'NONE',  ( 2.500000000000000000, 0.000000000000000000, 0.000000000000000000 ) ) ;
#367 = VECTOR ( 'NONE', #917, 1000.000000000000000 ) ;
#368 = ORIENTED_EDGE ( 'NONE', *, *, #455, .F. ) ;
#369 = CARTESIAN_POINT ( 'NONE',  ( -1.999999999999992673, 3.000000000000000000, -2.645751311064590716 ) ) ;
#370 = EDGE_CURVE ( 'NONE', #719, #923, #530, .T. ) ;
#371 = DIRECTION ( 'NONE',  ( 1.000000000000000000, 0.000000000000000000, 0.000000000000000000 ) ) ;
#372 = ORIENTED_EDGE ( 'NONE', *, *, #932, .T. ) ;
#373 = AXIS2_PLACEMENT_3D ( 'NONE', #366, #211, #859 ) ;
#374 = EDGE_CURVE ( 'NONE', #685, #816, #969, .T. ) ;
#375 = DIRECTION ( 'NONE',  ( 1.000000000000000000, 0.000000000000000000, 0.000000000000000000 ) ) ;
#376 = CARTESIAN_POINT ( 'NONE',  ( 2.000000000000005773, -3.650164604229165111, -1.635939596083102465 ) ) ;
#377 = EDGE_LOOP ( 'NONE', ( #541, #1007, #830, #93 ) ) ;
#378 = CYLINDRICAL_SURFACE ( 'NONE', #245, 2.000000000000001332 ) ;
#379 = FACE_OUTER_BOUND ( 'NONE', #12, .T. ) ;
#380 = ORIENTED_EDGE ( 'NONE', *, *, #99, .T. ) ;
#381 = CARTESIAN_POINT ( 'NONE',  ( -2.500000000000000000, -4.193642972455452700, 1.631979969109626838 ) ) ;
#382 = CIRCLE ( 'NONE', #365, 7.500000000000001776 ) ;
#383 = CARTESIAN_POINT ( 'NONE',  ( 2.500000000000000000, -4.193642972455448259, -1.631979969109617512 ) ) ;
#384 = DIRECTION ( 'NONE',  ( 0.000000000000000000, 0.000000000000000000, -1.000000000000000000 ) ) ;
#385 = CARTESIAN_POINT ( 'NONE',  ( 2.500000000000000000, 50.00000000000000000, 0.000000000000000000 ) ) ;
#386 = VERTEX_POINT ( 'NONE', #785 ) ;
#387 = LINE ( 'NONE', #147, #109 ) ;
#388 = ORIENTED_EDGE ( 'NONE', *, *, #965, .T. ) ;
#389 = CIRCLE ( 'NONE', #988, 2.000000000000001332 ) ;
#390 = VECTOR ( 'NONE', #223, 1000.000000000000114 ) ;
#391 = CARTESIAN_POINT ( 'NONE',  ( -1.999999999999992673, -6.914082637085599892, 1.131979969109717876 ) ) ;
#392 = CARTESIAN_POINT ( 'NONE',  ( -2.500000000000000000, 0.000000000000000000, 0.000000000000000000 ) ) ;
#393 = FACE_OUTER_BOUND ( 'NONE', #214, .T. ) ;
#394 = EDGE_CURVE ( 'NONE', #135, #386, #467, .T. ) ;
#395 = CARTESIAN_POINT ( 'NONE',  ( -2.165299195635449703, -3.832556125273136161, 1.633150806269777267 ) ) ;
#396 = ORIENTED_EDGE ( 'NONE', *, *, #872, .F. ) ;
#397 = EDGE_CURVE ( 'NONE', #995, #802, #1058, .T. ) ;
#398 = DIRECTION ( 'NONE',  ( 0.000000000000000000, 0.000000000000000000, -1.000000000000000000 ) ) ;
#399 = CARTESIAN_POINT ( 'NONE',  ( -2.500000000000000000, -7.337040783395863741, -1.554938115419976397 ) ) ;
#400 = FACE_OUTER_BOUND ( 'NONE', #1001, .T. ) ;
#401 = VERTEX_POINT ( 'NONE', #716 ) ;
#402 = AXIS2_PLACEMENT_3D ( 'NONE', #364, #599, #526 ) ;
#403 = EDGE_CURVE ( 'NONE', #875, #310, #884, .T. ) ;
#404 = AXIS2_PLACEMENT_3D ( 'NONE', #678, #850, #22 ) ;
#405 = CARTESIAN_POINT ( 'NONE',  ( -2.500000000000000000, 3.000000000000000000, -2.645751311064590716 ) ) ;
#406 = FACE_OUTER_BOUND ( 'NONE', #40, .T. ) ;
#407 = CARTESIAN_POINT ( 'NONE',  ( -2.500000000000000000, 50.28000000000001535, 3.990187965497367095 ) ) ;
#408 = ORIENTED_EDGE ( 'NONE', *, *, #431, .T. ) ;
#409 = EDGE_CURVE ( 'NONE', #386, #564, #63, .T. ) ;
#410 = VERTEX_POINT ( 'NONE', #712 ) ;
#411 = LINE ( 'NONE', #677, #613 ) ;
#412 = DIRECTION ( 'NONE',  ( 1.000000000000000000, 0.000000000000000000, 0.000000000000000000 ) ) ;
#413 = ORIENTED_EDGE ( 'NONE', *, *, #997, .T. ) ;
#414 = CARTESIAN_POINT ( 'NONE',  ( 2.500000000000000000, 0.000000000000000000, 0.000000000000000000 ) ) ;
#415 = EDGE_LOOP ( 'NONE', ( #208, #889, #534, #434, #689 ) ) ;
#416 = EDGE_CURVE ( 'NONE', #699, #135, #708, .T. ) ;
#417 = FACE_OUTER_BOUND ( 'NONE', #424, .T. ) ;
#418 = EDGE_LOOP ( 'NONE', ( #874, #562 ) ) ;
#419 = VECTOR ( 'NONE', #944, 1000.000000000000000 ) ;
#420 = DIRECTION ( 'NONE',  ( -0.8636228286408323962, 0.000000000000000000, 0.5041384828104351623 ) ) ;
#421 = ADVANCED_FACE ( 'NONE', ( #1040 ), #495, .F. ) ;
#422 = CARTESIAN_POINT ( 'NONE',  ( -2.422958146310255412, -7.337040783395863741, 1.554938115419980171 ) ) ;
#423 = EDGE_LOOP ( 'NONE', ( #885, #463, #187, #943 ) ) ;
#424 = EDGE_LOOP ( 'NONE', ( #172, #201, #69, #413 ) ) ;
#425 = AXIS2_PLACEMENT_3D ( 'NONE', #741, #591, #916 ) ;
#426 = CARTESIAN_POINT ( 'NONE',  ( -3.416477272093330519, -8.330559909178928635, -2.548457241203053503 ) ) ;
#427 = VECTOR ( 'NONE', #545, 999.9999999999998863 ) ;
#428 = CARTESIAN_POINT ( 'NONE',  ( -2.474348849217690827, -7.326008354615001217, -1.606328818327413366 ) ) ;
#429 = ORIENTED_EDGE ( 'NONE', *, *, #763, .T. ) ;
#430 = DIRECTION ( 'NONE',  ( -1.000000000000000000, -0.000000000000000000, -0.000000000000000000 ) ) ;
#431 = EDGE_CURVE ( 'NONE', #1059, #560, #553, .T. ) ;
#432 = DIRECTION ( 'NONE',  ( 0.000000000000000000, -0.000000000000000000, -1.000000000000000000 ) ) ;
#433 = DIRECTION ( 'NONE',  ( -1.000000000000000000, 0.000000000000000000, -0.000000000000000000 ) ) ;
#434 = ORIENTED_EDGE ( 'NONE', *, *, #853, .T. ) ;
#435 = CARTESIAN_POINT ( 'NONE',  ( -2.500000000000000000, 0.000000000000000000, 0.000000000000000000 ) ) ;
#436 = EDGE_CURVE ( 'NONE', #509, #816, #338, .T. ) ;
#437 = AXIS2_PLACEMENT_3D ( 'NONE', #937, #202, #532 ) ;
#438 = DIRECTION ( 'NONE',  ( 1.000000000000000000, -0.000000000000000000, 0.000000000000000000 ) ) ;
#439 = LINE ( 'NONE', #518, #367 ) ;
#440 = EDGE_LOOP ( 'NONE', ( #46, #372, #388, #945, #587, #649 ) ) ;
#441 = CARTESIAN_POINT ( 'NONE',  ( -2.500000000000000000, 50.00000000000000000, 0.000000000000000000 ) ) ;
#442 = EDGE_CURVE ( 'NONE', #685, #699, #301, .T. ) ;
#443 = CARTESIAN_POINT ( 'NONE',  ( -2.500000000000000000, 0.5250000000000000222, -7.481602435307559418 ) ) ;
#444 = CARTESIAN_POINT ( 'NONE',  ( -2.474348849217690827, -7.326008354615000329, 1.606328818327416474 ) ) ;
#445 = AXIS2_PLACEMENT_3D ( 'NONE', #855, #517, #611 ) ;
#446 = CIRCLE ( 'NONE', #151, 7.500000000000001776 ) ;
#447 = VERTEX_POINT ( 'NONE', #558 ) ;
#448 = FACE_OUTER_BOUND ( 'NONE', #61, .T. ) ;
#449 = CARTESIAN_POINT ( 'NONE',  ( 2.000000000000006661, -3.650164604229165111, -1.635939596083102909 ) ) ;
#450 = ORIENTED_EDGE ( 'NONE', *, *, #702, .F. ) ;
#451 = DIRECTION ( 'NONE',  ( 0.000000000000000000, 1.000000000000000000, 0.000000000000000000 ) ) ;
#452 = CARTESIAN_POINT ( 'NONE',  ( -2.500000000000000000, -3.650164604229164667, -1.635939596083102687 ) ) ;
#453 =( GEOMETRIC_REPRESENTATION_CONTEXT ( 3 ) GLOBAL_UNCERTAINTY_ASSIGNED_CONTEXT ( ( #360 ) ) GLOBAL_UNIT_ASSIGNED_CONTEXT ( ( #328, #980, #971 ) ) REPRESENTATION_CONTEXT ( 'NONE', 'WORKASPACE' ) );
#454 = ORIENTED_EDGE ( 'NONE', *, *, #751, .T. ) ;
#455 = EDGE_CURVE ( 'NONE', #88, #487, #462, .T. ) ;
#456 = CARTESIAN_POINT ( 'NONE',  ( 2.500000000000000000, -4.193642972455447371, 1.631979969109619955 ) ) ;
#457 = CARTESIAN_POINT ( 'NONE',  ( -2.500000000000000000, 0.000000000000000000, -7.500000000000001776 ) ) ;
#458 = DIRECTION ( 'NONE',  ( 0.000000000000000000, 0.000000000000000000, -1.000000000000000000 ) ) ;
#459 = ORIENTED_EDGE ( 'NONE', *, *, #341, .T. ) ;
#460 = CARTESIAN_POINT ( 'NONE',  ( 2.422958146310263849, -7.337040783395863741, 1.554938115419980171 ) ) ;
#461 = AXIS2_PLACEMENT_3D ( 'NONE', #747, #15, #596 ) ;
#462 = LINE ( 'NONE', #890, #305 ) ;
#463 = ORIENTED_EDGE ( 'NONE', *, *, #416, .F. ) ;
#464 = CARTESIAN_POINT ( 'NONE',  ( -1.999999999999992673, -3.650164604229168219, 1.635939596083095804 ) ) ;
#465 = VERTEX_POINT ( 'NONE', #483 ) ;
#466 = CARTESIAN_POINT ( 'NONE',  ( -2.500000000000000000, -7.337040783395863741, -1.554938115419977063 ) ) ;
#467 = LINE ( 'NONE', #227, #557 ) ;
#468 = AXIS2_PLACEMENT_3D ( 'NONE', #958, #141, #1032 ) ;
#469 = ORIENTED_EDGE ( 'NONE', *, *, #734, .T. ) ;
#470 = DIRECTION ( 'NONE',  ( 0.8636228286406616439, 0.000000000000000000, 0.5041384828107278171 ) ) ;
#471 = ORIENTED_EDGE ( 'NONE', *, *, #249, .F. ) ;
#472 = ADVANCED_FACE ( 'NONE', ( #379 ), #254, .F. ) ;
#473 = CARTESIAN_POINT ( 'NONE',  ( 2.000000000000006661, 0.000000000000000000, -4.000000000000000000 ) ) ;
#474 = LINE ( 'NONE', #452, #976 ) ;
#475 = CARTESIAN_POINT ( 'NONE',  ( -2.500000000000000000, 50.28000000000001535, -3.990187965497365319 ) ) ;
#476 = ORIENTED_EDGE ( 'NONE', *, *, #137, .T. ) ;
#477 = VECTOR ( 'NONE', #828, 1000.000000000000000 ) ;
#478 = AXIS2_PLACEMENT_3D ( 'NONE', #1034, #626, #898 ) ;
#479 = DIRECTION ( 'NONE',  ( 1.000000000000000000, 0.000000000000000000, 0.000000000000000000 ) ) ;
#480 = EDGE_CURVE ( 'NONE', #525, #560, #168, .T. ) ;
#481 = LINE ( 'NONE', #736, #862 ) ;
#482 = ORIENTED_EDGE ( 'NONE', *, *, #90, .F. ) ;
#483 = CARTESIAN_POINT ( 'NONE',  ( 2.500000000000000000, -7.320289706044745159, 1.631979969109718098 ) ) ;
#484 = ORIENTED_EDGE ( 'NONE', *, *, #315, .F. ) ;
#485 = CARTESIAN_POINT ( 'NONE',  ( -1.999999999999992673, -3.650164604229165111, -1.635939596083102909 ) ) ;
#486 = EDGE_CURVE ( 'NONE', #258, #936, #446, .T. ) ;
#487 = VERTEX_POINT ( 'NONE', #575 ) ;
#488 = EDGE_LOOP ( 'NONE', ( #303, #653, #267, #358, #543 ) ) ;
#489 = CARTESIAN_POINT ( 'NONE',  ( -2.500000000000000000, -0.000000000000000000, 1.631979969109725204 ) ) ;
#490 =( BOUNDED_CURVE ( )  B_SPLINE_CURVE ( 3, ( #922, #607, #428, #103 ),
 .UNSPECIFIED., .F., .T. ) 
 B_SPLINE_CURVE_WITH_KNOTS ( ( 4, 4 ),
 ( 1.779636161266661798, 1.790148463525563116 ),
 .UNSPECIFIED. ) 
 CURVE ( )  GEOMETRIC_REPRESENTATION_ITEM ( )  RATIONAL_B_SPLINE_CURVE ( ( 1.000000000000000000, 0.9999907909796363903, 0.9999907909796363903, 1.000000000000000000 ) ) 
 REPRESENTATION_ITEM ( '' )  );
#491 = ORIENTED_EDGE ( 'NONE', *, *, #1011, .T. ) ;
#492 = CARTESIAN_POINT ( 'NONE',  ( 2.500000000000000000, -7.320289706044745159, 1.631979969109718098 ) ) ;
#493 = AXIS2_PLACEMENT_3D ( 'NONE', #844, #682, #193 ) ;
#494 = EDGE_CURVE ( 'NONE', #754, #465, #561, .T. ) ;
#495 = CONICAL_SURFACE ( 'NONE', #1024, 4.500000000000007105, 0.7853981633974482790 ) ;
#496 = CYLINDRICAL_SURFACE ( 'NONE', #780, 7.500000000000001776 ) ;
#497 = CARTESIAN_POINT ( 'NONE',  ( -1.999999999999992673, 3.000000000000000000, -2.645751311064590716 ) ) ;
#498 = ORIENTED_EDGE ( 'NONE', *, *, #442, .F. ) ;
#499 = CARTESIAN_POINT ( 'NONE',  ( 2.422958146310263849, -7.337040783395863741, 1.554938115419980171 ) ) ;
#500 = ORIENTED_EDGE ( 'NONE', *, *, #676, .T. ) ;
#501 = LINE ( 'NONE', #489, #477 ) ;
#502 = DIRECTION ( 'NONE',  ( 0.000000000000000000, 0.000000000000000000, -1.000000000000000000 ) ) ;
#503 = ORIENTED_EDGE ( 'NONE', *, *, #132, .F. ) ;
#504 = VECTOR ( 'NONE', #609, 999.9999999999998863 ) ;
#505 = CIRCLE ( 'NONE', #643, 4.500000000000007105 ) ;
#506 = EDGE_CURVE ( 'NONE', #250, #1059, #745, .T. ) ;
#507 = DIRECTION ( 'NONE',  ( 0.000000000000000000, 0.000000000000000000, 1.000000000000000000 ) ) ;
#508 = CARTESIAN_POINT ( 'NONE',  ( 2.000000000000006661, -3.650164604229165111, -1.635939596083102909 ) ) ;
#509 = VERTEX_POINT ( 'NONE', #819 ) ;
#510 = DIRECTION ( 'NONE',  ( 1.000000000000000000, 0.000000000000000000, 0.000000000000000000 ) ) ;
#511 = VECTOR ( 'NONE', #371, 1000.000000000000000 ) ;
#512 = DIRECTION ( 'NONE',  ( 0.000000000000000000, -0.06999999999999997891, 0.9975469913743412187 ) ) ;
#513 = CARTESIAN_POINT ( 'NONE',  ( 2.332186176941043243, -4.013540824811536289, -1.632054664895115970 ) ) ;
#514 = VERTEX_POINT ( 'NONE', #391 ) ;
#515 = EDGE_CURVE ( 'NONE', #857, #1056, #330, .T. ) ;
#516 = DIRECTION ( 'NONE',  ( -1.000000000000000000, -0.000000000000000000, -0.000000000000000000 ) ) ;
#517 = DIRECTION ( 'NONE',  ( -0.000000000000000000, 0.4780935584061298260, 0.8783089145685386567 ) ) ;
#518 = CARTESIAN_POINT ( 'NONE',  ( -2.500000000000000000, -7.337040783395863741, 1.554938115419980171 ) ) ;
#519 = EDGE_LOOP ( 'NONE', ( #827, #275, #865, #663 ) ) ;
#520 = LINE ( 'NONE', #852, #829 ) ;
#521 = ADVANCED_FACE ( 'NONE', ( #87 ), #634, .F. ) ;
#522 = AXIS2_PLACEMENT_3D ( 'NONE', #588, #510, #767 ) ;
#523 = CARTESIAN_POINT ( 'NONE',  ( -2.500000000000000000, 0.5250000000000000222, 7.481602435307561194 ) ) ;
#524 = CARTESIAN_POINT ( 'NONE',  ( -1.999999999999992673, 0.000000000000000000, 0.000000000000000000 ) ) ;
#525 = VERTEX_POINT ( 'NONE', #791 ) ;
#526 = DIRECTION ( 'NONE',  ( 0.000000000000000000, 0.000000000000000000, -1.000000000000000000 ) ) ;
#527 = PRODUCT_RELATED_PRODUCT_CATEGORY ( 'part', '', ( #635 ) ) ;
#528 = PLANE ( 'NONE',  #445 ) ;
#529 = CARTESIAN_POINT ( 'NONE',  ( 2.500000000000000000, 0.000000000000000000, 0.000000000000000000 ) ) ;
#530 = CIRCLE ( 'NONE', #357, 2.000000000000001332 ) ;
#531 = VERTEX_POINT ( 'NONE', #658 ) ;
#532 = DIRECTION ( 'NONE',  ( 0.000000000000000000, 0.000000000000000000, -1.000000000000000000 ) ) ;
#533 = PLANE ( 'NONE',  #886 ) ;
#534 = ORIENTED_EDGE ( 'NONE', *, *, #276, .T. ) ;
#535 = CARTESIAN_POINT ( 'NONE',  ( 2.500000000000000000, 0.5250000000000000222, 7.481602435307561194 ) ) ;
#536 = CARTESIAN_POINT ( 'NONE',  ( 0.000000000000000000, 0.000000000000000000, 0.000000000000000000 ) ) ;
#537 = CIRCLE ( 'NONE', #813, 7.500000000000001776 ) ;
#538 = ORIENTED_EDGE ( 'NONE', *, *, #315, .T. ) ;
#539 = DIRECTION ( 'NONE',  ( 1.000000000000000000, 0.000000000000000000, 0.000000000000000000 ) ) ;
#540 = CARTESIAN_POINT ( 'NONE',  ( -2.500000000000000000, 0.000000000000000000, 0.000000000000000000 ) ) ;
#541 = ORIENTED_EDGE ( 'NONE', *, *, #236, .F. ) ;
#542 = DIRECTION ( 'NONE',  ( 1.000000000000000000, 0.000000000000000000, 0.000000000000000000 ) ) ;
#543 = ORIENTED_EDGE ( 'NONE', *, *, #695, .T. ) ;
#544 = CARTESIAN_POINT ( 'NONE',  ( 2.000000000000006661, 0.000000000000000000, 0.000000000000000000 ) ) ;
#545 = DIRECTION ( 'NONE',  ( 7.300259601604167284E-16, 0.8783089145685387678, -0.4780935584061298260 ) ) ;
#546 = ORIENTED_EDGE ( 'NONE', *, *, #1029, .F. ) ;
#547 = FACE_OUTER_BOUND ( 'NONE', #488, .T. ) ;
#548 = ADVANCED_FACE ( 'NONE', ( #176 ), #933, .F. ) ;
#549 = DIRECTION ( 'NONE',  ( 1.000000000000000000, -0.000000000000000000, 0.000000000000000000 ) ) ;
#550 = DIRECTION ( 'NONE',  ( 0.000000000000000000, 0.000000000000000000, -1.000000000000000000 ) ) ;
#551 = AXIS2_PLACEMENT_3D ( 'NONE', #1048, #412, #732 ) ;
#552 = EDGE_LOOP ( 'NONE', ( #459, #282, #893, #951, #904, #673 ) ) ;
#553 = LINE ( 'NONE', #473, #204 ) ;
#554 = PLANE ( 'NONE',  #576 ) ;
#555 = ORIENTED_EDGE ( 'NONE', *, *, #263, .F. ) ;
#556 = AXIS2_PLACEMENT_3D ( 'NONE', #1020, #199, #764 ) ;
#557 = VECTOR ( 'NONE', #878, 1000.000000000000000 ) ;
#558 = CARTESIAN_POINT ( 'NONE',  ( -1.999999999999992673, -3.650164604229168219, 1.635939596083095804 ) ) ;
#559 = EDGE_CURVE ( 'NONE', #345, #857, #1038, .T. ) ;
#560 = VERTEX_POINT ( 'NONE', #985 ) ;
#561 =( BOUNDED_CURVE ( )  B_SPLINE_CURVE ( 3, ( #499, #138, #163, #492 ),
 .UNSPECIFIED., .F., .F. ) 
 B_SPLINE_CURVE_WITH_KNOTS ( ( 4, 4 ),
 ( 4.921228814856455358, 4.931741117115355344 ),
 .UNSPECIFIED. ) 
 CURVE ( )  GEOMETRIC_REPRESENTATION_ITEM ( )  RATIONAL_B_SPLINE_CURVE ( ( 1.000000000000000000, 0.9999907909796363903, 0.9999907909796363903, 1.000000000000000000 ) ) 
 REPRESENTATION_ITEM ( '' )  );
#562 = ORIENTED_EDGE ( 'NONE', *, *, #26, .F. ) ;
#563 = ORIENTED_EDGE ( 'NONE', *, *, #397, .T. ) ;
#564 = VERTEX_POINT ( 'NONE', #383 ) ;
#565 = SURFACE_STYLE_FILL_AREA ( #85 ) ;
#566 = ORIENTED_EDGE ( 'NONE', *, *, #769, .T. ) ;
#567 = ADVANCED_FACE ( 'NONE', ( #226 ), #1051, .F. ) ;
#568 = AXIS2_PLACEMENT_3D ( 'NONE', #435, #750, #690 ) ;
#569 = DIRECTION ( 'NONE',  ( 0.000000000000000000, 0.000000000000000000, -1.000000000000000000 ) ) ;
#570 = UNCERTAINTY_MEASURE_WITH_UNIT (LENGTH_MEASURE( 1.000000000000000082E-05 ), #612, 'distance_accuracy_value', 'NONE');
#571 = ORIENTED_EDGE ( 'NONE', *, *, #19, .T. ) ;
#572 = FACE_OUTER_BOUND ( 'NONE', #440, .T. ) ;
#573 = DIRECTION ( 'NONE',  ( 0.000000000000000000, 0.000000000000000000, -1.000000000000000000 ) ) ;
#574 = ORIENTED_EDGE ( 'NONE', *, *, #866, .T. ) ;
#575 = CARTESIAN_POINT ( 'NONE',  ( 2.000000000000006661, -4.575992248569327181, 1.131979969109717876 ) ) ;
#576 = AXIS2_PLACEMENT_3D ( 'NONE', #399, #721, #1054 ) ;
#577 = VECTOR ( 'NONE', #81, 1000.000000000000000 ) ;
#578 =( GEOMETRIC_REPRESENTATION_CONTEXT ( 3 ) GLOBAL_UNCERTAINTY_ASSIGNED_CONTEXT ( ( #570 ) ) GLOBAL_UNIT_ASSIGNED_CONTEXT ( ( #612, #1026, #637 ) ) REPRESENTATION_CONTEXT ( 'NONE', 'WORKASPACE' ) );
#579 = DIRECTION ( 'NONE',  ( 0.000000000000000000, 0.000000000000000000, -1.000000000000000000 ) ) ;
#580 = CARTESIAN_POINT ( 'NONE',  ( -2.500000000000000000, 50.28000000000001535, 3.990187965497367095 ) ) ;
#581 = ORIENTED_EDGE ( 'NONE', *, *, #205, .T. ) ;
#582 = DIRECTION ( 'NONE',  ( 0.000000000000000000, 0.000000000000000000, 1.000000000000000000 ) ) ;
#583 = ADVANCED_FACE ( 'NONE', ( #7, #908 ), #930, .F. ) ;
#584 = ORIENTED_EDGE ( 'NONE', *, *, #436, .F. ) ;
#585 = CARTESIAN_POINT ( 'NONE',  ( -2.501000000000000334, -4.575992248569344945, -1.131979969109715212 ) ) ;
#586 = LINE ( 'NONE', #753, #264 ) ;
#587 = ORIENTED_EDGE ( 'NONE', *, *, #617, .F. ) ;
#588 = CARTESIAN_POINT ( 'NONE',  ( 2.000000000000006661, 0.000000000000000000, 0.000000000000000000 ) ) ;
#589 = AXIS2_PLACEMENT_3D ( 'NONE', #906, #75, #502 ) ;
#590 = EDGE_CURVE ( 'NONE', #258, #325, #520, .T. ) ;
#591 = DIRECTION ( 'NONE',  ( 0.4562398127792119951, 0.4254348331923053506, -0.7815692137884046042 ) ) ;
#592 = FACE_OUTER_BOUND ( 'NONE', #766, .T. ) ;
#593 = ORIENTED_EDGE ( 'NONE', *, *, #494, .F. ) ;
#594 = CARTESIAN_POINT ( 'NONE',  ( -2.500000000000000000, 0.000000000000000000, 0.000000000000000000 ) ) ;
#595 = AXIS2_PLACEMENT_3D ( 'NONE', #189, #438, #279 ) ;
#596 = DIRECTION ( 'NONE',  ( 0.000000000000000000, 0.000000000000000000, -1.000000000000000000 ) ) ;
#597 = EDGE_CURVE ( 'NONE', #88, #447, #25, .T. ) ;
#598 = EDGE_LOOP ( 'NONE', ( #380, #498, #67, #74, #219 ) ) ;
#599 = DIRECTION ( 'NONE',  ( 1.000000000000000000, 0.000000000000000000, 0.000000000000000000 ) ) ;
#600 = CARTESIAN_POINT ( 'NONE',  ( 2.333001044517587275, 3.333001044516645806, 2.769384077810979505 ) ) ;
#601 = DIRECTION ( 'NONE',  ( 0.000000000000000000, 0.000000000000000000, 1.000000000000000000 ) ) ;
#602 = ORIENTED_EDGE ( 'NONE', *, *, #897, .T. ) ;
#603 = CARTESIAN_POINT ( 'NONE',  ( -2.166301670785299116, 3.166301670785306666, -2.708607434425937210 ) ) ;
#604 = CIRCLE ( 'NONE', #949, 4.500000000000007105 ) ;
#605 = AXIS2_PLACEMENT_3D ( 'NONE', #385, #117, #458 ) ;
#606 = CARTESIAN_POINT ( 'NONE',  ( -2.500000000000000000, 0.000000000000000000, -4.000000000000000000 ) ) ;
#607 = CARTESIAN_POINT ( 'NONE',  ( -2.448667994825598271, -7.331592098486185982, -1.580647963935320588 ) ) ;
#608 = ORIENTED_EDGE ( 'NONE', *, *, #198, .T. ) ;
#609 = DIRECTION ( 'NONE',  ( 0.5773502691896230665, -0.5773502691896235106, -0.5773502691896308381 ) ) ;
#610 = EDGE_CURVE ( 'NONE', #1065, #875, #953, .T. ) ;
#611 = DIRECTION ( 'NONE',  ( 1.000000000000000000, 0.000000000000000000, 0.000000000000000000 ) ) ;
#612 =( LENGTH_UNIT ( ) NAMED_UNIT ( * ) SI_UNIT ( .MILLI., .METRE. ) );
#613 = VECTOR ( 'NONE', #333, 1000.000000000000114 ) ;
#614 = EDGE_LOOP ( 'NONE', ( #244, #210 ) ) ;
#615 = CARTESIAN_POINT ( 'NONE',  ( 2.500000000000000000, 3.500000000000000444, 0.000000000000000000 ) ) ;
#616 = ADVANCED_FACE ( 'NONE', ( #448 ), #111, .T. ) ;
#617 = EDGE_CURVE ( 'NONE', #325, #465, #382, .T. ) ;
#618 = CARTESIAN_POINT ( 'NONE',  ( 2.500000000000000000, 50.00000000000000000, -2.000000000000001332 ) ) ;
#619 = EDGE_LOOP ( 'NONE', ( #899, #408, #1062, #846 ) ) ;
#620 = VERTEX_POINT ( 'NONE', #925 ) ;
#621 = AXIS2_PLACEMENT_3D ( 'NONE', #594, #516, #772 ) ;
#622 = LINE ( 'NONE', #636, #101 ) ;
#623 = EDGE_CURVE ( 'NONE', #841, #1009, #80, .T. ) ;
#624 = ORIENTED_EDGE ( 'NONE', *, *, #177, .T. ) ;
#625 = CARTESIAN_POINT ( 'NONE',  ( 2.500000000000000000, -3.836485546634363253, 1.631979969109718320 ) ) ;
#626 = DIRECTION ( 'NONE',  ( 1.000000000000000000, 0.000000000000000000, 0.000000000000000000 ) ) ;
#627 = APPLICATION_PROTOCOL_DEFINITION ( 'draft international standard', 'automotive_design', 1998, #942 ) ;
#628 = DIRECTION ( 'NONE',  ( 1.000000000000000000, 0.000000000000000000, 0.000000000000000000 ) ) ;
#629 = EDGE_CURVE ( 'NONE', #310, #525, #843, .T. ) ;
#630 = CIRCLE ( 'NONE', #595, 4.500000000000007105 ) ;
#631 = CARTESIAN_POINT ( 'NONE',  ( -2.500000000000000000, 0.000000000000000000, -1.631979969109722539 ) ) ;
#632 = VECTOR ( 'NONE', #863, 1000.000000000000114 ) ;
#633 = ORIENTED_EDGE ( 'NONE', *, *, #597, .F. ) ;
#634 = CYLINDRICAL_SURFACE ( 'NONE', #23, 4.000000000000000000 ) ;
#635 = PRODUCT ( 'Short Arm', 'Short Arm', '', ( #45 ) ) ;
#636 = CARTESIAN_POINT ( 'NONE',  ( -3.416477272093340289, -8.330559909178949951, 2.548457241203065049 ) ) ;
#637 =( NAMED_UNIT ( * ) SI_UNIT ( $, .STERADIAN. ) SOLID_ANGLE_UNIT ( ) );
#638 = DIRECTION ( 'NONE',  ( 0.000000000000000000, 0.9975469913743412187, -0.06999999999999997891 ) ) ;
#639 = ORIENTED_EDGE ( 'NONE', *, *, #506, .F. ) ;
#640 = FACE_OUTER_BOUND ( 'NONE', #98, .T. ) ;
#641 = CARTESIAN_POINT ( 'NONE',  ( -1.999999999999992673, -11.16351445336563941, 1.131979969109717876 ) ) ;
#642 = CARTESIAN_POINT ( 'NONE',  ( -2.332186176940381994, -4.013540824812129593, -1.632054664894572626 ) ) ;
#643 = AXIS2_PLACEMENT_3D ( 'NONE', #324, #248, #573 ) ;
#644 = ORIENTED_EDGE ( 'NONE', *, *, #35, .T. ) ;
#645 = EDGE_CURVE ( 'NONE', #1059, #310, #982, .T. ) ;
#646 = DIRECTION ( 'NONE',  ( 1.000000000000000000, 0.000000000000000000, 0.000000000000000000 ) ) ;
#647 = ORIENTED_EDGE ( 'NONE', *, *, #90, .T. ) ;
#648 = DIRECTION ( 'NONE',  ( 0.000000000000000000, -1.000000000000000000, 0.000000000000000000 ) ) ;
#649 = ORIENTED_EDGE ( 'NONE', *, *, #590, .F. ) ;
#650 = VECTOR ( 'NONE', #1025, 1000.000000000000000 ) ;
#651 = ORIENTED_EDGE ( 'NONE', *, *, #220, .F. ) ;
#652 = ORIENTED_EDGE ( 'NONE', *, *, #225, .F. ) ;
#653 = ORIENTED_EDGE ( 'NONE', *, *, #1011, .F. ) ;
#654 = CARTESIAN_POINT ( 'NONE',  ( -2.422958146310255412, -7.337040783395863741, 1.554938115419980171 ) ) ;
#655 = EDGE_CURVE ( 'NONE', #754, #29, #30, .T. ) ;
#656 = ORIENTED_EDGE ( 'NONE', *, *, #1045, .T. ) ;
#657 = CONICAL_SURFACE ( 'NONE', #195, 4.000000000000000000, 0.7853981633974552734 ) ;
#658 = CARTESIAN_POINT ( 'NONE',  ( 2.000000000000006661, 3.000000000000000000, 2.645751311064590716 ) ) ;
#659 = VERTEX_POINT ( 'NONE', #1008 ) ;
#660 = PLANE ( 'NONE',  #221 ) ;
#661 = DIRECTION ( 'NONE',  ( 0.7071067811865475727, 0.000000000000000000, -0.7071067811865475727 ) ) ;
#662 = ADVANCED_FACE ( 'NONE', ( #1003 ), #919, .F. ) ;
#663 = ORIENTED_EDGE ( 'NONE', *, *, #623, .T. ) ;
#664 = CARTESIAN_POINT ( 'NONE',  ( -2.500000000000000000, 0.000000000000000000, 0.000000000000000000 ) ) ;
#665 = AXIS2_PLACEMENT_3D ( 'NONE', #102, #1005, #420 ) ;
#666 = VECTOR ( 'NONE', #150, 1000.000000000000114 ) ;
#667 = PLANE ( 'NONE',  #461 ) ;
#668 = CARTESIAN_POINT ( 'NONE',  ( 2.000000000000006661, -3.650164604229168219, 1.635939596083095804 ) ) ;
#669 = ORIENTED_EDGE ( 'NONE', *, *, #394, .T. ) ;
#670 = CARTESIAN_POINT ( 'NONE',  ( -2.500000000000000000, 0.000000000000000000, 0.000000000000000000 ) ) ;
#671 = DIRECTION ( 'NONE',  ( 0.000000000000000000, 0.000000000000000000, -1.000000000000000000 ) ) ;
#672 = CARTESIAN_POINT ( 'NONE',  ( -2.501000000000000334, -11.16351445336563941, -1.131979969109715212 ) ) ;
#673 = ORIENTED_EDGE ( 'NONE', *, *, #1022, .T. ) ;
#674 = DIRECTION ( 'NONE',  ( -0.5773502691896200689, 0.5773502691896291728, -0.5773502691896280625 ) ) ;
#675 = VECTOR ( 'NONE', #601, 1000.000000000000000 ) ;
#676 = EDGE_CURVE ( 'NONE', #841, #814, #604, .T. ) ;
#677 = CARTESIAN_POINT ( 'NONE',  ( -1.999999999999992673, -3.650164604229168219, 1.635939596083095804 ) ) ;
#678 = CARTESIAN_POINT ( 'NONE',  ( 2.000000000000006661, -11.16351445336563941, 1.131979969109717876 ) ) ;
#679 = ORIENTED_EDGE ( 'NONE', *, *, #326, .T. ) ;
#680 = CARTESIAN_POINT ( 'NONE',  ( -2.166301670785702349, 3.166301670785709899, 2.708607434423665694 ) ) ;
#681 = EDGE_LOOP ( 'NONE', ( #471, #913, #342, #239 ) ) ;
#682 = DIRECTION ( 'NONE',  ( -1.000000000000000000, -0.000000000000000000, -0.000000000000000000 ) ) ;
#683 = CARTESIAN_POINT ( 'NONE',  ( -1.999999999999992673, 3.000000000000000000, 2.645751311064590716 ) ) ;
#684 = ADVANCED_FACE ( 'NONE', ( #192 ), #894, .F. ) ;
#685 = VERTEX_POINT ( 'NONE', #1018 ) ;
#686 = CARTESIAN_POINT ( 'NONE',  ( -2.333001044517582834, 3.333001044516650246, -2.769384077810980838 ) ) ;
#687 = DIRECTION ( 'NONE',  ( 0.000000000000000000, 0.9975469913743412187, -0.06999999999999997891 ) ) ;
#688 = DIRECTION ( 'NONE',  ( 0.000000000000000000, 0.000000000000000000, -1.000000000000000000 ) ) ;
#689 = ORIENTED_EDGE ( 'NONE', *, *, #815, .T. ) ;
#690 = DIRECTION ( 'NONE',  ( 0.000000000000000000, 0.000000000000000000, -1.000000000000000000 ) ) ;
#691 = AXIS2_PLACEMENT_3D ( 'NONE', #334, #661, #648 ) ;
#692 = CARTESIAN_POINT ( 'NONE',  ( -2.500000000000000000, 0.5249999999999999112, 7.481602435307561194 ) ) ;
#693 = ORIENTED_EDGE ( 'NONE', *, *, #965, .F. ) ;
#694 = LINE ( 'NONE', #215, #773 ) ;
#695 = EDGE_CURVE ( 'NONE', #135, #857, #115, .T. ) ;
#696 = CARTESIAN_POINT ( 'NONE',  ( 2.000000000000006661, 3.000000000000000000, -2.645751311064590716 ) ) ;
#697 = AXIS2_PLACEMENT_3D ( 'NONE', #940, #38, #947 ) ;
#698 = AXIS2_PLACEMENT_3D ( 'NONE', #540, #307, #809 ) ;
#699 = VERTEX_POINT ( 'NONE', #842 ) ;
#700 = CARTESIAN_POINT ( 'NONE',  ( 2.500000000000000000, 0.5249999999999994671, -7.481602435307559418 ) ) ;
#701 = AXIS2_PLACEMENT_3D ( 'NONE', #536, #39, #786 ) ;
#702 = EDGE_CURVE ( 'NONE', #771, #918, #792, .T. ) ;
#703 = CARTESIAN_POINT ( 'NONE',  ( 2.500000000000000000, 0.5249999999999999112, 7.481602435307561194 ) ) ;
#704 = FACE_OUTER_BOUND ( 'NONE', #110, .T. ) ;
#705 = ORIENTED_EDGE ( 'NONE', *, *, #132, .T. ) ;
#706 = PLANE ( 'NONE',  #468 ) ;
#707 = ADVANCED_FACE ( 'NONE', ( #105 ), #858, .F. ) ;
#708 = LINE ( 'NONE', #322, #956 ) ;
#709 = PLANE ( 'NONE',  #1000 ) ;
#710 = EDGE_LOOP ( 'NONE', ( #429, #563, #651, #1049 ) ) ;
#711 = DIRECTION ( 'NONE',  ( 0.000000000000000000, -3.552713678800500929E-15, -1.000000000000000000 ) ) ;
#712 = CARTESIAN_POINT ( 'NONE',  ( -2.500000000000000000, -4.193642972455453588, -1.631979969109624395 ) ) ;
#713 = LINE ( 'NONE', #292, #877 ) ;
#714 = EDGE_CURVE ( 'NONE', #1009, #875, #694, .T. ) ;
#715 = CARTESIAN_POINT ( 'NONE',  ( -2.500000000000000000, 0.000000000000000000, 4.500000000000007105 ) ) ;
#716 = CARTESIAN_POINT ( 'NONE',  ( -1.999999999999992673, -4.575992248569327181, 1.131979969109717876 ) ) ;
#717 = DIRECTION ( 'NONE',  ( 0.000000000000000000, 0.000000000000000000, -1.000000000000000000 ) ) ;
#718 = DIRECTION ( 'NONE',  ( 1.000000000000000000, 0.000000000000000000, 0.000000000000000000 ) ) ;
#719 = VERTEX_POINT ( 'NONE', #131 ) ;
#720 = CARTESIAN_POINT ( 'NONE',  ( -1.999999999999992673, -11.16351445336563941, -1.131979969109715212 ) ) ;
#721 = DIRECTION ( 'NONE',  ( 0.000000000000000000, -0.7071067811865521247, 0.7071067811865430208 ) ) ;
#722 = DIRECTION ( 'NONE',  ( -0.000000000000000000, -1.000000000000000000, 0.000000000000000000 ) ) ;
#723 = AXIS2_PLACEMENT_3D ( 'NONE', #194, #433, #688 ) ;
#724 = PRODUCT_DEFINITION_SHAPE ( 'NONE', 'NONE',  #757 ) ;
#725 = CYLINDRICAL_SURFACE ( 'NONE', #888, 2.000000000000001332 ) ;
#726 = EDGE_LOOP ( 'NONE', ( #978, #175, #118 ) ) ;
#727 = SURFACE_SIDE_STYLE ('',( #565 ) ) ;
#728 = ORIENTED_EDGE ( 'NONE', *, *, #436, .T. ) ;
#729 = VECTOR ( 'NONE', #49, 1000.000000000000114 ) ;
#730 = EDGE_CURVE ( 'NONE', #851, #447, #242, .T. ) ;
#731 = CARTESIAN_POINT ( 'NONE',  ( -2.500000000000000000, 0.000000000000000000, 0.000000000000000000 ) ) ;
#732 = DIRECTION ( 'NONE',  ( 0.000000000000000000, 0.000000000000000000, -1.000000000000000000 ) ) ;
#733 = DIRECTION ( 'NONE',  ( -1.000000000000000000, 0.000000000000000000, -0.000000000000000000 ) ) ;
#734 = EDGE_CURVE ( 'NONE', #29, #514, #387, .T. ) ;
#735 = DIRECTION ( 'NONE',  ( -1.000000000000000000, 0.000000000000000000, 0.000000000000000000 ) ) ;
#736 = CARTESIAN_POINT ( 'NONE',  ( 2.000000000000006661, -7.414082637085614991, 1.131979969109717876 ) ) ;
#737 = VECTOR ( 'NONE', #870, 1000.000000000000000 ) ;
#738 = ORIENTED_EDGE ( 'NONE', *, *, #997, .F. ) ;
#739 = AXIS2_PLACEMENT_3D ( 'NONE', #1041, #941, #550 ) ;
#740 = DIRECTION ( 'NONE',  ( -1.000000000000000000, -0.000000000000000000, -0.000000000000000000 ) ) ;
#741 = CARTESIAN_POINT ( 'NONE',  ( 2.000000000000006661, -4.575992248569327181, 1.131979969109717876 ) ) ;
#742 = DIRECTION ( 'NONE',  ( 0.000000000000000000, 8.881784197001252323E-16, -1.000000000000000000 ) ) ;
#743 = ORIENTED_EDGE ( 'NONE', *, *, #763, .F. ) ;
#744 = AXIS2_PLACEMENT_3D ( 'NONE', #157, #3, #834 ) ;
#745 = CIRCLE ( 'NONE', #1042, 4.000000000000000000 ) ;
#746 = VERTEX_POINT ( 'NONE', #456 ) ;
#747 = CARTESIAN_POINT ( 'NONE',  ( 2.500000000000000000, 3.500000000000000444, 0.000000000000000000 ) ) ;
#748 = LINE ( 'NONE', #34, #1002 ) ;
#749 = ORIENTED_EDGE ( 'NONE', *, *, #442, .T. ) ;
#750 = DIRECTION ( 'NONE',  ( 1.000000000000000000, -0.000000000000000000, 0.000000000000000000 ) ) ;
#751 = EDGE_CURVE ( 'NONE', #50, #410, #288, .T. ) ;
#752 = DIRECTION ( 'NONE',  ( 1.000000000000000000, 0.000000000000000000, 0.000000000000000000 ) ) ;
#753 = CARTESIAN_POINT ( 'NONE',  ( 2.000000000000006661, 3.000000000000000000, 0.000000000000000000 ) ) ;
#754 = VERTEX_POINT ( 'NONE', #460 ) ;
#755 = DIRECTION ( 'NONE',  ( 1.000000000000000000, 0.000000000000000000, 0.000000000000000000 ) ) ;
#756 = AXIS2_PLACEMENT_3D ( 'NONE', #1039, #56, #569 ) ;
#757 = PRODUCT_DEFINITION ( 'UNKNOWN', '', #33, #285 ) ;
#758 = FACE_OUTER_BOUND ( 'NONE', #787, .T. ) ;
#759 = PLANE ( 'NONE',  #968 ) ;
#760 = ORIENTED_EDGE ( 'NONE', *, *, #486, .F. ) ;
#761 = CARTESIAN_POINT ( 'NONE',  ( 2.500000000000000000, 3.500000000000000444, -2.828427124747353805 ) ) ;
#762 = CIRCLE ( 'NONE', #697, 4.000000000000000000 ) ;
#763 = EDGE_CURVE ( 'NONE', #771, #995, #777, .T. ) ;
#764 = DIRECTION ( 'NONE',  ( 0.000000000000000000, 0.000000000000000000, -1.000000000000000000 ) ) ;
#765 = CARTESIAN_POINT ( 'NONE',  ( 2.165299195636127383, -3.832556125272513547, 1.633150806270580846 ) ) ;
#766 = EDGE_LOOP ( 'NONE', ( #647, #749, #972, #669 ) ) ;
#767 = DIRECTION ( 'NONE',  ( 0.000000000000000000, 0.000000000000000000, -1.000000000000000000 ) ) ;
#768 = DIRECTION ( 'NONE',  ( 1.000000000000000000, 0.000000000000000000, 0.000000000000000000 ) ) ;
#769 = EDGE_CURVE ( 'NONE', #659, #525, #800, .T. ) ;
#770 = LINE ( 'NONE', #376, #144 ) ;
#771 = VERTEX_POINT ( 'NONE', #1028 ) ;
#772 = DIRECTION ( 'NONE',  ( 0.000000000000000000, 0.000000000000000000, 1.000000000000000000 ) ) ;
#773 = VECTOR ( 'NONE', #47, 1000.000000000000000 ) ;
#774 = CARTESIAN_POINT ( 'NONE',  ( -2.501000000000000334, -4.575992248569327181, 1.131979969109717876 ) ) ;
#775 = FACE_BOUND ( 'NONE', #418, .T. ) ;
#776 = ORIENTED_EDGE ( 'NONE', *, *, #979, .F. ) ;
#777 = LINE ( 'NONE', #475, #331 ) ;
#778 = ADVANCED_FACE ( 'NONE', ( #51 ), #378, .F. ) ;
#779 = CARTESIAN_POINT ( 'NONE',  ( 2.500000000000000000, 3.500000000000000444, 2.828427124747353805 ) ) ;
#780 = AXIS2_PLACEMENT_3D ( 'NONE', #253, #8, #579 ) ;
#781 =( BOUNDED_CURVE ( )  B_SPLINE_CURVE ( 3, ( #180, #444, #1006, #422 ),
 .UNSPECIFIED., .F., .T. ) 
 B_SPLINE_CURVE_WITH_KNOTS ( ( 4, 4 ),
 ( 4.493036843654023116, 4.503549145912923990 ),
 .UNSPECIFIED. ) 
 CURVE ( )  GEOMETRIC_REPRESENTATION_ITEM ( )  RATIONAL_B_SPLINE_CURVE ( ( 1.000000000000000000, 0.9999907909796363903, 0.9999907909796363903, 1.000000000000000000 ) ) 
 REPRESENTATION_ITEM ( '' )  );
#782 = ORIENTED_EDGE ( 'NONE', *, *, #590, .T. ) ;
#783 = CARTESIAN_POINT ( 'NONE',  ( -2.500000000000000000, 0.000000000000000000, 0.000000000000000000 ) ) ;
#784 = ADVANCED_FACE ( 'NONE', ( #124 ), #294, .T. ) ;
#785 = CARTESIAN_POINT ( 'NONE',  ( 2.000000000000006661, -4.575992248569344945, -1.131979969109715212 ) ) ;
#786 = DIRECTION ( 'NONE',  ( 1.000000000000000000, 0.000000000000000000, 0.000000000000000000 ) ) ;
#787 = EDGE_LOOP ( 'NONE', ( #469, #644, #114, #160 ) ) ;
#788 = FACE_OUTER_BOUND ( 'NONE', #293, .T. ) ;
#789 = ORIENTED_EDGE ( 'NONE', *, *, #815, .F. ) ;
#790 = ORIENTED_EDGE ( 'NONE', *, *, #431, .F. ) ;
#791 = CARTESIAN_POINT ( 'NONE',  ( 2.500000000000000000, 3.500000000000000444, -2.828427124747353805 ) ) ;
#792 = CIRCLE ( 'NONE', #437, 4.000000000000002665 ) ;
#793 = CARTESIAN_POINT ( 'NONE',  ( -1.999999999999992673, 0.000000000000000000, 0.000000000000000000 ) ) ;
#794 = DIRECTION ( 'NONE',  ( 0.000000000000000000, -0.06999999999999997891, -0.9975469913743412187 ) ) ;
#795 = CARTESIAN_POINT ( 'NONE',  ( -1.999999999999992673, -4.575992248569344945, -1.131979969109715212 ) ) ;
#796 = ORIENTED_EDGE ( 'NONE', *, *, #924, .T. ) ;
#797 = CARTESIAN_POINT ( 'NONE',  ( -2.500000000000000000, 0.000000000000000000, 0.000000000000000000 ) ) ;
#798 = ADVANCED_FACE ( 'NONE', ( #547 ), #706, .T. ) ;
#799 = PLANE ( 'NONE',  #1060 ) ;
#800 = LINE ( 'NONE', #615, #419 ) ;
#801 = VECTOR ( 'NONE', #1053, 1000.000000000000000 ) ;
#802 = VERTEX_POINT ( 'NONE', #700 ) ;
#803 = CARTESIAN_POINT ( 'NONE',  ( -2.500000000000000000, 50.00000000000000000, 0.000000000000000000 ) ) ;
#804 = ORIENTED_EDGE ( 'NONE', *, *, #897, .F. ) ;
#805 = EDGE_CURVE ( 'NONE', #465, #746, #299, .T. ) ;
#806 = LINE ( 'NONE', #70, #43 ) ;
#807 = ORIENTED_EDGE ( 'NONE', *, *, #835, .T. ) ;
#808 = ADVANCED_FACE ( 'NONE', ( #788 ), #709, .T. ) ;
#809 = DIRECTION ( 'NONE',  ( 0.000000000000000000, 0.000000000000000000, -1.000000000000000000 ) ) ;
#810 = PRESENTATION_LAYER_ASSIGNMENT (  '', '', ( #278 ) ) ;
#811 = ORIENTED_EDGE ( 'NONE', *, *, #655, .T. ) ;
#812 = DIRECTION ( 'NONE',  ( 1.000000000000000000, 0.000000000000000000, 0.000000000000000000 ) ) ;
#813 = AXIS2_PLACEMENT_3D ( 'NONE', #529, #350, #856 ) ;
#814 = VERTEX_POINT ( 'NONE', #715 ) ;
#815 = EDGE_CURVE ( 'NONE', #531, #88, #1, .T. ) ;
#816 = VERTEX_POINT ( 'NONE', #1064 ) ;
#817 = FACE_OUTER_BOUND ( 'NONE', #309, .T. ) ;
#818 = ORIENTED_EDGE ( 'NONE', *, *, #734, .F. ) ;
#819 = CARTESIAN_POINT ( 'NONE',  ( -1.999999999999992673, 0.000000000000000000, -4.000000000000000000 ) ) ;
#820 = VECTOR ( 'NONE', #628, 1000.000000000000000 ) ;
#821 = ADVANCED_FACE ( 'NONE', ( #400 ), #657, .F. ) ;
#822 = FACE_OUTER_BOUND ( 'NONE', #726, .T. ) ;
#823 = DIRECTION ( 'NONE',  ( 1.000000000000000000, 0.000000000000000000, 0.000000000000000000 ) ) ;
#824 = ORIENTED_EDGE ( 'NONE', *, *, #848, .T. ) ;
#825 = CARTESIAN_POINT ( 'NONE',  ( 2.474348849217692159, -7.326008354615002105, -1.606328818327407371 ) ) ;
#826 = MANIFOLD_SOLID_BREP ( 'Chamfer1', #222 ) ;
#827 = ORIENTED_EDGE ( 'NONE', *, *, #276, .F. ) ;
#828 = DIRECTION ( 'NONE',  ( 0.000000000000000000, -1.000000000000000000, -0.000000000000000000 ) ) ;
#829 = VECTOR ( 'NONE', #755, 1000.000000000000000 ) ;
#830 = ORIENTED_EDGE ( 'NONE', *, *, #26, .T. ) ;
#831 = AXIS2_PLACEMENT_3D ( 'NONE', #524, #362, #742 ) ;
#832 = DIRECTION ( 'NONE',  ( 0.000000000000000000, 0.000000000000000000, -1.000000000000000000 ) ) ;
#833 = ORIENTED_EDGE ( 'NONE', *, *, #220, .T. ) ;
#834 = DIRECTION ( 'NONE',  ( 1.000000000000000000, 0.000000000000000000, 0.000000000000000000 ) ) ;
#835 = EDGE_CURVE ( 'NONE', #252, #130, #281, .T. ) ;
#836 = CARTESIAN_POINT ( 'NONE',  ( 2.500000000000000000, 0.000000000000000000, -7.500000000000001776 ) ) ;
#837 = ORIENTED_EDGE ( 'NONE', *, *, #645, .T. ) ;
#838 = DIRECTION ( 'NONE',  ( 0.000000000000000000, 0.000000000000000000, -1.000000000000000000 ) ) ;
#839 = CARTESIAN_POINT ( 'NONE',  ( -1.999999999999992673, 3.000000000000000000, 0.000000000000000000 ) ) ;
#840 = CARTESIAN_POINT ( 'NONE',  ( 2.500000000000000000, -4.193642972455448259, -1.631979969109617512 ) ) ;
#841 = VERTEX_POINT ( 'NONE', #238 ) ;
#842 = CARTESIAN_POINT ( 'NONE',  ( -1.999999999999992673, -6.914082637085607885, -1.131979969109715212 ) ) ;
#843 = B_SPLINE_CURVE_WITH_KNOTS ( 'NONE', 3,
 ( #283, #847, #262, #761 ),
 .UNSPECIFIED., .F., .F.,
 ( 4, 4 ),
 ( 0.000000000000000000, 0.0007303221569312089590 ),
 .UNSPECIFIED. ) ;
#844 = CARTESIAN_POINT ( 'NONE',  ( -1.999999999999992673, 0.000000000000000000, 0.000000000000000000 ) ) ;
#845 = CARTESIAN_POINT ( 'NONE',  ( 2.000000000000006661, -3.650164604229165111, -1.635939596083102909 ) ) ;
#846 = ORIENTED_EDGE ( 'NONE', *, *, #629, .F. ) ;
#847 = CARTESIAN_POINT ( 'NONE',  ( 2.166301670785711675, 3.166301670785707234, -2.708607434423664806 ) ) ;
#848 = EDGE_CURVE ( 'NONE', #410, #816, #861, .T. ) ;
#849 = CARTESIAN_POINT ( 'NONE',  ( 2.166301670785307998, 3.166301670785304445, 2.708607434425936766 ) ) ;
#850 = DIRECTION ( 'NONE',  ( 0.7071067811865524577, 0.000000000000000000, -0.7071067811865425767 ) ) ;
#851 = VERTEX_POINT ( 'NONE', #92 ) ;
#852 = CARTESIAN_POINT ( 'NONE',  ( -2.500000000000000000, 0.5249999999999999112, 7.481602435307561194 ) ) ;
#853 = EDGE_CURVE ( 'NONE', #1009, #531, #241, .T. ) ;
#854 = CIRCLE ( 'NONE', #64, 7.500000000000001776 ) ;
#855 = CARTESIAN_POINT ( 'NONE',  ( -2.500000000000000000, -4.575992248569344945, -1.131979969109715212 ) ) ;
#856 = DIRECTION ( 'NONE',  ( 0.000000000000000000, 0.000000000000000000, -1.000000000000000000 ) ) ;
#857 = VERTEX_POINT ( 'NONE', #255 ) ;
#858 = PLANE ( 'NONE',  #931 ) ;
#859 = DIRECTION ( 'NONE',  ( 0.000000000000000000, 0.000000000000000000, -1.000000000000000000 ) ) ;
#860 = ORIENTED_EDGE ( 'NONE', *, *, #184, .F. ) ;
#861 = B_SPLINE_CURVE_WITH_KNOTS ( 'NONE', 3,
 ( #154, #642, #977, #485 ),
 .UNSPECIFIED., .F., .F.,
 ( 4, 4 ),
 ( 0.000000000000000000, 0.0007385014660619660613 ),
 .UNSPECIFIED. ) ;
#862 = VECTOR ( 'NONE', #722, 1000.000000000000000 ) ;
#863 = DIRECTION ( 'NONE',  ( 0.000000000000000000, 0.9975469913743412187, -0.06999999999999997891 ) ) ;
#864 = PLANE ( 'NONE',  #739 ) ;
#865 = ORIENTED_EDGE ( 'NONE', *, *, #676, .F. ) ;
#866 = EDGE_CURVE ( 'NONE', #410, #1065, #505, .T. ) ;
#867 = ORIENTED_EDGE ( 'NONE', *, *, #374, .F. ) ;
#868 = CARTESIAN_POINT ( 'NONE',  ( -2.468877910887477878, -4.217441988941932784, 1.600857879997203082 ) ) ;
#869 = ORIENTED_EDGE ( 'NONE', *, *, #973, .F. ) ;
#870 = DIRECTION ( 'NONE',  ( 0.000000000000000000, 1.000000000000000000, 0.000000000000000000 ) ) ;
#871 = ORIENTED_EDGE ( 'NONE', *, *, #213, .T. ) ;
#872 = EDGE_CURVE ( 'NONE', #487, #29, #481, .T. ) ;
#873 = CYLINDRICAL_SURFACE ( 'NONE', #698, 7.500000000000001776 ) ;
#874 = ORIENTED_EDGE ( 'NONE', *, *, #835, .F. ) ;
#875 = VERTEX_POINT ( 'NONE', #497 ) ;
#876 = DIRECTION ( 'NONE',  ( 1.000000000000000000, 0.000000000000000000, 0.000000000000000000 ) ) ;
#877 = VECTOR ( 'NONE', #212, 1000.000000000000000 ) ;
#878 = DIRECTION ( 'NONE',  ( 0.000000000000000000, 1.000000000000000000, 0.000000000000000000 ) ) ;
#879 = DIRECTION ( 'NONE',  ( 0.000000000000000000, 0.000000000000000000, -1.000000000000000000 ) ) ;
#880 = DIRECTION ( 'NONE',  ( -1.000000000000000000, 0.000000000000000000, 0.000000000000000000 ) ) ;
#881 = ORIENTED_EDGE ( 'NONE', *, *, #397, .F. ) ;
#882 = EDGE_CURVE ( 'NONE', #719, #252, #806, .T. ) ;
#883 = APPLICATION_CONTEXT ( 'automotive_design' ) ;
#884 = LINE ( 'NONE', #405, #991 ) ;
#885 = ORIENTED_EDGE ( 'NONE', *, *, #695, .F. ) ;
#886 = AXIS2_PLACEMENT_3D ( 'NONE', #1030, #44, #286 ) ;
#887 = CARTESIAN_POINT ( 'NONE',  ( 2.500000000000000000, 50.00000000000000000, 0.000000000000000000 ) ) ;
#888 = AXIS2_PLACEMENT_3D ( 'NONE', #803, #479, #73 ) ;
#889 = ORIENTED_EDGE ( 'NONE', *, *, #939, .T. ) ;
#890 = CARTESIAN_POINT ( 'NONE',  ( 2.000000000000006661, -4.575992248569327181, 1.131979969109717876 ) ) ;
#891 = CARTESIAN_POINT ( 'NONE',  ( -2.500000000000000000, 50.00000000000000000, 2.000000000000001332 ) ) ;
#892 = ADVANCED_FACE ( 'NONE', ( #5 ), #319, .F. ) ;
#893 = ORIENTED_EDGE ( 'NONE', *, *, #1035, .F. ) ;
#894 = CONICAL_SURFACE ( 'NONE', #621, 4.500000000000007105, 0.7853981633974482790 ) ;
#895 = ORIENTED_EDGE ( 'NONE', *, *, #321, .F. ) ;
#896 = SURFACE_STYLE_USAGE ( .BOTH. , #727 ) ;
#897 = EDGE_CURVE ( 'NONE', #918, #948, #158, .T. ) ;
#898 = DIRECTION ( 'NONE',  ( 0.000000000000000000, 0.000000000000000000, -1.000000000000000000 ) ) ;
#899 = ORIENTED_EDGE ( 'NONE', *, *, #645, .F. ) ;
#900 = DIRECTION ( 'NONE',  ( -0.7071067811865475727, -0.7071067811865475727, 0.000000000000000000 ) ) ;
#901 = CARTESIAN_POINT ( 'NONE',  ( -2.500000000000000000, 3.000000000000000000, 2.645751311064590716 ) ) ;
#902 = ORIENTED_EDGE ( 'NONE', *, *, #932, .F. ) ;
#903 = AXIS2_PLACEMENT_3D ( 'NONE', #414, #733, #711 ) ;
#904 = ORIENTED_EDGE ( 'NONE', *, *, #515, .T. ) ;
#905 = LINE ( 'NONE', #426, #938 ) ;
#906 = CARTESIAN_POINT ( 'NONE',  ( -2.500000000000000000, 0.000000000000000000, 0.000000000000000000 ) ) ;
#907 = ORIENTED_EDGE ( 'NONE', *, *, #506, .T. ) ;
#908 = FACE_OUTER_BOUND ( 'NONE', #224, .T. ) ;
#909 = EDGE_CURVE ( 'NONE', #620, #229, #1052, .T. ) ;
#910 = B_SPLINE_CURVE_WITH_KNOTS ( 'NONE', 3,
 ( #508, #274, #513, #840 ),
 .UNSPECIFIED., .F., .F.,
 ( 4, 4 ),
 ( 0.000000000000000000, 0.0007385014660619529424 ),
 .UNSPECIFIED. ) ;
#911 = CARTESIAN_POINT ( 'NONE',  ( -2.500000000000000000, -7.337040783395863741, 1.554938115419980393 ) ) ;
#912 = FACE_OUTER_BOUND ( 'NONE', #127, .T. ) ;
#913 = ORIENTED_EDGE ( 'NONE', *, *, #939, .F. ) ;
#914 = VECTOR ( 'NONE', #812, 1000.000000000000000 ) ;
#915 = CARTESIAN_POINT ( 'NONE',  ( -1.999999999999992673, -11.16351445336563941, 1.131979969109717876 ) ) ;
#916 = DIRECTION ( 'NONE',  ( -0.8636228286406564258, 0.000000000000000000, -0.5041384828107365879 ) ) ;
#917 = DIRECTION ( 'NONE',  ( 1.000000000000000000, 0.000000000000000000, 0.000000000000000000 ) ) ;
#918 = VERTEX_POINT ( 'NONE', #407 ) ;
#919 = CYLINDRICAL_SURFACE ( 'NONE', #402, 4.000000000000000000 ) ;
#920 = VECTOR ( 'NONE', #735, 1000.000000000000000 ) ;
#921 = CARTESIAN_POINT ( 'NONE',  ( 2.500000000000000000, 50.00000000000000000, 2.000000000000001332 ) ) ;
#922 = CARTESIAN_POINT ( 'NONE',  ( -2.422958146310254968, -7.337040783395863741, -1.554938115419977063 ) ) ;
#923 = VERTEX_POINT ( 'NONE', #928 ) ;
#924 = EDGE_CURVE ( 'NONE', #88, #746, #966, .T. ) ;
#925 = CARTESIAN_POINT ( 'NONE',  ( -2.500000000000000000, 0.000000000000000000, -7.500000000000001776 ) ) ;
#926 = ORIENTED_EDGE ( 'NONE', *, *, #617, .T. ) ;
#927 = DIRECTION ( 'NONE',  ( 1.000000000000000000, 0.000000000000000000, 0.000000000000000000 ) ) ;
#928 = CARTESIAN_POINT ( 'NONE',  ( -2.500000000000000000, 50.00000000000000000, 2.000000000000001332 ) ) ;
#929 = ORIENTED_EDGE ( 'NONE', *, *, #1050, .T. ) ;
#930 = PLANE ( 'NONE',  #568 ) ;
#931 = AXIS2_PLACEMENT_3D ( 'NONE', #915, #119, #451 ) ;
#932 = EDGE_CURVE ( 'NONE', #936, #153, #781, .T. ) ;
#933 = CONICAL_SURFACE ( 'NONE', #756, 4.000000000000000000, 0.7853981633974552734 ) ;
#934 = FACE_OUTER_BOUND ( 'NONE', #1031, .T. ) ;
#935 = CARTESIAN_POINT ( 'NONE',  ( 2.000000000000006661, -4.575992248569327181, 1.131979969109717876 ) ) ;
#936 = VERTEX_POINT ( 'NONE', #280 ) ;
#937 = CARTESIAN_POINT ( 'NONE',  ( -2.500000000000000000, 50.00000000000000000, 0.000000000000000000 ) ) ;
#938 = VECTOR ( 'NONE', #173, 1000.000000000000114 ) ;
#939 = EDGE_CURVE ( 'NONE', #447, #992, #230, .T. ) ;
#940 = CARTESIAN_POINT ( 'NONE',  ( -1.999999999999992673, 0.000000000000000000, 0.000000000000000000 ) ) ;
#941 = DIRECTION ( 'NONE',  ( 1.000000000000000000, -0.000000000000000000, 0.000000000000000000 ) ) ;
#942 = APPLICATION_CONTEXT ( 'automotive_design' ) ;
#943 = ORIENTED_EDGE ( 'NONE', *, *, #515, .F. ) ;
#944 = DIRECTION ( 'NONE',  ( 0.000000000000000000, 0.000000000000000000, -1.000000000000000000 ) ) ;
#945 = ORIENTED_EDGE ( 'NONE', *, *, #494, .T. ) ;
#946 = ADVANCED_FACE ( 'NONE', ( #592 ), #344, .F. ) ;
#947 = DIRECTION ( 'NONE',  ( 0.000000000000000000, 0.000000000000000000, -1.000000000000000000 ) ) ;
#948 = VERTEX_POINT ( 'NONE', #9 ) ;
#949 = AXIS2_PLACEMENT_3D ( 'NONE', #272, #359, #188 ) ;
#950 = LINE ( 'NONE', #868, #14 ) ;
#951 = ORIENTED_EDGE ( 'NONE', *, *, #559, .T. ) ;
#952 = DIRECTION ( 'NONE',  ( 0.000000000000000000, 1.000000000000000000, 0.000000000000000000 ) ) ;
#953 = B_SPLINE_CURVE_WITH_KNOTS ( 'NONE', 3,
 ( #1014, #686, #603, #369 ),
 .UNSPECIFIED., .F., .F.,
 ( 4, 4 ),
 ( 6.435673591656248826E-16, 0.0007303221569305806639 ),
 .UNSPECIFIED. ) ;
#954 = AXIS2_PLACEMENT_3D ( 'NONE', #731, #986, #671 ) ;
#955 = CARTESIAN_POINT ( 'NONE',  ( 2.500000000000000000, 0.5250000000000000222, -7.481602435307559418 ) ) ;
#956 = VECTOR ( 'NONE', #974, 1000.000000000000000 ) ;
#957 = CARTESIAN_POINT ( 'NONE',  ( -2.500000000000000000, 0.5250000000000000222, 7.481602435307561194 ) ) ;
#958 = CARTESIAN_POINT ( 'NONE',  ( 2.000000000000006661, -11.16351445336563941, -1.131979969109715212 ) ) ;
#959 = ORIENTED_EDGE ( 'NONE', *, *, #769, .F. ) ;
#960 = CARTESIAN_POINT ( 'NONE',  ( 2.422958146310262517, -7.337040783395863741, -1.554938115419977063 ) ) ;
#961 = DIRECTION ( 'NONE',  ( -0.6219988221477049661, 0.4756415987839325288, 0.6219988221477049661 ) ) ;
#962 = CARTESIAN_POINT ( 'NONE',  ( 2.500000000000000000, 0.000000000000000000, 0.000000000000000000 ) ) ;
#963 = DIRECTION ( 'NONE',  ( 1.000000000000000000, 0.000000000000000000, 0.000000000000000000 ) ) ;
#964 = ORIENTED_EDGE ( 'NONE', *, *, #702, .T. ) ;
#965 = EDGE_CURVE ( 'NONE', #153, #754, #439, .T. ) ;
#966 = B_SPLINE_CURVE_WITH_KNOTS ( 'NONE', 3,
 ( #668, #765, #999, #339 ),
 .UNSPECIFIED., .F., .F.,
 ( 4, 4 ),
 ( 0.000000000000000000, 0.0007385014660619589055 ),
 .UNSPECIFIED. ) ;
#967 = ADVANCED_FACE ( 'NONE', ( #912 ), #759, .T. ) ;
#968 = AXIS2_PLACEMENT_3D ( 'NONE', #845, #108, #1012 ) ;
#969 = LINE ( 'NONE', #145, #427 ) ;
#970 = DIRECTION ( 'NONE',  ( 0.000000000000000000, 1.000000000000000000, 0.000000000000000000 ) ) ;
#971 =( NAMED_UNIT ( * ) SI_UNIT ( $, .STERADIAN. ) SOLID_ANGLE_UNIT ( ) );
#972 = ORIENTED_EDGE ( 'NONE', *, *, #416, .T. ) ;
#973 = EDGE_CURVE ( 'NONE', #250, #564, #910, .T. ) ;
#974 = DIRECTION ( 'NONE',  ( 1.000000000000000000, 0.000000000000000000, 0.000000000000000000 ) ) ;
#975 = ORIENTED_EDGE ( 'NONE', *, *, #805, .T. ) ;
#976 = VECTOR ( 'NONE', #768, 1000.000000000000000 ) ;
#977 = CARTESIAN_POINT ( 'NONE',  ( -2.165299195636118501, -3.832556125272513547, -1.633150806270587063 ) ) ;
#978 = ORIENTED_EDGE ( 'NONE', *, *, #353, .T. ) ;
#979 = EDGE_CURVE ( 'NONE', #746, #659, #178, .T. ) ;
#980 =( NAMED_UNIT ( * ) PLANE_ANGLE_UNIT ( ) SI_UNIT ( $, .RADIAN. ) );
#981 = ORIENTED_EDGE ( 'NONE', *, *, #4, .F. ) ;
#982 = CIRCLE ( 'NONE', #522, 4.000000000000000000 ) ;
#983 = DIRECTION ( 'NONE',  ( 0.000000000000000000, -1.000000000000000000, 0.000000000000000000 ) ) ;
#984 = ORIENTED_EDGE ( 'NONE', *, *, #1043, .F. ) ;
#985 = CARTESIAN_POINT ( 'NONE',  ( 2.500000000000000000, 0.000000000000000000, -4.500000000000000888 ) ) ;
#986 = DIRECTION ( 'NONE',  ( 1.000000000000000000, 0.000000000000000000, 0.000000000000000000 ) ) ;
#987 = CARTESIAN_POINT ( 'NONE',  ( 2.000000000000006661, 0.000000000000000000, 0.000000000000000000 ) ) ;
#988 = AXIS2_PLACEMENT_3D ( 'NONE', #323, #65, #717 ) ;
#989 = ORIENTED_EDGE ( 'NONE', *, *, #848, .F. ) ;
#990 = DIRECTION ( 'NONE',  ( 1.000000000000000000, 0.000000000000000000, 0.000000000000000000 ) ) ;
#991 = VECTOR ( 'NONE', #646, 1000.000000000000000 ) ;
#992 = VERTEX_POINT ( 'NONE', #113 ) ;
#993 = DIRECTION ( 'NONE',  ( 0.000000000000000000, -0.9975469913743412187, -0.06999999999999997891 ) ) ;
#994 = LINE ( 'NONE', #28, #675 ) ;
#995 = VERTEX_POINT ( 'NONE', #200 ) ;
#996 = EDGE_CURVE ( 'NONE', #1065, #841, #994, .T. ) ;
#997 = EDGE_CURVE ( 'NONE', #310, #531, #586, .T. ) ;
#998 = PLANE ( 'NONE',  #11 ) ;
#999 = CARTESIAN_POINT ( 'NONE',  ( 2.332186176940386879, -4.013540824812126040, 1.632054664894567741 ) ) ;
#1000 = AXIS2_PLACEMENT_3D ( 'NONE', #795, #1037, #470 ) ;
#1001 = EDGE_LOOP ( 'NONE', ( #608, #776, #20, #789 ) ) ;
#1002 = VECTOR ( 'NONE', #190, 1000.000000000000000 ) ;
#1003 = FACE_OUTER_BOUND ( 'NONE', #415, .T. ) ;
#1004 = ADVANCED_FACE ( 'NONE', ( #355 ), #270, .T. ) ;
#1005 = DIRECTION ( 'NONE',  ( -0.4562398127789223934, 0.4254348331923762938, -0.7815692137885351665 ) ) ;
#1006 = CARTESIAN_POINT ( 'NONE',  ( -2.448667994825599603, -7.331592098486185094, 1.580647963935324807 ) ) ;
#1007 = ORIENTED_EDGE ( 'NONE', *, *, #4, .T. ) ;
#1008 = CARTESIAN_POINT ( 'NONE',  ( 2.500000000000000000, 3.500000000000000444, 2.828427124747353805 ) ) ;
#1009 = VERTEX_POINT ( 'NONE', #683 ) ;
#1010 = CARTESIAN_POINT ( 'NONE',  ( -2.500000000000000000, 0.5249999999999994671, -7.481602435307559418 ) ) ;
#1011 = EDGE_CURVE ( 'NONE', #564, #345, #748, .T. ) ;
#1012 = DIRECTION ( 'NONE',  ( 0.8636228286408400567, 0.000000000000000000, -0.5041384828104220617 ) ) ;
#1013 = ORIENTED_EDGE ( 'NONE', *, *, #205, .F. ) ;
#1014 = CARTESIAN_POINT ( 'NONE',  ( -2.500000000000000000, 3.500000000000007550, -2.828427124747355581 ) ) ;
#1015 = LINE ( 'NONE', #606, #166 ) ;
#1016 = DIRECTION ( 'NONE',  ( -1.000000000000000000, 0.000000000000000000, -0.000000000000000000 ) ) ;
#1017 = VERTEX_POINT ( 'NONE', #836 ) ;
#1018 = CARTESIAN_POINT ( 'NONE',  ( -1.999999999999992673, -4.575992248569344945, -1.131979969109715212 ) ) ;
#1019 = VECTOR ( 'NONE', #169, 1000.000000000000000 ) ;
#1020 = CARTESIAN_POINT ( 'NONE',  ( -2.500000000000000000, 50.00000000000000000, 0.000000000000000000 ) ) ;
#1021 = ORIENTED_EDGE ( 'NONE', *, *, #225, .T. ) ;
#1022 = EDGE_CURVE ( 'NONE', #1056, #50, #490, .T. ) ;
#1023 = CIRCLE ( 'NONE', #556, 2.000000000000001332 ) ;
#1024 = AXIS2_PLACEMENT_3D ( 'NONE', #797, #231, #52 ) ;
#1025 = DIRECTION ( 'NONE',  ( 1.000000000000000000, 0.000000000000000000, 0.000000000000000000 ) ) ;
#1026 =( NAMED_UNIT ( * ) PLANE_ANGLE_UNIT ( ) SI_UNIT ( $, .RADIAN. ) );
#1027 = ORIENTED_EDGE ( 'NONE', *, *, #882, .T. ) ;
#1028 = CARTESIAN_POINT ( 'NONE',  ( -2.500000000000000000, 50.28000000000001535, -3.990187965497365319 ) ) ;
#1029 = EDGE_CURVE ( 'NONE', #746, #487, #16, .T. ) ;
#1030 = CARTESIAN_POINT ( 'NONE',  ( -2.501000000000000334, -11.16351445336563941, 1.131979969109717876 ) ) ;
#1031 = EDGE_LOOP ( 'NONE', ( #867, #482, #36, #555 ) ) ;
#1032 = DIRECTION ( 'NONE',  ( 0.000000000000000000, -1.000000000000000000, 0.000000000000000000 ) ) ;
#1033 = AXIS2_PLACEMENT_3D ( 'NONE', #251, #740, #582 ) ;
#1034 = CARTESIAN_POINT ( 'NONE',  ( 2.000000000000006661, 0.000000000000000000, 0.000000000000000000 ) ) ;
#1035 = EDGE_CURVE ( 'NONE', #345, #1017, #537, .T. ) ;
#1036 = ORIENTED_EDGE ( 'NONE', *, *, #284, .T. ) ;
#1037 = DIRECTION ( 'NONE',  ( -0.4562398127792037794, 0.4254348331923064053, 0.7815692137884089341 ) ) ;
#1038 =( BOUNDED_CURVE ( )  B_SPLINE_CURVE ( 3, ( #336, #825, #306, #960 ),
 .UNSPECIFIED., .F., .T. ) 
 B_SPLINE_CURVE_WITH_KNOTS ( ( 4, 4 ),
 ( 1.351444190064231110, 1.361956492323131984 ),
 .UNSPECIFIED. ) 
 CURVE ( )  GEOMETRIC_REPRESENTATION_ITEM ( )  RATIONAL_B_SPLINE_CURVE ( ( 1.000000000000000000, 0.9999907909796363903, 0.9999907909796363903, 1.000000000000000000 ) ) 
 REPRESENTATION_ITEM ( '' )  );
#1039 = CARTESIAN_POINT ( 'NONE',  ( 2.000000000000006661, 0.000000000000000000, 0.000000000000000000 ) ) ;
#1040 = FACE_OUTER_BOUND ( 'NONE', #519, .T. ) ;
#1041 = CARTESIAN_POINT ( 'NONE',  ( 2.500000000000000000, 0.000000000000000000, 0.000000000000000000 ) ) ;
#1042 = AXIS2_PLACEMENT_3D ( 'NONE', #544, #876, #62 ) ;
#1043 = EDGE_CURVE ( 'NONE', #995, #948, #2, .T. ) ;
#1044 = EDGE_LOOP ( 'NONE', ( #811, #396, #546, #161, #593 ) ) ;
#1045 = EDGE_CURVE ( 'NONE', #410, #685, #713, .T. ) ;
#1046 = CARTESIAN_POINT ( 'NONE',  ( 2.468877910887504079, -4.217441988941909692, -1.600857879997219735 ) ) ;
#1047 = CARTESIAN_POINT ( 'NONE',  ( 2.000000000000006661, -6.914082637085599892, 1.131979969109717876 ) ) ;
#1048 = CARTESIAN_POINT ( 'NONE',  ( 2.000000000000006661, 0.000000000000000000, 0.000000000000000000 ) ) ;
#1049 = ORIENTED_EDGE ( 'NONE', *, *, #213, .F. ) ;
#1050 = EDGE_CURVE ( 'NONE', #250, #386, #770, .T. ) ;
#1051 = CONICAL_SURFACE ( 'NONE', #1033, 4.500000000000007105, 0.7853981633974482790 ) ;
#1052 = CIRCLE ( 'NONE', #589, 7.500000000000001776 ) ;
#1053 = DIRECTION ( 'NONE',  ( 0.000000000000000000, -1.000000000000000000, 0.000000000000000000 ) ) ;
#1054 = DIRECTION ( 'NONE',  ( 1.000000000000000000, 0.000000000000000000, 0.000000000000000000 ) ) ;
#1055 = DIRECTION ( 'NONE',  ( 1.000000000000000000, -0.000000000000000000, 0.000000000000000000 ) ) ;
#1056 = VERTEX_POINT ( 'NONE', #140 ) ;
#1057 = ADVANCED_FACE ( 'NONE', ( #704, #775 ), #864, .T. ) ;
#1058 = LINE ( 'NONE', #955, #390 ) ;
#1059 = VERTEX_POINT ( 'NONE', #297 ) ;
#1060 = AXIS2_PLACEMENT_3D ( 'NONE', #957, #794, #638 ) ;
#1061 = DIRECTION ( 'NONE',  ( 0.000000000000000000, 0.000000000000000000, -1.000000000000000000 ) ) ;
#1062 = ORIENTED_EDGE ( 'NONE', *, *, #480, .F. ) ;
#1063 = FACE_OUTER_BOUND ( 'NONE', #24, .T. ) ;
#1064 = CARTESIAN_POINT ( 'NONE',  ( -1.999999999999992673, -3.650164604229165111, -1.635939596083102909 ) ) ;
#1065 = VERTEX_POINT ( 'NONE', #308 ) ;
ENDSEC;
END-ISO-10303-21;
