ISO-10303-21;
HEADER;
FILE_DESCRIPTION (( 'STEP AP214' ),
    '1' );
FILE_NAME ('UniversalJointConnector.STEP',
    '2025-08-15T03:14:17',
    ( '' ),
    ( '' ),
    'SwSTEP 2.0',
    'SolidWorks 2024',
    '' );
FILE_SCHEMA (( 'AUTOMOTIVE_DESIGN' ));
ENDSEC;

DATA;
#1 = FACE_OUTER_BOUND ( 'NONE', #90, .T. ) ;
#2 = ORIENTED_EDGE ( 'NONE', *, *, #205, .F. ) ;
#3 = ORIENTED_EDGE ( 'NONE', *, *, #198, .F. ) ;
#4 = AXIS2_PLACEMENT_3D ( 'NONE', #30, #234, #256 ) ;
#5 = EDGE_CURVE ( 'NONE', #222, #220, #181, .T. ) ;
#6 = ORIENTED_EDGE ( 'NONE', *, *, #140, .T. ) ;
#7 = CARTESIAN_POINT ( 'NONE',  ( 0.000000000000000000, 16.00000000000000000, 0.000000000000000000 ) ) ;
#8 = CIRCLE ( 'NONE', #82, 5.000000000000000000 ) ;
#9 = FACE_OUTER_BOUND ( 'NONE', #46, .T. ) ;
#10 = CARTESIAN_POINT ( 'NONE',  ( 0.000000000000000000, 0.000000000000000000, 0.000000000000000000 ) ) ;
#11 = CARTESIAN_POINT ( 'NONE',  ( 0.000000000000000000, 0.000000000000000000, 0.000000000000000000 ) ) ;
#12 = FACE_OUTER_BOUND ( 'NONE', #229, .T. ) ;
#13 = PRODUCT_DEFINITION_CONTEXT ( 'detailed design', #18, 'design' ) ;
#14 = PRESENTATION_STYLE_ASSIGNMENT (( #216 ) ) ;
#15 = CARTESIAN_POINT ( 'NONE',  ( 0.000000000000000000, 11.50000000000000000, 0.000000000000000000 ) ) ;
#16 = MECHANICAL_DESIGN_GEOMETRIC_PRESENTATION_REPRESENTATION (  '', ( #102 ), #190 ) ;
#17 = CARTESIAN_POINT ( 'NONE',  ( 0.000000000000000000, 11.50000000000000000, 0.000000000000000000 ) ) ;
#18 = APPLICATION_CONTEXT ( 'automotive_design' ) ;
#19 = LINE ( 'NONE', #176, #36 ) ;
#20 = DIRECTION ( 'NONE',  ( 0.000000000000000000, 1.000000000000000000, 0.000000000000000000 ) ) ;
#21 = CIRCLE ( 'NONE', #123, 2.500000000000000000 ) ;
#22 = ORIENTED_EDGE ( 'NONE', *, *, #226, .T. ) ;
#23 = EDGE_CURVE ( 'NONE', #182, #24, #21, .T. ) ;
#24 = VERTEX_POINT ( 'NONE', #209 ) ;
#25 = ORIENTED_EDGE ( 'NONE', *, *, #131, .F. ) ;
#26 = APPLICATION_PROTOCOL_DEFINITION ( 'draft international standard', 'automotive_design', 1998, #18 ) ;
#27 = ADVANCED_FACE ( 'NONE', ( #165 ), #233, .T. ) ;
#28 = VERTEX_POINT ( 'NONE', #211 ) ;
#29 = DIRECTION ( 'NONE',  ( 0.000000000000000000, 1.000000000000000000, 0.000000000000000000 ) ) ;
#30 = CARTESIAN_POINT ( 'NONE',  ( 0.000000000000000000, 11.50000000000000000, 0.000000000000000000 ) ) ;
#31 = EDGE_CURVE ( 'NONE', #132, #277, #201, .T. ) ;
#32 = DIRECTION ( 'NONE',  ( 0.000000000000000000, 1.000000000000000000, 0.000000000000000000 ) ) ;
#33 = DIRECTION ( 'NONE',  ( 0.000000000000000000, 0.000000000000000000, -1.000000000000000000 ) ) ;
#34 = CARTESIAN_POINT ( 'NONE',  ( 0.000000000000000000, 11.50000000000000000, -5.000000000000000000 ) ) ;
#35 = ADVANCED_FACE ( 'NONE', ( #55 ), #59, .T. ) ;
#36 = VECTOR ( 'NONE', #240, 1000.000000000000000 ) ;
#37 = CIRCLE ( 'NONE', #44, 5.000000000000000000 ) ;
#38 = DIRECTION ( 'NONE',  ( 0.000000000000000000, 1.000000000000000000, 0.000000000000000000 ) ) ;
#39 = ADVANCED_FACE ( 'NONE', ( #141, #98 ), #273, .T. ) ;
#40 = FACE_OUTER_BOUND ( 'NONE', #133, .T. ) ;
#41 = CARTESIAN_POINT ( 'NONE',  ( 0.000000000000000000, 11.50000000000000000, -5.000000000000000000 ) ) ;
#42 = CIRCLE ( 'NONE', #122, 4.000000000000003553 ) ;
#43 = FILL_AREA_STYLE ('',( #127 ) ) ;
#44 = AXIS2_PLACEMENT_3D ( 'NONE', #15, #125, #281 ) ;
#45 = CARTESIAN_POINT ( 'NONE',  ( 4.898587196589417759E-16, 10.00000000000000000, 4.000000000000003553 ) ) ;
#46 = EDGE_LOOP ( 'NONE', ( #91, #129 ) ) ;
#47 = AXIS2_PLACEMENT_3D ( 'NONE', #170, #103, #63 ) ;
#48 = VERTEX_POINT ( 'NONE', #116 ) ;
#49 = ORIENTED_EDGE ( 'NONE', *, *, #226, .F. ) ;
#50 = CARTESIAN_POINT ( 'NONE',  ( 4.898587196589417759E-16, 10.00000000000000000, 4.000000000000003553 ) ) ;
#51 = ORIENTED_EDGE ( 'NONE', *, *, #31, .T. ) ;
#52 = ORIENTED_EDGE ( 'NONE', *, *, #85, .T. ) ;
#53 = ADVANCED_FACE ( 'NONE', ( #212 ), #235, .T. ) ;
#54 = CIRCLE ( 'NONE', #282, 2.500000000000000000 ) ;
#55 = FACE_OUTER_BOUND ( 'NONE', #202, .T. ) ;
#56 = DIRECTION ( 'NONE',  ( 0.000000000000000000, 0.000000000000000000, 1.000000000000000000 ) ) ;
#57 = ADVANCED_FACE ( 'NONE', ( #9 ), #118, .F. ) ;
#58 = CARTESIAN_POINT ( 'NONE',  ( 0.000000000000000000, 10.00000000000000000, 0.000000000000000000 ) ) ;
#59 = CYLINDRICAL_SURFACE ( 'NONE', #272, 5.000000000000000000 ) ;
#60 = VERTEX_POINT ( 'NONE', #34 ) ;
#61 =( NAMED_UNIT ( * ) SI_UNIT ( $, .STERADIAN. ) SOLID_ANGLE_UNIT ( ) );
#62 = LINE ( 'NONE', #237, #83 ) ;
#63 = DIRECTION ( 'NONE',  ( 0.000000000000000000, -0.000000000000000000, 1.000000000000000000 ) ) ;
#64 = CIRCLE ( 'NONE', #227, 5.000000000000000000 ) ;
#65 = ORIENTED_EDGE ( 'NONE', *, *, #258, .T. ) ;
#66 = CARTESIAN_POINT ( 'NONE',  ( 0.000000000000000000, 0.000000000000000000, 0.000000000000000000 ) ) ;
#67 = ORIENTED_EDGE ( 'NONE', *, *, #159, .F. ) ;
#68 = AXIS2_PLACEMENT_3D ( 'NONE', #191, #120, #187 ) ;
#69 = VECTOR ( 'NONE', #194, 1000.000000000000000 ) ;
#70 = ORIENTED_EDGE ( 'NONE', *, *, #205, .T. ) ;
#71 = APPLICATION_CONTEXT ( 'automotive_design' ) ;
#72 = ORIENTED_EDGE ( 'NONE', *, *, #5, .T. ) ;
#73 = EDGE_LOOP ( 'NONE', ( #51, #137 ) ) ;
#74 = DIRECTION ( 'NONE',  ( 0.000000000000000000, 1.000000000000000000, 0.000000000000000000 ) ) ;
#75 = ADVANCED_FACE ( 'NONE', ( #12 ), #271, .T. ) ;
#76 = FACE_BOUND ( 'NONE', #73, .T. ) ;
#77 = ORIENTED_EDGE ( 'NONE', *, *, #236, .F. ) ;
#78 =( GEOMETRIC_REPRESENTATION_CONTEXT ( 3 ) GLOBAL_UNCERTAINTY_ASSIGNED_CONTEXT ( ( #214 ) ) GLOBAL_UNIT_ASSIGNED_CONTEXT ( ( #178, #156, #285 ) ) REPRESENTATION_CONTEXT ( 'NONE', 'WORKASPACE' ) );
#79 = DIRECTION ( 'NONE',  ( 0.000000000000000000, 1.000000000000000000, 0.000000000000000000 ) ) ;
#80 = DIRECTION ( 'NONE',  ( 0.000000000000000000, 0.000000000000000000, 1.000000000000000000 ) ) ;
#81 = AXIS2_PLACEMENT_3D ( 'NONE', #10, #96, #213 ) ;
#82 = AXIS2_PLACEMENT_3D ( 'NONE', #17, #171, #80 ) ;
#83 = VECTOR ( 'NONE', #257, 1000.000000000000000 ) ;
#84 = DIRECTION ( 'NONE',  ( 0.000000000000000000, 1.000000000000000000, 0.000000000000000000 ) ) ;
#85 = EDGE_CURVE ( 'NONE', #223, #28, #245, .T. ) ;
#86 = SURFACE_STYLE_FILL_AREA ( #43 ) ;
#87 = CARTESIAN_POINT ( 'NONE',  ( 0.000000000000000000, 11.50000000000000000, 0.000000000000000000 ) ) ;
#88 = CARTESIAN_POINT ( 'NONE',  ( 0.000000000000000000, 10.00000000000000000, 0.000000000000000000 ) ) ;
#89 = CARTESIAN_POINT ( 'NONE',  ( 0.000000000000000000, 10.00000000000000000, 0.000000000000000000 ) ) ;
#90 = EDGE_LOOP ( 'NONE', ( #180, #247, #52, #253 ) ) ;
#91 = ORIENTED_EDGE ( 'NONE', *, *, #104, .F. ) ;
#92 = ADVANCED_FACE ( 'NONE', ( #76, #278 ), #166, .F. ) ;
#93 = ORIENTED_EDGE ( 'NONE', *, *, #131, .T. ) ;
#94 = ORIENTED_EDGE ( 'NONE', *, *, #23, .T. ) ;
#95 = CARTESIAN_POINT ( 'NONE',  ( 0.000000000000000000, 10.00000000000000000, 0.000000000000000000 ) ) ;
#96 = DIRECTION ( 'NONE',  ( 0.000000000000000000, 1.000000000000000000, 0.000000000000000000 ) ) ;
#97 = DIRECTION ( 'NONE',  ( 0.000000000000000000, -0.000000000000000000, 1.000000000000000000 ) ) ;
#98 = FACE_OUTER_BOUND ( 'NONE', #114, .T. ) ;
#99 = CIRCLE ( 'NONE', #134, 2.500000000000000000 ) ;
#100 = DIRECTION ( 'NONE',  ( -0.000000000000000000, -1.000000000000000000, -0.000000000000000000 ) ) ;
#101 = SURFACE_SIDE_STYLE ('',( #86 ) ) ;
#102 = STYLED_ITEM ( 'NONE', ( #14 ), #119 ) ;
#103 = DIRECTION ( 'NONE',  ( 0.000000000000000000, 1.000000000000000000, 0.000000000000000000 ) ) ;
#104 = EDGE_CURVE ( 'NONE', #28, #223, #42, .T. ) ;
#105 = FACE_OUTER_BOUND ( 'NONE', #244, .T. ) ;
#106 = PRODUCT_DEFINITION ( 'UNKNOWN', '', #124, #13 ) ;
#107 = DIRECTION ( 'NONE',  ( 0.000000000000000000, 0.000000000000000000, 1.000000000000000000 ) ) ;
#108 = ORIENTED_EDGE ( 'NONE', *, *, #159, .T. ) ;
#109 = DIRECTION ( 'NONE',  ( 0.000000000000000000, 0.000000000000000000, 1.000000000000000000 ) ) ;
#110 = ORIENTED_EDGE ( 'NONE', *, *, #104, .T. ) ;
#111 = PRODUCT_CONTEXT ( 'NONE', #71, 'mechanical' ) ;
#112 = ORIENTED_EDGE ( 'NONE', *, *, #258, .F. ) ;
#113 = VERTEX_POINT ( 'NONE', #199 ) ;
#114 = EDGE_LOOP ( 'NONE', ( #22, #266 ) ) ;
#115 = DIRECTION ( 'NONE',  ( 0.000000000000000000, 0.000000000000000000, 1.000000000000000000 ) ) ;
#116 = CARTESIAN_POINT ( 'NONE',  ( 0.000000000000000000, 10.00000000000000000, -5.000000000000000000 ) ) ;
#117 = CIRCLE ( 'NONE', #264, 5.000000000000000000 ) ;
#118 = PLANE ( 'NONE',  #81 ) ;
#119 = MANIFOLD_SOLID_BREP ( 'Boss-Extrude4', #151 ) ;
#120 = DIRECTION ( 'NONE',  ( -0.000000000000000000, -1.000000000000000000, -0.000000000000000000 ) ) ;
#121 = DIRECTION ( 'NONE',  ( 0.000000000000000000, 0.000000000000000000, -1.000000000000000000 ) ) ;
#122 = AXIS2_PLACEMENT_3D ( 'NONE', #11, #79, #152 ) ;
#123 = AXIS2_PLACEMENT_3D ( 'NONE', #255, #169, #56 ) ;
#124 = PRODUCT_DEFINITION_FORMATION_WITH_SPECIFIED_SOURCE ( 'ANY', '', #164, .NOT_KNOWN. ) ;
#125 = DIRECTION ( 'NONE',  ( 0.000000000000000000, 1.000000000000000000, 0.000000000000000000 ) ) ;
#126 = PLANE ( 'NONE',  #47 ) ;
#127 = FILL_AREA_STYLE_COLOUR ( '', #232 ) ;
#128 = CARTESIAN_POINT ( 'NONE',  ( 6.123233995736766282E-16, 11.50000000000000000, 5.000000000000000000 ) ) ;
#129 = ORIENTED_EDGE ( 'NONE', *, *, #85, .F. ) ;
#130 = ORIENTED_EDGE ( 'NONE', *, *, #270, .F. ) ;
#131 = EDGE_CURVE ( 'NONE', #113, #48, #64, .T. ) ;
#132 = VERTEX_POINT ( 'NONE', #150 ) ;
#133 = EDGE_LOOP ( 'NONE', ( #72, #135 ) ) ;
#134 = AXIS2_PLACEMENT_3D ( 'NONE', #87, #84, #238 ) ;
#135 = ORIENTED_EDGE ( 'NONE', *, *, #270, .T. ) ;
#136 = CARTESIAN_POINT ( 'NONE',  ( 0.000000000000000000, 11.50000000000000000, 0.000000000000000000 ) ) ;
#137 = ORIENTED_EDGE ( 'NONE', *, *, #184, .T. ) ;
#138 = PRESENTATION_LAYER_ASSIGNMENT (  '', '', ( #102 ) ) ;
#139 = DIRECTION ( 'NONE',  ( 0.000000000000000000, 1.000000000000000000, 0.000000000000000000 ) ) ;
#140 = EDGE_CURVE ( 'NONE', #24, #182, #99, .T. ) ;
#141 = FACE_BOUND ( 'NONE', #189, .T. ) ;
#142 = CARTESIAN_POINT ( 'NONE',  ( 0.000000000000000000, 16.00000000000000000, 0.000000000000000000 ) ) ;
#143 = CARTESIAN_POINT ( 'NONE',  ( 4.898587196589417759E-16, 0.000000000000000000, 4.000000000000003553 ) ) ;
#144 = AXIS2_PLACEMENT_3D ( 'NONE', #168, #32, #115 ) ;
#145 = VECTOR ( 'NONE', #217, 1000.000000000000000 ) ;
#146 = AXIS2_PLACEMENT_3D ( 'NONE', #88, #265, #219 ) ;
#147 = DIRECTION ( 'NONE',  ( 0.000000000000000000, 0.000000000000000000, 1.000000000000000000 ) ) ;
#148 = DIRECTION ( 'NONE',  ( -0.000000000000000000, -1.000000000000000000, -0.000000000000000000 ) ) ;
#149 = ADVANCED_BREP_SHAPE_REPRESENTATION ( 'UniversalJointConnector', ( #119, #177 ), #78 ) ;
#150 = CARTESIAN_POINT ( 'NONE',  ( 0.000000000000000000, 10.00000000000000000, -4.000000000000003553 ) ) ;
#151 = CLOSED_SHELL ( 'NONE', ( #27, #35, #260, #254, #57, #53, #39, #92, #75, #188 ) ) ;
#152 = DIRECTION ( 'NONE',  ( 0.000000000000000000, 0.000000000000000000, 1.000000000000000000 ) ) ;
#153 = CYLINDRICAL_SURFACE ( 'NONE', #206, 4.000000000000003553 ) ;
#154 = DIRECTION ( 'NONE',  ( 1.000000000000000000, 0.000000000000000000, 0.000000000000000000 ) ) ;
#155 = EDGE_LOOP ( 'NONE', ( #130, #251, #6, #2 ) ) ;
#156 =( NAMED_UNIT ( * ) PLANE_ANGLE_UNIT ( ) SI_UNIT ( $, .RADIAN. ) );
#157 = EDGE_LOOP ( 'NONE', ( #160, #49, #108, #65 ) ) ;
#158 = DIRECTION ( 'NONE',  ( -0.000000000000000000, -1.000000000000000000, -0.000000000000000000 ) ) ;
#159 = EDGE_CURVE ( 'NONE', #60, #48, #259, .T. ) ;
#160 = ORIENTED_EDGE ( 'NONE', *, *, #175, .F. ) ;
#161 = VECTOR ( 'NONE', #262, 1000.000000000000000 ) ;
#162 = DIRECTION ( 'NONE',  ( -0.000000000000000000, -1.000000000000000000, -0.000000000000000000 ) ) ;
#163 = EDGE_CURVE ( 'NONE', #132, #28, #19, .T. ) ;
#164 = PRODUCT ( 'UniversalJointConnector', 'UniversalJointConnector', '', ( #111 ) ) ;
#165 = FACE_OUTER_BOUND ( 'NONE', #155, .T. ) ;
#166 = PLANE ( 'NONE',  #196 ) ;
#167 = AXIS2_PLACEMENT_3D ( 'NONE', #95, #74, #186 ) ;
#168 = CARTESIAN_POINT ( 'NONE',  ( 0.000000000000000000, 16.00000000000000000, 0.000000000000000000 ) ) ;
#169 = DIRECTION ( 'NONE',  ( 0.000000000000000000, 1.000000000000000000, 0.000000000000000000 ) ) ;
#170 = CARTESIAN_POINT ( 'NONE',  ( 0.000000000000000000, 16.00000000000000000, 0.000000000000000000 ) ) ;
#171 = DIRECTION ( 'NONE',  ( 0.000000000000000000, 1.000000000000000000, 0.000000000000000000 ) ) ;
#172 = EDGE_CURVE ( 'NONE', #277, #223, #241, .T. ) ;
#173 = VECTOR ( 'NONE', #148, 1000.000000000000000 ) ;
#174 = LINE ( 'NONE', #261, #173 ) ;
#175 = EDGE_CURVE ( 'NONE', #183, #113, #195, .T. ) ;
#176 = CARTESIAN_POINT ( 'NONE',  ( 0.000000000000000000, 10.00000000000000000, -4.000000000000003553 ) ) ;
#177 = AXIS2_PLACEMENT_3D ( 'NONE', #66, #107, #154 ) ;
#178 =( LENGTH_UNIT ( ) NAMED_UNIT ( * ) SI_UNIT ( .MILLI., .METRE. ) );
#179 = DIRECTION ( 'NONE',  ( 0.000000000000000000, 1.000000000000000000, 0.000000000000000000 ) ) ;
#180 = ORIENTED_EDGE ( 'NONE', *, *, #184, .F. ) ;
#181 = CIRCLE ( 'NONE', #144, 2.500000000000000000 ) ;
#182 = VERTEX_POINT ( 'NONE', #263 ) ;
#183 = VERTEX_POINT ( 'NONE', #193 ) ;
#184 = EDGE_CURVE ( 'NONE', #277, #132, #185, .T. ) ;
#185 = CIRCLE ( 'NONE', #192, 4.000000000000003553 ) ;
#186 = DIRECTION ( 'NONE',  ( 0.000000000000000000, 0.000000000000000000, 1.000000000000000000 ) ) ;
#187 = DIRECTION ( 'NONE',  ( 0.000000000000000000, 0.000000000000000000, -1.000000000000000000 ) ) ;
#188 = ADVANCED_FACE ( 'NONE', ( #40 ), #126, .T. ) ;
#189 = EDGE_LOOP ( 'NONE', ( #243, #204 ) ) ;
#190 =( GEOMETRIC_REPRESENTATION_CONTEXT ( 3 ) GLOBAL_UNCERTAINTY_ASSIGNED_CONTEXT ( ( #252 ) ) GLOBAL_UNIT_ASSIGNED_CONTEXT ( ( #283, #284, #61 ) ) REPRESENTATION_CONTEXT ( 'NONE', 'WORKASPACE' ) );
#191 = CARTESIAN_POINT ( 'NONE',  ( 0.000000000000000000, 16.00000000000000000, 0.000000000000000000 ) ) ;
#192 = AXIS2_PLACEMENT_3D ( 'NONE', #218, #279, #280 ) ;
#193 = CARTESIAN_POINT ( 'NONE',  ( 6.123233995736766282E-16, 11.50000000000000000, 5.000000000000000000 ) ) ;
#194 = DIRECTION ( 'NONE',  ( -0.000000000000000000, -1.000000000000000000, -0.000000000000000000 ) ) ;
#195 = LINE ( 'NONE', #128, #69 ) ;
#196 = AXIS2_PLACEMENT_3D ( 'NONE', #58, #139, #97 ) ;
#197 = CARTESIAN_POINT ( 'NONE',  ( 3.061616997868383141E-16, 16.00000000000000000, 2.500000000000000000 ) ) ;
#198 = EDGE_CURVE ( 'NONE', #183, #60, #8, .T. ) ;
#199 = CARTESIAN_POINT ( 'NONE',  ( 6.123233995736766282E-16, 10.00000000000000000, 5.000000000000000000 ) ) ;
#200 = APPLICATION_PROTOCOL_DEFINITION ( 'draft international standard', 'automotive_design', 1998, #71 ) ;
#201 = CIRCLE ( 'NONE', #167, 4.000000000000003553 ) ;
#202 = EDGE_LOOP ( 'NONE', ( #3, #208, #93, #67 ) ) ;
#203 = EDGE_LOOP ( 'NONE', ( #112, #25 ) ) ;
#204 = ORIENTED_EDGE ( 'NONE', *, *, #140, .F. ) ;
#205 = EDGE_CURVE ( 'NONE', #222, #182, #62, .T. ) ;
#206 = AXIS2_PLACEMENT_3D ( 'NONE', #267, #158, #207 ) ;
#207 = DIRECTION ( 'NONE',  ( 0.000000000000000000, 0.000000000000000000, -1.000000000000000000 ) ) ;
#208 = ORIENTED_EDGE ( 'NONE', *, *, #175, .T. ) ;
#209 = CARTESIAN_POINT ( 'NONE',  ( 3.061616997868383141E-16, 11.50000000000000000, 2.500000000000000000 ) ) ;
#210 = DIRECTION ( 'NONE',  ( -0.000000000000000000, -1.000000000000000000, -0.000000000000000000 ) ) ;
#211 = CARTESIAN_POINT ( 'NONE',  ( 0.000000000000000000, 0.000000000000000000, -4.000000000000003553 ) ) ;
#212 = FACE_OUTER_BOUND ( 'NONE', #157, .T. ) ;
#213 = DIRECTION ( 'NONE',  ( 0.000000000000000000, -0.000000000000000000, 1.000000000000000000 ) ) ;
#214 = UNCERTAINTY_MEASURE_WITH_UNIT (LENGTH_MEASURE( 1.000000000000000082E-05 ), #178, 'distance_accuracy_value', 'NONE');
#215 = CARTESIAN_POINT ( 'NONE',  ( 0.000000000000000000, 16.00000000000000000, -2.500000000000000000 ) ) ;
#216 = SURFACE_STYLE_USAGE ( .BOTH. , #101 ) ;
#217 = DIRECTION ( 'NONE',  ( -0.000000000000000000, -1.000000000000000000, -0.000000000000000000 ) ) ;
#218 = CARTESIAN_POINT ( 'NONE',  ( 0.000000000000000000, 10.00000000000000000, 0.000000000000000000 ) ) ;
#219 = DIRECTION ( 'NONE',  ( 0.000000000000000000, 0.000000000000000000, -1.000000000000000000 ) ) ;
#220 = VERTEX_POINT ( 'NONE', #197 ) ;
#221 = AXIS2_PLACEMENT_3D ( 'NONE', #142, #100, #231 ) ;
#222 = VERTEX_POINT ( 'NONE', #215 ) ;
#223 = VERTEX_POINT ( 'NONE', #143 ) ;
#224 = DIRECTION ( 'NONE',  ( 0.000000000000000000, 0.000000000000000000, 1.000000000000000000 ) ) ;
#225 = ORIENTED_EDGE ( 'NONE', *, *, #163, .T. ) ;
#226 = EDGE_CURVE ( 'NONE', #60, #183, #37, .T. ) ;
#227 = AXIS2_PLACEMENT_3D ( 'NONE', #239, #38, #147 ) ;
#228 = CYLINDRICAL_SURFACE ( 'NONE', #146, 4.000000000000003553 ) ;
#229 = EDGE_LOOP ( 'NONE', ( #77, #268, #70, #94 ) ) ;
#230 = CARTESIAN_POINT ( 'NONE',  ( 0.000000000000000000, 0.000000000000000000, 0.000000000000000000 ) ) ;
#231 = DIRECTION ( 'NONE',  ( 0.000000000000000000, 0.000000000000000000, -1.000000000000000000 ) ) ;
#232 = COLOUR_RGB ( '',0.7921568627450980005, 0.8196078431372548767, 0.9333333333333333481 ) ;
#233 = CYLINDRICAL_SURFACE ( 'NONE', #221, 2.500000000000000000 ) ;
#234 = DIRECTION ( 'NONE',  ( 0.000000000000000000, 1.000000000000000000, 0.000000000000000000 ) ) ;
#235 = CYLINDRICAL_SURFACE ( 'NONE', #269, 5.000000000000000000 ) ;
#236 = EDGE_CURVE ( 'NONE', #220, #24, #174, .T. ) ;
#237 = CARTESIAN_POINT ( 'NONE',  ( 0.000000000000000000, 16.00000000000000000, -2.500000000000000000 ) ) ;
#238 = DIRECTION ( 'NONE',  ( 0.000000000000000000, 0.000000000000000000, 1.000000000000000000 ) ) ;
#239 = CARTESIAN_POINT ( 'NONE',  ( 0.000000000000000000, 10.00000000000000000, 0.000000000000000000 ) ) ;
#240 = DIRECTION ( 'NONE',  ( -0.000000000000000000, -1.000000000000000000, -0.000000000000000000 ) ) ;
#241 = LINE ( 'NONE', #45, #145 ) ;
#242 = SHAPE_DEFINITION_REPRESENTATION ( #275, #149 ) ;
#243 = ORIENTED_EDGE ( 'NONE', *, *, #23, .F. ) ;
#244 = EDGE_LOOP ( 'NONE', ( #248, #246, #225, #110 ) ) ;
#245 = CIRCLE ( 'NONE', #249, 4.000000000000003553 ) ;
#246 = ORIENTED_EDGE ( 'NONE', *, *, #31, .F. ) ;
#247 = ORIENTED_EDGE ( 'NONE', *, *, #172, .T. ) ;
#248 = ORIENTED_EDGE ( 'NONE', *, *, #172, .F. ) ;
#249 = AXIS2_PLACEMENT_3D ( 'NONE', #230, #29, #276 ) ;
#250 = CARTESIAN_POINT ( 'NONE',  ( 0.000000000000000000, 11.50000000000000000, 0.000000000000000000 ) ) ;
#251 = ORIENTED_EDGE ( 'NONE', *, *, #236, .T. ) ;
#252 = UNCERTAINTY_MEASURE_WITH_UNIT (LENGTH_MEASURE( 1.000000000000000082E-05 ), #283, 'distance_accuracy_value', 'NONE');
#253 = ORIENTED_EDGE ( 'NONE', *, *, #163, .F. ) ;
#254 = ADVANCED_FACE ( 'NONE', ( #105 ), #153, .T. ) ;
#255 = CARTESIAN_POINT ( 'NONE',  ( 0.000000000000000000, 11.50000000000000000, 0.000000000000000000 ) ) ;
#256 = DIRECTION ( 'NONE',  ( 0.000000000000000000, -0.000000000000000000, 1.000000000000000000 ) ) ;
#257 = DIRECTION ( 'NONE',  ( -0.000000000000000000, -1.000000000000000000, -0.000000000000000000 ) ) ;
#258 = EDGE_CURVE ( 'NONE', #48, #113, #117, .T. ) ;
#259 = LINE ( 'NONE', #41, #161 ) ;
#260 = ADVANCED_FACE ( 'NONE', ( #1 ), #228, .T. ) ;
#261 = CARTESIAN_POINT ( 'NONE',  ( 3.061616997868383141E-16, 16.00000000000000000, 2.500000000000000000 ) ) ;
#262 = DIRECTION ( 'NONE',  ( -0.000000000000000000, -1.000000000000000000, -0.000000000000000000 ) ) ;
#263 = CARTESIAN_POINT ( 'NONE',  ( 0.000000000000000000, 11.50000000000000000, -2.500000000000000000 ) ) ;
#264 = AXIS2_PLACEMENT_3D ( 'NONE', #89, #20, #109 ) ;
#265 = DIRECTION ( 'NONE',  ( -0.000000000000000000, -1.000000000000000000, -0.000000000000000000 ) ) ;
#266 = ORIENTED_EDGE ( 'NONE', *, *, #198, .T. ) ;
#267 = CARTESIAN_POINT ( 'NONE',  ( 0.000000000000000000, 10.00000000000000000, 0.000000000000000000 ) ) ;
#268 = ORIENTED_EDGE ( 'NONE', *, *, #5, .F. ) ;
#269 = AXIS2_PLACEMENT_3D ( 'NONE', #136, #210, #33 ) ;
#270 = EDGE_CURVE ( 'NONE', #220, #222, #54, .T. ) ;
#271 = CYLINDRICAL_SURFACE ( 'NONE', #68, 2.500000000000000000 ) ;
#272 = AXIS2_PLACEMENT_3D ( 'NONE', #250, #162, #121 ) ;
#273 = PLANE ( 'NONE',  #4 ) ;
#274 = PRODUCT_RELATED_PRODUCT_CATEGORY ( 'part', '', ( #164 ) ) ;
#275 = PRODUCT_DEFINITION_SHAPE ( 'NONE', 'NONE',  #106 ) ;
#276 = DIRECTION ( 'NONE',  ( 0.000000000000000000, 0.000000000000000000, 1.000000000000000000 ) ) ;
#277 = VERTEX_POINT ( 'NONE', #50 ) ;
#278 = FACE_OUTER_BOUND ( 'NONE', #203, .T. ) ;
#279 = DIRECTION ( 'NONE',  ( 0.000000000000000000, 1.000000000000000000, 0.000000000000000000 ) ) ;
#280 = DIRECTION ( 'NONE',  ( 0.000000000000000000, 0.000000000000000000, 1.000000000000000000 ) ) ;
#281 = DIRECTION ( 'NONE',  ( 0.000000000000000000, 0.000000000000000000, 1.000000000000000000 ) ) ;
#282 = AXIS2_PLACEMENT_3D ( 'NONE', #7, #179, #224 ) ;
#283 =( LENGTH_UNIT ( ) NAMED_UNIT ( * ) SI_UNIT ( .MILLI., .METRE. ) );
#284 =( NAMED_UNIT ( * ) PLANE_ANGLE_UNIT ( ) SI_UNIT ( $, .RADIAN. ) );
#285 =( NAMED_UNIT ( * ) SI_UNIT ( $, .STERADIAN. ) SOLID_ANGLE_UNIT ( ) );
ENDSEC;
END-ISO-10303-21;
